<svg id="arbejdstilsynet" xmlns="http://www.w3.org/2000/svg" width="110" height="92" viewBox="0 0 110 92">
  <defs>
    <style>
      .cls-1 {
        fill: #fff;
        fill-rule: evenodd;
      }
    </style>
  </defs>
  <title>arbejdstilsynet</title>
  <g id="svgg">
    <path id="path0" class="cls-1" d="M1.53,20.16v3.17H26.89V17H1.53v3.16"/>
    <path id="path3" class="cls-1" d="M13.65,31.91v.75H11.88v1.12h1.77v.78l-.3.13a2,2,0,1,0,1.72,0l-.24-.11v-.8h1.71V32.63H14.83v-1.5H13.65v.78M8.58,38.12a4.18,4.18,0,0,0-2.76,1.93c-.08.17-.11.19-.16.17a4.74,4.74,0,0,0-1.39-.14c-2.1.14-3.14,1.74-2.58,4a13.35,13.35,0,0,0,2,3.91,8.76,8.76,0,0,1,.78,2.14l0,.11h9.12V39.57l-.4-.27a6.44,6.44,0,0,0-4.67-1.18m9.46,0a8.58,8.58,0,0,0-2.94,1.28l-.33.22V50.27h9.12l.19-.56c.1-.33.24-.75.29-1A3.47,3.47,0,0,1,25,47.67a17.88,17.88,0,0,0,1.61-2.9c1.15-3.08-.51-5.17-3.67-4.55-.16,0-.16,0-.3-.22A4.4,4.4,0,0,0,18,38.1M10.3,40a2.81,2.81,0,0,1,1,.33l.19.13v7.88H9.33l-.1-.19A5.57,5.57,0,0,1,9,47.59a4.83,4.83,0,0,1-.18-.48A19.77,19.77,0,0,1,8,44.24c-.54-2.68-.11-4,1.42-4.27a2.78,2.78,0,0,1,.91,0m8.92.06c1.48.32,1.83,1.77,1.16,4.72a22,22,0,0,1-.91,2.84c0,.08-.11.27-.19.43l-.14.29H16.87V40.46l.18-.11A3,3,0,0,1,19.22,40m-14,1.69.16.05.06.54a14.55,14.55,0,0,0,1.15,4,4.3,4.3,0,0,0,.22.48c0,.11.24.51.42.86l.33.67H5.82l-.27-.51C4,45,3.43,42.66,4.16,42a1.09,1.09,0,0,1,1-.24m18.88.08c.8.37.69,2.06-.27,4.18,0,.13-.11.24-.11.27S23,47.72,22.82,48l-.19.32h-.86c-.45,0-.83,0-.83,0s.7-1.42.75-1.53a2.61,2.61,0,0,0,.19-.45,13,13,0,0,0,1.12-4l0-.48.14-.06a1.21,1.21,0,0,1,.91.06m33.77,4.47a.92.92,0,0,0-.5,1.59A1,1,0,0,0,59,47.43a1,1,0,0,0-1.16-1.16m18.61,0a1,1,0,0,0,.16,1.88.91.91,0,0,0,1-.94.94.94,0,0,0-1.15-.94M34.69,47c-.1.26-.27.64-.35.85s-.26.67-.4,1-.4,1-.59,1.5c-.51,1.29-1,2.66-1.18,3a2,2,0,0,0-.13.38,7.51,7.51,0,0,0,1,0h1l.27-.8.27-.8h2.62l0,.1c0,.06.13.43.27.83l.24.73h2l0-.11c0-.13-.56-1.47-.81-2-.1-.26-.21-.53-.24-.64a1.15,1.15,0,0,0-.08-.21s0-.11-.08-.17l-.61-1.6c-.33-.84-.67-1.72-.78-2l-.19-.51h-2l-.19.43M45,50.19v3.64h1.66v-.48l.08.11a2,2,0,0,0,1.88.48c2.22-.59,2.33-4.42.11-5.09a2.05,2.05,0,0,0-1.85.32l-.16.13V46.57H44.91v3.62m18.6-2.31v1.34l-.19-.16a2.07,2.07,0,0,0-2.65.35,3,3,0,0,0,0,4,2.06,2.06,0,0,0,2.76.13l.17-.16v.48h1.71V46.54H63.51v1.34m15.23-1.31s0,1.66,0,3.65v3.61h1.77V46.54h-.86a4.66,4.66,0,0,0-.88,0M72,48.23v.62h-.86V50.3H72v3.53h1.77V50.3h1V48.85h-1V47.61H72v.62m32.95,0v.62h-.86V50.3H105v3.53h1.77V50.3h1V48.85h-1V47.61H105v.62M36.22,49.41c.19.59.38,1.1.38,1.15s0,.08-.75.08c-.43,0-.78,0-.78,0s.37-1.18.64-1.91a1.61,1.61,0,0,1,.16-.37,9.89,9.89,0,0,0,.35,1.07m16.62-.59a2.41,2.41,0,0,0-1.74,2.52,2.36,2.36,0,0,0,2,2.52A5.22,5.22,0,0,0,56,53.57a8.08,8.08,0,0,0-.14-1.29,1.68,1.68,0,0,0-.37.11c-1.21.37-2.42.16-2.66-.46l-.05-.13H54.4c1.42,0,1.61,0,1.63-.08a5.13,5.13,0,0,0,0-1.29,2.42,2.42,0,0,0-3.17-1.61m14.8,0a1.51,1.51,0,0,0-1.23,1.83c.1.67.51,1,1.61,1.34.69.21.8.29.75.51s-1.26.21-2-.14c-.35-.18-.35-.18-.35,0s0,.32-.08.62-.08.51-.08.53.72.38,1.18.43c1.9.3,3.14-.37,3.06-1.66-.06-.81-.51-1.23-1.61-1.53-.67-.19-.89-.32-.78-.54s1.21-.18,1.82.14l.16,0a10.06,10.06,0,0,0,.19-1.23,1.65,1.65,0,0,0-.64-.27,2.45,2.45,0,0,1-.32-.08,9,9,0,0,0-1.72,0m15.15,0a1.43,1.43,0,0,0-1.18,1.5c0,.81.45,1.32,1.42,1.58.8.25,1,.3,1,.49,0,.35-1.15.32-1.93-.06-.4-.18-.37-.21-.45.46a3.06,3.06,0,0,1-.11.62c-.08.21,1.07.53,2,.53,1.5,0,2.3-.53,2.28-1.61,0-.83-.51-1.31-1.72-1.66-.67-.19-.86-.35-.62-.56s1.13-.08,1.75.19a.72.72,0,0,0,.21.08s.11-.81.13-1.1,0-.19-.13-.27a4.92,4.92,0,0,0-2.57-.19m12.25,0a1.48,1.48,0,0,0-.59.4l-.14.14v-.54H92.54v5h1.72l0-1.47c0-1.88.08-2,.69-2s.65.1.67,2l0,1.47H97.4V52.12c0-2.2-.08-2.55-.59-3A1.84,1.84,0,0,0,95,48.82m5.12,0A2.64,2.64,0,0,0,98.52,52a2.53,2.53,0,0,0,2.09,1.87c.94.17,2.87-.1,2.79-.4,0,0,0-.21-.05-.37a2.29,2.29,0,0,0-.06-.38,1.79,1.79,0,0,0-.05-.27c0-.1,0-.18,0-.18l-.35.1c-1.18.41-2.44.16-2.63-.51l0-.1h3.22l0-.14a2.46,2.46,0,0,0-3.27-2.81m-57.1,0a1,1,0,0,0-.59.45c-.06.08-.11.14-.11.11a2.58,2.58,0,0,1,0-.29l0-.27H40.59v5h1.77v-1.1c0-2,.27-2.49,1.37-2.25.29.08.27.1.32-.54,0-.29.05-.67.08-.8l0-.25-.19,0a1.73,1.73,0,0,0-.91,0m14.1,3.43v3.43h1.77V48.87H57.16v3.41m18.6-.94v2.49h1.77v-5H75.76v2.47m10.48-2.17c.09.16.22.48.3.67.29.64.48,1.07.59,1.34s.11.24.11.27l.1.27c.06.13.16.37.25.56s.18.43.24.56c.34.75.32.73.26.83s-1,2-1,2a2.8,2.8,0,0,0,.88.06h.89l.16-.38c.08-.21.21-.48.27-.64s.32-.75.59-1.37c.51-1.18.75-1.71.91-2.09,0-.13.11-.24.11-.27s0-.13.1-.27c.35-.77.78-1.79.78-1.82a8.2,8.2,0,0,0-.94,0h-.94l-.45,1.34A9.56,9.56,0,0,1,89,51.56s-.25-.62-.51-1.34L88,48.9H86.08l.16.27m-32.17.88a.94.94,0,0,1,.38.54l0,.13H52.79l0-.13A.9.9,0,0,1,53.3,50a1.53,1.53,0,0,1,.77,0m47.37,0a.66.66,0,0,1,.27.3c.19.34.22.34-.72.34a2.84,2.84,0,0,1-.83,0,.85.85,0,0,1,1.28-.59m-53.56.24a1.09,1.09,0,0,1,.14,2,.93.93,0,0,1-1.29-.46,1,1,0,0,1,1.15-1.5m15.07,0a1.13,1.13,0,0,1,.11,2,1,1,0,0,1-1.37-1,1,1,0,0,1,1.26-1M4.67,52.55v1.28H23.76V51.29H4.67v1.26m-3.14,17v3.16H26.89V66.43H1.53V69.6"/>
    <path id="path4" class="cls-1" d="M20.67,42.31c0,.16,0,.24,0,.13v-.32s0,0,0,.19m-12.92.48c0,.08,0,.13,0,.08v-.16c0-.05,0,0,0,.08m67.88,4.4c0,.1,0,.13,0,.08v-.19s0,0,0,.11m-3.65,1c0,.35,0,.51,0,.32v-.64c0-.19,0,0,0,.32m33,0c0,.35,0,.48,0,.29v-.61c0-.16,0,0,0,.32m-33,3.8v0m33,0v0m-51.1,2h.48c.14,0,0,0-.27,0s-.34,0-.21,0m14,0h.16c.05,0,0,0-.08,0s-.14,0-.08,0m.29,0h.16c.06,0,0,0-.08,0l-.08,0m.32,0h.17s0,0-.09,0-.13,0-.08,0m14.94,0h.24c.08,0,0,0-.14,0s-.18,0-.1,0m17.88,0h.19s0,0-.11,0-.14,0-.08,0m.37,0h.19s0,0-.11,0-.13,0-.08,0"/>
  </g>
</svg>
