<svg id="Layer_4" data-name="Layer 4" xmlns="http://www.w3.org/2000/svg" xmlns:xlink="http://www.w3.org/1999/xlink" width="110" height="92" viewBox="0 0 110 92">
  <defs>
    <style>
      .cls-1 {
        fill: #fff;
      }

      .cls-2 {
        fill: #666;
      }

      .cls-3 {
        fill: #2c2c2c;
      }

      .cls-4 {
        fill: #303030;
      }

      .cls-5 {
        fill: #333;
      }

      .cls-6 {
        fill: #363636;
      }

      .cls-7 {
        fill: #3a3a3a;
      }

      .cls-8 {
        fill: #3d3d3d;
      }

      .cls-9 {
        fill: #414141;
      }

      .cls-10 {
        fill: #454545;
      }

      .cls-11 {
        fill: #484848;
      }

      .cls-12 {
        fill: #4c4c4c;
      }

      .cls-13 {
        fill: #505050;
      }

      .cls-14 {
        fill: #545454;
      }

      .cls-15 {
        fill: #585858;
      }

      .cls-16 {
        fill: #5a5a5a;
      }

      .cls-17 {
        fill: #5c5c5c;
      }

      .cls-18 {
        fill: #5f5f5f;
      }

      .cls-19 {
        fill: #626262;
      }

      .cls-20 {
        fill: #646464;
      }

      .cls-21 {
        fill: url(#radial-gradient);
      }
    </style>
    <radialGradient id="radial-gradient" cx="1312.38" cy="1786.44" r="50.29" gradientTransform="matrix(0.43, -0.05, 0.05, 0.43, -618.44, -667.73)" gradientUnits="userSpaceOnUse">
      <stop offset="0" stop-color="#d7d7d7"/>
      <stop offset="0.1" stop-color="#d4d4d4"/>
      <stop offset="0.22" stop-color="#ccc"/>
      <stop offset="0.3" stop-color="#c4c4c4"/>
      <stop offset="1" stop-color="#acacac"/>
    </radialGradient>
  </defs>
  <title>arla</title>
  <g>
    <path class="cls-1" d="M53.67,25.14v3.67c-25.31,0-45.8,10.25-45.8,22.79,0,12.84,20.49,23.17,45.8,23.17s46-10.56,46-23.71C99.62,36.76,79.05,25.14,53.67,25.14Zm35.78,8a3,3,0,0,0,3-3,3,3,0,1,0-3,3Z"/>
    <path class="cls-2" d="M66.74,27.74A6.31,6.31,0,0,1,66,29.12c6.42,1.37,13.3,3.82,18.2,7.41.15.16,0,.46-.16.31-8.33-4.28-19.11-6.5-30.35-6.5C30,30.34,10.85,39.82,10.85,51.6c0,12,19.19,21.64,42.82,21.64s43-9.94,43-22.18C96.64,40.13,84.1,30.88,66.74,27.74Zm22.71,4.89A2.45,2.45,0,1,0,87,30.19,2.5,2.5,0,0,0,89.45,32.63Zm0-4.43a1.91,1.91,0,0,1,1.91,2,2,2,0,0,1-1.91,2,1.92,1.92,0,0,1-1.91-2A2,2,0,0,1,89.45,28.2Zm-.91,3.21H89c.08,0,.08-.08.08-.15v-.84h.15c.16,0,.23,0,.31.07a.4.4,0,0,1,.15.31l.16.46c0,.07,0,.07.07.07l.08.08h.69v-.08a.24.24,0,0,0-.08-.15l-.15-.46a2.35,2.35,0,0,0-.23-.38.4.4,0,0,0-.31-.15l.46-.23c.15-.08.15-.23.15-.46s0-.23-.07-.31-.16-.15-.16-.23a.4.4,0,0,0-.3-.15c-.15,0-.23-.07-.46-.07h-.77c-.15,0-.15,0-.15.07a.3.3,0,0,0-.07.23v2.29C88.46,31.33,88.46,31.41,88.54,31.41Zm.53-2.14h.54a.28.28,0,0,1,.15.08c.08,0,.08.07.08.15v.15c0,.16-.08.16-.16.23a.43.43,0,0,1-.38.15h-.23v-.76Z"/>
    <path class="cls-3" d="M76.76,67.12c.23-.08.38.15.15.31-6,2.44-14.52,3.82-23.17,3.82-21.1,0-38.23-8.79-38.23-19.65S32.56,31.87,53.67,31.87c23.7,0,38.23,10.25,38.15,19.19C91.75,58.94,81.27,66.51,60,66.51a83.3,83.3,0,0,1-29-5.28.33.33,0,1,0-.23.61C40.67,67,58.49,70.71,76.76,67.12Z"/>
    <g>
      <ellipse class="cls-3" cx="53.67" cy="48.62" rx="34.56" ry="16.13"/>
      <path class="cls-4" d="M53.67,62.61c-19.12,0-33.8-6.58-33.65-15,.16-8.1,15-15.06,33.65-15.06s33.49,7,33.64,15.06C87.54,56.11,72.86,62.61,53.67,62.61Z"/>
      <path class="cls-5" d="M53.67,60.54c-19.19,0-33.19-6-32.8-13.76.38-7.19,14.52-13.92,32.8-13.92s32.42,6.81,32.8,13.92C86.85,54.66,72.86,60.54,53.67,60.54Z"/>
      <path class="cls-6" d="M53.67,58.4c-19.27,0-32.5-5.27-32-12.61.46-6.27,14-12.85,32-12.85s31.42,6.58,32,12.85C86.17,53.13,72.94,58.4,53.67,58.4Z"/>
      <path class="cls-7" d="M53.67,56.34c-19.35,0-31.89-4.59-31-11.39.62-5.36,13.54-11.7,31.05-11.7s30.43,6.27,31,11.7C85.55,51.75,73,56.34,53.67,56.34Z"/>
      <path class="cls-8" d="M53.67,54.2c-19.42,0-31.2-3.9-30.13-10.25.77-4.51,13-10.55,30.13-10.55s29.44,6,30.12,10.55C84.87,50.3,73.09,54.2,53.67,54.2Z"/>
      <path class="cls-9" d="M53.67,52.13c19.42,0,30.66-3.21,29.28-9-.84-3.59-12.54-9.48-29.28-9.48s-28.45,5.81-29.29,9.48C23,48.84,34.25,52.13,53.67,52.13Z"/>
      <path class="cls-9" d="M53.67,52.13c19.42,0,30.66-3.21,29.28-9-.84-3.59-12.54-9.48-29.28-9.48s-28.45,5.81-29.29,9.48C23,48.84,34.25,52.13,53.67,52.13Z"/>
      <path class="cls-10" d="M53.67,51c19,0,29.21-2.91,28.06-8.26-.76-3.52-12.08-8.8-28.06-8.8s-27.38,5.36-28.06,8.8C24.54,48.08,34.63,51,53.67,51Z"/>
      <path class="cls-11" d="M53.67,49.84c18.66,0,27.75-2.52,26.84-7.49-.54-3.29-11.7-8.11-26.84-8.11s-26.31,4.82-26.84,8.11C25.91,47.39,35,49.84,53.67,49.84Z"/>
      <path class="cls-12" d="M53.67,48.77c18.2,0,26.3-2.07,25.61-6.81-.46-3.13-11.24-7.49-25.61-7.49S28.44,38.83,28.05,42C27.36,46.7,35.47,48.77,53.67,48.77Z"/>
      <path class="cls-13" d="M53.67,47.62c17.81,0,24.85-1.68,24.39-6-.31-2.9-10.86-6.8-24.39-6.8s-24.16,3.82-24.39,6.8C28.82,45.94,35.85,47.62,53.67,47.62Z"/>
      <path class="cls-14" d="M53.67,46.55c17.36,0,23.4-1.3,23.17-5.35-.16-2.75-10.4-6.12-23.17-6.12S30.58,38.45,30.5,41.2C30.27,45.17,36.31,46.55,53.67,46.55Z"/>
      <path class="cls-15" d="M53.67,45.4c17,0,21.94-.91,21.94-4.66,0-2.6-9.94-5.51-21.94-5.51s-22,2.91-22,5.51C31.65,44.49,36.69,45.4,53.67,45.4Z"/>
      <path class="cls-15" d="M53.67,45.4c17,0,21.94-.91,21.94-4.66,0-2.6-9.94-5.51-21.94-5.51s-22,2.91-22,5.51C31.65,44.49,36.69,45.4,53.67,45.4Z"/>
      <path class="cls-16" d="M53.67,44.33c-15.22,0-20.34-.76-20.34-3.82,0-2.22,9.17-4.66,20.34-4.66S74,38.29,74,40.51C74,43.65,68.88,44.33,53.67,44.33Z"/>
      <path class="cls-17" d="M53.67,43.26c-13.54,0-18.66-.46-18.66-3,0-1.83,8.41-3.82,18.66-3.82s18.66,2,18.66,3.82C72.25,42.73,67.2,43.26,53.67,43.26Z"/>
      <path class="cls-18" d="M53.74,42.12c-11.77,0-17-.31-17-2.22,0-1.38,7.65-3.06,17-3.06s17,1.68,17,3.06C70.64,41.81,65.52,42.12,53.74,42.12Z"/>
      <path class="cls-19" d="M53.74,41.05c-10,0-15.36-.08-15.36-1.38,0-1.07,6.88-2.29,15.29-2.29S69,38.6,69,39.67C69,41,63.76,41.05,53.74,41.05Z"/>
      <path class="cls-20" d="M53.74,40c-8.33,0-13.61.15-13.61-.62s6.12-1.45,13.61-1.45,13.62.77,13.62,1.45S62.08,40,53.74,40Z"/>
      <path class="cls-2" d="M65.6,39.06c0,.15-5.28-.16-11.86-.16s-12,.39-12,.16,5.35-.69,11.93-.69S65.6,38.83,65.6,39.06Z"/>
    </g>
    <path class="cls-1" d="M43.8,59.24c-1.6-2.83-3.21-10.17-4.89-19.57-.15-.69-.23-.92-.84-.92a16.24,16.24,0,0,0-3.75.54c-.61,1.53-1.45,3-4.28,7.26-7.19,10.86-7.49,13.76-1.22,12.77a7.39,7.39,0,0,1,1.07-4.66s1.53-.84,7.34-.92C38.38,59.7,39.22,59.78,43.8,59.24Zm-12.31-8.1c1.38-2.6,3.29-5.43,4.29-7.57.15,1.91,1,7.19,1,7.19A23.37,23.37,0,0,0,31.49,51.14Zm24.78-6.81c-1.84,0-4.13,1.76-5.58,4.74a17.18,17.18,0,0,0,.15-3.82c-.08-.3-.23-.53-1.07-.46a9.57,9.57,0,0,0-3.06.84s.69,1.76-.76,10.71c-.46,2.67,1.37,3.52,4.51,3-1.3-1.76.91-12.54,6-10.32C58.49,45.86,57.87,44.33,56.27,44.33Zm7.34,5.81A78.9,78.9,0,0,0,65.29,38c0-.39-.15-.84-1.3-.84a7.49,7.49,0,0,0-3.29.76c.16.46.46,3.44-2.14,15.75-1.07,5.28-.15,6.43,4.28,5.66C62.54,58,62.54,55.57,63.61,50.14Zm17.81-3c.23-1.37-.15-1.91-1.3-2.21-7.87-2.22-13.68,2.75-13.68,9.55,0,2.6,1.3,5,4.13,5,2.29,0,4.28-1.53,5.65-3.29a9.41,9.41,0,0,0,.08,1.91c.23,1.23,1.45,1.84,4.28.92C80.05,57.33,80.28,53.13,81.42,47.16Zm-4,.39c-.46,4.35-2.14,8.64-4.82,8.64-1.07,0-1.91-.85-1.91-2.3C70.64,50.14,73.55,46.32,77.37,47.55Z"/>
    <path class="cls-1" d="M37.46,25.68c-2.22,1.53-2.07,5.88.46,8.94a7.55,7.55,0,0,0,9,2.22c-.46,2.91,1.07,5.89,6.88,4,6-1.92,6.27-5.89,5-8.8,3.29.23,6.88-1.14,7.95-4.58.76-2.53.31-5.66-2.29-7.19.15-3.6-4.36-6.73-8.72-6.65A3.6,3.6,0,0,0,52,17c-2.91-3.21-6.89-3.29-10.71,0s-4.36,7.57-2.45,9.4C38.6,26.21,37.69,25.83,37.46,25.68Z"/>
    <path class="cls-21" d="M53.36,29.58c2.91-.54,8.8,7.26.16,10.09C43.19,43,50.84,30,53.36,29.58Zm11.17-7.8a7.13,7.13,0,0,1-2.83,2.14c4.51-5.35-1.91-9.1-5.89-9-1.15.07-2.14.45-2.37,1.68-.61,2.9,2,6.34,1.07,10.78-.61,3,9.33,6,11.16-.77C66.13,25.45,66,22.92,64.53,21.78ZM40.13,34.93c6.2,4.43,10.79-3.82,10-4.74-1.68-2-.46-5.05,2.91-4.59,1.76.23-.54-9.86-6-9.86-5.13,0-12.7,9.32-3.52,12.31a14.89,14.89,0,0,1-5.66-.77C36.54,28.58,37.31,32.86,40.13,34.93Z"/>
  </g>
</svg>
