<?xml version="1.0" encoding="utf-8"?>
<!-- Generator: Adobe Illustrator 23.0.3, SVG Export Plug-In . SVG Version: 6.00 Build 0)  -->
<svg version="1.1" id="Logo" xmlns="http://www.w3.org/2000/svg" xmlns:xlink="http://www.w3.org/1999/xlink" x="0px" y="0px"
	 viewBox="0 0 841.9 595.3" style="enable-background:new 0 0 841.9 595.3;" xml:space="preserve">
<style type="text/css">
	.st0{fill-rule:evenodd;clip-rule:evenodd;fill:#FFFFFF;}
	.st1{fill:#FFFFFF;}
</style>
<g>
	<g>
		<path class="st0" d="M301,200.1c0,12.5-9.9,22.4-22.4,22.4c-5.9,0-10.8-5.1-10.8-10.8c0-5.5,3-5.6,3-9.3c0-2.7-2.3-5.1-5.1-5.1
			c-4.7,0-8.3,3.6-8.3,8.3v58c0,1.1,0.9,1.7,1.7,1.9l5.7,1.7c0.8,0.2,1.9,0.8,1.9,1.9v4.6c0,1.1-0.9,1.9-1.9,1.9h-36.8
			c-1.1,0-1.9-0.9-1.9-1.9v-26.2c-10.4,10.8-31.5,31-42.5,31c-12.1,0-10.6-13.1-19.8-13.1c-8,0-8.5,13.1-30.7,13.1
			c-23.9,0-43.4-22.4-43.4-50.3c0-27.7,19.5-50.4,43.4-50.4c19.5,0,24,10.6,28.8,10.6c3,0,4.2-2.3,4.9-5.7c0.2-1,1.1-1.9,2.3-1.9
			h30.7c1,0,1.9,0.9,1.9,1.9v4.7c0,1.1-1.1,1.7-1.9,1.9l-5.7,1.7c-0.8,0.3-1.7,0.8-1.7,1.9v51.2c0,3.4,3.2,6.1,6.6,6.1
			c6.1,0,19.3-10.9,27.1-17.8v-36.1c0-2.3-1.8-3.4-3.7-3.4c-2.3,0-2.4,2.1-5.4,2.1c-2.8,0-4.5-2.3-4.5-4.5c0-4,7.2-12.7,18.4-12.7
			c19.4,0,16.4,14.4,23.3,14.4c6.2,0,7.3-14.4,24.3-14.4C291,177.8,301,187.6,301,200.1z M161.1,212.7c0-6.3-8.7-12.7-16.7-12.7
			c-14.8,0-24.3,11.6-24.3,28.2c0,16.5,9.5,28.3,24.3,28.3c8,0,16.7-6.4,16.7-12.7V212.7z M310.6,244c0,24.7,18.7,31.7,31.2,31.7
			h64.3c14.6,0,28.5-10.6,28.5-27.8c0-25.9-40-23.6-40-38.5c0-6,5.9-8.2,13.2-8.2c5.5,0,13,2.4,17.2,5.6c1.5,1.1,2.6,0,3-0.8
			l9.9-22.6c0.4-1-0.1-2.6-1.7-2.6H390c-12.6,0-23.8,10.9-23.8,24.3c0,26.7,34.7,22,34.7,40.1c0,7-5.6,13-13.4,13
			c-15.3,0-21.8-10.3-22.5-16.2c-0.1-1.1-1.6-1.9-2.6-1.5l-6.4,2.5c-1.2,0.5-1.4,2.2-0.8,3c1.1,1.3,1.7,2.7,1.7,4.8
			c0,4.1-3.2,7.6-7.6,7.6c-4.4,0-7.5-3.7-7.5-7.6V118c0-1.1-0.9-1.9-1.9-1.9l-36.8,0c-1.1,0-1.9,0.8-1.9,1.9v4.6
			c0,1.1,1.1,1.7,1.9,1.9l5.7,1.7c0.8,0.2,1.7,0.8,1.7,1.9V244z M829.4,182.7v4.7c0,1.1-1.1,1.7-1.9,1.9l-5.7,1.7
			c-0.8,0.3-1.7,0.8-1.7,1.9v97.3c0,23.7-20,42.7-43.6,42.7c-16.1,0-30.2-7.4-37.5-19.7c-9.7,17.3-41.3,54.6-133.1,54.6
			c-50.6,0-136.5-25-181.2-25c-61.3,0-101.8,16.6-143.9,58.8c-1,1-1.7,1.3-3,0.5l-78.4-42.8c-1-0.6-1.5-2.1-0.4-3
			c51.9-44,127-66.7,180.1-66.7c103.9,0,176.3,51.4,261.5,51.4c71.9,0,92.9-36,92.9-48c0-1.3,1.1-1.9,1.9-1.9h7.2
			c0.8,0,1.9,0.6,1.9,1.9c0,12.1,10,21.2,22.4,21.2c12.5,0,21.8-9.7,21.8-22.9v-18.6c0-2.1-1-3.4-3.3-3.4c-3.3,0-6.4,9.1-24.6,9.1
			c-23.9,0-43.4-22.4-43.4-50.3c0-27.7,19.5-50.4,43.4-50.4c19.5,0,24,10.6,28.8,10.6c3,0,4.2-2.3,4.9-5.7c0.2-1,1.1-1.9,2.3-1.9
			h30.7C828.5,180.8,829.4,181.7,829.4,182.7z M788.7,212.8c0-6.3-8.7-12.7-16.7-12.7c-14.8,0-24.3,11.6-24.3,28.1
			c0,16.5,9.5,28.4,24.3,28.4c8.1,0,16.7-6.4,16.7-12.7V212.8z M725.9,175.7c0,19.5-12.2,29.8-22.4,29.8c-12,0-10.4-8.3-18.2-8.3
			c-4.6,0-8.9,3.6-8.9,8.3v58c0,1.1,0.9,1.7,1.7,1.9l5.7,1.7c0.8,0.2,1.9,0.8,1.9,1.9v4.7c0,1-0.9,1.9-1.9,1.9H647
			c-1.1,0-1.9-0.9-1.9-1.9v-67.3c0-5.3-3.4-7.6-7.6-7.6c-3.9,0-10,3.5-15.5,7.2c-0.4,20.8-19.1,36.6-48.2,36.6
			c0,4,9.1,18.8,27.1,18.8c10.6,0,18.5-3.8,24-11c2.5-3.3,8.6-2,5.7,4.5c-2.8,6.3-15.3,23.6-41,23.6c-24.1,0-44.3-16.8-49.2-39.6
			c-5.8-1.7-11.6-4.5-16-7.3v17.7c0,15-10.4,26.2-26.7,26.2h-15.2c-22.4,0-36.4-12.5-36.4-32V128.1c0-1.1-0.9-1.7-1.7-1.9l-5.7-1.7
			c-0.8-0.3-1.9-0.9-1.9-1.9V118c0-1.1,0.8-1.9,1.9-1.9h36.8c1.1,0,1.9,0.8,1.9,1.9v128.4c0,9.3,9.1,13.3,15.7,13.3
			c7.2,0,15.6-2.7,15.6-12.7v-25.4l-12.7-7.6c-1.7-1-3-2.3-3-4.9v-26.4c0-1,0.8-1.9,1.9-1.9h27.5c1.1,0,1.9,0.9,1.9,1.9v35.9
			c4,2.7,9.7,5.8,14.9,8c0.8-27.2,22.7-48.8,50.3-48.8c15.4,0,25.3,7.2,29.7,16.1c9.1-7.1,23-16.1,34.3-16.1
			c12.6,0,12.6,10.4,18.8,10.4c2.1,0,3.8-1.9,3.8-4c0-2.6-1.3-4.5-1.3-7c0-4.7,4.6-8.9,9.7-8.9c9.1,0,14.4,9.5,22.2,9.5
			c3.4,0,7.4-3.4,7.4-8.5c0-4.8-5.6-12.4-11-16.9c-3.7-3.1,0.3-8.7,5-6C720,153.2,725.9,163.8,725.9,175.7z M603.6,206.4
			c0-2.8-0.9-9.7-9.7-9.7c-10.6,0-21.8,12.7-21.8,34C592.6,230.7,603.6,214.4,603.6,206.4z M683.3,88.9c-2.4,0-4.3-1.9-4.3-4.3v-8.8
			c0-3.2-2.6-5.8-5.8-5.8c-1.3,0-2.5,0.5-3.5,1.3c-3.8,3-8.9,3.8-13.5,2c-3.9-1.5-8.5-0.1-10.7,3.7c-2.2,3.8-1.2,8.5,2.1,11.1
			c3.9,3.1,5.7,7.9,5,12.7c-0.2,1.3,0,2.6,0.7,3.7c1.6,2.8,5.1,3.7,7.9,2.1l7.6-4.4c2.1-1.2,4.7-0.5,5.9,1.6
			c1.2,2.1,0.5,4.7-1.6,5.9l-7.6,4.4c-2.8,1.6-3.7,5.1-2.1,7.9c0.7,1.2,1.7,2,2.9,2.4c4.5,1.8,7.8,5.8,8.5,10.7
			c0.6,4.2,4.2,7.4,8.6,7.4c4.4,0,7.9-3.2,8.5-7.4c0.7-4.9,4-8.9,8.5-10.7c1.2-0.5,2.2-1.2,2.9-2.4c1.6-2.7,0.7-6.3-2.1-7.9
			l-7.6-4.4c-2.1-1.2-2.8-3.8-1.6-5.9c1.2-2.1,3.9-2.8,5.9-1.6l7.6,4.4c2.8,1.6,6.3,0.6,7.9-2.1c0.7-1.2,0.8-2.5,0.7-3.7
			c-0.7-4.8,1.1-9.6,5-12.7c3.3-2.6,4.3-7.3,2.1-11.1c-2.2-3.8-6.7-5.2-10.7-3.7c-4.6,1.8-9.7,1-13.5-2c-1-0.8-2.2-1.3-3.6-1.3
			c-3.2,0-5.8,2.6-5.8,5.8v8.8C687.7,87,685.7,88.9,683.3,88.9z M224.6,288c-17.3,15.9-42.2,25.8-67.5,25.8
			c-53.5,0-98.4-44.1-98.4-97.3c0-44,35.4-88.4,79.8-88.4c16.2,0,33.5,6.5,43.8,16.7c0.9,0.8,2.3,0.9,3.1-0.2L240,72.9
			c1.1-1.3,0.2-2.9-1.3-2.9H75.2c-1.7,0-3.2,0.7-4.3,1.7C33.2,105.5,8.5,149.5,8.5,200.3c0,75.2,60.2,133.3,131,133.3
			c35.4,0,68.8-15.6,92-38.8C236.8,289.5,230.3,282.8,224.6,288z"/>
	</g>
	<g>
		<g>
			<g>
				<g>
					<path class="st1" d="M499.8,500.5c-3.1,0-4.3-0.7-5.6-2.1c-1-1.1-1.8-2.9-3.9-2.9c-1.5,0-2.3,0.6-3.9,1.5
						c-6.2,3.1-16.7,5.5-25,5.5c-29.6,0-45.1-16.7-45.1-61.9c0-43.6,20.2-61.2,51.9-61.2c17.6,0,32.7,6,32.7,6l-3.7,11.1
						c-0.5,1.2-1,1.8-2,1.8c-0.8,0-2-0.5-3.4-1.5c-5.9-4.1-13.2-6.2-22.9-6.2c-24.2,0-38.7,11.4-38.7,50c0,37.4,9.1,50.1,39,50.1
						c12.2,0,20.7-4.9,20.7-4.9c3.4-2.3,3.6-3.3,3.6-7.8v-36.1h8.8c2.4,0,3.4,1.1,3.4,3.8v54.9H499.8z"/>
					<path class="st1" d="M529.5,500.5c-2.4,0-3.4-1.2-3.4-3.8v-80.4h4.6c3.4,0,4.4,0.5,5.4,2c1.3,1.8,1.6,3.1,3.1,3.1
						c1.3,0,2-0.5,3.6-1.5c5.1-3.1,12.9-5.5,20.6-5.5c1.3,0,3.1,0.2,3.1,0.2v11.6c0,0-3.9-0.5-7.2-0.5c-10,0-17.2,4.7-19.3,6.5
						c-1.8,1.5-1.8,1.6-1.8,3.4v64.8H529.5z"/>
					<path class="st1" d="M610.2,502.4c-25.1,0-38.7-15.4-38.7-44.1c0-28.6,13.5-44.1,38.7-44.1c25.2,0,38.7,15.4,38.7,44.1
						C648.9,487.1,635.4,502.4,610.2,502.4z M610.2,424.2c-17.3,0-25.8,11.6-25.8,34.1c0,22.6,8.5,34.1,25.8,34.1
						c17.3,0,25.8-11.6,25.8-34.1C636,435.8,627.5,424.2,610.2,424.2z"/>
					<path class="st1" d="M726,500.5c-3.4,0-4.4-0.5-5.4-2c-1.3-1.8-1.6-3.1-3.1-3.1c-1.3,0-2,0.5-3.6,1.5
						c-5.1,3.1-12.7,5.5-20.1,5.5c-19.9,0-30.1-9-30.1-28.1v-58h8.7c2.4,0,3.4,1.1,3.4,3.8v50.9c0,14.9,4.7,20.6,20.4,20.6
						c11.3,0,18.3-4.7,20.4-6.5c1.8-1.5,1.8-1.8,1.8-3.6v-65.2h8.7c2.4,0,3.4,1.1,3.4,3.8v80.4H726z"/>
					<path class="st1" d="M752,529.6c-2.4,0-3.4-1.1-3.4-3.8V416.4h4.6c3.4,0,4.4,0.5,5.4,2c1.3,1.8,1.6,3.1,3.1,3.1
						c1.3,0,2-0.5,3.6-1.5c5.1-3.1,12.9-5.5,20.6-5.5c18.9,0,34.1,13.2,34.1,43.8c0,30.5-16.7,44.3-34.1,44.3
						c-8.5,0-15.5-2.8-20.9-5.5c-1.1-0.7-2-1-2.6-1c-1.1,0-1.6,1-1.6,3.4v30.2H752z M760.7,481.5c0,1.8,0,2.1,1.8,3.6
						c2.1,1.8,8.8,6.5,18.8,6.5c14.2,0,25.8-8.5,25.8-33.3c0-21.6-8.5-33.2-25.2-33.2c-11.1,0-17.3,4.7-19.4,6.5
						c-1.5,1.3-1.8,1.6-1.8,3.4V481.5z"/>
				</g>
			</g>
		</g>
	</g>
</g>
</svg>
