<svg id="chr_hansen" data-name="chr hansen" xmlns="http://www.w3.org/2000/svg" width="110" height="92" viewBox="0 0 110 92">
  <defs>
    <style>
      .cls-1 {
        fill: #fff;
      }
    </style>
  </defs>
  <title>chr_hansen</title>
  <g id="svg_1" data-name="svg 1">
    <path id="svg_2" data-name="svg 2" class="cls-1" d="M16.16,54.57c.18,0,.29.18.35.29a.13.13,0,0,0,.12.12,2.88,2.88,0,0,1,.76.12.21.21,0,0,1,.12.06c0,.11-.35.23-.41.23l-.59.06c-.06,0-.12.06-.17.18a35.06,35.06,0,0,0-1.59,4.12c0,.12,0,.17.05.17.42,0,.77-.05.89-.05H16c.12.05.12.11-.12.23a5.43,5.43,0,0,1-1.29.35c-.06,0-.18.12-.3.18s-.05,0-.11.06-.12-.06-.18-.12a.22.22,0,0,0-.18-.06c-.11,0-.29.12-.47.12a.41.41,0,0,1-.23-.06.22.22,0,0,1,0-.35,1.27,1.27,0,0,1,.76-.3c.06,0,.06,0,.12-.11a29.66,29.66,0,0,1,1.41-4.12c.06-.12,0-.12-.12-.12s-.41.06-.53.06-.17,0-.23-.06a.27.27,0,0,1,.06-.35.43.43,0,0,1,.23-.12c.18-.06.53-.06.71-.12s.12-.06.18-.06C15.86,54.75,15.92,54.63,16.16,54.57Zm4.3,1.29c.17,0,.35.24.23.71-.12.29-.71,1.88-.76,2.12s-.06.23,0,.23.11-.05.23-.17c.82-.94,2.18-2.53,2.36-2.71s.29-.24.35-.24.35.24.35.42-.06.17-.18.29a1.65,1.65,0,0,0-.23.3,12.32,12.32,0,0,0-.53,1.7c-.12.71-.06,1.06.35,1s1.18-.64,2.3-2.12c.12-.11.17-.11.23-.06a.79.79,0,0,1-.11.42c-1,1.64-2,2.29-2.59,2.35s-.83-.41-.71-1.35c.06-.47.18-.89.24-1.24,0-.12,0-.18-.12,0-.41.53-1.65,1.94-2,2.36-.24.23-.36.35-.47.35s-.24-.47-.06-1.12a11.87,11.87,0,0,1,.47-1.53c.06-.18.06-.24,0-.29s-.12,0-.24.11c-.29.24-1.82,2.24-2.12,2.65-.17.18-.29.36-.41.36s-.35-.24-.29-.83c.06-.29.29-1.29.59-2.24a.4.4,0,0,1,.05-.23,1.82,1.82,0,0,1,.06-.47c.06-.3.18-.71.42-.77.05,0,.11,0,.23.12a.52.52,0,0,1,.12.65,14.66,14.66,0,0,0-.71,2.12c-.12.29,0,.41.12.23a24.55,24.55,0,0,1,1.88-2.23,5.29,5.29,0,0,0,.65-.71A.8.8,0,0,1,20.46,55.86Z"/>
    <path id="svg_3" data-name="svg 3" class="cls-1" d="M27.52,55.57c.35,0,.53.59.53.82a3.59,3.59,0,0,1-.65,1.83c-.06.12-.06.12.06.06a9.18,9.18,0,0,0,2.24-1.65c.17-.24.23.06.05.35A8.12,8.12,0,0,1,27,59a2.66,2.66,0,0,0-.65.41A5.6,5.6,0,0,1,25.1,60c-.17.06-.23.06-.29,0s-.12-.06-.18-.12-.11,0-.11.12-.89,2.47-.95,2.71-.05.24.06.29a4,4,0,0,0,.89,0c.17,0,.29,0,.29.06s-.12.18-.35.24a6.89,6.89,0,0,1-1.36.41.32.32,0,0,1-.29-.12.62.62,0,0,1,0-.47c.06-.23.94-2.59,1.65-5.3a12.77,12.77,0,0,1,.41-1.53,1.76,1.76,0,0,1,.23-.64.64.64,0,0,1,.53-.36.46.46,0,0,1,.3.12c.06.12.06.18-.06.24-.29.23-.41.64-.65,1.41-.06.18.06.18.12.06a5.82,5.82,0,0,1,1.53-1.36C27.34,55.57,27.46,55.57,27.52,55.57Zm-.47.76c-.06,0-.24.06-.65.42a5.12,5.12,0,0,0-1.59,2.35c-.06.18,0,.29.18.29a3.78,3.78,0,0,0,.94-.35,1.77,1.77,0,0,0,.71-.59,4,4,0,0,0,.76-1.76C27.34,56.45,27.34,56.28,27.05,56.33Z"/>
    <path id="svg_4" data-name="svg 4" class="cls-1" d="M32.29,55.16a.33.33,0,0,1,.35.41.88.88,0,0,1-.24.47c-.11.12-.23.12-.29.06a.46.46,0,0,0-.3-.12c-.17,0-.41.3-.7.65a14.49,14.49,0,0,0-1.65,2.82.3.3,0,0,1-.29.24.33.33,0,0,1-.3-.18.48.48,0,0,1,0-.41,20.7,20.7,0,0,0,.65-2.77,1.25,1.25,0,0,1,.23-.7c.12-.12.3-.36.42-.36s.29.24.29.36a.43.43,0,0,1-.12.29,7.53,7.53,0,0,0-.41,1.47c0,.18,0,.18.12,0a12.47,12.47,0,0,1,1.35-1.76A1.6,1.6,0,0,1,32.29,55.16Zm0,3.59a4.17,4.17,0,0,1,.35-1.42c.18-.35.65-1,.76-1.23a.86.86,0,0,0,.12-.35.36.36,0,0,1,.18-.36c.06-.12.17-.12.29-.12s.18-.05.3-.17a.41.41,0,0,1,.35-.18c.24,0,.29.12.29.3a.21.21,0,0,0,.06.17,1.31,1.31,0,0,1,.59,1.24,2.89,2.89,0,0,1-.65,1.59,3.13,3.13,0,0,1-2.06,1.35A.93.93,0,0,1,32.29,58.75Zm.7-.24c0,.24.12.41.3.36a1,1,0,0,0,.76-.42A3.55,3.55,0,0,0,35,56.51c0-.35-.06-.82-.47-.76-.17,0-.29.17-.53.47A5.12,5.12,0,0,0,33,58.51Zm6.48-3.76c.29,0,.35.35.41.58,0,.06,0,.12.12.18a2.22,2.22,0,0,0,.76.12,2.6,2.6,0,0,0,1.18-.41c.17-.12.17.05.06.23a1.94,1.94,0,0,1-1.47.65h-.59c-.06,0-.12,0-.12.12a7.29,7.29,0,0,1-2.47,2.88,1.6,1.6,0,0,1-.71.24c-.18,0-.53-.18-.41-.83a8.24,8.24,0,0,1,.53-1.94.36.36,0,0,0,.06-.24c0-.11.06-.17.06-.23.11-.35.35-1.06.64-1.06s.24.35.24.65a.85.85,0,0,1-.24.59,6.94,6.94,0,0,0-.58,1.58c-.12.59,0,.77.11.71a.7.7,0,0,0,.47-.23A5.79,5.79,0,0,0,39.23,56c.06-.12.06-.18,0-.24a.64.64,0,0,1-.18-.47A.59.59,0,0,1,39.47,54.75Z"/>
    <path id="svg_5" data-name="svg 5" class="cls-1" d="M41.29,59c-.12,0-.29-.12-.47-.41a1,1,0,0,1-.06-.71c.06-.23.35-1.11.47-1.47a.74.74,0,0,0,.06-.29.85.85,0,0,1,.12-.36c.18-.41.7-1.23.94-1.23.06,0,.12,0,.12.06a.41.41,0,0,1,0,.47,15,15,0,0,0-1.12,2.65c-.12.47,0,.59.18.59.64-.06,2-1.36,2.76-2.24q.18-.18.18,0a.55.55,0,0,1-.12.35,9,9,0,0,1-2.47,2.3A1,1,0,0,1,41.29,59Zm1.53-6.65c.24,0,.41.12.35.35a2.5,2.5,0,0,0-.05.89c0,.17-.12.17-.24.11a.42.42,0,0,1-.29-.41,1.12,1.12,0,0,1-.06-.47C42.47,52.51,42.64,52.39,42.82,52.39Z"/>
    <path id="svg_6" data-name="svg 6" class="cls-1" d="M45.18,54.22c.23,0,.35.29.35.47a.12.12,0,0,1-.12.11.47.47,0,0,0-.29.36,9.41,9.41,0,0,0-.53,1.65c0,.11.06.17.11,0A15,15,0,0,1,46.47,55a2.67,2.67,0,0,1,.59-.41c.06-.06.18-.12.23-.24s.12-.17.24-.17a.34.34,0,0,1,.24.11.39.39,0,0,1,0,.48,3,3,0,0,0-.36.64A8.29,8.29,0,0,0,46.82,57c-.23.88,0,1.24.36,1.18.59-.06,1.7-1.41,2.35-2.24.06-.12.12-.12.18-.06s0,.18-.12.41c-1.12,1.77-2,2.42-2.65,2.48S46,58.22,46.29,57c.12-.53.3-1,.36-1.29a1.68,1.68,0,0,0,.06-.3c-.06-.06-.12,0-.3.18a9.79,9.79,0,0,0-2.12,2.71.85.85,0,0,1-.35.41.45.45,0,0,1-.24-.12.93.93,0,0,1,0-.53,18,18,0,0,1,1-3.35c.18-.48.3-.53.48-.53Z"/>
    <path id="svg_7" data-name="svg 7" class="cls-1" d="M52,53.92a.63.63,0,0,1,.71.59.67.67,0,0,1-.41.59.19.19,0,0,0-.06.12v.29c-.12.59-.47,2.35-.59,2.71a7.34,7.34,0,0,1-1.77,3.53,2.89,2.89,0,0,1-1.64.82h-.47c-.12,0-.24-.06-.42-.06s-.59-.17-.59-.35.36-.53.59-.53a.49.49,0,0,1,.36.24.84.84,0,0,0,.64.23,2.79,2.79,0,0,0,1.71-1.29A7.08,7.08,0,0,0,51,58.22c.24-.94.24-1.36.3-1.59s-.06-.06-.18.06-.71.82-1.12,1.23c-.17.18-.65.59-.94.59s-.41-.35-.41-.7a3.92,3.92,0,0,1,.82-2,5.09,5.09,0,0,1,1.65-1.53C51.41,54.16,51.77,54,52,53.92Zm-2.59,3.47c0,.12.06.24.12.24.3,0,1.12-.94,1.3-1.18.35-.41.64-.94.76-1.06s.18-.17.3-.17.11-.06.17-.12a.31.31,0,0,0,.12-.24c0-.17-.24-.29-.41-.29a2.67,2.67,0,0,0-1.59,1.12A3.16,3.16,0,0,0,49.41,57.39Zm9.72-6.71a.74.74,0,0,1,.35.06.38.38,0,0,1,0,.36.51.51,0,0,1-.35.23c-1,.06-1.83,1-2.3,2.65,0,.12,0,.12.06.12a8.14,8.14,0,0,0,1.94-.47c.3-.12.24.06.06.23a9.78,9.78,0,0,1-2.18.83c-.12.06-.12.06-.17.17s-.36,1.36-.53,1.89a26.94,26.94,0,0,1-1.18,3.7,3.68,3.68,0,0,1-1.59,2,.77.77,0,0,1-.3,0c-.11,0-.17,0-.23,0s-.06-.24.06-.42a.85.85,0,0,1,.41-.41c.71-.23,1.06-.76,1.59-2.59.18-.59.76-2.88,1-4.12,0-.12,0-.12-.12-.12-.29,0-.41-.11-.41-.23a.32.32,0,0,1,.18-.24.87.87,0,0,1,.47-.11c.06,0,.06-.06.12-.12a6.47,6.47,0,0,1,1.64-2.71A3.45,3.45,0,0,1,59.13,50.68Z"/>
    <path id="svg_8" data-name="svg 8" class="cls-1" d="M57.59,57.22A4.19,4.19,0,0,1,58,55.8c.17-.35.65-1,.76-1.23a.86.86,0,0,0,.12-.35.36.36,0,0,1,.18-.36c.06-.12.17-.12.29-.12s.18-.05.3-.17a.4.4,0,0,1,.35-.18c.23,0,.29.12.29.3a.21.21,0,0,0,.06.17,1.31,1.31,0,0,1,.59,1.24,2.89,2.89,0,0,1-.65,1.59A3.13,3.13,0,0,1,58.18,58,.93.93,0,0,1,57.59,57.22ZM58.3,57c0,.24.12.41.3.35a1,1,0,0,0,.76-.41A3.55,3.55,0,0,0,60.3,55c0-.35-.06-.82-.47-.76-.18,0-.29.17-.53.47A5.12,5.12,0,0,0,58.3,57Zm3,0a4.08,4.08,0,0,1,.36-1.41c.17-.35.64-1.06.76-1.24a.77.77,0,0,0,.12-.35.35.35,0,0,1,.18-.35c.05-.12.17-.12.29-.12s.18-.06.29-.18a.42.42,0,0,1,.36-.17c.23,0,.29.11.29.29a.22.22,0,0,0,.06.18,1.32,1.32,0,0,1,.59,1.23A2.94,2.94,0,0,1,64,56.45a3.17,3.17,0,0,1-2.06,1.36C61.66,57.81,61.3,57.39,61.3,57Zm.71-.23c0,.23.12.41.29.35a1,1,0,0,0,.77-.41A3.58,3.58,0,0,0,64,54.75c0-.36-.06-.83-.47-.77-.18,0-.29.18-.53.47A5.11,5.11,0,0,0,62,56.75Zm5.88-3.59a1.21,1.21,0,0,1,.42.05c.11.06.11,0,.17-.05C69,51.8,69.54,50.39,69.72,50c.06-.18.12-.24.23-.24s.12,0,.24.18.12.23,0,.47-.59,1.29-1,2.47a12.72,12.72,0,0,0-.71,2.94c-.06.53.06.77.3.77.59-.06,1.82-1.65,2.18-2.18.05-.12.17-.12.17,0a.61.61,0,0,1-.12.41c-.41.83-1.7,2.36-2.59,2.42-.41,0-.58-.47-.53-1s.06-.7.12-1.06c.06-.11,0-.05-.06,0a13.76,13.76,0,0,1-1.41,1.59,2.84,2.84,0,0,1-1.18.65c-.17,0-.41-.12-.41-.65a4.79,4.79,0,0,1,1.24-2.64A2.72,2.72,0,0,1,67.89,53.16Zm-.23.53c-.35,0-.94.58-1.41,1.29a3.23,3.23,0,0,0-.65,1.53c0,.18.06.24.18.24s.53-.24,1-.71a7.42,7.42,0,0,0,1.29-1.94.27.27,0,0,0,0-.3A1.26,1.26,0,0,0,67.66,53.69Zm9-2.59a.35.35,0,0,1,.35.17.27.27,0,0,1,0,.3c-.06.11-.06.17,0,.23a.89.89,0,0,1,.18.47c0,.59-.65,1.12-1.3,1.59-.12.06-.06.12-.06.18a11.43,11.43,0,0,0,.83,1.29.1.1,0,0,0,.17,0c.65-.53.89-.82.94-1.06s0-.23,0-.35,0-.18.12-.41.3-.41.41-.41.42.17.42.41A3.53,3.53,0,0,1,78,54.86c-.12.12-.53.53-.88.83-.06,0-.06.06,0,.11a1.65,1.65,0,0,0,1.17.53,1.43,1.43,0,0,0,1.12-.82c.06-.12.24-.12.24,0a.45.45,0,0,1-.06.24,1.89,1.89,0,0,1-1.53,1.17,1.77,1.77,0,0,1-1.47-.7.11.11,0,0,0-.18,0,4.68,4.68,0,0,1-2,.88A1.1,1.1,0,0,1,73.25,56a1.2,1.2,0,0,1,.18-.65A5.17,5.17,0,0,1,75,53.92a.22.22,0,0,0,.06-.18A2.94,2.94,0,0,1,75,53.1a2,2,0,0,1,.88-1.59,1,1,0,0,1,.77-.41Zm-2,5.29A2.8,2.8,0,0,0,76,55.75a.11.11,0,0,0,0-.18,8.93,8.93,0,0,1-.83-1.24c0-.06-.06-.06-.11,0-.42.3-1.24.89-1.24,1.47C73.78,56.16,74.13,56.45,74.66,56.39Zm1.53-4.65c-.35,0-.76.53-.76,1.06a1.57,1.57,0,0,0,.06.53c0,.06.06.06.12,0,.35-.23.88-.64.88-1.06C76.55,52,76.49,51.74,76.19,51.74ZM86.38,52c.17,0,.29.12.17.41a20.07,20.07,0,0,0-.82,2.47c-.18.71-.06.83.12.83.64-.06,2.17-1.65,2.53-2.24.12-.12.17-.12.17,0a2,2,0,0,1-.11.41,6.73,6.73,0,0,1-3,2.59c-.29,0-.53-.29-.29-1.53.12-.65.35-1.35.41-1.65s0-.29-.23-.11a8.7,8.7,0,0,0-2.06,2.29,1.24,1.24,0,0,0-.24.65c-.06.29-.23.47-.41.47s-.24-.35-.18-.77.59-2.23,1-3.53a14.49,14.49,0,0,1,1.18-2.82c.24-.41.35-.53.47-.53a.58.58,0,0,1,.3.17c.11.12.11.24,0,.42a19,19,0,0,0-1.95,4.82c-.06.18,0,.18.12.06.3-.35,1.41-1.47,1.88-1.88S86,52,86.38,52Z"/>
    <path id="svg_9" data-name="svg 9" class="cls-1" d="M87.73,55a4.19,4.19,0,0,1,.77-2.06c.23-.35.94-1.29,1.35-1.29.18,0,.23.11.29.17s.06.06.12.12a.49.49,0,0,1,.53.53,1.89,1.89,0,0,1-.41,1.06,1.79,1.79,0,0,1-1.36.76.83.83,0,0,1-.35-.11c-.06-.06-.06-.06-.12.06a1.67,1.67,0,0,0,0,.53c0,.47.23.7.58.7a5.69,5.69,0,0,0,3-2,.1.1,0,0,1,.17,0,.7.7,0,0,1-.12.41A5.37,5.37,0,0,1,88.85,56C88.32,56.16,87.73,55.92,87.73,55ZM89,53.8c.58-.06,1.17-.53,1.17-1,0-.29-.17-.41-.35-.41s-.88.88-1,1.35C88.73,53.74,88.79,53.8,89,53.8Z"/>
    <path id="svg_10" data-name="svg 10" class="cls-1" d="M94.15,51.39c.11,0,.23.12.29.24s.06,0,.12,0a.17.17,0,0,1,.23,0c.18.11.18.23.12.35a5.8,5.8,0,0,0-.59,2.24c0,.53.06.94.36.94.53-.06,1.47-1.18,2.06-2,.05-.12.17-.12.17,0a1.58,1.58,0,0,1-.12.41c-.47.94-1.7,2.23-2.35,2.23a.89.89,0,0,1-.71-.82c0-.23-.06-.59-.06-.71s0-.11-.11,0-.89,1.06-1.18,1.36a1.13,1.13,0,0,1-.71.41.58.58,0,0,1-.53-.59,2.89,2.89,0,0,1,.47-1.35A8,8,0,0,1,93.09,52c.58-.53.88-.65,1.06-.65Zm-.36.71c-.17,0-.41.23-.76.64a6,6,0,0,0-1.06,2c-.06.23,0,.41.12.41s.29-.18.53-.36.53-.64.94-1.17A6.58,6.58,0,0,1,94,52.8a1.1,1.1,0,0,0,.06-.47C94,52.16,94,52,93.79,52.1Z"/>
    <path id="svg_11" data-name="svg 11" class="cls-1" d="M96.15,54.86a12.21,12.21,0,0,1,.94-3.35,15.7,15.7,0,0,1,1.47-3.24c.06-.06.12-.12.18-.12a.2.2,0,0,1,.17.06c.24.24.12.47,0,.77a28.75,28.75,0,0,0-2,4.94c-.23.83-.06.94.06.94a7.74,7.74,0,0,0,2.65-2.23c.06-.12.12-.06.12.06a1.58,1.58,0,0,1-.12.41c-.53.76-2.24,2.41-3.06,2.47-.24.06-.41-.24-.41-.71Z"/>
    <path id="svg_12" data-name="svg 12" class="cls-1" d="M100.09,54.8a4.71,4.71,0,0,0,1.59-.76c.18-.12.23.06.12.18A6.4,6.4,0,0,1,100,55.39a2.42,2.42,0,0,1-.41.12c-.24,0-.71-.18-.71-.59a3.38,3.38,0,0,1,.12-.59c.12-.35.53-1.64.65-1.88s0-.12-.06-.12a1.69,1.69,0,0,0-.53.12c-.12,0-.18,0-.24-.06a.29.29,0,0,1,0-.29c.06-.12.18-.12.36-.18a2,2,0,0,1,.64-.12c.12-.06.18-.06.24-.17s.47-1.3.59-1.59.29-.42.47-.42.12,0,.18.12a.49.49,0,0,1,0,.41,10.34,10.34,0,0,0-.59,1.36c-.06.12,0,.12.12.12.35-.06,1.35-.18,2.06-.24.23,0,.11.24-.06.29a11.65,11.65,0,0,1-2.18.48c-.12.05-.18.05-.24.17a12.37,12.37,0,0,0-.59,1.94c-.17.36,0,.53.24.53Z"/>
    <path id="svg_13" data-name="svg 13" class="cls-1" d="M106,50.74c.17,0,.29.12.17.41a21,21,0,0,0-.82,2.48c-.18.7-.06.82.12.82.64-.06,2.17-1.65,2.53-2.24.11-.11.17-.11.17,0a3.33,3.33,0,0,1-.11.42,6.73,6.73,0,0,1-3,2.59c-.29,0-.53-.3-.29-1.53.12-.65.35-1.36.41-1.65s0-.3-.23-.12a10.48,10.48,0,0,0-2.12,2.3,1.21,1.21,0,0,0-.24.64c-.06.3-.23.47-.41.47S102,55,102,54.57s.59-2.24,1-3.53a14.64,14.64,0,0,1,1.18-2.83c.24-.41.35-.53.47-.53a.55.55,0,0,1,.3.18c.11.12.11.23,0,.41a18.65,18.65,0,0,0-2,4.83c-.06.17,0,.17.12.06.3-.36,1.41-1.48,1.88-1.89A1.91,1.91,0,0,1,106,50.74Z"/>
  </g>
  <g>
    <path class="cls-1" d="M25.81,34a1.62,1.62,0,0,0,1.3-1.71c0-1.12-.95-1.71-2.18-1.71H21.75v6.65h1.77V34.62h.35c.65,0,.88.29,1.23,1.41l.42,1.18H27.4l-.65-1.83C26.46,34.67,26.4,34.14,25.81,34Zm-1.76-.65h-.48V31.85h.48c.7,0,1.29.12,1.29.76S24.58,33.38,24.05,33.38Z"/>
    <polygon class="cls-1" points="37.99 33.14 35.88 33.14 35.88 30.61 34.11 30.61 34.11 37.26 35.88 37.26 35.88 34.44 37.99 34.44 37.99 37.26 39.76 37.26 39.76 30.61 37.99 30.61 37.99 33.14"/>
    <polygon class="cls-1" points="18.75 33.14 16.69 33.14 16.69 30.61 14.86 30.61 14.86 37.26 16.69 37.26 16.69 34.44 18.75 34.44 18.75 37.26 20.57 37.26 20.57 30.61 18.75 30.61 18.75 33.14"/>
    <path class="cls-1" d="M43.06,30.61l-2.53,6.65h1.76l.53-1.41h2.53l.47,1.41h2l-2.54-6.65Zm.17,4L44.12,32l.82,2.59Z"/>
    <path class="cls-1" d="M12.16,31.79a4,4,0,0,1,1.76.47L14,30.79a7.43,7.43,0,0,0-2-.35c-2.24,0-3.83,1.17-3.83,3.47,0,2.53,2.06,3.41,3.83,3.41A5.68,5.68,0,0,0,14,37L14,35.62a3.6,3.6,0,0,1-1.71.47,2.15,2.15,0,1,1-.11-4.3Z"/>
    <polygon class="cls-1" points="72.31 35.15 70.01 30.61 67.72 30.61 67.72 37.26 69.37 37.26 69.31 32.73 69.37 32.73 71.72 37.26 73.9 37.26 73.9 30.61 72.31 30.61 72.31 35.15"/>
    <polygon class="cls-1" points="53.12 35.15 50.83 30.61 48.53 30.61 48.53 37.26 50.18 37.26 50.12 32.73 52.47 37.26 54.71 37.26 54.71 30.61 53.06 30.61 53.12 35.15"/>
    <polygon class="cls-1" points="63.6 34.5 66.36 34.5 66.36 33.26 63.6 33.26 63.6 31.91 66.54 31.91 66.54 30.61 61.77 30.61 61.77 37.26 66.66 37.26 66.66 36.03 63.6 36.03 63.6 34.5"/>
    <path class="cls-1" d="M57.59,32.44c0-.59.77-.65,1.18-.65a4.23,4.23,0,0,1,1.47.29l.12-1.35a4.92,4.92,0,0,0-1.71-.23c-1.35,0-2.94.41-2.94,2.06,0,2.41,3.18,1.64,3.18,2.88,0,.53-.53.65-1.12.65A3.86,3.86,0,0,1,56,35.68l-.18,1.47a7.73,7.73,0,0,0,2,.29c1.47,0,2.94-.47,2.94-2.18C60.77,32.79,57.59,33.5,57.59,32.44Z"/>
    <path class="cls-1" d="M24.05,31.85h-.48v1.53h.48c.53,0,1.29,0,1.29-.77S24.75,31.85,24.05,31.85Z"/>
    <polygon class="cls-1" points="43.23 34.62 44.94 34.62 44.12 32.03 43.23 34.62"/>
    <path class="cls-1" d="M80,25.79H2.27V42.27H25.21l5.53-5.89,5.65,5.89H80ZM12.27,36.09A3.6,3.6,0,0,0,14,35.62L14,37a5.68,5.68,0,0,1-2,.29c-1.77,0-3.83-.88-3.83-3.41,0-2.3,1.59-3.47,3.83-3.47a7.43,7.43,0,0,1,2,.35l-.12,1.47a4,4,0,0,0-1.76-.47,2.15,2.15,0,1,0,.11,4.3Zm8.3,1.17H18.75V34.44H16.69v2.82H14.86V30.61h1.83v2.53h2.06V30.61h1.82Zm4.95,0L25.1,36c-.35-1.12-.58-1.41-1.23-1.41h-.35v2.64H21.75V30.61h3.18c1.23,0,2.18.59,2.18,1.71A1.62,1.62,0,0,1,25.81,34c.59.11.65.64.94,1.35l.65,1.83Zm14.24,0H38V34.44H35.88v2.82H34.11V30.61h1.77v2.53H38V30.61h1.77Zm6.06,0-.47-1.41H42.82l-.53,1.41H40.53l2.53-6.65h2.17l2.54,6.65Zm8.89,0H52.47l-2.35-4.53.06,4.53H48.53V30.61h2.3l2.29,4.54-.06-4.54h1.65Zm3.06.18a7.73,7.73,0,0,1-2-.29L56,35.68a3.86,3.86,0,0,0,1.82.41c.59,0,1.12-.12,1.12-.65,0-1.24-3.18-.47-3.18-2.88,0-1.65,1.59-2.06,2.94-2.06a4.92,4.92,0,0,1,1.71.23l-.12,1.35a4.23,4.23,0,0,0-1.47-.29c-.41,0-1.18.06-1.18.65,0,1.06,3.18.35,3.12,2.82C60.71,37,59.24,37.44,57.77,37.44Zm8.89-.18H61.77V30.61h4.77v1.3H63.6v1.35h2.76V34.5H63.6V36h3.06Zm7.24,0H71.72l-2.35-4.53h-.06l.06,4.53H67.72V30.61H70l2.3,4.54V30.61H73.9Z"/>
  </g>
  <path id="svg_16" data-name="svg 16" class="cls-1" d="M25.22,42.27l5.65,5.88,5.54-5.88Z"/>
</svg>
