<?xml version="1.0" encoding="utf-8"?>
<!-- Generator: Adobe Illustrator 23.0.3, SVG Export Plug-In . SVG Version: 6.00 Build 0)  -->
<svg version="1.1" id="Layer_1" xmlns="http://www.w3.org/2000/svg" xmlns:xlink="http://www.w3.org/1999/xlink" x="0px" y="0px"
	 viewBox="0 0 180 64" style="enable-background:new 0 0 180 64;" xml:space="preserve">
<style type="text/css">
	.st0{fill:none;}
	.st1{fill:#FFFFFF;}
	.st2{fill:#FFFFFE;}
	.st3{fill:#6D6D6D;}
	.st4{fill:#181818;}
</style>
<rect id="backgroundrect" class="st0" width="180" height="64"/>
<g>
	<title>Layer 1</title>
	<g id="svg_1">
		<path id="svg_2" class="st1" d="M23.6,48.9c0.3,0,0.5,0.3,0.6,0.5c0,0.1,0.1,0.2,0.2,0.2c0.4,0,1,0.1,1.3,0.2
			c0.1,0,0.2,0.1,0.2,0.1c0,0.2-0.6,0.4-0.7,0.4l-1,0.1c-0.1,0-0.2,0.1-0.3,0.3c-0.8,1.8-2.4,5.7-2.7,7c0,0.2,0,0.3,0.1,0.3
			c0.7,0,1.3-0.1,1.5-0.1h0.6c0.2,0.1,0.2,0.2-0.2,0.4c-0.7,0.3-1.6,0.5-2.2,0.6c-0.1,0-0.3,0.2-0.5,0.3c-0.1,0-0.1,0-0.2,0.1
			c-0.1,0-0.2-0.1-0.3-0.2C19.9,59,19.8,59,19.7,59c-0.2,0-0.5,0.2-0.8,0.2c-0.1,0-0.2,0-0.4-0.1c-0.2-0.2-0.2-0.4,0-0.6
			c0.3-0.3,0.7-0.4,1.3-0.5c0.1,0,0.1,0,0.2-0.2c0.3-1.6,1.2-3.9,2.4-7c0.1-0.2,0-0.2-0.2-0.2c-0.3,0-0.7,0.1-0.9,0.1
			c-0.2,0.1-0.3,0-0.4-0.1c-0.1-0.2-0.1-0.4,0.1-0.6c0.1-0.1,0.3-0.2,0.4-0.2c0.3-0.1,0.9-0.1,1.2-0.2c0.2,0,0.2-0.1,0.3-0.1
			C23.1,49.2,23.2,49,23.6,48.9z M30.9,51.1c0.3,0,0.6,0.4,0.4,1.2c-0.2,0.5-1.2,3.2-1.3,3.6c0,0.2-0.1,0.4,0,0.4
			c0.1,0.1,0.2-0.1,0.4-0.3c1.4-1.6,3.7-4.3,4-4.6S34.9,51,35,51c0.3,0,0.6,0.4,0.6,0.7c0,0.2-0.1,0.3-0.3,0.5
			c-0.1,0.1-0.3,0.3-0.4,0.5c-0.2,0.5-0.6,1.6-0.9,2.9c-0.2,1.2-0.1,1.8,0.6,1.7c0.8-0.1,2-1.1,3.9-3.6c0.2-0.2,0.3-0.2,0.4-0.1
			c0,0.1,0,0.4-0.2,0.7c-1.7,2.8-3.4,3.9-4.4,4c-0.8,0-1.4-0.7-1.2-2.3c0.1-0.8,0.3-1.5,0.4-2.1c0-0.2,0-0.3-0.2,0
			c-0.7,0.9-2.8,3.3-3.4,4c-0.4,0.4-0.6,0.6-0.8,0.6c-0.4,0-0.4-0.8-0.1-1.9c0.1-0.5,0.6-2.2,0.8-2.6c0.1-0.3,0.1-0.4,0-0.5
			c-0.1,0-0.2,0.1-0.4,0.2c-0.5,0.4-3.1,3.8-3.6,4.5c-0.3,0.3-0.5,0.6-0.7,0.6c-0.3,0-0.6-0.4-0.5-1.4c0.1-0.5,0.5-2.2,1-3.8
			c0-0.2,0-0.2,0.1-0.4c0-0.1,0-0.4,0.1-0.8c0.1-0.5,0.3-1.2,0.7-1.3c0.1,0,0.2,0,0.4,0.2c0.3,0.3,0.4,0.6,0.2,1.1
			c-0.4,0.8-1,2.8-1.2,3.6c-0.2,0.5,0,0.7,0.2,0.4c1-1.3,2.1-2.7,3.2-3.8c0.6-0.6,0.9-0.9,1.1-1.2C30.5,51.3,30.8,51.1,30.9,51.1z"
			/>
		<path id="svg_3" class="st1" d="M42.9,50.6c0.6,0,0.9,1,0.9,1.4c0,1.3-0.8,2.7-1.1,3.1c-0.1,0.2-0.1,0.2,0.1,0.1
			c0.9-0.4,2.9-1.8,3.8-2.8c0.3-0.4,0.4,0.1,0.1,0.6c-1,1.3-3.4,3-4.7,3.5c-0.5,0.2-0.7,0.4-1.1,0.7c-0.4,0.3-1.7,0.9-2.1,1
			c-0.3,0.1-0.4,0.1-0.5,0c-0.1,0-0.2-0.1-0.3-0.2c-0.1-0.1-0.2,0-0.2,0.2c-0.1,0.1-1.5,4.2-1.6,4.6c-0.1,0.3-0.1,0.4,0.1,0.5
			c0.2,0,0.7,0.1,1.5,0c0.3,0,0.5,0,0.5,0.1s-0.2,0.3-0.6,0.4c-0.5,0.2-1.9,0.7-2.3,0.7c-0.2,0-0.3,0-0.5-0.2
			c-0.1-0.2-0.1-0.4,0-0.8s1.6-4.4,2.8-9c0.4-1.6,0.5-2.1,0.7-2.6c0.1-0.5,0.2-0.8,0.4-1.1c0.2-0.4,0.6-0.6,0.9-0.6
			c0.2,0,0.4,0.1,0.5,0.2c0.1,0.2,0.1,0.3-0.1,0.4c-0.5,0.4-0.7,1.1-1.1,2.4c-0.1,0.3,0.1,0.3,0.2,0.1c0.6-0.7,1.6-1.8,2.6-2.3
			C42.6,50.6,42.8,50.6,42.9,50.6z M42.1,51.9c-0.1,0-0.4,0.1-1.1,0.7c-1.5,1.4-2.3,2.6-2.7,4c-0.1,0.3,0,0.5,0.3,0.5
			c0.2,0,1-0.3,1.6-0.6s0.9-0.6,1.2-1c0.5-0.7,1.3-2.1,1.3-3C42.6,52.1,42.6,51.8,42.1,51.9z"/>
		<path id="svg_4" class="st1" d="M51,49.9c0.4,0,0.7,0.3,0.6,0.7c0,0.2-0.2,0.6-0.4,0.8s-0.4,0.2-0.5,0.1c-0.1-0.1-0.3-0.2-0.5-0.2
			c-0.3,0-0.7,0.5-1.2,1.1c-1.1,1.4-2,3.1-2.8,4.8c-0.1,0.3-0.3,0.4-0.5,0.4s-0.4-0.1-0.5-0.3s-0.1-0.4,0-0.7
			c0.4-0.9,0.9-3.7,1.1-4.7c0.1-0.7,0.2-1,0.4-1.2s0.5-0.6,0.7-0.6c0.3,0,0.5,0.4,0.5,0.6c0,0.2-0.1,0.4-0.2,0.5
			c-0.3,0.6-0.6,1.9-0.7,2.5c0,0.3,0,0.3,0.2,0c0.6-0.9,1.5-2.2,2.3-3C50.1,50.2,50.6,49.9,51,49.9z M51,56c0-0.7,0.3-1.7,0.6-2.4
			c0.3-0.6,1.1-1.8,1.3-2.1c0.1-0.2,0.2-0.4,0.2-0.6c0-0.3,0.1-0.5,0.3-0.6c0.1-0.2,0.3-0.2,0.5-0.2s0.3-0.1,0.5-0.3
			c0.1-0.2,0.4-0.3,0.6-0.3c0.4,0,0.5,0.2,0.5,0.5c0,0.1,0,0.2,0.1,0.3c0.5,0.3,1,0.9,1,2.1c0,0.6-0.4,1.9-1.1,2.7
			c-1.1,1.5-2.5,2.2-3.5,2.3C51.6,57.3,51,56.7,51,56z M52.2,55.6c0,0.4,0.2,0.7,0.5,0.6c0.4,0,0.9-0.2,1.3-0.7
			c0.7-0.7,1.6-2.3,1.6-3.3c0-0.6-0.1-1.4-0.8-1.3c-0.3,0-0.5,0.3-0.9,0.8C53.3,52.5,52.2,54.4,52.2,55.6z M63.2,49.2
			c0.5,0,0.6,0.6,0.7,1c0,0.1,0,0.2,0.2,0.3s0.8,0.2,1.3,0.2c0.9-0.1,1.6-0.4,2-0.7c0.3-0.2,0.3,0.1,0.1,0.4
			c-0.6,0.7-1.5,1.1-2.5,1.1h-1c-0.1,0-0.2,0-0.2,0.2c-1,2.2-2.9,4.1-4.2,4.9C59,56.9,58.7,57,58.4,57s-0.9-0.3-0.7-1.4
			c0.1-0.6,0.2-1.5,0.9-3.3c0.1-0.1,0.1-0.3,0.1-0.4c0-0.2,0.1-0.3,0.1-0.4c0.2-0.6,0.6-1.8,1.1-1.8c0.3,0,0.4,0.6,0.4,1.1
			c0,0.4-0.1,0.6-0.4,1c-0.4,0.8-0.7,1.5-1,2.7c-0.2,1,0,1.3,0.2,1.2c0.2,0,0.5-0.1,0.8-0.4c1-0.8,2.4-2.4,2.9-3.9
			c0.1-0.2,0.1-0.3,0-0.4c-0.2-0.2-0.3-0.5-0.3-0.8C62.4,49.8,62.9,49.2,63.2,49.2z"/>
		<path id="svg_5" class="st1" d="M66.3,56.5c-0.2,0-0.5-0.2-0.8-0.7c-0.2-0.4-0.2-0.8-0.1-1.2s0.6-1.9,0.8-2.5
			c0.1-0.3,0.1-0.4,0.1-0.5c0-0.2,0.1-0.4,0.2-0.6c0.3-0.7,1.2-2.1,1.6-2.1c0.1,0,0.2,0,0.2,0.1c0.1,0.1,0.2,0.4,0,0.8
			c-0.7,1.2-1.5,3.2-1.9,4.5c-0.2,0.8,0,1,0.3,1c1.1-0.1,3.4-2.3,4.7-3.8c0.2-0.2,0.3-0.2,0.3,0c0,0.1,0,0.3-0.2,0.6
			c-0.9,1.4-3.1,3.3-4.2,3.9C66.8,56.4,66.5,56.5,66.3,56.5z M68.9,45.2c0.4,0,0.7,0.2,0.6,0.6c-0.1,0.5-0.2,1.1-0.1,1.5
			c0,0.3-0.2,0.3-0.4,0.2c-0.3-0.1-0.5-0.4-0.5-0.7c-0.1-0.2-0.1-0.5-0.1-0.8C68.3,45.4,68.6,45.2,68.9,45.2z"/>
		<path id="svg_6" class="st1" d="M72.9,48.3c0.4,0,0.6,0.5,0.6,0.8c0,0.1-0.1,0.2-0.2,0.2c-0.2,0.1-0.4,0.2-0.5,0.6
			c-0.3,0.6-0.7,2-0.9,2.8c0,0.2,0.1,0.3,0.2,0.1c0.7-1,2.4-2.7,3-3.2s0.8-0.6,1-0.7c0.1-0.1,0.3-0.2,0.4-0.4s0.2-0.3,0.4-0.3
			s0.3,0.1,0.4,0.2c0.2,0.2,0.2,0.5,0,0.8s-0.4,0.6-0.6,1.1c-0.4,0.8-0.8,1.9-1,2.8c-0.4,1.5,0,2.1,0.6,2c1-0.1,2.9-2.4,4-3.8
			c0.1-0.2,0.2-0.2,0.3-0.1c0.1,0.1,0,0.3-0.2,0.7c-1.9,3-3.4,4.1-4.5,4.2c-0.9,0.1-1.6-1-1.1-3c0.2-0.9,0.5-1.7,0.6-2.2
			c0.1-0.4,0.1-0.5,0.1-0.5c-0.1-0.1-0.2,0-0.5,0.3c-1.9,1.7-3.1,3.6-3.6,4.6c-0.1,0.3-0.4,0.6-0.6,0.7c-0.1,0-0.3-0.1-0.4-0.2
			c-0.1-0.1-0.1-0.6,0-0.9c0.6-2.8,1.3-4.9,1.7-5.7C72.4,48.4,72.6,48.3,72.9,48.3L72.9,48.3z"/>
		<path id="svg_7" class="st1" d="M84.5,47.8c0.9-0.1,1.2,0.7,1.2,1s-0.2,0.8-0.7,1c-0.1,0.1-0.1,0.2-0.1,0.2v0.5
			c-0.2,1-0.8,4-1,4.6c-0.6,2.4-1.5,4.5-3,6c-0.8,0.8-2.1,1.4-2.8,1.4h-0.8c-0.2,0-0.4-0.1-0.7-0.1c-0.4,0-1-0.3-1-0.6
			c0-0.4,0.6-0.9,1-0.9c0.2,0,0.5,0.2,0.6,0.4c0.2,0.2,0.5,0.4,1.1,0.4c0.9-0.1,2-0.9,2.9-2.2s1.2-2.7,1.6-4.4
			c0.4-1.6,0.4-2.3,0.5-2.7c0-0.3-0.1-0.1-0.3,0.1c-0.2,0.3-1.2,1.4-1.9,2.1c-0.3,0.3-1.1,1-1.6,1s-0.7-0.6-0.7-1.2
			c0-0.9,0.5-2.1,1.4-3.4c0.8-1.2,1.9-2.1,2.8-2.6C83.5,48.2,84.1,47.9,84.5,47.8z M80.1,53.7c0,0.2,0.1,0.4,0.2,0.4
			c0.5,0,1.9-1.6,2.2-2c0.6-0.7,1.1-1.6,1.3-1.8c0.2-0.2,0.3-0.3,0.5-0.3c0.1,0,0.2-0.1,0.3-0.2c0.1-0.1,0.2-0.2,0.2-0.4
			c0-0.3-0.4-0.5-0.7-0.5c-0.9,0.1-2.1,1-2.7,1.9C80.7,51.6,80.1,52.9,80.1,53.7z M96.6,42.3c0.2,0,0.4,0,0.6,0.1
			c0.1,0.1,0.1,0.4,0,0.6c-0.1,0.2-0.4,0.4-0.6,0.4c-1.7,0.1-3.1,1.7-3.9,4.5c0,0.2,0,0.2,0.1,0.2c1.6-0.2,2.5-0.5,3.3-0.8
			c0.5-0.2,0.4,0.1,0.1,0.4c-1.1,0.7-3.3,1.3-3.7,1.4c-0.2,0.1-0.2,0.1-0.3,0.3c-0.1,0.4-0.6,2.3-0.9,3.2c-0.8,3.1-1.4,4.9-2,6.3
			c-0.6,1.3-1.4,2.9-2.7,3.4c-0.2,0.1-0.4,0.1-0.5,0.1c-0.2,0-0.3,0-0.4-0.1s-0.1-0.4,0.1-0.7c0.3-0.5,0.5-0.6,0.7-0.7
			c1.2-0.4,1.8-1.3,2.7-4.4c0.3-1,1.3-4.9,1.7-7c0-0.2,0-0.2-0.2-0.2c-0.5,0-0.7-0.2-0.7-0.4c0-0.1,0.1-0.3,0.3-0.4
			c0.2-0.1,0.4-0.2,0.8-0.2c0.1,0,0.1-0.1,0.2-0.2c0.7-2,1.6-3.5,2.8-4.6C95.3,42.7,96.1,42.3,96.6,42.3z"/>
		<path id="svg_8" class="st1" d="M94,53.4c0-0.7,0.3-1.7,0.6-2.4c0.3-0.6,1.1-1.8,1.3-2.1c0.1-0.2,0.2-0.4,0.2-0.6
			c0-0.3,0.1-0.5,0.3-0.6c0.1-0.2,0.3-0.2,0.5-0.2s0.3-0.1,0.5-0.3c0.1-0.2,0.4-0.3,0.6-0.3c0.4,0,0.5,0.2,0.5,0.5
			c0,0.1,0,0.2,0.1,0.3c0.5,0.3,1,0.9,1,2.1c0,0.6-0.4,1.9-1.1,2.7C97.4,54,96,54.7,95,54.8C94.6,54.7,94,54.1,94,53.4z M95.2,53
			c0,0.4,0.2,0.7,0.5,0.6c0.4,0,0.9-0.2,1.3-0.7c0.7-0.7,1.6-2.3,1.6-3.3c0-0.6-0.1-1.4-0.8-1.3c-0.3,0-0.5,0.3-0.9,0.8
			C96.3,49.9,95.2,51.8,95.2,53z M100.3,53c0-0.7,0.3-1.7,0.6-2.4c0.3-0.6,1.1-1.8,1.3-2.1c0.1-0.2,0.2-0.4,0.2-0.6
			c0-0.3,0.1-0.5,0.3-0.6c0.1-0.2,0.3-0.2,0.5-0.2s0.3-0.1,0.5-0.3c0.1-0.2,0.4-0.3,0.6-0.3c0.4,0,0.5,0.2,0.5,0.5
			c0,0.1,0,0.2,0.1,0.3c0.5,0.3,1,0.9,1,2.1c0,0.6-0.4,1.9-1.1,2.7c-1.1,1.5-2.5,2.2-3.5,2.3C100.9,54.4,100.3,53.7,100.3,53z
			 M101.5,52.6c0,0.4,0.2,0.7,0.5,0.6c0.4,0,0.9-0.2,1.3-0.7c0.7-0.7,1.6-2.3,1.6-3.3c0-0.6-0.1-1.4-0.8-1.3c-0.3,0-0.5,0.3-0.9,0.8
			C102.6,49.5,101.5,51.4,101.5,52.6z M111.5,46.5c0.2,0,0.5,0,0.7,0.1s0.2,0,0.3-0.1c0.9-2.3,1.8-4.7,2.1-5.3
			c0.1-0.3,0.2-0.4,0.4-0.4c0.1,0,0.2,0,0.4,0.3c0.2,0.2,0.2,0.4,0,0.8c-0.2,0.5-1,2.2-1.7,4.2c-0.6,1.7-1.1,3.6-1.2,5
			c-0.1,0.9,0.1,1.3,0.5,1.3c1-0.1,3.1-2.8,3.7-3.7c0.1-0.2,0.3-0.2,0.3,0s0,0.4-0.2,0.7c-0.7,1.4-2.9,4-4.4,4.1
			c-0.7,0-1-0.8-0.9-1.6s0.1-1.2,0.2-1.8c0.1-0.2,0-0.1-0.1,0c-0.8,1.1-2,2.3-2.4,2.7c-0.9,0.7-1.7,1.1-2,1.1s-0.7-0.2-0.7-1.1
			c0-1,0.8-3.1,2.1-4.5C109.6,47.1,110.7,46.6,111.5,46.5z M111.1,47.4c-0.6,0-1.6,1-2.4,2.2c-0.9,1.4-1.1,2.2-1.1,2.6
			c0,0.3,0.1,0.4,0.3,0.4c0.3,0,0.9-0.4,1.7-1.2c0.9-1,2-2.6,2.2-3.3c0.1-0.2,0.1-0.4,0-0.5C111.7,47.6,111.5,47.4,111.1,47.4z
			 M126.3,43c0.3,0,0.5,0.1,0.6,0.3c0.1,0.1,0.1,0.3,0,0.5s-0.1,0.3,0,0.4c0.1,0.1,0.3,0.5,0.3,0.8c0,1-1.1,1.9-2.2,2.7
			c-0.2,0.1-0.1,0.2-0.1,0.3c0.3,0.5,0.9,1.6,1.4,2.2c0.1,0.1,0.2,0.1,0.3,0c1.1-0.9,1.5-1.4,1.6-1.8c0.1-0.3,0-0.4,0-0.6
			c-0.1-0.1-0.1-0.3,0.2-0.7c0.2-0.4,0.5-0.7,0.7-0.7s0.7,0.3,0.7,0.7c0,0.7-0.8,1.8-1.1,2.3c-0.2,0.2-0.9,0.9-1.5,1.4
			c-0.1,0-0.1,0.1,0,0.2c0.5,0.5,1.2,0.9,2,0.9c0.8-0.1,1.5-0.6,1.9-1.4c0.1-0.2,0.4-0.2,0.4,0c0,0.1,0,0.2-0.1,0.4
			c-0.4,1.1-1.5,1.9-2.6,2c-1,0.1-1.9-0.5-2.5-1.2c-0.1-0.1-0.2-0.1-0.3,0c-1,0.7-2.3,1.4-3.4,1.5s-2-0.8-2-1.9
			c0-0.4,0.1-0.8,0.3-1.1c0.5-0.9,1.8-1.8,2.7-2.4c0.1-0.1,0.1-0.2,0.1-0.3c-0.1-0.4-0.2-0.8-0.2-1.1c0-1.2,0.7-2.1,1.5-2.7
			C125.3,43.2,126,43,126.3,43L126.3,43z M123,52c0.6,0,1.5-0.5,2.3-1.1c0.1-0.1,0.1-0.2,0-0.3c-0.4-0.5-1.1-1.5-1.4-2.1
			c0-0.1-0.1-0.1-0.2,0c-0.7,0.5-2.1,1.5-2.1,2.5C121.5,51.6,122.1,52.1,123,52z M125.6,44.1c-0.6,0-1.3,0.9-1.3,1.8
			c0,0.3,0,0.6,0.1,0.9c0,0.1,0.1,0.1,0.2,0c0.6-0.4,1.5-1.1,1.5-1.8C126.2,44.6,126.1,44.1,125.6,44.1z M142.9,44.5
			c0.3,0,0.5,0.2,0.3,0.7c-0.3,0.7-1,2.6-1.4,4.2c-0.3,1.2-0.1,1.4,0.2,1.4c1.1-0.1,3.7-2.8,4.3-3.8c0.2-0.2,0.3-0.2,0.3,0
			c0,0.1-0.1,0.4-0.2,0.7c-0.9,1.7-4,4.3-5.1,4.4c-0.5,0-0.9-0.5-0.5-2.6c0.2-1.1,0.6-2.3,0.7-2.8c0.1-0.4,0-0.5-0.4-0.2
			c-1.8,1.5-3.2,3.2-3.5,3.9c-0.3,0.5-0.4,0.8-0.4,1.1c-0.1,0.5-0.4,0.8-0.7,0.8s-0.4-0.6-0.3-1.3c0.1-0.5,1-3.8,1.7-6
			c0.6-1.9,1.5-4.1,2-4.8c0.4-0.7,0.6-0.9,0.8-0.9c0.1,0,0.3,0.1,0.5,0.3s0.2,0.4,0,0.7c-1.7,2.4-2.8,6.6-3.3,8.2
			c-0.1,0.3,0,0.3,0.2,0.1c0.5-0.6,2.4-2.5,3.2-3.2C141.9,44.8,142.3,44.5,142.9,44.5L142.9,44.5z"/>
		<path id="svg_9" class="st1" d="M145.2,49.6c0-0.9,0.5-2.3,1.3-3.5c0.4-0.6,1.6-2.2,2.3-2.2c0.3,0,0.4,0.2,0.5,0.3
			c0,0.1,0.1,0.1,0.2,0.2c0.5,0,0.9,0.3,0.9,0.9c0,0.6-0.3,1.3-0.7,1.8c-0.6,0.7-1.3,1.3-2.3,1.3c-0.2,0-0.4-0.1-0.6-0.2
			c-0.1-0.1-0.1-0.1-0.2,0.1s-0.1,0.6-0.1,0.9c0,0.8,0.4,1.2,1,1.2c1.5-0.1,3.9-1.9,5.1-3.4c0.1-0.1,0.2-0.1,0.3,0
			c0,0.1,0,0.4-0.2,0.7c-1.3,1.8-3.8,3.6-5.6,3.7C146.2,51.6,145.2,51.2,145.2,49.6z M147.3,47.6c1-0.1,2-0.9,2-1.7
			c0-0.5-0.3-0.7-0.6-0.7c-0.5,0-1.5,1.5-1.7,2.3C146.9,47.5,147,47.6,147.3,47.6z"/>
		<path id="svg_10" class="st1" d="M156.1,43.5c0.2,0,0.4,0.2,0.5,0.4c0,0.1,0.1,0.1,0.2,0s0.3-0.1,0.4,0c0.3,0.2,0.3,0.4,0.2,0.6
			c-0.6,1.4-1,2.6-1,3.8c0,0.9,0.1,1.6,0.6,1.6c0.9-0.1,2.5-2,3.5-3.4c0.1-0.2,0.3-0.2,0.3,0s-0.1,0.4-0.2,0.7
			c-0.8,1.6-2.9,3.8-4,3.8c-0.5,0-1.1-0.6-1.2-1.4c0-0.4-0.1-1-0.1-1.2c0-0.1,0-0.2-0.2,0c-0.3,0.4-1.5,1.8-2,2.3s-0.9,0.7-1.2,0.7
			c-0.2,0-0.9-0.2-0.9-1c0-0.4,0.1-1,0.8-2.3c0.5-1.1,1.5-2.5,2.5-3.5C155.3,43.7,155.8,43.5,156.1,43.5L156.1,43.5z M155.5,44.7
			c-0.3,0-0.7,0.4-1.3,1.1c-1,1.2-1.6,2.7-1.8,3.4c-0.1,0.4,0,0.7,0.2,0.7s0.5-0.3,0.9-0.6c0.4-0.4,0.9-1.1,1.6-2
			c0.2-0.4,0.7-1.3,0.8-1.4c0.1-0.2,0.1-0.5,0.1-0.8C155.9,44.8,155.8,44.6,155.5,44.7z"/>
		<path id="svg_11" class="st1" d="M159.5,49.4c0-0.4,0.3-2.4,1.6-5.7c1.5-3.8,2.2-5.2,2.5-5.5c0.1-0.1,0.2-0.2,0.3-0.2
			s0.2,0,0.3,0.1c0.4,0.4,0.2,0.8,0,1.3c-1.8,3.5-3,6.9-3.4,8.4c-0.4,1.4-0.1,1.6,0.1,1.6c0.7,0,3.1-2.1,4.5-3.8
			c0.1-0.2,0.2-0.1,0.2,0.1s-0.1,0.4-0.2,0.7c-0.9,1.3-3.8,4.1-5.2,4.2C159.8,50.7,159.5,50.2,159.5,49.4L159.5,49.4z"/>
		<path id="svg_12" class="st1" d="M166.2,49.3c0.9-0.1,2.2-1,2.7-1.3c0.3-0.2,0.4,0.1,0.2,0.3c-0.4,0.4-1.3,1.2-3,2
			c-0.3,0.1-0.6,0.2-0.7,0.2c-0.4,0-1.2-0.3-1.2-1c0-0.2,0.1-0.6,0.2-1c0.2-0.6,0.9-2.8,1.1-3.2c0.1-0.2,0-0.2-0.1-0.2
			c-0.2,0-0.7,0.1-0.9,0.2c-0.2,0-0.3,0-0.4-0.1c-0.1-0.1-0.1-0.3,0-0.5s0.3-0.2,0.6-0.3s0.7-0.2,1.1-0.2c0.2-0.1,0.3-0.1,0.4-0.3
			c0.1-0.3,0.8-2.2,1-2.7c0.1-0.3,0.5-0.7,0.8-0.7c0.1,0,0.2,0,0.3,0.2s0.1,0.4,0,0.7c-0.6,1.1-0.9,2.1-1,2.3s0,0.2,0.2,0.2
			c0.6-0.1,2.3-0.3,3.5-0.4c0.4,0,0.2,0.4-0.1,0.5c-0.5,0.2-1.7,0.5-3.7,0.8c-0.2,0.1-0.3,0.1-0.4,0.3c-0.4,1-0.9,2.6-1,3.3
			C165.5,49,165.7,49.3,166.2,49.3L166.2,49.3z"/>
		<path id="svg_13" class="st1" d="M176.3,42.4c0.3,0,0.5,0.2,0.3,0.7c-0.3,0.7-1,2.6-1.4,4.2c-0.3,1.2-0.1,1.4,0.2,1.4
			c1.1-0.1,3.7-2.8,4.3-3.8c0.2-0.2,0.3-0.2,0.3,0c0,0.1-0.1,0.4-0.2,0.7c-0.9,1.7-4,4.3-5.1,4.4c-0.5,0-0.9-0.5-0.5-2.6
			c0.2-1.1,0.6-2.3,0.7-2.8c0.1-0.4,0-0.5-0.4-0.2c-1.8,1.5-3.2,3.2-3.6,3.9c-0.3,0.5-0.4,0.8-0.4,1.1c-0.1,0.5-0.4,0.8-0.7,0.8
			s-0.4-0.6-0.3-1.3c0.1-0.5,1-3.8,1.7-6c0.6-1.9,1.5-4.1,2-4.8c0.4-0.7,0.6-0.9,0.8-0.9c0.1,0,0.3,0.1,0.5,0.3s0.2,0.4,0,0.7
			c-1.7,2.4-2.8,6.6-3.3,8.2c-0.1,0.3,0,0.3,0.2,0.1c0.5-0.6,2.4-2.5,3.2-3.2C175.2,42.8,175.6,42.5,176.3,42.4z"/>
	</g>
	<path id="svg_14" class="st1" d="M0,0h132v28H0V0z"/>
	<path id="svg_15" class="st2" d="M58,28l-9.6-10L39,28H58z"/>
	<path id="svg_16" class="st3" d="M39,28l9.6,10L58,28H39z"/>
	<path id="svg_17" class="st4" d="M17,17.5c-2.2,0-3.8-1.3-3.8-3.6c0-2.1,1.4-3.7,3.6-3.7c1,0,2,0.3,3,0.8L20,8.5
		c-1.1-0.3-2.2-0.6-3.4-0.6c-3.8,0-6.5,2-6.5,5.9c0,4.3,3.5,5.8,6.5,5.8c1.6,0,2.5-0.2,3.4-0.5l-0.1-2.4C19,17.2,18,17.5,17,17.5z
		 M28,12.5h-3.5V8.2h-3.1v11.3h3.1v-4.8H28v4.8h3.1V8.2H28V12.5z M40,14c1.5-0.4,2.2-1.4,2.2-2.9c0-1.9-1.6-2.9-3.7-2.9h-5.4v11.3h3
		V15h0.6c1.1,0,1.5,0.5,2.1,2.4l0.7,2h3.2l-1.1-3.1C41.1,15.1,41,14.2,40,14z M37,12.9h-0.8v-2.6H37c1.2,0,2.2,0.2,2.2,1.3
		C39.2,12.9,37.9,12.9,37,12.9z M60.7,12.5h-3.6V8.2h-3v11.3h3v-4.8h3.6v4.8h3V8.2h-3V12.5z M69.3,8.2L65,19.5h3l0.9-2.4h4.3
		l0.8,2.4h3.3L73,8.2H69.3z M69.6,15l1.5-4.4l1.4,4.4H69.6z M86.4,15.9L86.4,15.9l-3.9-7.7h-3.9v11.3h2.8l-0.1-7.7l4,7.7h3.8V8.2
		h-2.8L86.4,15.9z M94,11.3c0-1,1.3-1.1,2-1.1c0.9,0,1.7,0.2,2.5,0.5l0.2-2.3C97.9,8.1,96.9,8,95.8,8c-2.3,0-5,0.7-5,3.5
		c0,4.1,5.4,2.8,5.4,4.9c0,0.9-0.9,1.1-1.9,1.1c-1.3,0-2.4-0.3-3.1-0.7l-0.3,2.5c1,0.3,2.3,0.5,3.4,0.5c2.5,0,5-0.8,5-3.7
		C99.4,11.9,94,13.1,94,11.3z M104.2,14.8h4.7v-2.1h-4.7v-2.3h5V8.2h-8.1v11.3h8.3v-2.1h-5.2L104.2,14.8z M119,8.2v7.7l-3.9-7.7
		h-3.9v11.3h2.8l-0.1-7.7h0.1l4,7.7h3.7V8.2L119,8.2z"/>
</g>
</svg>
