<svg id="coop" xmlns="http://www.w3.org/2000/svg" width="110" height="92" viewBox="0 0 110 92">
  <defs>
    <style>
      .cls-1 {
        fill: #fff;
      }
    </style>
  </defs>
  <title>coop</title>
  <g>
    <path class="cls-1" d="M87.65,35.16c-6.1,0-11.05,2.56-12.84,7.1C73,37.69,68.06,35.16,62,35.16c-5.43,0-9.94,2-12.15,5.66-2.2-3.64-6.71-5.66-12.14-5.66-7.7,0-13.58,4.06-13.58,11.13A10.66,10.66,0,0,0,25.14,51a.65.65,0,0,0-.25.12c-.35.13-.74.26-1.15.39a13.9,13.9,0,0,1-3.49.44c-3.48,0-6.64-2.2-6.64-5.59,0-3.67,2.68-5.88,6.2-5.88a9.34,9.34,0,0,1,3.41.45,12.78,12.78,0,0,1,3.23-4.16c-.38-.19-.8-.35-1.24-.54h0a15.83,15.83,0,0,0-6.36-1.15c-7.71,0-13.59,4.06-13.59,11.12s5.88,11.09,13.59,11.09a24.4,24.4,0,0,0,6.26-.83A17.27,17.27,0,0,0,28.82,55a16.43,16.43,0,0,0,8.85,2.33c5.43,0,9.94-2,12.14-5.65C52,55.33,56.53,57.34,62,57.34s9.91-2,12.11-5.62V63h8.31V56.61a18.44,18.44,0,0,0,5.27.73c7.71,0,13.59-4.06,13.59-11.09S95.36,35.16,87.65,35.16ZM37.7,52.26c-3.71,0-5.24-2.81-5.24-5.94s1.53-6,5.24-6,5.24,2.81,5.24,6S41.41,52.26,37.7,52.26Zm24.26,0c-3.71,0-5.24-2.81-5.24-5.94s1.53-6,5.24-6,5.24,2.81,5.24,6S65.67,52.26,62,52.26Zm25.69,0c-3.7,0-5.24-2.81-5.24-5.94s1.54-6,5.24-6,5.24,2.81,5.24,6S91.36,52.26,87.65,52.26Z"/>
    <path class="cls-1" d="M87.65,35.16c-6.1,0-11.05,2.56-12.84,7.1C73,37.69,68.06,35.16,62,35.16c-5.43,0-9.94,2-12.15,5.66-2.2-3.64-6.71-5.66-12.14-5.66-7.7,0-13.58,4.06-13.58,11.13A10.66,10.66,0,0,0,25.14,51a.65.65,0,0,0-.25.12c-.35.13-.74.26-1.15.39a13.9,13.9,0,0,1-3.49.44c-3.48,0-6.64-2.2-6.64-5.59,0-3.67,2.68-5.88,6.2-5.88a9.34,9.34,0,0,1,3.41.45,12.78,12.78,0,0,1,3.23-4.16c-.38-.19-.8-.35-1.24-.54h0a15.83,15.83,0,0,0-6.36-1.15c-7.71,0-13.59,4.06-13.59,11.12s5.88,11.09,13.59,11.09a24.4,24.4,0,0,0,6.26-.83A17.27,17.27,0,0,0,28.82,55a16.43,16.43,0,0,0,8.85,2.33c5.43,0,9.94-2,12.14-5.65C52,55.33,56.53,57.34,62,57.34s9.91-2,12.11-5.62V63h8.31V56.61a18.44,18.44,0,0,0,5.27.73c7.71,0,13.59-4.06,13.59-11.09S95.36,35.16,87.65,35.16ZM37.7,52.26c-3.71,0-5.24-2.81-5.24-5.94s1.53-6,5.24-6,5.24,2.81,5.24,6S41.41,52.26,37.7,52.26Zm24.26,0c-3.71,0-5.24-2.81-5.24-5.94s1.53-6,5.24-6,5.24,2.81,5.24,6S65.67,52.26,62,52.26Zm25.69,0c-3.7,0-5.24-2.81-5.24-5.94s1.54-6,5.24-6,5.24,2.81,5.24,6S91.36,52.26,87.65,52.26Z"/>
    <path class="cls-1" d="M87.65,35.16c-6.1,0-11.05,2.56-12.84,7.1C73,37.69,68.06,35.16,62,35.16c-5.43,0-9.94,2-12.15,5.66-2.2-3.64-6.71-5.66-12.14-5.66-7.7,0-13.58,4.06-13.58,11.13A10.66,10.66,0,0,0,25.14,51a.65.65,0,0,0-.25.12c-.35.13-.74.26-1.15.39a13.9,13.9,0,0,1-3.49.44c-3.48,0-6.64-2.2-6.64-5.59,0-3.67,2.68-5.88,6.2-5.88a9.34,9.34,0,0,1,3.41.45,12.78,12.78,0,0,1,3.23-4.16c-.38-.19-.8-.35-1.24-.54h0a15.83,15.83,0,0,0-6.36-1.15c-7.71,0-13.59,4.06-13.59,11.12s5.88,11.09,13.59,11.09a24.4,24.4,0,0,0,6.26-.83A17.27,17.27,0,0,0,28.82,55a16.43,16.43,0,0,0,8.85,2.33c5.43,0,9.94-2,12.14-5.65C52,55.33,56.53,57.34,62,57.34s9.91-2,12.11-5.62V63h8.31V56.61a18.44,18.44,0,0,0,5.27.73c7.71,0,13.59-4.06,13.59-11.09S95.36,35.16,87.65,35.16ZM37.7,52.26c-3.71,0-5.24-2.81-5.24-5.94s1.53-6,5.24-6,5.24,2.81,5.24,6S41.41,52.26,37.7,52.26Zm24.26,0c-3.71,0-5.24-2.81-5.24-5.94s1.53-6,5.24-6,5.24,2.81,5.24,6S65.67,52.26,62,52.26Zm25.69,0c-3.7,0-5.24-2.81-5.24-5.94s1.54-6,5.24-6,5.24,2.81,5.24,6S91.36,52.26,87.65,52.26Z"/>
  </g>
</svg>
