<?xml version="1.0" encoding="utf-8"?>
<!-- Generator: Adobe Illustrator 23.0.3, SVG Export Plug-In . SVG Version: 6.00 Build 0)  -->
<svg version="1.1" xmlns="http://www.w3.org/2000/svg" xmlns:xlink="http://www.w3.org/1999/xlink" x="0px" y="0px"
	 viewBox="0 0 400 131.8" style="enable-background:new 0 0 400 131.8;" xml:space="preserve">
<style type="text/css">
	.st0{fill-rule:evenodd;clip-rule:evenodd;fill:#FFFFFF;}
	.st1{fill-rule:evenodd;clip-rule:evenodd;fill:#959494;}
</style>
<g id="svg">
	<path id="path0" class="st0" d="M320.9,111c-0.1,0.1-0.3,0.1-0.5,0.2c-0.2,0-0.4,0.1-0.5,0.2c0,0.1-0.4,0.3-0.7,0.5
		c-0.7,0.4-1.2,1.4-1.4,2.5c-0.1,0.4-0.2,0.7-0.2,0.7c-0.1,0-0.1,0.4-0.1,1c0,0.7,0,0.9-0.1,0.6c-0.1-0.2-0.2,0.6-0.2,2.3
		c0,1.7,0.1,2.5,0.1,2.3c0.1-0.3,0.1-0.1,0.1,0.7c0,0.6,0,1.1,0.1,1.1c0.1,0,0.2,0.5,0.3,1.1c0.5,2.7,2.7,4,5.8,3.4
		c1-0.2,2.7-1.1,2.7-1.4c0-0.1,0.1-0.3,0.2-0.6c0.1-0.3,0.2-0.6,0.2-0.6c0-0.1,0-0.1,0.1-0.1s0.2-0.1,0.2-0.3c0-0.2,0.1-0.7,0.1-1.3
		l0.1-1h-1.1h-1.1l-0.1,0.9c-0.3,2.5-2,3.3-4.3,2.1c-0.2-0.1-0.5-0.7-0.9-1.9c-0.4-1-0.4-7.9-0.1-8.6c0,0,0.1-0.2,0.1-0.3
		c0.2-1.3,1.7-2.2,3.2-2c0.9,0.1,1.8,0.9,1.7,1.4c0,0.2,0,0.3,0.1,0.2c0.1-0.1,0.2,0.2,0.2,0.6v0.7h1.1h1.1l0-1c0-0.6-0.1-1-0.2-1.1
		c-0.1-0.1-0.1-0.2-0.1-0.2c0-0.1,0-0.3-0.2-0.4c-0.1-0.1-0.2-0.3-0.2-0.3c0.4,0-1.4-1.3-1.9-1.4c0,0-0.2-0.1-0.3-0.1
		C324.2,110.8,321,110.8,320.9,111 M88.6,112.7c-0.3,0.9-0.6,1.7-0.7,1.8c-0.1,0-0.1,0.2,0,0.3c0.1,0.1,0,0.2-0.1,0.2
		c-0.1,0-0.1,0.1-0.1,0.3c0.1,0.1,0,0.3-0.1,0.3c-0.1,0-0.1,0.1-0.1,0.3c0.1,0.1,0,0.3-0.1,0.3s-0.2,0.1-0.1,0.3
		c0.1,0.1,0,0.3-0.1,0.3c-0.1,0-0.1,0.1-0.1,0.2c0,0.1,0,0.3,0,0.3c-0.1,0.1-0.1,0.2-0.1,0.2c0,0.1-0.1,0.3-0.2,0.6
		s-0.4,1.3-0.7,2.2c-0.3,1-0.6,1.7-0.7,1.6c-0.1-0.1-0.1,0,0,0.1c0.1,0.2-0.4,2-0.6,2c-0.1,0-0.1,0.1,0,0.3c0.1,0.1,0,0.3-0.1,0.3
		c-0.1,0-0.1,0.1-0.1,0.3c0.1,0.1,0,0.3,0,0.3c-0.1,0-0.2,0.2-0.2,0.4c0,0.2-0.1,0.6-0.2,0.8c-0.1,0.2-0.2,0.5-0.1,0.5
		c0,0.1-0.1,0.2-0.2,0.3c-0.3,0.4-0.1,0.5,1.1,0.5c0.9,0,1,0,1-0.3c-0.1-0.1,0-0.3,0.1-0.3c0.1,0,0.1-0.1,0.1-0.2
		c-0.1-0.2,0.4-2.1,0.6-2.1c0.1,0,0.1-0.2,0-0.3c-0.1-0.1,0-0.2,0.1-0.2c0.1,0,0.1-0.1,0.1-0.3c-0.1-0.2,0.4-0.3,3.4-0.3
		c3.7,0,3.6,0,3.8,0.7c0,0.1,0.1,0.2,0.1,0.3c0,0.1,0,0.2,0,0.3c0,0.1,0.1,0.5,0.3,0.9c0.2,0.4,0.3,0.8,0.2,0.9
		c-0.1,0.1,0,0.2,0.1,0.2s0.2,0.1,0.1,0.3c0,0.3,0.1,0.3,1.1,0.3l1.1,0l-0.2-0.8c-0.1-0.4-0.2-0.8-0.1-0.9c0-0.1,0-0.1-0.1-0.1
		c-0.1,0-0.2-0.1-0.1-0.3c0.1-0.1,0-0.3,0-0.3c-0.1,0-0.3-0.7-0.6-1.5c-0.3-0.8-0.5-1.7-0.6-2c-0.1-0.2-0.2-0.5-0.2-0.5
		c0-0.1-0.1-0.2-0.1-0.2c-0.1-0.1-0.1-0.2,0-0.3c0-0.1,0-0.2-0.1-0.2c-0.1,0-0.1-0.1-0.1-0.3c0.1-0.1,0-0.3-0.1-0.3
		c-0.1,0-0.1-0.1-0.1-0.3c0.1-0.1,0-0.3-0.1-0.3s-0.2-0.1-0.1-0.3c0.1-0.1,0-0.3-0.1-0.3c-0.1,0-0.1-0.1-0.1-0.2
		c0.1-0.1,0-0.3-0.1-0.3c-0.1-0.1-0.1-0.2-0.1-0.2c0-0.1,0-0.2-0.1-0.3c-0.1-0.1-0.1-0.2-0.1-0.3c0-0.1,0-0.2-0.1-0.2
		c-0.1,0-0.1-0.1-0.1-0.3c0.1-0.1,0-0.3,0-0.3c-0.2,0-0.9-2.3-0.8-2.5c0.1-0.1,0-0.2,0-0.2c-0.1,0-0.3-0.6-0.5-1.3
		c-0.5-1.6-0.4-1.5-1.9-1.5l-1.2,0L88.6,112.7 M188.3,112.3v1.2l1.9,0l1.9,0l0,6.9l0,6.9h1.7h1.7l0-6.9l0-6.9l1.8,0l1.8,0v-1.2v-1.2
		l-5.4,0l-5.4,0V112.3 M119.9,111.7c-0.1,0.3-0.2,0.5-0.3,0.5c-0.1,0-0.1,0.1-0.1,0.2c0,0.1,0,0.3-0.1,0.4c-0.1,0.1-0.1,0.2-0.1,0.2
		c0.1,0,0,0.1-0.1,0.3c-0.1,0.1-0.2,0.3-0.1,0.4s0,0.2,0,0.3c-0.1,0.1-0.4,1.2-0.8,2.4c-0.3,1.2-0.7,2.3-0.7,2.3
		c-0.1,0-0.1,0.3-0.1,0.6c0,0.3-0.1,0.5-0.2,0.5c-0.1,0-0.1,0.2-0.1,0.4c0,0.2,0,0.3-0.1,0.3c-0.1,0-0.2,0.2-0.2,0.5
		c0,0.3-0.1,0.6-0.2,0.6c-0.1,0.1-0.2,0.3-0.2,0.6c0,0.3-0.1,0.5-0.2,0.6c-0.1,0-0.1,0.2-0.1,0.3c0,0.1,0,0.3-0.1,0.3
		c-0.1,0.1-0.1,0.2-0.1,0.3c0.1,0.1,0,0.2-0.1,0.2c-0.1,0-0.2,0.1-0.1,0.2c0.1,0.1,0,0.3-0.1,0.3c-0.1,0.1-0.1,0.2-0.1,0.3
		c0.1,0.1,0,0.3-0.1,0.4c-0.1,0.1-0.1,0.2-0.1,0.2s0.1,0.1,0,0.2c-0.1,0.1-0.2,0.4-0.3,0.7c-0.1,0.2-0.2,0.6-0.2,0.7
		c-0.1,0.2,0.1,0.3,1.4,0.3c1.8,0,2-0.1,1.9-0.5c0-0.2,0-0.3,0.1-0.3c0.1,0,0.2-0.3,0.2-0.6c0-0.3,0.1-0.7,0.2-0.8
		c0.1-0.1,0.1-0.3,0.1-0.3c-0.1-0.1,0-0.2,0-0.3c0.1-0.1,0.1-0.3,0.2-0.4c0-0.1,0-0.3,0-0.4c0-0.2,0.7-0.2,2.6-0.2
		c2.2,0,2.6,0,2.5,0.3c-0.1,0.1,0,0.3,0.1,0.3c0.1,0,0.1,0.2,0.1,0.4c0,0.2,0,0.4,0.1,0.3c0.1-0.1,0.1,0.1,0.1,0.3
		c0,0.2,0,0.4,0,0.4c0.1,0,0.2,0.4,0.3,0.9l0.2,0.9h1.7h1.7l0-0.6c0-0.3-0.1-0.6-0.2-0.6c-0.1,0-0.1-0.2-0.1-0.3
		c0.1-0.2,0-0.3,0-0.2c-0.1,0.1-0.6-1.6-1.4-4.7c0-0.1-0.1-0.3-0.1-0.3c0,0,0-0.1,0-0.2c0-0.1-0.1-0.2-0.2-0.4s-0.1-0.2-0.1-0.2
		s0-0.1-0.1-0.2c-0.1-0.1-0.2-0.3-0.1-0.4c0.1-0.1,0-0.2-0.1-0.3c-0.1-0.1-0.1-0.2-0.1-0.3c0-0.1,0-0.2-0.1-0.2
		c-0.1,0-0.1-0.2-0.1-0.3c0-0.2,0-0.3-0.1-0.3c-0.1,0-0.1-0.1-0.1-0.2c0.1-0.1,0-0.3-0.1-0.3c-0.1-0.1-0.1-0.2-0.1-0.3
		c0-0.1,0-0.2-0.1-0.2c-0.1,0-0.1-0.2-0.1-0.3c0-0.2,0-0.3,0-0.3c-0.2,0-0.3-0.9-0.1-1c0.1-0.1,0.1-0.1-0.1-0.1
		c-0.2,0-0.3-0.1-0.2-0.3c0-0.2,0-0.3-0.1-0.3c-0.1,0-0.1-0.2-0.1-0.3c0-0.2,0-0.3,0-0.3c-0.1,0-0.2-0.4-0.4-1l-0.2-1l-2.2,0l-2.2,0
		L119.9,111.7 M142.3,112.3v1.2h1.6h1.6v-1.2v-1.2h-1.6h-1.6V112.3 M148.2,119.3v8.1l1.6,0l1.6,0l0-8l0-8h-1.7h-1.7V119.3
		 M220.5,119.3v8.1h1.6h1.6l0.1-4.2c0.1-4.6,0.2-5.2,0.9-5.1c0.1,0,0.2-0.1,0.2-0.2c0.1-0.2,0.2-0.2,0.4,0c0.1,0.1,0.3,0.2,0.3,0.1
		c0.4-0.4,0.6,0.6,0.6,4.9l0.1,4.5h1.6h1.6l0-4.5c0-2.5,0-4.6-0.1-4.7c-0.1-0.1-0.1-0.2,0-0.4c0.1-0.1,0-0.3-0.1-0.3
		c-0.1,0-0.1-0.1-0.1-0.2c0.1-0.2-0.4-0.7-1.1-1.2c-0.1-0.1-0.3-0.1-0.5-0.1c-0.2,0-0.3,0-0.4-0.1c-0.1-0.1-0.3-0.2-0.5-0.2
		c-0.2,0-0.4,0.1-0.5,0.2c-0.1,0.1-0.2,0.1-0.4,0.1c-0.3-0.1-0.3,0-1.2,0.7c-0.3,0.3-0.7,0.5-0.7,0.5c-0.1,0-0.1-1.3-0.1-3v-3h-1.6
		h-1.6V119.3 M255,119.3v8.1h1.7h1.7v-8.1v-8.1h-1.7H255V119.3 M283.8,112.3v1.2h1.7h1.7v-1.2v-1.2h-1.7h-1.7V112.3 M90.6,113.3
		c-0.1,0.1,0,0.3,0.1,0.3c0.1,0,0.2,0.1,0.1,0.2c0,0.1,0,0.3,0,0.3c0.1,0.1,0.1,0.2,0.1,0.2c0,0.1,0.1,0.3,0.2,0.6
		c0.1,0.3,0.2,0.5,0.1,0.6c-0.1,0.1,0,0.2,0.1,0.2c0.1,0,0.2,0.1,0.1,0.3c-0.1,0.1,0,0.3,0.1,0.3s0.1,0.1,0.1,0.3
		c-0.1,0.1,0,0.3,0.1,0.3c0.1,0,0.1,0.2,0.1,0.3c0,0.2,0,0.3,0,0.3c0.2,0,0.5,1.3,0.4,1.5c-0.1,0.1,0,0.2,0.1,0.2
		c0.1,0,0.2,0.1,0.1,0.3c-0.1,0.1,0,0.3,0.1,0.3s0.1,0.1,0.1,0.3c-0.1,0.1,0,0.3,0,0.3c0.1,0,0.5,1.2,0.5,1.6c0,0.1-1.3,0.1-2.8,0.1
		c-2.2,0-2.8,0-2.8-0.2c0-0.1,0.2-0.2,0.3-0.2c0.2,0,0.2,0,0-0.2c-0.1-0.1-0.1-0.3-0.1-0.4s0.1-0.2,0.1-0.2s0.1-0.2,0.1-0.4
		c0.1-0.1,0.4-1.1,0.7-2c0.3-1,0.6-1.7,0.7-1.7c0.1,0.1,0.1-0.1,0-0.2c-0.1-0.2,0-0.3,0.1-0.3c0.1,0,0.2-0.1,0.1-0.1
		c-0.1-0.2,0.4-2,0.6-2c0.1,0,0.1-0.1,0.1-0.2c-0.1-0.2,0-0.5,0.3-0.5C90.6,113,90.6,113.1,90.6,113.3 M179.7,113.2
		c-0.2,0.1-0.9,0.4-1.6,0.6l-1.1,0.4l0.1,1l0.1,1h-0.7h-0.7v1.1v1.1h0.7h0.7v3.6c0,2.3,0.1,3.6,0.2,3.6c0.1,0,0.2,0.1,0.2,0.3
		c0,1,1.3,1.7,3.3,1.7c2,0,2,0,2-1.2v-1l-0.5,0.1c-0.3,0.1-0.5,0.1-0.5,0.1c-1.2,0-1.3-0.2-1.3-3.9l0-3.3h0.9h0.9v-1.1v-1.1h-0.9
		h-0.9v-1.6c0-0.9-0.1-1.6-0.1-1.6C180.1,113,179.9,113.1,179.7,113.2 M122.6,116c0.1,0.1,0.1,0.3,0.1,0.4c0,0.1,0.1,0.2,0.2,0.4
		c0.1,0.1,0.1,0.3,0.1,0.4c-0.1,0.1,0,0.2,0.1,0.3c0.1,0.1,0.1,0.2,0.1,0.4c-0.1,0.1,0,0.4,0.1,0.5s0.1,0.3,0.1,0.4
		c-0.1,0.1,0,0.2,0.1,0.3c0.1,0.1,0.1,0.3,0.1,0.4c-0.1,0.2,0,0.3,0.1,0.3c0.1,0,0.2,0.1,0.1,0.3c0,0.2,0,0.4,0.1,0.4
		c0.1,0,0.1,0.2,0.1,0.3c-0.1,0.4-3.6,0.4-3.6,0.1c0-0.3,1.7-6.8,1.8-7c0.1-0.1,0.2,0.3,0.3,0.9C122.4,115.3,122.6,115.9,122.6,116
		 M133.3,115.8c-0.1,0.1-0.2,0.2-0.4,0.2c-0.4,0-1.7,0.9-1.6,1c0,0.1,0,0.2-0.1,0.3c-0.1,0.1-0.2,0.3-0.2,0.4s0,0.2-0.1,0.2
		c-0.1,0-0.1,0.1-0.1,0.3c0.1,0.1,0,0.3-0.1,0.5c-0.2,0.2-0.2,5.4,0,5.7c0.1,0.1,0.1,0.3,0,0.5c-0.1,0.1,0,0.3,0.1,0.3
		c0.1,0,0.2,0.2,0.3,0.4c0.1,0.2,0.3,0.6,0.6,0.9c0.4,0.4,0.7,0.5,1.7,0.7c0.7,0.1,1.9-0.3,2.3-0.8l0.5-0.5l0,1.4
		c0,1.4-0.3,2.3-0.6,2.2c-0.1,0-0.2,0-0.2,0.1c0,0.3-0.7,0.2-1-0.2c-0.2-0.2-0.4-0.5-0.4-0.8l0-0.5l-1.7,0l-1.7,0l0.1,0.5
		c0.1,0.3,0.1,0.7,0.1,0.9c0,0.2,0.1,0.4,0.1,0.4c0.1,0,0.2,0.2,0.3,0.4c0.4,0.8,1.5,1.2,3.8,1.2c2.9,0,4.1-0.7,4.4-2.4
		c0-0.4,0.2-0.6,0.2-0.6c0.1,0.1,0.1-2.7,0.1-6.2v-6.3h-1.6c-1.6,0-1.6,0-1.6,0.4c0,0.2-0.1,0.4-0.2,0.4c-0.1,0-0.2-0.1-0.2-0.1
		c0-0.1-0.3-0.3-0.6-0.5c-0.3-0.2-0.6-0.4-0.6-0.4c0-0.1-0.1-0.1-0.3,0s-0.4,0-0.4-0.1C134.1,115.6,133.4,115.6,133.3,115.8
		 M157.6,115.8c-0.1,0.1-0.3,0.2-0.5,0.1c-0.2,0-0.4,0-0.4,0c0,0.1-0.2,0.2-0.5,0.3c-1.6,0.6-2,1.7-2,5.4c0,4.9,1.3,6.3,5.3,5.8
		c1.4-0.2,3.1-1.3,3.1-2c0-0.3,0-0.4,0.2-0.6c0.1-0.1,0.1-0.4,0.1-0.6l0-0.5h-1.6h-1.6l-0.1,0.5c-0.1,0.7-0.6,1.2-1.2,1.2
		c-0.6,0-1.2-0.5-1-0.8c0.1-0.1,0-0.2-0.1-0.2s-0.2-0.2-0.2-0.3c0-0.2,0.1-0.3,0.1-0.3c0.1,0,0.1-0.1,0.1-0.4
		c-0.1-0.4-0.1-0.4-0.2-0.1c-0.1,0.2-0.1,0.1-0.1-0.4l0-0.8l3,0l3,0l-0.1-1.3c-0.1-0.7-0.1-1.5-0.1-1.7c0-0.2-0.1-0.4-0.1-0.5
		c-0.1-0.1-0.1-0.2-0.1-0.3c0.1-0.1,0-0.2-0.1-0.2c-0.1,0-0.2-0.2-0.3-0.4c-0.1-0.3-0.6-0.9-1.5-1.6c-0.1-0.1-0.3-0.1-0.4-0.1
		c-0.1,0-0.2,0-0.2-0.1c0-0.1-0.2-0.2-0.5-0.2c-0.3,0-0.8-0.1-1.2-0.1C158,115.7,157.7,115.7,157.6,115.8 M170.8,115.8
		c-0.1,0.1-0.5,0.2-0.7,0.2c-0.2,0.1-0.7,0.4-1.1,0.7l-0.7,0.6l0.1-0.6l0.1-0.6h-1.6h-1.6v5.6v5.6h1.6h1.6v-4.2
		c0-2.6,0.1-4.2,0.2-4.2c0.1,0,0.1-0.1,0.1-0.2c-0.1-0.3,0.5-1,0.7-0.9c0.1,0.1,0.2,0,0.3-0.1c0.1-0.2,0.1-0.2,0.2,0
		c0.1,0.1,0.2,0.2,0.4,0.1c0.2-0.1,0.2,0,0.2,0.2c-0.1,0.2,0,0.2,0.1,0.2c0.3-0.1,0.3-0.5,0.2,4.7l0,4.4h1.7h1.7v-4.7
		c0-5.6-0.2-6.2-1.7-6.5c-0.3-0.1-0.5-0.2-0.6-0.2C171.8,115.6,171.2,115.6,170.8,115.8 M201.8,115.8c-0.1,0.1-0.3,0.2-0.6,0.1
		c-0.3,0-0.5,0-0.5,0.1c0,0.1-0.1,0.1-0.3,0.1c-0.1-0.1-0.3,0-0.3,0.1s-0.1,0.1-0.2,0.1s-0.2,0-0.2,0.1s-0.2,0.3-0.5,0.5
		c-0.3,0.2-0.5,0.3-0.5,0.4c0,0.2-0.2,0.8-0.4,0.8c-0.1,0-0.1,0.1-0.1,0.2s0,0.3-0.1,0.3c-0.1,0.1-0.1,0.3-0.1,0.4
		c0,0.2,0,0.3-0.1,0.3c-0.1,0-0.1,2.2,0,5.1c0,0.2,0.1,0.4,0.2,0.4c0.1,0,0.1,0.1,0.1,0.3c-0.1,0.1,0,0.3,0,0.3c0.1,0,0.4,0.8,0.3,1
		c0,0,0.2,0.2,0.5,0.4c2.8,1.9,7.5,0.4,7.5-2.4v-0.5l-1.6-0.1l-1.6-0.1l0,0.6c0,1.4-1.9,1.7-2.2,0.3c0-0.2-0.1-0.3-0.1-0.3
		s-0.1-0.5-0.1-1.1l-0.1-1.1h2.9h2.9l-0.1-1.6c-0.2-2.6-0.9-4-2.2-4.3c-0.2-0.1-0.4-0.1-0.4-0.2c0-0.1-0.2-0.1-0.5-0.1
		c-0.3,0-0.8-0.1-1.2-0.1C202.1,115.7,201.8,115.7,201.8,115.8 M212.8,115.8c-0.1,0.1-0.3,0.2-0.5,0.1c-0.2,0-0.4,0-0.4,0.1
		c0,0.1-0.2,0.2-0.5,0.2c-0.5,0.1-1.4,0.9-1.6,1.4c-0.1,0.2-0.2,0.4-0.3,0.4c-0.1,0-0.1,0.1-0.1,0.2s0,0.3-0.1,0.3
		c-0.1,0.1-0.1,0.2-0.1,0.4c0,0.2,0,0.4-0.1,0.4c-0.2,0.1-0.1,4.4,0,4.8c0.1,0.2,0.1,0.4,0,0.5c-0.1,0.1,0,0.2,0.1,0.2
		c0.1,0,0.2,0.1,0.2,0.3c0,3.1,7.6,3.3,8.3,0.2c0.1-0.3,0.2-0.5,0.2-0.5c0.1,0,0.1-0.4,0.1-0.8l-0.1-0.8h-1.6c-1.5,0-1.6,0-1.6,0.4
		c0,1.3-0.8,2.3-1.6,1.9c-0.5-0.3-0.9-0.8-0.8-1c0.1-0.1,0-0.2-0.1-0.2c-0.2-0.1-0.2-4.8,0-5c0.1-0.1,0.1-0.2,0-0.3
		c-0.1-0.3,0.7-1.1,1.2-1.1c0.2,0,0.4,0.1,0.4,0.2s0.1,0.1,0.2,0.1c0.1,0,0.3,0.3,0.5,0.8l0.3,0.8l1.5,0l1.5,0l0.1-0.6
		c0-0.3,0-0.6-0.1-0.6c-0.1,0-0.1-0.1-0.1-0.3c0-0.7-0.7-1.6-1.5-2c-0.4-0.2-0.8-0.4-0.9-0.5s-0.3-0.1-0.6-0.1
		c-0.3,0-0.8-0.1-1.3-0.1C213.1,115.7,212.8,115.7,212.8,115.8 M237.7,115.8c0,0.1-0.2,0.2-0.3,0.2c-0.5,0-1,0.3-1.6,0.9l-0.5,0.5
		v-0.6v-0.6h-1.5h-1.5v5.6v5.6h1.6h1.6v-4.1c0-4.5,0.1-5.1,0.9-5.4c1.3-0.5,1.5,0,1.4,5.1l0,4.4h1.8h1.8l-0.1-4.4
		c-0.1-4.4-0.1-5.1-0.3-5.4c-0.1-0.1-0.1-0.2,0-0.2c0.2,0-1.3-1.4-1.6-1.5c-0.1,0-0.6-0.1-0.9-0.1
		C237.9,115.7,237.7,115.7,237.7,115.8 M247.1,115.9c-0.2,0.1-0.4,0.1-0.6,0.1c-0.2,0-0.3,0-0.3,0.1s-0.1,0.2-0.2,0.2
		c-0.3,0-1.8,1-1.7,1.2c0.1,0.1,0,0.2-0.1,0.2c-0.7,0-1,5.4-0.5,7.4c0.7,2.3,3.2,3.3,6.2,2.5c1.1-0.3,1.5-0.7,2.3-2.2
		c0.3-0.5,0.3-6.2,0-6.8c-0.1-0.2-0.2-0.5-0.2-0.5c0-0.3-1.1-1.3-1.6-1.5c-0.3-0.1-0.6-0.2-0.6-0.3c0-0.1-0.2-0.1-0.5,0
		c-0.3,0-0.5,0-0.6-0.1C248.6,115.6,247.5,115.6,247.1,115.9 M264.3,115.9c-0.2,0.1-0.4,0.1-0.6,0.1c-0.2,0-0.3,0-0.3,0
		c0,0.1-1.2,0.6-1.4,0.5c-0.1,0-0.1,0,0,0.1c0.1,0.1,0,0.2,0,0.2c-1.4,0-1.7,7.4-0.4,9.4c1.4,2.2,7,1.7,7.6-0.6
		c0.1-0.2,0.2-0.4,0.3-0.4s0.1-0.1,0.1-0.2c-0.1-0.1,0-0.3,0-0.4c0.2-0.3,0.2-0.9,0.2-3c0-2.6,0-2.8-0.2-2.8c-0.1,0-0.1-0.1-0.1-0.3
		c0-0.2,0-0.3,0-0.4c-0.1,0-0.2-0.2-0.2-0.4c0-0.3-0.4-0.6-1.6-1.6c-0.1-0.1-0.3-0.1-0.4-0.1c-0.1,0-0.2,0-0.2-0.1
		c0-0.1-0.2-0.1-0.5-0.1c-0.3,0-0.5,0-0.6-0.1C265.8,115.6,264.7,115.6,264.3,115.9 M274.2,116.1c-0.8,0.3-1.5,1.2-1.7,1.8
		c-0.3,1.3-0.4,2.2-0.4,4.4c0,1.4,0.1,2.5,0.2,2.5s0.1,0.1,0.1,0.3c0,1.9,4.1,2.9,5,1.3c0.3-0.6,0.5-0.4,0.5,0.7
		c0,0.6-0.1,1.1-0.2,1.1c-0.1,0-0.1,0.2-0.1,0.4c0.1,0.3,0,0.5-0.4,0.8c-0.8,0.7-1.7,0.4-1.9-0.6l-0.1-0.6l-1.5,0l-1.5,0l-0.1,0.6
		c-0.2,1.9,1.1,2.8,4.1,2.8c4.5,0,4.7-0.2,4.7-9l0-6.5h-1.5c-1.5,0-1.5,0-1.5,0.4v0.4l-0.6-0.4c-0.3-0.2-0.7-0.5-0.8-0.5
		c-0.1-0.1-0.3-0.1-0.4-0.1c-0.2,0-0.3,0-0.4-0.1C275.8,115.6,275.2,115.7,274.2,116.1 M293.3,115.8c-0.1,0.1-0.3,0.2-0.5,0.1
		c-0.2,0-0.4,0-0.4,0c0,0.1-0.2,0.2-0.5,0.3c-1.6,0.6-2,1.7-2,5.4c0,3.2,0.2,4.1,1.1,5c1.8,1.7,7,0.8,7.3-1.2c0-0.2,0.1-0.5,0.1-0.6
		c0,0,0.1-0.3,0.1-0.6l0-0.5h-1.5c-1.4,0-1.5,0-1.5,0.3c0,0.2-0.1,0.4-0.2,0.5c-0.1,0.1-0.1,0.2-0.1,0.2c0.1,0,0,0.2-0.2,0.3
		c-0.5,0.6-2.2,0.2-1.8-0.5c0.1-0.1,0-0.2-0.1-0.2c-0.1,0-0.2-0.2-0.2-0.3c0-0.2,0.1-0.3,0.2-0.3c0.1,0.1,0.1-0.1,0.1-0.3
		c-0.1-0.3-0.1-0.3-0.2-0.1c-0.1,0.1-0.1,0-0.1-0.5l0-0.8l3,0l3,0l-0.1-1.2c-0.1-0.7-0.1-1.4-0.1-1.6c0-0.2-0.1-0.5-0.2-0.6
		c-0.1-0.1-0.1-0.3,0-0.4c0.1-0.1,0-0.2-0.1-0.2c-0.1,0-0.2-0.2-0.3-0.4c-0.1-0.3-0.6-0.9-1.5-1.6c-0.1-0.1-0.3-0.1-0.4-0.1
		c-0.1,0-0.2,0-0.2-0.1c0-0.1-0.2-0.2-0.5-0.2c-0.3,0-0.8-0.1-1.2-0.1C293.6,115.7,293.3,115.7,293.3,115.8 M304.1,115.8
		c-0.1,0.1-0.3,0.1-0.6,0.1c-0.3-0.1-0.5,0-0.5,0c0,0.1-1.1,0.6-1.4,0.6c-0.6,0-1.3,1.8-1.2,3c0.1,1,2.2,2.8,2.9,2.6
		c0.1,0,0.1,0,0.1,0.1s0.1,0.1,0.2,0.1c0.1-0.1,0.2,0,0.2,0.1c0,0.1,0.3,0.2,0.6,0.2c1.7,0.3,2.2,2.3,0.8,2.8
		c-0.6,0.2-1.5,0-1.4-0.3c0.1-0.1,0-0.2-0.1-0.1c-0.1,0-0.2-0.1-0.2-0.2c0-0.2,0-0.3-0.1-0.3c-0.1,0-0.1-0.2-0.1-0.5v-0.5h-1.5h-1.5
		v0.8c0,2.3,1.3,3.2,4.4,3.2c3,0,4.1-0.8,4.5-3.3c0-0.3,0-0.7,0-0.8c-0.1-0.2-0.1-0.3-0.2-0.4c-0.3-1-1-1.5-2.5-2.1
		c-0.4-0.2-0.7-0.4-0.6-0.4c0.1-0.1,0-0.1-0.1,0c-0.6,0.3-2.4-0.9-2.4-1.6c0-0.7,1.1-1.5,1.4-1c0.1,0.1,0.2,0.1,0.3,0.1
		c0.2-0.1,0.7,0.3,0.6,0.5c0,0.1,0,0.2,0.1,0.2c0.1,0,0.2,0.2,0.2,0.3c0,0.3,0.1,0.3,1.5,0.3c1.7,0,1.9-0.2,1.4-1.4
		c-0.1-0.3-0.2-0.6-0.1-0.6c0.1,0-0.2-0.2-0.5-0.5c-0.4-0.3-0.7-0.6-0.8-0.6c-0.1-0.1-0.3-0.1-0.4-0.1c-0.1,0-0.2,0-0.2-0.1
		c0-0.1-0.2-0.1-0.5-0.1c-0.3,0-0.5,0-0.6-0.1C305.6,115.6,304.2,115.6,304.1,115.8 M102.7,116.2c-0.4,0.2-0.8,0.5-1,0.7
		c-0.4,0.4-0.7,0.3-0.4-0.1c0.3-0.4-0.1-0.6-1.3-0.6c-0.8,0-1.1,0.1-1.1,0.3c0,0.1,0.1,0.3,0.2,0.3c0.1,0,0.2,1.9,0.2,5.3v5.3h0.9
		h0.9v-4.2c0-2.6,0.1-4.2,0.2-4.2c0.1,0,0.1-0.1,0.1-0.2c-0.1-0.2,0-0.4,0.6-0.9c0.5-0.4,2.3-0.7,2.3-0.3c0,0.1,0.1,0.1,0.2,0.1
		c0.2-0.1,1,0.8,0.9,1c0,0.1,0,0.3,0.1,0.3c0.1,0.1,0.2,1.8,0.2,4.3v4.2h0.9h0.9l0-4.6c0-2.5,0-4.6-0.1-4.6c-0.1,0-0.2-0.2-0.2-0.5
		c0-0.2-0.1-0.4-0.1-0.4c0,0-0.2-0.1-0.4-0.3C106.1,116,104,115.7,102.7,116.2 M333,116.1c0,0.1-0.1,0.1-0.3,0.1
		c-0.2,0-0.3,0-0.3,0.1s-0.1,0.2-0.2,0.2c-0.7,0-2.1,1.7-2.3,2.7c-0.2,1-0.2,4.7,0,4.9c0.1,0.1,0.2,0.3,0.1,0.3c0,0.1,0,0.2,0,0.3
		c0,0.1,0.1,0.2,0.1,0.3c0.7,3.3,6.4,3.7,7.9,0.6c1.1-2.3,0.7-6.9-0.7-8.4c-0.2-0.2-0.3-0.4-0.2-0.5c0.1-0.1,0-0.1-0.1,0
		c-0.2,0.1-1.1-0.2-1.1-0.4c0-0.1-0.1-0.1-0.2,0c-0.1,0.1-0.3,0-0.4,0C335,115.9,333,115.9,333,116.1 M345.5,116
		c0,0.1-0.2,0.1-0.5,0.2c-0.3,0.1-0.7,0.3-1,0.6c-0.7,0.6-0.7,0.6-0.6-0.1l0.1-0.6h-1.1h-1.1l0,5.6l0,5.6h0.9h0.9v-4.2
		c0-2.6,0.1-4.2,0.2-4.2c0.1,0,0.1-0.1,0.1-0.2c-0.1-0.4,0.8-1.3,1.4-1.3c0.3,0,0.5-0.1,0.6-0.2c0.1-0.1,0.1-0.1,0.1,0.1
		c0,0.1,0.1,0.2,0.3,0.1c0.2-0.1,0.3,0,0.3,0.1c0,0.1,0.1,0.1,0.2,0.1c0.6-0.4,0.8,0.7,0.8,5.2l0.1,4.4l1,0.1l1,0l0-4.4l0-4.4
		l0.6-0.5c1-1,3.5-0.6,3.1,0.4c-0.1,0.1,0,0.2,0.1,0.2c0.1,0,0.2,1.6,0.2,4.3v4.3h0.9h0.9l0-4.5c0-2.5,0-4.6-0.1-4.7
		c-0.1-0.1-0.1-0.3,0-0.4c0.1-0.1,0-0.2-0.1-0.2c-0.1,0-0.2-0.1-0.2-0.3c0-0.6-1.3-1.2-2.6-1.3c-0.5,0-0.9,0-0.9,0.1
		c0,0.1-0.1,0.1-0.3,0.1c-0.3-0.1-0.5,0-1.3,0.8l-0.6,0.5l-0.3-0.5c-0.2-0.3-0.6-0.6-0.9-0.7c-0.3-0.1-0.6-0.3-0.6-0.3
		c0-0.1-0.4-0.1-0.9-0.1C345.9,115.9,345.5,116,345.5,116 M362.3,116c-0.1,0.1-1.4,0.7-1.5,0.7c-0.1,0-0.1,0.1,0,0.2
		c0,0.1,0,0.3-0.1,0.3c-0.1,0.1-0.2-0.1-0.2-0.5v-0.6h-0.9h-0.9v7.7v7.7h0.9h0.9v-2.8V126l0.6,0.6c1.5,1.5,4.8,0.7,5.1-1.2
		c0-0.1,0.1-0.3,0.2-0.4c0.1-0.1,0.1-0.2,0-0.2c-0.1,0,0-0.1,0.1-0.2c0.6-0.8,0.3-5.8-0.4-7c-0.2-0.4-0.4-0.8-0.4-0.9
		s-0.1-0.2-0.1-0.1c-0.1,0.1-1.1-0.4-1.3-0.6C364.1,115.9,362.3,115.9,362.3,116 M372,116.1c0,0.1-0.2,0.1-0.4,0.1
		c-0.2,0-0.3,0-0.3,0.1s-0.1,0.2-0.2,0.2c-0.3,0-1.5,0.9-1.3,1.1c0.1,0.1,0,0.1-0.1,0.1c-0.1,0-0.2,0-0.1,0.1c0.1,0.1,0,0.2-0.1,0.3
		c-0.5,0.5,0,1.1,0.9,1.1c0.9,0,0.9,0,1-0.6c0.1-0.6,0.8-1.2,1.1-1c0.1,0.1,0.2,0.1,0.1-0.1c-0.1-0.2,0.1-0.2,0.8-0.1
		c1.4,0.1,1.8,0.6,1.8,2.2v1.2l-1.1-0.1c-0.6,0-1.1,0-1.1,0c0,0.1-0.4,0.2-1,0.3c-2,0.4-2.7,1.3-2.7,3.5c0,3.3,3.5,4.5,5.5,1.9
		l0.4-0.6l0,0.5c0,1.1,0.1,1.2,1.2,1.2h1l-0.1-3.3c-0.1-6.4-0.1-6.1-0.6-6.8c-0.3-0.3-0.7-0.7-1-0.8c-0.3-0.1-0.5-0.3-0.5-0.3
		c0-0.1-0.1-0.1-0.3,0c-0.2,0-0.3,0-0.3-0.1C374.5,115.9,372.2,115.9,372,116.1 M384.5,116c0,0.1-0.1,0.1-0.3,0.1
		c-0.2,0-0.6,0.2-1,0.5c-0.4,0.3-0.7,0.4-0.6,0.3c0.1-0.1,0-0.2-0.1-0.2c-0.1,0-0.2-0.2-0.2-0.3c0-0.3-0.1-0.3-0.9-0.3
		c-1.2,0-1.1-0.3-1.1,6.1v5.1h1h1v-3.8c0-2.1,0.1-3.8,0.1-3.8c0.1,0,0.1-0.3,0.1-0.7c0-1.1,0.7-1.7,2.1-1.8c0.6,0,1,0,1,0.1
		c0,0.1,0.1,0.1,0.2,0.1c0.7-0.2,0.9,0.7,1,5.3l0.1,4.4h1h1l0-4.3c0-4.8-0.3-6.6-1.2-6.6c-0.3,0-1.1-0.3-1.1-0.4
		c0-0.1-0.5-0.1-1-0.1S384.5,116,384.5,116 M142.3,121.8v5.6l1.5,0l1.5,0l0-5.5l0-5.5h-1.6h-1.6V121.8 M283.8,121.8v5.6l1.6,0l1.6,0
		l0-5.5l0-5.5h-1.7h-1.7V121.8 M390.8,116.3c-0.1,0.1,0,0.2,0.1,0.3s0.1,0.2,0.1,0.3c-0.1,0.1,0,0.2,0.1,0.2c0.1,0,0.2,0,0.1,0.1
		c-0.1,0.1,0,0.2,0.1,0.3c0.1,0.1,0.1,0.2,0.1,0.2s0,0.1,0.1,0.2c0.1,0.1,0.2,0.3,0.1,0.4c-0.1,0.1,0,0.2,0.1,0.2s0.2,0.1,0.1,0.3
		c-0.1,0.1,0,0.3,0.1,0.3c0.1,0,0.1,0.1,0.1,0.3c-0.1,0.1,0,0.3,0.1,0.3c0.1,0,0.1,0.1,0.1,0.3c-0.1,0.1,0,0.3,0.1,0.3
		s0.1,0.1,0.1,0.2c-0.1,0.1,0,0.3,0,0.3c0.3,0.1,2.5,7.1,2.2,7.1c-0.1,0-0.1,0.1-0.1,0.1c0,0.1,0,0.2,0,0.2c0,0.1-0.1,0.2-0.1,0.3
		c0,0.1-0.1,0.3-0.2,0.5c-0.3,0.7-0.9,2.3-0.9,2.4c0,0,0.5,0.1,1,0.1s1-0.1,1-0.1c-0.1-0.3,1.3-4.7,1.5-4.9c0.1,0,0.1-0.2,0.1-0.3
		c0-0.4,0.5-1.8,0.6-1.8c0.1,0,0.1-0.1,0-0.3c-0.1-0.1,0-0.3,0.1-0.3c0.1,0,0.1-0.1,0.1-0.3c-0.1-0.1,0-0.3,0.1-0.3s0.1-0.1,0.1-0.3
		c-0.1-0.1,0-0.3,0.1-0.3c0.1,0,0.1-0.1,0.1-0.3c-0.1-0.1,0-0.3,0.1-0.3c0.1,0,0.1-0.1,0.1-0.2c0-0.1,0-0.3,0.1-0.3
		c0.1-0.1,0.1-0.2,0.1-0.3c-0.1-0.1,0-0.2,0.1-0.2c0.1,0,0.2-0.1,0.1-0.2c-0.1-0.1,0-0.3,0.1-0.3c0.1,0,0.2-0.2,0.2-0.4
		c0-0.2,0.1-0.4,0.2-0.6c0.1-0.3,1.3-3.7,1.3-3.8c0-0.1-1.5-0.1-1.7,0c-0.1,0.1-0.2,0.2-0.2,0.3s0,0.2-0.1,0.2
		c-0.1,0-0.2,0.1-0.2,0.1c0,0.1,0,0.2,0,0.3c0,0.1-0.1,0.2-0.1,0.3c0,0.1-0.1,0.2-0.1,0.4c-0.1,0.1-0.5,1.6-1,3.2
		c-0.5,1.6-1,2.9-1.1,3c-0.1,0-0.1,0.2,0,0.3c0.1,0.2,0.1,0.3-0.2,0.1c-0.2-0.1-0.2-0.3-0.2-0.4c0-0.1,0-0.3-0.1-0.6
		c-0.1-0.3-0.2-0.5-0.2-0.6c0,0-0.1-0.2-0.1-0.3c-0.1-0.1-0.1-0.3,0-0.4c0.1-0.1,0-0.2-0.1-0.2s-0.2-0.1-0.1-0.2
		c0.1-0.1,0-0.3-0.1-0.3s-0.1-0.2-0.1-0.3c0-0.1,0-0.2-0.1-0.2c-0.1,0-0.1-0.1-0.1-0.3c0.1-0.1,0-0.3-0.1-0.3
		c-0.1,0-0.1-0.2-0.1-0.3c0-0.2,0-0.3-0.1-0.3c-0.1,0-0.1-0.1-0.1-0.3c0.1-0.1,0-0.3-0.1-0.3s-0.1-0.2-0.1-0.3c0-0.2,0-0.3-0.1-0.3
		c-0.1,0-0.1-0.1-0.1-0.2c0.1-0.1,0-0.3-0.1-0.3c-0.1,0-0.2-0.3-0.2-0.6s-0.1-0.5-0.1-0.5c-0.1,0-0.1-0.2-0.2-0.3
		C392.7,116.1,391,116,390.8,116.3 M335.7,118c0.9,1,1.2,5.2,0.5,6.9c-0.4,0.9-2.3,1.7-2.7,1.1c-0.1-0.1-0.2-0.1-0.2-0.1
		c-1.2,0.7-2-5.2-1-7.3C332.8,117.2,334.7,116.9,335.7,118 M363.6,117.7c1.3,0.8,1.5,6.5,0.2,8c-0.2,0.2-0.4,0.3-0.4,0.3
		c-0.1-0.1-0.1,0-0.1,0.1c0,0.1-0.3,0.2-0.7,0.1c-0.7,0-1.8-0.8-1.6-1.1c0.1-0.1,0-0.2-0.1-0.2s-0.2-0.1-0.1-0.3
		c0.1-0.1,0-0.3-0.1-0.3c-0.1,0-0.1-0.2-0.1-0.6c0.1-0.4,0.1-0.6-0.1-0.5c-0.1,0.1-0.2-0.5-0.2-1.7c0-1.3,0.1-1.7,0.2-1.7
		c0.1,0.1,0.1,0,0.1-0.3C360.3,118.2,362.2,116.8,363.6,117.7 M135.3,117.8c0.1,0.1,0.2,0.1,0.3,0.1c0.6-0.3,1,5.1,0.5,6.6
		c-0.3,0.8-1.9,1.1-2,0.4c0-0.2-0.1-0.5-0.1-0.5c-0.3-0.4-0.3-5.3,0-5.3c0.1,0,0.1-0.1,0.1-0.2c-0.1-0.3,0.5-1,0.7-0.9
		c0.1,0.1,0.2,0,0.2-0.1C134.8,117.6,135.1,117.6,135.3,117.8 M276.8,117.8c0,0.1,0.1,0.1,0.2,0.1c0.2-0.1,0.7,0.3,0.6,0.5
		c0,0.1,0,0.2,0.1,0.2c0.1,0,0.1,0.2,0.1,0.5c-0.1,0.3,0,0.5,0.1,0.5c0.1,0,0.2,0.8,0.2,1.8c0,1.2-0.1,1.8-0.2,1.8
		c-0.1,0-0.1,0.2-0.1,0.5c0.1,0.3,0,0.5-0.1,0.5c-0.1,0-0.1,0.1-0.1,0.2c0.1,0.3-0.4,0.7-0.9,0.7c-0.6,0-1.2-0.5-1.1-0.9
		c0.1-0.2,0-0.3,0-0.3c-0.1,0-0.1-1.1-0.1-2.4s0-2.4,0.1-2.4c0,0,0.1-0.2,0.1-0.4c0-0.5,0.4-1,0.7-0.8c0.1,0,0.2,0,0.2-0.1
		c0-0.1,0.1-0.2,0.2-0.2C276.8,117.7,276.8,117.7,276.8,117.8 M159.3,118.3c0.2,0.2,0.3,0.8,0.3,1.3v0.9l-1.3,0H157V120
		c0-0.3,0.1-0.5,0.2-0.4c0.1,0.1,0.1,0,0.1-0.3C157,118.2,158.7,117.4,159.3,118.3 M203.4,118.3c0.1,0.2,0.2,0.7,0.3,1.2l0,0.9
		l-1.3,0l-1.3,0l0.1-0.9c0.1-0.8,0.3-1.3,0.7-1.6C202.2,117.8,203.2,117.9,203.4,118.3 M248.8,118.2c0.2,0.2,0.3,0.5,0.3,0.6
		c-0.1,0.1,0,0.2,0.1,0.2c0.1,0,0.1,0.2,0.1,0.7c-0.1,0.4,0,0.7,0.1,0.7c0.1,0,0.2,0.6,0.2,1.4c0,0.9-0.1,1.4-0.2,1.4
		c-0.1,0-0.1,0.2-0.1,0.6c0.1,0.4,0,0.6-0.1,0.6c-0.1,0-0.2,0.1-0.2,0.2c0.1,0.8-0.8,1.3-1.6,0.8c-0.3-0.2-0.5-0.4-0.5-0.6
		c0-0.2-0.1-0.3-0.1-0.3c-0.1,0-0.1-0.2-0.1-0.5c0.1-0.3,0-0.5-0.1-0.5c-0.1,0-0.2-0.6-0.2-1.8c0-1.1,0.1-1.8,0.2-1.8
		c0.1,0,0.1-0.2,0.1-0.4C246.4,118.2,248,117.3,248.8,118.2 M265.9,118.1c0.4,0.4,0.6,0.8,0.6,1.2c0.1,2.1,0.2,4.3,0,4.5
		c-0.1,0.1-0.1,0.4-0.1,0.6c0.1,0.2,0,0.4-0.1,0.4c-0.1,0-0.2,0.1-0.1,0.2c0.2,1-1.9,0.8-2.2-0.3C263,121.2,264.3,116.5,265.9,118.1
		 M294.9,118.3c0.1,0.2,0.2,0.4,0.3,0.4c0,0,0.1,0.5,0.1,1l0,0.9H294l-1.3,0V120c0-0.3,0.1-0.5,0.2-0.4c0.1,0.1,0.1,0,0.1-0.3
		C292.7,118.2,294.4,117.3,294.9,118.3 M375.2,122.8c0,2-1.4,3.5-3,3.1c-1.1-0.2-1.4-2.5-0.3-3.4c0.3-0.3,0.5-0.4,0.5-0.4
		c0,0.1,0.1,0,0.2-0.1c0.1-0.1,0.3-0.1,0.5-0.1c0.1,0.1,0.3,0,0.4-0.1c0.1-0.1,0.5-0.2,0.9-0.2h0.8V122.8"/>
	<path id="path2" class="st0" d="M47.9,0.1c-0.3,0-1.4,0.2-2.5,0.3c-2.7,0.3-2.7,0.4-1.7,2.8c0.1,0.1,0.1,0.3,0.1,0.4
		c0,0.1,0.1,0.2,0.1,0.3C44,3.9,44,4,44,4c0,0.1,0.1,0.1,0.1,0.1c0.1,0,0.2,0.1,0.1,0.1c0,0.1,0,0.2,0,0.3c0,0.1,0.1,0.2,0.1,0.3
		c0,0.1,0.2,0.5,0.4,0.9c0.2,0.4,0.3,0.9,0.3,1c-0.1,0.1,0,0.2,0.1,0.2c0.1,0,0.1,0.1,0.1,0.2c-0.1,0.1,0,0.2,0,0.2
		c0.1,0,0.5,0.8,0.8,1.7c0.4,0.9,1.4,2.9,2.2,4.5c0.8,1.6,1.8,3.3,2.1,3.9c0.3,0.6,0.7,1.2,0.8,1.3c0.1,0.1,0.2,0.3,0.2,0.5
		c0,0.1,0.1,0.2,0.2,0.2c0.1,0,0.2,0.2,0.3,0.4c0.1,0.2,0.3,0.7,0.5,1c0.2,0.4,0.4,0.8,0.4,0.9s0.1,0.2,0.1,0.2
		c0.1,0,2.2,3.5,2.2,3.6c0,0,0,0.1,0.1,0.2c0.1,0.1,1.3,2.2,4.2,7.5c0.3,0.6,1,1.9,1.5,3c0.5,1.1,0.9,2,1,2c0.1,0.1,0.2,0.3,0.2,0.5
		c0,0.2,0.1,0.4,0.2,0.4s0.1,0.1,0.1,0.3c-0.1,0.1,0,0.3,0,0.3c0.2,0,1.1,3,1,3.3c0,0.1,0,0.2,0.1,0.2c0.1,0,0.1,0.2,0.1,0.4
		c-0.1,0.3,0,0.4,0.1,0.4c0.1,0,0.2,0.2,0.1,0.6c-0.1,0.4,0,0.6,0.1,0.6c0.1,0,0.1,0.4,0.1,1.1c-0.1,0.7-0.1,1.1,0.1,1.1
		c0.1,0,0.2,0.4,0.2,0.8c0,0.6-0.1,0.8-0.2,0.7c-0.1-0.1-0.2,0.2-0.1,1c0.1,0.8,0.1,1.1-0.1,1.1c-0.1,0-0.2,0.2-0.1,0.6
		c0.1,0.3,0,0.6-0.1,0.7c-0.1,0.1-0.1,0.3-0.1,0.4s0,0.3-0.1,0.3c-0.1,0-0.2,0.3-0.2,0.6c0,0.3-0.1,0.7-0.2,0.7
		c-0.1,0.1-0.2,0.2-0.1,0.3c0.1,0.1,0,0.2-0.1,0.3c-0.1,0.1-0.1,0.2-0.1,0.3c0.1,0.1,0,0.2-0.1,0.2c-0.1,0-0.1,0.1-0.1,0.3
		c0.1,0.1,0,0.3-0.1,0.3c-0.1,0-0.2,0.1-0.2,0.3c0,0.4-2,4.1-2.5,4.6c-0.2,0.2-0.3,0.4-0.3,0.4c0,0-0.3,0.5-0.8,1
		c-0.5,0.5-0.9,1-0.8,1.1c0.2,0.2,3.5-1.8,4.8-2.8c0.3-0.3,0.6-0.4,0.6-0.4c0,0.1,0.1,0,0.2-0.1c0.3-0.3,1.7-1.5,1.9-1.5
		c0.1,0,0.6-0.4,1.4-1.3c0.2-0.2,0.5-0.4,0.5-0.4c0.1,0,5-4.9,5.7-5.8c0.3-0.3,0.6-0.7,0.7-0.8c0.1-0.2,0.6-0.7,0.9-1.3
		c0.4-0.5,0.8-1,0.9-1.1c0.1,0,0.2-0.1,0.1-0.2c0-0.1,0-0.2,0.2-0.3c0.2-0.1,0.2-0.2,0.2-0.2c-0.1,0,0.3-0.6,0.7-1.3
		c0.8-1.2,3-5.4,3-5.7c0-0.1,0.1-0.2,0.2-0.2c0.1,0,0.1,0,0.1-0.1c-0.1-0.1,0-0.3,0.1-0.5c0.1-0.2,0.2-0.4,0.2-0.4
		c0,0,0.1-0.4,0.3-0.7c0.3-0.7,1.1-3.3,1.2-4.2c0.1-0.3,0.2-0.6,0.2-0.6s0.1-0.2,0-0.4c0-0.2,0-0.4,0.1-0.4c0.1,0,0.1-0.2,0.1-0.5
		c-0.1-0.3,0-0.5,0.1-0.5c0.1,0,0.2-0.2,0.1-0.7c-0.1-0.4,0-0.7,0.1-0.7c0.1,0,0.1-0.4,0.1-1.1c-0.1-0.8,0-1.1,0.1-1.1
		c0.1,0,0.2-0.4,0.2-1.3c0-0.8-0.1-1.3-0.2-1.3c-0.1,0-0.2-0.3-0.1-1c0.1-0.7,0-1-0.1-1c-0.1,0-0.1-0.2-0.1-0.7
		c0.1-0.4,0-0.7-0.1-0.7c-0.1,0-0.1-0.2-0.1-0.4c0.1-0.3,0-0.4-0.1-0.4c-0.1,0-0.2-0.2-0.1-0.4c0-0.2,0-0.4-0.1-0.4
		c-0.1,0-0.1-0.1-0.1-0.3c0-0.2,0-0.3,0-0.4c-0.1,0-0.3-0.6-0.5-1.3c-0.2-0.7-0.6-1.7-0.9-2.4c-0.3-0.6-0.5-1.2-0.5-1.2
		c0.1-0.1,0-0.1-0.1-0.1c-0.1,0-0.2-0.1-0.1-0.2c0.1-0.1,0-0.2-0.1-0.2s-0.2-0.1-0.2-0.3c0-0.1-0.1-0.3-0.2-0.3s-0.1,0-0.1-0.1
		c0.1-0.1,0-0.2-0.2-0.4s-0.4-0.5-0.5-0.8c-0.1-0.3-0.3-0.5-0.3-0.5c0,0-0.3-0.3-0.5-0.7c-0.5-0.7-0.6-0.9-2.2-2.5
		c-1.4-1.4-1.9-1.9-2.9-2.6c-0.4-0.3-0.7-0.6-0.7-0.6c0-0.1-0.1-0.1-0.2-0.1c-0.1,0.1-0.2,0-0.3-0.2c-0.1-0.1-0.2-0.2-0.2-0.2
		c-0.1,0-0.2,0-0.3-0.2C71.1,5.2,71,5.2,71,5.3c0,0.1,0,0.1-0.1,0c-0.2-0.2-0.9-0.7-2.5-1.5C67.6,3.4,66.9,3,66.9,3
		c0-0.1-0.1-0.1-0.2,0c-0.1,0-0.5-0.1-0.9-0.3c-0.4-0.2-0.9-0.3-0.9-0.3c-0.1,0-0.1-0.1-0.1-0.2c0-0.1-0.1-0.1-0.3-0.1
		c-0.1,0.1-0.3,0-0.3-0.1s-0.1-0.1-0.2-0.1c-0.1,0.1-0.3,0-0.3-0.1c-0.1-0.1-0.2-0.1-0.3-0.1c-0.1,0.1-0.2,0-0.2-0.1
		s-0.1-0.1-0.2-0.1c-0.1,0.1-0.3,0-0.4-0.1c-0.1-0.1-0.3-0.1-0.4-0.1c-0.1,0.1-0.2,0-0.3-0.1c-0.1-0.1-0.2-0.1-0.3-0.1
		c-0.1,0-0.3,0-0.3-0.1C61,1.1,60.9,1,60.8,1.1c-0.1,0-0.3,0-0.4-0.1C59.9,0.5,50.2-0.2,47.9,0.1 M39.2,1.5c0,0.1-0.2,0.1-0.3,0.1
		c-0.2-0.1-0.3,0-0.3,0.1s-0.2,0.1-0.3,0.1c-0.2-0.1-0.3,0-0.3,0.1c0,0.1-0.1,0.2-0.3,0.1c-0.1-0.1-0.3,0-0.3,0.1s-0.1,0.1-0.2,0.1
		c-0.1-0.1-0.3,0-0.4,0.1c-0.1,0.1-0.2,0.1-0.3,0.1c-0.1,0-0.2,0-0.2,0.1c0,0.1-0.1,0.1-0.3,0.1c-0.2-0.1-0.3,0-0.3,0.1
		c0,0.1-0.1,0.2-0.2,0.2c-0.2,0-4.4,1.6-5.4,2C29.4,4.9,29,5,29,5c-0.1,0-0.1,0.1-0.1,0.2c0,0.1-0.1,0.1-0.2,0.1
		c-0.1-0.1-0.2,0-0.2,0.1c0,0.1-0.1,0.1-0.2,0.1c-0.1-0.1-0.2,0-0.2,0.1S28.1,5.6,28,5.6c-0.1-0.1-0.2,0-0.2,0.1
		c0,0.1-0.1,0.1-0.2,0.1c-0.1-0.1-0.2,0-0.2,0.1c0,0.1-0.1,0.1-0.2,0.1c-0.1-0.1-0.2,0-0.2,0c0,0.1-1,0.6-1.3,0.6
		c-0.1,0-0.3,0.1-0.4,0.2c-0.1,0.1-0.3,0.2-0.4,0.1C25,6.8,25,6.9,25.1,7c0.1,0.1,0.1,0.2,0,0.2s-0.8,0.4-1.6,0.9
		C22.6,8.6,22,8.9,22,8.9c0-0.1-0.1,0-0.2,0.2c-0.1,0.2-0.2,0.3-0.3,0.2c-0.1,0-0.2,0-0.2,0.2c-0.1,0.1-0.2,0.2-0.3,0.2
		c-0.1-0.1-0.2,0-0.2,0.1c0,0.1-0.4,0.4-0.9,0.7c-0.5,0.3-0.9,0.6-1,0.6s-0.4,0.3-0.8,0.6c-0.4,0.3-0.7,0.5-0.7,0.6
		c0,0.1-0.1,0.2-0.3,0.3c-0.2,0.1-0.5,0.3-0.7,0.5c-0.2,0.2-0.4,0.4-0.5,0.3c-0.1,0-0.2,0.1-0.4,0.3c-0.1,0.2-0.3,0.4-0.4,0.4
		c-0.2,0-5.6,5.5-5.6,5.7c0,0.1-0.2,0.3-0.4,0.5s-0.4,0.4-0.4,0.5c0,0.1-0.2,0.3-0.4,0.6c-0.2,0.2-0.8,1.1-1.4,1.9
		c-0.5,0.8-1,1.5-1.1,1.5c-0.1,0-0.1,0.2-0.1,0.3c0,0.1-0.1,0.2-0.2,0.2s-0.1,0.1-0.1,0.2c0.1,0.1,0,0.2-0.1,0.2
		c-0.1,0-0.2,0.1-0.2,0.3S5.3,26,5.2,26S5,26.1,5.1,26.2c0.1,0.1,0,0.2,0,0.2c-0.1,0-0.5,0.8-1,1.8c-0.5,1-1,1.8-1,1.8
		s-0.1,0.1-0.1,0.1c0.1,0.2-0.2,1.2-0.4,1.2c-0.1,0-0.1,0.1-0.1,0.2c0,0.1,0,0.4-0.2,0.5c-0.1,0.1-0.2,0.3-0.2,0.4
		c0.1,0.1,0,0.2-0.1,0.2s-0.2,0.1-0.1,0.3c0.1,0.1,0,0.3-0.1,0.3c-0.1,0-0.1,0.1-0.1,0.3c0.1,0.1,0,0.3-0.1,0.3
		c-0.1,0-0.2,0.1-0.1,0.2c0,0.1-0.1,0.4-0.2,0.7c-0.1,0.3-0.2,0.7-0.3,1S1,36.1,1,36.2c0,0-0.1,0.2-0.1,0.3c0,0.1-0.1,0.3-0.1,0.4
		c-1,2.4-0.9,12.3,0.2,14.1C1,51,1.1,51.2,1.1,51.3c0,0.4,0.4,1.6,0.6,1.7c0.1,0,0.2,0.3,0.2,0.5S2,54,2,54c0,0,0,0.1,0,0.2
		c0,0.1,0.1,0.1,0.2,0.1c0.1,0,0.1,0.1,0.1,0.2s0,0.2,0.1,0.2c0.1,0,0.1,0.1,0.1,0.2c-0.1,0.1,0,0.2,0,0.2c0.1,0,0.4,0.5,0.7,1.1
		C3.9,57.6,4.8,59,5,59c0.1,0,0.1,0.1,0.1,0.2s0.1,0.3,0.3,0.4C5.6,59.7,5.9,60,6,60.2c0.3,0.6,2.3,2.6,2.9,2.9
		c0.2,0.1,0.5,0.3,0.5,0.5s0.2,0.3,0.3,0.3c0.1,0,0.3,0.1,0.3,0.3c0.1,0.1,0.2,0.3,0.3,0.3c0.1,0,0.4,0.2,0.6,0.4
		c0.2,0.2,0.6,0.4,0.7,0.4c0.1,0,0.2,0.1,0.2,0.2c0,0.1,0.1,0.2,0.1,0.2s0.9,0.4,1.8,0.9c0.9,0.5,1.7,0.9,1.8,0.9
		c0.1,0,0.4,0.1,0.7,0.3c0.3,0.2,0.7,0.3,0.9,0.4c0.2,0,0.4,0.1,0.4,0.2c0.1,0.1,4.1,1.3,4.4,1.3c0.1,0,0.2,0.1,0.2,0.2
		c0,0.1,0.2,0.1,0.4,0.1c0.3-0.1,0.4,0,0.4,0.1c0,0.1,0.2,0.1,0.4,0.1s0.4,0,0.4,0.1c0,0.1,0.2,0.1,0.4,0.1c0.2-0.1,0.5,0,0.7,0.1
		c0.1,0.1,0.4,0.1,0.6,0.1s0.5,0,0.6,0.1c0.1,0.1,0.5,0.1,0.8,0.1c0.3-0.1,0.7,0,0.8,0c0.3,0.2,8,0.2,8.3,0c0.1-0.1,0.5-0.1,0.8-0.1
		c0.4,0.1,0.7,0,1-0.1l0.4-0.3l-0.4,0c-0.6,0-4-0.9-4.1-1.1c-0.1-0.1-0.2-0.1-0.3-0.2c-0.4,0-1.1-0.3-1.1-0.4c0-0.1-0.1-0.1-0.2-0.1
		s-0.2,0-0.2-0.1c0-0.1-0.1-0.1-0.2-0.1c-0.1,0.1-0.2,0-0.2-0.1s-0.1-0.1-0.2-0.1c-0.1,0.1-0.2,0-0.2-0.1c0-0.1-0.1-0.1-0.1-0.1
		c-0.1,0.1-0.2,0-0.4-0.2c-0.1-0.1-0.3-0.2-0.4-0.2c-0.3,0-3.2-2-3.6-2.5c-0.2-0.3-0.5-0.5-0.6-0.5c-0.1,0-0.5-0.4-0.9-0.9
		c-0.4-0.5-0.9-1.2-1.3-1.5c-0.3-0.4-0.6-0.7-0.6-0.8c0-0.1-0.1-0.2-0.3-0.2c-0.1-0.1-0.3-0.2-0.3-0.2c0-0.1-0.3-0.7-0.7-1.3
		c-0.6-1-1-1.8-1.8-3.9c-0.1-0.2-0.1-0.4-0.2-0.5c0-0.1,0-0.1-0.1-0.2c0,0-0.1-0.3-0.1-0.6c0-0.3-0.2-0.6-0.2-0.7
		c-0.1-0.1-0.1-0.2-0.1-0.4c0.1-0.1,0-0.3-0.1-0.4c-0.1-0.1-0.1-0.3-0.1-0.4c0.1-0.2,0-0.4-0.1-0.4c-0.1-0.1-0.1-0.3-0.1-0.6
		s0-0.5-0.1-0.6c-0.1-0.1-0.1-0.5-0.1-1.2c0.1-0.8,0-1.1-0.1-1.3c-0.2-0.2-0.2-0.3,0-0.4c0.2-0.1,0.2-0.4,0.1-1.3
		c-0.1-0.8,0-1.2,0.1-1.3c0.1-0.1,0.1-0.3,0.1-0.6c-0.1-0.3,0-0.5,0.1-0.6c0.1-0.1,0.1-0.3,0.1-0.4c-0.1-0.2,0-0.4,0.1-0.4
		s0.1-0.2,0.1-0.4c-0.1-0.2,0-0.4,0.1-0.4c0.1-0.1,0.1-0.2,0.1-0.3c-0.1-0.1,0-0.3,0.1-0.4c0.1-0.1,0.4-0.8,0.6-1.6
		c0.6-1.7,1.4-3.7,1.6-3.7c0.1,0,0.1-0.1,0.1-0.1C22.1,36.2,23,34,23.2,34c0.1,0,0.1-0.1,0.1-0.2c-0.1-0.1,0-0.2,0-0.2
		s0.6-1,1.3-2.3c0.6-1.2,1.2-2.2,1.3-2.2c0.1,0,0.1-0.1,0.1-0.2c0-0.1,0.3-0.7,0.7-1.4c0.4-0.6,1.2-2,1.8-3.1c0.6-1.1,1.2-2,1.3-2.2
		c0.1-0.1,0.2-0.3,0.2-0.5c0-0.1,0.1-0.2,0.2-0.2c0.1,0,0.1-0.1,0.1-0.2s0-0.2,0-0.2c0.1,0,0.3-0.3,0.4-0.6c2.1-3.8,2.8-5,3-5.2
		c0.1-0.1,0.1-0.2,0.1-0.2c-0.1,0,0-0.1,0.1-0.1c0.1-0.1,0.7-1.1,1.2-2.2c0.6-1.1,1.1-2.1,1.2-2.1s0.1-0.1,0.1-0.2
		c-0.1-0.1,0-0.2,0.1-0.2c0.1,0,0.1-0.1,0.1-0.1c0-0.1,0.1-0.5,0.4-1c0.2-0.5,0.4-1,0.4-1c0-0.1,0.1-0.1,0.1-0.1s0.1-0.1,0.1-0.2
		c-0.1-0.1,0-0.2,0.1-0.2c0.1,0,0.2-0.2,0.3-0.5c0.2-0.6,0.1-0.5,0.4-1.2c0.3-0.6,1.6-4.5,1.6-4.6c0-0.1-0.2-0.1-0.3-0.1
		C39.3,1.4,39.2,1.4,39.2,1.5 M40,25.4c0,0.1-0.4,0.2-0.8,0.2c-1,0.1-3.4,0.9-3.4,1.1c0,0.1-0.1,0.1-0.2,0c-0.1-0.1-0.2,0-0.2,0.1
		c0,0.1-0.1,0.1-0.2,0.1c-0.1-0.1-0.2,0-0.2,0.1s-0.1,0.2-0.3,0.2c-0.1,0-0.3,0.1-0.3,0.2c0,0.1-0.1,0.2-0.2,0.2
		c-0.4,0-3.7,3.2-3.7,3.7c0,0.1-0.1,0.2-0.1,0.2c-0.1,0-0.2,0.2-0.3,0.4c-0.1,0.2-0.2,0.4-0.3,0.4c-0.1,0-0.1,0.1-0.1,0.2
		c0.1,0.1,0,0.2-0.1,0.2s-0.1,0.1-0.1,0.2c0.1,0.1,0,0.2-0.1,0.2s-0.2,0.1-0.1,0.1c0,0.1-0.1,0.3-0.2,0.6c-1.1,2.6-1,7.1,0.1,9.3
		c0.2,0.3,0.3,0.7,0.2,0.7s0,0.1,0.1,0.1s0.2,0.1,0.2,0.1c0,0.3,0,0.5,0.2,0.7c0.3,0.3,1.2,2.3,1.2,2.5c0,0.1,0,0.1,0.1,0.1
		c0.1,0,0.1,0.1,0.1,0.2s0,0.2,0,0.2c0.2,0.1,2.2,3.6,2.2,3.8c0,0.1,0.1,0.2,0.2,0.2c0.1,0,0.1,0.1,0.1,0.2c-0.1,0.1,0,0.2,0.1,0.2
		c0.5,0.2,4.8,8.6,5.7,11.1c0.3,0.8,0.5,1.6,0.6,1.7c0,0.1,0.1,0.2,0.1,0.3c0,0.1,0.1,0.3,0.2,0.4c0.1,0.1,0.1,0.2,0,0.2
		c-0.1,0,0,0.1,0.1,0.2c0.1,0.1,0.2,0.3,0.1,0.4c-0.1,0.1,0,0.2,0.1,0.2c0.1,0,0.2,0.1,0.1,0.2c-0.1,0.1,0,0.3,0.1,0.3
		c0.1,0.1,0.1,0.2,0.1,0.4c-0.1,0.2,0,0.2,0.2,0c0.1-0.2,0.3-0.4,0.3-0.5c0-0.4,1.4-4.3,1.5-4.4c0.1,0,0.1-0.1,0.1-0.2
		c-0.1-0.1,0-0.2,0.1-0.2c0.1,0,0.1-0.1,0.1-0.2c0-0.1,0-0.3,0.2-0.5c0.1-0.1,0.2-0.3,0.2-0.3c-0.1-0.1,3.1-6.2,3.4-6.4
		c0.2-0.1,0.2-0.2,0.1-0.2c-0.1,0,0.4-1,0.7-1.3c0.1-0.1,0.2-0.3,0.2-0.4c0-0.1,0.1-0.2,0.2-0.3c0.2-0.1,4.3-7.5,4.7-8.7
		c0.2-0.5,0.4-0.9,0.4-0.9c0,0,0.1-0.2,0.1-0.3c0-0.5,0.3-1.6,0.4-1.6c0.1,0,0.1-0.2,0-0.4c0-0.2,0-0.4,0.1-0.4c0.2,0,0.2-3.7,0-3.8
		c-0.1,0-0.1-0.4-0.2-0.9c0-0.4-0.1-0.8-0.2-0.8c-0.1,0-0.1-0.1,0-0.3c0.1-0.1,0-0.3-0.1-0.3c-0.1,0-0.1-0.1-0.1-0.3
		c0.1-0.1,0-0.3,0-0.3c-0.1,0-0.3-0.4-0.5-0.9c-0.2-0.5-0.7-1.3-1-1.8c-0.4-0.5-0.7-0.9-0.7-0.9c0-0.1-1.5-1.5-1.6-1.5
		c0,0-0.2-0.1-0.4-0.3c-0.8-1-4.6-2.6-6-2.6c-0.2,0-0.4-0.1-0.4-0.1c0-0.1-0.7-0.1-1.6-0.1C40.7,25.2,40,25.3,40,25.4"/>
</g>
<g id="Layer_2">
	<path id="path1" class="st1" d="M161.4,43.6c-0.2,0.1-1.7,0.7-3.4,1.2l-3,1V66v20.2h3.8h3.8l0-7.1l0-7.1l4.5,4.6
		c2.5,2.5,5.6,5.7,7,7.1l2.5,2.5h4.9c2.7,0,4.9,0,4.9-0.1c0-0.1-12.3-12.3-15.7-15.7c-1.7-1.7-1.7-1.4-0.1-2.8
		c0.7-0.6,1.9-1.7,2.6-2.4c0.7-0.7,1.6-1.4,2-1.7c0.4-0.3,0.9-0.8,1.2-1.1c0.3-0.3,1.3-1.2,2.2-1.9s1.9-1.7,2.3-2.1
		c0.4-0.4,1.1-1.1,1.6-1.4c1.3-0.9,2.8-2.5,2.7-2.7c-0.1-0.1-1.8-0.2-4.7-0.2h-4.6l-1,0.9c-0.6,0.5-3.1,2.7-5.6,5s-5.1,4.5-5.6,5
		l-1,0.9V54.6V43.3h-0.4C161.9,43.3,161.6,43.4,161.4,43.6 M83.2,65.5v20.7l9.2-0.1c10-0.1,10.7-0.1,13.7-1.1c2.8-0.9,6-3,7.3-4.9
		c0.4-0.5,0.8-1,0.9-1.1c1.3-1.1,3.1-6.7,3.4-10.5c0.1-0.9,0.2-1.7,0.2-1.7c0.2-0.1,0.2-3.2,0-3.3c-0.1,0-0.2-0.9-0.2-1.8
		c-0.2-4-1.7-8.9-3.2-10.5c-0.1-0.1-0.5-0.6-0.9-1.1c-0.7-0.9-2-2-2.8-2.4c-0.3-0.1-0.7-0.4-0.8-0.6c-2.1-1.9-6.2-2.5-17.8-2.5l-9,0
		V65.5 M101.1,50.7c0.7,0.1,1.4,0.3,1.5,0.4s0.3,0.2,0.5,0.2c1.2,0,4.1,2.2,5.1,3.9c2.9,4.8,2.9,15.5,0.1,20
		c-0.2,0.4-0.5,0.8-0.6,1.1c-0.6,1.2-3.5,2.9-5.7,3.5c-0.6,0.2-1.3,0.4-1.5,0.5c-0.2,0.1-2.1,0.2-5,0.2l-4.7,0.1v-15v-15l4.5,0
		C98.4,50.5,100.2,50.6,101.1,50.7 M128.6,53.7c-2.4,0.3-3,0.5-3.2,1.1c-0.1,0.2-0.3,0.8-0.5,1.3c-0.6,1.2-1.6,3.9-1.5,4
		c0.1,0.1,0.8,0,1.7-0.2c4.2-0.7,10.6-0.9,12.9-0.4c2.5,0.5,3,1.2,3.1,4.4l0.1,2.1l-5,0.1c-8.9,0.2-12.3,1.2-14.5,4.5
		c-0.3,0.4-0.6,0.8-0.7,0.9c-0.9,0.9-1.2,5.7-0.6,8.1c1.7,6.7,8,8.4,25.2,6.8l3-0.3l-0.1-12.4c-0.1-13.8,0-13.1-1.2-15.4
		c-1.3-2.5-4.1-4.1-8.2-4.6C137.3,53.4,130.4,53.5,128.6,53.7 M196,53.7c-1.5,0.3-3,0.8-3,0.9c0,0.1-0.1,0.1-0.2,0.1
		c-1.6,0-5.2,3.2-6.9,6.1c-2.8,4.9-2.8,13.6,0,18.3c0.4,0.7,0.8,1.4,0.9,1.6c0.2,0.5,2.1,2.5,2.3,2.5c0.1,0,0.5,0.3,0.9,0.7
		c2.7,2.4,8.4,3.5,13.4,2.5c8.3-1.6,13.6-10.3,12-20.1c-0.3-1.8-0.9-4-1.1-4c-0.1,0-0.1-0.1-0.1-0.2c0-0.4-1.1-2.3-1.9-3.4
		C209.2,54.8,202.2,52.6,196,53.7 M202.7,59.8c1.7,0.6,3,1.7,3.8,3.3c0.2,0.4,0.4,0.8,0.5,0.8c1.8,1.3,1.4,10.5-0.5,13.6
		c-2.5,3.9-8,5.3-11.2,2.7c-1.1-0.9-1.5-1.3-1.9-1.9c-0.3-0.4-0.6-0.8-0.7-0.9c-1.1-1.2-1.8-7.2-1.2-10.6
		C192.7,60.8,197.3,57.9,202.7,59.8 M28.5,70.8c0.2,0,0.5,0,0.7,0c0.2,0,0-0.1-0.4-0.1S28.3,70.7,28.5,70.8 M34.3,70.8
		c0.2,0,0.5,0,0.8,0c0.2,0,0-0.1-0.4-0.1C34.3,70.7,34.1,70.7,34.3,70.8 M141.2,76.3V81l-0.5,0.1c-0.3,0.1-1.7,0.1-3.1,0.2
		c-7.1,0.3-9.9-1.1-9.9-5c0-3.5,2.2-4.5,10-4.6l3.5,0V76.3"/>
</g>
</svg>
