<svg id="dako" xmlns="http://www.w3.org/2000/svg" width="110" height="92" viewBox="0 0 110 92">
  <defs>
    <style>
      .cls-1 {
        fill: #fff;
        fill-rule: evenodd;
      }
    </style>
  </defs>
  <title>dako</title>
  <g>
    <g id="svg">
      <path id="path0" class="cls-1" d="M86.19,57s-.07,0-.13.06a.19.19,0,0,0-.13,0s-.1.08-.18.13a1,1,0,0,0-.37.65.92.92,0,0,1,0,.18s0,.11,0,.27,0,.23,0,.15,0,.16,0,.6a4.21,4.21,0,0,0,0,.6c0-.07,0,0,0,.19s0,.28,0,.28a.74.74,0,0,1,.07.29,1.15,1.15,0,0,0,1.52.89c.26,0,.71-.29.71-.37a.79.79,0,0,1,0-.15l0-.16s0,0,0,0,.05,0,.05-.08,0-.19,0-.34l0-.26h-.57l0,.23c-.08.65-.52.86-1.12.55-.06,0-.13-.18-.24-.5a9.36,9.36,0,0,1,0-2.24.45.45,0,0,0,0-.08.74.74,0,0,1,.84-.53c.23,0,.47.24.44.37s0,.08,0,.05,0,.06,0,.16v.18h.58v-.26a.49.49,0,0,0-.06-.29.08.08,0,0,1,0-.05.09.09,0,0,0-.06-.1l-.05-.08c.11,0-.36-.34-.49-.37l-.08,0a3.2,3.2,0,0,0-.87,0m-60.7.45a4.93,4.93,0,0,1-.18.47s0,0,0,.08,0,0,0,0,0,0,0,.08,0,.07,0,.07,0,0,0,.08a.05.05,0,0,1,0,.08s-.06,0,0,.08a0,0,0,0,1,0,.08s0,0,0,.05v.08s0,0,0,0a.64.64,0,0,1-.05.16c0,.08-.11.34-.18.57s-.16.45-.19.42,0,0,0,0a1.09,1.09,0,0,1-.15.52s0,0,0,.08,0,.08,0,.08,0,0,0,.08,0,.07,0,.07-.05.06-.05.11a.58.58,0,0,1-.05.21s-.05.13,0,.13a.15.15,0,0,1,0,.08c-.08.1,0,.13.29.13s.26,0,.26-.08a0,0,0,0,1,0-.08s0,0,0-.05a1.36,1.36,0,0,1,.16-.55s0,0,0-.08,0-.05,0-.05,0,0,0-.08.11-.08.89-.08c1,0,.94,0,1,.18s0,.06,0,.08v.08a.9.9,0,0,0,.08.24c.05.1.08.21.05.23s0,0,0,0,.05,0,0,.08,0,.08.29.08h.29l-.06-.21c0-.1-.05-.21,0-.23s0,0,0,0-.05,0,0-.08,0-.08,0-.08a1.52,1.52,0,0,1-.16-.39c-.08-.21-.13-.44-.16-.52l-.05-.13a.07.07,0,0,0,0-.05.06.06,0,0,1,0-.08s0,0,0,0,0,0,0-.08a.05.05,0,0,0,0-.08s0,0,0-.08a0,0,0,0,0,0-.08s0,0,0-.08A0,0,0,0,0,27,59s0,0,0-.06,0-.08,0-.08a.06.06,0,0,1,0-.05.13.13,0,0,0,0-.08.07.07,0,0,1,0-.07s0-.06,0-.06,0,0,0-.08,0-.07,0-.07a1.71,1.71,0,0,1-.21-.66s0-.05,0-.05-.08-.16-.13-.34C26.38,57,26.4,57,26,57H25.7l-.21.42m26.05-.11v.32h1v3.6h.88v-3.6h.95V57H51.54v.31m-17.87-.15c0,.07-.05.13-.08.13s0,0,0,0,0,.08,0,.1a.09.09,0,0,0,0,.06s0,0,0,.07-.06.08,0,.11,0,0,0,.08-.1.31-.21.62-.18.61-.18.61,0,.07,0,.15,0,.13,0,.13,0,.05,0,.11,0,.08,0,.08-.06,0-.06.13,0,.15-.05.15a.27.27,0,0,0,0,.16.27.27,0,0,1-.05.16s0,.05,0,.07,0,.08,0,.08a.1.1,0,0,0,0,.08s0,0,0,0a0,0,0,0,0,0,.06,0,0,0,0,1,0,.07.13.13,0,0,0,0,.08s0,.08,0,.11a.06.06,0,0,0,0,.05s0,0,0,0a1.78,1.78,0,0,0-.08.18,1.08,1.08,0,0,0,0,.19c0,.05,0,.08.37.08s.52,0,.49-.13,0-.08,0-.08,0-.08,0-.16a.37.37,0,0,1,.06-.21s0-.08,0-.08,0,0,0-.08,0-.07,0-.1v-.1c0-.06.19-.06.68-.06s.68,0,.66.08a.05.05,0,0,0,0,.08s0,0,0,.1,0,.11,0,.08,0,0,0,.08v.11s.05.1.08.23l0,.24h.89V61c0-.08,0-.16,0-.16s0-.05,0-.08,0-.07,0,0a6.5,6.5,0,0,1-.36-1.23.24.24,0,0,0,0-.07v-.06s0,0-.05-.1l0,0a.12.12,0,0,0,0-.06s-.06-.07,0-.1,0,0,0-.08a.11.11,0,0,1,0-.08s0-.05,0-.05,0,0,0-.08,0-.08,0-.08,0,0,0-.05,0-.08,0-.08a.08.08,0,0,1,0-.08s0,0,0,0,0-.05,0-.08V58.3c-.05,0-.08-.24,0-.27s0,0,0,0-.08,0-.06-.08,0-.08,0-.08,0-.05,0-.08v-.08s0-.1-.1-.26l-.06-.26H33.56l.11,0m5.85.15v.32h.84V57h-.84v.31m1.54,1.83v2.12h.84V57.07H41v2.06m19,0v2.12h.83l0-1.1c0-1.2,0-1.36.24-1.33a.06.06,0,0,0,0,0c0-.06,0-.06.1,0s.08,0,.08,0,.16.16.16,1.28l0,1.18h.84V60.07a9.6,9.6,0,0,0,0-1.23s0-.05,0-.1a.05.05,0,0,0,0-.08s0,0,0,0-.1-.18-.29-.31c0,0-.07,0-.13,0s-.07,0-.1,0a.25.25,0,0,0-.13-.05.22.22,0,0,0-.13.05s-.05,0-.11,0-.08,0-.31.18a.79.79,0,0,1-.18.13,3.58,3.58,0,0,1,0-.78V57H60v2.11m9,0v2.12h.89V57H69v2.11M76.5,57.3v.32h.89V57H76.5v.31M26,57.56s0,.08,0,.08.05,0,0,0v.08a.09.09,0,0,1,0,.06s0,.07.05.15.05.13,0,.16,0,0,0,0,.06,0,0,.08a0,0,0,0,0,0,.08s0,0,0,.08a0,0,0,0,0,0,.07s0,.06,0,.08v.08c.05,0,.13.34.1.39s0,.06,0,.06.05,0,0,.07,0,.08,0,.08,0,0,0,.08a.1.1,0,0,0,0,.08,1,1,0,0,1,.14.42,5,5,0,0,1-.74,0c-.57,0-.73,0-.73,0s.05-.05.08-.05,0,0,0,0a.15.15,0,0,1,0-.11s0-.05,0-.05a.23.23,0,0,0,0-.1s.1-.29.18-.53a1.46,1.46,0,0,1,.18-.44s0,0,0,0,0-.08,0-.08.05,0,0,0a1.22,1.22,0,0,1,.16-.52s0,0,0,0a.09.09,0,0,1,.08-.13c0-.13,0-.11,0-.06m23.29,0c-.06,0-.24.1-.42.15l-.29.11,0,.26,0,.26h-.36v.58h.36v.94a4.42,4.42,0,0,0,0,.94s.06,0,.06.08c0,.26.34.44.86.44s.52,0,.52-.31v-.26l-.13,0a.41.41,0,0,1-.13,0c-.31,0-.34-.05-.34-1V58.9H50v-.58h-.47V57.9c0-.23,0-.41,0-.41a.36.36,0,0,0-.21,0m-14.93.73a.14.14,0,0,1,0,.1s0,.06.05.11,0,.08,0,.1,0,.06,0,.08,0,.05,0,.11,0,.1,0,.13,0,.08,0,.1,0,0,0,.08a.14.14,0,0,1,0,.1c0,.06,0,.08,0,.08s.05,0,0,.08,0,.11,0,.11,0,0,0,.07-.94.11-.94,0,.44-1.78.47-1.83,0,.08.08.24a.84.84,0,0,0,0,.31m2.8-.05s-.05.05-.1.05-.45.23-.42.26a.09.09,0,0,1,0,.08.31.31,0,0,0,0,.1s0,.06,0,.06,0,0,0,.07,0,.08,0,.14a7.32,7.32,0,0,0,0,1.48s0,.08,0,.14,0,.07,0,.07,0,.06.08.11a.73.73,0,0,0,.15.23c.11.11.19.13.45.19a.85.85,0,0,0,.6-.21l.13-.13v.36c0,.37-.08.6-.16.58s-.05,0-.05,0-.18.06-.26,0a.33.33,0,0,1-.11-.21v-.13h-.89l0,.13a.75.75,0,0,1,0,.24.31.31,0,0,0,0,.1s.06.05.08.11c.11.21.39.31,1,.31.76,0,1.08-.18,1.15-.63a.2.2,0,0,1,.06-.15s0-.71,0-1.62V58.27h-.42c-.41,0-.41,0-.41.1s0,.11-.06.11-.05,0-.05,0-.08-.08-.15-.13l-.16-.1s0,0-.08,0-.1,0-.1,0-.21,0-.24,0m6.35,0a.12.12,0,0,1-.13,0h-.1s-.06.06-.14.08c-.41.16-.52.45-.52,1.41,0,1.28.34,1.65,1.39,1.52.36,0,.81-.34.81-.52s0-.11.05-.16,0-.11,0-.16v-.13h-.84l0,.13a.33.33,0,0,1-.31.32c-.16,0-.31-.13-.26-.21a0,0,0,0,0,0-.06s0-.05,0-.07a.09.09,0,0,1,0-.08s0,0,0-.11,0-.1,0,0,0,0,0-.11v-.21h1.57l0-.34a2.92,2.92,0,0,1,0-.44,1.3,1.3,0,0,0,0-.13.12.12,0,0,1,0-.08s0,0,0,0,0,0-.08-.11a1.18,1.18,0,0,0-.39-.41.14.14,0,0,0-.1,0s-.06,0-.06,0-.05-.05-.13-.05l-.31,0c-.1,0-.18,0-.21.06m3.45,0a.48.48,0,0,1-.18.05,2.36,2.36,0,0,0-.29.18l-.18.16,0-.16,0-.15h-.84v2.92h.84v-1.1A6.19,6.19,0,0,1,46.42,59s0,0,0-.05.13-.27.18-.24,0,0,.08,0,0-.05,0,0,.05.06.11,0,.05,0,.05,0,0,.05,0,.05.08-.13.06,1.23v1.15h.88V60c0-1.46-.05-1.62-.44-1.69a.87.87,0,0,0-.16-.06c-.05-.08-.21-.08-.31,0m8.1,0a.15.15,0,0,1-.16,0c-.07,0-.13,0-.13,0s0,0-.07,0a.05.05,0,0,0-.08,0s0,0-.06,0,0,0,0,0-.05.08-.13.13-.13.08-.13.11,0,.21-.1.21,0,0,0,0,0,.08,0,.08a.2.2,0,0,0,0,.1c0,.06,0,.08,0,.08a12.11,12.11,0,0,0,0,1.33c0,.06,0,.11.05.11s0,0,0,.08,0,.08,0,.08a.34.34,0,0,1,.08.26.8.8,0,0,0,.13.1c.73.5,2,.11,2-.63v-.13l-.42,0-.42,0v.16a.29.29,0,0,1-.57.08.09.09,0,0,0,0-.08,2.13,2.13,0,0,1,0-.29l0-.29h1.52l0-.41c0-.68-.24-1.05-.58-1.13,0,0-.1,0-.1,0s0,0-.13,0l-.31,0s-.11,0-.11,0m2.88,0a.12.12,0,0,1-.13,0c-.06,0-.11,0-.11,0s-.05,0-.13,0a.84.84,0,0,0-.42.37c0,.05,0,.1-.08.1s0,0,0,.05,0,.08,0,.08A.18.18,0,0,0,57,59s0,.1,0,.1a6.62,6.62,0,0,0,0,1.26.1.1,0,0,1,0,.13s0,0,0,0,.05,0,.05.08c0,.81,2,.86,2.17.05a.52.52,0,0,1,.05-.13s0-.11,0-.21l0-.21h-.42c-.39,0-.42,0-.42.11,0,.34-.21.6-.42.49s-.23-.21-.2-.26,0-.05,0-.05a5.74,5.74,0,0,1,0-1.31s0-.05,0-.08.18-.28.31-.28.11,0,.11,0,0,0,0,0,.08.08.13.21l.08.21h.78l0-.15c0-.08,0-.16,0-.16s0,0,0-.08a.7.7,0,0,0-.4-.52l-.23-.13s-.08,0-.16,0-.21,0-.34,0-.15,0-.15.06m6.5,0s0,.05-.08.05a.62.62,0,0,0-.41.23l-.13.14v-.32H63v2.93h.84V60.18c0-1.18,0-1.34.23-1.41s.4,0,.37,1.33v1.15h.94l0-1.15a5.46,5.46,0,0,0-.07-1.41s0,0,0,0-.34-.37-.42-.4l-.24,0c-.15,0-.21,0-.21,0m2.46,0a.3.3,0,0,1-.16,0s-.08,0-.08,0a.05.05,0,0,1,0,.05c-.08,0-.47.26-.44.31s0,.05,0,.05c-.18,0-.26,1.41-.13,1.94s.84.86,1.62.65c.29-.08.39-.18.6-.57a6.63,6.63,0,0,0,0-1.78l0-.13c0-.08-.29-.34-.42-.39s-.16-.06-.16-.08,0,0-.13,0-.13,0-.15,0-.32-.16-.42-.08m4.49,0a.27.27,0,0,1-.15,0h-.08a.68.68,0,0,1-.37.13s0,0,0,0,0,0,0,0c-.36,0-.44,1.93-.1,2.45s1.83.45,2-.15c0-.05.06-.11.08-.11s0,0,0-.05,0-.08,0-.1,0-.24,0-.79,0-.73,0-.73,0,0,0-.08v-.1s-.05,0-.05-.11-.1-.15-.42-.41c0,0-.08,0-.1,0s0,0,0,0-.06,0-.13,0-.14,0-.16,0a.68.68,0,0,0-.45.05M74,58.3a.81.81,0,0,0-.44.47,4.26,4.26,0,0,0-.11,1.15,2.49,2.49,0,0,0,0,.65s0,0,0,.08c0,.49,1.07.76,1.31.34.08-.16.13-.11.13.18a.53.53,0,0,1,0,.29s0,0,0,.1,0,.13-.1.21a.28.28,0,0,1-.5-.16l0-.15h-.78l0,.15c0,.5.29.74,1.07.74,1.18,0,1.23-.06,1.23-2.36V58.3h-.39c-.39,0-.39,0-.39.1v.1l-.16-.1a1.2,1.2,0,0,0-.21-.13s-.08,0-.1,0a.18.18,0,0,1-.11,0c0-.06-.13,0-.39.08m5-.08a.12.12,0,0,1-.13,0h-.1s-.06.06-.13.08c-.42.16-.53.45-.53,1.41s.06,1.07.29,1.31c.47.44,1.83.21,1.91-.31a1.57,1.57,0,0,1,0-.16.76.76,0,0,0,0-.16v-.13H80c-.37,0-.39,0-.39.08a.25.25,0,0,1,0,.13s0,0,0,0,0,.06,0,.08-.58.05-.47-.13,0-.05,0-.05-.05,0-.05-.08,0-.08.05-.08,0,0,0-.08,0-.08-.06,0,0,0,0-.13v-.21h1.57l0-.32a2.6,2.6,0,0,1,0-.41.25.25,0,0,0,0-.16.11.11,0,0,1,0-.11s0-.05,0-.05-.06,0-.08-.1a1.26,1.26,0,0,0-.4-.42s-.07,0-.1,0,0,0,0,0,0-.06-.13-.06l-.32,0c-.18,0-.26,0-.26.08m2.82,0s-.07,0-.15,0a.23.23,0,0,0-.13,0,.91.91,0,0,1-.37.16c-.16,0-.34.47-.31.78s.57.74.76.68c0,0,0,0,0,0s0,0,0,0a0,0,0,0,1,.06,0s.07.05.15.05c.45.08.58.61.21.74-.15.05-.39,0-.36-.08s0,0,0,0a0,0,0,0,1,0,0s0-.08,0-.08,0-.05,0-.13v-.13h-.79v.21c0,.6.34.83,1.15.83s1.07-.2,1.18-.86V60.2c0-.05,0-.08,0-.1-.08-.26-.27-.39-.66-.55-.1,0-.18-.1-.15-.1s0,0,0,0-.63-.24-.63-.42.29-.39.37-.26a.11.11,0,0,0,.08,0c.05,0,.18.08.15.13s0,.06,0,.06,0,.05,0,.07,0,.08.39.08.5-.05.37-.36c0-.08,0-.16,0-.16s0,0-.13-.13-.18-.16-.21-.16-.08,0-.1,0,0,0,0,0-.06,0-.13,0a.32.32,0,0,1-.16,0c0-.06-.42-.06-.45,0m-52.63.1a1.17,1.17,0,0,0-.26.18c-.1.11-.18.08-.1,0s0-.16-.34-.16-.29,0-.29.08,0,.08.05.08a7.23,7.23,0,0,1,.06,1.38v1.39h.47v-1.1a5.24,5.24,0,0,1,0-1.1s0,0,0,0,0-.1.16-.23.6-.19.6-.08,0,0,.05,0,.27.21.24.27,0,.07,0,.07A7.38,7.38,0,0,1,30,60.18v1.09h.47v-1.2a8.69,8.69,0,0,0,0-1.2s0,0,0-.13a.23.23,0,0,0,0-.1l-.1-.08a.94.94,0,0,0-1-.24m60.19,0s0,0-.08,0-.08,0-.08,0a.06.06,0,0,1,0,0c-.19,0-.55.44-.6.71a4.51,4.51,0,0,0,0,1.28s0,.07,0,.07v.08s0,.06,0,.08a1.16,1.16,0,0,0,2.06.16,2.53,2.53,0,0,0-.18-2.2s-.08-.1,0-.13,0,0,0,0-.29-.05-.29-.1,0,0,0,0-.08,0-.1,0-.6-.11-.6-.05m3.26,0s-.05,0-.13,0a.73.73,0,0,0-.26.16c-.18.16-.18.16-.16,0l0-.15h-.57v2.92H92v-1.1a5.18,5.18,0,0,1,0-1.09s0,0,0-.05.21-.34.37-.34a.22.22,0,0,0,.16-.06s0,0,0,0,0,0,.08,0,.08,0,.08,0,0,0,0,0,.21.18.21,1.36l0,1.15.26,0h.26v-2.3l.16-.13c.26-.26.91-.15.81.11,0,0,0,.05,0,.05a4.89,4.89,0,0,1,.06,1.12V61.2h.47V60a9.6,9.6,0,0,0,0-1.23.07.07,0,0,1,0-.1s0,0,0,0,0,0,0-.08-.34-.32-.68-.34c-.13,0-.23,0-.23,0s0,0-.08,0-.13,0-.34.21l-.16.13-.08-.13a.44.44,0,0,0-.23-.18,1,1,0,0,1-.16-.08s-.1,0-.23,0a.84.84,0,0,1-.19.08m4.39,0a2,2,0,0,1-.39.18s0,0,0,0,0,.08,0,.08-.06,0-.06-.13V58.3h-.47v4h.47V60.88l.16.16c.39.39,1.25.18,1.33-.31a.2.2,0,0,1,.06-.11s0,0,0,0,0,0,0,0a3.41,3.41,0,0,0-.1-1.83,1,1,0,0,1-.11-.24s0-.05,0,0a.86.86,0,0,1-.34-.16,1.56,1.56,0,0,0-.53,0m2.54,0s0,0-.11,0-.07,0-.07,0a.06.06,0,0,1-.06,0c-.07,0-.39.24-.34.29s0,0,0,0,0,0,0,0,0,0,0,.08,0,.29.23.29.24,0,.26-.16.21-.31.29-.26,0,0,0,0,0,0,.2,0c.37,0,.47.15.47.57v.31l-.28,0h-.29s-.1,0-.26.08c-.52.1-.71.34-.71.91a.78.78,0,0,0,1.44.5l.1-.16V61c0,.29,0,.31.32.31H101l0-.86c0-1.67,0-1.59-.15-1.77a.92.92,0,0,0-.26-.21.54.54,0,0,1-.14-.08s0,0-.07,0-.08,0-.08,0-.63-.08-.68,0m3.27,0s0,0-.08,0a.52.52,0,0,0-.26.13c-.11.07-.19.1-.16.07s0,0,0,0-.05-.05-.05-.08,0-.07-.23-.07-.29-.08-.29,1.59v1.33h.52v-1c0-.55,0-1,0-1s0-.08,0-.19c0-.28.19-.44.55-.47.16,0,.26,0,.26,0s0,0,.05,0c.19-.06.24.18.27,1.38l0,1.15H104V60.05c0-1.26-.07-1.73-.31-1.73a.69.69,0,0,1-.29-.1s-.13,0-.26,0a.72.72,0,0,0-.28.08m-63.3,1.52v1.46h.79V58.37h-.84v1.42m37,0v1.46h.84V58.37h-.89v1.42m28-1.44s0,0,0,.08a.1.1,0,0,1,0,.07,0,0,0,0,0,0,.06s0,0,0,0,0,.06,0,.08,0,.05,0,.05a.12.12,0,0,0,0,.06s.06.07,0,.1,0,.05,0,.05,0,0,0,.08,0,.08,0,.08,0,0,0,.08,0,.08,0,.08,0,0,0,.07a.05.05,0,0,0,0,.08s0,0,0,.06,0,.07,0,.07a8.77,8.77,0,0,1,.57,1.86s0,0,0,0v.05s0,0,0,.08a.45.45,0,0,1-.05.13c-.08.18-.24.6-.24.62a1.5,1.5,0,0,0,.27,0,1.33,1.33,0,0,0,.26,0A7.53,7.53,0,0,1,106,61s0,0,0-.08a1.62,1.62,0,0,1,.15-.47s0,0,0-.07,0-.08,0-.08,0,0,0-.08,0-.08,0-.08,0,0,0-.08,0-.08,0-.08,0,0,0-.07a0,0,0,0,1,0-.08s0,0,0-.05,0-.08,0-.08a.13.13,0,0,0,0-.08s0-.05,0-.05a0,0,0,0,0,0-.06s0-.07,0-.07,0-.06,0-.11a.4.4,0,0,1,.06-.16c0-.07.34-1,.34-1a1.13,1.13,0,0,0-.45,0s0,.05,0,.08,0,0,0,0,0,0,0,0v.08s0,0,0,.07,0,.06,0,.11-.13.42-.26.84a5.23,5.23,0,0,1-.29.78s0,.05,0,.08,0,.08,0,0a.09.09,0,0,1,0-.1.41.41,0,0,0,0-.16.79.79,0,0,1,0-.15.34.34,0,0,1,0-.08.11.11,0,0,1,0-.11s0,0,0,0-.06,0,0,0a0,0,0,0,0,0-.08s0,0,0-.08,0,0,0,0,0,0,0-.08a.05.05,0,0,0,0-.08s0,0,0-.08,0-.07,0-.07,0,0,0-.08a0,0,0,0,0,0-.08s0-.05,0-.08,0-.08,0-.08,0,0,0,0,0-.08,0-.08,0-.08,0-.16a.33.33,0,0,0,0-.13s0,0,0-.07-.58,0-.63.05m-14.4.44a2.55,2.55,0,0,1,.13,1.81c-.1.23-.6.44-.7.28l0,0c-.32.18-.53-1.36-.27-1.91a.53.53,0,0,1,.89-.16m7.29-.08a2.25,2.25,0,0,1,.06,2.09.37.37,0,0,1-.11.08s0,0,0,0-.08.05-.19,0-.47-.2-.42-.28,0,0,0,0-.05,0,0-.08a.05.05,0,0,0,0-.08s0,0,0-.16,0-.16,0-.13-.05-.13-.05-.44,0-.45.05-.45,0,0,0-.08a.52.52,0,0,1,.78-.47m-59.66,0a.1.1,0,0,0,.08,0c.16-.08.26,1.33.13,1.72-.08.21-.49.29-.52.11a.5.5,0,0,0,0-.14,4.55,4.55,0,0,1,0-1.38s0,0,0,0,.13-.26.18-.24,0,0,0,0,0-.08.08,0m37,0s0,0,0,0,.19.07.16.13,0,.05,0,.05,0,0,0,.13,0,.13,0,.13a1.32,1.32,0,0,1,.05.47,1.1,1.1,0,0,1-.05.47s0,.05,0,.13,0,.13,0,.13,0,0,0,.05-.1.19-.24.19-.31-.13-.28-.24a.09.09,0,0,0,0-.08,2.32,2.32,0,0,1,0-.62,2.42,2.42,0,0,1,0-.63.31.31,0,0,0,0-.1c0-.14.11-.27.19-.21s.05,0,.05,0a0,0,0,0,1,0-.05v.05M44,58.87a.53.53,0,0,1,.08.34v.24h-.68v-.14c0-.07,0-.13.06-.1s0,0,0-.08c-.08-.29.37-.49.52-.26m11.53,0a1.66,1.66,0,0,1,.08.31v.24h-.68l0-.24a.55.55,0,0,1,.19-.41c.08,0,.34,0,.39.1m11.86,0a.29.29,0,0,1,.08.16s0,0,0,0,0,.06,0,.19,0,.18,0,.18,0,.16,0,.37,0,.36,0,.36,0,.05,0,.16,0,.15,0,.15a.06.06,0,0,0,0,.06.26.26,0,0,1-.42.21c-.08-.06-.13-.11-.13-.16a.12.12,0,0,0,0-.08s0-.05,0-.13,0-.13,0-.13,0-.16,0-.47,0-.47,0-.47,0,0,0-.11c-.07-.34.34-.57.55-.34m4.47,0a.43.43,0,0,1,.16.31,5.23,5.23,0,0,1,0,1.18s0,.1,0,.15,0,.11,0,.11-.06,0,0,0c0,.26-.5.21-.57-.08-.27-.91.07-2.14.49-1.72m7.58,0c0,.05,0,.11.08.11a1.33,1.33,0,0,1,0,.26v.23h-.68v-.16c0-.07,0-.13,0-.1s0,0,0-.08c-.07-.29.37-.52.5-.26m21,1.18c0,.52-.36.91-.78.81s-.36-.66-.08-.89a.78.78,0,0,1,.13-.11s0,0,.06,0,.07,0,.13,0,.07,0,.1,0a.41.41,0,0,1,.24-.06h.2v.32"/>
      <path id="path2" class="cls-1" d="M14.85,28l-.65.08c-.71.08-.71.1-.44.73a.22.22,0,0,1,0,.11s0,.05,0,.08a0,0,0,0,1,0,0,0,0,0,0,0,0,0s.05,0,0,0v.08s0,.05,0,.08a1,1,0,0,0,.11.24.87.87,0,0,1,.08.26s0,.05,0,.05,0,0,0,0,0,.05,0,.05a1.52,1.52,0,0,1,.21.45c.1.23.36.76.57,1.17s.47.87.55,1a1.59,1.59,0,0,0,.21.34.19.19,0,0,1,.05.13.06.06,0,0,0,0,.06s.06,0,.08.1.08.18.13.26a1,1,0,0,1,.11.24.12.12,0,0,0,0,0,9.86,9.86,0,0,1,.58.94.06.06,0,0,0,0,.05s.33.58,1.09,2c.08.16.26.5.39.79a3.12,3.12,0,0,0,.27.52.22.22,0,0,1,.05.13s0,.1.05.1,0,0,0,.08,0,.08,0,.08a3,3,0,0,1,.26.86s0,.06,0,.06,0,0,0,.1,0,.1,0,.1.05.06,0,.16,0,.16,0,.16,0,.1,0,.29,0,.28,0,.28.05.11.05.21,0,.21-.05.18,0,.06,0,.27,0,.28,0,.28-.05.06,0,.16a.2.2,0,0,1,0,.18.15.15,0,0,0,0,.11s0,.08,0,.08,0,.07,0,.15,0,.19-.05.19-.05.05,0,.07,0,.06,0,.08a.09.09,0,0,0,0,.08s0,0,0,0,0,0,0,.08,0,.08,0,.08-.05,0-.05.08a6.21,6.21,0,0,1-.65,1.2.27.27,0,0,0-.08.11,1.6,1.6,0,0,1-.21.26c-.13.13-.24.26-.21.28a5,5,0,0,0,1.25-.73.38.38,0,0,1,.16-.1s0,0,0,0a3,3,0,0,1,.5-.39,1.46,1.46,0,0,0,.37-.34.88.88,0,0,1,.13-.1s1.3-1.29,1.49-1.52l.18-.21a1.89,1.89,0,0,0,.23-.34l.24-.29s.05,0,0,0,0-.05.05-.08.05-.05.05-.05.08-.16.18-.34a12,12,0,0,0,.79-1.49,0,0,0,0,1,.05-.05s0,0,0,0,0-.08,0-.13l.05-.1a.84.84,0,0,1,.08-.19,6.94,6.94,0,0,0,.32-1.09l0-.16a.15.15,0,0,0,0-.1c0-.06,0-.11,0-.11s0,0,0-.13,0-.13,0-.13.05-.05,0-.18,0-.19,0-.19,0-.1,0-.28,0-.29,0-.29,0-.11,0-.34,0-.34,0-.34-.05-.08,0-.26,0-.26,0-.26,0-.06,0-.19,0-.18,0-.18,0,0,0-.1,0-.11,0-.11-.05-.05,0-.1,0-.11,0-.11,0,0,0-.08v-.1s-.08-.16-.13-.34-.16-.44-.24-.63a2.05,2.05,0,0,1-.13-.31s0,0,0,0-.05,0,0-.05,0-.05,0-.05-.05,0-.05-.08,0-.08,0-.08,0,0,0,0,0-.06-.05-.11a.5.5,0,0,1-.13-.21.4.4,0,0,0-.08-.13.79.79,0,0,1-.13-.18,3.62,3.62,0,0,0-.58-.65,4.55,4.55,0,0,0-.75-.68,1.77,1.77,0,0,1-.19-.16s0,0-.05,0-.05,0-.08-.05l-.05-.05s-.05,0-.08-.05.08.07.08.1,0,0,0,0a3.05,3.05,0,0,0-.65-.39l-.39-.21s0,0-.05,0a.9.9,0,0,1-.24-.08,1.22,1.22,0,0,0-.23-.08s0,0,0,0,0,0-.08,0-.08,0-.08,0,0,0-.05,0a.05.05,0,0,1-.08,0,.08.08,0,0,0-.08,0s0,0,0,0,0,0-.05,0-.08,0-.11,0-.07,0-.1,0-.05,0-.08,0a.08.08,0,0,0-.08,0s-.07,0-.07,0-.11,0-.14,0a.2.2,0,0,1-.1,0A14.58,14.58,0,0,0,14.85,28m-2.27.37s-.05,0-.08,0-.08,0-.08,0-.05,0-.08,0-.07,0-.07,0,0,.05-.08,0a.05.05,0,0,0-.08,0s0,0,0,0-.08,0-.11,0a.11.11,0,0,1-.08,0s0,0,0,0,0,0-.08,0-.07,0-.07,0a.06.06,0,0,1-.06.05s-1.15.42-1.41.53a1.79,1.79,0,0,0-.29,0s0,0,0,0,0,0-.05,0-.06,0-.06,0,0,0,0,0-.05,0-.05,0,0,0,0,0-.05,0-.05,0,0,0,0,0-.05,0-.05,0,0,0-.06,0,0,0,0,0a.77.77,0,0,1-.34.16.24.24,0,0,0-.1.05s-.08.06-.11,0,0,0,.06,0,0,.05,0,.05a2.45,2.45,0,0,0-.42.23l-.39.21s0,0-.06,0,0,.08-.08.06,0,0,0,.05-.05,0-.08,0-.05,0-.05,0a.76.76,0,0,1-.23.18,2.64,2.64,0,0,1-.26.16.83.83,0,0,0-.21.15c-.11.08-.19.13-.19.16s0,0-.08.08a.68.68,0,0,0-.18.13c0,.05-.1.1-.13.08s0,0-.1.08-.08.1-.11.1a20.53,20.53,0,0,0-1.46,1.49s-.05.08-.11.13a.4.4,0,0,0-.1.13s-.05.08-.1.16-.21.29-.37.49a1.7,1.7,0,0,1-.29.4s0,.05,0,.08a.06.06,0,0,1-.06,0s0,0,0,0,0,.05,0,.05-.05,0-.05.08.05,0,0,0,0,0,0,0a0,0,0,0,1,0,.05,2.08,2.08,0,0,0-.26.48c-.13.26-.26.47-.26.47l0,0s-.05.32-.1.32,0,0,0,0,0,.1-.05.13a.18.18,0,0,0-.06.1,0,0,0,0,1,0,.06s0,0,0,.07a.05.05,0,0,1,0,.08s0,0,0,.08a0,0,0,0,1,0,.08s0,0,0,.05a1.32,1.32,0,0,1,0,.18,2.76,2.76,0,0,0-.08.27c0,.07,0,.1,0,.13a.24.24,0,0,0,0,.07s0,.08,0,.11a8.13,8.13,0,0,0,.05,3.68.45.45,0,0,1,0,.08,1,1,0,0,0,.16.45s.05.07.05.13a.49.49,0,0,0,0,.13v0s0,0,.05,0,0,0,0,.05,0,0,0,0,0,0,0,0,0,.05,0,.05.1.14.18.29a2.72,2.72,0,0,0,.47.73s0,0,0,.06a.13.13,0,0,0,.08.1.46.46,0,0,1,.15.16,3.91,3.91,0,0,0,.76.76s.13.07.13.13a.08.08,0,0,0,.08.07.09.09,0,0,1,.08.08s0,.08.08.08a.36.36,0,0,1,.15.11.5.5,0,0,0,.19.1.06.06,0,0,1,0,0,.07.07,0,0,0,0,0l.47.24a3.32,3.32,0,0,0,.47.24.46.46,0,0,1,.18.07,1.52,1.52,0,0,0,.23.11c.06,0,.11,0,.11,0a11.16,11.16,0,0,0,1.15.34.05.05,0,0,1,0,0s.05,0,.11,0,.1,0,.1,0,0,0,.1,0,.11,0,.11,0,.05,0,.1,0a.26.26,0,0,1,.19,0s.1,0,.15,0a.37.37,0,0,1,.16,0s.13,0,.21,0a.48.48,0,0,1,.21,0,15.72,15.72,0,0,0,2.17,0s.13,0,.21,0a.45.45,0,0,0,.26,0l.1-.08h-.1A4.81,4.81,0,0,1,11.12,46s-.06,0-.08,0-.29-.08-.29-.11,0,0-.05,0,0,0,0,0,0,0-.06,0-.05,0-.05,0,0,0,0,0-.05,0-.05,0a0,0,0,0,0,0,0s-.05,0-.1-.05a.18.18,0,0,0-.11,0,4.93,4.93,0,0,1-.94-.66.28.28,0,0,0-.16-.13.89.89,0,0,1-.23-.23,3.7,3.7,0,0,0-.34-.4,1.56,1.56,0,0,1-.16-.2s0-.06-.08-.06l-.07-.05A1.4,1.4,0,0,0,8,43.53a6.07,6.07,0,0,1-.47-1s0-.1,0-.13,0,0,0-.05a.76.76,0,0,1,0-.16.84.84,0,0,0,0-.18s0-.05,0-.11,0-.07,0-.1a.2.2,0,0,1,0-.1c0-.06,0-.11,0-.11a.32.32,0,0,1,0-.16c0-.07,0-.13,0-.15s0-.13,0-.32a.6.6,0,0,0,0-.34c-.06-.05-.06-.07,0-.1s0-.11,0-.34,0-.31,0-.34,0-.08,0-.16a.14.14,0,0,1,0-.15.15.15,0,0,0,0-.11s0-.1,0-.1,0,0,0-.11,0-.1,0-.1a.12.12,0,0,0,0-.08.08.08,0,0,1,0-.1,1.87,1.87,0,0,0,.15-.42,4.3,4.3,0,0,1,.42-1,0,0,0,0,0,0,0,5.51,5.51,0,0,1,.34-.65s0,0,0-.05a0,0,0,0,1,0,0s.16-.26.34-.6a3.13,3.13,0,0,1,.34-.58s0,0,0-.05a2.51,2.51,0,0,1,.18-.37,8.1,8.1,0,0,0,.47-.81c.16-.29.32-.52.34-.57a.2.2,0,0,0,.06-.13.06.06,0,0,1,.05-.06s0,0,0,0v-.05s.08-.08.11-.16c.55-1,.73-1.3.78-1.36a.06.06,0,0,0,0-.05s0,0,0,0a3.48,3.48,0,0,0,.32-.58,5.56,5.56,0,0,1,.31-.55s0,0,0-.05,0-.05,0-.05a0,0,0,0,0,0,0,.76.76,0,0,1,.11-.26l.1-.26a0,0,0,0,1,0,0,.08.08,0,0,0,0-.05s0-.05,0-.05.05,0,.08-.13a1.89,1.89,0,0,1,.1-.32c.08-.15.42-1.17.42-1.2s0,0-.08,0-.13,0-.13.05m.21,6.24s-.11.06-.21.06a2.64,2.64,0,0,0-.89.28s0,0,0,0-.05,0-.05,0,0,0-.06,0,0,0,0,0,0,.05-.08.05-.07,0-.07.06a.06.06,0,0,1-.06.05,3.69,3.69,0,0,0-1,1s0,0,0,0,0,.05-.08.1,0,.11-.08.11,0,0,0,.05,0,0,0,0,0,0,0,0a0,0,0,0,1,0,.06s0,0,0,0a.64.64,0,0,1-.05.16,3.49,3.49,0,0,0,0,2.43c0,.08.08.18,0,.18s0,0,0,0l0,0a.25.25,0,0,0,.05.19,2.91,2.91,0,0,1,.31.65s0,0,0,0,0,0,0,0v.05a8.17,8.17,0,0,1,.57,1,.06.06,0,0,0,.05.06s0,0,0,.05,0,0,0,0a18,18,0,0,1,1.49,2.9c.08.21.14.42.16.45s0,0,0,.07a.18.18,0,0,0,.05.11s0,0,0,0,0,0,0,.05.05.08,0,.11,0,0,0,0,.05,0,0,0,0,.08,0,.08,0,0,0,.11,0,0,.05,0,.08-.11.08-.14a9.66,9.66,0,0,1,.39-1.15s0,0,0-.05,0,0,0,0,0,0,0-.05a.17.17,0,0,1,.05-.13.28.28,0,0,0,0-.08,15.14,15.14,0,0,1,.89-1.67c.05,0,.05-.06,0-.06s.1-.26.18-.34a.14.14,0,0,0,0-.1s0-.05.05-.08a21.46,21.46,0,0,0,1.23-2.27,2.25,2.25,0,0,1,.11-.24.29.29,0,0,0,0-.08.93.93,0,0,1,.11-.41s0-.06,0-.11,0-.1,0-.1a2.8,2.8,0,0,0,0-1s0-.1,0-.23,0-.21-.05-.21,0,0,0-.08,0-.08,0-.08,0,0,0-.08,0-.07,0-.07-.08-.11-.13-.24-.19-.34-.27-.47l-.18-.23a2.65,2.65,0,0,0-.42-.4.33.33,0,0,1-.1-.07,3.19,3.19,0,0,0-1.57-.68.23.23,0,0,1-.1,0s-.19,0-.42,0a.5.5,0,0,0-.34,0"/>
    </g>
    <path id="path1" class="cls-1" d="M44.51,39.35a7.38,7.38,0,0,1-.88.31l-.79.26V50.48h2V46.77L46,48c.66.66,1.47,1.49,1.83,1.86l.66.65h1.28c.7,0,1.28,0,1.28,0s-3.22-3.22-4.11-4.11c-.44-.44-.44-.36,0-.73.18-.16.49-.44.68-.63a6.16,6.16,0,0,1,.52-.44,2.93,2.93,0,0,0,.31-.29,6.91,6.91,0,0,1,.58-.49c.23-.19.5-.45.6-.55a2.47,2.47,0,0,1,.42-.37c.34-.23.73-.65.7-.7a6.07,6.07,0,0,0-1.22-.06H48.3l-.26.24c-.16.13-.81.7-1.46,1.31s-1.33,1.17-1.47,1.3l-.26.24V39.27h-.1a.35.35,0,0,0-.24.08M24.08,45.07v5.41l2.4,0c2.62,0,2.8,0,3.58-.29A4.21,4.21,0,0,0,32,48.89l.24-.29a5.82,5.82,0,0,0,.88-2.74c0-.24.06-.45.06-.45a2.48,2.48,0,0,0,0-.86,1.12,1.12,0,0,1-.06-.47,5.35,5.35,0,0,0-.83-2.74L32,41.05a2.64,2.64,0,0,0-.73-.63.44.44,0,0,1-.21-.16c-.55-.49-1.62-.65-4.65-.65H24.08v5.46m4.68-3.87a1.26,1.26,0,0,1,.39.11.17.17,0,0,0,.13,0,2.51,2.51,0,0,1,1.33,1,6.4,6.4,0,0,1,0,5.23c-.05.1-.13.21-.16.28a2.89,2.89,0,0,1-1.49.92,3.42,3.42,0,0,0-.39.13,8.41,8.41,0,0,1-1.31.05l-1.23,0V41.18h1.18a12.35,12.35,0,0,1,1.52,0m7.18.79c-.62.08-.78.13-.83.29s-.08.21-.13.34a6.16,6.16,0,0,0-.4,1,1.07,1.07,0,0,0,.45,0,12.8,12.8,0,0,1,3.37-.11c.65.14.78.32.81,1.15l0,.55-1.31,0c-2.33.05-3.22.31-3.79,1.18l-.18.23a3.54,3.54,0,0,0-.16,2.12c.44,1.75,2.09,2.19,6.58,1.77l.79-.07,0-3.24c0-3.61,0-3.43-.31-4A2.6,2.6,0,0,0,38.69,42a19.42,19.42,0,0,0-2.75,0m17.62,0a3.62,3.62,0,0,0-.79.23s0,0-.05,0c-.42,0-1.36.84-1.8,1.59a5.44,5.44,0,0,0,0,4.79c.1.18.21.36.23.41a2.81,2.81,0,0,0,.6.66.85.85,0,0,1,.24.18,4.39,4.39,0,0,0,3.5.65c2.17-.41,3.55-2.69,3.14-5.25a3.61,3.61,0,0,0-.29-1s0,0,0-.06a3.76,3.76,0,0,0-.49-.88A4.71,4.71,0,0,0,53.56,42m1.75,1.59a1.73,1.73,0,0,1,1,.87c.05.1.1.2.13.2.47.34.37,2.75-.13,3.56a2.1,2.1,0,0,1-2.93.7,2.19,2.19,0,0,1-.49-.49l-.19-.24a5.15,5.15,0,0,1-.31-2.77,2.14,2.14,0,0,1,2.93-1.83M9.78,46.46H10s0,0-.11,0-.13,0-.08,0m1.52,0h.21c.05,0,0,0-.11,0s-.15,0-.1,0m27.94,1.43v1.23l-.14,0a7.13,7.13,0,0,1-.81.05c-1.85.08-2.58-.29-2.58-1.31s.57-1.17,2.61-1.2h.92v1.2"/>
  </g>
</svg>
