<?xml version="1.0" encoding="utf-8"?>
<!-- Generator: Adobe Illustrator 23.0.3, SVG Export Plug-In . SVG Version: 6.00 Build 0)  -->
<svg version="1.1" id="Layer_1" xmlns="http://www.w3.org/2000/svg" xmlns:xlink="http://www.w3.org/1999/xlink" x="0px" y="0px"
	 viewBox="0 0 82.4 55.3" style="enable-background:new 0 0 82.4 55.3;" xml:space="preserve">
<style type="text/css">
	.st0{fill:#878787;}
	.st1{fill:#FFFFFF;}
</style>
<path class="st0" d="M48.2,3.2c-7.8,0-14.2,6.3-14.2,14.2c0,7.8,6.3,14.2,14.2,14.2c7.8,0,14.2-6.3,14.2-14.2
	C62.4,9.5,56.1,3.2,48.2,3.2z M49.5,22.4c0,0.9-0.6,1.4-1.4,1.4c-0.8,0-1.4-0.5-1.4-1.4V12.1c0-0.9,0.6-1.4,1.4-1.4
	c0.8,0,1.4,0.5,1.4,1.4V22.4z"/>
<g>
	<path class="st1" d="M16.7,13.3h-1.6v7.9h1.8c2.3,0,3.4-1.7,3.4-3.9C20.3,15,19.2,13.3,16.7,13.3z"/>
	<path class="st1" d="M17.1,3.2C9.2,3.2,2.9,9.5,2.9,17.4c0,7.8,6.3,14.2,14.2,14.2c7.8,0,14.2-6.3,14.2-14.2
		C31.2,9.5,24.9,3.2,17.1,3.2z M16.9,23.7h-3.1c-0.6,0-1.4-0.3-1.4-1.4V12.2c0-0.8,0.6-1.4,1.4-1.4h3c4.1,0,6.4,2.6,6.4,6.6
		C23.1,21.2,20.7,23.7,16.9,23.7z"/>
</g>
<g>
	<path class="st1" d="M12.8,41.1H15c0.5,0,1,0.1,1.4,0.2c0.4,0.1,0.8,0.3,1.1,0.6c0.3,0.3,0.6,0.7,0.8,1.2c0.2,0.5,0.3,1.1,0.3,1.9
		c0,0.7-0.1,1.4-0.3,1.9c-0.2,0.5-0.4,0.9-0.8,1.2c-0.3,0.3-0.7,0.5-1.1,0.6c-0.4,0.1-0.9,0.2-1.4,0.2h-2.3V41.1z M15,47.9
		c0.3,0,0.6,0,1-0.1c0.3-0.1,0.6-0.2,0.8-0.4c0.2-0.2,0.4-0.5,0.6-0.9c0.1-0.4,0.2-0.9,0.2-1.6c0-0.6-0.1-1.2-0.2-1.6
		c-0.1-0.4-0.3-0.7-0.6-0.9c-0.2-0.2-0.5-0.3-0.8-0.4c-0.3-0.1-0.6-0.1-1-0.1h-1.2v6H15z"/>
	<path class="st1" d="M19.8,44c0.2-0.1,0.4-0.2,0.8-0.3c0.3-0.1,0.7-0.1,1.2-0.1c0.7,0,1.2,0.2,1.5,0.5c0.3,0.3,0.5,0.8,0.5,1.5v2
		c0,0.2,0,0.4,0.1,0.5c0.1,0.1,0.3,0.1,0.5,0.1v0.6c-0.1,0-0.2,0-0.3,0c-0.1,0-0.2,0-0.3,0c-0.3,0-0.5-0.1-0.6-0.2
		c-0.1-0.1-0.2-0.3-0.3-0.5c-0.1,0.1-0.2,0.2-0.3,0.2c-0.1,0.1-0.3,0.2-0.4,0.2c-0.2,0.1-0.3,0.1-0.5,0.2c-0.2,0-0.4,0.1-0.6,0.1
		c-0.5,0-0.9-0.1-1.1-0.3c-0.3-0.2-0.4-0.5-0.4-1c0-0.4,0.1-0.7,0.3-0.9c0.2-0.2,0.5-0.4,0.8-0.5c0.3-0.1,0.7-0.2,1.1-0.3
		c0.4-0.1,0.7-0.1,1.1-0.1v-0.1c0-0.2,0-0.4,0-0.6c0-0.2-0.1-0.3-0.2-0.4c-0.1-0.1-0.2-0.2-0.4-0.2c-0.2-0.1-0.4-0.1-0.6-0.1
		c-0.3,0-0.5,0-0.7,0.1c-0.2,0.1-0.4,0.2-0.6,0.3L19.8,44z M22.8,46.3c-0.3,0-0.5,0-0.8,0.1c-0.3,0-0.5,0.1-0.7,0.2
		c-0.2,0.1-0.4,0.2-0.5,0.3c-0.1,0.1-0.2,0.3-0.2,0.5c0,0.2,0.1,0.4,0.2,0.5c0.2,0.1,0.4,0.2,0.6,0.2c0.1,0,0.2,0,0.4,0
		c0.1,0,0.3-0.1,0.4-0.1c0.1,0,0.3-0.1,0.4-0.1c0.1,0,0.2-0.1,0.3-0.1V46.3z"/>
	<path class="st1" d="M25.5,43.6h0.9v0.5c0.1-0.1,0.2-0.1,0.3-0.2c0.1-0.1,0.2-0.1,0.4-0.2c0.1-0.1,0.3-0.1,0.4-0.1
		c0.1,0,0.3-0.1,0.4-0.1c0.6,0,1,0.2,1.3,0.5c0.3,0.3,0.4,0.7,0.4,1.3v3.4h-0.9v-3.4c0-0.3-0.1-0.6-0.3-0.7
		c-0.2-0.2-0.4-0.2-0.7-0.2c-0.1,0-0.3,0-0.4,0.1c-0.1,0-0.3,0.1-0.4,0.1c-0.1,0.1-0.2,0.1-0.3,0.2c-0.1,0.1-0.2,0.1-0.2,0.1v3.9
		h-0.9V43.6z"/>
	<path class="st1" d="M31.4,47.5c0.1,0.1,0.2,0.1,0.3,0.2c0.1,0.1,0.2,0.1,0.4,0.2c0.1,0.1,0.3,0.1,0.4,0.1c0.2,0,0.3,0,0.5,0
		c0.3,0,0.6-0.1,0.8-0.2c0.2-0.1,0.3-0.3,0.3-0.5c0-0.2-0.1-0.4-0.3-0.5c-0.2-0.1-0.5-0.2-1-0.3c-0.2,0-0.5-0.1-0.7-0.2
		c-0.2-0.1-0.4-0.1-0.6-0.3c-0.2-0.1-0.3-0.2-0.4-0.4c-0.1-0.2-0.2-0.4-0.2-0.6c0-0.2,0.1-0.4,0.2-0.6c0.1-0.2,0.2-0.3,0.4-0.5
		c0.2-0.1,0.4-0.2,0.6-0.3c0.2-0.1,0.5-0.1,0.8-0.1c0.4,0,0.8,0,1.1,0.1c0.3,0.1,0.6,0.2,0.8,0.4l-0.6,0.7c-0.1-0.1-0.3-0.2-0.6-0.3
		c-0.2-0.1-0.5-0.1-0.8-0.1c-0.3,0-0.6,0.1-0.8,0.2c-0.2,0.1-0.2,0.3-0.2,0.5c0,0.2,0.1,0.4,0.3,0.5c0.2,0.1,0.6,0.2,1,0.3
		c0.5,0.1,1,0.3,1.3,0.5c0.3,0.2,0.5,0.5,0.5,1c0,0.5-0.2,0.9-0.6,1.2c-0.4,0.3-0.9,0.4-1.6,0.4c-0.2,0-0.4,0-0.6,0
		c-0.2,0-0.4-0.1-0.6-0.1c-0.2-0.1-0.3-0.1-0.5-0.2c-0.2-0.1-0.3-0.2-0.4-0.3L31.4,47.5z"/>
	<path class="st1" d="M36.1,41.1H37v5l2.2-2.4h1.1l-1.8,1.9l2.1,3.1h-1.1l-1.6-2.4l-0.9,1v1.5h-0.9V41.1z"/>
	<path class="st1" d="M44.1,41.1h1v7.6h-1V41.1z"/>
	<path class="st1" d="M46.9,43.6h0.9v0.5c0.1-0.1,0.2-0.1,0.3-0.2c0.1-0.1,0.2-0.1,0.4-0.2c0.1-0.1,0.3-0.1,0.4-0.1
		c0.1,0,0.3-0.1,0.4-0.1c0.6,0,1,0.2,1.3,0.5c0.3,0.3,0.4,0.7,0.4,1.3v3.4h-0.9v-3.4c0-0.3-0.1-0.6-0.3-0.7
		c-0.2-0.2-0.4-0.2-0.7-0.2c-0.1,0-0.3,0-0.4,0.1c-0.1,0-0.3,0.1-0.4,0.1c-0.1,0.1-0.2,0.1-0.3,0.2c-0.1,0.1-0.2,0.1-0.2,0.1v3.9
		h-0.9V43.6z"/>
	<path class="st1" d="M56,48.3c-0.1,0.1-0.3,0.3-0.6,0.4c-0.2,0.1-0.5,0.2-0.8,0.2s-0.6,0-0.8-0.1c-0.3-0.1-0.5-0.2-0.7-0.4
		c-0.2-0.2-0.4-0.5-0.5-0.8c-0.1-0.3-0.2-0.7-0.2-1.2c0-0.5,0.1-0.9,0.2-1.2c0.1-0.3,0.3-0.6,0.5-0.8c0.2-0.2,0.5-0.4,0.7-0.5
		c0.3-0.1,0.6-0.2,0.8-0.2c0.2,0,0.5,0,0.7,0.1c0.2,0.1,0.4,0.2,0.6,0.3v-2.8h0.9v7.6H56V48.3z M56,44.7c-0.1-0.1-0.3-0.2-0.5-0.3
		s-0.5-0.1-0.7-0.1c-0.2,0-0.3,0-0.5,0.1c-0.2,0-0.3,0.1-0.5,0.3c-0.1,0.1-0.3,0.3-0.4,0.6c-0.1,0.2-0.1,0.6-0.1,0.9
		c0,0.4,0,0.7,0.1,0.9c0.1,0.2,0.2,0.4,0.3,0.6c0.1,0.1,0.3,0.2,0.5,0.3c0.2,0.1,0.3,0.1,0.5,0.1c0.2,0,0.5,0,0.7-0.1
		c0.2-0.1,0.4-0.2,0.5-0.3V44.7z"/>
	<path class="st1" d="M58.5,43.6h0.9v3.5c0,0.3,0.1,0.6,0.3,0.7c0.2,0.1,0.4,0.2,0.7,0.2c0.3,0,0.5-0.1,0.7-0.2
		c0.2-0.1,0.4-0.2,0.5-0.3v-3.9h0.9v5h-0.9v-0.5c-0.1,0.1-0.2,0.2-0.3,0.2c-0.1,0.1-0.2,0.1-0.4,0.2c-0.1,0.1-0.3,0.1-0.4,0.2
		c-0.2,0-0.3,0.1-0.4,0.1c-0.6,0-1-0.2-1.2-0.5c-0.3-0.3-0.4-0.7-0.4-1.3V43.6z"/>
	<path class="st1" d="M64.3,47.5c0.1,0.1,0.2,0.1,0.3,0.2c0.1,0.1,0.2,0.1,0.4,0.2c0.1,0.1,0.3,0.1,0.4,0.1c0.2,0,0.3,0,0.5,0
		c0.3,0,0.6-0.1,0.8-0.2c0.2-0.1,0.3-0.3,0.3-0.5c0-0.2-0.1-0.4-0.3-0.5c-0.2-0.1-0.5-0.2-1-0.3c-0.2,0-0.5-0.1-0.7-0.2
		c-0.2-0.1-0.4-0.1-0.6-0.3c-0.2-0.1-0.3-0.2-0.4-0.4c-0.1-0.2-0.2-0.4-0.2-0.6c0-0.2,0.1-0.4,0.2-0.6c0.1-0.2,0.2-0.3,0.4-0.5
		c0.2-0.1,0.4-0.2,0.6-0.3c0.2-0.1,0.5-0.1,0.8-0.1c0.4,0,0.8,0,1.1,0.1c0.3,0.1,0.6,0.2,0.8,0.4L67,44.8c-0.1-0.1-0.3-0.2-0.6-0.3
		c-0.2-0.1-0.5-0.1-0.8-0.1c-0.3,0-0.6,0.1-0.8,0.2c-0.2,0.1-0.2,0.3-0.2,0.5c0,0.2,0.1,0.4,0.3,0.5c0.2,0.1,0.6,0.2,1,0.3
		c0.5,0.1,1,0.3,1.3,0.5c0.3,0.2,0.5,0.5,0.5,1c0,0.5-0.2,0.9-0.6,1.2c-0.4,0.3-0.9,0.4-1.6,0.4c-0.2,0-0.4,0-0.6,0
		c-0.2,0-0.4-0.1-0.6-0.1c-0.2-0.1-0.3-0.1-0.5-0.2c-0.2-0.1-0.3-0.2-0.4-0.3L64.3,47.5z"/>
	<path class="st1" d="M69.4,44.4h-0.8v-0.7h0.8v-1.1c0.1-0.2,0.2-0.3,0.4-0.4c0.2-0.1,0.4-0.1,0.6-0.1v1.6h1.3c0,0.1,0,0.3-0.1,0.4
		c0,0.1-0.1,0.2-0.2,0.3h-1v2.8c0,0.3,0.1,0.5,0.2,0.6c0.1,0.1,0.3,0.2,0.5,0.2c0.1,0,0.2,0,0.3,0c0.1,0,0.2,0,0.3,0v0.8
		c0,0-0.1,0-0.1,0c-0.1,0-0.1,0-0.2,0c-0.1,0-0.1,0-0.2,0c-0.1,0-0.1,0-0.2,0c-0.2,0-0.4,0-0.6-0.1c-0.2,0-0.3-0.1-0.5-0.2
		c-0.1-0.1-0.2-0.3-0.3-0.5c-0.1-0.2-0.1-0.4-0.1-0.7V44.4z"/>
	<path class="st1" d="M72.7,43.6h0.9v0.8c0.1-0.3,0.3-0.5,0.5-0.7c0.2-0.2,0.5-0.3,0.9-0.3c0.1,0,0.3,0,0.4,0.1l-0.2,0.9
		c0,0-0.1,0-0.2,0c-0.1,0-0.2,0-0.3,0c-0.1,0-0.2,0-0.4,0c-0.1,0-0.2,0.1-0.4,0.2c-0.1,0.1-0.2,0.2-0.3,0.3
		c-0.1,0.1-0.2,0.3-0.2,0.5v3.2h-0.9V43.6z"/>
	<path class="st1" d="M77,42.3c-0.2,0-0.3-0.1-0.5-0.2c-0.1-0.1-0.2-0.3-0.2-0.5c0-0.2,0.1-0.3,0.2-0.5C76.6,41,76.8,41,77,41
		c0.2,0,0.3,0.1,0.4,0.2c0.1,0.1,0.2,0.3,0.2,0.5c0,0.2-0.1,0.3-0.2,0.5C77.3,42.2,77.1,42.3,77,42.3z M76.5,43.6h0.9v5h-0.9V43.6z"
		/>
</g>
</svg>
