<svg id="dtu" xmlns="http://www.w3.org/2000/svg" width="110" height="92" viewBox="0 0 110 92">
  <defs>
    <style>
      .cls-1 {
        fill: #fff;
      }
    </style>
  </defs>
  <title>dtu</title>
  <g>
    <path class="cls-1" d="M35.32,36.93h5.92c2.3,0,3.72-.53,4.57-1.62,1.25-1.51,1.29-3.93,1.29-7.66V22.56c0-3.72,0-6.15-1.29-7.66-.85-1.11-2.26-1.62-4.57-1.62H35.32a.46.46,0,0,0-.5.49V36.43a.45.45,0,0,0,.14.36A.46.46,0,0,0,35.32,36.93ZM38.58,16h2.09a2.21,2.21,0,0,1,1.9.65c.66.8.72,2.39.72,5.6v5.6c0,3.22-.06,4.81-.72,5.6a2.17,2.17,0,0,1-1.9.66H38.58Z"/>
    <path class="cls-1" d="M68.49,37.22c2.33,0,3.83-.62,4.75-1.69,1.09-1.26,1.36-2.77,1.36-5V13.77a.46.46,0,0,0-.14-.36.48.48,0,0,0-.36-.13H71.33a.51.51,0,0,0-.37.13.52.52,0,0,0-.13.36V30.51c0,1.74-.13,2.78-.7,3.4a2.13,2.13,0,0,1-1.69.63,2,2,0,0,1-1.61-.63c-.53-.59-.69-1.59-.69-3.4V13.77a.46.46,0,0,0-.14-.36.5.5,0,0,0-.36-.13H62.87a.5.5,0,0,0-.36.13.48.48,0,0,0-.13.36V30.51c0,2.43.33,4,1.29,5S66.18,37.22,68.49,37.22Z"/>
    <path class="cls-1" d="M49.13,16.26h3.55V36.43a.42.42,0,0,0,.14.36.46.46,0,0,0,.36.14h3a.49.49,0,0,0,.37-.14.5.5,0,0,0,.13-.36V16.26h3.56a.46.46,0,0,0,.36-.13.48.48,0,0,0,.13-.36v-2a.46.46,0,0,0-.13-.36.52.52,0,0,0-.36-.13H49.13a.51.51,0,0,0-.37.13.52.52,0,0,0-.13.36v2a.5.5,0,0,0,.13.36A.47.47,0,0,0,49.13,16.26Z"/>
    <path class="cls-1" d="M67.6,53.76l9.51-5-9.51-5c-12.3,4.79-13.34,4.79-25.65,0l-9.5,5,9.5,5C54.26,49,55.3,49,67.6,53.76Z"/>
    <path class="cls-1" d="M42,56.1l-9.5,5,9.5,5c12.31-4.79,13.35-4.79,25.65,0l9.51-5-9.51-5C55.3,60.89,54.26,60.89,42,56.1Z"/>
    <path class="cls-1" d="M42,68.44l-9.5,5,9.5,5c12.31-4.79,13.35-4.79,25.65,0l9.51-5-9.51-5C55.3,73.22,54.26,73.22,42,68.44Z"/>
  </g>
</svg>
