<svg id="gn" xmlns="http://www.w3.org/2000/svg" width="110" height="92" viewBox="0 0 110 92">
  <defs>
    <style>
      .cls-1 {
        fill: #fff;
      }
    </style>
  </defs>
  <title>gn</title>
  <g id="layer1">
    <g id="g9660">
      <path id="path8659" class="cls-1" d="M75.44,57.57A2,2,0,0,1,74,57L58,41a.38.38,0,0,0-.64.28V55.48a2.08,2.08,0,0,1-2,2.09,2,2,0,0,1-2.05-2v-20a2.11,2.11,0,0,1,1-1.77,2,2,0,0,1,2.49.28l16,16a.37.37,0,0,0,.64-.25V35.57a2,2,0,0,1,2-2.06,2,2,0,0,1,2.06,2v20a2.05,2.05,0,0,1-2,2.09"/>
      <path id="path8665" class="cls-1" d="M47.26,43.52h-6a2,2,0,0,0-2.06,2,2,2,0,0,0,2,2h3.51a.55.55,0,0,1,.53.53v5a.55.55,0,0,1-.53.53H37.36a8,8,0,1,1-.14-16.06h10a2,2,0,0,0,2.09-2,2,2,0,0,0-2-2H37.39a12,12,0,1,0-.17,24.06h10a2,2,0,0,0,2-2v-10a2,2,0,0,0-2-2"/>
    </g>
  </g>
</svg>
