<svg id="louis_poulsen" data-name="louis poulsen" xmlns="http://www.w3.org/2000/svg" width="110" height="92" viewBox="0 0 110 92">
  <title>louis_poulsen</title>
  <g>
    <path d="M13.41,24.05h3.44V41.83H13.41Z"/>
    <path d="M24.58,28.16c4.14,0,6.8,2.81,6.8,7.11s-2.66,7.08-6.8,7.08-6.78-2.81-6.78-7.08S20.46,28.16,24.58,28.16Zm.05,11.24c2.41,0,3.12-2.08,3.12-4.13s-.71-4.15-3.12-4.15-3.09,2.08-3.09,4.15S22.26,39.4,24.63,39.4Z"/>
    <path d="M44.1,41.83H40.79V40h-.08a4.13,4.13,0,0,1-3.87,2.19,4.28,4.28,0,0,1-4.63-4.67V28.64h3.48v7.45c0,2.17.61,3.24,2.23,3.24,1.89,0,2.7-1.09,2.7-3.77V28.64H44.1Z"/>
    <path d="M45.23,28.64h3.53V41.83H45.23ZM48.79,27H45.16V24h3.63Z"/>
    <path d="M52.94,37.55c.23,1.61,1.25,2,2.59,2,1,0,2.34-.2,2.34-1.48,0-1.1-1.41-1.12-4-1.68s-4-1.56-4-3.88c0-3.21,2.94-4.42,5.49-4.42,2.84,0,5.45,1.15,5.73,4.53h-3.4a2.14,2.14,0,0,0-2.43-1.87c-.81,0-1.95.51-1.95,1.2,0,1.25,2,1.3,4,1.79s4.12,1.4,4.12,3.85c0,3.68-3,4.59-5.93,4.59s-6-1.15-6.11-4.64Z"/>
    <path d="M13.36,47.72h3.28v1.69h.05a4.21,4.21,0,0,1,3.8-2.06c4.05,0,5.64,3.28,5.64,7.11,0,3.52-1.84,7-5.51,7a4.3,4.3,0,0,1-3.76-1.89h-.05v6.53H13.36Zm9.2,6.73c0-2-.68-4-2.88-4s-3,2-3,4,.86,3.93,3,3.93S22.56,56.47,22.56,54.45Z"/>
    <path d="M33.53,47.29c4.14,0,6.8,2.82,6.8,7.14s-2.66,7.12-6.8,7.12-6.78-2.83-6.78-7.12S29.42,47.29,33.53,47.29Zm0,11.31c2.43,0,3.15-2.08,3.15-4.13s-.72-4.15-3.15-4.15-3.13,2.08-3.13,4.15S31.15,58.6,33.55,58.6Z"/>
    <path d="M53,60.93H49.66V59.15h-.08a3.91,3.91,0,0,1-3.87,2.16c-3.66,0-4.63-2.32-4.63-5v-8.6h3.48v7.72c0,1.88.77,3,2.33,3s2.59-1,2.59-3.45V47.72H53Z"/>
    <path d="M54.17,43.19h3.46V60.91H54.17Z"/>
    <path d="M61.85,56.66c0,1.42,1.16,2.08,2.67,2.08,1,0,2.29-.29,2.29-1.46s-1.5-1.1-4.09-1.72c-2.44-.59-3.93-1.49-3.93-3.94,0-3.18,3-4.35,5.66-4.35,2.89,0,5.28,1.29,5.56,4.53H66.58c-.1-1.4-1.11-1.85-2.41-1.85-.81,0-2,.44-2,1.26,0,1.08,2,1.24,4,1.73s4.12,1.46,4.12,3.91c0,3.49-2.83,4.54-5.94,4.54s-6.15-1.25-6.15-4.73Z"/>
    <path d="M74.48,55.38c.1,2.29,1.56,3.18,3,3.18a2.11,2.11,0,0,0,2.27-1.51h3.54a5.55,5.55,0,0,1-5.69,4.38c-4.72,0-6.68-2.8-6.68-7.1,0-4.09,2.4-7,6.44-7,4.67,0,6.43,3.6,6.12,8.08ZM79.82,53a2.61,2.61,0,0,0-2.53-2.8A2.81,2.81,0,0,0,74.52,53Z"/>
    <path d="M84.31,47.71h3.34v1.85h.08a4.16,4.16,0,0,1,3.91-2.27c3.74,0,4.68,2.24,4.68,5.51v8.11H92.8V53.46c0-2.17-.5-3.24-2.25-3.24s-2.72,1.1-2.72,3.78v6.91H84.31Z"/>
  </g>
</svg>
