<svg id="lundbeck" xmlns="http://www.w3.org/2000/svg" width="110" height="92" viewBox="0 0 110 92">
  <defs>
    <style>
      .cls-1 {
        fill: #9e9e9e;
      }

      .cls-2 {
        fill: #fff;
      }

      .cls-3 {
        fill: #818181;
      }

      .cls-4 {
        fill: #929292;
      }

      .cls-5 {
        fill: #606060;
      }
    </style>
  </defs>
  <title>lundbeck</title>
  <path class="cls-1" d="M85.94,26.73A5.57,5.57,0,0,1,87,29.86a4.86,4.86,0,0,0,.65,1.54,2.6,2.6,0,0,0,1,1.73c.19.2.34.54.64.59l.56.18c.3,0,.53,0,.82,0l0,0a5.31,5.31,0,0,0,2-.34c.27-.1.62,0,.85-.21.42,0,1,.22,1.21-.22a.87.87,0,0,1,.64-.24,5.75,5.75,0,0,1,1.16-.43c.67-.31,1.36-.58,2-.92.08,0,.15-.08.26-.07a3.46,3.46,0,0,0,1.11-.7c.57-.46,1.4-.31,2-.75.22-.14.47,0,.72-.09.46,0,.75-.48,1.25-.41.68,0,1.51-.34,2.06.22a1.61,1.61,0,0,1,.48.74c.11.65-.47,1.08-.6,1.66-.32.63-1.19.64-1.33,1.34-.29.35-.74.46-1,.81a16.87,16.87,0,0,1-2.3,1.38,3.39,3.39,0,0,1-1.16.81,8.37,8.37,0,0,0-.62.7c-.62.39-1.37.5-1.88,1.14h0c-.3.48-.85.51-1.15,1a2.39,2.39,0,0,0-.89.84c-.25.37-.74.35-.89.8-.14.26-.61.3-.51.67s-.18.41-.31.58a.45.45,0,0,1,0,.36l.07.66s-.05,0,0,.09c.19.15.46.16.59.41.06.56.73.44.92.94s.3.84.63,1.18a1.31,1.31,0,0,0,.51.85q.39.55.72,1.14a3.6,3.6,0,0,0,.57.39c.6.6.84,1.36,1.45,2,.24.33.64.59.74,1a4.36,4.36,0,0,1,.58,1.11,1,1,0,0,1,.42.63c.52.3.47,1,.86,1.37a2.19,2.19,0,0,1,.62,1,2.19,2.19,0,0,1,.63,1.79c0,.57.54.92.5,1.52a1.23,1.23,0,0,1,0,1c-.26.19-.18.52-.3.78-.21.44-.61,1-1.14,1a3.19,3.19,0,0,0-1.21.25,2.44,2.44,0,0,1-1.39-.49c-.33-.19-.52-.6-.89-.7-.2-.23-.29-.52-.55-.7s-.51-.48-.72-.79a9.15,9.15,0,0,0-1.49-1.75c-.48-.47-.71-1.07-1.21-1.55a4.34,4.34,0,0,1-1.15-1.42c-.49-.59-1.17-.88-1.58-1.53a1.24,1.24,0,0,0-.48-.28,6.44,6.44,0,0,0-1.25-1.25,2.46,2.46,0,0,0-.38-.14c-.33-.51-.86-.5-1.25-.86a1.51,1.51,0,0,1-.42-.25c-.33-.06-.73-.06-.88-.39-.12-.06-.36,0-.43-.16a.69.69,0,0,0-.32.16c-.5-.28-.67.48-1.13.46a5.8,5.8,0,0,1-.6.13,5.28,5.28,0,0,1-.9.5,1.37,1.37,0,0,0-.38.63A5.37,5.37,0,0,1,82,53.2c-.37.56-1.08.93-1.23,1.59a5.62,5.62,0,0,1-.82,1.1c-.15.2-.4.25-.6.37a12.18,12.18,0,0,1-1.92,2.41l-.29.26a.58.58,0,0,1-.15.5,16.75,16.75,0,0,0-1.93,2.34c-.21.15-.56.28-.46.63-.09.46-.52.76-.86,1.08a3,3,0,0,1-.62,1,4.51,4.51,0,0,1-1.31,1.37c-.17.35-.7.37-.67.8a2.69,2.69,0,0,1-1.06,1.2,3.17,3.17,0,0,1-1.22.79c-.25-.11-.35.21-.56.24-.5-.27-.89.41-1.3-.07a3,3,0,0,1-.63-.25,2.41,2.41,0,0,1-.24-2.43c0-.4.29-.74.35-1.13a3.19,3.19,0,0,1,.46-.69,3.63,3.63,0,0,1,.31-.66,4.37,4.37,0,0,1,.43-.93c.17-.32.14-.73.36-1a5.85,5.85,0,0,0,1-1.81,6.76,6.76,0,0,0,.67-.85c.31-.89,1.21-1.53,1.71-2.33a3.82,3.82,0,0,0,.82-1.34c.36-.64,1.08-1,1.28-1.75a11.8,11.8,0,0,0,1.37-2c.12-.29.38-.52.43-.84,0-.73.62-1.21.75-1.88a5.42,5.42,0,0,1,1-2.19c0-.47.48-.79.41-1.29-.09-.2-.34-.27-.5-.44a1.47,1.47,0,0,0-1.14-.53,2.24,2.24,0,0,0-.45-.09c-.62-.25-1.3-.38-1.93-.61a2.65,2.65,0,0,1-1-.79L72,42.61c-.73.1-1.22-.51-2-.46a19,19,0,0,1-2.4-.7c-.43-.48-1.14-.35-1.47-1-.3-.18-.69-.28-.82-.66a.65.65,0,0,1-.05-.46,3.7,3.7,0,0,1,.68-.75c.26-.21.58-.15.91-.18A13.6,13.6,0,0,0,69.78,38a3.67,3.67,0,0,1,1.32,0,12.08,12.08,0,0,0,1.59-.06,5.17,5.17,0,0,1,1,0,10.25,10.25,0,0,0,1.37-.15,2.36,2.36,0,0,0,1.64-.22c.51-.19,1.07-.21,1.58-.41a1.4,1.4,0,0,1,1-.64c.19-.3.49-.36.75-.56a7.71,7.71,0,0,1,.74-.77,2.34,2.34,0,0,1,.19-.82c.62-.45.32-1.28.72-1.83a4.55,4.55,0,0,1,.56-1.37c.12-.18,0-.46,0-.68s.55-.63.68-1c0-.21-.06-.45,0-.65a2.82,2.82,0,0,1,1-1.83c.34-.25.65-.66,1.13-.45a1.58,1.58,0,0,1,.75.19Z"/>
  <g>
    <path class="cls-2" d="M45.22,48.29a.8.8,0,0,0,.76-.83s0-1.84-1.7-1.84a3.26,3.26,0,0,0-2.79,2c-1,0-2,0-2.19,0,0,0-.11-1-.84-.87,0,0-1.2.37-.34,1.45a.74.74,0,0,0,.34.21s.7,1.23-.42,1.83c0,0-1.16.73-1.13-1.86,0,0,.05-6.84-.16-8.41a1.85,1.85,0,0,0-1-1.36s-.39-.24-.42.26L35.26,49.5a1.51,1.51,0,0,0,.65,1.31,2.3,2.3,0,0,0,3.41-.47,2.38,2.38,0,0,0,.13-2h1.78a4.32,4.32,0,0,0-.1.56,2.06,2.06,0,0,0,2.18,2.41,2.75,2.75,0,0,0,2.38-1.78s.16-.68-.47-.11c0,0-.94,1.5-2.12.69a2.08,2.08,0,0,1-.46-1.78Zm-2.07-1.41s.68-.94,1.26-.73a.83.83,0,0,1,.36,1.2s0,.34-1.7.24h-.25a4.89,4.89,0,0,1,.33-.71Z"/>
    <path class="cls-2" d="M53.46,38.43a1.16,1.16,0,0,0-1.32,1.27l0,7.33c-.25.72-1.2,2.69-2.6,3.15,0,0-1.78.58-1.5-1.6a3.88,3.88,0,0,1,1-2.25s.79-.7.82.36V47a.41.41,0,0,0-.24.57s.34.88.81.54a.58.58,0,0,0,.18-.34,2,2,0,0,0-.39-2s-1.53-1.23-3.3,1.08c0,0-1.7,2.91.74,4,0,0,2.45.94,4.44-2.16v2.11s-.1.18.42.13c0,0,.81,0,.92-.5V49a.7.7,0,0,0,.49.3,2.25,2.25,0,0,0,1.59-.12,1.62,1.62,0,0,1,.56,1.43c.08.69,0,9.23,0,10.46a2,2,0,0,0,1.15,1.73c.45.26.42-.26.42-.26l-.15-11.06c0-1.81-.92-2.42-1.49-2.62a2.94,2.94,0,0,0,.47-.41A1.7,1.7,0,0,0,56,45.49a2.46,2.46,0,0,0-2.5.75V38.55c0-.12-.09-.12-.09-.12Zm1,9.89a1.88,1.88,0,0,0-.76.16.47.47,0,0,0-.21.21V47.28a2.5,2.5,0,0,1,1.41-.77.88.88,0,0,1,1,.89s0,1.08-1.39.92Z"/>
    <path class="cls-2" d="M33.7,49.76c-.09-.62,0-9.75,0-9.75a1.72,1.72,0,0,0-.56-1.22s-.49-.52-.74,0c0,0,0,4.05,0,7.52h0a3,3,0,0,0-4,.7,3.26,3.26,0,0,0-.75,2.45c-.22.24-.67.68-.82.24,0,0-.21-1.25-1-1.3,0,0-.34-.16-1,.74,0,0-.31.38-.35-.28,0,0,0-1.36-1-1.26,0,0-.56-.07-1.72,1.68,0,0-.62.66-.73-.18,0,0,0-2.65-1.15-1.6,0,0-1,1.08-1.72,1.92,0,0-.48.42-.55-.35,0,0,0-3.08-.91-3.08,0,0-.84-.28-1.54,2.8,0,0-.13,1.85-1.5,1.57a49.12,49.12,0,0,0-5-.57A2.78,2.78,0,0,0,9,49.2a10.46,10.46,0,0,0,.7-4s-.07-11.87-.49-13.09c0,0-.21-.73-.73-.45,0,0-.87-.07-.73,5.27,0,0,.1,8.27.21,10.13a5.67,5.67,0,0,1-.31,2.68A8.47,8.47,0,0,0,4.38,50s-1.24.68,0,1.19a4.86,4.86,0,0,0,3.45-.49,36.54,36.54,0,0,0,6.27.66,1.42,1.42,0,0,0,1.53-1.08c.58-1.45.7-.28.7-.28,0,1.44.49,1.54.49,1.54.6.45,2-1.33,2-1.33.84-1.29.84-.56.84-.56-.07,1.29.7,1.58.7,1.58.94.34,1.95-1.37,1.95-1.37.77-1.33.88-.73.88-.73a14.6,14.6,0,0,0,0,1.67c.28,1.3,1.75-.42,1.75-.42.42-.66.49-.38.49-.38.24,1,.94,1,.94,1,.61,0,1.2-.7,1.48-1.1a2.45,2.45,0,0,0,.3.44,2.3,2.3,0,0,0,3,.45,6.32,6.32,0,0,0,1.31-1.42c0,.5,0,.92,0,1.21,0,0,.18,1,1,.28,0,0,.21-.07.26-.59a5.51,5.51,0,0,0,0-.56Zm-2.24-.52c-1.75,1.5-2.24-.07-2.24-.07-.24-2.2,2.17-2.45,2.17-2.45a1.43,1.43,0,0,1,1,.33v.87a3.15,3.15,0,0,1-1,1.32Z"/>
    <path class="cls-2" d="M21.88,55.18s7.41-.32,21.29,0a1.85,1.85,0,0,1,1.36.59l-21.46.91s-3.25-.07-2.13-1.15a1.81,1.81,0,0,1,.94-.35Z"/>
  </g>
  <path class="cls-3" d="M68.43,67.52c0-.09.16-.09,0-.17s-.49.47-.54,0c-.11-.07-.22,0-.31-.05s-.1.16-.21.15c-.29.13-.31-.33-.51-.34.06.05,0,.16,0,.22a.11.11,0,0,1-.12.05c-.06-.1-.2-.15-.12-.29s0-.14.1-.17-.17,0-.19-.14.12-.49-.06-.7c0-.12,0-.25.06-.32s0-.19.14-.24-.12-.34,0-.53.19-.25.36-.17c.16-.07,0-.16,0-.24.25-.15,0-.44.12-.69s.11-.33.31-.37c0,0,.11.05.15,0,.22-.12.07-.33.26-.46-.09-.13,0-.26,0-.39s.12-.15.22-.14.18.05.24.14c.07-.08.17,0,.19-.09a.67.67,0,0,0,.31-.19c0-.21-.29-.2-.19-.41a.25.25,0,0,1,.17-.2c.13,0,.15.17.26.12s-.07-.12,0-.21a.56.56,0,0,1-.33-.36c.08-.11.06-.28.16-.37-.08-.1,0-.18,0-.26s.43-.09.57-.29a.12.12,0,0,1,.11,0c0,.13-.1.24,0,.36s0,.07,0,.1.1-.12.17-.1a.7.7,0,0,1,0-.55s0-.1-.08,0a.21.21,0,0,1-.17,0c-.08,0-.09-.11-.09-.19.18-.08.24-.39.48-.27l.08.07c0-.06,0-.14,0-.21s0-.24-.19-.19,0-.23,0-.34.12-.21.26-.24a.71.71,0,0,0,.21-.63.48.48,0,0,1,.34-.28.22.22,0,0,0,.13,0c.21-.11-.11-.19,0-.32s.24-.35.43-.28.19.16.12.31-.18,0-.23.12a.19.19,0,0,0,.21.1.33.33,0,0,0,.14-.27,2.1,2.1,0,0,1-.17-.57c.08-.13.28-.23.27-.41.17-.11.37-.19.45-.37s.25,0,.26-.16c-.1,0,0-.17-.13-.22a.86.86,0,0,1,.28-.63.35.35,0,0,1,.31.17s0,.05,0,.07.06-.13.12-.17a1.24,1.24,0,0,1,.21-.83c.1-.17.38-.06.39-.31-.05-.05,0-.13,0-.18a.2.2,0,0,1,.17-.05c-.1.19.16.38-.09.52l-.17-.08s0,.1,0,.16.21-.09.37,0,.18,0,.27-.08.12-.12.06-.19a.27.27,0,0,1-.18.05c-.09-.11,0-.2-.1-.31s.08-.11.14-.15.21-.17.29-.24-.16,0-.19-.07a.16.16,0,0,1,.07-.17c-.07-.09.07,0,.08-.1s.15-.18.26-.16.11.09.09.17-.28.1-.22.26c.07-.06.18,0,.23-.12s0-.15.07-.15h0c0-.17-.09-.39,0-.55a2.78,2.78,0,0,0,.43-.41c.08-.15.25,0,.3-.19v0c-.07,0-.17,0-.26,0-.12-.21.2-.31.11-.54.1,0,.22-.34.36-.13.31-.2.23-.57.51-.79l.27-.25c0-.09-.06-.09-.1-.12s-.21.08-.29,0a.42.42,0,0,1-.07-.36c.07-.06.19-.07.19-.19s.1-.33.21-.47c.07,0,.09-.08.15-.09a.29.29,0,0,1,.24.2c-.06.2-.24.22-.34.38a.15.15,0,0,0,.07.17c.14-.08.1-.27.25-.34l.11-.48c-.07-.05-.1,0-.17,0s-.29-.15-.26-.33,0-.19.15-.21a.08.08,0,0,1,.09,0,.11.11,0,0,0,0,.18l0,0c.06-.12,0-.27.1-.38s.17-.15.29-.13.29-.25.29-.43c.19-.18,0-.35-.12-.51.1-.18,0-.44.18-.59a.74.74,0,0,1,.1-.35c.08,0,.2-.15.27,0s-.06.47-.12.68.07.14.1.21,0-.11.11-.15a.91.91,0,0,0,.17-.17c0-.13,0-.18,0-.29-.18-.08,0-.27-.13-.38,0-.24-.16-.4-.12-.65a.36.36,0,0,1-.07-.36c0-.28.47-.07.43-.41,0-.16-.16-.14-.21-.26s-.17-.18-.15-.31.13,0,.08-.1-.08-.15-.12-.22c-.23-.09-.4.15-.63,0-.06-.07-.18,0-.21-.12s.19-.27,0-.38-.27.12-.36,0-.17,0-.24.08-.26,0-.39,0c-.29-.16-.71,0-.91-.39-.16,0-.29-.11-.44-.12-.14-.17.12-.31.06-.48s-.31.1-.46,0-.07-.14-.13-.21-.41.15-.6,0a.71.71,0,0,1-.15-.36c-.17-.33-.56.16-.73-.22-.22-.08-.34.2-.58.15s-.29-.24-.51-.15-.37-.19-.62-.12-.11-.49-.43-.31a.85.85,0,0,1-.68.09c-.13-.14-.19-.49-.46-.38a1.19,1.19,0,0,1-1,.12c-.11-.21-.49-.12-.48-.41s-.12-.18-.24-.13a.26.26,0,0,1-.24.06c-.07-.15-.26-.2-.41-.27s-.28,0-.34-.15a.4.4,0,0,0-.26-.35.32.32,0,0,1,.07-.32c.19-.2.23.14.41.1,0,.25.41.23.29.51.11.11.2.33.38.21l0,0c-.3-.07-.15-.45-.39-.55s-.25-.38-.53-.41c0,0-.07-.12-.14-.09s-.13.26-.27.19,0-.21,0-.31.22-.1.33-.15,0-.15,0-.2.15-.16.26-.21.32.17.46,0c.13,0,.21-.1.33-.12a1.5,1.5,0,0,1,1.24-.1c.31-.07.75-.32,1,0a.22.22,0,0,1,.25.18s0,.12.07.13c.34,0,.34-.38.65-.4s.49-.13.67.1c.46.07.65-.51,1.1-.49s.56.35.88.1a.83.83,0,0,1,.57-.1.5.5,0,0,1,.34.2.26.26,0,0,0,.1.19c.42.16.63-.29,1-.13.3-.08.24.52.54.19,0-.12,0-.28.15-.31a1.14,1.14,0,0,1,.71,0c.62,0,1-.62,1.59-.75A1.24,1.24,0,0,0,79.36,37c.11-.31,0-.74.41-.9s.68,0,.84-.24c0-.16-.32-.16-.22-.36a.32.32,0,0,1,.39-.09.38.38,0,0,0,.24.14c.09-.15-.08-.28,0-.46s.31-.57.62-.58a.28.28,0,0,0,.08-.31.45.45,0,0,1-.13-.41c.07-.31.5-.49.34-.87a1.74,1.74,0,0,1,.49-1.34,4.31,4.31,0,0,1,.23-1.09c.28-.31.21-.77.46-1.1A8.09,8.09,0,0,1,83.28,28c.22-.29.54-.51.58-.87a3.57,3.57,0,0,1,.94-.68c.32-.06.54.24.86.18a.55.55,0,0,1,.36.25c0,.13.17.16.17.3a3.08,3.08,0,0,1,0,.8c.07.05.18.09.2.19.2.31-.3.31-.17.6s.17.5.14.78c0,0,0,.08-.09.11a.46.46,0,0,1,.21.13c0-.14.1-.18.2-.25a.14.14,0,0,1,.18.1.43.43,0,0,1-.09.34.18.18,0,0,1-.22,0s0-.07-.07-.06c.09.36-.5.36-.33.69.17,0,.24.07.33.17s0,.09,0,.12.1-.21.22-.15,0,.14,0,.19-.15.12-.24.07c-.06.23-.35.17-.4.37.22,0,.34-.18.5-.31.27,0,.32-.35.6-.17s0,.55.27.45.34.39.38.63a.41.41,0,0,0,0,.46c.1.16.29.1.36.26.2-.06,0,0,.12.09a1.16,1.16,0,0,1,0,.49v.19c.19,0,.47-.07.6.12.07,0,.09.08.14.12a.79.79,0,0,1,0,.34c-.07.16-.33.14-.26.31.4,0,.21-.69.7-.53.18.14.41.46.67.32a.61.61,0,0,1,.34-.25.81.81,0,0,0,.74,0c.27-.05.46.15.73.07a.86.86,0,0,1,.87-.16c.42,0,.7-.31,1.09-.35.17.12.32-.08.44.12.42-.19.29-.45.6-.4.16-.12.4.27.34-.1.09,0,.18-.08.25,0a.25.25,0,0,0,0,.17c.16-.06.23-.21.38-.31s.23-.13.36-.07.18,0,.19.16c.16-.06.1-.28.19-.4s.12-.19.23-.23.2,0,.19.11v.06c-.09.07-.16.2-.25.27.11,0,.18-.12.29-.15.27-.16.26-.68.65-.55,0,.08.1.17.2.15s.12-.43.41-.34c.09,0,0,.22.17.2s.16,0,.21-.08,0-.41.21-.48.27,0,.42-.05a.65.65,0,0,1,.67-.28c0-.21.25-.2.28-.39a.25.25,0,0,1,.25.05c.14-.11.06-.36.27-.37s.25-.18.42-.06c0,.1-.12.12-.12.21a.29.29,0,0,0,.27-.1c.06-.27.51-.43.81-.47a8.66,8.66,0,0,0,.94-.33c.2,0,.31.19.51.12a.69.69,0,0,1,.56-.14c.24,0,.28.39.55.25.08,0,.16.08.21.12l-.07.11c.07.06.18.06.22.17s0,.19-.12.2a1.3,1.3,0,0,0-.38.21c.09.12.27.06.4.05s.11-.34.2-.31c.38.28-.42.58.1.79.14.1,0,.28,0,.39s-.25.14-.13.31-.14.27-.18.36a.51.51,0,0,1-.22.19.13.13,0,0,1,0,.23s0,0-.07,0a.11.11,0,0,1-.05-.13s.27-.12.27-.15a.65.65,0,0,0-.43.15c0,.06.21.16.19.2a.5.5,0,0,1-.25.26c-.08,0-.16-.08-.21,0,0,.52-.37.35-.63.64s-.55-.19-.78.09-.35.29-.57.38,0,.33-.14.44c-.24.29-.7-.15-.85.24.06,0,.17,0,.17.1a.51.51,0,0,1-.22.4.91.91,0,0,0-.43.27c-.12.09-.32,0-.39.19s-.71-.1-.57.36c-.1.12-.29.18-.34.36a.36.36,0,0,1-.36.08s-.09-.08-.13-.12-.14,0-.18.09.09.25,0,.37a.8.8,0,0,1-.77.19c-.17,0-.17-.3-.35-.24s0,.1,0,.16a.22.22,0,0,1,.1.27.67.67,0,0,1-.25.16.2.2,0,0,1,0-.25.66.66,0,0,0-.15,0c0,.11-.27.17-.17.33s0,.12,0,.18c-.16.33-.58.09-.81.31-.05.2-.27.24-.41.36s-.44-.13-.61.07c-.07,0-.15-.06-.22,0s.15.42-.16.5c-.06,0-.14,0-.19.06l0,.14c.1,0,.18,0,.29,0a.15.15,0,0,1,0,.1c-.1.05,0,.17-.12.22s-.41.23-.6,0a.09.09,0,0,0,0,.14l.17.12c0,.11,0,.3-.17.29s-.21.35-.34.14.16-.17,0-.17-.09.28-.24.2-.06-.21-.09-.32a.33.33,0,0,0,0,.29.46.46,0,0,1,.08.41.48.48,0,0,1-.18.22c-.14.11-.38-.16-.43.1-.13.11-.22-.14-.38-.05s0-.26-.19-.27c-.08-.08,0-.2-.1-.29.16-.07.22.18.36.12a.54.54,0,0,0,.31,0c.1,0,.18-.19.29-.23v0a1.55,1.55,0,0,1-.56-.23c-.1-.28-.61-.09-.5-.46-.16-.11-.37,0-.54,0,.07.14.25.4.21.61s-.29.09-.15.24,0,.1-.09.13h-.1c0,.12,0,.29-.13.34s-.21,0-.26.09.22,0,.32.1a.47.47,0,0,1,.26.24c0,.15-.17.24-.07.37.07,0,.15,0,.21,0a.41.41,0,0,1,0,.31c.25.17.53.35.53.68a1.28,1.28,0,0,1-.17.29l-.15.19c.1.07.3-.1.36.1s-.55.64-.41.74a.62.62,0,0,1,.43.22c.08.08,0,.24.17.28a.5.5,0,0,1,.36,0c.09.09,0,.15.07.23s-.11.28.09.28.41-.1.44.12.18.54.46.6-.14.46.16.25c0,.05.16,0,.17.14s0,.12,0,.19c.36,0,.21.58.61.48a.27.27,0,0,1,.12.27.58.58,0,0,1-.1.21c.13.11.43.13.41.39,0-.07.09,0,.14-.07a.2.2,0,0,1,.07.24s-.07,0-.11,0l-.1-.13c-.13.13-.3.31-.21.53a.58.58,0,0,0,.35.24c.15-.06.32-.19.49-.09s.48.22.42.5c.1-.19,0,.43,0,.39l.07,0c.06-.06,0-.17,0-.24s.23.08.33,0c.18.23.4.16.22.67-.08.07.35-.14.49-.09s.32.31.23.53-.17.17-.11.28.55-.55.68-.36.33-.06.46.14,0,.35.18.44c0,.11-.34.56-.39.24a.54.54,0,0,1-.27-.45s-.13.13-.16.15c.09.29.11.47.18.77.06,0,.21-.27.3-.17a3.14,3.14,0,0,1,0,.76c.06.12.16,0,.23,0s.14.25.24.35,0,.16,0,.21a.18.18,0,0,1,.2,0,.88.88,0,0,0,.26.34.37.37,0,0,1-.12.27.27.27,0,0,1-.27-.14s0,.11,0,.14c.15.08.3.25.52.07a.31.31,0,0,1,.2.2c.06.26-.5.31-.16.54,0-.09,0-.21.1-.25a.56.56,0,0,1,.38.38c0,.15.14.27.12.45s.15,0,.2.13a.12.12,0,0,1-.12.17c-.06,0-.12,0-.14.07s.09.16.14.2.16,0,.17.13a1.94,1.94,0,0,1-.23.27c.4,0,0,.7.47.38.11,0,.13.11.16.18a.76.76,0,0,0,0,.59c.11,0,.23,0,.23.15a.51.51,0,0,0,.06.44c.17.11.45.18.45.43.12,0,.23.16.29.26s0-.32.38,0c0,.14,0,.43-.09.5s-.15.18-.22.11c0,.13-.06,0,0,.18s.31.35.23.59-.25.27-.21.47-.12.32-.25.42-.2.16-.33.16c-.12.16.09.55-.24.61-.32.24-.65,0-1,.16-.12.07-.2-.05-.29-.09l-.09-.15c-.11.11-.27.07-.41,0s0-.34-.24-.31c0,0,0,.06-.07.09s-.14-.15-.25-.12c-.25-.17-.23-.47-.23-.72s-.09-.08-.17-.1a1.12,1.12,0,0,1-.41-.48.4.4,0,0,1,.06-.22c.09-.06.17,0,.26.07a.5.5,0,0,0,.15.53c0-.09-.15-.16,0-.26s.09-.09.1-.16c-.26,0-.09-.46-.43-.32,0,0-.08-.13-.13-.08s0,.12,0,.17-.11,0-.17,0a.14.14,0,0,1-.06-.12s.06-.08.11-.12h.06s0-.13,0-.13-.29.11-.26-.09c.13,0,0-.16,0-.22-.13-.14-.31-.28-.24-.48l-.11-.09c-.06.09-.07.27-.23.17s-.37-.38-.14-.58c.08-.06.14-.14,0-.2s-.19,0-.32,0-.1-.42-.34-.32-.17-.08-.23-.12,0-.3-.2-.31-.21,0-.2.08.31,0,.29.17c0,0,.11.06.1.14s-.08.09-.09.16a.29.29,0,0,1-.24,0c0-.13-.24-.19-.17-.39-.18-.15-.18-.36-.34-.52.06-.19-.08-.36-.24-.48a.37.37,0,0,0-.15,0c-.06-.12,0-.27-.12-.31s-.28,0-.41,0-.3-.2-.28-.39a1,1,0,0,1-.49-.45c-.1-.18.07-.51-.24-.56-.09,0-.19.1-.28,0s-.3-.13-.37-.29a2.7,2.7,0,0,0,.08-.58c-.12-.06-.18-.24-.32-.25s-.26.18-.41.12-.28-.15-.21-.33,0-.09-.08-.1a.47.47,0,0,1,0-.29c0-.06-.1-.16-.19-.16s.08-.21-.07-.22c0,.25-.27.06-.36.21s-.23-.15-.32-.21,0-.08,0-.12.12,0,.14-.07.25,0,.26-.12c0,0,.05,0,.07,0s-.2,0-.32,0a.2.2,0,0,1-.06.09c-.12,0-.18-.19-.31-.17-.15-.17-.18.23-.34.07s-.17-.3-.28-.43a.69.69,0,0,1-.51,0c-.08-.06-.07-.15-.08-.25s.15-.18-.06-.29a1.17,1.17,0,0,1-.38,0c-.13-.06-.08-.2-.13-.31a.17.17,0,0,0,0-.18A.23.23,0,0,0,89,50c0,.06,0,.16-.11.2s-.18-.06-.25-.12,0-.34-.14-.37a.07.07,0,0,1,0-.11c-.15,0-.15-.19-.31-.08s-.06.11-.1.17-.13,0-.15-.1-.06-.26-.19-.31,0-.17-.07-.26-.11,0-.17-.08l0,0c.09,0,.09.1.16.18a.53.53,0,0,1,0,.18c-.31,0-.48-.22-.75-.1-.13-.07-.34.22-.3-.07,0-.09-.1-.1-.17-.07a.59.59,0,0,1,0,.2c-.17,0-.28.42-.43.13-.05,0,0-.09,0-.14-.18,0-.26.29-.48.14-.22,0,0,.27-.26.34s-.25.1-.37.08,0,0-.07,0l-.06.06c.1,0,.08.13.13.18a.59.59,0,0,1-.14.23c-.08-.1-.27,0-.26-.12s.14,0,.14-.09c-.28,0-.57.28-.84.07,0-.09-.15,0-.22-.07s-.25.31-.27.46c.12,0,.08-.14.13-.2s.1-.17.21-.14,0,.2.1.31a.63.63,0,0,1-.1.27c-.16.07-.29.21-.48.16s-.08-.29-.22-.12c0,.13.24.13.17.29.07,0,.14-.07.2,0s0,.12,0,.17a.77.77,0,0,1-.27.17l-.09-.12a.93.93,0,0,1-.19.21c.14,0,.12.24.08.34s-.1.14-.18.08-.07,0-.1,0,0,.23,0,.36a.27.27,0,0,1-.14.19c-.15,0-.36-.23-.45,0-.16.06-.35-.14-.44.12,0,0,0,.07,0,.1s.18-.17.27-.06-.16.16-.22.3c-.09-.09-.26,0-.32-.15s.11-.12,0-.17a.24.24,0,0,1-.21,0c0-.1-.16,0-.22,0a1.71,1.71,0,0,1-.36.35.08.08,0,0,0,0,.09c.14-.06.24-.36.41-.17s.24-.06.33.07a.15.15,0,0,1-.09.18s-.1,0-.15,0-.15.1-.24.15-.14-.06-.21-.07,0,.13,0,.18.12,0,.18.08,0,.29-.15.32a.1.1,0,0,1-.12-.06c0-.06,0-.13,0-.17h0c0,.14-.27.34,0,.46.06.13,0,.24-.06.35a1.29,1.29,0,0,1-.26.08s0,.09,0,.15-.3,0-.29.2-.2.35-.34.21.13-.37.12-.58.26,0,.24-.14-.23,0-.34,0,.07.45-.21.46c-.12.05-.17-.09-.26-.1-.3.12,0,.54-.37.63s-.31-.17-.46,0-.21-.08-.24.07c.12.15-.08.28,0,.41.1,0,.27,0,.34-.12a.26.26,0,0,1,0-.24l.14-.1c.07,0,.06.14.15.17s.2-.24.42-.19c0,0,0,0,0,0,0,.21-.21.28-.13.51,0,.08-.1.19-.2.22s-.13,0-.19,0c-.16.16,0,.38-.19.54a.33.33,0,0,1-.37.11c-.06,0-.14-.06-.17,0-.06.25-.06.6-.35.74s-.24-.09-.34-.19c-.08.11-.09.31-.27.33s0,.11-.06.15-.18.2-.28.06l-.06,0c0,.16-.3.24-.12.43h0s0,.07.1,0,0-.11,0-.15.2-.25.36-.21.24.13.16.28-.37.11-.29.34a.62.62,0,0,1-.16.2.43.43,0,0,1-.22-.06c-.09,0,0,.13-.07.2a.19.19,0,0,1,.08.22c-.09.08,0,.36-.2.27,0,0-.08-.11-.14-.11s-.05.21.07.27.24.26.14.44-.22.2-.38.18c0,.45-.53.67-.63,1.07-.14.24-.64,0-.53.43-.13.39-.72.09-.74.57-.08.24-.38.08-.51.27,0,0,.12.07.07.14a.61.61,0,0,1-.26.19s0-.11,0-.16.2,0,.24-.15-.17,0-.23,0c-.15.18,0,.51-.3.6-.09,0-.19,0-.22-.12l0-.25c-.08,0-.1.06-.15.1s.06.2,0,.31a.8.8,0,0,1-.76.3.54.54,0,0,0-.25.38c.14.17-.07.43.13.58a.58.58,0,0,1,0,.43c-.06.2-.28.12-.41.17.13.08.11.24.08.36a.28.28,0,0,1-.36.08.42.42,0,0,1-.12-.08c0,.08-.2.18-.11.31a.22.22,0,0,1,.06.31c-.07.06-.15-.07-.2,0s0,.38-.17.43-.35,0-.5,0-.23.34-.41.46c0,0,0,.06,0,.08s.32,0,.26-.27.15-.25.28-.24a.18.18,0,0,1,.06.22c-.13,0-.12.14-.14.22l.1,0a.4.4,0,0,1-.17.29c-.11,0-.09-.16-.19-.12s-.13.12-.18.05l-.07-.13c-.08.15-.24.13-.36,0s-.07,0-.12,0-.06-.09-.12-.06-.08.22-.21.28c.16.11.12-.22.29-.08a.31.31,0,0,1,0,.31c-.11.11-.24,0-.36,0Zm1.3-.46h0v0h0v0Zm-2.85-2.31a.35.35,0,0,0,.1-.22s0-.12-.1-.09-.16.09-.14.19a.15.15,0,0,0,.14.12Zm4.68-.57a.06.06,0,0,0,0-.1h0s0,0,0,.07,0,0,0,0Zm.09-.17a.27.27,0,0,0,.15-.27c0-.09-.07-.18-.18-.17s-.1.16-.11.29,0,.15.14.15ZM68.4,62.47c.06-.12.19-.25.12-.42s0-.27-.12-.38a.17.17,0,0,0-.21.07c-.11.14,0,.26.07.39a.25.25,0,0,0-.1.31.17.17,0,0,0,.24,0Zm4.34-.21c0-.13.17-.1.21-.18-.23-.17.16-.35-.07-.53-.22,0-.15.23-.24.34a.34.34,0,0,0,.1.37Zm1.45-1.17a.54.54,0,0,0,.26-.16s.07-.06,0-.1-.09-.19,0-.27.13-.09.07-.15c-.14.2-.35.21-.58.47a.47.47,0,0,1,.25.21Zm27.7-.19c.14,0,.2-.13.29-.18s.2-.27.07-.4-.09.14-.21.12c0,.15-.15,0-.22.17s0,.24.07.29Zm-26.5-.55,0-.11c-.08,0-.15-.14-.23,0s.13.09.18.15Zm27.31-1.3c.07,0,.07-.13.06-.22s-.06-.15-.15-.13a.15.15,0,0,0-.12.2c0,.08.09.19.21.15Zm-5-1.2c-.21-.13.11-.21,0-.37l-.13-.1-.07.07c-.07.14.07.31.17.4ZM96.19,56.2v-.27c0-.09-.07-.21-.19-.19l-.12.16s0,.34,0,.35.21-.15.2-.12,0,.07.11.07Zm-1-.64s0-.1,0-.11-.2,0-.19.1.18.15.2,0Zm.26-.27a.29.29,0,0,0,0-.24c-.06,0-.11-.12-.18-.08s0,.32.17.32Zm-17-.53c.09-.16.32-.19.39-.34s0-.05-.08,0-.06-.18-.11-.28-.22,0-.27.11,0,.37,0,.52c0,0,0,0,.07,0Zm1.5-.25.07,0s-.08-.09-.1,0l0,.09Zm19.89,1.22a.53.53,0,0,0-.22-.54c.15.22-.2.34-.08.54s.22.05.3,0Zm-26-1.91s-.06-.13-.13-.08v0c-.08.13.17.13.13,0Zm5.07-.14a.29.29,0,0,0,.15-.25s0-.12-.12-.09a.4.4,0,0,0-.24.41c.09,0,.13-.11.21-.07Zm.66-.15c.14-.09.24-.28.42-.28a.14.14,0,0,0,.06-.15.94.94,0,0,0-.51.19c0,.07,0,.2,0,.24Zm13.36-.12c.07,0,.08-.13.09-.21s-.09-.35-.28-.25c0,.12-.16.16,0,.29s.12.18.23.17Zm6.34.27c.13-.12-.09-.13-.12-.22s0-.29-.12-.31a1.67,1.67,0,0,1,0,.38c.06.06.17.17.27.15Zm.17-.29-.07-.29c0,.06-.09.08-.08.15a.49.49,0,0,0,.15.14ZM92,52.26s0,0-.06,0-.06,0-.06,0a.06.06,0,0,0,.12,0Zm-.14,0s0-.14,0-.17a.09.09,0,0,0-.14,0,.31.31,0,0,0,.15.15Zm-10.46.13c.09-.09.25-.08.28-.22.23,0,.14-.1.16-.15s0-.12,0-.24c-.27.34-.46.06-.51.56,0,0,0,0,.08,0ZM91,51.68s.18,0,.17-.11-.09,0-.16,0-.06-.14-.14-.07.08.15.13.22Zm-15.56-.27c.13,0,.07-.2.11-.29a.06.06,0,0,0-.09,0c-.1,0-.16.15-.19.25a.14.14,0,0,0,.17.09Zm.54-.15c.08-.12.19-.34.13-.43,0,.07-.09.26-.22.18,0,.08,0,.21.09.25Zm-.29-.33s-.07,0-.11,0V51a.06.06,0,0,0,.11,0ZM88.33,50c.06.08.11,0,.19,0s0-.14,0-.19-.07-.08-.12-.1-.11-.05-.17-.07a.19.19,0,0,0-.07.12,1,1,0,0,0,.16.26Zm-11.64-.86A.5.5,0,0,1,77,49c.12,0,.11-.14.09-.22a.31.31,0,0,0-.28,0c.07.18-.22.14-.12.32Zm10.63-.07s0,0,.07-.07,0,.07-.07.07Zm-9.84-.68c.09-.08.26,0,.27-.19a.56.56,0,0,0-.25-.48v.07c.12.09,0,.23.08.36a.94.94,0,0,0-.12.22l0,0Zm-.6-.12c.07-.09.17-.18.17-.31s.12-.24,0-.36-.17,0-.2,0-.24.28-.16.5a.21.21,0,0,0,.17.12ZM92.8,45.94c0-.06.31-.38.38-.37s-.38,0-.38-.14l-.22.14a.45.45,0,0,0,.22.37ZM77.58,45.1a.16.16,0,0,0,.09-.17.17.17,0,0,0-.15-.08.16.16,0,0,0-.09.11s.06.17.15.14ZM94,44.62c.07,0,.18,0,.13-.14a.3.3,0,0,0-.34-.19v.17a.27.27,0,0,0,.2.16Zm-16.75-.21a.43.43,0,0,0,.2-.15s0-.1,0-.1-.21,0-.33,0-.11,0-.09.12a.31.31,0,0,0,.26.12Zm15.4-1.21c.12,0,.11-.16.08-.24h-.14a.14.14,0,0,0,0,.14s0,.14.1.1Zm-19.76-.87a.22.22,0,0,0,0-.22c-.06-.09-.14,0-.22,0a.14.14,0,0,0-.08.17c.06.11.28.29.34,0Zm19.47-.24a.23.23,0,0,0,.08-.12.17.17,0,0,0-.19-.14.22.22,0,0,0,0,.17c0,.07.09.08.16.09ZM68.46,41a1.29,1.29,0,0,0,.59-.22.18.18,0,0,0-.16.05.44.44,0,0,1-.43,0c-.06-.34-.41-.08-.51-.16l.07.07a.31.31,0,0,1,.36.12c.06,0,0,.14.08.17ZM93,40.84s0-.08,0-.12-.09,0-.12,0,.08.2.14.1Zm-.6-.37c-.1-.06-.13-.24-.27-.21v.05c-.11.07-.07.21-.1.31.15.12.27-.09.37-.15Zm1.31-.71c0-.1.2.15.25.09s.12.1.19,0-.11-.46-.17-.51a1.11,1.11,0,0,0-.27.37Zm1.78-.41c.28-.06.25-.36.29-.57l0,0c-.16-.08-.33,0-.44.17s0,.24,0,.37.14,0,.2.06Zm-24.13-1a.12.12,0,0,0,.07-.17.28.28,0,0,0-.12-.12c-.1,0-.23-.06-.31,0s.18.34.36.26Zm26.5-1.78s-.14-.29-.2-.29-.17.38-.2.46c.15.1.59.18.4-.17ZM101.72,35c-.06-.07-.15-.06-.22-.09l0,.07c0,.1.22.14.24,0Zm.75-.19c.37,0,.23-.36.19-.29,0-.1-.15-.07-.24-.07s-.11.15-.12.24a.66.66,0,0,0,.17.12Zm.56-.39c.12,0,.16-.12.27-.12a.26.26,0,0,0,0-.28c-.07,0-.14,0-.2.05a.5.5,0,0,0-.14.35s.1,0,.12,0ZM98.5,32.11c.09,0,.08-.07.15-.11s-.06-.14-.09-.18-.11,0-.15,0-.06.1.09.25Zm6.49-.37-.19-.3a.55.55,0,0,0-.19.35c.25.23.32,0,.38-.05Zm-18.6-1.16s.1-.08.09-.15,0-.07-.1-.05-.09.1-.13.15a.13.13,0,0,0,.14,0Z"/>
  <path class="cls-4" d="M93.65,41.25c-.16-.1-.32.06-.49,0-.23.09-.23.33-.29.52a.18.18,0,0,0,.26-.06c.14.09.24-.06.34-.15a.34.34,0,0,0,.22-.17.31.31,0,0,0-.09-.07l.05-.07Z"/>
  <path class="cls-5" d="M90.06,42.29c-.16-.1-.32.05-.49,0s-.23.33-.29.51a.17.17,0,0,0,.26,0c.14.08.24-.07.34-.15a.38.38,0,0,0,.22-.17s0-.06-.09-.07l0-.07Z"/>
  <path class="cls-5" d="M87.62,38.78c-.16-.1-.32,0-.49,0s-.23.33-.29.51.22.05.25,0c.15.08.25-.06.35-.15a.38.38,0,0,0,.22-.17s0-.06-.09-.07l.05-.07Z"/>
  <path class="cls-5" d="M89.26,41c-.16-.11-.33,0-.49,0s-.24.32-.29.51a.18.18,0,0,0,.26,0c.14.08.24-.07.34-.15a.36.36,0,0,0,.22-.18.71.71,0,0,0-.09-.07l.05-.06Z"/>
  <path class="cls-5" d="M67,66.85c-.09-.23-.18-.54,0-.75.1,0,.2-.07.29,0s0,.43.25.48.83.15.81.63c0,.17-.2.24-.34.28a1.21,1.21,0,0,1-1-.62Zm1.71-1.25c.46-.24.19-.77.37-1.16,0-.15.19-.15.3-.19.29-.13.23-.45.21-.72s.1-.33.27-.37.21-.38.39-.47a.59.59,0,0,1,.37-.18c.2-.19.48-.37.44-.67s-.38-.58-.45-.94v0h0a.56.56,0,0,1,0-.56,1,1,0,0,0,.16-.52.41.41,0,0,0-.4-.16c-.2.1-.16.32-.17.51l-.25.35a1,1,0,0,0,.15.67.26.26,0,0,1-.1.29s-.1,0-.14,0,0-.26,0-.41a.28.28,0,0,0-.33-.11c-.09.15-.27.13-.37.23-.29.37.11.72.22,1.06a.77.77,0,0,1-.45.47c-.43.26-.18.88-.66,1.08a.67.67,0,0,0-.63.11.48.48,0,0,0-.14.46.73.73,0,0,0,.31.39c-.1.13-.31.09-.38.27a1,1,0,0,0,.12,1c.45.65.81-.25,1.24-.33ZM68.05,65a.47.47,0,0,0-.28-.29c.08.11.43-.16.52.11a.42.42,0,0,1-.15.34c-.09,0,.06-.26-.09-.16Zm32.45-3.69c.24.1.45-.08.63-.22a.54.54,0,0,0,.58-.19c.21-.27-.21-.26-.28-.44.12-.09.23-.11.34-.24a.63.63,0,0,0,0-.3l-.17-.2c-.4-.08-.41.14-.81.14s-.42-.42-.52-.68c-.17-.63.2-1.37-.13-1.92a2,2,0,0,0-.6-.23c-.47-.23.06-.72-.18-1a.41.41,0,0,0-.29,0c-.17-.08,0-.3-.14-.41a.28.28,0,0,0-.27-.15c-.12-.05-.13-.17-.19-.26a.8.8,0,0,0-.33-.87c-.16-.23.14-.36.14-.56s0-.23-.12-.28c-.29,0-.24,0-.29.12s0,.32-.16.46-.08.06-.12,0-.11-.32-.11-.32a.65.65,0,0,0,0-.59.52.52,0,0,0-.47,0,.48.48,0,0,1-.15-.32c.19-.14.08-.4,0-.57s-.19-.46-.35-.47-.29.06-.39-.19-.28-.2-.29-.39-.08-.34-.07-.53,0-.17-.1-.24.25-.17.36-.21c-.1.12-.09.28-.14.42s0,.39.19.46.32-.32.58-.26a1.06,1.06,0,0,0-.12.34c0,.1.09.2.22.15s.22-.09.21-.21-.15-.28.08-.4a3.24,3.24,0,0,0,.24-.31.3.3,0,0,0-.07-.31c-.28,0-.42-.31-.68-.41s-.18.21-.24.33-.15.1-.22.07c.1-.22-.21-.39,0-.59,0-.18-.07-.28-.15-.4s-.36,0-.5.15,0,.45-.06.65-.35.1-.44.32-.16.31-.13.5,0,.21-.09.22a.8.8,0,0,0,.31.65c-.09.38.22.3-.21.43-.17,0-.39.08-.51-.14a3,3,0,0,0-.24-1l-.61-.06a4.92,4.92,0,0,0-1.68-1.29c-.27-.15-.24-.47-.36-.7s-.31-.22-.69-.39a.33.33,0,0,0-.27.09c-.16.12-.25.46-.5.37-.43-.45.33-.61.48-.94,0-.14.07-.33-.1-.42s-.43.13-.7.08a.57.57,0,0,1-.16-.22.28.28,0,0,1,.11-.34c0-.22.22-.53,0-.71,0-.11-.19-.1-.15-.24-.3-.5.52-.53.53-1a.36.36,0,0,0-.19-.31c-.11-.07-.19,0-.31,0-.16.32-.4,0-.63.08-.39,0-.49.6-.91.53-.12,0-.15-.21-.27-.21-.3-.31-.62.17-1,0a1,1,0,0,0-.34-.46c-.16.07-.39.12-.43.32s-.25.14-.41.14a.57.57,0,0,0-.38.35c-.18.16,0,.43-.17.59,0,0-.07,0-.09,0-.41-.31.14-.7,0-1.07a.22.22,0,0,0-.25-.13.35.35,0,0,0-.23.2c0,.09-.09.22,0,.3s.09.18,0,.25,0,.13-.1.19-.11,0-.16,0-.07-.26-.08-.39a1.18,1.18,0,0,0,0-1.19V44c0-.39.39-.37.52-.69,0-.15.1-.33-.06-.44s-.42-.13-.62-.09-.52.3-.77,0,0-.93-.34-1.28c0-.15-.14-.31,0-.43a1.91,1.91,0,0,0,.8-.67c0-.22.37-.28.34-.53a1.73,1.73,0,0,0-.2-.68A.45.45,0,0,1,84,38.7c.11,0,.25-.06.34.07s.24-.13.36-.17A1.16,1.16,0,0,1,85,38c.24-.06.29.24.46.34,0,.17.12.29.07.47,0,0,0,0,0,0a.68.68,0,0,1,0,.2.61.61,0,0,0,.53.33.38.38,0,0,0,.32-.15c0-.33.38-.55.31-.91a1,1,0,0,1-.1-1c-.08-.12-.09-.29-.22-.36a.65.65,0,0,0-.47,0c-.39,0-.65.35-.84.63-.11.08-.16-.1-.25-.13a.57.57,0,0,0-.46.15l-.12-.11a.54.54,0,0,1,0-.45c.23.06-.06.15,0,.26s.12.1.19.11a.46.46,0,0,0,.1-.23c0-.1,0-.25-.12-.31,0-.19.1-.44,0-.6-.54-.21.16-.59-.08-1-.1-.14-.29-.19-.42-.32s.16-.2.17-.33-.18-.37,0-.5l0,0c.15-.07.17.18.34.12s.1,0,.08-.08c.17-.07.17-.25.21-.4s.21-.14.31-.27a.33.33,0,0,0,.36-.41c-.07-.1-.16-.19-.29-.15s-.11.19-.26.2-.07-.15-.17-.17a.47.47,0,0,1-.25-.45c-.07-.15,0-.28.11-.39a.48.48,0,0,0,.06-.46c0-.05,0-.07,0-.12a.89.89,0,0,1-.21-.92.25.25,0,0,0-.2-.17c-.2.1-.22.31-.32.48-.06.37-.48.11-.6.39s0,.26.1.38c.27.38-.25.41-.38.66a1.35,1.35,0,0,0-.12,1c0,.09-.1.2-.24.16-.27-.33.06-.67.12-1s0-.46.09-.68.43-.46.34-.82c-.31-.32.21-.52.15-.84a.24.24,0,0,0-.19-.17A5.16,5.16,0,0,0,82.23,32a1.51,1.51,0,0,0-.34,1.35,1,1,0,0,0-.21,1.08c0,.21-.25.29-.37.43-.38.33-.15.9-.57,1.22-.22.21-.56,0-.78.17s-.43.59-.35,1a5.66,5.66,0,0,0-.44.75,2.45,2.45,0,0,0-.53.38c-.07.35-.47.3-.65.51s.1.4.2.56-.12.12-.19.17c-.44,0-.89-.22-1.26.09-.22.24-.28.67-.63.73,0,0,0,0,0-.06a.07.07,0,0,0-.11,0s-.06-.08-.1-.12,0,0-.07,0l0,0c.07-.07.11-.14.17-.21a.39.39,0,0,0,0-.26c-.07-.16-.26-.1-.39-.15-.31,0-.3.42-.57.48-.18-.19-.32-.42-.61-.37s-.4.16-.47.37a.94.94,0,0,1-.37.7,1.68,1.68,0,0,0-.5.25c0,.08-.14,0-.18,0s.21-.2.29-.33,0-.19-.07-.26c-.24-.14-.44.11-.64.21s-.18,0-.27-.07c-.25-.33-.6,0-.91.05A2.13,2.13,0,0,0,70.5,40a.73.73,0,0,0-.54.09c-.39.2-.19-.32-.44-.4s-.26-.07-.36,0A.42.42,0,0,0,69,40a1.19,1.19,0,0,1,.1.72,1.63,1.63,0,0,0,.72.59c.52-.11.75.36,1,.67.42,0,.7.37,1.14.17a2,2,0,0,1,1.15-.05c.17.07.24.26.32.41a.67.67,0,0,0,.34.1.69.69,0,0,0,.49-.25.54.54,0,0,1,.29-.47.29.29,0,0,1,.08.14c-.12.2-.36.37-.29.63,0,0,0,.17.14.16a1.06,1.06,0,0,1,.37.63c.08.19.28.22.43.31a1.21,1.21,0,0,0,1.15-.12c.13,0,.28-.09.39,0,.1.32.42.52.69.72.1.16.06.38.17.55.52.43-.14,1.12.49,1.5.25.33-.1.92.38,1.09.14,0,.28-.15.39,0,0,.37-.46.43-.72.56a1.18,1.18,0,0,0-.56,1.19c.08.34.47.29.71.39s.33.28.56.18a.82.82,0,0,0,.3-.57.35.35,0,0,1,.29-.17c.42.26-.14.57,0,.88a.37.37,0,0,0,.41.19c.62.39-.07,1-.14,1.43,0,.13,0,.3.09.38.33.09.49-.24.68-.43s.4.19.65.09.25-.44.35-.67.45-.21.64-.39.55-.68,1-.67c.24.14.48.35.79.29s.62-.5,1.08-.33c.23,0,.38-.35.56-.49.33.11.53-.3.72-.48s.16,0,.22,0,.22.1.32.15.34,0,.5.06.12-.17.21-.19.19,0,.25.13c.17.45.66.29,1.06.33.24.15.18.41.31.6,0,0,0,0,.06,0l.11.1c.42-.06.32.43.62.57s.42-.22.72-.14c.35.26-.28.28-.21.57,0,.09,0,.21.14.28.25.13.36-.45.58-.13,0,.28.35.43.56.56.55.16.26.75.36,1.13s.44,0,.71.1c.43.17.09.68.29,1s.62.14.92.21c.07,0,.08.1.1.17a.58.58,0,0,0,.4.22c.39,0,.26-.44.51-.62,0,.07.11.05.15.11s-.14.18-.2.3-.17.33,0,.47.32-.16.51-.16c.23.19,0,.54.14.77s.38.2.55.36c.37.15.18.59.43.82s.3.06.42,0,0,.11,0,.17a.56.56,0,0,0,.16.54.23.23,0,0,0,.29,0c.13-.15-.12-.36.08-.48s.14,0,.14.09,0,.13,0,.19c-.14.53.59.51.56,1,.17.23-.15.39-.12.62.19.28.52.49.72.75a.35.35,0,0,1,.14.28c.09.3.44.2.61.39a.31.31,0,0,1,.07.27.54.54,0,0,1-.24.21.49.49,0,0,0,0,.19c0,.31.39.13.58.2s.15.1.14.17.12.2.24.21Zm-29.57-.46a.8.8,0,0,0,.2-.21.3.3,0,0,0,0-.35c-.13-.12-.24,0-.31.13s-.15.21-.07.33a.21.21,0,0,0,.23.1ZM99.5,60.5a.37.37,0,0,0,.06-.32s-.1-.12-.17-.07a.31.31,0,0,0-.19.38.27.27,0,0,0,.3,0Zm1.83-1.1a.56.56,0,0,0,.08-.33c-.11-.18.06-.37,0-.56a.69.69,0,0,0-.25-.55c-.22,0-.34.26-.47.41-.31.37.12.73.18,1.09.11.14.31.06.41-.06Zm-28.25-.11a.71.71,0,0,0,.41-.09c.3-.26.76-.13,1-.46a.35.35,0,0,0,.08-.35c0-.18-.23-.24-.36-.33S74,58,74,57.83a1.28,1.28,0,0,1-.22-.92c.08,0,0-.11,0-.17a.34.34,0,0,0-.29-.2c-.11,0-.15.12-.26.17s-.3,0-.48,0-.23-.13-.37-.12-.08,0-.12,0c-.42.07-.34.56-.46.86a1,1,0,0,0-.64.8,1,1,0,0,0,.33.67.76.76,0,0,0,.73.09c.34-.45.65.14.91.27Zm-2-.43c.18-.15,0-.35-.05-.53s-.15,0-.24,0a.56.56,0,0,0,0,.34c.09.11.22.12.32.17Zm4.71-1.41a.65.65,0,0,0,.46-.08c.16-.12.44.05.56-.17a.26.26,0,0,0,.11-.26c-.13-.22.05-.58-.16-.78s-.31,0-.44,0-.2.09-.24,0c-.33-.06-.18-.5-.53-.55a.51.51,0,0,1-.22-.5,1,1,0,0,0,.13-.78c.07-.22.39-.41.18-.65a.39.39,0,0,0-.3,0c-.14,0-.23.38-.41.2s.1-.27.19-.39a1.37,1.37,0,0,0,.7-.94c0-.06-.08-.12,0-.17s.27-.1.41-.14.41.2.67.07.29-.54.51-.79a.72.72,0,0,1,.33.06.6.6,0,0,0,.55-.25.89.89,0,0,0-.11-.71c-.12-.19,0-.35,0-.53s-.08-.59-.42-.55-.32.11-.47.24a.81.81,0,0,0,0,.31.69.69,0,0,1-.42.6,8.09,8.09,0,0,0-.53.77c-.28.17-.6.36-.65.71a.26.26,0,0,1-.24,0c-.3.19-.43.56-.74.79a.72.72,0,0,0-.08.58c0,.23-.29.27-.43.41a.59.59,0,0,0-.12.58c0,.25.35.46.17.72s-.48,0-.72,0a.4.4,0,0,0-.34.2.45.45,0,0,0,0,.51.48.48,0,0,0,.45.08A1.18,1.18,0,0,1,74.65,56c.23.11.24.38.39.55a1,1,0,0,1,.59.72l.12.16ZM75.13,57a.27.27,0,0,0,0-.26c-.07,0-.14-.12-.21,0a.61.61,0,0,0,0,.24c.08,0,.14.16.22.05Zm-.48-.24c.22-.14.16-.33.12-.54s-.35-.13-.54-.16-.2.14-.21.26.14.2.25.19.21.27.38.25Zm24.23-1.41c.11,0,.09-.14.09-.22s-.13-.29-.31-.21,0,.13,0,.19.11.24.25.24ZM95.93,53.9c-.07-.18-.34-.31-.22-.55a2.48,2.48,0,0,1,.2-.44c.08,0,.09.06.16.07a1.68,1.68,0,0,0,.12,1c0,.12-.07.23,0,.31l-.06,0s0,0,0,.06,0,.08-.1.08-.06-.38-.09-.55Zm1.58-1.36a.32.32,0,0,0,.15-.29.19.19,0,0,0-.26-.13c0,.08-.12.15-.12.25s.12.19.23.17Zm-20.1-.27a.48.48,0,0,0,.25-.44c-.07-.12-.18-.06-.29,0s0,.31-.07.46.07,0,.11,0Zm4.46-.47c.17.06.3-.09.41-.21a.67.67,0,0,1,.38.07c.14,0,.22-.12.32-.2s.29-.37.28-.62c-.19-.41-.4.14-.67,0-.17,0-.3-.14-.48-.12A.26.26,0,0,0,82,51c.16.22-.19.37-.17.6.08.06,0,.13.07.21Zm12.58-1.61c.16.05.17-.18.26-.26a.4.4,0,0,0-.07-.34c-.15-.09-.26.06-.36.13s-.13-.11-.22-.12c-.22.22-.24-.23-.46-.15s-.3.06-.33.24c.15.1.24.27.38.37s.19-.27.35-.29.15.1.11.19a.36.36,0,0,0,.34.23Zm-1.23-.79c.3.13.39-.16.58-.29s-.07-.33-.1-.48c-.23-.17,0-.37-.07-.58s-.18-.18-.27-.25,0-.1,0-.13a.33.33,0,0,0-.1-.34.59.59,0,0,0-.36-.11c-.15,0-.1-.24-.27-.27-.32-.14-.43.25-.69.31s-.43-.27-.72-.11a.19.19,0,0,0,0,.13c0,.06,0,.17,0,.26.38.21.19.54.19.88,0,.11.1.21.22.24s.31-.19.47-.29.09.07.13.11c0,.26-.37.45-.19.73a.42.42,0,0,0,.31,0c.3-.26.6.07.89.14Zm-13.3-1.88c-.1-.24.18-.47.08-.68.3.23.58-.25.83.08a.43.43,0,0,1,.07.35c-.12.29-.46.36-.72.44s-.27,0-.26-.19Zm8-1.23c0-.12-.06-.34.14-.33l.05-.06c.18,0,.47-.17.54.12.07.13,0,.24-.06.35s-.35.08-.55.05c0-.05-.08-.09-.12-.13Zm.17-1.11a.43.43,0,0,0,.17-.35c0-.14-.16-.19-.27-.23s0,.11,0,.17-.1.2-.11.32.12.08.2.09Zm-3.49-.29c.09-.1.25-.09.29-.24,0-.33-.32-.42-.46-.67a.12.12,0,0,0-.08.15c-.12.15,0,.36,0,.52s.15.24.29.24Zm4.16-.12c.23-.08.32-.3.44-.48s.11-.25,0-.32.19-.32.31-.42,0-.19,0-.29a.29.29,0,0,0-.35-.2c-.13.13-.27.3-.19.48-.1.19-.34.29-.39.51s0,.4,0,.63c.1,0,.1.11.19.09Zm.84-.82a.17.17,0,0,0-.09-.27c-.12,0-.12.11-.2.18s.19.2.29.09ZM76,43l0-.29c.18-.08.17-.28.34-.36s.17-.6.52-.56c.13,0,.17.12.29.18s.53.15.56.45-.34.32-.55.41a1.38,1.38,0,0,0-.9.34c-.1-.06-.25,0-.3-.17Zm-.32-1.58c0-.26,0-.54.23-.68.26.19,0,.5,0,.74a.14.14,0,0,1-.24-.06Zm4.65-.26a.36.36,0,0,1,.19-.38c.23-.12.51-.16.67-.41,0-.13.1-.26,0-.38s-.12-.17-.23-.15-.22,0-.34,0-.1.11-.17.07-.07-.34,0-.48.23-.18.24-.31a.7.7,0,0,0,.41-.32c.19-.49-.38-.92,0-1.4.08,0,.12-.08.17-.12.7-.06.57.75.76,1.14v0c.2.17.36.42.63.44a1,1,0,0,1,.32.82.82.82,0,0,1-.43.67c-.14,0-.25.13-.42.12-.17-.24-.34-.14-.58-.13-.4.21-.57.6-1,.86-.09,0-.2,0-.21-.08Zm-11.58-.37c.14,0,.21-.11.28-.18s0-.41-.12-.48-.35.06-.5.15,0,.11,0,.16.22.25.32.35Zm12.49-.85c-.1-.4.22-.7.4-1,.1,0,.19-.19.32-.14a.46.46,0,0,1,.08.38c0,.17-.22.13-.22.3s.06.34,0,.45-.11.14-.21.15-.27,0-.32-.12ZM94,39.29c.11-.16.36-.28.29-.52.06,0,.11-.16.2-.09.09-.12.26-.07.31-.22a2.53,2.53,0,0,0,0-.27c0-.18-.26-.11-.4-.13s-.18.11-.24,0a.28.28,0,0,1,0-.25c-.06-.12.1-.21.17-.31.13.1-.11.17,0,.28a.24.24,0,0,0,.24,0c0-.05.07-.12,0-.17s-.15-.18-.28-.14c0-.11.15-.19.24-.26.55.18.31-.42.69-.56.29-.3.86.1,1.11-.28,0-.16-.14-.28-.17-.44.21-.16.58,0,.7-.34,0-.29.27-.53.5-.71s.21.13.35.16a.1.1,0,0,1,0,.14c-.18,0-.17-.18-.36-.16,0,.14-.21.18-.33.25a.77.77,0,0,0,.07.26.35.35,0,0,0,.24-.12c.08,0,.18-.06.25,0,.28.06.3-.32.52-.37s.27-.11.45-.09.24.22.37.31a.42.42,0,0,0,.31,0c.18,0,.09.16.15.23s.23,0,.36.09a.49.49,0,0,0,.31-.13c.07-.14.15-.28.07-.42s0-.25.1-.29l0,0c.13-.24.51-.25.55-.54.06,0,.11-.1.17-.06s-.07.11-.1.16a.3.3,0,0,0,0,.26c.06.1.18.09.29.09a2.66,2.66,0,0,0,.7-.29c.12-.16.06-.36,0-.54a.13.13,0,0,1,.17-.09c.11,0,.14.13.23.2.25-.13.27.26.52.12s.41-.13.38-.34a.38.38,0,0,0-.19-.14c-.15,0-.21.21-.36.22s0,0,0-.09c.1-.2.37-.2.57-.19l.08,0c.16,0,.34-.09.41-.24s0-.28.08-.42a.69.69,0,0,0,.23-.69c-.15-.21-.16-.53-.52-.56-.06,0-.11.11-.2.1s-.12.09-.16.16a.17.17,0,0,1-.18.08c-.09-.17.07-.32.17-.46s0-.34-.16-.43a.75.75,0,0,0-.42,0c-.19.09-.44,0-.65.13a2.93,2.93,0,0,1-1.61.57.31.31,0,0,0-.26.29c-.15.42-.62.09-.92.32a2.48,2.48,0,0,0-.63.62c0,.17-.27.18-.38.32-.1-.13-.27-.08-.43-.09a1.38,1.38,0,0,0-.37.35c-.2,0-.22.29-.41.28-.2.28-.35-.12-.55-.08a3.32,3.32,0,0,0-.68.34.39.39,0,0,1-.19-.06c-.44,0-.84.29-1.27.14-.33,0-.67-.19-1,0a1.36,1.36,0,0,0-.71.2c-.16,0-.31.14-.46.08a5.62,5.62,0,0,1-1.48.08,1,1,0,0,0-1,.15c-.12.08-.33-.1-.42.09s0,.29-.2.27c0,0-.08-.08-.07-.14s.15-.28,0-.4-.38-.1-.53-.1,0-.26-.11-.38-.2-.16-.32-.19a.32.32,0,0,0-.19.36.79.79,0,0,0,.49.32c.15.11.08.32.08.46s0,.25.13.33c0,.13.14.14.19.26l.1,0a.07.07,0,0,1,0,.07.31.31,0,0,0,.25.08.54.54,0,0,0,.35-.27s0,0,0-.09.29-.16.46-.2a.57.57,0,0,1,.17.22.35.35,0,0,1-.19.17c-.57.09-.86.56-1.23.94-.28,0-.15-.26-.31-.36a.34.34,0,0,0-.29.11c-.07,0-.19,0-.24-.08a2.27,2.27,0,0,1,.07-.59c0-.14,0-.35-.17-.44a.36.36,0,0,0-.32.2c-.1.24-.47.19-.52.43-.12.09-.17.27-.34.27s-.37-.09-.41-.28c-.25,0-.14-.24-.35-.28a.37.37,0,0,0-.32.06c-.1.14,0,.26,0,.4s-.26,0-.34.17-.25.26-.36.39-.15.23-.14.38a.3.3,0,0,0,.26.16,2,2,0,0,1,.89-.43,2,2,0,0,1,.58.29c.37.15.44.52.68.77.07.12.29.17.26.3.16.18-.32.22-.2.46s.25,0,.39.07a.69.69,0,0,1,.53,0c.13,0,.2.1.33.08s.21-.16.27-.25a.42.42,0,0,0,0-.52,2.08,2.08,0,0,1,.38-.72.74.74,0,0,1,.08-.34,1.19,1.19,0,0,1,1.08-.51l.22.29c.07.12.24.1.36.08.18-.18.38-.33.4-.58a.5.5,0,0,1,.54-.23c.48.09.1.5.19.73s.24.38.48.4c.09,0,.2,0,.27-.09a.36.36,0,0,0,0-.42c.06-.09.18,0,.26-.06s.07.11,0,.16.19.23.27.34-.32.24-.34.48.09.3.24.41a.59.59,0,0,0,0,.14.22.22,0,0,1-.22.07c-.2.13.11.27-.08.4,0,.11,0,.26.08.32s.17-.08.28-.12c0-.22.28-.2.44-.26a.59.59,0,0,1,.14.22c.25,0,0,.19.1.32s-.15.09-.2.17-.07.24,0,.34a.48.48,0,0,0,.29.1Zm-4.4-2.07a.64.64,0,0,0-.06-.43c-.08,0-.12-.2-.21-.1s-.41.31-.25.56.4.18.52,0Zm3.94-1.42c-.12,0-.19-.11-.29-.12-.08-.23.09-.54-.09-.75.08-.21-.34,0-.2-.3s.36.31.58-.18l.41-.24c.13,0,.37.11.39.31s-.47.37-.37.65c0,.09.12.1.18.12.21,0,.15-.22.3-.29a.45.45,0,0,1,.24-.16c.1,0,0,.14,0,.19-.44.18-.23.66-.5.91-.22,0-.52.11-.65-.14Zm6.65-3.22c0-.13.17-.12.27-.15s.29-.44.56-.24c0,0,0,0,0,0v-.06c.33,0,.54-.37.77-.59s.28-.46.58-.43a.62.62,0,0,1,.19.58c-.11.16-.21.4-.43.44-.07.16-.25,0-.31.21s-.36.16-.58.15a2,2,0,0,0-.91.22c-.06,0-.23.07-.18-.08Zm-15.84-2c.16,0,.11-.25.1-.37h-.17a.35.35,0,0,0-.13.3c0,.08.12.08.2.08Zm19.34-.14c.15.08.24-.07.34-.15a.35.35,0,0,0,.22-.17l-.08-.08s0,0,.05,0v0c-.17-.11-.33.05-.49,0s-.24.32-.29.51a.17.17,0,0,0,.25-.05Zm-19.89-.36a3.61,3.61,0,0,0,.15-.91c.07-.15.28-.24.31-.41.17-.33-.25-.4-.26-.68a1.67,1.67,0,0,1,.17-.26h0s0-.05.06,0l0-.07c.14-.18.3-.45.21-.66-.25-.05-.43.25-.55.44a.88.88,0,0,1-.43.6.31.31,0,0,0,0,.32.86.86,0,0,0,0,.81c.21.25-.15.47,0,.77s.31.28.41.1Z"/>
  <path class="cls-3" d="M86.5,45.9c-.2-.13-.4.06-.6,0-.27.1-.27.39-.34.61a.21.21,0,0,0,.31-.06c.17.1.29-.08.41-.18a.42.42,0,0,0,.26-.21.23.23,0,0,0-.11-.08l.07-.08Z"/>
</svg>
