<?xml version="1.0" encoding="utf-8"?>
<!-- Generator: Adobe Illustrator 23.0.3, SVG Export Plug-In . SVG Version: 6.00 Build 0)  -->
<svg version="1.1" id="Layer_1" xmlns="http://www.w3.org/2000/svg" xmlns:xlink="http://www.w3.org/1999/xlink" x="0px" y="0px"
	 viewBox="0 0 110 92" style="enable-background:new 0 0 110 92;" xml:space="preserve">
<style type="text/css">
	.st0{fill:#FFFFFF;}
	.st1{fill:#737373;}
	.st2{fill:#373737;}
</style>
<circle class="st0" cx="50" cy="45" r="40.1"/>
<path class="st1" d="M59.6,35.4c-4.7,1.8-9.2,3.4-13.1,4.6c-7.8,2.4-29.2,9.1-42.1,17.4l1.1,0.4c7.9-4.4,13-5.8,17.9-7.4
	c5.3-1.7,22.6-5.7,30.4-7.9c2.6-0.7,5.7-1.7,9-2.9c-0.8-1.1-1.6-2.1-2.4-3.2C60.1,36.1,59.9,35.7,59.6,35.4z M65.3,43.2
	c-1.1,0.8-2.1,1.4-2.7,1.8C58.7,47.2,40,60,35.7,62.9S19.6,77,16.1,80.3L16,81.6c11.2-10.1,14.7-12.6,19.2-16
	c5.5-4.2,16.9-12,20.8-14.5c3.7-2.4,7.1-4.6,10.1-6.6c0-0.1-0.1-0.2-0.1-0.2C65.7,44,65.5,43.6,65.3,43.2z M82.8,24.7
	c-5.5,3.2-14.1,7.1-22.4,10.4c0.2,0.2,0.4,0.5,0.6,0.7c0.9,1.2,1.8,2.4,2.6,3.5c6.6-2.4,13.8-5.7,19.5-9.6
	c-2.7,2.6-11.7,9.3-17.2,13.1c0.3,0.5,0.6,0.9,0.8,1.4c8.3-5.6,13.9-9.7,17.2-12.4c4.5-3.8,14.8-12.2,18.7-23.6
	C95.7,16.9,87.6,21.9,82.8,24.7z"/>
<g>
	<circle class="st2" cx="47.7" cy="12.6" r="0.5"/>
	<circle class="st2" cx="52.3" cy="13.2" r="0.5"/>
	<circle class="st2" cx="58.4" cy="21.3" r="0.5"/>
	<circle class="st2" cx="25.1" cy="63.3" r="0.5"/>
	<circle class="st2" cx="26.3" cy="66.9" r="0.5"/>
	<path class="st2" d="M20.7,63.5c-0.2,0-0.3,0.2-0.3,0.3s0.2,0.3,0.3,0.3c0.2,0,0.3-0.2,0.3-0.3S20.9,63.5,20.7,63.5z"/>
	<path class="st2" d="M39,70.6c-0.2,0-0.3,0.2-0.3,0.3c0,0.2,0.2,0.3,0.3,0.3c0.2,0,0.3-0.2,0.3-0.3C39.3,70.8,39.2,70.6,39,70.6z"
		/>
	<path class="st2" d="M67.7,64.6c-0.2,0-0.3,0.2-0.3,0.3c0,0.2,0.2,0.3,0.3,0.3s0.3,0,0.3-0.2S67.9,64.6,67.7,64.6z"/>
	<circle class="st2" cx="76.1" cy="55.9" r="0.3"/>
	<path class="st2" d="M34.8,24c0,0.2,0.2,0.3,0.3,0.3s0.3-0.2,0.3-0.3c0-0.2-0.2-0.3-0.3-0.3S34.8,23.8,34.8,24z"/>
	<path class="st2" d="M44.3,17.6c0.2,0,0.3-0.2,0.3-0.3c0-0.2-0.2-0.3-0.3-0.3S44,17,44,17.2C44,17.4,44.2,17.6,44.3,17.6z"/>
	<path class="st2" d="M43.4,16.9c0.2,0,0.3-0.2,0.3-0.3s-0.2-0.3-0.3-0.3c-0.2,0-0.3,0.2-0.3,0.3S43.2,16.9,43.4,16.9z"/>
	<path class="st2" d="M42.5,16.2c0.2,0,0.3-0.2,0.3-0.3c0-0.2-0.2-0.3-0.3-0.3c-0.2,0-0.3,0.2-0.3,0.3
		C42.1,16.1,42.3,16.2,42.5,16.2z"/>
	<path class="st2" d="M36.6,25.4c-0.2,0-0.3,0.2-0.3,0.3s0.2,0.3,0.3,0.3s0.3-0.2,0.3-0.3S36.8,25.4,36.6,25.4z"/>
	<path class="st2" d="M50.1,8.5c0.2,0,0.3-0.2,0.3-0.3c0-0.2-0.2-0.3-0.3-0.3c-0.2,0-0.3,0.2-0.3,0.3S49.9,8.5,50.1,8.5z"/>
	<path class="st2" d="M52.4,17.5c-0.2,0-0.3,0.2-0.3,0.3s0.2,0.3,0.3,0.3c0.2,0,0.3-0.2,0.3-0.3S52.5,17.5,52.4,17.5z"/>
	<circle class="st2" cx="48.8" cy="16" r="0.3"/>
	<path class="st2" d="M42.5,18.6c0,0.2,0.2,0.3,0.3,0.3s0.3-0.2,0.3-0.3c0-0.2-0.2-0.3-0.3-0.3S42.5,18.4,42.5,18.6z"/>
	<path class="st2" d="M69.3,73.5c-0.2,0-0.3,0.2-0.3,0.3s0.2,0.3,0.3,0.3c0.2,0,0.3-0.2,0.3-0.3S69.5,73.5,69.3,73.5z"/>
	<circle class="st2" cx="24.5" cy="65.6" r="0.3"/>
	<path class="st2" d="M48,69.6c-0.2,0-0.3,0.2-0.3,0.3c0,0.2,0.2,0.3,0.3,0.3c0.2,0,0.3-0.2,0.3-0.3C48.3,69.8,48.2,69.6,48,69.6z"
		/>
	<path class="st2" d="M31.5,65c-0.2,0-0.3,0.2-0.3,0.3c0,0.2,0.2,0.3,0.3,0.3c0.2,0,0.3-0.2,0.3-0.3C31.9,65.2,31.7,65,31.5,65z"/>
	<path class="st2" d="M34.8,70.1c0-0.2-0.2-0.3-0.3-0.3c-0.2,0-0.3,0.2-0.3,0.3c0,0.2,0.2,0.3,0.3,0.3S34.8,70.3,34.8,70.1z"/>
	<path class="st2" d="M55.9,66.8c-0.2,0-0.3,0.2-0.3,0.3c0,0.2,0.2,0.3,0.3,0.3c0.2,0,0.3-0.2,0.3-0.3
		C56.3,66.9,56.1,66.8,55.9,66.8z"/>
	<path class="st2" d="M67.8,60.1c-0.2,0-0.3,0.2-0.3,0.3c0,0.2,0.2,0.3,0.3,0.3c0.2,0,0.3-0.2,0.3-0.3C68.1,60.2,68,60.1,67.8,60.1z
		"/>
	<path class="st2" d="M76.7,64.2c-0.2,0-0.3,0.2-0.3,0.3c0,0.2,0.2,0.3,0.3,0.3c0.2,0,0.3-0.2,0.3-0.3
		C77.1,64.3,76.9,64.2,76.7,64.2z"/>
	<path class="st2" d="M79.8,66.1c-0.2,0-0.3,0.2-0.3,0.3c0,0.2,0.2,0.3,0.3,0.3c0.2,0,0.3-0.2,0.3-0.3C80.1,66.3,80,66.1,79.8,66.1z
		"/>
	<path class="st2" d="M80.3,60.8c-0.2,0-0.3,0.2-0.3,0.3c0,0.2,0.2,0.3,0.3,0.3c0.2,0,0.3-0.2,0.3-0.3C80.6,61,80.5,60.8,80.3,60.8z
		"/>
	<path class="st2" d="M35.7,53.2c-0.2,0-0.3,0.2-0.3,0.3c0,0.2,0.2,0.3,0.3,0.3c0.2,0,0.3-0.2,0.3-0.3S35.9,53.2,35.7,53.2z"/>
	<circle class="st2" cx="35.8" cy="61.3" r="0.5"/>
	<path class="st2" d="M38.9,67c0-0.2-0.2-0.5-0.4-0.5S38,66.8,38,67s0.2,0.4,0.5,0.4S38.9,67.3,38.9,67z"/>
	<circle class="st2" cx="70.8" cy="61.1" r="0.5"/>
	<circle class="st2" cx="82.5" cy="60.4" r="0.5"/>
	<path class="st2" d="M76.7,57.5c-0.2,0-0.5,0.2-0.5,0.5c0,0.2,0.2,0.4,0.5,0.4s0.5-0.2,0.5-0.4C77.2,57.7,77,57.5,76.7,57.5z"/>
	<circle class="st2" cx="70.8" cy="58.2" r="0.5"/>
	<path class="st2" d="M58.1,12.7l0.1,1.1l0.1-1.1c0.2,0,0.4-0.2,0.4-0.4l1.1-0.1l-1.1-0.1c0-0.2-0.2-0.4-0.4-0.4l-0.1-1.1l-0.1,1.1
		c-0.2,0-0.4,0.2-0.4,0.4l-1.1,0.1l1.2,0.1C57.8,12.5,57.9,12.6,58.1,12.7z"/>
	<path class="st2" d="M39.2,25.1l0.1,1.1l0.1-1.1c0.2,0,0.4-0.2,0.4-0.4l1.1-0.1l-1.1-0.1c0-0.2-0.2-0.4-0.4-0.4L39.3,23l-0.1,1.1
		c-0.2,0-0.4,0.2-0.4,0.4l-1.1,0.1l1.2,0.1C38.9,25,39.1,25.1,39.2,25.1z"/>
	<path class="st2" d="M81.7,57.5c0-0.2-0.2-0.4-0.4-0.4L81.1,56L81,57.1c-0.2,0-0.4,0.2-0.4,0.4l-1.1,0.1l1.2,0.1
		c0,0.2,0.2,0.3,0.4,0.4l0.1,1.1l0.1-1.1c0.2,0,0.4-0.2,0.4-0.4l1.1-0.1L81.7,57.5z"/>
	<path class="st2" d="M35.6,74.3l-0.1-1.1l-0.1,1.1c-0.2,0-0.4,0.2-0.4,0.4l-1.1,0.1l1.2,0.1c0,0.2,0.2,0.3,0.4,0.4l0.1,1.1l0.1-1.1
		c0.2,0,0.4-0.2,0.4-0.4l1.1-0.1L36,74.7C36,74.5,35.8,74.4,35.6,74.3z"/>
	<path class="st2" d="M77.7,65.9l-0.1-1.1l-0.1,1.1c-0.2,0-0.4,0.2-0.4,0.4L76,66.5l1.2,0.1c0,0.2,0.2,0.3,0.4,0.4l0.1,1.1l0.1-1.1
		c0.2,0,0.4-0.2,0.4-0.4l1.1-0.1l-1.1-0.1C78.1,66.1,77.9,66,77.7,65.9z"/>
	<path class="st2" d="M44.9,54.9c-0.9-1.1-2.1-2.6-3-3.8c-0.6-0.7-1.1-1.5-1.7-2.2h3.7c0.2,0.6,0.4,1.1,0.5,1.7
		c0.1,0.6-0.5,1.3-1.1,1.8h7.9c0.2-0.1,0.3-0.2,0.5-0.3c-0.3-0.3-0.6-0.7-0.8-1.2c-0.3-0.8-5-13.6-5-13.6H38
		c0.4,0.3,1.5,1.3,1.3,2.3c-0.1,0.5-1.1,4.1-1.9,7.1l0,0l0,0c-0.5,2-1,3.7-1.1,3.9c-0.2,0.7-1.4,1.4-1.8,1.8h4.8
		c-0.5-0.5-0.9-1.1-0.8-1.7c0.1-0.6,0.4-1.8,0.4-1.8l0,0c0.8,1.2,1.7,2.4,2.7,3.6c1.1,1.4,2.1,2.5,2.6,3.2c0.1,0.1,0.3,0.5,0.6,0.9
		c0.3-0.2,0.7-0.4,1-0.7C45.5,55.7,45.2,55.3,44.9,54.9z M41,41.6l2.2,5.5h-3.9L41,41.6z"/>
	<path class="st2" d="M47,57.2c-0.4,0.3-0.8,0.6-1.2,0.8c1.2,1.7,2.8,3.7,4.1,4.3c1.9,0.9,2.4-0.7,1.5-1.6
		C50.6,60.1,48.9,59,47,57.2z"/>
	<path class="st2" d="M19.6,50.4c0-0.4,0-7.6,0-7.6l5.7,9.6h6.5c-0.5-0.4-1.4-1.3-1.4-2c0-0.5,0-10.5,0-11c0-0.9,0.9-2,1.2-2.1
		c-0.3,0-4.2,0-4.7,0c0.4,0.2,1.4,1.3,1.4,2.1c0,0.5,0,7.5,0,7.5l-5.6-9.6H16c0.7,0.6,1.6,1.3,1.6,2.2c0,0.4,0.1,10.1,0,10.8
		s-0.7,1.7-1.4,2h4.9C20.3,51.8,19.6,51.1,19.6,50.4z"/>
	<path class="st2" d="M72.7,50.8c0.1-0.6,0.4-1.8,0.4-1.8h5c0.2,0.6,0.4,1.1,0.5,1.7c0.1,0.6-0.5,1.3-1.1,1.8h8.9
		c-0.5-0.1-1.1-0.7-1.4-1.5s-5-13.6-5-13.6h-3.4c-1,0.7-2,1.4-3.1,2.2v0.1c-0.1,0.9-2.8,10.5-3,11c-0.1,0.2-0.2,0.4-0.4,0.6
		c-1.4-3.6-3.5-7.4-6.1-11.3c0.9,0.4,1.6,0.8,1.9,1.1v-3.9c-0.1,0.2-0.8,0.9-1.4,0.8c-0.5-0.1-1.3-0.2-2.1-0.3
		c-0.4-0.6-0.9-1.2-1.4-1.8C50.5,22.6,37.7,15.4,32.1,19.7c-4.3,3.4-2.5,13.4,3.4,23.8c0.3-0.1,0.6-0.2,0.9-0.3
		c-6-10.2-7.6-19.7-3.6-22.9c5.1-4,17.4,3.2,27.6,16.1c0.3,0.3,0.5,0.7,0.8,1c-0.7-0.1-1.4-0.1-2.1-0.1c-2.6,0-4.8,2-4.9,4.5
		c-0.1,3.5,2.7,4.5,4.3,5c0.2,0.1,0.4,0.1,0.6,0.2c1.5-1,2.7-1.8,3.4-2.2c0.5-0.3,1.1-0.7,1.8-1.1c-0.4-0.2-0.8-0.4-1.1-0.6
		c-1.9-0.9-3.9-1.1-4.3-2.3c-0.3-0.9,0.5-1.7,2.6-1.6c0.4,0,0.9,0.1,1.3,0.2C64,41,65,42.6,66,44.2c1.5,2.5,2.8,5,3.7,7.3
		c-0.4,0.3-0.8,0.6-1,0.8H70c2.5,6.5,2.6,11.9-0.3,14.5c-1.3,1.1-5.2,1.6-10.2-0.7c-0.1,0.1,0,0.3,0.1,0.4c4.4,1.8,8.6,2.4,10.7,0.8
		c2.9-2.3,2.9-8,0.3-14.9h2.9C73,51.9,72.6,51.4,72.7,50.8z M75.2,41.6l2.2,5.5h-3.9L75.2,41.6z"/>
	<path class="st2" d="M72.8,37.9c0.2-0.2,0.5-0.4,0.7-0.5h-1.3C72.3,37.5,72.5,37.7,72.8,37.9z"/>
	<path class="st2" d="M61.8,52.9c2-0.1,5.8-2.2,5.7-4.6c0-1.4-0.8-2.6-1.8-3.4c-1.5,1-3,2-4.6,3.1c0.7,0.4,1.3,0.8,1.4,1.4
		c0.1,1.1-2.1,1.6-4,1.4c-0.4,0-0.8-0.1-1.1-0.3c-0.4,0.3-0.8,0.5-1.2,0.8s-0.9,0.6-1.5,1v1.6c0.4-0.8,1.2-1.4,1.9-1.5
		C56.7,52.2,57.7,53.1,61.8,52.9z"/>
	<path class="st2" d="M54.5,48.6v1.6c0.4-0.2,0.7-0.5,1.1-0.7C55,49.1,54.6,48.7,54.5,48.6z"/>
</g>
</svg>
