<svg id="nasa" xmlns="http://www.w3.org/2000/svg" width="110" height="92" viewBox="0 0 110 92">
  <defs>
    <style>
      .cls-1 {
        fill: #fff;
      }
    </style>
  </defs>
  <title>nasa</title>
  <g>
    <polygon class="cls-1" points="46.79 43.33 45.48 47.61 48.52 47.61 46.79 43.33"/>
    <polygon class="cls-1" points="72.1 47.61 75.14 47.61 73.41 43.33 72.1 47.61"/>
    <path class="cls-1" d="M94.74,17.32A51.48,51.48,0,0,1,80.43,29.55,31.29,31.29,0,0,0,22.51,46a31.79,31.79,0,0,0,.75,6.81c-1.78.92-3.47,1.88-5,2.87l.85.33c1.59-.9,3-1.64,4.38-2.26a31.25,31.25,0,0,0,8.93,15.08c-2.15,2-4,3.75-5,4.68l-.1,1c2.31-2.08,4.2-3.73,5.79-5.1A31.3,31.3,0,0,0,82.58,33.67C86.53,30.21,92.27,24.5,94.74,17.32ZM72.09,40.06l-.58.43a5.47,5.47,0,0,0-.44-.43ZM59.8,20.38a.37.37,0,0,1,.3-.33l0-.88.08.87a.37.37,0,0,1,.33.32l.87.05-.87.08a.38.38,0,0,1-.32.31l-.05.9-.08-.9a.37.37,0,0,1-.3-.29l-.9-.05Zm.84,7.16a.35.35,0,0,1-.35.35.34.34,0,0,1-.35-.35.35.35,0,0,1,.35-.35A.35.35,0,0,1,60.64,27.54Zm-5.08-6.71a.35.35,0,0,1,.35.35.34.34,0,0,1-.35.35.35.35,0,0,1-.35-.35A.35.35,0,0,1,55.56,20.83Zm.31,4a.27.27,0,1,1-.53,0,.27.27,0,0,1,.53,0Zm-2-7.84a.27.27,0,1,1,0,.53.27.27,0,0,1,0-.53Zm-1,6.1a.27.27,0,1,1-.26.26A.27.27,0,0,1,52.87,23.11ZM52,20.36a.35.35,0,0,1,.35.35.35.35,0,0,1-.7,0A.35.35,0,0,1,52,20.36Zm-2.6,3.72a.26.26,0,0,1,.27.26.27.27,0,0,1-.53,0A.26.26,0,0,1,49.36,24.08Zm-.77-.52a.27.27,0,0,1,0,.53.27.27,0,1,1,0-.53Zm-.13,1.83a.27.27,0,0,1-.53,0,.27.27,0,1,1,.53,0Zm-.57-2.34a.26.26,0,0,1,.26.26.27.27,0,0,1-.53,0A.27.27,0,0,1,47.89,23.05ZM30.93,61a.27.27,0,0,1,0-.53.27.27,0,0,1,0,.53ZM30,44.29v5.9c0,.58.58,1.14,1.17,1.62H27.35a2.12,2.12,0,0,0,1.13-1.55c0-.59,0-8.13,0-8.46,0-.71-.69-1.3-1.24-1.74h5.24l4.39,7.46V41.7a2.52,2.52,0,0,0-1.12-1.64h3.63a2.29,2.29,0,0,0-.94,1.64v8.56c0,.52.76,1.25,1.12,1.53H34.51Zm3.89,18a.26.26,0,1,1,.26-.26A.26.26,0,0,1,33.93,62.33Zm.44-1.69a.35.35,0,0,1-.35-.35.35.35,0,1,1,.7,0A.35.35,0,0,1,34.37,60.64Zm.91,2.81a.35.35,0,0,1,0-.7.35.35,0,0,1,0,.7Zm4.09-1.33a.26.26,0,1,1,.26-.26A.25.25,0,0,1,39.37,62.12Zm3.52,7.2a.39.39,0,0,1-.32.31l0,.89-.08-.89a.41.41,0,0,1-.31-.3l-.89,0,.89-.08a.39.39,0,0,1,.3-.33l0-.87.09.86a.4.4,0,0,1,.33.33l.87,0Zm-1.51-3.75a.27.27,0,1,1,.27.27A.27.27,0,0,1,41.38,65.57ZM42.6,53a.26.26,0,0,1,0-.52.26.26,0,0,1,0,.52Zm.45,5.78a.35.35,0,0,1-.35.35.36.36,0,0,1,0-.71A.36.36,0,0,1,43.05,58.73Zm1.4,4.44a.35.35,0,0,1,.35-.35.35.35,0,0,1,0,.7A.35.35,0,0,1,44.45,63.17Zm.75,3.32a.27.27,0,0,1,0-.53.27.27,0,0,1,0,.53Zm4.09-12c-.41-.54-1.2-1.42-2.06-2.51-.74-.93-1.42-1.87-2.08-2.82h0s-.21.94-.28,1.4a1.68,1.68,0,0,0,.61,1.3H41.7c.37-.3,1.27-.87,1.44-1.39,0-.15.42-1.46.85-3l0,0h0c.63-2.29,1.39-5.11,1.46-5.52.13-.79-.72-1.51-1-1.78h6.08l3.93,10.57a2.34,2.34,0,0,0,.61.9l-.39.26H48.55c.43-.37.92-.91.84-1.39A7,7,0,0,0,49,49.11H46.12c.42.57.85,1.14,1.3,1.71.72.9,1.67,2.06,2.36,2.93.24.3.49.58.73.85l-.76.52Zm-6-23.22a.27.27,0,0,1,0-.53.27.27,0,0,1,0,.53Zm.85-1,.89-.08a.39.39,0,0,1,.3-.33l.05-.88.09.87a.39.39,0,0,1,.33.33l.87,0-.87.09a.39.39,0,0,1-.32.31l-.05.89-.08-.89a.4.4,0,0,1-.31-.3Zm8,35.56a.27.27,0,1,1,0-.53.27.27,0,0,1,0,.53Zm1.44-6.16c-1-.47-2.24-2.06-3.17-3.37l1-.65c1.43,1.34,2.8,2.24,3.37,2.77C55.54,59,55.14,60.27,53.66,59.57Zm4.73,3.93a.27.27,0,1,1,.27-.27A.27.27,0,0,1,58.39,63.5ZM57.3,52.81V51.6c.45-.31.86-.57,1.19-.78l1-.62a3.49,3.49,0,0,0,.9.22c1.53.18,3.22-.23,3.14-1.08,0-.44-.49-.79-1.07-1.07q1.92-1.25,3.63-2.39a3.67,3.67,0,0,1,1.39,2.67c0,1.89-2.94,3.54-4.48,3.63a8.27,8.27,0,0,1-4.18-.53A2.12,2.12,0,0,0,57.3,52.81Zm0-2.77V48.81a7,7,0,0,0,.84.68Zm10.34,8.25a.27.27,0,1,1,0-.53.27.27,0,0,1,0,.53Zm.21,3.29a.26.26,0,0,1-.26.26.26.26,0,0,1-.26-.26.26.26,0,0,1,.26-.26A.25.25,0,0,1,67.84,61.58Zm1,7.2a.26.26,0,0,1-.27-.26.27.27,0,0,1,.53,0A.26.26,0,0,1,68.83,68.78Zm5-14.27a.27.27,0,0,1,.53,0,.27.27,0,1,1-.53,0Zm.78,2a.36.36,0,0,1,0-.71.36.36,0,0,1,0,.71Zm.29,4.76a.27.27,0,0,1-.53,0,.27.27,0,0,1,.53,0Zm.79,1.55a.38.38,0,0,1-.31.31l-.05.89-.08-.89a.38.38,0,0,1-.31-.3l-.9-.05.89-.08a.39.39,0,0,1,.3-.33l0-.87.08.86a.42.42,0,0,1,.34.33l.87,0ZM77,63a.26.26,0,0,1-.26-.26.27.27,0,0,1,.53,0A.27.27,0,0,1,77,63Zm.4-4.16a.27.27,0,1,1,0-.53.27.27,0,0,1,0,.53Zm.73-2.65,0,.89L78,56.2a.4.4,0,0,1-.31-.3l-.9,0,.89-.08a.41.41,0,0,1,.3-.33l.05-.87.09.87a.38.38,0,0,1,.33.32l.87.05-.87.08A.39.39,0,0,1,78.14,56.2Zm1,2.17a.35.35,0,0,1-.36-.35.36.36,0,0,1,.71,0A.35.35,0,0,1,79.1,58.37Zm-3.93-6.58c.43-.37.92-.91.84-1.39a7,7,0,0,0-.38-1.29H71.75s-.21.94-.28,1.4a1.68,1.68,0,0,0,.61,1.3H69.85c2,5.4,2,9.84-.27,11.65-1.66,1.32-4.94.79-8.36-.58-.07-.05-.16-.24-.1-.31,4,1.79,7,1.45,8,.57,2.33-2.06,2.23-6.25.27-11.33H68.32c.19-.15.51-.37.8-.62a42,42,0,0,0-2.9-5.69c-.75-1.24-1.59-2.5-2.5-3.76a4.92,4.92,0,0,0-1-.14c-1.59,0-2.24.6-2,1.26.32,1,1.89,1.08,3.39,1.78a9.41,9.41,0,0,1,.88.47c-.57.37-1,.68-1.42.89-.55.32-1.49.91-2.68,1.69l-.43-.15c-1.24-.43-3.44-1.18-3.36-3.93a3.77,3.77,0,0,1,3.8-3.53c.59,0,1.14,0,1.66.07-.21-.28-.41-.55-.63-.82C54,29.33,44.38,23.65,40.41,26.8c-3.15,2.51-1.88,9.9,2.78,17.86l-.71.24c-4.61-8.16-6-15.93-2.64-18.59,4.31-3.43,14.3,2.23,22.48,12.53.37.46.72.93,1.07,1.39.67.08,1.24.18,1.67.27s1-.49,1.1-.61v3a6.31,6.31,0,0,0-1.46-.84,46.84,46.84,0,0,1,4.78,8.78,1.32,1.32,0,0,0,.28-.43c.13-.37,2.2-7.88,2.32-8.58a.17.17,0,0,1,0-.07c.86-.6,1.66-1.17,2.41-1.71h2.65l3.93,10.57a1.84,1.84,0,0,0,1.06,1.16ZM70,58.19a.35.35,0,0,1,.35.35.35.35,0,0,1-.7,0A.35.35,0,0,1,70,58.19Zm-.35-1.9a.35.35,0,0,1,.7,0,.35.35,0,0,1-.7,0ZM42.47,29.6a.27.27,0,0,1-.53,0,.27.27,0,1,1,.53,0Z"/>
  </g>
</svg>
