<svg id="novartis" xmlns="http://www.w3.org/2000/svg" xmlns:xlink="http://www.w3.org/1999/xlink" width="110" height="92" viewBox="0 0 110 92">
  <defs>
    <style>
      .cls-1 {
        fill: url(#linear-gradient);
      }

      .cls-2 {
        fill: #fff;
      }
    </style>
    <linearGradient id="linear-gradient" x1="57.46" y1="8.23" x2="73.13" y2="8.23" gradientTransform="matrix(1, 0, 0, -1, -56.72, 55.52)" gradientUnits="userSpaceOnUse">
      <stop offset="0.3" stop-color="#757575"/>
      <stop offset="0.7" stop-color="#a5a5a5"/>
    </linearGradient>
  </defs>
  <title>novartis</title>
  <g id="_Group_" data-name=" Group ">
    <path id="_Path_" data-name=" Path " class="cls-1" d="M11.56,45.5l-.05.12a4.47,4.47,0,0,1,2.38,4.17,5,5,0,0,1-5.25,4.86c-4,0-5.37-2.33-5.37-4.48,0-2.75,1.92-4.58,1.92-7.08A3.92,3.92,0,0,0,2.1,39.31L2,39.43a3.22,3.22,0,0,1,1,2.34C3,44.48.74,46.4.74,49.5c0,2.86,2,5.78,7.79,5.78,5.16,0,7.88-2.53,7.88-5.22C16.4,47.76,14.75,45.81,11.56,45.5Z"/>
    <path id="_Compound_Path_" data-name=" Compound Path " class="cls-2" d="M34.22,54.82,27.36,46v8l1.4.34v.36H25.57v-.36l1.14-.34V45.26a2.49,2.49,0,0,0-1-.56l-.33-.06v-.36h2.7L34,51.89V45l-1.4-.33v-.37h3.19v.37L34.62,45v7.91c0,.73.05,1.79.06,1.93Zm14.33-5.64C48.55,52.85,46,55,43.19,55a5.51,5.51,0,0,1,0-11,5.21,5.21,0,0,1,5.39,5v.2Zm-1.78.55c0-2.69-1.61-5.3-3.8-5.3s-3.38,2.25-3.38,4.66,1.33,5.4,3.83,5.4S46.77,52.11,46.77,49.73Zm4-4.75-1.1-.34v-.37h4.21v.37L52.56,45l2.9,7.91h0L58.36,45l-1.31-.34v-.37h3.11v.37l-1.1.34-3.64,9.86h-.93Zm24.86,4.37H75V44.82c2.2,0,3.5.5,3.5,2.3C78.45,48.45,77.31,49.35,75.63,49.35Zm18.82,4.93,1.46-.34V45l-1.46-.34v-.36H99v.36L97.55,45v9l1.46.34v.36H94.45Zm7.36-2.48h.29l1,2.23a4.25,4.25,0,0,0,1.85.46,2.17,2.17,0,0,0,2.41-2c0-1-.64-1.59-1.69-2.14l-1-.53c-1.23-.64-2.47-1.55-2.47-3s1.1-2.82,3.45-2.82a8.3,8.3,0,0,1,2.43.4l.25,2.4H108l-.9-1.92a3.11,3.11,0,0,0-1.52-.4,1.81,1.81,0,0,0-2,1.75c0,.92.61,1.5,1.66,2l1.22.64c1.67.86,2.46,1.66,2.46,3.14,0,1.83-1.71,3-3.85,3a9,9,0,0,1-3-.44ZM59.49,54.28l1.17-.34,3.63-9.67L65.5,44l3.75,10,1.17.34v.36H66v-.36l1.5-.34-1.06-2.87h-4l-1,2.87,1.5.33v.37H59.49Zm3.22-4h3.45l-1.71-4.63h0Zm15-.74c.37-.09,2.42-.61,2.42-2.56,0-1.56-1.2-2.77-4.15-2.77-1.83,0-3.66,0-3.89,0v.37l1.2.34v8.95l-1.2.34v.36h4.26v-.36L75,53.94v-4h1.21l3.08,4.76H82v-.37l-1.38-.36Zm9-4.76v9.13l-1.47.34v.36h4.57v-.36l-1.47-.34V44.82h2.47l.81,1.75H92l-.24-2.28H83.36l-.23,2.28h.31l.81-1.73ZM8.6,51.4l1.46-13.83H7L8.49,51.4Z"/>
  </g>
</svg>
