<svg id="ringsted_kommune" data-name="ringsted kommune" xmlns="http://www.w3.org/2000/svg" width="110" height="92" viewBox="0 0 110 92">
  <defs>
    <style>
      .cls-1 {
        fill: #fff;
      }

      .cls-2 {
        fill: #404040;
      }
    </style>
  </defs>
  <title>ringsted_kommune</title>
  <g>
    <path class="cls-1" d="M35.79,69.43H34.4V66.7h1.42a1.21,1.21,0,0,1,1.28,1.35,1.24,1.24,0,0,1-1.31,1.38m2.29,2.78-.92-1.82a.86.86,0,0,0-.32-.35v0a2,2,0,0,0,1.37-2,2.12,2.12,0,0,0-2.28-2.23H32.54v.92h.78v6.68H34.4v-3h1c.42,0,.56.06.75.41l1,2c.25.49.47.57,1.06.57h.65v-.93h-.27c-.25,0-.43,0-.53-.24"/>
    <path class="cls-1" d="M41.07,72.24V68.61c0-.48-.21-.69-.69-.69h-1v.9h.44a.21.21,0,0,1,.24.23v3.63c0,.49.2.69.68.69h1v-.89h-.44a.22.22,0,0,1-.24-.24"/>
    <path class="cls-1" d="M48.18,72.24V69.88c0-1.39-.58-2.09-1.87-2.09a2.21,2.21,0,0,0-2,1.25h0a2.45,2.45,0,0,0,0-.31v-.2c0-.4-.23-.61-.69-.61h-1v.9H43a.2.2,0,0,1,.23.23v4.32h1V70.82a2.08,2.08,0,0,1,.1-.73,1.76,1.76,0,0,1,1.72-1.34c.87,0,1,.6,1,1.37v2.56c0,.49.21.69.69.69H48.9v-.89h-.48a.22.22,0,0,1-.24-.24"/>
    <path class="cls-1" d="M52.2,72.4c-1,0-1.57-.77-1.57-1.9s.54-1.8,1.48-1.8,1.54.41,1.54,1.83S53,72.4,52.2,72.4m1.52-3.93v.17h0A1.82,1.82,0,0,0,52,67.79a2.43,2.43,0,0,0-2.39,2.73A2.51,2.51,0,0,0,52,73.31a1.75,1.75,0,0,0,1.62-.83h0a3.33,3.33,0,0,0,0,.34v.37c0,1.09-.77,1.52-1.72,1.52a3.42,3.42,0,0,1-1.49-.37l-.35.84a4.25,4.25,0,0,0,1.86.45,2.45,2.45,0,0,0,2.75-2.49V69c0-.14.09-.21.23-.21h.41v-.9h-1c-.43,0-.6.23-.6.55"/>
    <path class="cls-1" d="M57.23,69.28c0-.43.39-.65,1-.65.33,0,.82.14.82.47v.27H60v-.52c0-.83-1.13-1.06-1.78-1.06-1.11,0-2,.49-2,1.53,0,1.76,3,1.65,3,2.63,0,.47-.44.7-.94.7a2.29,2.29,0,0,1-1.65-.81l-.54.7a2.79,2.79,0,0,0,2.17,1c1.15,0,2-.63,2-1.59,0-1.82-3-1.6-3-2.63"/>
    <path class="cls-1" d="M62.78,71.26v-2.5h1.3v-.84h-1.3V66.43h-1v1.49H61v.84h.71v2.62a1.87,1.87,0,0,0,2.08,2,2.89,2.89,0,0,0,.37,0v-.92a1.41,1.41,0,0,1-.25,0,1.07,1.07,0,0,1-1.15-1.23"/>
    <path class="cls-1" d="M66.08,70a1.58,1.58,0,0,1,1.61-1.39A1.29,1.29,0,0,1,69,70Zm1.62-2.22A2.68,2.68,0,0,0,65,70.65a2.78,2.78,0,0,0,2.9,2.85,3.19,3.19,0,0,0,2.1-.8L69.51,72a2.51,2.51,0,0,1-1.6.64A1.82,1.82,0,0,1,66,70.78h4s0-.29,0-.43a2.32,2.32,0,0,0-2.34-2.56"/>
    <path class="cls-1" d="M73.61,72.59c-.91,0-1.54-.76-1.54-1.94s.71-2,1.56-2c1,0,1.55,1,1.55,1.94,0,1.38-.76,2-1.57,2m2.82-.11a.22.22,0,0,1-.24-.24V66.46c0-.49-.2-.69-.69-.69h-1v.89h.44a.22.22,0,0,1,.24.24v1.37a3.24,3.24,0,0,0,0,.36h0a1.82,1.82,0,0,0-1.68-.84C72,67.79,71,68.91,71,70.65s.93,2.85,2.4,2.85a1.93,1.93,0,0,0,1.79-1h0s0,.12,0,.28c0,.36.19.58.67.58h1v-.89Z"/>
    <path class="cls-1" d="M40.46,67a.67.67,0,0,0,.67-.67.67.67,0,0,0-1.34,0,.67.67,0,0,0,.67.67"/>
    <path class="cls-1" d="M33.31,77.15a.18.18,0,0,0-.2-.2h-.4v-.58h.69c.4,0,.56.17.56.57V79.2h.78a.57.57,0,0,0,.55-.24l1.57-2.59h.74L35.93,79.1a1.16,1.16,0,0,1-.34.37h0s.16.06.32.37L37,82.1c.09.19.23.21.47.21h.18v.57h-.34c-.53,0-.68,0-.9-.49L35.27,80c-.1-.21-.32-.24-.59-.24H34v3.11h-.65Z"/>
    <path class="cls-1" d="M40.51,78.11a2.44,2.44,0,1,1-2.46,2.42,2.41,2.41,0,0,1,2.46-2.42m0,4.32a1.84,1.84,0,0,0,1.8-1.9,1.81,1.81,0,1,0-3.62,0,1.85,1.85,0,0,0,1.82,1.9"/>
    <path class="cls-1" d="M44.15,79a.19.19,0,0,0-.21-.2h-.39v-.55h.65c.39,0,.57.17.57.52V79a2.86,2.86,0,0,1,0,.34h0a1.91,1.91,0,0,1,1.68-1.18,1.29,1.29,0,0,1,1.45,1.17h0a1.89,1.89,0,0,1,1.71-1.17c1.13,0,1.55.66,1.55,1.81v2.21a.18.18,0,0,0,.2.21h.39v.54h-.66c-.4,0-.56-.16-.56-.56V80.08c0-.76-.16-1.39-1-1.39A1.66,1.66,0,0,0,48.07,80a2.11,2.11,0,0,0-.09.68v2.2h-.63v-2.8c0-.71-.1-1.39-1-1.39a1.7,1.7,0,0,0-1.52,1.37,2.45,2.45,0,0,0-.07.62v2.2h-.63Z"/>
    <path class="cls-1" d="M52.78,79a.18.18,0,0,0-.2-.2h-.39v-.55h.65c.39,0,.56.17.56.52V79a2.86,2.86,0,0,1,0,.34h0a1.93,1.93,0,0,1,1.69-1.18,1.29,1.29,0,0,1,1.44,1.17h0a1.9,1.9,0,0,1,1.72-1.17c1.13,0,1.54.66,1.54,1.81v2.21a.19.19,0,0,0,.21.21h.39v.54h-.66c-.4,0-.57-.16-.57-.56V80.08c0-.76-.15-1.39-1-1.39A1.68,1.68,0,0,0,56.7,80a2.44,2.44,0,0,0-.08.68v2.2H56v-2.8c0-.71-.1-1.39-1-1.39a1.69,1.69,0,0,0-1.52,1.37,2.07,2.07,0,0,0-.08.62v2.2h-.63Z"/>
    <path class="cls-1" d="M61.39,79a.19.19,0,0,0-.21-.2H60.8v-.55h.65c.4,0,.57.17.57.55V81c0,.73.12,1.38,1,1.38a1.8,1.8,0,0,0,1.71-1.94V78.22h.63v3.91a.18.18,0,0,0,.2.21H66v.54h-.64c-.38,0-.56-.16-.56-.52v-.21a2.79,2.79,0,0,1,0-.33h0A2,2,0,0,1,63,83c-1.1,0-1.56-.59-1.56-1.8Z"/>
    <path class="cls-1" d="M67,79a.19.19,0,0,0-.21-.2h-.39v-.55h.65c.39,0,.57.17.57.52V79a2.86,2.86,0,0,1,0,.34h0a2,2,0,0,1,1.85-1.18c1.16,0,1.57.66,1.57,1.81v2.21a.18.18,0,0,0,.2.21h.39v.54H71c-.4,0-.56-.16-.56-.56V80.09c0-.74-.12-1.39-1-1.39A1.77,1.77,0,0,0,67.74,80a2.53,2.53,0,0,0-.07.63v2.23H67Z"/>
    <path class="cls-1" d="M74.53,78.11a2,2,0,0,1,2,2.15c0,.11,0,.32,0,.32H72.89a1.77,1.77,0,0,0,1.81,1.85,2.08,2.08,0,0,0,1.4-.58l.3.48a2.64,2.64,0,0,1-1.73.66,2.36,2.36,0,0,1-2.44-2.43,2.28,2.28,0,0,1,2.3-2.45m1.31,2a1.33,1.33,0,0,0-1.32-1.44,1.6,1.6,0,0,0-1.6,1.44Z"/>
    <polygon class="cls-2" points="54.3 13.51 54.66 14.77 55.02 13.51 56.3 13.89 55.38 12.95 56.3 11.95 55.02 12.27 54.66 11 54.3 12.27 53.03 11.95 53.95 12.89 53.03 13.83 54.3 13.51"/>
    <path class="cls-2" d="M58.06,57.58l-.32-.12c.15-.55.31-1.1.41-1.65a2.54,2.54,0,0,0,.05-1,1,1,0,0,0-.33-.58c-.43-.39-1.14-.21-1.62-.06,0-.28,0-.56,0-.85a2.69,2.69,0,0,0,.74.19h.24a2.3,2.3,0,0,0,.23-.44c.08-.25.14-.52.2-.78.1-.44.18-.88.25-1.32l0-.16c-.06-.1,0-.12,0-.23l.19-.51a1.47,1.47,0,0,0,.17-.61,1.89,1.89,0,0,0-.37-1.18c-.38-.39-.84.29-1,.56-.06.1-.27.26-.43.47a1,1,0,0,0,0,1l-.17,0a2.24,2.24,0,0,0-.14.36,1.8,1.8,0,0,0-.33-.4l-.27-.2a5.92,5.92,0,0,1,.37-.77.28.28,0,0,1,.13-.11,1.31,1.31,0,0,0,.28-.09,1,1,0,0,0,.47-.48c.2-.41-.42-.91-.42-.91s.08-.14.12-.2a.4.4,0,0,0,0-.37.35.35,0,0,0-.12-.19,2.09,2.09,0,0,0-.44-.29l-.17-.09c-.07,0-.07-.07-.1-.14a1.2,1.2,0,0,0-.21-.34,1.75,1.75,0,0,0-1.75-.39,1.92,1.92,0,0,0-1.37,1,1.82,1.82,0,0,0-.15.66c0,.11,0,.22,0,.32a.75.75,0,0,0-.26.41.81.81,0,0,0,.19.76.53.53,0,0,0,.21.11.39.39,0,0,1,.22.11,1.23,1.23,0,0,0-.64.4A.93.93,0,0,0,52,50.72c0,.06,0,.06,0,.12l-.06.13a1.67,1.67,0,0,0-.08.3,2.14,2.14,0,0,0,0,.94,2.8,2.8,0,0,0,.28.67,1.71,1.71,0,0,0,.14.27.62.62,0,0,1,0,.27,2.58,2.58,0,0,1,0,.29c0,.33-.14.64-.16,1a2.16,2.16,0,0,0,.16,1.15c-.53,0-.76.47-1,.87a1,1,0,0,1-.26.25,2.91,2.91,0,0,0-.3.31,1.33,1.33,0,0,0-.21.49,1.61,1.61,0,0,0,.14,1.36.64.64,0,0,0,1.09.08,14.09,14.09,0,0,0,3.89,0c.71,0,1.41.05,2.12,0a2.46,2.46,0,0,0,.66-.06.7.7,0,0,0,.37-.33c.38-.6-.2-1.07-.7-1.29m-1.66-3a2.62,2.62,0,0,1,.79-.14.61.61,0,0,1,.62.71,4.21,4.21,0,0,1-.12.78c-.09.46-.22.91-.34,1.37l-.16,0-.13,0-.12,0s-.14-.25-.17-.3-.26-.36-.39-.53l-.06-1c0-.18,0-.35,0-.53a1.85,1.85,0,0,0,0-.23l.13,0M57,49.34a1.24,1.24,0,0,0,.27-.29,2.18,2.18,0,0,1,.26-.34c.06-.07.16-.17.24,0a2.23,2.23,0,0,1,.14.77,7.22,7.22,0,0,1-.32.91,1.16,1.16,0,0,0-.56-.18c-.08,0-.23,0-.26,0a.94.94,0,0,1,.23-.87m-3.47-3.11c.68-.27,1.64-.28,1.88.55-.42-.19-.64.31-.66.65l.12,0a.61.61,0,0,1,.13-.32c0,.13.19.16.28.12a.2.2,0,0,0,0-.35c.26-.09.48.1.69.22,0,0,.22.12.2.16a.86.86,0,0,1-.14.13.67.67,0,0,0-.19.25l.25.17s-.33.28-.31.32.3-.05.38-.1.35.27.26.44a.64.64,0,0,1-.42.29.52.52,0,0,0-.26.12,1.33,1.33,0,0,0-.21.26,3.65,3.65,0,0,0-.34.72,3.27,3.27,0,0,0-.74-.21c-.33,0-.66,0-1-.07v-.17c0-.1.07-.09.16-.14a1.12,1.12,0,0,0,.48-.57l.09-.28s-.15-.09-.19-.12a.46.46,0,0,1-.18-.16.3.3,0,0,1,.17-.45l.12-.21a9.91,9.91,0,0,0-1.44,0,1.3,1.3,0,0,1,.86-1.34m-1,2.38c-.11,0-.12-.15-.13-.25a.33.33,0,0,1,.31-.37,3.8,3.8,0,0,1,.75-.06c-.14.25.08.54.29.67a.68.68,0,0,1-.48.42c-.17,0-.34-.18-.43-.29s-.2-.09-.31-.12m-.19,3.45a.75.75,0,0,1,0-.28,1.32,1.32,0,0,1,0-.44.77.77,0,0,1,.28-.53,1,1,0,0,1,.65-.23L53,50.46c-.11-.07-.34,0-.45,0l-.15.05s-.09-.06-.12-.1a.48.48,0,0,1-.11-.43.63.63,0,0,1,.2-.33.78.78,0,0,1,.2-.11c.06,0,.06,0,.08,0a.82.82,0,0,0,.32.32,1.8,1.8,0,0,0,.86.15,4,4,0,0,1,1,.14,1.85,1.85,0,0,1,1,.66,1.53,1.53,0,0,1,.19.41c-.45-.29-.91-.56-1.37-.83l-.06,0a4.57,4.57,0,0,0-2.22,1.82,1,1,0,0,1,0-.16m-.79,6.61a1,1,0,0,0,0,.16c0,.1-.1.22-.21.22s-.27-.19-.33-.31a1.27,1.27,0,0,1,0-.84,1,1,0,0,1,.32-.58,2.27,2.27,0,0,0,.41-.41c.09-.15.16-.3.26-.44a.61.61,0,0,1,.88-.08,1.07,1.07,0,0,1,.16.14c.07.06,0,.14,0,.22a4.92,4.92,0,0,1-.23.6c0,.09-.07.17-.16.2l-.2.08a1.29,1.29,0,0,0-.36.25,1.74,1.74,0,0,0-.48.79m5-.17a2,2,0,0,1-.81.29,7,7,0,0,1-1.2.12,17.23,17.23,0,0,1-2.49-.1,6.28,6.28,0,0,0,1.39-2.33,4,4,0,0,1,1.3.65,2.18,2.18,0,0,1,.62.59c.07,0,.16,0,.23,0a3.45,3.45,0,0,0-1.6-1.43,3.41,3.41,0,0,0-.48-.18,2.25,2.25,0,0,1-.44-.14,1,1,0,0,1-.52-1c0-.45.15-.87.19-1.31a6.77,6.77,0,0,0,0-.9c0-.1,0-.27,0-.35a3.15,3.15,0,0,1,.31-.41,4.64,4.64,0,0,1,1.24-1l.2-.1.16.08.59.32c.4.22.81.45,1.2.71,0-.24,0-.47,0-.71s0-.31.06-.46,0-.1.06-.11l.15,0a.82.82,0,0,1,.73.24c.06.07,0,.2,0,.28l0,.29-.12.61a7.07,7.07,0,0,1-.22.88s0,.08,0,.12,0,0-.12,0L56.32,53A13.16,13.16,0,0,1,55,52.41a1.91,1.91,0,0,0-.82.69h.13c.1,0,.1,0,.17-.06a1.07,1.07,0,0,1,.47-.25.17.17,0,0,1,.17,0l.29.17.35.18c.09,0,.09,0,.09.15v.22c0,.79.06,1.58.11,2.37a4.76,4.76,0,0,1-.53-1.21l-.2.16a1.85,1.85,0,0,0,0,.23,3.87,3.87,0,0,0,.54,1.21,11.07,11.07,0,0,1,.76,1c.17.33.32.89,0,1.16m1.83.27c-.08.09-.29.07-.39.07a11.09,11.09,0,0,1-1.29,0c.5-.15.52-.77.43-1.18.38.12,1.81.48,1.25,1.1"/>
    <polygon class="cls-2" points="48.9 24.22 49.16 25.11 49.41 24.22 50.3 24.49 49.66 23.82 50.3 23.1 49.41 23.33 49.16 22.43 48.9 23.33 48.01 23.1 48.65 23.77 48.01 24.45 48.9 24.22"/>
    <path class="cls-2" d="M60.34,19.62l-.25,0h0L60,19.53l-.1.11a1,1,0,0,1-.67.28h-.26l-.05.12-.18.16.2.16c.3.22.31.3.31.32a1.27,1.27,0,0,0,.21,1.06A.69.69,0,0,0,60,22h0l1.24,4.1a2.14,2.14,0,0,0,.62.08,2.27,2.27,0,0,0,.63-.08l.78-4.57a.65.65,0,0,0,.51-.28,1.27,1.27,0,0,0,.06-1.13c0-.12,0-.25.18-.4l.19-.18-.2-.14h0l-.09-.11-.14,0a.57.57,0,0,1-.22,0,1.11,1.11,0,0,1-.59-.17l-.13-.09-.11.09-.23.05.11.24c.16.36.13.43.12.44A1.21,1.21,0,0,0,62.47,21a.7.7,0,0,0,.4.41L62.09,26l-.27-4.59a.72.72,0,0,0,.4-.33,1.23,1.23,0,0,0-.17-1.18c-.07-.11,0-.25.09-.44l.14-.22-.23-.09h0l-.11-.09-.13.08a1,1,0,0,1-.82.06l-.15-.05-.08.12-.21.1.16.21c.23.29.23.37.22.39a1.18,1.18,0,0,0,0,1.16.67.67,0,0,0,.48.3L61.66,26l-1.25-4.13a.68.68,0,0,0,.31-.43,1.21,1.21,0,0,0-.45-1.1c-.08-.09-.09-.23,0-.44Zm2.52,1.25a.85.85,0,0,1,.21-.73.54.54,0,0,0,.07-.45,1,1,0,0,0,.33.06.69.69,0,0,0,0,.47,1,1,0,0,1,0,.76.24.24,0,0,1-.21.1.27.27,0,0,1-.09,0,.37.37,0,0,1-.29-.21M61.59,21h0a.35.35,0,0,1-.31-.14.86.86,0,0,1,0-.76.48.48,0,0,0,0-.45,1.17,1.17,0,0,0,.33,0,.71.71,0,0,0,.09.45.84.84,0,0,1,.15.77.28.28,0,0,1-.25.15m-1.28.28a.29.29,0,0,1-.22.21.35.35,0,0,1-.14,0,.29.29,0,0,1-.23-.1.92.92,0,0,1-.11-.72.52.52,0,0,0-.14-.43,1.11,1.11,0,0,0,.32-.11.61.61,0,0,0,.19.42.84.84,0,0,1,.33.7"/>
    <path class="cls-2" d="M69.13,44.26v.17a1.33,1.33,0,0,1,0-.17"/>
    <path class="cls-2" d="M64.87,23c-.06,0-.25.05-.26,0a.93.93,0,0,0-.13-.31.75.75,0,0,0-1.18,0,.44.44,0,0,0,.09.49l.71.95a.55.55,0,0,1,0,.26c0,.09,0,.27,0,.36a8,8,0,0,0-.18,1,.28.28,0,0,0,.1.24.37.37,0,0,0,.21,0l.18-.05c.06.36,0,1.18.65,1a8.17,8.17,0,0,0-.69,4.38c-.36,0-.61,0-1-.07a1.81,1.81,0,0,1,0-.32,1.29,1.29,0,0,0,0-.39l0-.07s0-.06,0-.09a1.59,1.59,0,0,0,.07-.2,3.17,3.17,0,0,0,.12-.44,3.23,3.23,0,0,0-.15-1.66,2.41,2.41,0,0,0-.38-.66L63,27.3s.17-.89.2-1-.22-.39-.38-.45a2.37,2.37,0,0,1-.1.42,1.88,1.88,0,0,1-.86.12,1.6,1.6,0,0,1-.81-.16s-.1-.33-.13-.4a.45.45,0,0,0-.33.49c0,.26.1.75.14,1l-.11.13a2.3,2.3,0,0,0-.21.33,2.57,2.57,0,0,0-.28.73,3.28,3.28,0,0,0,.06,1.73.68.68,0,0,0-.25.67,1.56,1.56,0,0,0,.25.72,4,4,0,0,0,1.1,1.05,1.81,1.81,0,0,0,1,.11h.19a1,1,0,0,1,.17.1l.45.26.13.07a1.63,1.63,0,0,0-.15.66l1.47-.1c-.09.77-.89,3.11-1.41,5.8-.64,3.38-1,5.69-1.07,5.83a1.16,1.16,0,0,0,0,.78c-.38,0-.91,0-1.18.38a.59.59,0,0,0,0,.67,1,1,0,0,0,.58.38,5.83,5.83,0,0,0,2.13-.19,4.91,4.91,0,0,1,.77.1.76.76,0,0,0,.76-.3l.28.06a2.12,2.12,0,0,0,.71,0l.43-.08a3.76,3.76,0,0,1,.75,0,1.14,1.14,0,0,0,.66,0,.94.94,0,0,0,.46-1.11,1,1,0,0,0,.49-.16.55.55,0,0,0,.19-.35,3.18,3.18,0,0,0,0-.62c0-.26,0-.52,0-.78v0h0c0-.09,0-.19,0-.28C69,43.27,69,42.64,69,42s-.06-1.12-.07-1.68,0-1.16,0-1.75.08-1.21.08-1.83a11.89,11.89,0,0,0-.23-2.59,3,3,0,0,0-.11-.4c0-.14-.1-.27-.15-.41a26.53,26.53,0,0,1,.18-2.94c0-.16.08-.46.11-.62a5.2,5.2,0,0,0,.12-.87,3.36,3.36,0,0,0-.19-1.44,2.42,2.42,0,0,0-.35-.6.75.75,0,0,0,.24-1.22.7.7,0,0,0-.62-.8s0,0,0-.07a2.5,2.5,0,0,0-.59-1.19c0-.06.3-.81.4-1.13.2-.58-.53-.61-.73-.55a.63.63,0,0,0-.45.73.08.08,0,0,1,0,.08.49.49,0,0,1-.44,0s0-.08,0-.1a.48.48,0,0,0,.2-.3.63.63,0,0,0-.31-.52c-.26-.2-.61-.39-.92-.18s-.71.65-.45,1a.62.62,0,0,0,.25.2c.12.07-.06.13-.12.14m-3.06,3.8h0a2.75,2.75,0,0,0,.7-.05c0,.13,0,.26-.07.39s-.33.18-.65.17-.6-.08-.62-.2l-.06-.4a3,3,0,0,0,.67.09m-1.35,2.07A2.28,2.28,0,0,1,61,27.62a2.43,2.43,0,0,0,1.7,0,2.63,2.63,0,0,1,.35,2.44c0,.05,0,0-.08,0a.57.57,0,0,0-.26,0c-.37.11-.35.56-.49.85s-.63.27-.87.07a1.84,1.84,0,0,1-.38-.49,1,1,0,0,0-.37-.38,1.31,1.31,0,0,1-.14-.51,2.55,2.55,0,0,1,0-.78m2.85,3.94c-.21-.12-.41-.25-.62-.36a1.17,1.17,0,0,0-.67,0,1,1,0,0,1-.78-.27,6.42,6.42,0,0,1-.61-.56,1.38,1.38,0,0,1-.29-.61,1,1,0,0,1,0-.3c0-.11.14-.1.19,0a2.29,2.29,0,0,0,.73.84,1,1,0,0,0,1.17-.11.93.93,0,0,0,.23-.38l.06-.19c0-.08,0-.21.1-.27s.14,0,.16.07a.78.78,0,0,1,0,.34c0,.22,0,.44-.06.66,0,0,0,.06,0,.06a2.13,2.13,0,0,1,.33.11,3,3,0,0,1,0,1m1.62-6.18a.63.63,0,0,1-.16-.44c.12,0,.3-.12.28-.26l-.21,0c-.06,0-.11,0-.12,0a.25.25,0,0,1,0-.17s.09-.2.05-.23a1.73,1.73,0,0,1-.46.11s0-.09,0-.13c0-.27,0-.62.33-.75a.19.19,0,1,0,.35,0,.58.58,0,0,1,.21.07s0-.08,0-.12-.18-.08-.2-.09-.43-.1-.56.06a3.3,3.3,0,0,1,0-.48l.21-.06a7.25,7.25,0,0,1,1-.2l0,.06a3.24,3.24,0,0,1,.21.69q.07.33.12.66c0,.24,0,.49.06.73a.87.87,0,0,0,.72.78,3.61,3.61,0,0,1-1.16.34,1.7,1.7,0,0,1-.33,0,5.91,5.91,0,0,0,.2-.7l-.23.12c-.1,0-.26.11-.35,0M64.74,47h0c0,.1-.19.12-.27.11a5.56,5.56,0,0,0-2.39.16,1.09,1.09,0,0,1-.8-.22.25.25,0,0,1-.08-.15c0-.1.11-.15.18-.18A2.41,2.41,0,0,1,62,46.6a1.19,1.19,0,0,0,.59-.13,13.32,13.32,0,0,0,2,0s0,0,.06.06a.7.7,0,0,1,.06.19.61.61,0,0,1,0,.3h0M68,46.64l0,0,0,0a.41.41,0,0,1-.23.2.94.94,0,0,1-.41,0,4,4,0,0,0-.77,0,4.51,4.51,0,0,1-.9.1,4.1,4.1,0,0,1-.48-.1c0-.1,0-.21,0-.31s.06,0,.09,0l1.34,0a3.41,3.41,0,0,0,.46-.05c.18,0,.18-.21.2-.35a4.48,4.48,0,0,0,.64.08c.07,0,.07,0,.09.08a.85.85,0,0,1,0,.17.64.64,0,0,1,0,.28s0-.07,0,0m.62-10.78c0,.52,0,1,0,1.57s-.09,1.23-.1,1.85c0,1.09.21,5.76.19,6s0,.33-.09.36a2.18,2.18,0,0,1-1.38-.07s.17-8,.17-8.07-.17-.19-.19-.2q-.18,3.44-.47,6.87c0,.33-.16,1.79-.16,1.81a13.35,13.35,0,0,1-1.45.07c.23-1.78.5-6,.49-6.1l-.25.23S64.53,46,64.53,46a4.66,4.66,0,0,1-1,.06c-.24,0-.65,0-.9-.05s-.24,0-.26-.15a.78.78,0,0,1,0-.34c.3-1.2.57-3,1.11-5.95.5-2.71,1.3-5.08,1.39-5.86l1.26-.07a2.53,2.53,0,0,0,1-.16,1,1,0,0,0,.5-.56c.18-.47.4-.94.57-1.42,0,.53-.09,1.76-.08,1.83a3.81,3.81,0,0,0,.19.57,9,9,0,0,1,.28,1.93m0-7.26A8.72,8.72,0,0,1,68,31.07c-.13.37-.68,1.76-.74,1.86s-.51.29-.77.31l-3,.17a2.61,2.61,0,0,0,.19-.89,3.36,3.36,0,0,0-.06-.84c.64.05,1.21.05,1.89.06l.79,0c.06,0,.06,0,.09-.05l.16-.26-.49,0a2.59,2.59,0,0,0,.35-1c.07-.53.07-1.07.13-1.61a1.34,1.34,0,0,1,1-1.24s0-.18,0-.18l-.16,0a1.5,1.5,0,0,0-.6.31,1.57,1.57,0,0,0-.49.91c0,.26,0,.54-.08.81a5.62,5.62,0,0,1-.1.7,2.58,2.58,0,0,1-.5,1.22l-.82-.05c-.48-1.18.3-3.67.35-3.78h.13c1,0,1.9-.67,2.48-.55a1,1,0,0,1,.63.61,2.41,2.41,0,0,1,.15,1m-.93-3.39a.87.87,0,0,1,.5.16.34.34,0,0,1,.11.34c0,.07-.12.21,0,.22.34,0,.24.35.18.44a.77.77,0,0,1-.46.28,1.55,1.55,0,0,1-.74,0,1.06,1.06,0,0,1-.5-.24,1.64,1.64,0,0,1-.34-1,5.13,5.13,0,0,0-.39-1.54c.27,0,.93-.09,1.09-.09a2,2,0,0,1,.6,1.44M65.37,22.6a1.06,1.06,0,0,0-.3-.24s.23-.4.41-.42.49.28.5.3a1.09,1.09,0,0,0-.19.26.42.42,0,0,0,.12.5.67.67,0,0,0,.55.14.73.73,0,0,0,.5-.25c.11-.16,0-.37.08-.48a.34.34,0,0,1,.41-.07c-.06.14-.36.93-.39,1s0,0-.08,0a9.38,9.38,0,0,0-1.29.12,8.8,8.8,0,0,0-1.26.26s-.06,0-.08,0-.53-.73-.66-.88a.34.34,0,0,1,.4,0c.09,0,.1.15.13.21a.45.45,0,0,0,.49.3.85.85,0,0,0,.66-.28.44.44,0,0,0,0-.48"/>
    <path class="cls-2" d="M61.79,26.79h0"/>
    <path class="cls-2" d="M45.11,53.29l-.65,1.17-.29-.16C44,54.21,44,54.15,44,54l0-1c0-.25-.07-.35-.31-.47l-.3-.17-.27.49,0,0c.1,0,.17.1.17.22l0,.78a.37.37,0,0,0,.07.24h0a.91.91,0,0,0-1,.54,1,1,0,0,0,.45,1.48l1.4.78.27-.5-.28-.15,1.46-2.65Zm-1.46,2.65-.47-.26a.5.5,0,0,1-.19-.74.51.51,0,0,1,.74-.24l.46.26Z"/>
    <polygon class="cls-2" points="39.14 49.41 39.39 49.66 37.63 51.38 37.38 51.13 36.98 51.52 37.92 52.48 38.32 52.09 38.07 51.83 39.83 50.11 40.08 50.37 40.48 49.97 39.54 49.02 39.14 49.41"/>
    <path class="cls-2" d="M36.86,45.41c-.11-.22-.24-.26-.46-.15L34.94,46a4.76,4.76,0,0,0-.43.26h0a5.26,5.26,0,0,0,.31-.49L36,43.65l-.27-.53-2.6,1.32a.1.1,0,0,1-.14,0l-.1-.19-.5.25.29.58a.3.3,0,0,0,.46.15l1.46-.75a4.12,4.12,0,0,0,.44-.26h0s-.19.28-.31.5l-1.16,2.1.27.53L36.41,46a.11.11,0,0,1,.15,0l.1.2.5-.26Z"/>
    <path class="cls-2" d="M32.66,39.42a1.76,1.76,0,0,0,1.66-2,1.54,1.54,0,0,0-.51-1H34l.17,0-.07-.56L32.55,36c-.24,0-.33.14-.3.38l.07.58.56-.07,0-.21c0-.07,0-.12.1-.12l.26,0a1.34,1.34,0,0,1,.48.86,1.24,1.24,0,0,1-2.46.32,1.56,1.56,0,0,1,.21-1l-.51-.32a1.86,1.86,0,0,0-.3,1.35,1.79,1.79,0,0,0,2,1.6"/>
    <path class="cls-2" d="M31.76,31.4c1.09.23,1.39-1.43,2-1.3a.45.45,0,0,1,.31.59,1.28,1.28,0,0,1-.59.76l.37.46a1.62,1.62,0,0,0,.8-1.08,1.08,1.08,0,0,0-.78-1.39c-1.15-.24-1.38,1.43-2,1.3-.22,0-.33-.3-.27-.59s.21-.44.37-.41l.16,0,.13-.59-.33-.07c-.5-.1-.82.49-.91.9a1.08,1.08,0,0,0,.74,1.38"/>
    <path class="cls-2" d="M33.29,24.5l.49.28.29-.5-.19-.11c-.06,0-.08-.09,0-.15l.27-.48,2.62,1.52.33-.57L34.45,23l.27-.47a.09.09,0,0,1,.15,0l.19.1.29-.5-.49-.28c-.2-.12-.32-.09-.44.12l-1.25,2.16c-.12.21-.09.32.12.44"/>
    <path class="cls-2" d="M38.32,18.08l1.78,2a.29.29,0,0,0,.48,0L41.8,19a.3.3,0,0,0,0-.48l-.37-.41-.44.4.14.16a.1.1,0,0,1,0,.16l-.62.54a.1.1,0,0,1-.16,0l-.56-.63.87-.77-.37-.42-.87.77-.62-.71.6-.53a.1.1,0,0,1,.16,0l.14.16.45-.4-.36-.4a.29.29,0,0,0-.48,0L37.7,17.88l.38.42Z"/>
    <path class="cls-2" d="M44.34,13.87l1,2.46c.09.23.22.28.45.19l.72-.31a1.68,1.68,0,0,0,1-2.36,1.68,1.68,0,0,0-2.38-.94l-1.34.57L44,14Zm1-.43a1.1,1.1,0,0,1,1.55.67,1.1,1.1,0,0,1-.6,1.6l-.3.13a.11.11,0,0,1-.14-.06L45,13.61Z"/>
    <path class="cls-2" d="M61.87,15.81l.6.26.63-1.43.19.08c.13.06.23.11.24.24l.07,1.31c0,.26.1.33.35.44l.35.15.22-.51-.09,0c-.1,0-.18-.09-.18-.21l-.06-1c0-.24-.11-.31-.11-.31h0a.7.7,0,0,0,.32-.15l1.32-1-.66-.29-1.2.94c-.1.07-.19,0-.31,0l-.23-.1.44-1c.1-.22.05-.35-.18-.45L63,12.39l-.22.52L63,13a.11.11,0,0,1,.06.15Z"/>
    <path class="cls-2" d="M71.25,20a1.85,1.85,0,0,0-2.71-2.52A1.85,1.85,0,1,0,71.25,20M69,17.9a1.16,1.16,0,1,1,1.7,1.59A1.17,1.17,0,1,1,69,17.9"/>
    <path class="cls-2" d="M73.13,25.22l1.49-.56c.23-.09.51-.24.51-.24h0s-.28.25-.43.42l-.95,1.09.23.49,1.45,0a5.51,5.51,0,0,0,.58-.05h0s-.3.12-.5.23l-1.4.79c-.21.12-.27.23-.17.45l.24.51.51-.23L74.65,28a.1.1,0,0,1,0-.15l2.54-1.44L77,25.77l-1.85.05-.51,0h0s.21-.19.36-.36l1.24-1.39-.29-.62-2.74,1a.1.1,0,0,1-.14-.06l-.07-.14-.51.24.24.51c.1.22.23.26.46.17"/>
    <path class="cls-2" d="M75.71,32.37v-.16l-.56,0,0,.57c0,.24.11.32.36.33l1.59.06a5.06,5.06,0,0,0,.56,0h0a5.8,5.8,0,0,0-.55.22l-1.3.64,0,.54,1.34.54a4.85,4.85,0,0,0,.57.18h0a5.49,5.49,0,0,0-.56,0l-1.59.18c-.24,0-.34.11-.33.35l0,.57.56,0v-.16a.11.11,0,0,1,.1-.12l2.9-.33,0-.69-1.73-.67c-.21-.08-.49-.16-.49-.16h0s.27-.1.48-.2l1.67-.79,0-.69-2.92-.13c-.07,0-.11,0-.11-.1"/>
    <path class="cls-2" d="M77.37,41.64a.1.1,0,0,1-.14.07l-1.54-.56a1.41,1.41,0,0,0-1,2.65l1.54.55a.11.11,0,0,1,.07.15l-.08.2.53.19.22-.61a.3.3,0,0,0-.21-.44L75,43.19a.75.75,0,0,1,.5-1.41l1.82.66a.29.29,0,0,0,.44-.21l.22-.61-.53-.19Z"/>
    <path class="cls-2" d="M71.65,47.75l.14-.16-.42-.37-.43.49a.29.29,0,0,0,0,.48l1.23,1.08.4.3h0s-.33-.08-.58-.11l-2.38-.27-.39.45,2.2,1.91a.1.1,0,0,1,0,.15l-.14.17.42.36.42-.48a.3.3,0,0,0,0-.49L70.9,50.2a4.69,4.69,0,0,0-.4-.3h0s.33.07.58.1l2.38.28.4-.45-2.2-1.91a.1.1,0,0,1,0-.16"/>
    <path class="cls-2" d="M66.92,55.26l-1.3-2.35a.29.29,0,0,0-.46-.13l-1.42.79a.29.29,0,0,0-.14.46l.27.48.52-.29-.1-.19a.1.1,0,0,1,0-.15l.72-.4a.11.11,0,0,1,.16,0l.41.75-1,.56.27.49,1-.56.45.82-.7.39a.1.1,0,0,1-.15,0l-.11-.19-.52.3.26.47a.3.3,0,0,0,.47.14l1.89-1-.27-.49Z"/>
    <path class="cls-2" d="M73.19,16.58a26.18,26.18,0,1,0-37,37,26.18,26.18,0,1,0,37-37M54.67,60.38A25.29,25.29,0,1,1,80,35.09a25.32,25.32,0,0,1-25.3,25.29"/>
    <path class="cls-2" d="M54.67,15.49A19.6,19.6,0,0,0,49.88,54.1l.14-.58a19,19,0,0,1-7.66-32.89c1.06,0,2.12.07,3.17,0,.61,0,1.14-.06,1.47-.63a1.27,1.27,0,0,1,.48,0c.31,0,.39.16.56.4a1.79,1.79,0,0,0,1.39.91,1.08,1.08,0,0,0,.67-.22c.11-.1.11-.19.24-.12a.85.85,0,0,0,.44.09c.34-.06.43-.45.45-.73.39,0,.77.05,1.16.06a1,1,0,0,0,.73-.2.57.57,0,0,0,.15-.78.34.34,0,0,0-.12-.12s.45-.49-.3-.81a4.64,4.64,0,0,0-1.11-.15c.26-.3.36-.78-.06-1a.77.77,0,0,0-.63,0,1.22,1.22,0,0,1-.6,0,4.23,4.23,0,0,0-1.28,0c-.1,0-.19.05-.25-.06a.85.85,0,0,0-.09-.15L48.74,17a18.79,18.79,0,0,1,5.93-.95,19,19,0,0,1,4.64,37.44l.15.57a19.6,19.6,0,0,0-4.79-38.61m-7.49,3.3A7.35,7.35,0,0,1,46.49,20a.73.73,0,0,1-.51.2,12.71,12.71,0,0,1-1.38,0l-1.41,0h-.34a19,19,0,0,1,5.43-3,.51.51,0,0,1,.16.09c.13.12.09.14,0,.23s-.32.26-.46.39a4.59,4.59,0,0,0-.76.89m3.6,1.83c-.05.05-.25-.05-.29-.07s-.05-.11,0-.23a1.13,1.13,0,0,0,0-.32,1.08,1.08,0,0,0-.07-.31c-.06-.12-.2-.16-.27-.29a.85.85,0,0,1,.66,1.22h0m-1.61-2.86c.2,0,.41-.05.61-.06a6.14,6.14,0,0,0,1.28.06c.14,0,.66-.2.45.17s-.71.35-1.09.34a.5.5,0,0,0-.45.11.7.7,0,0,1-.49.27,1.62,1.62,0,0,1-.34-.1l-.24.22a1.12,1.12,0,0,0,.85.12c.14-.06.26-.17.41-.17.33,0,.66-.06,1,0s.46.06.71.09.45,0,.64,0,.46.24.13.41a.49.49,0,0,1-.24,0,4.64,4.64,0,0,0-.53,0c-.31,0-.62,0-.93,0,.15.13.19.2.39.2s.6.06.76.06a1.6,1.6,0,0,1,.78.11c.22.11-.1.34-.24.35a6.43,6.43,0,0,1-.76,0c-.14,0-.67,0-.74-.08S50,18.58,49.8,19.23a.53.53,0,0,0-.57-.13c-.22.09-.17.38,0,.57s.31.26.21.42l-.19.34c.16.08.23.2.33,0s.29-.4.25-.47a3.51,3.51,0,0,0-.27-.4c-.05-.06-.27-.23-.13-.27s.62.43.63.52a1.09,1.09,0,0,1-.19.88.77.77,0,0,1-.88.05,2.4,2.4,0,0,1-.7-.75.93.93,0,0,0-1-.44c.08-.69.77-1.21,1.25-1.64a1.36,1.36,0,0,1,.6-.18"/>
    <path class="cls-2" d="M44.8,23.93c.07.06,0-.36-.42-.41a.8.8,0,0,0-.58.23l0,.06a1.3,1.3,0,0,1,.34-.06.19.19,0,0,0,0,.1.21.21,0,0,0,.41,0s0,0,0-.06a.72.72,0,0,1,.27.15"/>
    <path class="cls-2" d="M45,25.24c-.13,0-.63-.1-.44.16s.56-.06.57-.09,0-.06-.13-.07"/>
    <path class="cls-2" d="M44.53,46.92a1,1,0,0,0,.94.14,2,2,0,0,1,.53-.12,1.89,1.89,0,0,1,.51.12,1.87,1.87,0,0,0,1.87-.29.59.59,0,0,0,0-.85c-.29-.29-.7-.23-1.08-.28l0,0a3.38,3.38,0,0,0-.23-.7c0-.13-.1-.26-.14-.39a10.66,10.66,0,0,1-.37-1.34,14.89,14.89,0,0,1-.27-2.1c0-.35,0-.7-.07-1.05a7,7,0,0,0-.23-1c-.16-.53-.43-1-.55-1.56,0-.21-.09-.41-.13-.62a2.57,2.57,0,0,1-.11-.72c.1-1.23.14-2.46.21-3.69,0,0,0-.15,0-.18a6.8,6.8,0,0,1,1-.31,4.46,4.46,0,0,1-.18-.52,2.72,2.72,0,0,0,.71-.25,2.49,2.49,0,0,0,.72-.57,2.24,2.24,0,0,0,.51-.93c.08-.29.16-.8-.13-1s-.72.08-1,.27-.36,0-.52.16a2.83,2.83,0,0,0-.32.37l-.09.12-.53.07a4.63,4.63,0,0,0-.09-2,3.59,3.59,0,0,0-.3-.83,1.22,1.22,0,0,0-.27-.33.75.75,0,0,0-.2-.1l-.15,0c0-.06,0-.11.09-.1a.85.85,0,0,0,.69-.41,4.17,4.17,0,0,0,.5-.93,2.7,2.7,0,0,0,.17-.89,1.09,1.09,0,0,0,0-.18c0-.05.08-.09.1-.13a.94.94,0,0,0,.13-.4,1.87,1.87,0,0,0-.07-.67,1.73,1.73,0,0,0-.79-1,2.06,2.06,0,0,0-1.84-.09,2.47,2.47,0,0,0-1,.8c-.11.16-.26.3-.36.48a2.26,2.26,0,0,0-.21.85,3.64,3.64,0,0,0,0,.66c0,.07,0,.06-.08.09a.83.83,0,0,0-.52.94s-.67.66,0,1.15a3.5,3.5,0,0,0-.64.69,3.89,3.89,0,0,0-.35.91,10.13,10.13,0,0,0-.22,2.26q0,1.26.06,2.52c0,.42,0,.85,0,1.28s0,.61-.06.91c-.27,3-.33,6-.67,9a8.93,8.93,0,0,0-.1,1.15.9.9,0,0,0,.16.53,1.6,1.6,0,0,0,.52.41l.28.15c.07,0,0,.08.06.16a1.59,1.59,0,0,0,.08.33,1,1,0,0,0,1,.67,1.67,1.67,0,0,0,.38-.06,1.1,1.1,0,0,1,.31,0,1,1,0,0,0,.7-.12.92.92,0,0,0,.34-1.19,1.36,1.36,0,0,0,.33-.14l.08,0,.19.09.11,0c.06,0,.13,0,.12.09a.84.84,0,0,0,.26.7M47,46a2.53,2.53,0,0,0,.55.09,1.1,1.1,0,0,1,.48.08.18.18,0,0,1,0,.3,1,1,0,0,1-.89.28,4.29,4.29,0,0,1-.93-.2,1.51,1.51,0,0,0-.91.11c-.31.09-.71,0-.67-.41,0-.06.18,0,.24,0a7.23,7.23,0,0,0,1.88-.27c.08,0,.14,0,.22.06m-.44-16.33c.1-.12.28-.36.47-.31s.27-.1.38-.18.42-.35.43-.09a1.58,1.58,0,0,1-.21.85,2.05,2.05,0,0,1-1.09.94l-.38.09a4.29,4.29,0,0,1-.06-.69,4.43,4.43,0,0,1,.46-.61m-.91-5.08A3.32,3.32,0,0,1,45,25.78c-.07.07-.16.16-.26.16a1.09,1.09,0,0,1-.47-.12,3.06,3.06,0,0,1-.57-.29,1.09,1.09,0,0,1-.08.15,5.19,5.19,0,0,0,.63.45l0,.17c0,.1,0,.09-.1.1-.79.07-.93-.45-.93-.45l.31-.79A3.67,3.67,0,0,1,44,23a1.52,1.52,0,0,1,.68-.43l.19-.05c.08,0,.14.07.2.11l.5.38c0,.26.09.51.14.77-.25-.32-.6,0-.78.21,0,0,0,.1,0,.14a2.64,2.64,0,0,1,0,.29v.35l-.29,0c0,.08-.05.08,0,.12A1,1,0,0,0,45,25c.21.05.21-.16.19-.3l-.09-.54a1.16,1.16,0,0,0,0-.18c0-.06.13-.07.17-.08a.2.2,0,1,0,.38.05s.11,0,.1.1a4.62,4.62,0,0,1-.07.57M42,25.51a.7.7,0,0,1-.05-.4.47.47,0,0,1,.43-.3l.21,0a5.43,5.43,0,0,1,0-.9,1.46,1.46,0,0,1,.38-1.09l0,0a2,2,0,0,1,.92-.83,1.5,1.5,0,0,1,2,.77l-.08.09a6.45,6.45,0,0,0-.6-.54.7.7,0,0,0-.53-.05,2.16,2.16,0,0,0-.57.21,1.18,1.18,0,0,0-.32.21,2.31,2.31,0,0,0-.4.78,4.37,4.37,0,0,0-.24,1.68l-.28.69s0,.06-.07.07a2.19,2.19,0,0,0-.79.34c-.08,0-.1.09-.2,0-.41-.21.18-.72.18-.72m1.15,21.21a.48.48,0,0,1-.43.37.92.92,0,0,1-.37,0l-.16,0a.58.58,0,0,0-.19,0,.81.81,0,0,1-.68-.07.79.79,0,0,1-.28-.62,8,8,0,0,0,2-.06c.08,0,.08,0,.1.08a.54.54,0,0,1,0,.33m1-4.44v-.14a.76.76,0,0,0,0,.14m0-.71v0c-.06.81-.15,1.63-.27,2.43a10.51,10.51,0,0,1-.31,1.58c0,.09,0,.11-.12.15a2,2,0,0,1-.43.13,7.06,7.06,0,0,1-.91.11h-.58a2.79,2.79,0,0,1-.5,0h0a28.16,28.16,0,0,0,1.61-7.14c-.06,0-.24.1-.25.17a21.5,21.5,0,0,1-1.95,6.86c-.21-.11-.43-.25-.45-.5a5.82,5.82,0,0,1,.08-1.1c.11-1,.19-2,.26-2.94.14-2.12.23-4.24.43-6.34a11.55,11.55,0,0,0,0-2c-.05-.77-.08-1.54-.08-2.31a11.73,11.73,0,0,1,.18-2.29,3.58,3.58,0,0,1,.32-.9,1.92,1.92,0,0,1,.36-.44,2.75,2.75,0,0,1,1.35-.82c.21.41.77.62,1.57.57.14,0,.23,0,.32.09a1.37,1.37,0,0,1,.23.47,4.55,4.55,0,0,1,.25,1.26,2.83,2.83,0,0,1,0,.65c0,.24-.09.5-.09.5l-.89.34c-.07,0-.25-.55-.26-.58-.08-.25-.15-.49-.21-.74a7.74,7.74,0,0,0-.28-1,1.11,1.11,0,0,0-.79-.65s0,.16,0,.18a.76.76,0,0,1,.19.12,1.62,1.62,0,0,1,.41,1.05c.06.4.13.8.22,1.19a1.91,1.91,0,0,0,.25.69c-.2.12-.4.24-.59.38.07,0,.19.12.26.08a9.08,9.08,0,0,1,2.19-.75,5.76,5.76,0,0,0,.16,1.61c-.67.2-1.35.47-2,.72-.09,0-.27.15-.35.1a.89.89,0,0,1-.26-.21,2.7,2.7,0,0,1-.25-.4c-.24-.43-.45-.89-.65-1.34s-.36-.84-.5-1.28l-.27-.09c.25.79.52,1.58.81,2.35a6.89,6.89,0,0,0,.52,1.14.67.67,0,0,0,.59.37,2.46,2.46,0,0,0,.65-.26c.29-.13.58-.26.88-.37-.07,1.14-.11,2.28-.19,3.43a18.25,18.25,0,0,1-.44,3.2l.12.36a8,8,0,0,0,.55-1.86,3.38,3.38,0,0,0,.24.72,6.88,6.88,0,0,1,.37,1.08,4.34,4.34,0,0,1,.18.94c0,.39,0,.78.07,1.17a12.24,12.24,0,0,0,.8,3.63,2.39,2.39,0,0,1,.15.37s-.1.07-.14.09a8.45,8.45,0,0,1-2.4.24c-.07,0-.06,0-.06-.09,0-.41,0-.83,0-1.24V42.7c0-.47,0-.93,0-1.39l-.2.26"/>
    <path class="cls-2" d="M56.79,26.45a.19.19,0,0,0,0,.09.15.15,0,0,0,.29,0v0a.65.65,0,0,1,.18.27l.05-.05c0-.11-.12-.4-.32-.43a.44.44,0,0,0-.31.12v0l.14,0"/>
    <path class="cls-2" d="M55.89,27.26a.21.21,0,0,0,.28.14l.22-.1a1.75,1.75,0,0,0-.37-.21c-.06,0-.19,0-.13.17"/>
    <path class="cls-2" d="M54.07,23.18a.24.24,0,0,0,0,.08.19.19,0,0,0,.2.19.19.19,0,0,0,.19-.19v0a.82.82,0,0,1,.2.12c.06.06,0-.34-.38-.39a.72.72,0,0,0-.53.21v.05a1.83,1.83,0,0,1,.33-.05"/>
    <path class="cls-2" d="M54.53,24.74s.22,0,.39.05.36-.06.33-.09a.3.3,0,0,0-.39-.14,2.33,2.33,0,0,1-.34.14Z"/>
    <path class="cls-2" d="M54.66,24.94s.1.23.24.23.25-.23.25-.23,0,0-.23,0a.62.62,0,0,0-.26,0"/>
    <path class="cls-2" d="M55,24.34s.35-.19.35-.19a.22.22,0,0,0-.21-.18c-.14,0-.07-.45,0-.62a.29.29,0,0,1,.07-.08l.12-.05v0a.19.19,0,0,0,.19.19.18.18,0,0,0,.19-.19.13.13,0,0,0,0-.06l.29,0v-.07a.84.84,0,0,0-.65-.2c-.41,0-.46,1.21-.46,1.28s.08.09.13.09"/>
    <path class="cls-2" d="M55.08,26.68a3.87,3.87,0,0,1-.46-.06,1,1,0,0,1-.48-.21,2.41,2.41,0,0,1-.43-1.24,2.14,2.14,0,0,0,1.14.84,2.45,2.45,0,0,0,1.59-1.52,10.24,10.24,0,0,0,.13-1.71.77.77,0,0,0-.22-.49,3.11,3.11,0,0,0-1.06-.62h-.11a7.83,7.83,0,0,0-1.11.14,2.86,2.86,0,0,1,.37-.41l-.16-.14a2.18,2.18,0,0,0-1.13,1.88,5.47,5.47,0,0,0,.09,1.18c0,.14,0,.3.07.54a2.93,2.93,0,0,0,.59,1.82.82.82,0,0,0,.62.2h0a1.58,1.58,0,0,0,.43-.06ZM53.6,23.14a1.7,1.7,0,0,1,.23-.84,6.3,6.3,0,0,1,1.34-.22h.07a2.22,2.22,0,0,1,.94.63,7.51,7.51,0,0,1,0,1.24,1.58,1.58,0,0,1-.51,1.16s-.46.5-.75.5-1.12-1-1.17-1.14a4.17,4.17,0,0,1-.12-1.33"/>
    <path class="cls-2" d="M55.18,34.24h0"/>
    <path class="cls-2" d="M55.28,34.25h0"/>
    <path class="cls-2" d="M58.32,34.25h0"/>
    <path class="cls-2" d="M52.73,43.62h0"/>
    <path class="cls-2" d="M59.9,43.69h0"/>
    <path class="cls-2" d="M59.66,44.17a3.16,3.16,0,0,0,.86-.23l-.48-1h.26V34.23l.61-.59v-.77l-.38-.39h-1.3c.51-3.37-.56-5-.56-5l.08-.08a.72.72,0,0,0,.2-.29.73.73,0,0,0,0-.33c0-.13-.06-.27-.06-.4s0-.09,0-.13,0-.2,0-.3a1.47,1.47,0,0,0-.5-1,1.44,1.44,0,0,0-.58-.29l-.21-.05v-.17a8.85,8.85,0,0,0-.29-2,3.88,3.88,0,0,0-.46-1,2.44,2.44,0,0,0-1-.81,2.57,2.57,0,0,0-2.55.34,4.1,4.1,0,0,0-1.26,2.66,12.33,12.33,0,0,1-.19,1.24,5.36,5.36,0,0,1-.67,1.46,15.86,15.86,0,0,0-1.78,2.81l-.21.56a1.4,1.4,0,0,1-.1.16l-.19.3a2.86,2.86,0,0,0-.41.95,3.71,3.71,0,0,0,0,1.37H47.38l-.39.39v.75l.6.65V42.9h1l-.39,1.21a1.17,1.17,0,0,0,.93.45,2.08,2.08,0,0,0-.12.32,3.69,3.69,0,0,0,.82.08,1.08,1.08,0,0,0,.08.19.81.81,0,0,0,.56.37,1.32,1.32,0,0,0,1.28-.39l.07-.1s0-.05.06-.05a1.5,1.5,0,0,0,.73-.08,1.65,1.65,0,0,0,1.69.06l.15-.08A2.51,2.51,0,0,0,57,45a.08.08,0,0,1,.08,0A1.17,1.17,0,0,0,59,45s0,0,0,0a2.84,2.84,0,0,0,.86-.13c-.06-.23-.13-.43-.21-.66M60,34H59l-.26-.28h1.47Zm-.09.43v8.08h0A14,14,0,0,1,59,38.92V34.4Zm-.71-1.5h1.32v.37H59Zm-.44,0s0-.07,0-.09l-.09-.16a2.88,2.88,0,0,0-.27-.34l-.11-.11s-.11-.09-.11-.11.07-.33.09-.45A3.12,3.12,0,0,0,58.07,28a.58.58,0,0,0,.3-.23,7.53,7.53,0,0,1,.36,5.14m-3.55,1.2v.14a2,2,0,0,0,.81,0h0c-.12.16-.22.34-.33.51a7.4,7.4,0,0,1-.53.72,2,2,0,0,1-1.36.88.78.78,0,0,1-.63-.31,1.14,1.14,0,0,1-.2-.65A4.34,4.34,0,0,1,53.1,34a5.86,5.86,0,0,1,.69-1.75c.14-.22.29-.44.45-.65l.28-.33c0-.05.28-.34.33-.31a2.66,2.66,0,0,0,.81.2c.06,0,.11-.16.12-.19-.16,0-.8-.23-.85-.42A1,1,0,0,1,55,30a4.78,4.78,0,0,1,.3-.74l-.14,0s0,0-.08.06-.2.32-.31.47a10.87,10.87,0,0,1-.86,1.16,1.64,1.64,0,0,0-.07-.36,1.33,1.33,0,0,0-.11-.24,1.45,1.45,0,0,0-.4-.34c.37-.4.74-.82,1.11-1.23.16-.19.33-.37.5-.55a1.32,1.32,0,0,1,.48-.29l.18-.06a1.85,1.85,0,0,0,1.91.11s0,0,.08,0a3.13,3.13,0,0,1,.73,1.87A2.56,2.56,0,0,1,58,31.25a5.29,5.29,0,0,1-.89,1.11c-.1-.16-.19-.33-.28-.5l-.12-.21.16-.16a2.75,2.75,0,0,0,.22-.26,1.85,1.85,0,0,0,.37-.92,1.24,1.24,0,0,0-.16-.8l-.14.1c-.06,0-.06,0,0,.1a1.15,1.15,0,0,1,.05.55,2,2,0,0,1-.64,1.1l-.21.19c-.05.05,0,.08,0,.13l-.13,0a.74.74,0,0,0-.36.12.62.62,0,0,0,.11,1,.85.85,0,0,0,.61.05.65.65,0,0,0,.35-.24l.11.21c.22-.24.44-.49.67-.73a2.1,2.1,0,0,1-.86,1.31,2.69,2.69,0,0,1-.89.42,2.94,2.94,0,0,1-.59.12l-.14,0v.07m-2.31-1.36h0a2.51,2.51,0,0,1-1.3.26,3.22,3.22,0,0,1-.45,0l-.07,0a.37.37,0,0,1,0-.11,1.55,1.55,0,0,1,0-.22.62.62,0,0,1,.15-.44c.1-.1.25,0,.36,0s.21.15.27.1a2.61,2.61,0,0,1,.37-1c.07,0,.11.14.11.18a1.26,1.26,0,0,1,0,.33.51.51,0,0,0,0,.27c0,.06,0,.05.08.06a1.72,1.72,0,0,0,.75-.22c.14-.1.36-.53.52-.66s.25-.1.2.07a4.07,4.07,0,0,1-.33.66,2.08,2.08,0,0,1-.61.71h0m0,.47a8,8,0,0,0-.29,1.13,1.23,1.23,0,0,0-.69-.47,1.88,1.88,0,0,0-.53-.07h-.22a2.63,2.63,0,0,1-.06-.39,3.78,3.78,0,0,0,1.79-.2m-.51-2.33a.56.56,0,1,1,.56.56.56.56,0,0,1-.56-.56m3.82-4.59a.14.14,0,0,0,.14-.09c0,.13-.08.22-.15.31l-.22.2c-.05.05,0,.11,0,.16a.5.5,0,0,0,.21.09l.16.05s0-.06,0-.06-.22-.09-.23-.17,0-.08.06-.11l.12-.18a.82.82,0,0,0,.12-.25c.06-.21-.16-.31-.34-.32a1,1,0,0,1,.45-.36,1.82,1.82,0,0,0,.66.06,1.15,1.15,0,0,0,.56.48l-.17.48c.12,0,.31,0,.3.2s-.38.3-.38.3a3.32,3.32,0,0,1-.28.63,1.52,1.52,0,0,1-1.32,0c-.42-.48,0-1.43,0-1.54s.08-.15.13-.12c-.12.11-.06.26.08.26m.54,6.15a.52.52,0,0,1-.74.08.28.28,0,0,1,.18-.49l.31,0,.25.45m1.26.15c.1.09.64.66.21,1.21a1.15,1.15,0,0,1-1.35.13A2.56,2.56,0,0,0,58,32.59m.33,1.66a.68.68,0,0,0,.21-.17s.09.1.09.13v1.23a1.84,1.84,0,0,0-.48-1.1l.18-.09M57.42,25a1.31,1.31,0,0,1,.75.3,1.07,1.07,0,0,1,.39.82v.12a.54.54,0,0,0-.05.22,3.07,3.07,0,0,1,.06.52c0,.21-.28.33-.47.38s-.05.15-.08.2-.33.1-.45.09,0-.12.07-.17l0-.11s.06,0,.09,0a.64.64,0,0,0,.48-.52.38.38,0,0,0-.18-.34s0-.23.06-.29A.19.19,0,0,0,58.3,26a1.62,1.62,0,0,1-.41-.22,1.52,1.52,0,0,1-.3-.32.18.18,0,0,0,.14-.13,3.18,3.18,0,0,1-1.06-.13c0-.11.21-.16.31-.19a1.67,1.67,0,0,1,.44-.06m-8.65,13.6A11.7,11.7,0,0,1,49,36.36a4.93,4.93,0,0,0,0-.54c0-.4.05-.81.06-1.21a16.45,16.45,0,0,0-.24-2.79,2.35,2.35,0,0,1,.38-1.41,2.78,2.78,0,0,1,1.15-.91,16.37,16.37,0,0,1,1.66-.59,4.73,4.73,0,0,0,2.74-1.82l-.3,0s-.08.09-.09.11l-.12.12a2.73,2.73,0,0,1-.25.23,5.55,5.55,0,0,1-1.3.68c-.49.19-1,.35-1.51.5a6.59,6.59,0,0,0-1.43.51,9.41,9.41,0,0,1,1.27-2,6.65,6.65,0,0,0,1.23-2.43c.12-.52.13-1.05.24-1.57a3.79,3.79,0,0,1,.75-1.67,2.07,2.07,0,0,1,1.93-.69,2,2,0,0,1,1.19.62,2.45,2.45,0,0,1,.52,1,7.88,7.88,0,0,1,.3,2.05s0,.09,0,.1l-.16,0a1.24,1.24,0,0,0-.32.12,1.06,1.06,0,0,0-.46.43c0,.06,0,.11-.11.15l-.13.13a2.17,2.17,0,0,0-.24.29,2.3,2.3,0,0,0-.27.6,2.51,2.51,0,0,0-.07,1v.08l-.09,0a2.48,2.48,0,0,0-.37.17,1.35,1.35,0,0,0-.26.15,4.85,4.85,0,0,0-.49.52l-1.39,1.53c0,.05,0,.06-.1.07a.71.71,0,0,0-.28.09,1,1,0,0,0-.41.39.94.94,0,0,0-.1.28A1.07,1.07,0,0,0,52,31a1.18,1.18,0,0,0-.37.57A3.21,3.21,0,0,0,50,31v.21a1.35,1.35,0,0,1,.67.28,2.12,2.12,0,0,0-.8.75l.11.12a1.91,1.91,0,0,1,1.06-.62c-.48.23-.47.9-.45,1.35a7.9,7.9,0,0,0,.11.85,1.26,1.26,0,0,0-.44.42,3.39,3.39,0,0,0-.44,1.38c-.08.56-.11,1.13-.15,1.7s-.07.94-.13,1.41c0,.31-.1.61-.16.92a2.45,2.45,0,0,1-.08.39c0,.05,0,.13-.09.16S49,40.15,49,40.1a1.9,1.9,0,0,1-.15-.42,5.15,5.15,0,0,1-.09-1.11m-1.36-5.3V32.9h1.22s0,.18,0,.37Zm.24.42h1.06a1.58,1.58,0,0,1,0,.28h-.78l-.29-.28M48,42.48V34.39h.72c0,.54,0,1.08-.08,1.61s-.14.83-.2,1.25A10.33,10.33,0,0,0,48.36,39a3.15,3.15,0,0,0,.26,1.25,1.31,1.31,0,0,0,.24.34.6.6,0,0,0,.32.15c-.14.58-.5,1.73-.5,1.73Zm2.73,2.66a.53.53,0,0,1-.51-.25c0-.07-.07-.18,0-.25a.83.83,0,0,1,.66-.45c.31,0,.64.47.62.51s-.11.44-.75.44m1.73-.81a.61.61,0,0,0,0,.14c0,.05-.12.07-.16.08a.67.67,0,0,1-.28,0c-.05,0-.09,0-.11,0s-.5-.74-1-.74a1.4,1.4,0,0,0-1.12.75h-.18a13.59,13.59,0,0,0,1.4-5l-.26.14a13.43,13.43,0,0,1-1.43,4.44c0,.07-.64,0-.58-.21.19-.57.37-1.15.54-1.72a24.29,24.29,0,0,0,.69-2.92c.16-1,.18-2,.28-3A5.77,5.77,0,0,1,50.43,35a1.24,1.24,0,0,1,.48-.7,1.21,1.21,0,0,1,1,0,1.15,1.15,0,0,1,.63.79,2.58,2.58,0,0,1,0,.39,2.38,2.38,0,0,0,.06.37,1.74,1.74,0,0,0,.25.49,1.29,1.29,0,0,0,1.08.43,1.63,1.63,0,0,0,1.12-.6c-.13.77-.26,1.4-.38,2a4.89,4.89,0,0,1-.21.68c-1,1-1.68-.5-1.88-1.61l-.14.08c0,.16.25,2.82,1.85,2.24-.12.45-.52,1.71-.52,1.71-.63.15-1.22-.82-1.25-1.41l-.19.07s.07,1.55,1.21,1.93c0,0-.07.25-.8,1.8a3.34,3.34,0,0,0-.26.71m6.08.5a.73.73,0,0,1-1.13-.15.13.13,0,0,1,0-.15c.14-.21.44-.47.72-.34a1.19,1.19,0,0,1,.42.46c0,.06,0,.13,0,.18m.91-1.12-.24-.4c-.17-.31-.34-.63-.49-1a8.48,8.48,0,0,1-.46-1.18,3,3,0,0,1-.1-.32,3.15,3.15,0,0,0-.33-.17,10.69,10.69,0,0,0,.75,2.12c.25.58.51,1.12.76,1.7a.74.74,0,0,1-.39,0c-1-1.72-2.09,0-2.09,0a1.88,1.88,0,0,1-1.94,0,27.45,27.45,0,0,0,.78-5l-.19,0a18.3,18.3,0,0,1-1.24,4.79.61.61,0,0,1-.15.24,1,1,0,0,1-.3.14,1.47,1.47,0,0,1-.66,0c-.08,0-.24,0-.27-.12a.43.43,0,0,1,0-.25,41,41,0,0,0,2.58-8.28,3.13,3.13,0,0,1,.62-1.36,1.23,1.23,0,0,1,.52-.38,1.06,1.06,0,0,1,.66,0c1,.27,1.06,1.34,1,2.23a12,12,0,0,1-1.14,3.29l.39-.16a13.64,13.64,0,0,0,1-2.18,17,17,0,0,0,1.4,6.18h0c-.1,0-.38.14-.44,0"/>
  </g>
</svg>
