<svg id="videncenter_for_allergi" data-name="videncenter for allergi" xmlns="http://www.w3.org/2000/svg" width="110" height="92" viewBox="0 0 110 92">
  <defs>
    <style>
      .cls-1 {
        fill: #fff;
      }
    </style>
  </defs>
  <title>videncenter_for_allergi</title>
  <path class="cls-1" d="M8.45,52.5l-3,1.69-3-1.69V49.13l3-1.68c.5.27,2.5,1.41,3,1.68ZM3.29,38.15l5.83-3.28L15,38.15v2.17l-1-.55-.33.19-5.2,2.93v4.75L3.29,44.73Zm6.48,9.5v-4L14,41.27l1,.54v2.92L9.77,47.65m8.42-4v4.74L14,50.75l-3.54-2,5.83-3.29V42.56l1.92,1.08m1.32,5.49V42.89l-3.24-1.82V37.41l-7.15-4-.33.18L2,37.41v8.06L4.14,46.7l-3,1.69v4.86l4.31,2.43,4.32-2.43V49.87L14,52.24Z"/>
  <path class="cls-1" d="M28.84,48.64H27.77L26.22,44h1l.84,2.65c.08.26.18.56.25.89h0a7.81,7.81,0,0,1,.26-1L29.44,44h.95Z"/>
  <rect class="cls-1" x="31.12" y="43.98" width="0.93" height="4.66"/>
  <path class="cls-1" d="M37,46.22A2,2,0,0,0,34.75,44c-.58,0-1.13,0-1.48,0v4.65c.4,0,.8,0,1.28,0A2.25,2.25,0,0,0,37,46.22m-1,.08c0,1.07-.57,1.54-1.36,1.54a2.68,2.68,0,0,1-.44,0v-3l.48,0c1,0,1.32.58,1.32,1.54"/>
  <polygon class="cls-1" points="37.94 48.64 37.94 43.98 40.57 43.98 40.57 44.79 38.86 44.79 38.86 45.85 40.49 45.85 40.49 46.63 38.86 46.63 38.86 47.81 40.57 47.81 40.57 48.64 37.94 48.64"/>
  <path class="cls-1" d="M44.27,48.63l-1.2-2.21a10,10,0,0,1-.48-1c0,.39,0,1,0,1.52v1.71h-.9V44h1.2l1.14,2.07c.2.38.38.76.55,1.12,0-.45,0-1.2,0-1.71V44h.9v4.66Z"/>
  <path class="cls-1" d="M49.62,48.48a3.13,3.13,0,0,1-1.17.22,2,2,0,0,1-2.07-2.24c0-1.49.76-2.52,2.25-2.52a3.22,3.22,0,0,1,1,.15l-.19.87a2.06,2.06,0,0,0-.82-.15c-.79,0-1.19.62-1.2,1.49s.39,1.51,1.22,1.51a3.31,3.31,0,0,0,.83-.17Z"/>
  <polygon class="cls-1" points="50.69 48.64 50.69 43.98 53.48 43.98 53.48 44.79 51.62 44.79 51.62 45.85 53.4 45.85 53.4 46.63 51.62 46.63 51.62 47.81 53.48 47.81 53.48 48.64 50.69 48.64"/>
  <path class="cls-1" d="M57.09,48.64l-1.2-2.22a10,10,0,0,1-.48-1c0,.39,0,1,0,1.52v1.7h-.9V44h1.2l1.14,2.07c.2.38.38.76.55,1.12,0-.45,0-1.2,0-1.71V44h.9v4.66Z"/>
  <polygon class="cls-1" points="61.11 44.8 61.11 48.63 60.18 48.64 60.18 44.8 59.06 44.8 59.06 43.98 62.23 43.98 62.23 44.8 61.11 44.8"/>
  <polygon class="cls-1" points="63.1 48.64 63.1 43.98 65.72 43.98 65.72 44.79 64.03 44.79 64.03 45.85 65.64 45.85 65.64 46.63 64.03 46.63 64.03 47.81 65.72 47.81 65.72 48.64 63.1 48.64"/>
  <path class="cls-1" d="M70,48.64l-1-1.53c-.11-.17-.22-.34-.35-.52a1.32,1.32,0,0,0,1-1.3c0-1-.64-1.34-1.65-1.34-.53,0-1,0-1.33,0v4.66h.93V46.75h.09l1.13,1.89Zm-1.28-3.26c0,.41-.3.67-.79.67h-.29V44.76a1.47,1.47,0,0,1,.32,0c.53,0,.76.22.76.64"/>
  <path class="cls-1" d="M75.23,44.36a2.65,2.65,0,0,0-.38,0c-.36,0-.53.17-.61.67l0,.23h.71l-.14.73h-.72l-.5,2.81c-.21,1.1-.74,1.59-1.57,1.59a2.69,2.69,0,0,1-.57-.06l.21-.78a1.56,1.56,0,0,0,.36,0c.35,0,.54-.16.67-.81l.51-2.8h-.54l.15-.73h.53l0-.26a1.44,1.44,0,0,1,1.56-1.41,1.88,1.88,0,0,1,.53.06Z"/>
  <path class="cls-1" d="M78.41,46.39a1.13,1.13,0,0,0-1.3-1.25,2.12,2.12,0,0,0-2,2.34c0,.77.36,1.22,1.31,1.22a2.13,2.13,0,0,0,2-2.31m-.94.12c0,.7-.37,1.38-1,1.38-.36,0-.48-.21-.48-.57,0-.62.34-1.38.93-1.38.36,0,.5.2.5.57"/>
  <path class="cls-1" d="M81.36,46.05c-.55-.17-1.11.65-1.32,1.85l-.14.74H79l.33-1.8c.09-.46.23-1.2.28-1.63h.87a6.26,6.26,0,0,1-.28,1h0c.34-.7.71-1.15,1.32-1Z"/>
  <path class="cls-1" d="M87.61,48.64,86,44H85l-1.54,4.66h.93l.29-.92h1.64l.29.92ZM86.05,47H84.89l.37-1.14a6.21,6.21,0,0,0,.2-.72h0a7.1,7.1,0,0,0,.2.76Z"/>
  <polygon class="cls-1" points="88.42 48.64 88.42 43.98 89.35 43.98 89.35 47.78 90.76 47.78 90.76 48.64 88.42 48.64"/>
  <polygon class="cls-1" points="91.6 48.63 91.6 43.98 92.53 43.98 92.53 47.78 93.94 47.78 93.94 48.63 91.6 48.63"/>
  <polygon class="cls-1" points="94.84 48.64 94.84 43.98 97.43 43.98 97.43 44.79 95.77 44.79 95.77 45.85 97.34 45.85 97.34 46.63 95.77 46.63 95.77 47.81 97.43 47.81 97.43 48.63 94.84 48.64"/>
  <path class="cls-1" d="M101.92,48.64l-1-1.53c-.1-.17-.21-.34-.34-.52a1.31,1.31,0,0,0,1-1.3c0-1-.63-1.34-1.65-1.34-.53,0-1,0-1.33,0v4.65h.93V46.75h.09l1.13,1.88Zm-1.28-3.26c0,.41-.31.67-.79.67h-.29V44.76a1.47,1.47,0,0,1,.32,0c.53,0,.76.22.76.64"/>
  <path class="cls-1" d="M105.9,45a3.07,3.07,0,0,0-1.18-.24,1.41,1.41,0,0,0-1.47,1.56c0,1,.48,1.51,1.36,1.51a1.7,1.7,0,0,0,.51-.08V46.18h.94v2.24a4.28,4.28,0,0,1-1.55.28,2.1,2.1,0,0,1-2.27-2.29,2.38,2.38,0,0,1,2.53-2.5,4.23,4.23,0,0,1,1.27.2Z"/>
  <rect class="cls-1" x="107.16" y="43.98" width="0.93" height="4.66"/>
</svg>
