<svg id="visma" xmlns="http://www.w3.org/2000/svg" width="110" height="92" viewBox="0 0 110 92">
  <defs>
    <style>
      .cls-1 {
        fill: #fff;
      }
    </style>
  </defs>
  <title>visma</title>
  <g>
    <path class="cls-1" d="M13.16,37.63c5.56.47,11.6,3.25,15.09,7.23C32.7,49.94,31.19,55,24.84,56.22s-15.1-2-19.55-7.07c-3.41-3.9-3.33-7.79-.24-9.93l17.64,13Z"/>
    <g>
      <path class="cls-1" d="M100.23,56.3,98,47.4a23.83,23.83,0,0,1-.63-3.18h-.08a23.16,23.16,0,0,1-.56,3.26L94.51,56.3H90.7l5.16-18.51h3L104.2,56.3Z"/>
      <path class="cls-1" d="M41.68,37.71,43.9,46.6a22.67,22.67,0,0,1,.64,3.18h.08a24.51,24.51,0,0,1,.55-3.25l2.23-8.82h3.81L46.13,56.3h-3L37.79,37.71Z"/>
      <path class="cls-1" d="M57.65,37.71V56.3H54V37.71Z"/>
      <path class="cls-1" d="M78.38,37.71l1.83,11h0l1.51-11h4.92l1.91,18.51H84.82l-.88-13.35h-.08l-.55,4.61-1.59,8.74H78.86L77,47.32l-.63-4.13v-.32h-.08L75.84,56.3h-4l1.59-18.51h4.92Z"/>
      <path class="cls-1" d="M66.78,37.71a4.61,4.61,0,0,0-1.43,2c-.95,2.31.08,4.05,1,5.64.15.24.23.48.39.72,2,3.41,2.78,5.88,1.27,9.45-.08.24-.31.72-.31.72H63.21a5.33,5.33,0,0,0,1.35-1.75c1-2.46-.16-4.69-1.35-6.83-1.35-2.62-2.86-5.25-1.27-9l.47-.95Z"/>
    </g>
  </g>
</svg>
