<?xml version="1.0" standalone="no"?>
<!DOCTYPE svg PUBLIC "-//W3C//DTD SVG 20010904//EN"
 "http://www.w3.org/TR/2001/REC-SVG-20010904/DTD/svg10.dtd">
<svg version="1.0" xmlns="http://www.w3.org/2000/svg"
 width="512.000000pt" height="512.000000pt" viewBox="0 0 512.000000 512.000000"
 preserveAspectRatio="xMidYMid meet">
<metadata>
Created by potrace 1.11, written by Peter Selinger 2001-2013
</metadata>
<g transform="translate(0.000000,512.000000) scale(0.100000,-0.100000)"
fill="#000000" stroke="none">
<path d="M2842 4765 c-60 -17 -142 -67 -188 -117 -131 -139 -225 -322 -249
-482 l-8 -48 -46 7 c-90 14 -227 14 -287 0 -58 -14 -173 -57 -286 -109 -118
-53 -168 -75 -378 -166 -118 -52 -237 -108 -265 -126 -179 -115 -287 -335
-227 -466 28 -60 112 -141 185 -178 l28 -14 -99 -95 c-154 -149 -175 -212
-129 -401 34 -139 43 -208 52 -370 10 -173 43 -337 82 -397 18 -27 62 -24 83
7 8 12 33 55 55 95 l41 73 13 -30 c33 -74 136 -142 251 -168 31 -7 97 -11 148
-9 50 2 92 2 93 -1 0 -3 2 -21 4 -40 3 -19 7 -50 11 -69 3 -19 7 -181 9 -360
3 -313 0 -362 -30 -526 -23 -125 -32 -201 -28 -241 10 -125 90 -203 209 -204
134 0 240 74 246 172 2 32 -8 168 -18 253 -7 59 -11 321 -6 387 3 53 5 57 23
48 10 -6 43 -41 73 -79 89 -112 219 -198 324 -214 106 -17 222 86 209 185 -12
90 -67 165 -176 242 -107 75 -126 97 -114 133 13 37 46 39 233 9 14 -3 82 -18
152 -36 184 -45 276 -58 423 -60 72 0 144 -2 160 -2 17 -1 42 1 57 5 l27 7 0
-150 c0 -170 4 -199 39 -290 19 -48 25 -86 26 -145 1 -74 3 -80 26 -93 41 -23
74 -2 126 80 54 86 78 107 119 108 40 0 62 -16 170 -121 100 -96 129 -110 181
-86 83 40 58 106 -172 457 -41 63 -105 174 -140 247 -74 147 -74 143 -3 216
106 111 141 271 88 411 -52 140 -215 284 -362 320 -15 3 -32 17 -37 29 -7 19
-141 563 -156 637 -17 84 -19 154 -7 245 22 170 3 282 -56 322 -18 12 -55 29
-84 39 -29 9 -53 18 -55 19 -2 2 5 20 16 42 22 43 112 258 118 282 2 9 13 52
25 96 27 104 33 279 13 354 -39 146 -150 289 -268 346 -72 35 -181 43 -264 20z
m249 -71 c101 -50 180 -153 224 -288 54 -165 -3 -433 -155 -736 -57 -115 -157
-170 -260 -146 -127 31 -377 281 -426 429 -27 79 -25 215 4 302 45 136 130
272 231 371 104 101 261 130 382 68z m-771 -618 c79 -12 75 -5 95 -139 9 -67
20 -135 22 -152 2 -16 20 -109 40 -205 43 -213 37 -185 57 -305 21 -137 24
-159 32 -242 l7 -73 -156 156 c-117 116 -184 174 -267 229 -60 40 -115 75
-122 77 -8 3 -4 23 14 69 53 131 70 246 41 274 -24 24 -37 4 -40 -61 -2 -57
-19 -121 -55 -205 l-20 -47 -81 38 c-45 21 -138 59 -207 85 -69 26 -168 67
-220 90 -52 24 -113 50 -135 59 l-40 17 90 40 c50 21 99 43 110 49 196 90 520
225 575 239 71 18 167 20 260 7z m285 -404 c70 -74 158 -143 230 -179 52 -27
136 -36 185 -20 19 6 14 -2 -25 -39 -221 -207 -250 -239 -324 -363 -49 -81
-51 -83 -52 -50 -3 86 -32 277 -75 489 -20 96 -38 186 -40 200 -3 14 -9 43
-14 65 l-9 40 32 -40 c17 -22 59 -69 92 -103z m-1329 14 c22 -7 68 -27 104
-44 84 -38 134 -59 310 -128 205 -80 404 -183 493 -256 l29 -23 -22 -28 c-25
-32 -60 -117 -60 -147 0 -18 -5 -19 -57 -14 -35 4 -89 0 -136 -9 -75 -14 -278
-16 -376 -3 -20 3 -63 8 -96 11 -125 13 -271 47 -334 78 -83 41 -165 119 -181
173 -31 104 53 268 190 370 49 37 78 41 136 20z m1982 -135 c49 -14 78 -45 90
-96 10 -46 7 -152 -6 -210 -12 -54 -6 -175 13 -260 8 -38 17 -79 19 -90 2 -11
19 -76 36 -145 18 -69 34 -136 36 -149 18 -96 89 -345 123 -436 23 -60 69
-195 102 -300 33 -104 70 -214 81 -243 11 -29 19 -54 17 -56 -2 -1 -32 -10
-66 -19 -35 -9 -92 -35 -127 -56 -144 -89 -167 -92 -206 -29 -42 69 -203 509
-301 823 -71 229 -90 268 -116 242 -11 -11 -10 -23 7 -72 11 -32 18 -60 15
-63 -2 -3 -42 -6 -87 -9 -46 -2 -90 -5 -99 -7 -14 -3 -16 10 -16 104 0 104 1
109 25 121 59 32 132 130 198 265 63 129 72 164 40 164 -17 0 -43 -42 -82
-130 -40 -92 -89 -168 -142 -219 l-46 -43 -18 41 c-9 22 -40 77 -68 121 l-52
80 52 97 c74 139 135 217 258 330 149 137 216 203 237 236 10 15 24 26 31 23
7 -3 30 -10 52 -15z m-808 -544 c87 -91 185 -224 232 -317 l33 -64 0 -171 c0
-171 -15 -273 -38 -276 -56 -7 -128 25 -185 81 -49 50 -157 304 -167 395 -14
135 -49 233 -107 307 l-41 52 11 55 c7 30 23 72 38 94 l26 39 61 -58 c34 -33
95 -94 137 -137z m-1140 9 c47 -9 103 -18 125 -20 22 -2 69 -8 105 -12 64 -7
116 -11 175 -13 29 -2 29 -2 10 -17 -121 -90 -217 -239 -432 -674 -97 -195
-187 -375 -201 -398 l-25 -44 -12 29 c-29 69 -50 195 -60 373 -3 47 -8 101
-10 120 -2 19 -7 55 -10 80 -3 25 -14 78 -26 119 -46 170 -29 242 81 346 35
33 81 79 103 102 35 36 43 40 66 32 14 -4 64 -15 111 -23z m808 -40 c151 -79
197 -379 111 -718 l-9 -37 -43 15 c-118 43 -269 51 -362 19 -61 -21 -161 -71
-170 -85 -3 -5 4 -63 16 -127 11 -65 23 -129 25 -143 2 -14 6 -35 9 -46 7 -29
-5 -32 -120 -29 -178 4 -280 63 -325 187 l-14 38 142 282 c153 307 235 441
321 525 68 68 112 91 226 119 94 23 148 23 193 0z m246 -598 c57 -149 154
-237 276 -253 76 -10 108 31 123 157 2 15 6 30 9 33 6 6 84 14 178 18 l45 2
83 -245 c45 -135 85 -255 88 -266 5 -19 0 -22 -48 -29 -29 -4 -60 -9 -68 -10
-8 -2 -28 -7 -45 -10 -16 -3 -70 -15 -120 -26 -49 -11 -134 -26 -188 -33 -193
-26 -517 -1 -517 39 0 11 19 118 34 190 11 52 48 221 70 320 13 61 27 131 31
158 3 26 8 47 10 47 1 0 19 -42 39 -92z m1281 -118 c129 -55 248 -182 276
-295 17 -69 7 -171 -24 -231 -30 -59 -75 -116 -87 -109 -4 3 -14 26 -23 52 -8
27 -41 129 -72 228 -32 99 -74 224 -95 277 -21 54 -35 98 -30 98 5 0 29 -9 55
-20z m-1512 -69 c74 -24 79 -33 57 -111 -5 -19 -11 -46 -14 -60 -2 -14 -12
-61 -21 -105 -36 -172 -63 -320 -70 -385 -23 -225 -29 -334 -29 -510 -1 -159
3 -250 20 -456 6 -73 -2 -105 -35 -132 -62 -50 -157 -64 -225 -34 -84 38 -102
113 -70 302 9 52 18 109 21 125 3 17 9 50 14 75 8 42 5 726 -4 780 -3 14 -8
48 -11 75 -4 28 -18 118 -33 200 -14 83 -27 159 -27 170 -1 22 60 57 141 81
66 19 201 11 286 -15z m1103 -548 c23 -60 53 -134 67 -165 l27 -57 -123 4
c-67 2 -132 6 -143 9 -12 2 -37 7 -55 10 -29 4 -127 27 -179 41 -139 37 -314
63 -392 56 -17 -1 -48 -76 -48 -117 0 -29 49 -80 140 -144 87 -62 101 -77 136
-147 30 -60 27 -94 -12 -137 -64 -68 -157 -61 -276 23 -54 37 -79 61 -148 143
-30 36 -69 74 -86 85 -30 21 -30 21 -23 89 3 38 9 103 13 144 3 41 8 84 10 95
2 11 7 41 10 68 4 26 8 47 9 47 1 0 34 -7 72 -15 87 -19 375 -27 470 -14 39 6
120 21 180 34 61 13 126 27 145 30 19 4 53 10 75 15 90 18 86 21 131 -97z
m764 -578 c57 -88 122 -195 145 -238 39 -76 39 -79 21 -93 -26 -19 -48 -4
-147 96 -153 155 -240 152 -340 -10 -54 -86 -72 -91 -63 -17 5 43 0 70 -30
159 -36 106 -36 108 -35 268 1 89 -1 164 -5 167 -13 13 94 76 164 97 l45 13
70 -141 c38 -78 117 -213 175 -301z"/>
</g>
</svg>
