<svg id="arla" xmlns="http://www.w3.org/2000/svg" width="110" height="92" viewBox="0 0 110 92">
  <defs>
    <style>
      .cls-1 {
        fill: #fff;
      }
    </style>
  </defs>
  <title>arla</title>
  <path class="cls-1" d="M68.57,26.15c0,.06,0,.1-.06.15s-.07.17-.1.24a3.55,3.55,0,0,1-.2.39,1.62,1.62,0,0,1-.1.18c-.08.14-.16.26-.24.39,6.38,1.41,13.16,3.83,18,7.33a.19.19,0,0,1-.17.34,59.76,59.76,0,0,0-19.89-5.82,8.81,8.81,0,0,1-5,1h0C81.26,31.77,93.57,41.09,93.5,49.31,93.43,57.17,83,64.6,61.93,64.6,53.15,64.6,42,63,33.1,59.38c-.39-.16-.58.41-.22.6,9.75,5.21,27.42,8.84,45.6,5.28.27-.05.35.2.11.29-6,2.45-14.4,3.84-23,3.84-20.92,0-37.88-8.77-37.88-19.58,0-7.8,8.82-14.53,21.59-17.68a8.66,8.66,0,0,1-.82-1.64C23.5,33.76,13,41.18,13,49.81,13,61.7,32.09,71.34,55.58,71.34s42.65-9.86,42.65-22C98.23,38.47,85.77,29.29,68.57,26.15Z"/>
  <g>
    <path class="cls-1" d="M92.19,29.53l-.15-.4a.84.84,0,0,0-.22-.35.91.91,0,0,0-.28-.17.81.81,0,0,0,.43-.23.62.62,0,0,0,.17-.46.81.81,0,0,0-.07-.33.63.63,0,0,0-.2-.23,1,1,0,0,0-.32-.14,2,2,0,0,0-.44,0H90.4a.25.25,0,0,0-.2.08.28.28,0,0,0-.07.21v2.22a.1.1,0,0,0,.06.09.76.76,0,0,0,.25,0,.73.73,0,0,0,.25,0,.11.11,0,0,0,0-.09v-.87h.17a.45.45,0,0,1,.3.09.73.73,0,0,1,.18.32l.13.43,0,.07.06.05.11,0h.35l.11,0s0,0,0,0a.06.06,0,0,0,0,0A.65.65,0,0,0,92.19,29.53Zm-.82-1.28a.5.5,0,0,1-.36.1h-.27v-.69H91a.69.69,0,0,1,.22,0,.31.31,0,0,1,.14.07.23.23,0,0,1,.07.1.69.69,0,0,1,0,.13A.36.36,0,0,1,91.37,28.25Z"/>
    <path class="cls-1" d="M91.09,26.15a2.42,2.42,0,1,0,2.41,2.42A2.41,2.41,0,0,0,91.09,26.15Zm0,4.34A1.93,1.93,0,1,1,93,28.57,1.9,1.9,0,0,1,91.09,30.49Z"/>
  </g>
  <path class="cls-1" d="M45.8,57.41C44.21,54.62,42.56,47.33,41,38c-.12-.69-.25-.92-.83-.91a16.85,16.85,0,0,0-3.68.53c-.6,1.52-1.45,3-4.26,7.23C25.08,55.59,24.75,58.48,31,57.51a7.33,7.33,0,0,1,1.09-4.64s1.49-.83,7.28-.9C40.4,57.89,41.26,58,45.8,57.41Zm-12.25-8c1.33-2.55,3.26-5.41,4.27-7.53.18,1.88,1,7.08,1,7.08A23.66,23.66,0,0,0,33.55,49.38Zm24.6-6.72c-1.81,0-4.14,1.74-5.55,4.65a15.07,15.07,0,0,0,.13-3.78c0-.29-.22-.53-1.09-.49a7.92,7.92,0,0,0-3,.86s.64,1.76-.76,10.63c-.43,2.68,1.41,3.46,4.47,3-1.2-1.73,1-12.47,6-10.25C60.3,44.18,59.76,42.66,58.15,42.66Zm7.27,5.78a82.53,82.53,0,0,0,1.73-12.1c0-.34-.15-.87-1.24-.87a6.58,6.58,0,0,0-3.27.79c.11.42.47,3.39-2.12,15.64-1.1,5.21-.11,6.36,4.26,5.6C64.36,56.22,64.37,53.85,65.42,48.44Zm17.68-3c.25-1.31-.12-1.88-1.3-2.21C74.05,41.07,68.17,46,68.17,52.72c0,2.56,1.27,5,4.06,5,2.21,0,4.24-1.55,5.67-3.27a9.8,9.8,0,0,0,.07,1.9c.23,1.2,1.46,1.81,4.24.91C81.78,55.53,82,51.39,83.1,45.46Zm-4,.35c-.41,4.28-2.1,8.57-4.77,8.57-1.09,0-1.87-.86-1.87-2.29C72.42,48.4,75.34,44.61,79.06,45.81Z"/>
  <path class="cls-1" d="M55.26,27.94c2.91-.55,8.73,7.23.14,10C45.14,41.24,52.71,28.42,55.26,27.94Zm11.09-7.71a6.4,6.4,0,0,1-2.81,2.12c4.49-5.37-1.9-9.06-5.83-8.93-1.14,0-2.15.48-2.38,1.63-.6,2.94,2,6.32,1.12,10.71-.6,3,9.31,5.86,11.13-.73C67.89,23.88,67.79,21.4,66.35,20.23ZM42.07,33.31c6.16,4.45,10.69-3.85,10-4.72-1.62-1.94-.51-5,2.9-4.53,1.79.25-.52-9.77-6-9.77-5.11,0-12.54,9.21-3.48,12.23a14.82,14.82,0,0,1-5.64-.74C38.58,27,39.27,31.26,42.07,33.31Z"/>
</svg>
