<svg id="coloplast" xmlns="http://www.w3.org/2000/svg" width="110" height="92" viewBox="0 0 110 92">
  <defs>
    <style>
      .cls-1 {
        fill: #fff;
      }
    </style>
  </defs>
  <title>coloplast</title>
  <g>
    <g>
      <path class="cls-1" d="M43.34,46.77V47A5.13,5.13,0,0,1,38,51.79a5.74,5.74,0,0,1-4.29-1.64A6.14,6.14,0,0,1,32,45.74a6.21,6.21,0,0,1,1.69-4.48A5.92,5.92,0,0,1,38,39.63c2.85,0,5,1.69,5.33,4.23v.25H40.37v-.19A2.32,2.32,0,0,0,38,42.11a2.7,2.7,0,0,0-2,.79,4.26,4.26,0,0,0-1,2.9,3.94,3.94,0,0,0,1,2.78,2.84,2.84,0,0,0,2,.79A2.38,2.38,0,0,0,40.49,47v-.18l2.85-.06Z"/>
      <path class="cls-1" d="M48.72,42.65a4.8,4.8,0,0,1,3.45,1.27,4.53,4.53,0,0,1,1.21,3.27,4.38,4.38,0,0,1-1.21,3.21,4.7,4.7,0,0,1-3.45,1.27,4.65,4.65,0,0,1-3.39-1.27,4.53,4.53,0,0,1-1.21-3.21,4.57,4.57,0,0,1,1.21-3.27A4.8,4.8,0,0,1,48.72,42.65Zm-1.27,6.48a1.92,1.92,0,0,0,2.54,0,3.39,3.39,0,0,0,0-3.88,1.92,1.92,0,0,0-2.54,0,3.44,3.44,0,0,0,0,3.88Z"/>
      <path class="cls-1" d="M62.69,42.65a4.76,4.76,0,0,1,3.45,1.27,4.53,4.53,0,0,1,1.21,3.27,4.38,4.38,0,0,1-1.21,3.21,4.67,4.67,0,0,1-3.45,1.27,4.63,4.63,0,0,1-3.38-7.75A4.66,4.66,0,0,1,62.69,42.65Zm-1.27,6.48a1.76,1.76,0,0,0,1.27.48A1.73,1.73,0,0,0,64,49.13a3.39,3.39,0,0,0,0-3.88,1.73,1.73,0,0,0-1.27-.48,1.76,1.76,0,0,0-1.27.48,2.89,2.89,0,0,0-.6,1.94A2.6,2.6,0,0,0,61.42,49.13Z"/>
      <rect class="cls-1" x="54.29" y="39.81" width="2.78" height="11.67"/>
      <rect class="cls-1" x="78.36" y="39.81" width="2.78" height="11.67"/>
      <path class="cls-1" d="M104.74,44.83h1.75V42.9h-1.75V40.42H102V42.9H100.5v1.93H102v4.6a1.85,1.85,0,0,0,.55,1.45,3.39,3.39,0,0,0,2.36.67,7.48,7.48,0,0,0,1.39-.07h.18V49.31l-.24.06a2.57,2.57,0,0,1-.67.06,1.4,1.4,0,0,1-.66-.12c-.12-.06-.12-.31-.12-.61Z"/>
      <path class="cls-1" d="M71,54.33H68.26V42.9h2.36l.3.66v.06H71a3.48,3.48,0,0,1,2.36-.91,3.88,3.88,0,0,1,2.84,1.09,4.8,4.8,0,0,1,1.27,3.51,4.72,4.72,0,0,1-1.27,3.33,3.7,3.7,0,0,1-2.72,1.09,3.55,3.55,0,0,1-2.36-.85L71,50.82v3.51Zm3.63-7.14a2.86,2.86,0,0,0-.66-2,1.72,1.72,0,0,0-1.21-.48,1.94,1.94,0,0,0-1.21.42,2.71,2.71,0,0,0-.61,2,2.94,2.94,0,0,0,.61,1.94,1.68,1.68,0,0,0,1.21.48A1.72,1.72,0,0,0,74,49.07,2.43,2.43,0,0,0,74.67,47.19Z"/>
      <path class="cls-1" d="M91.25,51.48H88.89l-.31-.72V50.7l-.06.06a3.53,3.53,0,0,1-2.48,1,3.72,3.72,0,0,1-2.72-1.09,4.76,4.76,0,0,1-1.27-3.33,4.71,4.71,0,0,1,1.27-3.51,3.92,3.92,0,0,1,2.84-1.09,3.2,3.2,0,0,1,2.36.91h0l.31-.66h2.36l.06,8.52Zm-4.54-1.87a1.7,1.7,0,0,0,1.21-.48,2.69,2.69,0,0,0,.6-1.94,3.18,3.18,0,0,0-.6-2,1.66,1.66,0,0,0-1.21-.42,1.7,1.7,0,0,0-1.21.48,2.87,2.87,0,0,0-.67,2,2.83,2.83,0,0,0,.61,1.94A2.12,2.12,0,0,0,86.71,49.61Z"/>
      <path class="cls-1" d="M94.81,48.88c.19.85,1.28.91,1.58.91a1.77,1.77,0,0,0,1.15-.36.69.69,0,0,0,.18-.49c0-.48-1-.72-2.48-1.08-.91-.19-2.91-.61-2.91-2.36a2.4,2.4,0,0,1,.73-1.82,4.52,4.52,0,0,1,3.27-1c2.42,0,3.75,1,4,2.73H97.66c-.06-.37-.3-.79-1.39-.79-.61,0-.85.12-1,.24a.46.46,0,0,0-.12.3c0,.49.84.67,1.87.91.24.06.43.06.67.12.91.18,2.9.61,2.9,2.48a2.71,2.71,0,0,1-.78,2,4.7,4.7,0,0,1-3.33,1.09,5.22,5.22,0,0,1-3-.73,2.7,2.7,0,0,1-1.21-2.12Z"/>
    </g>
    <g>
      <path class="cls-1" d="M13.52,37.57c1,0,2.29-.78,4.11-.78a12.22,12.22,0,0,1,3.33.72,8.24,8.24,0,0,0,1.75,0,13.39,13.39,0,0,0-1.39-1.21h-14A9.24,9.24,0,0,0,6,37.57Z"/>
      <path class="cls-1" d="M25.8,43.32l-2.73.06a30,30,0,0,1-4.78.42h-1a42.72,42.72,0,0,1-5.45-.48h-9l-.18,1.27h9.37c.79,0,3.27-.48,5.15-.48h1c1.88,0,3.51.48,4.36.48H26A4.64,4.64,0,0,0,25.8,43.32Z"/>
      <path class="cls-1" d="M10.79,42.23c.49,0,3.69-.42,6.05-.42h1.88c2.36,0,4,.42,4.9.42h1.93c-.12-.42-.3-.85-.42-1.21H24a23.58,23.58,0,0,1-5.2.48H16.9A35.23,35.23,0,0,1,11.16,41H3.66c-.19.42-.31.85-.49,1.27Z"/>
      <path class="cls-1" d="M11.64,39.87a56.33,56.33,0,0,1,5.69-.48h1a27.67,27.67,0,0,1,4.48.36l1.76.06c-.25-.42-.55-.85-.79-1.21l-1.94.12a19.49,19.49,0,0,1-3.51.36h-1A26.07,26.07,0,0,1,13,38.66H5a7.63,7.63,0,0,0-.79,1.21Z"/>
      <path class="cls-1" d="M9,35.21H19.69a12,12,0,0,0-5.33-1.27A12.4,12.4,0,0,0,9,35.21Z"/>
    </g>
    <path class="cls-1" d="M21.44,45.62c-1.57,0-2.66.36-3.63.36s-2.3-.36-3-.36H2.69a11.68,11.68,0,0,0,23.35,0Z"/>
  </g>
</svg>
