<svg id="contura" xmlns="http://www.w3.org/2000/svg" width="110" height="92" viewBox="0 0 110 92">
  <defs>
    <style>
      .cls-1 {
        fill: #fff;
      }
    </style>
  </defs>
  <title>contura</title>
  <g>
    <path class="cls-1" d="M52.08,41.91l10.3,10.74a.36.36,0,0,0,0-.24V39.13c0-.24-.07-.28-.29-.27h-1c-.18,0-.22,0-.22.22,0,1.32,0,2.63,0,4v6L50.65,38.32c-.1.06-.06.14-.06.2q0,6.66,0,13.33c0,.18,0,.25.23.24a9.19,9.19,0,0,1,1,0c.2,0,.23-.07.23-.24q0-3.3,0-6.58V41.91Z"/>
    <path class="cls-1" d="M34.68,45.5a6.92,6.92,0,1,0,6.62-6.88A6.9,6.9,0,0,0,34.68,45.5Zm1.51,0a5.42,5.42,0,1,1,5.41,5.46A5.44,5.44,0,0,1,36.19,45.47Z"/>
    <path class="cls-1" d="M93.77,52.08l-4.18-5.89c.36-.11.72-.14,1.06-.27a3.26,3.26,0,0,0,2.08-2.33,4.33,4.33,0,0,0-.07-2.47,2.74,2.74,0,0,0-1.39-1.63,6.32,6.32,0,0,0-3.08-.63H86.32c-.17,0-.23,0-.23.21V51.88c0,.17,0,.21.21.21a9,9,0,0,1,1,0c.19,0,.24-.05.24-.24,0-1.75,0-3.51,0-5.26,0-.1-.08-.25.09-.29a.33.33,0,0,1,.38.15c1,1.43,2,2.84,3,4.26L91.87,52a.18.18,0,0,0,.19.11Zm-6.19-9.47c0-.72,0-1.44,0-2.16,0-.08,0-.21.12-.21a7.64,7.64,0,0,1,2.19.18,2,2,0,0,1,1,.57,2.41,2.41,0,0,1,.5,1.91,1.92,1.92,0,0,1-1.47,1.83,6.86,6.86,0,0,1-2.11.25c-.17,0-.21,0-.21-.21C87.58,44.05,87.58,43.33,87.58,42.61Z"/>
    <path class="cls-1" d="M100.76,38.2l-.59,1.3c-.48,1.09-1,2.18-1.45,3.27l-.9,2.08c-.38.85-.76,1.7-1.13,2.55l-1,2.15c-.33.75-.66,1.5-1,2.25-.12.28-.13.28.17.28h1.17a.22.22,0,0,0,.26-.16c.48-1.15,1-2.3,1.47-3.45a.19.19,0,0,1,.22-.14h5.31a.22.22,0,0,1,.23.16c.47,1.15,1,2.29,1.44,3.44,0,.09.06.16.18.15h1.53Zm-.05,3.51a.64.64,0,0,1,.06.11c.31.75.62,1.5.94,2.25s.75,1.77,1.13,2.65c.07.17,0,.23-.16.23-.64,0-1.28,0-1.91,0s-1.4,0-2.09,0c-.18,0-.21-.05-.14-.2l.21-.47,1.28-3Z"/>
    <path class="cls-1" d="M73.58,43.51c0,1.44,0,2.87,0,4.3a4.24,4.24,0,0,0,.67,2.42,4.65,4.65,0,0,0,1.92,1.62,4.85,4.85,0,0,0,2.78.42,4.72,4.72,0,0,0,3.43-2.1A4.67,4.67,0,0,0,83,47.52c0-2.81,0-5.61,0-8.42,0-.19-.06-.25-.25-.24h-1c-.2,0-.23,0-.23.23v8a7.16,7.16,0,0,1-.13,1.6A2.6,2.6,0,0,1,80,50.48a3.41,3.41,0,0,1-3.79-.25,2.67,2.67,0,0,1-1.08-1.95,13.37,13.37,0,0,1-.06-1.42V39.12c0-.2,0-.28-.25-.26a7.85,7.85,0,0,1-1,0c-.25,0-.28.08-.28.3,0,1.45,0,2.91,0,4.36Z"/>
    <path class="cls-1" d="M32.88,41.74V40c0-.09-.08-.14-.15-.19a6.54,6.54,0,0,0-4.86-1.09,6.78,6.78,0,0,0-4.65,2.9,6.85,6.85,0,0,0,6.94,10.58,7.18,7.18,0,0,0,2.57-1.06.29.29,0,0,0,.15-.26V49.18a5.68,5.68,0,0,1-4.34,1.74,5.2,5.2,0,0,1-4-2.29,5.43,5.43,0,0,1,8.36-6.89Z"/>
    <path class="cls-1" d="M17,34.73c.12.46.21.87.28,1.29a12,12,0,0,1,.07,2.47,12.49,12.49,0,0,1-.88,3.9,15.62,15.62,0,0,1-1.23,2.41,5,5,0,0,0-.72,3A8,8,0,0,0,16.26,52a12.12,12.12,0,0,0,1.41,1.63s.06.1.15.07a3.25,3.25,0,0,0-.35-.6,6.73,6.73,0,0,1-.63-5.08A10.32,10.32,0,0,1,18,45.43a10.71,10.71,0,0,0,1.7-5.56,6.22,6.22,0,0,0-2.43-4.95C17.21,34.86,17.13,34.82,17,34.73Z"/>
    <path class="cls-1" d="M12.49,38.76A8.41,8.41,0,0,0,12,37.13a6.1,6.1,0,0,0-2.1-2.66H9.86c.05.26.11.51.16.76a10.61,10.61,0,0,1,.15,3.18,16,16,0,0,1-.36,2.07,13.66,13.66,0,0,1-1,2.59c-.25.51-.54,1-.83,1.49,0,.05,0,.12-.13.13l-.48,1.24a2,2,0,0,1-.08.77,4.65,4.65,0,0,0,.17,1.86,10.28,10.28,0,0,0,2.84,4.63c.12.13.19.32.4.33h0c-.22-.36-.46-.7-.65-1.08a7.11,7.11,0,0,1-.64-2.21,6.67,6.67,0,0,1,.24-2.59.35.35,0,0,1,.05-.08,6.29,6.29,0,0,1,.76-1.86,20.54,20.54,0,0,0,1-2,16,16,0,0,0,.75-2.14A10.33,10.33,0,0,0,12.49,38.76Z"/>
    <path class="cls-1" d="M7.9,44.68a8.6,8.6,0,0,0,.44-3.14,6.32,6.32,0,0,0-2.42-4.69l-.09-.05-.16-.1v0l0,0A11.46,11.46,0,0,1,5.9,38,11.35,11.35,0,0,1,6,40.45a12.42,12.42,0,0,1-.88,3.9,15.62,15.62,0,0,1-1.23,2.41,5,5,0,0,0-.72,3A8,8,0,0,0,4.89,54,12.12,12.12,0,0,0,6.3,55.63s0,.08.11.08l.08.06,0,0A7.73,7.73,0,0,1,5.63,54a6.65,6.65,0,0,1-.3-3.22,8.86,8.86,0,0,1,.93-2.69c.31-.58.67-1.13,1-1.72l.21-.45,0-.13c.15-.35.29-.71.41-1.07Z"/>
    <path class="cls-1" d="M12.49,38.76a10.33,10.33,0,0,1-.19,2.83,16,16,0,0,1-.75,2.14,20.54,20.54,0,0,1-1,2,6.29,6.29,0,0,0-.76,1.86,7.42,7.42,0,0,0,1.14,3.22,12.15,12.15,0,0,0,2.17,2.67l0,0c-.24-.4-.49-.78-.69-1.2a6.57,6.57,0,0,1-.58-2.93,8.2,8.2,0,0,1,1.31-4.07,13,13,0,0,0,1.57-3.73,7.64,7.64,0,0,0,.13-3,6.27,6.27,0,0,0-2.44-4l-.17-.07a9.06,9.06,0,0,1,.33,1.82A8.79,8.79,0,0,1,12.49,38.76Z"/>
    <path class="cls-1" d="M68.79,46.15V40.49c0-.21.06-.26.26-.26h2.74c.18,0,.25-.05.24-.23s0-.63,0-.95c0-.14,0-.2-.19-.2H64.27c-.14,0-.19,0-.19.18,0,.33,0,.66,0,1s.06.21.22.21c.91,0,1.81,0,2.72,0,.22,0,.27.07.27.28,0,3.76,0,7.53,0,11.29,0,.22,0,.3.28.29a7.85,7.85,0,0,1,1,0c.21,0,.27-.05.27-.26C68.79,49.94,68.79,48,68.79,46.15Z"/>
    <path class="cls-1" d="M6.56,55.85s0,0,.07,0v0s0,0-.07,0Z"/>
    <path class="cls-1" d="M6.56,55.85c.05-.05,0-.08,0-.11l0,0,.07.08Z"/>
    <path class="cls-1" d="M10.75,53.51l0,.08s0,0,0,0,0,0,0-.06Z"/>
    <path class="cls-1" d="M13.14,53.46v0h0l0,0Z"/>
    <path class="cls-1" d="M13.06,53.45s0,0,.08,0h0l0-.06Z"/>
  </g>
</svg>
