<svg id="danmarks_naturfredningsforening" data-name="danmarks naturfredningsforening" xmlns="http://www.w3.org/2000/svg" width="110" height="92" viewBox="0 0 110 92">
  <defs>
    <style>
      .cls-1 {
        fill: #fff;
      }
    </style>
  </defs>
  <title>danmarks_naturfredningsforening</title>
  <g>
    <g>
      <path class="cls-1" d="M75.78,61.3a7,7,0,0,1-.3-2.59A7,7,0,0,0,75.78,61.3Z"/>
      <path class="cls-1" d="M75.48,58.71c.2-7.79,6.45-26.74,14.3-34.23-5.16-4.7-10.52-7.93-12.54-5.91C69.43,26.38,72,55.34,75.78,61.31h0A7,7,0,0,1,75.48,58.71Z"/>
      <path class="cls-1" d="M93.56,21.88a11.83,11.83,0,0,0-3.78,2.6c6.29,5.75,12.29,13.67,11.45,17-2.31,9.1-14.43,18-23.32,20.64a2.55,2.55,0,0,1-.71.16h-.12a6.65,6.65,0,0,0,1,.09c.76,0,1.81.08,2.48.08,9.1,0,21.13-3.48,26.12-10.1C110.5,47.33,99.39,19.53,93.56,21.88Z"/>
      <path class="cls-1" d="M75.82,61.38a.25.25,0,0,1,0-.07S75.78,61.35,75.82,61.38Z"/>
      <path class="cls-1" d="M75.78,61.31a.25.25,0,0,0,0,.07s0,0,0-.08Z"/>
      <path class="cls-1" d="M75.48,58.71c.2-7.79,6.45-26.71,14.3-34.23C81.93,32,75.68,50.92,75.48,58.71Z"/>
    </g>
    <g>
      <path class="cls-1" d="M3.69,65c-.63,0-1.18,0-1.64,0V58.57c.51,0,1.22,0,1.93,0,2.06,0,3.27,1,3.27,3.19S5.79,65,3.69,65Zm.21-5.79a5.81,5.81,0,0,0-1,0v4.94a4.79,4.79,0,0,0,.84,0,2.31,2.31,0,0,0,2.56-2.52A2.17,2.17,0,0,0,3.9,59.24Z"/>
      <path class="cls-1" d="M10.69,65a7.39,7.39,0,0,1,0-1h0a1.68,1.68,0,0,1-1.59,1.05,1.14,1.14,0,0,1-1.3-1.18c0-1,1.05-1.68,2.85-1.68v-.33c0-.67-.25-1-1-1a2.91,2.91,0,0,0-1.42.38l-.09-.76a4.16,4.16,0,0,1,1.68-.33c1.39,0,1.76.63,1.76,1.59v3.27h-.88Zm0-2.22c-1.64,0-2,.5-2,.92a.65.65,0,0,0,.71.67,1.43,1.43,0,0,0,1.3-1.51Z"/>
      <path class="cls-1" d="M15.68,65V62c0-.67-.17-1-.79-1-.8,0-1.35.8-1.35,1.85V65h-.83V60.29h.83a4.26,4.26,0,0,1-.08,1h0a1.71,1.71,0,0,1,1.68-1.09c1.09,0,1.42.67,1.42,1.51V65Z"/>
      <path class="cls-1" d="M23.61,65V62c0-.67-.17-1.09-.76-1.09s-1.34.71-1.34,1.85V65h-.84V61.93c0-.59-.12-1-.75-1s-1.34.75-1.34,1.85V65h-.84V60.25h.84a3.88,3.88,0,0,1-.09,1h0a1.74,1.74,0,0,1,1.64-1.09,1.19,1.19,0,0,1,1.3,1.09,1.77,1.77,0,0,1,1.63-1.09c.88,0,1.43.5,1.43,1.55V65h-.88Z"/>
      <path class="cls-1" d="M28.26,65a5.93,5.93,0,0,1,0-1h0a1.7,1.7,0,0,1-1.6,1.05,1.14,1.14,0,0,1-1.3-1.18c0-1,1.05-1.68,2.85-1.68v-.33c0-.67-.25-1-1.05-1a2.91,2.91,0,0,0-1.42.38l-.08-.76a4.07,4.07,0,0,1,1.67-.33c1.39,0,1.76.63,1.76,1.59v3.27h-.88Zm0-2.22c-1.63,0-2,.5-2,.92a.65.65,0,0,0,.71.67,1.43,1.43,0,0,0,1.3-1.51Z"/>
      <path class="cls-1" d="M32.58,61c-1-.17-1.47.54-1.47,2.09V65h-.83V60.25h.83c0,.29,0,.76-.08,1.13h0a1.5,1.5,0,0,1,1.64-1.21Z"/>
      <path class="cls-1" d="M35.85,65,34.09,62.6V65h-.84v-7h.84v4.32l1.68-2.1h1L35,62.47,37,65Z"/>
      <path class="cls-1" d="M38.54,65.12a7.74,7.74,0,0,1-1-.09l0-.75a4.13,4.13,0,0,0,1,.16c.63,0,1.05-.29,1.05-.71,0-1-2.22-.42-2.22-2.1,0-.79.67-1.42,1.88-1.42a7.3,7.3,0,0,1,.93.08V61a3.4,3.4,0,0,0-1-.17c-.63,0-1,.25-1,.67,0,1.05,2.22.46,2.22,2.05C40.55,64.44,39.8,65.12,38.54,65.12Z"/>
      <path class="cls-1" d="M19.62,74.55l-2.43-4c-.29-.46-.54-.93-.75-1.34,0,.67.08,2.22.08,3.27v2h-.84V68.09h1.18L19.25,72c.29.46.54,1,.79,1.43,0-.8-.08-2.39-.08-3.44V68.09h.84v6.46Z"/>
      <path class="cls-1" d="M24.53,74.55a7.39,7.39,0,0,1,0-1h0a1.68,1.68,0,0,1-1.59,1c-.8,0-1.3-.41-1.3-1.17,0-1,1.05-1.68,2.85-1.68v-.33c0-.67-.25-1-1.05-1a2.91,2.91,0,0,0-1.42.38L22,70.06a4.12,4.12,0,0,1,1.68-.33c1.38,0,1.76.63,1.76,1.59v3.27h-.88Zm0-2.18c-1.64,0-2,.5-2,.92a.65.65,0,0,0,.71.67,1.44,1.44,0,0,0,1.3-1.51Z"/>
      <path class="cls-1" d="M28.14,74.63c-1,0-1.26-.41-1.26-1.42V70.48h-1v-.67h1V68.26l.84-.25v1.76h1.34v.67H27.72v2.43c0,.8.12,1,.67,1A3,3,0,0,0,29,73.8v.71A3.12,3.12,0,0,1,28.14,74.63Z"/>
      <path class="cls-1" d="M33,74.55a7,7,0,0,1,.09-1h0a1.71,1.71,0,0,1-1.68,1.09c-1.09,0-1.43-.67-1.43-1.5V69.81h.84v3.06c0,.67.21,1,.8,1,.79,0,1.34-.79,1.34-1.84V69.81h.84v4.74Z"/>
      <path class="cls-1" d="M37.32,70.57c-1-.17-1.47.54-1.47,2.09v1.89H35V69.81h.84c0,.3,0,.76-.08,1.13h0a1.49,1.49,0,0,1,1.63-1.21Z"/>
      <path class="cls-1" d="M41.43,68.34a2,2,0,0,0-.71-.12c-.67,0-1,.38-1,1.21v.38h1.3v.67h-1.3v4.07h-.84V70.48H38v-.67h1v-.33c0-1.3.63-1.93,1.81-1.93a5.29,5.29,0,0,1,.79.08Z"/>
      <path class="cls-1" d="M44,70.57c-1-.17-1.47.54-1.47,2.09v1.89h-.84V69.81h.84a6,6,0,0,1-.12,1.13h0a1.49,1.49,0,0,1,1.63-1.21Z"/>
      <path class="cls-1" d="M48.48,72.12H45.37c0,1.26.51,1.8,1.51,1.8a3.51,3.51,0,0,0,1.39-.29l.08.71a3.85,3.85,0,0,1-1.59.29c-1.47,0-2.23-.75-2.23-2.43,0-1.42.76-2.47,2.1-2.47a1.79,1.79,0,0,1,1.89,2A1.51,1.51,0,0,1,48.48,72.12Zm-1.89-1.76c-.63,0-1.05.46-1.18,1.17h2.23A1,1,0,0,0,46.59,70.36Z"/>
      <path class="cls-1" d="M52.42,74.55a4.06,4.06,0,0,1,.08-1h0a1.65,1.65,0,0,1-1.59,1c-1.18,0-1.76-.83-1.76-2.22a2.35,2.35,0,0,1,2.43-2.64,5.7,5.7,0,0,1,.8,0V67.59h.83v7Zm0-4a3,3,0,0,0-.84-.13c-.92,0-1.51.54-1.51,1.93,0,1,.33,1.59,1,1.59s1.3-1,1.3-1.84Z"/>
      <path class="cls-1" d="M57.45,74.55V71.49c0-.67-.17-1-.8-1-.79,0-1.34.8-1.34,1.85v2.26h-.84V69.81h.84a4.26,4.26,0,0,1-.08,1h0a1.71,1.71,0,0,1,1.67-1.09c1.1,0,1.43.67,1.43,1.51v3.31Z"/>
      <path class="cls-1" d="M59.92,69a.57.57,0,0,1-.58-.55.59.59,0,0,1,1.17,0A.63.63,0,0,1,59.92,69Zm-.46,5.53V69.81h.84v4.74Z"/>
      <path class="cls-1" d="M64.5,74.55V71.49c0-.67-.17-1-.8-1-.8,0-1.34.8-1.34,1.85v2.26h-.84V69.81h.84a3.8,3.8,0,0,1-.09,1h0A1.72,1.72,0,0,1,64,69.73c1.09,0,1.43.67,1.43,1.51v3.31Z"/>
      <path class="cls-1" d="M72.3,74.63a7.81,7.81,0,0,1-1-.08l0-.75a4.06,4.06,0,0,0,1,.16c.63,0,1.05-.29,1.05-.71,0-1-2.23-.42-2.23-2.1,0-.79.68-1.42,1.89-1.42a7,7,0,0,1,.92.08v.72a3.27,3.27,0,0,0-1-.17c-.63,0-1,.25-1,.67,0,1,2.22.46,2.22,2C74.31,74,73.55,74.63,72.3,74.63Z"/>
      <path class="cls-1" d="M78.25,68.34a2,2,0,0,0-.71-.12c-.67,0-1,.38-1,1.21v.38h1.3v.67h-1.3v4.07h-.84V70.48h-1v-.67h1v-.33c0-1.3.63-1.93,1.81-1.93a5.29,5.29,0,0,1,.79.08Z"/>
      <path class="cls-1" d="M80.22,74.63c-1.3,0-2.14-.75-2.14-2.43a2.32,2.32,0,0,1,2.31-2.51c1.21,0,2.14.67,2.14,2.39A2.34,2.34,0,0,1,80.22,74.63Zm.08-4.19c-.67,0-1.34.5-1.34,1.68s.46,1.76,1.34,1.76c.72,0,1.3-.55,1.3-1.76C81.65,71.07,81.19,70.44,80.3,70.44Z"/>
      <path class="cls-1" d="M85.88,70.57c-1-.17-1.47.54-1.47,2.09v1.89h-.83V69.81h.83a6,6,0,0,1-.12,1.13h0a1.49,1.49,0,0,1,1.63-1.21Z"/>
      <path class="cls-1" d="M90.24,72.12h-3.1c0,1.26.5,1.8,1.51,1.8A3.46,3.46,0,0,0,90,73.63l.09.71a3.87,3.87,0,0,1-1.6.29c-1.46,0-2.22-.75-2.22-2.43,0-1.42.76-2.47,2.1-2.47a1.79,1.79,0,0,1,1.89,2A1.22,1.22,0,0,1,90.24,72.12Zm-1.88-1.76c-.63,0-1,.46-1.18,1.17H89.4A1,1,0,0,0,88.36,70.36Z"/>
      <path class="cls-1" d="M94.27,74.55V71.49c0-.67-.17-1-.8-1-.79,0-1.34.8-1.34,1.85v2.26h-.84V69.81h.84a4.26,4.26,0,0,1-.08,1h0a1.71,1.71,0,0,1,1.67-1.09c1.09,0,1.43.67,1.43,1.51v3.31Z"/>
      <path class="cls-1" d="M96.7,69a.61.61,0,0,1-.59-.55.57.57,0,0,1,.59-.54.56.56,0,0,1,.59.54A.63.63,0,0,1,96.7,69Zm-.46,5.53V69.81h.84v4.74Z"/>
      <path class="cls-1" d="M101.27,74.55V71.49c0-.67-.17-1-.79-1-.8,0-1.35.8-1.35,1.85v2.26H98.3V69.81h.83a4.26,4.26,0,0,1-.08,1h0a1.71,1.71,0,0,1,1.68-1.09c1.09,0,1.42.67,1.42,1.51v3.31Z"/>
      <path class="cls-1" d="M70.66,70.48h-.8a1.22,1.22,0,0,1,.42.93c0,1-.71,1.76-2,1.76-.21,0-.42,0-.59,0a.42.42,0,0,0-.29.37c0,.25.25.38.79.38H69c1,0,1.6.5,1.6,1.34v.13h-.84c0-.46-.34-.76-1-.76H67.56a1.38,1.38,0,0,1-.88-.33.69.69,0,0,1-.26-.55.89.89,0,0,1,.55-.79,1.49,1.49,0,0,1-.71-1.35,1.88,1.88,0,0,1,2.09-1.84,4.32,4.32,0,0,1,.76.08H70.7v.67Zm-1.26,1a1,1,0,0,0-1.13-1.09,1.09,1.09,0,0,0-1.22,1.09c0,.71.42,1.09,1.18,1.09A1,1,0,0,0,69.4,71.45Z"/>
      <path class="cls-1" d="M107.31,75.35h-.84c0-.46-.33-.76-1-.76h-1.22a1.38,1.38,0,0,1-.88-.33.68.68,0,0,1-.25-.55.9.9,0,0,1,.54-.79,1.49,1.49,0,0,1-.71-1.35,1.88,1.88,0,0,1,2.1-1.84,4.31,4.31,0,0,1,.75.08h1.6v.67h-.8a1.22,1.22,0,0,1,.42.93c0,1-.72,1.76-2.06,1.76-.21,0-.42,0-.58,0a.43.43,0,0,0-.3.37c0,.25.25.38.8.38h.88c1,0,1.59.5,1.59,1.34A.17.17,0,0,0,107.31,75.35Zm-3.52-3.9A1,1,0,0,0,105,72.54a1,1,0,0,0,1.18-1.09A1,1,0,0,0,105,70.36,1.09,1.09,0,0,0,103.79,71.45Z"/>
    </g>
    <path class="cls-1" d="M98,40a1.66,1.66,0,1,1-2-1.22A1.66,1.66,0,0,1,98,40Z"/>
  </g>
</svg>
