<svg id="dansk_industri" data-name="dansk industri" xmlns="http://www.w3.org/2000/svg" width="110" height="92" viewBox="0 0 110 92">
  <defs>
    <style>
      .cls-1 {
        fill: #fff;
      }
    </style>
  </defs>
  <title>dansk_industri</title>
  <g>
    <path class="cls-1" d="M63.53,18.24A17.37,17.37,0,1,0,80.89,35.61,17.36,17.36,0,0,0,63.53,18.24Zm1.59,23.48a1.72,1.72,0,1,1-3.43,0V29.13a1.72,1.72,0,1,1,3.43,0Z"/>
    <g>
      <path class="cls-1" d="M25,30.59H23.05v9.67h2.2c2.81,0,4.15-2.08,4.15-4.77S28.06,30.59,25,30.59Z"/>
      <path class="cls-1" d="M25.49,18.24A17.37,17.37,0,1,0,42.86,35.61,17.29,17.29,0,0,0,25.49,18.24Zm-.24,25.07H21.46a1.59,1.59,0,0,1-1.72-1.71V29.25a1.67,1.67,0,0,1,1.72-1.71h3.66c5,0,7.83,3.18,7.83,8.07C32.83,40.26,29.89,43.31,25.25,43.31Z"/>
    </g>
    <g>
      <path class="cls-1" d="M20.23,64.59h2.69a7.25,7.25,0,0,1,1.71.25,3,3,0,0,1,1.35.73A4.5,4.5,0,0,1,27,67a6.22,6.22,0,0,1,.37,2.32A6.74,6.74,0,0,1,27,71.69a3.1,3.1,0,0,1-1,1.46,2.9,2.9,0,0,1-1.35.74,7.27,7.27,0,0,1-1.71.24H20.11V64.59Zm2.69,8.32a4.71,4.71,0,0,0,1.23-.12,2.47,2.47,0,0,0,1-.49,4.34,4.34,0,0,0,.74-1.1,7.81,7.81,0,0,0,.24-2,8.73,8.73,0,0,0-.24-2,1.81,1.81,0,0,0-.74-1.1,2.61,2.61,0,0,0-1-.49,3.89,3.89,0,0,0-1.23-.12H21.46v7.34Z"/>
      <path class="cls-1" d="M28.79,68.14a4.74,4.74,0,0,1,1-.37,5.17,5.17,0,0,1,1.47-.12,2.17,2.17,0,0,1,2.45,2.45v2.44a.92.92,0,0,0,.12.61c.12.13.36.13.61.13V74h-.73a1.05,1.05,0,0,1-.74-.24,3.25,3.25,0,0,1-.37-.62c-.12.13-.24.25-.36.25a.94.94,0,0,1-.49.24c-.25.13-.37.13-.61.25s-.49.12-.74.12A1.92,1.92,0,0,1,29,73.64c-.37-.24-.49-.61-.49-1.22a1.46,1.46,0,0,1,.37-1.1,2.67,2.67,0,0,1,1-.61c.37-.12.86-.25,1.35-.37a5.11,5.11,0,0,1,1.34-.12v-.86a.66.66,0,0,0-.24-.49.63.63,0,0,0-.49-.24,1.56,1.56,0,0,0-.73-.12,1.87,1.87,0,0,0-.86.12l-.73.37ZM32.46,71a2.58,2.58,0,0,0-1,.13,1.78,1.78,0,0,0-.85.24,2.22,2.22,0,0,0-.61.37.88.88,0,0,0-.25.61.9.9,0,0,0,.25.61,1.75,1.75,0,0,0,.73.24h.49c.12,0,.37-.12.49-.12s.37-.12.49-.12.24-.12.36-.12V71Z"/>
      <path class="cls-1" d="M35.76,67.65h1.1v.61c.13-.12.25-.12.37-.24s.25-.12.49-.25a.75.75,0,0,1,.49-.12c.12,0,.37-.12.49-.12a2.11,2.11,0,0,1,1.59.61,2.07,2.07,0,0,1,.49,1.59v4.16h-1.1V69.73a1,1,0,0,0-.37-.86,1,1,0,0,0-.86-.24.72.72,0,0,0-.48.12c-.13,0-.37.12-.49.12s-.25.13-.37.25a.39.39,0,0,1-.25.12V74h-1.1Z"/>
      <path class="cls-1" d="M43,72.42c.12.12.24.12.37.25s.24.12.49.24a.74.74,0,0,0,.49.12h.61a2.31,2.31,0,0,0,1-.24.67.67,0,0,0,.37-.61.68.68,0,0,0-.37-.62,5,5,0,0,0-1.22-.36,2.12,2.12,0,0,1-.85-.25,2.11,2.11,0,0,1-.74-.36,1.06,1.06,0,0,1-.49-.49,1.79,1.79,0,0,1-.24-.74,1.75,1.75,0,0,1,.24-.73A2.23,2.23,0,0,1,43.1,68l.74-.37a2.39,2.39,0,0,1,1-.12,4.71,4.71,0,0,1,1.35.12,2.51,2.51,0,0,1,1,.49L46.4,69a1.78,1.78,0,0,0-.73-.37,2.77,2.77,0,0,0-2,.12c-.24.12-.24.37-.24.61a.66.66,0,0,0,.37.61,6.49,6.49,0,0,0,1.22.37,4.89,4.89,0,0,1,1.59.61,1.35,1.35,0,0,1,.61,1.23,1.72,1.72,0,0,1-.73,1.46,3.09,3.09,0,0,1-2,.49h-.73c-.25,0-.49-.12-.74-.12s-.36-.12-.61-.24A1.94,1.94,0,0,1,42,73.4Z"/>
      <path class="cls-1" d="M48.73,64.59h1.1v6.12l2.69-2.94h1.34l-2.2,2.33,2.57,3.79H52.89l-2-2.94-1.1,1.23V74h-1.1Z"/>
      <path class="cls-1" d="M58.51,64.59h1.22v9.3H58.51Z"/>
      <path class="cls-1" d="M61.94,67.65H63v.61c.12-.12.24-.12.36-.24s.25-.12.49-.25a.76.76,0,0,1,.49-.12c.12,0,.37-.12.49-.12a2.1,2.1,0,0,1,1.59.61A2.07,2.07,0,0,1,67,69.73v4.16h-1.1V69.73a1,1,0,0,0-.37-.86,1,1,0,0,0-.85-.24.74.74,0,0,0-.49.12c-.12,0-.37.12-.49.12s-.25.13-.37.25a.37.37,0,0,1-.24.12V74h-1.1Z"/>
      <path class="cls-1" d="M73.07,73.4a2,2,0,0,1-.74.49,2.32,2.32,0,0,1-1,.24,2.47,2.47,0,0,1-1-.12,1.89,1.89,0,0,1-.85-.49,2.51,2.51,0,0,1-.61-1,4.42,4.42,0,0,1,0-2.93,2.51,2.51,0,0,1,.61-1,3.46,3.46,0,0,1,.85-.61,4,4,0,0,1,1-.25,2,2,0,0,1,.86.13l.73.36V64.84H74v9.29h-1Zm0-4.4a2.47,2.47,0,0,0-.62-.37,2.09,2.09,0,0,0-.85-.12,1.1,1.1,0,0,0-.61.12c-.25,0-.37.12-.62.37a1.82,1.82,0,0,0-.48.73,2.84,2.84,0,0,0-.13,1.1,2.55,2.55,0,0,0,.13,1.1l.36.74a2.72,2.72,0,0,0,.61.36,1.15,1.15,0,0,0,.62.12,2.09,2.09,0,0,0,.85-.12,2.51,2.51,0,0,0,.61-.36V69Z"/>
      <path class="cls-1" d="M76.12,67.65h1.1v4.28a1,1,0,0,0,.37.86,1.64,1.64,0,0,0,1.71,0,2.5,2.5,0,0,0,.61-.37V67.65H81v6.12h-1.1v-.62c-.12.13-.24.25-.36.25s-.25.12-.49.24-.37.13-.49.25-.37.12-.49.12a1.68,1.68,0,0,1-1.47-.61,2.07,2.07,0,0,1-.49-1.59Z"/>
      <path class="cls-1" d="M83.22,72.42c.12.12.24.12.36.25s.25.12.49.24a.75.75,0,0,0,.49.12h.61a2.32,2.32,0,0,0,1-.24.67.67,0,0,0,.37-.61.68.68,0,0,0-.37-.62,5,5,0,0,0-1.22-.36,2.16,2.16,0,0,1-.86-.25c-.24-.12-.49-.12-.73-.36a1,1,0,0,1-.49-.49,1.81,1.81,0,0,1-.25-.74,1.77,1.77,0,0,1,.25-.73,1.91,1.91,0,0,1,.49-.61l.73-.37a2.44,2.44,0,0,1,1-.12,4.71,4.71,0,0,1,1.35.12,2.47,2.47,0,0,1,1,.49l-.85,1a2,2,0,0,0-.74-.37,2.39,2.39,0,0,0-1-.12,2.32,2.32,0,0,0-1,.24c-.25.13-.25.37-.25.62a.7.7,0,0,0,.37.61,7.48,7.48,0,0,0,1.22.36,4.8,4.8,0,0,1,1.59.62,1.33,1.33,0,0,1,.61,1.22,1.75,1.75,0,0,1-.73,1.47,3.15,3.15,0,0,1-2,.49H84c-.24,0-.49-.13-.73-.13s-.37-.12-.62-.24a1.66,1.66,0,0,1-.48-.37Z"/>
      <path class="cls-1" d="M89.45,68.63h-1v-.86h1V66.43a1,1,0,0,1,.49-.49,1.6,1.6,0,0,1,.74-.12v2h1.59a.69.69,0,0,1-.13.49c0,.12-.12.25-.24.37H90.68v3.42a1.05,1.05,0,0,0,.24.74.94.94,0,0,0,.61.24h.74v1h-.86a1.56,1.56,0,0,1-.73-.12c-.25,0-.37-.12-.62-.25A2.51,2.51,0,0,1,89.7,73a1.82,1.82,0,0,1-.12-.85V68.63Z"/>
      <path class="cls-1" d="M93.49,67.65h1.1v1a2.25,2.25,0,0,1,.61-.86,1.52,1.52,0,0,1,1.1-.36.75.75,0,0,1,.49.12l-.24,1.1h-1.1c-.13,0-.25.12-.49.24l-.37.37a.94.94,0,0,0-.24.61v3.92H93.24V67.65Z"/>
      <path class="cls-1" d="M98.75,66.06c-.25,0-.37-.12-.61-.24a.92.92,0,0,1-.25-.61c0-.25.12-.37.25-.62a.92.92,0,0,1,.61-.12.64.64,0,0,1,.49.25.92.92,0,0,1,.24.61c0,.24-.12.36-.24.61C99.11,65.94,98.87,66.06,98.75,66.06Zm-.61,1.59h1.1v6.12h-1.1Z"/>
    </g>
  </g>
</svg>
