<svg id="dsv" xmlns="http://www.w3.org/2000/svg" width="110" height="92" viewBox="0 0 110 92">
  <defs>
    <style>
      .cls-1 {
        fill: #fff;
      }
    </style>
  </defs>
  <title>dsv</title>
  <path class="cls-1" d="M89.19,59.39A3,3,0,0,1,86.58,61H80.5a3,3,0,0,1-2.6-1.55L69.69,42.74a4.23,4.23,0,0,0-3.92-2.07H50.84a2.18,2.18,0,1,0,0,4.35H61.12c4.37,0,8,2.65,8,8s-3.65,8-8,8H47.93a2,2,0,0,1-2.19-2.19V55.89a.67.67,0,0,1,.73-.72H58.21a2.18,2.18,0,1,0,0-4.36h-11a8.81,8.81,0,0,1-4.73-1.28C41.84,56.59,36.77,61,29.36,61H12.85a.68.68,0,0,1-.74-.72V45.73a.66.66,0,0,1,.72-.72h5.84a2,2,0,0,1,2.24,2.16v7.26h0a.66.66,0,0,0,.72.72h5c4,0,7.26-2.4,7.26-7.25s-3.29-7.25-7.26-7.25H12.85a.68.68,0,0,1-.71-.72V37a2,2,0,0,1,2.21-2.19H29.44c4.24,0,8.09,1.56,10.36,4.47,1.24-2.94,4-4.47,7.44-4.47H68.86c2.64,0,5.66.92,7.21,4l7,14.65a.38.38,0,0,0,.39.22.42.42,0,0,0,.39-.2l8.71-18.28a.67.67,0,0,1,.65-.35h6.66a.68.68,0,0,1,.73.72,1.16,1.16,0,0,1-.06.35Z"/>
</svg>
