<svg id="fisher-scientific" xmlns="http://www.w3.org/2000/svg" width="110" height="92" viewBox="0 0 110 92">
  <defs>
    <style>
      .cls-1 {
        fill: #fff;
      }
    </style>
  </defs>
  <title>fisher_scientific</title>
  <g>
    <polygon class="cls-1" points="14.45 37.73 7.89 37.73 6.03 39.63 6.03 41.85 5.49 41.85 4.17 43.98 6.03 43.98 6.03 49.91 8.25 47.74 8.25 43.98 10.88 43.98 12.14 41.85 8.25 41.85 8.25 39.9 13.23 39.9 14.45 37.73"/>
    <path class="cls-1" d="M9.34,51.72A8.52,8.52,0,1,0,.82,43.21a8.5,8.5,0,0,0,8.52,8.51ZM1.86,43.21a7.48,7.48,0,1,1,7.48,7.47,7.49,7.49,0,0,1-7.48-7.47Z"/>
    <path class="cls-1" d="M35.83,49.14H37.6V44.38a2,2,0,0,1,1.94-2.12c1,0,1.59.54,1.59,1.81v5.12h1.76V43.62A2.57,2.57,0,0,0,40,40.85a2.79,2.79,0,0,0-2.4,1.27h0V37.91l-1.77,1V49.14Z"/>
    <path class="cls-1" d="M20.25,42.39h1.31v6.8h1.77v-6.8h1.13l.41-1.31H23.33v-.82c0-.68.41-.81.91-.81a3.42,3.42,0,0,1,.81.09V38A4.87,4.87,0,0,0,23.78,38c-1.17,0-2.26.37-2.26,2.4V41H20.21v1.36Z"/>
    <polygon class="cls-1" points="25.68 49.14 27.5 49.14 27.5 41.03 25.68 41.03 25.68 49.14"/>
    <path class="cls-1" d="M28,46.56c.05,1.9,1.59,2.81,3.58,2.81,1.67,0,3.62-.68,3.62-2.68,0-1.63-1.31-2.08-2.63-2.35s-2.67-.41-2.67-1.27c0-.68.95-.81,1.5-.81.77,0,1.49.22,1.63,1.08h1.85c-.18-1.81-1.72-2.49-3.39-2.49-1.5,0-3.4.55-3.4,2.31s1.27,2.13,2.63,2.4,2.62.41,2.67,1.32S32.3,48,31.62,48c-.95,0-1.72-.4-1.81-1.45H28Z"/>
    <path class="cls-1" d="M47.42,40.81a4,4,0,0,0-3.94,4.3c0,2.49,1.45,4.3,4,4.3a3.55,3.55,0,0,0,3.67-2.76H49.46a1.83,1.83,0,0,1-2,1.31,2.15,2.15,0,0,1-2.17-2.4h5.93c.27-2.44-1.27-4.75-3.85-4.75Zm2.09,3.57H45.34a2.14,2.14,0,0,1,2.13-2.17,2.22,2.22,0,0,1,2,2.17Z"/>
    <path class="cls-1" d="M51.86,49.14h1.77V45.29c0-1.77,1-2.76,2.22-2.76a4.14,4.14,0,0,1,.77.09V40.9a6,6,0,0,0-.68,0,2.63,2.63,0,0,0-2.36,1.77h0V41H51.86v8.11Z"/>
    <polygon class="cls-1" points="28.04 37.95 27.5 39.63 25.68 39.63 26.23 37.95 28.04 37.95"/>
    <polygon class="cls-1" points="38 55.8 38.82 55.8 38.82 53.08 39.86 53.08 39.86 52.49 37.01 52.49 37.01 53.08 38 53.08 38 55.8"/>
    <path class="cls-1" d="M40.09,55.8h.68V54.53c0-.5.13-.68.54-.68s.45.18.45.59V55.8h.68V54.3c0-.59-.18-1-.95-1a.91.91,0,0,0-.72.4h0V52.45h-.68V55.8Z"/>
    <path class="cls-1" d="M45.34,54.76a1.24,1.24,0,0,0-1.22-1.45,1.27,1.27,0,1,0,0,2.53A1.07,1.07,0,0,0,45.29,55h-.58a.57.57,0,0,1-.55.31.55.55,0,0,1-.63-.58Zm-.68-.37H43.53a.52.52,0,0,1,.59-.49c.31,0,.45.13.54.49Z"/>
    <path class="cls-1" d="M45.7,55.8h.68V54.71c0-.45.18-.77.68-.77h.23v-.63h-.14a.76.76,0,0,0-.77.49h0v-.4h-.63v2.4Z"/>
    <path class="cls-1" d="M47.56,55.8h.68V54.44c0-.5.36-.54.45-.54.45,0,.45.36.45.58v1.36h.68V54.53c0-.32,0-.59.46-.59s.45.23.45.59v1.36h.68V54.26a.85.85,0,0,0-.95-.91.8.8,0,0,0-.73.41.72.72,0,0,0-.72-.41.85.85,0,0,0-.77.41h0v-.41H47.6V55.8Z"/>
    <path class="cls-1" d="M54.35,54.62A1.29,1.29,0,1,0,53,55.89a1.25,1.25,0,0,0,1.31-1.27Zm-.68,0c0,.41-.13.77-.59.77s-.58-.41-.58-.77.13-.77.58-.77.59.36.59.77Z"/>
    <polygon class="cls-1" points="56.12 55.8 56.89 55.8 56.89 54.44 58.34 54.44 58.34 53.9 56.89 53.9 56.89 53.08 58.56 53.08 58.56 52.49 56.12 52.49 56.12 55.8"/>
    <polygon class="cls-1" points="58.88 55.8 59.56 55.8 59.56 53.4 58.88 53.4 58.88 55.8"/>
    <path class="cls-1" d="M60,55c0,.63.59.81,1.17.81s1.14-.18,1.14-.81c0-.46-.41-.59-.77-.68s-.77-.09-.77-.36.22-.23.4-.23.46,0,.5.36h.64c-.05-.59-.55-.77-1.14-.77s-1.08.14-1.08.77c0,.45.41.55.77.64s.77.18.77.4-.23.32-.46.32-.54-.09-.54-.41L60,55Z"/>
    <path class="cls-1" d="M62.68,55.8h.68V54.53c0-.5.14-.68.55-.68s.45.18.45.59V55.8H65V54.3c0-.59-.18-1-1-1a.94.94,0,0,0-.73.4h0V52.45h-.68V55.8Z"/>
    <path class="cls-1" d="M67.89,54.76a1.24,1.24,0,0,0-1.22-1.45,1.27,1.27,0,1,0,0,2.53A1.09,1.09,0,0,0,67.85,55h-.59a.64.64,0,0,1-1.18-.27Zm-.68-.37H66.08a.52.52,0,0,1,.59-.49c.27,0,.45.13.54.49Z"/>
    <path class="cls-1" d="M68.25,55.8h.68V54.71c0-.45.19-.77.68-.77h.23v-.63H69.7a.76.76,0,0,0-.77.49h0v-.4h-.68v2.4Z"/>
    <path class="cls-1" d="M71.24,54.71c0,.82.68,1.18,1.5,1.18s1.45-.46,1.45-1.09-.77-.95-1-1c-.91-.18-1.05-.22-1.05-.49s.32-.41.55-.41.63.09.68.5h.72c0-.77-.68-1.09-1.36-1.09a1.13,1.13,0,0,0-1.26,1c0,.64.54.82,1,.95s1,.18,1,.55-.41.4-.68.4-.77-.18-.77-.63h-.73v.09Z"/>
    <path class="cls-1" d="M76.9,54.26a1.06,1.06,0,0,0-1.17-.95,1.2,1.2,0,0,0-1.27,1.31,1.18,1.18,0,0,0,1.27,1.22,1.15,1.15,0,0,0,1.22-1h-.68a.51.51,0,0,1-.54.49c-.46,0-.59-.4-.59-.72s.13-.77.59-.77c.31,0,.5.14.5.41Z"/>
    <polygon class="cls-1" points="77.31 55.8 77.99 55.8 77.99 53.4 77.31 53.4 77.31 55.8"/>
    <path class="cls-1" d="M80.84,54.76a1.24,1.24,0,0,0-1.22-1.45,1.27,1.27,0,1,0,0,2.53A1.09,1.09,0,0,0,80.8,55h-.59a.55.55,0,0,1-.54.31.56.56,0,0,1-.64-.58Zm-.67-.37H79a.52.52,0,0,1,.59-.49c.32,0,.5.13.55.49Z"/>
    <path class="cls-1" d="M81.21,55.8h.68V54.53c0-.5.13-.68.54-.68s.45.18.45.59V55.8h.68V54.3c0-.59-.18-1-1-1a.88.88,0,0,0-.77.4h0v-.36h-.63V55.8Z"/>
    <path class="cls-1" d="M84.92,52.72h-.68v.68h-.45v.45h.45V55.3c0,.5.41.59.77.59h.41v-.55h-.18c-.23,0-.32,0-.32-.31V53.85h.5V53.4h-.5v-.68Z"/>
    <polygon class="cls-1" points="85.74 55.8 86.46 55.8 86.46 53.4 85.74 53.4 85.74 55.8"/>
    <polygon class="cls-1" points="88.68 55.8 89.36 55.8 89.36 53.4 88.68 53.4 88.68 55.8"/>
    <path class="cls-1" d="M87.09,55.8h.68V53.85h.5V53.4h-.5v-.14c0-.18.09-.32.23-.32h.23v-.49h-.37a.71.71,0,0,0-.81.72v.18h-.41v.45h.41v2Z"/>
    <path class="cls-1" d="M92.17,54.26A1.07,1.07,0,0,0,91,53.31a1.2,1.2,0,0,0-1.27,1.31A1.18,1.18,0,0,0,91,55.84a1.15,1.15,0,0,0,1.22-1h-.68a.5.5,0,0,1-.54.49c-.45,0-.59-.4-.59-.72s.14-.77.59-.77.5.14.5.41Z"/>
    <polygon class="cls-1" points="58.88 53.08 59.56 53.08 59.83 52.49 59.15 52.49 58.88 53.08"/>
    <polygon class="cls-1" points="77.31 53.08 77.99 53.08 78.17 52.49 77.49 52.49 77.31 53.08"/>
    <polygon class="cls-1" points="85.74 53.08 86.42 53.08 86.64 52.49 85.96 52.49 85.74 53.08"/>
    <polygon class="cls-1" points="88.68 53.08 89.36 53.08 89.54 52.49 88.91 52.49 88.68 53.08"/>
    <path class="cls-1" d="M24,54.57a1.2,1.2,0,0,0-1.17-1.31c-.37,0-.68.09-.77.41h0v-.36h-.41v3.48H22V55.53h0a.91.91,0,0,0,.81.4A1.23,1.23,0,0,0,24,54.57Zm-.45,0c0,.5-.18,1-.72,1s-.77-.46-.77-1,.18-1,.77-1,.72.46.72.91Z"/>
    <path class="cls-1" d="M26.64,55.8v-.37H26.5c-.14,0-.14-.09-.14-.31V53.85c0-.59-.49-.68-.95-.68s-1,.18-1.08.82h.4c0-.41.32-.5.64-.5s.54,0,.54.45-.41.32-.81.41-.82.18-.82.77.41.68.82.68a1.05,1.05,0,0,0,.9-.41c0,.32.14.41.36.41s.19,0,.28,0ZM26,55a.69.69,0,0,1-.77.59c-.23,0-.5-.09-.5-.41s.23-.4.5-.45a1.89,1.89,0,0,0,.72-.14V55Z"/>
    <path class="cls-1" d="M27,55.8h.46V54.67c0-.64.22-1.05.95-1.05v-.45a1,1,0,0,0-.95.59h0v-.5H27v2.58H27Z"/>
    <path class="cls-1" d="M29.5,52.54h-.41v.72h-.45v.36h.45v1.63c0,.46.14.55.59.55H30v-.37h-.18c-.23,0-.32,0-.32-.22V53.62H30v-.36h-.5v-.72Z"/>
    <path class="cls-1" d="M34,54.57a1.23,1.23,0,1,0-1.22,1.32A1.19,1.19,0,0,0,34,54.57Zm-.41,0a.85.85,0,0,1-.77,1c-.45,0-.77-.37-.77-1a.85.85,0,0,1,.77-1c.41,0,.77.32.77,1Z"/>
    <path class="cls-1" d="M34.61,55.8H35V53.62h.5v-.36H35V52.9a.29.29,0,0,1,.32-.32.45.45,0,0,1,.23.05v-.27a2.14,2.14,0,0,1-.23,0c-.45,0-.68.18-.68.63v.41H34.2v.36h.45V55.8Z"/>
    <path class="cls-1" d="M64.86,43.34c0-1.76-1.36-2.62-3-2.62-1.45,0-3,.63-3,2.31,0,1.35,1,1.81,2.26,2.17l1.27.32c.9.22,1.76.54,1.76,1.49,0,1.13-1.26,1.59-2.22,1.59a2.16,2.16,0,0,1-2.4-2h-1c.13,2,1.49,2.9,3.35,2.9,1.54,0,3.31-.68,3.31-2.45,0-1.45-1.18-2.08-2.31-2.26l-1.32-.32c-.68-.18-1.67-.5-1.67-1.36,0-1.09,1-1.45,1.9-1.45a1.88,1.88,0,0,1,2.13,1.77h1v0Z"/>
    <path class="cls-1" d="M72.56,43.57a3.08,3.08,0,0,0-3.31-2.81c-2.49,0-3.85,2-3.85,4.35s1.36,4.35,3.85,4.35a3.3,3.3,0,0,0,3.35-3.17h-1a2.43,2.43,0,0,1-2.36,2.31c-1.9,0-2.85-1.72-2.85-3.49s.95-3.49,2.85-3.49a2.23,2.23,0,0,1,2.31,2Z"/>
    <polygon class="cls-1" points="73.19 49.09 74.19 49.09 74.19 40.94 73.19 40.94 73.19 49.09"/>
    <path class="cls-1" d="M78.44,40.76c-2.62,0-3.66,2.18-3.66,4.35s1.08,4.35,3.66,4.35A3.27,3.27,0,0,0,82,46.56H81a2.52,2.52,0,0,1-2.58,2.08c-1.9,0-2.67-1.76-2.72-3.21H82c.13-2.4-.91-4.67-3.54-4.67ZM81,44.48H75.77a2.89,2.89,0,0,1,2.72-2.9A2.74,2.74,0,0,1,81,44.48Z"/>
    <path class="cls-1" d="M82.61,49.09h1V44.34a2.6,2.6,0,0,1,2.58-2.81c1.63,0,2.08,1.09,2.08,2.45v5.11h1v-5.2c0-2-.68-3.17-3-3.17a2.85,2.85,0,0,0-2.63,1.63h0V40.9h-1v8.15h0Z"/>
    <path class="cls-1" d="M90.81,39.4V41H89.36v.81h1.45v5.62c0,1.36.45,1.81,1.76,1.81.32,0,.59,0,.91,0v-.82a5,5,0,0,1-.82.05c-.67-.05-.77-.46-.77-1.09V41.76h1.68v-.82H91.85V38.86l-1,.54Z"/>
    <polygon class="cls-1" points="94.07 49.09 95.06 49.09 95.06 40.94 94.07 40.94 94.07 49.09"/>
    <polygon class="cls-1" points="100.23 49.09 101.27 49.09 101.27 40.94 100.23 40.94 100.23 49.09"/>
    <path class="cls-1" d="M97,49.09h1V41.76h1.63v-.82H98v-.68c0-.9,0-1.58,1.09-1.58a4,4,0,0,1,.72.09v-.91H99c-1.58,0-2,1-1.94,2.4V41H95.7v.81h1.36v7.29Z"/>
    <path class="cls-1" d="M109.1,43.57a3.07,3.07,0,0,0-3.3-2.81c-2.49,0-3.85,2-3.85,4.35s1.36,4.35,3.85,4.35a3.3,3.3,0,0,0,3.35-3.17h-1a2.41,2.41,0,0,1-2.35,2.31c-1.9,0-2.86-1.72-2.86-3.49s1-3.49,2.86-3.49a2.23,2.23,0,0,1,2.31,2Z"/>
    <polygon class="cls-1" points="101.77 37.86 101.27 39.4 100.23 39.4 100.77 37.86 101.77 37.86"/>
    <polygon class="cls-1" points="95.56 37.86 95.06 39.4 94.07 39.4 94.57 37.86 95.56 37.86"/>
    <polygon class="cls-1" points="74.69 37.86 74.19 39.4 73.19 39.4 73.69 37.86 74.69 37.86"/>
  </g>
</svg>
