<svg id="gsk" xmlns="http://www.w3.org/2000/svg" width="110" height="92" viewBox="0 0 110 92">
  <defs>
    <style>
      .cls-1 {
        fill: #fff;
      }
    </style>
  </defs>
  <title>gsk</title>
  <g>
    <path class="cls-1" d="M38.41,47.09C40,46.67,41,45.18,41,43.16c0-2.33-1.21-4.1-3.12-4.55a5,5,0,0,0-1.09-.11,5.1,5.1,0,0,0-1.09.08A3.55,3.55,0,0,0,33,41.31a6.94,6.94,0,0,0,0,2.49,4.2,4.2,0,0,0,3,3.28A6.46,6.46,0,0,0,38.41,47.09Z"/>
    <path class="cls-1" d="M88.19,32a12.7,12.7,0,0,0-3.8-7.43c-3.14-3.05-7.78-4.74-14.85-5.42-1.44-.14-10-.14-12,0-7.9.55-13.77,1.66-18.91,3.56-7.16,2.65-12,6.58-14.59,11.83a15.65,15.65,0,0,0-1.59,7.41,28.34,28.34,0,0,0,1.87,10.15c2.89,5.95,8.27,8.73,15,8.09,1.82-.18,2.72-.49,3.43-1.2a2,2,0,0,0-.08-3c-.61-.42-1.36-.55-4.2-.7a43.46,43.46,0,0,1-4.9-.43,3.8,3.8,0,0,1-2.47-1.88A3,3,0,0,1,31,50.82a4.22,4.22,0,0,1,2-2.2l.34-.21-.46-.23a5.85,5.85,0,0,1-3.19-5.57,5.74,5.74,0,0,1,1.09-3.19,7.09,7.09,0,0,1,5.88-2.75h.51a11.34,11.34,0,0,1,3.19.56,6.89,6.89,0,0,0,2.6.22,12.42,12.42,0,0,0,2.38-.12,2.22,2.22,0,0,1,.6-.09,10,10,0,0,1,0,2.32,8,8,0,0,1-1.18,0,13.69,13.69,0,0,0-1.52-.06l-.41,0,.28.42A5.86,5.86,0,0,1,44,43.46a5.21,5.21,0,0,1-1.57,3.59c-1.39,1.41-3,2-5.64,2-1.26,0-1.39,0-1.73.19-1.06.52-1.46,1.79-.76,2.38.43.36.89.44,3.54.6,3.62.21,4.36.33,5.58.91a3.76,3.76,0,0,1,2.4,3.63,4.39,4.39,0,0,1-.48,2.2c-1,2.14-3.52,3.29-7.46,3.42a19,19,0,0,1-5.17-.52,35,35,0,0,1-4.95-2.47L28,60c5.56,9.25,14.08,15,22.72,15.71a21.35,21.35,0,0,0,9-1.2,32.57,32.57,0,0,0,4.54-2.27c5.25-3.3,11.65-9.94,16.31-16.91,4.18-6.25,6.67-12.06,7.51-17.51A25.42,25.42,0,0,0,88.19,32ZM53,55.31a16.47,16.47,0,0,1-1.71,0,15.2,15.2,0,0,1-3.07-.7l-1-.35,0-1.38a4.77,4.77,0,0,1,.06-1.38,2.66,2.66,0,0,1,.53.22,15.39,15.39,0,0,0,3.71,1.22,8.73,8.73,0,0,0,3.35-.11,2,2,0,0,0,1.5-1.54,2.73,2.73,0,0,0-1.52-2.77c-.29-.2-1.4-.78-2.45-1.3a12.36,12.36,0,0,1-3.82-2.41,4.12,4.12,0,0,1-1.22-3,4.66,4.66,0,0,1,2.92-4.33,9.61,9.61,0,0,1,7.9.19l.5.25,0,1.3c0,1.51.05,1.49-.66,1-2-1.3-6.83-2.5-7.42.87,0,.89.56,1.65,1.76,2.44.34.22,1.47.84,2.5,1.37a13.35,13.35,0,0,1,3.83,2.51,3.93,3.93,0,0,1,1.16,3.18C59.61,53.4,57,55.2,53,55.31Zm24.4-.43a6.83,6.83,0,0,1-2.77,0,6.53,6.53,0,0,1-3.12-2c-.39-.41-1.91-2.16-3.36-3.91L65.53,45.8v2.67a27.4,27.4,0,0,0,.3,5.51,2.51,2.51,0,0,1,.11.64,17.88,17.88,0,0,1-2.14.06H61.69l.05-.25c0-.14.1-.44.17-.68.24-.88.28-2.83.25-12.29,0-8.34,0-9.37-.17-10a6.4,6.4,0,0,0-.28-1,2.45,2.45,0,0,1-.15-.43A36.67,36.67,0,0,1,65.43,29c.07,0,.1,1.59.11,7.53l0,7.52,2.92-2.73c1.61-1.5,3.18-3,3.49-3.39l.58-.68h2.22a12.29,12.29,0,0,1,2.08.07c-.15.06-.15.07,0,.07s0,.11-.29.24c-.94.49-1.73,1.16-5.28,4.5-2.38,2.23-2.77,2.63-2.69,2.73.26.34,2.69,3.13,4,4.64A25.34,25.34,0,0,0,76.11,53a4.52,4.52,0,0,0,2.77,1c.17,0,.24,0,.24.08A4,4,0,0,1,77.43,54.88Z"/>
  </g>
</svg>
