<svg id="gynzone" xmlns="http://www.w3.org/2000/svg" width="110" height="92" viewBox="0 0 110 92">
  <defs>
    <style>
      .cls-1 {
        fill: #fff;
        fill-rule: evenodd;
      }
    </style>
  </defs>
  <title>gynzone</title>
  <g>
    <path id="path0" class="cls-1" d="M19.61,33.82c-.12,0-.24.06-.24.09s-.06.06-.18,0-.18,0-.18,0-.06.06-.15,0-.15,0-.15,0-.09.06-.21.09a.91.91,0,0,0-.27.09.18.18,0,0,1-.12,0s-.06,0-.06,0-.07.06-.13,0-.12,0-.12,0-.09.06-.18.09-.18.06-.18.09,0,.06-.09,0a.22.22,0,0,0-.18.06.34.34,0,0,1-.18.09c-.06,0-.12,0-.12.06s0,0-.09,0-.09,0-.09,0,0,.06-.06,0-.06,0-.06,0-.12.09-.24.12-.24.09-.24.12-.09.09-.21.12-.21.09-.21.12,0,0-.06,0-.06,0-.06,0-.06.09-.15.12c-.4.18-.94.78-.94,1a.13.13,0,0,1,0,.09s0,.42,0,.93,0,.94,0,.94a4.73,4.73,0,0,1,0,.9,2.77,2.77,0,0,1-.06.9s-.06.12,0,.39a1,1,0,0,1,0,.55,3.09,3.09,0,0,0-.09.75c0,.33-.06.6-.09.57s0,.09,0,.27,0,.3,0,.3-.06.06,0,.21,0,.21,0,.21A1.3,1.3,0,0,0,14,44c0,.24-.06.45-.09.42s0,.06,0,.21,0,.24,0,.24-.06.06,0,.18,0,.18,0,.18-.06.15-.09.36-.06.36-.09.36,0,.09,0,.18,0,.18,0,.18-.06.06,0,.18a.23.23,0,0,1,0,.21,1.36,1.36,0,0,0-.09.37c0,.18-.06.33-.09.33s0,.09,0,.18,0,.18,0,.18-.06.06,0,.15a.23.23,0,0,1,0,.21,1.25,1.25,0,0,0-.09.51c0,.24-.06.42-.06.42a3.77,3.77,0,0,0,0,.79c0,.42,0,.78,0,.75s.06.18.06.42a3.18,3.18,0,0,0,.09.54.18.18,0,0,1,0,.18c0,.06,0,.12,0,.12s.06.06,0,.15,0,.15,0,.15.06.12.09.24.06.25.09.25,0,0,0,.09,0,.09,0,.12,0,.06,0,.12a.06.06,0,0,0,0,.09s.06.09.09.21.06.21.09.21,0,0,0,.09,0,.09,0,.09.09.12.12.24.09.24.12.24,0,0,0,.06,0,.09,0,.09.27.48.54,1,.51,1,.54,1a1.56,1.56,0,0,1,.16.27c0,.12.09.21.12.21s0,0,0,.06a0,0,0,0,0,0,.06.83.83,0,0,1,.24.45s0,0,.06,0,.06,0,0,.09,0,.06,0,.06a2.9,2.9,0,0,1,.57,1,1.07,1.07,0,0,0,.18.3s0,.06,0,.12,0,0,.06,0a.81.81,0,0,0,.18-.36c0-.15.09-.24.12-.24s0,0,0-.06a0,0,0,0,1,0-.06A.51.51,0,0,0,17,58a.57.57,0,0,1,.12-.24s.12-.21.24-.42.27-.48.36-.6a1.92,1.92,0,0,0,.18-.33c0-.06.09-.12.13-.12s.06,0,.06-.09a.2.2,0,0,1,.09-.15c.06,0,.09-.06.06-.06s.24-.48.3-.51,0-.06,0-.09a.16.16,0,0,1,.09-.12c.06,0,.06-.07.06-.1A.33.33,0,0,1,18.8,55c.06-.09.12-.15.12-.18a3.29,3.29,0,0,1,.39-.63.43.43,0,0,0,.06-.09,2.39,2.39,0,0,1,.24-.48s.06-.09.09-.21.09-.18.12-.18,0,0,0-.09,0-.09,0-.09.09-.12.12-.27.09-.27.12-.27,0-.06,0-.13,0-.12,0-.12.09-.12.09-.27.06-.27.09-.24,0-.15,0-.33,0-.36,0-.36.06-.06.06-.15,0-.15-.06-.15-.06-.09,0-.3,0-.3,0-.27-.06,0-.06-.09a.67.67,0,0,0-.09-.3.38.38,0,0,1-.06-.22s0-.06,0,0-.27-.39-.27-.48,0,0,0,0-.06,0-.12-.09l-.27-.36c-.21-.24-.33-.36-1.42-1.41a5.92,5.92,0,0,1-.69-.76c-.09-.09-.18-.24-.24-.3a.45.45,0,0,1-.12-.24c0-.06-.06-.12-.09-.12s0,0,0-.06,0-.06,0-.06-.09-.12-.12-.27-.09-.3-.09-.36a3.24,3.24,0,0,1,0-1.08s.06-.1.06-.22.06-.21.09-.21,0,0,0-.09,0-.12.06-.15a.93.93,0,0,0,.12-.18,2.08,2.08,0,0,1,.45-.66s0,0,0-.06a0,0,0,0,1,0-.06s.12-.12.24-.27a1,1,0,0,1,.27-.27s.06,0,.1-.09a9.7,9.7,0,0,1,1.17-1.33,3.8,3.8,0,0,0,.51-.57,3.35,3.35,0,0,1,.42-.45,16.84,16.84,0,0,0,1.36-1.54c.06-.06.18-.27.3-.45S22,37,22,37a.15.15,0,0,0,0-.09s0,0,0,0,.09-.09.09-.18.06-.15.09-.15,0,0,0-.09,0-.12,0-.12.06,0,0-.12a.13.13,0,0,1,0-.15c.06-.06.09-.76,0-.79s0-.06,0-.12,0-.09,0-.09-.06-.06-.09-.15a1.9,1.9,0,0,0-.69-.69.2.2,0,0,1-.15-.09.19.19,0,0,0-.15-.06s-.09,0-.12,0c.12-.24-1-.27-1.51-.24m13,.36a1.12,1.12,0,0,1-.33,0c-.13,0-.19,0-.19,0s-.06.06-.18,0-.18,0-.18,0-.09.06-.21.09a.91.91,0,0,0-.27.09.11.11,0,0,1-.09,0s-.06,0-.06,0-.06.06-.15.09a1.4,1.4,0,0,0-.3.15c-.09.06-.24.18-.39.27a3.75,3.75,0,0,0-.84.85c0,.06-.16.21-.22.33a1.38,1.38,0,0,0-.21.42c0,.12-.12.27-.15.36a.6.6,0,0,0-.09.24.06.06,0,0,1-.06.06s0,.06,0,.12,0,.12,0,.12-.06,0,0,.12a.13.13,0,0,1,0,.15c-.06,0-.09.15-.09.33s0,.31-.06.31,0,.09,0,.21,0,.18,0,.18-.06.09-.06.24,0,.48-.06.75c-.06.66-.06,4.4,0,5.09,0,.3.06.63.06.75s0,.21.06.21.06.09,0,.21a.41.41,0,0,0,0,.21s.06.15.09.3.06.31.09.31,0,.06,0,.12,0,.12,0,.12.06.06,0,.12,0,.09,0,.09.06.06.09.18.06.21.09.21,0,0,0,.06a0,0,0,0,0,0,.06s.09.12.15.24.12.24.15.24,0,.06,0,.12,0,.09,0,.06.16.06.31.27a3.7,3.7,0,0,0,1.62,1.12c.06,0,.09,0,.09.06s0,0,.09,0,.09,0,.09,0,.15.09.3.09.3.06.27.09.09,0,.25,0,.24,0,.24,0a2.78,2.78,0,0,0,.78.06,2.78,2.78,0,0,0,.78-.06s.12,0,.27,0a.45.45,0,0,0,.24,0s.12-.06.27-.09.34-.06.34-.09a.22.22,0,0,1,.15,0c.06,0,.12,0,.12,0a.06.06,0,0,1,.06-.06.88.88,0,0,0,.27-.09,1.33,1.33,0,0,1,.24-.09s0,0,0,0,.06-.09.15-.13a4.15,4.15,0,0,0,1.2-1.2c0-.09.09-.18.12-.18s.06-.09.09-.18.06-.15.09-.15,0,0,0-.09,0-.12,0-.12a.1.1,0,0,0,.06,0,1.22,1.22,0,0,1,.06-.21.69.69,0,0,0,.07-.24s0-.09.06-.09S38,47,38,47s0-.15,0-.15.06-.07,0-.13a.18.18,0,0,1,0-.18,3.74,3.74,0,0,0,.09-.69,2.48,2.48,0,0,1,.09-.63,14.08,14.08,0,0,0,.06-1.78V41.62H33.31v2.22h2V45a4.55,4.55,0,0,1-.06,1.14s0,.06,0,.12a.18.18,0,0,1,0,.18,1,1,0,0,0-.12.3,1.93,1.93,0,0,1-.16.37,2.47,2.47,0,0,1-.54.57,1.48,1.48,0,0,0-.27.12.91.91,0,0,1-.33.09c-.06,0-.12,0-.12,0s-.09.06-.24.06-.24,0-.24-.06a.06.06,0,0,0-.09,0c-.21.06-1.09-.57-1-.72s0-.06,0-.06S32,47,32.07,47s0-.09,0-.06-.21-.22-.18-.37,0-.06,0-.06a.83.83,0,0,1-.12-.42.83.83,0,0,0-.12-.42s0-.09,0-.18,0-.21,0-.21a27.57,27.57,0,0,1,0-6.29s0-.09,0-.15a.23.23,0,0,1,0-.21,1.45,1.45,0,0,0,.12-.46.79.79,0,0,1,.12-.39s.06,0,0,0c-.09-.36.94-1.35,1.27-1.23.06,0,.09,0,.09,0s.09-.06.21-.06.21,0,.21.06.06.06.18,0,.18,0,.18,0,.06.09.15.09a2.46,2.46,0,0,1,.78.87c0,.12.09.21.12.21s0,.06,0,.12,0,.12,0,.09.06,0,.06,0,.12.94.15,1,.12.09,1.47.09l1.45,0v-.51a2.41,2.41,0,0,0,0-.58.52.52,0,0,1,0-.24.32.32,0,0,0,0-.18s-.06-.12-.09-.27S38,37,38,37s-.06-.06,0-.12a.06.06,0,0,0,0-.09s-.07-.06,0-.12a.11.11,0,0,0,0-.12,1,1,0,0,1-.21-.33,3.44,3.44,0,0,0-1.29-1.39c-.06,0-.12-.06-.12-.09s-.09-.09-.21-.12-.21-.09-.21-.12,0,0-.09,0-.09,0-.09,0-.12-.09-.24-.09-.24-.06-.24-.09-.09,0-.22,0-.21,0-.21,0-.12-.06-.24-.06-.54,0-.93,0-.87.06-1,.09M55.38,38a.22.22,0,0,1-.15,0c-.06,0-.12,0-.12,0s-.09.06-.19.09c-.42.1-1.32.76-1.32,1a.06.06,0,0,1-.06.06s-.09.06-.12.15c-.12.33-.21.12-.24-.6v-.48H50.41v11.5h3v-4c0-2.65,0-4,.06-4s0-.09,0-.21,0-.21,0-.21a.06.06,0,0,0,.06-.06c0-.18.45-.85.6-.85a.06.06,0,0,0,.06-.06s0-.06.09,0a.06.06,0,0,0,.09,0,2,2,0,0,1,1.12,0c0,.06.06.06.06,0s.06,0,.15.06.42.51.39.6,0,.1,0,.13a29.91,29.91,0,0,1,.09,4.36l0,4.31h3l0-4.67c0-2.56,0-4.67,0-4.7a.76.76,0,0,1-.06-.36,1.16,1.16,0,0,0-.09-.36s0-.06,0-.12,0-.09,0-.09-.09-.09-.12-.21a.86.86,0,0,0-.18-.33c-.06-.06-.12-.12-.12-.15a1,1,0,0,0-.27-.27c-.15-.12-.33-.24-.39-.3a.51.51,0,0,0-.31-.13q-.18,0-.18-.09s-.06,0-.12,0a.18.18,0,0,1-.18,0,6.65,6.65,0,0,0-1.74,0m-15.87.31a.26.26,0,0,0,0,.21c0,.06.06.12,0,.15s0,.06,0,.09a.22.22,0,0,1,0,.15c0,.06,0,.12,0,.12s.06.12.09.27.06.3.09.3,0,.06,0,.12,0,.09,0,.09.06.06,0,.15,0,.15,0,.15.06.12.09.24a.88.88,0,0,0,.09.3.22.22,0,0,1,0,.15c0,.06,0,.12,0,.12s.06.06,0,.16,0,.15,0,.15.06.12.09.24.06.24.09.24,0,.06,0,.12,0,.12,0,.12,0,.06,0,.18,0,.15,0,.15.06.09.09.24.06.27.1.27,0,.06,0,.12v.12a2.22,2.22,0,0,1,.18.69c0,.06,0,.09.06.09s0,.06,0,.16a.21.21,0,0,0,0,.15.79.79,0,0,1,.12.39.79.79,0,0,0,.12.39s0,.06,0,.15,0,.15,0,.15.06.12.09.24.06.27.09.27,0,.09,0,.15,0,.12,0,.12.06.06,0,.15,0,.12,0,.12.06,0,.06.12a.74.74,0,0,0,0,.27.18.18,0,0,0,.09.16.13.13,0,0,1,0,.15c0,.06,0,.09,0,.09s.06.06,0,.15,0,.15,0,.15.06.12.09.24a1.22,1.22,0,0,0,.09.3.22.22,0,0,1,0,.15c0,.06,0,.12,0,.12s.06.06,0,.15,0,.15,0,.15.06.12.09.24.06.27.09.27-.09.7-.39.82a1.41,1.41,0,0,1-.27.09.74.74,0,0,1-.27,0c-.09,0-.15,0-.15.06s-.12.06-.45,0l-.46,0,0,1.08,0,1.08.76,0A2.21,2.21,0,0,0,42.1,52a.52.52,0,0,1,.24,0c.09,0,.18,0,.18,0a.83.83,0,0,1,.42-.12.83.83,0,0,0,.42-.12s.06-.06.12,0a.17.17,0,0,0,.13,0s.09-.06.21-.12a3,3,0,0,0,.57-.27,2,2,0,0,1,.33-.18s.09-.06.42-.33a.57.57,0,0,1,.24-.15.13.13,0,0,0,.09-.12q0-.09.09-.09s0,0,0,0,.21-.36.27-.3,0,0,0,0,0-.12,0-.18a4.15,4.15,0,0,0,.48-1,.07.07,0,0,1,.07-.06s.09-.12.12-.27.09-.27.12-.27,0-.06,0-.12,0-.12,0-.12a.79.79,0,0,0,.12-.39.79.79,0,0,1,.12-.39s0-.06,0-.15S47,47,47,47s.06-.15.09-.31.06-.3.09-.3,0-.09,0-.18,0-.18,0-.18.06,0,0-.12a.13.13,0,0,1,0-.15,1.16,1.16,0,0,0,.09-.33c0-.18.06-.3.09-.3s0-.09,0-.18,0-.18,0-.18.06,0,0-.12a.13.13,0,0,1,0-.15,1.16,1.16,0,0,0,.09-.36c0-.18.06-.34.09-.31s0-.06,0-.15,0-.18,0-.18.06-.06,0-.15a.17.17,0,0,1,0-.18A.25.25,0,0,0,48,43c0-.09,0-.15.06-.15s0-.09,0-.18,0-.15,0-.15.06,0,0-.12a.18.18,0,0,1,0-.18.32.32,0,0,0,.06-.18,2.26,2.26,0,0,1,.18-.78s0,0,0-.15,0-.19,0-.19a1.07,1.07,0,0,0,.12-.48,1.07,1.07,0,0,1,.12-.48s0-.09,0-.18,0-.18,0-.18.06-.15.09-.3.06-.3.09-.3,0-.09,0-.18,0-.18,0-.18.06-.06,0-.12a.18.18,0,0,1,0-.18c.21-.12,0-.16-1.44-.12H46l-.06.36c0,.21-.06.33-.09.33s0,.06,0,.18,0,.24,0,.24-.06.06-.06.15a3.58,3.58,0,0,1-.18,1s0,.09,0,.21,0,.21,0,.21-.06,0,0,.12a.2.2,0,0,1,0,.19,1.86,1.86,0,0,0-.09.48c0,.24-.06.39-.09.36s0,0,0,.15a.3.3,0,0,1,0,.24,2.46,2.46,0,0,0-.12.63,1.39,1.39,0,0,1-.12.57s0,.09,0,.18,0,.19,0,.19a1.71,1.71,0,0,0-.12.63,1.92,1.92,0,0,1-.12.63s0,.09,0,.18,0,.18,0,.18-.06.09-.06.21c0,.3-.06.54-.15.57s-.15-.18-.15-.3a.32.32,0,0,0-.06-.15.3.3,0,0,1,0-.24c0-.09,0-.15,0-.12s-.06-.09-.09-.3-.06-.36-.09-.36,0-.09,0-.18,0-.15,0-.15-.06-.06,0-.18,0-.15,0-.15-.06-.12-.09-.3-.06-.37-.09-.37,0-.09,0-.18,0-.15,0-.15-.06-.06,0-.18a.32.32,0,0,0,0-.18s-.06-.15-.09-.3-.07-.33-.1-.33,0-.09,0-.18,0-.12,0-.12-.06-.06,0-.21,0-.18,0-.18-.06-.12-.09-.3-.06-.34-.09-.34,0-.06,0-.18,0-.18,0-.18a2.19,2.19,0,0,1-.18-.84c0-.06,0-.12-.06-.12s-.06-.06,0-.18a.32.32,0,0,0,0-.18,2.71,2.71,0,0,1-.18-.78c0-.34,0-.34-1.56-.34s-1.6.1-1.63.19"/>
    <path id="path1" class="cls-1" d="M13,24.34s-.06,0-.15,0-.15,0-.15,0-.09.06-.21.09-.22.06-.22.09-.06.06-.12.09a2.76,2.76,0,0,0-1,.72,2.09,2.09,0,0,0-.51.69c-.09.18-.15.24-.18.24s-.06,0,0,0a1.91,1.91,0,0,1-.12.7,4.72,4.72,0,0,0,0,1.71.26.26,0,0,1,0,.21c0,.06,0,.12,0,.12s.06.09,0,.21,0,.21,0,.21.06.06.06.15a.36.36,0,0,0,.06.22.23.23,0,0,1,.06.12c0,.06,0,.15,0,.18a.19.19,0,0,1,0,.18c0,.06,0,.09,0,.09s.06.15.09.36.06.36.09.36,0,.09,0,.21,0,.21,0,.21.06.09,0,.27,0,.27,0,.27a1.15,1.15,0,0,1,.06.52c0,.3,0,.51-.06.48s-.06,0-.09,0,0,.06,0,.06.06.15-.06.45-.57.66-.75.6-.12,0-.12,0-.15.06-.3.06-.31,0-.31-.06-.09,0-.21,0-.21,0-.21,0,0-.06-.12,0a.13.13,0,0,1-.15,0,.23.23,0,0,0-.15-.06.31.31,0,0,1-.12,0S8.29,34,8.14,34a.56.56,0,0,1-.3-.06,2.84,2.84,0,0,0-1.42,0s0,0-.09,0-.51.39-.57.57a1.35,1.35,0,0,0-.06.24,1.88,1.88,0,0,0,0,.82s0,.09,0,.18,0,.18,0,.18.06.06.06.15a.25.25,0,0,0,.06.18s.06.06,0,.12a.06.06,0,0,0,0,.09s.09.09.12.21a8,8,0,0,0,.73,1.38,1.42,1.42,0,0,1,.15.22,3.38,3.38,0,0,0,.33.48,8.85,8.85,0,0,1,1,1.53s0,.06.06.09.09.06.09.12,0,.09.06.09a4.61,4.61,0,0,1,.45.94c0,.09.06.18.09.18s0,.06,0,.12,0,.12,0,.12,0,.06,0,.18,0,.18,0,.18a1.41,1.41,0,0,1,.06.57c0,.51,0,.57-.09.57s-.09,0,0,.06,0,.4,0,.4-.06.09-.09.21a6.06,6.06,0,0,1-1.17,1.59c-.87.93-.9,1-1,.93s-.06,0,0,0-.09.25-.25.43a5.87,5.87,0,0,0-.36.51l-.12.18a.06.06,0,0,0-.06.06,1.27,1.27,0,0,1-.15.36,2.19,2.19,0,0,0-.21.57c0,.15-.09.3-.12.3s0,.06,0,.15a.23.23,0,0,1,0,.21,3.43,3.43,0,0,0-.06.91,3.32,3.32,0,0,0,.06.9.23.23,0,0,1,0,.21c0,.09,0,.15,0,.15s.06.06,0,.18,0,.18,0,.18.06.12.09.24a1.33,1.33,0,0,0,.09.31.18.18,0,0,1,0,.12s0,.06,0,.06.06.06,0,.12,0,.12,0,.12.06.09.06.18,0,.15.06.15a.13.13,0,0,1,.09.12,2.31,2.31,0,0,0,.18.45c.09.15.12.33.09.36s0,.06,0,0,.06,0,.06.06,0,.09.06.09.19.33.16.39,0,.06,0,0,.15.12.24.3a6.14,6.14,0,0,0,.48.79.84.84,0,0,1,.15.27,8.14,8.14,0,0,0,.54.81,4.79,4.79,0,0,1,.51.87s0,0,0,0,.09,0,.15.09a1.83,1.83,0,0,0,.27.37c.09.12.18.27.18.27s0,.06.09.12,1.15,1.56,1.3,1.8c0,.06.06.12.09.12s.21.28.84,1.21c.24.33.48.72.57.84a.87.87,0,0,1,.15.3s0,.06.07.09A7.21,7.21,0,0,1,13,64.2s0,.06,0,.06a5.41,5.41,0,0,1,.45.93c0,.09.06.15.09.15s.06.12.12.24c.09.3.09.33,0,.27s-.06,0,0,0,.06.06.09,0,.09.06.06.15.15.21.24.12a4.29,4.29,0,0,0,.57-.81c.09-.15.15-.27.18-.27s0-.06,0-.15a.25.25,0,0,1,.06-.18,1,1,0,0,0,.12-.33c0-.15.09-.3.12-.3s0-.06,0-.12a.13.13,0,0,1,0-.15,1.19,1.19,0,0,0,.1-.43c0-.21.06-.39.09-.39s0-.15,0-.33a.63.63,0,0,1,0-.39,2.07,2.07,0,0,0,0-1s-.06-.12,0-.43,0-.42,0-.42,0-.12,0-.24,0-.24,0-.24-.06-.06-.06-.18a.34.34,0,0,0-.07-.21.23.23,0,0,1-.06-.15.51.51,0,0,0,0-.21.13.13,0,0,1,0-.15S15,59,15,59s-.06-.12-.09-.24a.88.88,0,0,0-.09-.3s0-.06,0-.12a.06.06,0,0,0,0-.09c-.06,0-.21-.46-.18-.52s0,0,0,0-.09-.09-.12-.21a4.57,4.57,0,0,0-.39-.75c-.15-.3-.3-.54-.3-.57a.16.16,0,0,0-.09-.12.22.22,0,0,1-.06-.18s0-.06,0-.06-.18-.24-.36-.58-.33-.6-.33-.63,0,0,0-.06a2.46,2.46,0,0,0-.12-.33,2.46,2.46,0,0,1-.12-.33s0,0,0,0-.09-.12-.12-.24-.09-.24-.13-.24-.18-.51-.15-.57,0-.06-.06-.09-.06-.06-.06-.12,0-.09,0-.09-.06-.07,0-.16,0-.15,0-.15,0-.06,0-.15,0-.15,0-.15-.06-.09-.06-.21a1.8,1.8,0,0,1-.06-.36c0-.09,0-.18,0-.21s0-.09,0-.21-.12-.75,0-.81a.52.52,0,0,0,0-.36c0-.28,0-.34.09-.49s.09-.15.06-.12-.06,0-.06-.12,0-.18.06-.18,0-.09,0-.21,0-.21,0-.21.06-.06,0-.18,0-.18,0-.18.06-.06.06-.12.06-.48.12-.48,0-.06,0-.15,0-.15,0-.15.07,0,0-.09a.12.12,0,0,1,0-.15,1.33,1.33,0,0,0,.09-.31c0-.12.06-.24.09-.24s0-.06,0-.15,0-.15,0-.15,0-.06,0-.12,0-.12,0-.12.09-.12.09-.27.06-.27.09-.27,0-.06,0-.15,0-.15,0-.15,0-.06,0-.12a.18.18,0,0,1,0-.18.8.8,0,0,0,.09-.39c0-.18.06-.33.09-.33s0-.13,0-.25,0-.24,0-.24a16.52,16.52,0,0,0,0-2.44,2.25,2.25,0,0,1,0-.66,1.17,1.17,0,0,0,0-.57,6.5,6.5,0,0,1-.06-1.26,6,6,0,0,1,.06-1.27s0-.12,0-.3,0-.3,0-.3.06-.06,0-.15a.23.23,0,0,1,0-.21.35.35,0,0,0,.06-.21c0-.09,0-.15.06-.15s0,0,0-.06a.93.93,0,0,1,0-.27,1,1,0,0,1,.09-.22,3.77,3.77,0,0,1,1.35-1.71c.24-.18.55-.39.64-.45a8.82,8.82,0,0,0,1.29-1.3c.12-.18.27-.33.27-.36a.09.09,0,0,0,0-.06,1.18,1.18,0,0,1,.24-.42s.06-.06.06-.09a.62.62,0,0,1,.06-.18,2.83,2.83,0,0,0,.09-.27c0-.09.06-.15.09-.15s0,0,0-.09,0-.09,0-.12a.35.35,0,0,0,.06-.21.65.65,0,0,1,0-.18,3.83,3.83,0,0,0,0-.79c0-.42,0-.78,0-.78s0-.06,0-.18a.29.29,0,0,0-.06-.21c-.36.06-.36,0-.36,0a.76.76,0,0,0-.06-.21,1.22,1.22,0,0,1-.06-.21,1.24,1.24,0,0,0-.15-.33.52.52,0,0,1-.09-.37s0-.06,0,0-.21-.21-.42-.54a4.57,4.57,0,0,0-1.14-1.23c-.09-.06-.15-.12-.12-.15s0,0-.06,0-.13,0-.19-.06-.09-.09-.12-.09l-.18-.06a.93.93,0,0,0-.24-.06s-.09,0-.09-.06-.06,0-.15,0-.15,0-.15,0a1.73,1.73,0,0,0-.63-.06,1.44,1.44,0,0,0-.54.06M61.22,35.72V37h2.89C65.7,37,67,37,67,37s-.21.36-.24.33,0,0,0,0-.18.54-.27.48,0,0,0,0a2.22,2.22,0,0,1-.37.76s-.06.06,0,.06a1.18,1.18,0,0,1-.24.42s-.06.06-.06.09-.18.42-.24.42,0,0,0,.06,0,.06,0,.06a.06.06,0,0,0-.06.06s-.15.3-.3.6a2.58,2.58,0,0,0-.3.57.15.15,0,0,1,0,.07s-.12.15-.18.3a.53.53,0,0,1-.21.27s-.06,0,0,.06,0,.12-.06.18-.09.09-.06.12a13,13,0,0,1-.85,1.53s-.06.06-.06.09a4.17,4.17,0,0,1-.63,1.09s0,0,0,.06,0,.12,0,.15a1.61,1.61,0,0,0-.21.36,7.85,7.85,0,0,1-.39.72,2,2,0,0,0-.15.21c-.06.12-.18.39-.3.61a4.3,4.3,0,0,0-.27.57c0,.09-.06.18-.09.18s0,.06,0,.12a.13.13,0,0,1,0,.15,2.83,2.83,0,0,0,0,1.23s.06.09.06.18,0,.15,0,.12a.52.52,0,0,1,.12.09.92.92,0,0,0,.36.25l.3.15h8.43V47.4H67.6a28,28,0,0,1-2.92-.06s.06-.12.09-.21.21-.33.33-.55l.24-.42a.64.64,0,0,0,.12-.21,2.52,2.52,0,0,1,.39-.63s.06-.06.06-.09.52-1,.58-1a.42.42,0,0,0,.12-.21c.06-.1.21-.4.36-.67a5.66,5.66,0,0,1,.3-.51s.06-.12.12-.21a.47.47,0,0,1,.15-.24s.15-.24.27-.45l.24-.42a1.73,1.73,0,0,0,.15-.27c.06-.12.12-.25.15-.25s.09-.12.15-.24.12-.24.15-.24.06-.09.12-.18.09-.18.12-.18a0,0,0,0,0,0,0c0-.06.21-.45.24-.45s0,0,0-.06a0,0,0,0,1,0-.06s.1-.09.13-.21.09-.21.12-.21,0,0,0-.06,0-.06,0-.06a.06.06,0,0,0,.06-.06c0-.12.33-.57.36-.51s0,0,0,0,.3-.76.39-.73.06,0,0,0a1.31,1.31,0,0,1,.21-.63,1.19,1.19,0,0,0,.09-.39c0-.18.06-.36.09-.36s.06-.12.06-.27,0-.27-.06-.24-.06-.06-.06-.18a1,1,0,0,0-.63-.91l-.15-.06s-.12,0-.24,0-.24,0-.24,0-1.15-.06-4-.06h-4v1.27m42.24-.46s-.09.06-.21.09a1.51,1.51,0,0,0-.76.67,1.18,1.18,0,0,1-.12.27c-.06.12-.06.6,0,.6s.06,0,.06.09a1.36,1.36,0,0,0,.76.84l.15.06s.18,0,.39,0a2.66,2.66,0,0,0,.39,0,.23.23,0,0,1,.15-.06,2,2,0,0,0,.69-.63,2.83,2.83,0,0,1,.09-.27,1.71,1.71,0,0,0,0-.66s-.06-.09-.06-.18a1.36,1.36,0,0,0-.75-.76c-.12,0-.24-.09-.24-.12s-.12,0-.27,0-.3.06-.3.09m.81.4c.09.06.18.15.18.21s0,.09.06.06.21.18.15.27,0,.06,0,.06.06.66,0,.84-.09.15-.12.15a.23.23,0,0,0-.12.06s0,0,0,0,.09,0,0,.15a1.1,1.1,0,0,1-1.63-.33c-.45-1,.58-2,1.45-1.47m-1.08,1v.66h.18c.15,0,.18,0,.18-.27s0-.27.15-.27a.3.3,0,0,1,.3.3.25.25,0,0,0,.27.27.13.13,0,0,0,.06-.24.23.23,0,0,1-.06-.15.26.26,0,0,0-.09-.18c-.09-.06-.09-.09.12-.3s.09-.24,0-.24-.06,0-.06-.09-.12-.15-.63-.15h-.46v.66m.7-.48c.24.06.15.33-.12.36s-.21,0-.21-.15.06-.27.33-.21M75.25,38s-.09,0-.21,0-.22,0-.22,0-.06.06-.12.06a.59.59,0,0,0-.3.1.37.37,0,0,1-.21.06s-.06,0-.06,0-.09.09-.18.12c-.51.18-1.77,1.44-1.59,1.59s0,0,0,0-.09.06-.09.15-.06.15-.09.15,0,.06,0,.12,0,.12,0,.12-.1.15-.13.36-.09.37-.12.37,0,0,0,.09,0,.12,0,.18-.06.21-.12.81c0,.21-.06.39-.06.39a10.89,10.89,0,0,0,0,1.36c0,.75,0,1.35,0,1.35a5.85,5.85,0,0,1,.12.93c0,.09,0,.18.06.18s.06.06,0,.16,0,.18,0,.21a.51.51,0,0,1,.06.27,1.13,1.13,0,0,0,.1.3.18.18,0,0,1,0,.12s0,.06,0,.06.06.06.09.15a2.33,2.33,0,0,0,.24.48c.12.18.18.36.21.36a5.08,5.08,0,0,0,1,.84l.24.16s0,0,0,0,0,0,.06,0a.57.57,0,0,0,.27.09c.12,0,.21.06.21.09s0,0,.09,0,.12,0,.18,0a8.65,8.65,0,0,0,2.65,0s.09,0,.18,0,.19,0,.19,0,.06,0,.15,0,.12,0,.12,0,0-.06.06-.06a3.58,3.58,0,0,0,.9-.46,4.76,4.76,0,0,0,.78-.78,3,3,0,0,0,.42-.81c0-.12.09-.24.12-.24s.06-.18.12-.39a.81.81,0,0,1,.13-.4s0-.06,0-.15a.23.23,0,0,1,0-.21.56.56,0,0,0,.06-.3c0-.15,0-.24.06-.21s0-.15,0-.39,0-.42,0-.42a4.39,4.39,0,0,0,.06-1,4.44,4.44,0,0,0-.06-1,1.26,1.26,0,0,1,0-.45,1.26,1.26,0,0,0,0-.45s-.06-.12-.06-.24a.56.56,0,0,0-.06-.3.23.23,0,0,1,0-.21.21.21,0,0,0,0-.15.81.81,0,0,1-.13-.4.79.79,0,0,0-.12-.39s0,0,0-.09,0-.09,0-.09a.06.06,0,0,1-.06-.06,3.37,3.37,0,0,0-1.11-1.5,1,1,0,0,1-.24-.18,3.33,3.33,0,0,0-.48-.21.43.43,0,0,1-.09-.06,1,1,0,0,0-.33-.13c-.12,0-.24-.06-.24-.09s-.1,0-.19,0-.18,0-.18,0a5.13,5.13,0,0,0-1.08-.06,5.37,5.37,0,0,0-1,.09m12.61,0s-.06,0-.15,0-.15,0-.15,0,0,0-.06,0A2.82,2.82,0,0,0,86,39.21c-.27.42-.36.36-.36-.33l0-.57H82.83v11.5h2.89V46c0-2.14,0-4,.06-4.09s.09-.39.12-.57a1.42,1.42,0,0,1,1.72-1c.18,0,.3.06.27.09s0,0,.06,0,.48.3.51.51.06.19.09.19,0,.09,0,.21,0,.21,0,.21.06,1.29.06,4.18v4.19h1.45l1.44,0V45.2c0-3.4,0-4.67-.06-4.76a.34.34,0,0,1,0-.24c0-.06,0-.12,0-.12s-.06-.06,0-.15,0-.15,0-.15-.06-.06-.06-.09a.43.43,0,0,0-.06-.18s-.06-.06,0-.06,0,0,0-.09-.06-.09,0-.09,0,0,0-.09-.21-.24-.21-.3-.06-.09-.15-.15a1.71,1.71,0,0,1-.24-.21,2,2,0,0,0-.75-.4c-.06,0-.09,0-.09-.06s-.06,0-.15,0-.15,0-.15,0a2.88,2.88,0,0,0-.79-.06,3.5,3.5,0,0,0-.75.09m9.3,0s-.09,0-.21,0h-.21a1.36,1.36,0,0,1-.24.09.85.85,0,0,0-.3.1.77.77,0,0,1-.27.12,1.2,1.2,0,0,0-.45.27,2.38,2.38,0,0,1-.3.18s-.12.09-.24.24a.89.89,0,0,1-.28.21c-.06,0-.06,0,0,0s0,.12-.09.21a6,6,0,0,0-.33.57c-.12.24-.21.45-.24.51a1.51,1.51,0,0,0-.12.39c0,.19-.09.37-.09.4a.74.74,0,0,0,0,.27c0,.09,0,.18-.06.18s-.06.09-.06.24a8.12,8.12,0,0,1-.12,1.77s-.06.06-.06.13,0,.12.06.12a8.15,8.15,0,0,1,.09,1.2,8.68,8.68,0,0,0,.09,1.29.26.26,0,0,1,0,.22c0,.09,0,.15,0,.15s.06.06,0,.15,0,.15,0,.15.06.09.09.21.06.21.09.21.09.15.15.3.12.3.15.3.06.06.12.15a5.45,5.45,0,0,0,1.12,1.08.53.53,0,0,1,.3.19s0,0,.06,0,.06,0,.09,0a.66.66,0,0,0,.27.09c.12,0,.21.06.21.09s.09,0,.18,0,.18,0,.18,0,.27.09,1.27.09,1.2,0,1.2-.09.09,0,.18,0h.18a2.55,2.55,0,0,1,.57-.18s0,0,0-.06,0-.06.09-.06a.94.94,0,0,0,.31-.19,1.29,1.29,0,0,1,.27-.18,3.49,3.49,0,0,0,.6-.66,2.11,2.11,0,0,1,.21-.3,1,1,0,0,0,.09-.18c0-.06.06-.12.09-.12s0,0,0-.06,0-.09,0-.15.06-.09,0-.09,0,0,0-.06a.62.62,0,0,0,.09-.33c0-.15.06-.27.09-.27s0-.12,0-.24v-.25h-1.29c-1.48,0-1.39,0-1.51.49a1.87,1.87,0,0,1-.15.42s-.06.06-.06.09a.9.9,0,0,1-.21.27,1.34,1.34,0,0,1-2.11-.6,1,1,0,0,0-.12-.3s0-.12,0-.15,0-.1,0-.1-.06-.33,0-.33,0,0,0-.09-.09-.18-.09-.9l0-.84h5.9v-.6a2.17,2.17,0,0,0-.06-.67,1.24,1.24,0,0,1,0-.57c0-.27,0-.51,0-.48s-.06-.12-.06-.33a2.35,2.35,0,0,0-.12-.72.21.21,0,0,1,0-.19c0-.06,0-.09,0-.09s-.06-.06,0-.12,0-.12,0-.12-.06,0-.06-.09a.6.6,0,0,0-.09-.24,1.22,1.22,0,0,1-.06-.21s0-.06,0-.06-.06-.06-.09-.15-.06-.15-.09-.15a.06.06,0,0,1-.06-.06c0-.24-.93-1.11-1.3-1.23-.09,0-.18-.09-.18-.12s0,0-.06,0-.06,0-.09,0a.85.85,0,0,0-.27-.1c-.15,0-.24-.06-.21-.09s0,0-.09,0-.15,0-.21,0a10.05,10.05,0,0,0-2.11,0M76.81,40.11c0,.06.06.06.06,0s.09,0,.21.15a.5.5,0,0,1,.21.27.06.06,0,0,0,.06.06s.09.12.12.24a1.1,1.1,0,0,0,.12.31.09.09,0,0,1,0,.12s0,.09,0,.15.07.15,0,.21,0,.15,0,.15.06.09,0,.27,0,.27,0,.24a1.91,1.91,0,0,1,.06.72,24.73,24.73,0,0,1-.06,2.68s0,.15,0,.3,0,.27,0,.27-.07.06,0,.15a.2.2,0,0,1,0,.21.22.22,0,0,0-.06.13,1.89,1.89,0,0,1-.09.36,1.32,1.32,0,0,1-2.52,0,1,1,0,0,0-.12-.3s0-.09,0-.16,0-.09,0-.09-.06-.06,0-.21a.41.41,0,0,0,0-.21,12.78,12.78,0,0,1-.12-2.1,18.09,18.09,0,0,1,.12-2.29s0-.09,0-.21,0-.21,0-.21.07,0,0-.09,0-.12,0-.18l.15-.37c.06-.15.12-.27.15-.27s.06,0,.06-.09.45-.42.54-.39.06,0,.06,0,.9,0,1,.15m21.71-.06s0,0,.06,0c.21-.12.69.45.78.93a1.82,1.82,0,0,0,.12.43,1,1,0,0,1,0,.33c0,.15,0,.21,0,.21s.06.15.06.39v.39H96.53v-.54a1.32,1.32,0,0,1,.06-.54s0-.09,0-.21,0-.21.06-.21.09,0,0-.06.36-.94.75-1.15c.22-.06,1.06-.09,1.06,0M81,53.63s-.06.06-.12.06-.33.3-.33.51.24.54.39.54.12,0,.12.21-.15.43-.27.43-.06.06-.06.15.18.21.45,0a1.51,1.51,0,0,1,.24-.18s.06-.07.06-.16.06-.15.09-.15,0-.06,0-.15,0-.15,0-.15.06-.09,0-.3,0-.3,0-.33.06-.06,0-.06-.12-.06-.15-.15-.54-.39-.54-.24M40.62,55s-.09.06-.21,0-.21,0-.21,0-.06.06-.12.06a1.36,1.36,0,0,0-.54.46,2.38,2.38,0,0,0-.12.27l-.06.18s0,.15,0,.36a2,2,0,0,0,0,.36s0,.06,0,.15.66.87.75.78,0,0,0,0,.09.06.18.09c.79.15,1.24.67,1,1.18s-1.3.36-1.12-.09c0-.06,0-.09,0-.09s-.06-.09-.06-.21v-.21h-.9v.3c0,.18,0,.3.06.3s0,.06,0,.15,0,.15,0,.15.06,0,.06.09a1.11,1.11,0,0,0,.69.57l.09,0a3.43,3.43,0,0,0,1.24,0s.06-.06.09,0c.21,0,.81-.48.81-.72,0-.06,0-.09,0-.06s0-.09,0-.21,0-.24,0-.24.06,0,.06-.09,0-.09-.06-.09-.06-.12-.09-.3-.42-.79-.57-.79a1.14,1.14,0,0,1-.51-.27s0,0-.06,0c-.27.12-1-.48-1-.81a.68.68,0,0,1,.3-.45q.09,0,.09-.09s.09-.06.22-.06.21,0,.21.06.06.06.12.09.12.12.18.3l.09.27h.84l0-.21c0-.27-.3-1-.45-.93a1,1,0,0,1-.21-.1,1,1,0,0,0-.39-.09c-.09,0-.18,0-.18-.06S41,55,40.87,55s-.25,0-.25,0m25.44,0s-.09.06-.18,0-.18,0-.18,0,0,0-.09,0a1.69,1.69,0,0,0-.66.64,0,0,0,0,1,0,0s-.06.09-.06.24a.56.56,0,0,1-.06.3,8.31,8.31,0,0,0,0,2.44s0,0,0,.09c0,.27.54,1.14.66,1h0a.31.31,0,0,0,.12,0,3.68,3.68,0,0,0,1.45-.06s0-.06.09-.06a.94.94,0,0,0,.48-.48c0-.06,0-.09.06-.09s0,0,0-.06,0-.06,0-.09a.23.23,0,0,0,.06-.15.31.31,0,0,1,0-.12s0-.12,0-.27,0-.27,0-.27a2.58,2.58,0,0,0,.06-.76,2.48,2.48,0,0,0-.06-.75s0-.12,0-.27,0-.27,0-.27,0-.06,0-.15a.36.36,0,0,0,0-.15s-.09-.09-.12-.18a1,1,0,0,0-.51-.55c-.09,0-.18-.09-.18-.12s-.09,0-.18,0a.52.52,0,0,1-.24,0c-.09-.12-.52-.12-.52,0m17.16,0A.23.23,0,0,1,83,55c-.09,0-.15,0-.15,0s-.06.06-.15.09a1.19,1.19,0,0,0-.63.64A1,1,0,0,1,82,56a1.26,1.26,0,0,0,0,.45,3.58,3.58,0,0,0,0,.45s.06.06.06.15a1,1,0,0,0,.21.33c.09.09.15.21.12.24s0,0,0,0,.6.21.54.27,0,0,.09,0,.12,0,.12,0,0,.06.06,0,.09,0,.13,0a.23.23,0,0,0,.12.06c.54.06.78,1,.3,1.24s-.94,0-1-.6v-.27H81.9v.33a1.39,1.39,0,0,0,.42,1c.09.06.18.15.24.18a.23.23,0,0,0,.12.06.33.33,0,0,1,.15,0,3.57,3.57,0,0,0,1.51-.12.32.32,0,0,1,.15-.06,1.73,1.73,0,0,0,.48-.48A2.11,2.11,0,0,0,85,58a1.91,1.91,0,0,0-.63-.6,4.44,4.44,0,0,1-.87-.36c-.4-.18-.52-.36-.52-.66s.18-.57.3-.51.06,0,.06,0,.4-.06.58.09.21.33.09.33,0,.06.06.12.21.12.51.12h.39l0-.24c0-.15,0-.24,0-.24s-.06-.06-.06-.15a1.11,1.11,0,0,0-1-.7c-.06,0-.15,0-.15-.06a.51.51,0,0,0-.52-.09m5.12,0a.08.08,0,0,1-.09.09c-.15,0-.6.46-.66.7s-.09.21-.12.21-.06.06-.09,1.41a5.7,5.7,0,0,0,0,1.27.62.62,0,0,1,.06.18.88.88,0,0,0,.09.27c.12.24.12.33,0,.27s-.06,0,0,0,.06.06.12,0,.12,0,.15.09c.24.33,1.57.6,1.72.33,0,0,.06-.06.09,0s.12,0,.42-.3a1.13,1.13,0,0,0,.27-.45.72.72,0,0,1,.09-.24,2.66,2.66,0,0,0,0-.39v-.4h-1l0,.31c0,.21,0,.3,0,.3s-.06.06,0,.12,0,.12,0,.12-.06,0,0,.06-.24.3-.43.3-.51-.18-.48-.33,0-.06,0-.06-.06-.06,0-.18,0-.15,0-.15a3.91,3.91,0,0,1-.06-1.06,5.55,5.55,0,0,1,.06-1.11s0-.06,0-.12.15-.54.24-.51.06,0,.06,0,.09-.06.18-.06.52.21.46.27,0,.06,0,.09a.17.17,0,0,1,0,.18c0,.09,0,.12,0,.12s.06.09.06.18v.18h.9l0-.24c0-.15,0-.24,0-.27s-.06-.09-.06-.15c0-.33-.45-.94-.69-.94-.06,0-.09,0-.09-.06s-.09,0-.18,0-.18,0-.18,0-.09-.06-.25-.06-.24,0-.24.06-.33.06-.36,0,0,0,0,0m-59.4.34c0,.12,0,.21.06.21s0,.09,0,.21,0,.21,0,.21,0,.09,0,.18a.39.39,0,0,0,.06.24.23.23,0,0,1,0,.21c0,.09,0,.15,0,.15s.06.06,0,.21,0,.21,0,.21.06.09,0,.21,0,.21,0,.21.07.09.07.18a.39.39,0,0,0,.06.24s0,.13,0,.22,0,.15,0,.15.06.06,0,.21a.41.41,0,0,0,0,.21s.06.18.09.39a1.83,1.83,0,0,0,.09.45s0,.12,0,.18,0,.12.57.09l.6,0,0-.21c0-.12,0-.21,0-.21s0-.12,0-.24S31,59,31,59s.06-.06,0-.18a.3.3,0,0,1,0-.24,1.34,1.34,0,0,0,.09-.55,1.28,1.28,0,0,1,.09-.45s0-.09,0-.24,0-.24,0-.24.06-.06,0-.18a.35.35,0,0,1,.06-.3c.09-.12.09-.09.06.09a.41.41,0,0,0,0,.21,4.18,4.18,0,0,1,.18,1.2c0,.13,0,.22.06.22s0,.09,0,.21a.56.56,0,0,0,0,.24,1.28,1.28,0,0,1,.09.45c.06.66.06.66.7.66s.57,0,.57-.42c0-.09,0-.15.06-.15s0-.09,0-.21,0-.21,0-.21.06-.06,0-.18a.3.3,0,0,1,0-.24,1.83,1.83,0,0,0,.09-.43c0-.18.06-.36.09-.36s0-.09,0-.21,0-.21,0-.21.06-.06,0-.15a.23.23,0,0,1,0-.21.39.39,0,0,0,.06-.24c0-.12,0-.18.06-.18s0-.09,0-.21,0-.21,0-.21,0-.09,0-.18a.19.19,0,0,1,.09-.24c.06-.06.09-.09,0-.09s-.09-.21,0-.24.06-.25-.42-.25H33v.25c0,.15,0,.21-.06.18s0,.06,0,.21,0,.27,0,.27-.06.06,0,.18a.81.81,0,0,1,0,.27.72.72,0,0,0-.06.27c-.06.57-.09.75-.15.72s0,.09,0,.21,0,.27,0,.27-.06.09,0,.25a.44.44,0,0,1-.06.36c-.09.12-.09.09-.06-.09s0-.21,0-.21-.06-.1,0-.22,0-.21,0-.18-.06-.09-.06-.21a.46.46,0,0,0-.07-.3.27.27,0,0,1,0-.24c0-.12,0-.18,0-.18s-.06-.06,0-.21,0-.21,0-.21,0-.12,0-.24A.51.51,0,0,0,32,56c-.06,0-.12-.36-.12-.66v-.19h-.45c-.51,0-.63.06-.57.31a.33.33,0,0,1,0,.24.57.57,0,0,0-.06.24c0,.39-.09.66-.15.66s0,.09,0,.21a.35.35,0,0,1,0,.27.17.17,0,0,0,0,.18.33.33,0,0,1,0,.24.57.57,0,0,0-.06.24,1.28,1.28,0,0,1-.06.33,1.94,1.94,0,0,0-.06.4c-.06.36-.12.09-.15-.46,0-.12,0-.21-.06-.21s-.06-.09,0-.21,0-.21,0-.21,0-.12,0-.24a.51.51,0,0,0,0-.24c-.06,0-.12-.39-.12-.75,0-.12,0-.21-.06-.21s0-.09,0-.21,0-.21,0-.21,0-.06,0-.15,0-.16-.45-.16H29v.16m5.45,2.13v2.38h2.71v-.69l-.87,0-.9,0,0-.66,0-.67.84,0,.84,0V57H35.3l0-.57,0-.57.84,0,.84,0v-.73H34.42v2.41m8.73-2.35s0,1.09,0,2.38v2.32h1V57.72h1.14v2.11h1V55.07h-1l0,.91,0,.9H44.09l0-.9,0-.91h-.46l-.42.06m4.7.06a.2.2,0,0,0,0,.19c0,.06,0,.12,0,.12s-.06,0,0,.12a.13.13,0,0,1,0,.15.88.88,0,0,0-.09.3c0,.15-.06.27-.09.27s0,0,0,.09a.13.13,0,0,1,0,.15s-.06.09,0,.12,0,.06,0,.12a1.45,1.45,0,0,0-.12.45,1.18,1.18,0,0,1-.12.42.18.18,0,0,0,0,.12c0,.18-.09.43-.15.43s0,.06,0,.15,0,.15,0,.15-.06,0,0,.12a.13.13,0,0,1,0,.15.88.88,0,0,0-.09.3c0,.15-.06.27-.09.24s0,0,0,.12,0,.15,0,.15-.06.06-.06.15,0,.15.45.15.6,0,.57-.24,0-.15,0-.15.06-.12.09-.27l0-.27.66,0,.66,0v.15c0,.09,0,.15.06.15s.06.06,0,.15,0,.15,0,.15.07.09.07.18V60h1l0-.21a.91.91,0,0,0-.09-.27s0-.12,0-.15,0-.09,0-.09a1.81,1.81,0,0,1-.15-.72s0-.06-.06-.09a.11.11,0,0,1-.06-.15.14.14,0,0,0,0-.12s-.06-.19-.12-.4a1.45,1.45,0,0,0-.12-.45s0-.12,0-.15,0-.09,0-.09-.06-.21,0-.24,0,0,0,0-.09,0-.09-.15a.13.13,0,0,0-.06-.18c-.06,0-.06-.06,0-.15s0-.12,0-.12-.06-.06,0-.12a.14.14,0,0,0,0-.12s-.07-.12-.1-.24c-.09-.55-.09-.55-.72-.55-.42-.12-.6-.09-.66,0m2.92,2.29v2.38h1.08v-2h.24c.16,0,.25,0,.25.06s.06,0,.09,0c.27-.09.36.12.45,1,.06.57.06.81,0,.84s.18.12.63.12.42,0,.39-.09a4.36,4.36,0,0,1-.06-.9c0-.6,0-.82-.09-.82s-.06,0-.06-.09-.27-.36-.42-.39-.12,0-.09-.06,0-.06.06,0a2.19,2.19,0,0,0,.51-.48,2,2,0,0,0-.06-1.38c-.3-.46-.39-.49-1.75-.49l-1.2,0v2.38m4,0v2.38h2.71v-.69l-.87,0-.9,0,0-.66,0-.67.84,0,.84,0V57H55.59l0-.57,0-.57.84,0,.84,0v-.67L56,55.1H54.68v2.38m4.55-2.32a.06.06,0,0,0,.06.06s.06.07,0,.19,0,.18,0,.18,0,.09,0,.21,0,.21,0,.21a1.46,1.46,0,0,1,.12.6c0,.09,0,.15.06.15s0,.09,0,.21,0,.21,0,.21.06.18.09.39a1.83,1.83,0,0,0,.09.45s0,.13,0,.19a.26.26,0,0,0,0,.21.25.25,0,0,1,0,.21c0,.09,0,.15,0,.15s.06.18.09.39a1.83,1.83,0,0,0,.09.45s0,.12,0,.18,0,.12.55.09l.57,0,0-.24c0-.12,0-.24.06-.24s0-.09,0-.21,0-.21,0-.21.06-.09.06-.21a4.69,4.69,0,0,1,.18-1.21s0-.09,0-.21,0-.21,0-.21.06-.06,0-.21a.31.31,0,0,1,.06-.3c.09-.09.09-.06.06.15a.56.56,0,0,0,0,.24,1.28,1.28,0,0,1,.09.45A2.24,2.24,0,0,0,62,58a.54.54,0,0,1,0,.25.23.23,0,0,0,0,.21.32.32,0,0,1,0,.27c0,.12,0,.21,0,.18s.12.39.12.75c0,.09,0,.18.06.18s.06,0,.06.09.09.09.54.09h.55l0-.18a1.13,1.13,0,0,0,0-.3.31.31,0,0,1,0-.12s0-.09,0-.21,0-.21,0-.21.06-.06,0-.18,0-.18.06-.21.06-.09.06-.24,0-.22,0-.22,0-.09,0-.21,0-.18.06-.15.06,0,0-.12a.32.32,0,0,1,0-.24.35.35,0,0,0,.06-.21,1.92,1.92,0,0,1,.12-.63s0-.09,0-.21,0-.21,0-.21,0-.06,0-.12,0-.15,0-.21a.57.57,0,0,0,.06-.24.72.72,0,0,1,.06-.27c0-.13,0-.13-.45-.13h-.49l0,.46a1.28,1.28,0,0,1-.09.45s0,.09,0,.18a.81.81,0,0,1,0,.27.72.72,0,0,0-.06.27c-.06.6-.09.75-.12.72s0,.09,0,.21S63,58,63,58s-.06.12-.06.28a.58.58,0,0,1-.09.36c-.06.06-.06,0,0-.15s0-.21,0-.21-.06-.06,0-.22,0-.21,0-.21a1.85,1.85,0,0,1-.12-.69.72.72,0,0,0-.06-.27.33.33,0,0,1,0-.24c0-.09,0-.15,0-.15s-.06-.09,0-.24,0-.24,0-.24-.12-.36-.12-.69V55.1h-.45c-.54,0-.6.06-.57.37,0,.15,0,.21,0,.21s-.06.06,0,.18a.27.27,0,0,1,0,.24.39.39,0,0,0-.06.24c0,.12,0,.24-.09.27s-.06.06,0,.06.06,0,.06.15,0,.21-.06.21,0,.06,0,.18a.3.3,0,0,1,0,.24.2.2,0,0,0,0,.18.44.44,0,0,1,0,.27c0,.09-.06.31-.09.46s-.09.3-.12.06a2.29,2.29,0,0,0-.06-.4,2,2,0,0,1,0-.45c0-.12,0-.21-.06-.21s0-.12,0-.24,0-.24,0-.24-.06-.09-.06-.18,0-.15.06-.12,0,0-.06-.12a.32.32,0,0,1-.09-.3.17.17,0,0,0,0-.18.32.32,0,0,1,0-.27c0-.12,0-.21,0-.21s-.06-.06-.06-.15,0-.16-.48-.16c-.27-.09-.48-.06-.48,0m9.48,2.32v2.38h.91V58.33c0-1.36,0-1.54.09-1.54s.09,0,.06.18,0,.18,0,.18.09.18.12.48a.56.56,0,0,0,.06.21A.19.19,0,0,1,70,58c0,.06,0,.09,0,.09s.06.13.09.31a2.57,2.57,0,0,0,.09.39.19.19,0,0,1,0,.18c-.06.06-.06.09,0,.09s.09,0,.06.18,0,.18,0,.18,0,.06,0,.18,0,.15,0,.15.06,0,.06.06.09.09.42.09.42,0,.39-.15a.13.13,0,0,1,.06-.18c.09,0,.09-.06,0-.09s-.06-.06,0-.15a.71.71,0,0,0,.06-.24.61.61,0,0,1,0-.15s.06-.12.06-.3,0-.3.06-.3,0-.09,0-.15a.2.2,0,0,1,0-.19.35.35,0,0,0,.06-.21c0-.09,0-.15.06-.12s0,0,0-.15,0-.18,0-.18.06-.06,0-.18,0-.18,0-.18.06-.06.06-.12a1,1,0,0,1,.13-.57c.09-.15.09-.27.06,1.8v1.78h.84V55.13h-.69c-.67,0-.7,0-.7.12s0,.13-.06.13,0,.09,0,.18,0,.18,0,.18-.06.06,0,.15a.23.23,0,0,1,0,.21,1.47,1.47,0,0,0-.09.39c0,.18-.06.33-.09.33s0,.09,0,.18,0,.18,0,.18-.06.06,0,.15a.23.23,0,0,1,0,.21.8.8,0,0,0-.09.39c0,.19-.06.34-.09.34s0,.06,0,.15,0,.15-.06,0a.32.32,0,0,1-.09-.21.56.56,0,0,0,0-.22.19.19,0,0,1,0-.18c0-.06,0-.09,0-.09s-.06-.15-.09-.36-.06-.39-.09-.39,0-.09,0-.18,0-.12,0-.12-.06-.06,0-.18,0-.18,0-.18a1.81,1.81,0,0,1-.12-.57.32.32,0,0,0-.06-.18.18.18,0,0,1,0-.18c0-.16-.06-.19-.78-.19h-.64v2.26m5.06-.15c0,1.24,0,2.29,0,2.38l0,.12h2.71v-.66l-.87,0-.88,0,0-.66,0-.67.82,0,.81,0V57H74.61V55.8H76.3v-.73H73.71l.06,2.26m3.28.15v2.38H78V58.21c0-1.42,0-1.63.09-1.57a.23.23,0,0,1,.06.15s0,.09,0,.12,0,.06,0,.12-.06.09,0,.06.09,0,.06.09,0,.09,0,.09.06.09.09.18a2.83,2.83,0,0,0,.09.27c0,.06,0,.09,0,.12s-.06.06,0,.06.12.09.15.28a1,1,0,0,0,.12.33.18.18,0,0,1,0,.12,0,0,0,0,0,0,.06,2.07,2.07,0,0,1,.21.57s0,.06.06.09a.09.09,0,0,1,0,.12s0,.06,0,.06.06.06,0,.12,0,.09,0,.09.06,0,.06.06.09.09.6.09h.6V55.13h-.9v1.6a9.7,9.7,0,0,1-.06,1.6.1.1,0,0,1-.06,0c0-.25-.06-.4-.12-.4s-.09-.15-.12-.33-.09-.3-.12-.3a1.07,1.07,0,0,1-.15-.39,1.07,1.07,0,0,0-.15-.39s0-.06,0-.12,0-.12,0-.12-.06-.09-.09-.18-.09-.27-.15-.42a2.88,2.88,0,0,1-.15-.4l0-.15H77v2.38m15-2.1c0,.15-.06.27-.09.27s0,.06,0,.12,0,.12,0,.12,0,.06,0,.12a.18.18,0,0,1,0,.18.59.59,0,0,0-.09.3c0,.12-.06.24-.09.24s0,.06,0,.15,0,.15,0,.15-.06,0,0,.09a.13.13,0,0,1,0,.15,1.22,1.22,0,0,0-.09.3c0,.12-.06.24-.09.24s0,.06,0,.15,0,.15,0,.15,0,.07,0,.13a.22.22,0,0,1,0,.15.25.25,0,0,0-.06.18c0,.09,0,.12-.06.12s0,0,0,.12,0,.15,0,.15,0,.06,0,.15,0,.15,0,.15-.06,0,0,.12a.13.13,0,0,1,0,.15.25.25,0,0,0-.06.18c0,.09,0,.15-.06.15s0,0,0,.06a1.58,1.58,0,0,0,.54.06h.51l0-.27c0-.15.07-.27.1-.27s0-.06,0-.09c-.1-.27,0-.3.69-.3h.63l0,.21a1.86,1.86,0,0,0,.09.3.45.45,0,0,1,0,.18c0,.06,0,.09,0,.09s.06,0,.06.09.09.09.51.09.48,0,.45-.06-.06-.09-.06-.18,0-.12,0-.12-.06-.06,0-.15a.21.21,0,0,0,0-.15c-.06,0-.12-.33-.12-.45a.06.06,0,0,0-.06-.06s-.06-.06,0-.15,0-.15,0-.15,0-.06,0-.15,0-.15,0-.15-.06-.06-.06-.16,0-.15-.06-.15-.06-.06,0-.12a.13.13,0,0,0,0-.15,1.18,1.18,0,0,1-.12-.42,1.45,1.45,0,0,0-.12-.45.13.13,0,0,1,0-.15c0-.06,0-.09,0-.09a.79.79,0,0,1-.12-.39,1.45,1.45,0,0,0-.12-.45.13.13,0,0,1,0-.15c0-.06,0-.09,0-.09s-.06-.06,0-.15,0-.13,0-.13-.06,0-.06,0-.21-.06-.6-.06h-.6l0,.28m3-.25s0,1.09,0,2.38v2.32h1l0-1,0-1,.27,0c.18,0,.27,0,.27.06s.06.06.12,0,.39.21.36.37a.06.06,0,0,0,0,.09c.06,0,.06.15,0,.66a2.63,2.63,0,0,0,0,.66s.06.06.06.12,0,.12.52.12.6-.06.45-.15,0-.09,0-.18,0-.15,0-.15a2,2,0,0,1,0-1s0-.06,0-.09a.58.58,0,0,1-.12-.25.64.64,0,0,0-.43-.42.28.28,0,0,1-.18-.12c0-.06,0-.06.06,0,.22.09.61-.42.61-.81,0-.09,0-.18.06-.18s.06-.06.06-.15,0-.15-.06-.15S98,56.13,98,56a1,1,0,0,0-.27-.63,2.29,2.29,0,0,1-.28-.16,8.47,8.47,0,0,0-2.43-.12m3.82,2.35v2.38h2.71v-.69l-.87,0-.88,0,0-.66,0-.67.82,0,.81,0,0-.42,0-.42-.81,0-.82,0,0-.57,0-.57.88,0,.9,0V55H98.79v2.47M66.52,55.74s0,.06.06,0,.3.24.3.36,0,.06-.06,0l.06.06c.12.09.12.15.09.3a.27.27,0,0,0,0,.24,3.92,3.92,0,0,1,0,1.45s-.06.09,0,.24,0,.27,0,.27a.23.23,0,0,0-.06.15c0,.06,0,.09-.06.09s-.06,0,0,.06c0,.27-.7.3-.88.06-.06-.06-.09-.15-.06-.18s0-.06,0-.06-.06-.06,0-.12a.14.14,0,0,0,0-.12,7.92,7.92,0,0,1,0-1.15c0-.63,0-1.14,0-1.14s0-.06,0-.15.3-.54.58-.54c.06.06.15.09.15.12m-14.06.09c.09,0,.15.06.15.09s0,0,.06,0,.3.39.3.57a.66.66,0,0,1-.81.66l-.34,0V55.83H52a1,1,0,0,1,.43,0m44.28,0c.3.09.36.24.36.66s-.18.66-.72.66H96V55.77h.27c.12,0,.33,0,.45.06m-48.2.24a.13.13,0,0,0,0,.15.23.23,0,0,1,.06.15c0,.06,0,.18,0,.21a.19.19,0,0,1,0,.18c0,.06,0,.09,0,.09s.06.15.09.33a1.47,1.47,0,0,0,.09.39s0,.12,0,.18,0,.12,0,.12.06.06.06.12,0,.12-.45.12-.45,0-.45-.09a7,7,0,0,1,.15-.84.51.51,0,0,0,0-.21c0-.06,0-.15.06-.15a.23.23,0,0,0,.06-.15c0-.21.12-.66.18-.66s0,0,0,.06m44.23.15c0,.09,0,.18,0,.15s0,.06,0,.15a.35.35,0,0,0,.06.21.17.17,0,0,1,0,.18c0,.06,0,.15,0,.18s0,.09,0,.18,0,.12,0,.12.06.06,0,.18,0,.18,0,.18.06.09.06.21l0,.22h-.48c-.39,0-.48,0-.48-.1s0-.09.06-.09,0,0,0-.09,0-.12,0-.18a.56.56,0,0,0,.06-.21c.06-.42.09-.54.12-.51s0-.06,0-.15,0-.18,0-.18.06-.06,0-.18,0-.18,0-.18.06,0,0-.12,0-.24.09-.18.06.09.06.21m-23.15.15c-.06.06-.06,0-.06-.06s0-.12.06-.06.06.06,0,.12m.09.27c0,.06,0,.12-.06.12s-.06-.06-.06-.15,0-.12.06-.12.06.09.06.15"/>
  </g>
</svg>
