<svg id="novo_nordisk" data-name="novo nordisk" xmlns="http://www.w3.org/2000/svg" width="110" height="92" viewBox="0 0 110 92">
  <defs>
    <style>
      .cls-1 {
        fill: #fff;
      }

      .cls-2 {
        fill: #8d8d8d;
      }
    </style>
  </defs>
  <title>novo_nordisk</title>
  <path class="cls-1" d="M52,71.63V67.52c0-.7,0-2-2.4-2a5.71,5.71,0,0,0-1.86.29c-.41.13-.54.28-.54.49v5.31c0,.2.06.23.23.23H48c.16,0,.25,0,.25-.24V66.76c0-.28.45-.55,1.29-.55,1.39,0,1.39.89,1.39,1.45v4c0,.22.07.24.26.24h.66c.13,0,.14-.15.14-.25"/>
  <path class="cls-1" d="M58.32,68.8A3.17,3.17,0,0,0,57.18,66a2.75,2.75,0,0,0-1.55-.44,2.72,2.72,0,0,0-1.54.44A3.17,3.17,0,0,0,53,68.8a3.18,3.18,0,0,0,1.14,2.8,2.74,2.74,0,0,0,1.54.44,2.83,2.83,0,0,0,1.55-.44,3.17,3.17,0,0,0,1.14-2.8m-1.1,0A3.13,3.13,0,0,1,56.66,71a1.57,1.57,0,0,1-2.07,0A3,3,0,0,1,54,68.8a3.12,3.12,0,0,1,.56-2.17,1.57,1.57,0,0,1,2.07,0,3.09,3.09,0,0,1,.56,2.17"/>
  <path class="cls-1" d="M62.56,66.17c0-.43-.73-.62-1.55-.62a4.91,4.91,0,0,0-1.36.19c-.41.11-.55.29-.55.49v5.43c0,.19.07.2.24.2H60c.14,0,.22,0,.22-.2v-5a.55.55,0,0,1,.61-.54c.76,0,.88.56,1.29.56a.47.47,0,0,0,.49-.53"/>
  <path class="cls-1" d="M67.8,71.21V63.73c0-.21-.06-.24-.24-.24H67c-.2,0-.22.07-.22.26v2.16a2.63,2.63,0,0,0-1.3-.32,3,3,0,0,0-2.79,3.22c0,2.17,1.2,3.24,3,3.24.89,0,2.13-.45,2.13-.84m-1-.35c0,.31-.5.48-1,.48-1.15,0-2-1-2-2.62,0-1.44.79-2.41,1.88-2.41a1.57,1.57,0,0,1,1.14.38v4.17Z"/>
  <path class="cls-1" d="M70.38,64a.61.61,0,0,0-.63-.6.62.62,0,0,0-.66.63.61.61,0,0,0,.64.62.62.62,0,0,0,.65-.65m-.12,7.67V65.92c0-.19-.05-.23-.24-.23H69.4c-.2,0-.2.07-.2.23v5.73c0,.17,0,.21.18.21H70c.19,0,.24,0,.24-.21"/>
  <path class="cls-1" d="M80.83,71.73c0-.06,0-.09-.08-.16l-2.26-3h0a7.39,7.39,0,0,0,2.12-2.51.47.47,0,0,0,.07-.24c0-.11-.06-.13-.21-.13H79.9c-.21,0-.31,0-.37.18a5.17,5.17,0,0,1-2.11,2.64.18.18,0,0,0,0,.07.11.11,0,0,0,0,.06l2.12,3c.12.18.17.18.36.18h.81s.15,0,.15-.14m-3.63,0V63.63c0-.17-.08-.17-.23-.17h-.63c-.13,0-.2,0-.2.19v8c0,.17,0,.19.2.19H77c.17,0,.23,0,.23-.18"/>
  <path class="cls-1" d="M75.3,70.2c0-2-2.93-1.69-2.93-3a1,1,0,0,1,1-.92c.69,0,.87.45,1.23.45a.41.41,0,0,0,.43-.42c0-.45-.77-.71-1.59-.71-1.08,0-2,.58-2,1.69s.72,1.46,1.59,1.83c.69.29,1.33.55,1.33,1.21a1.1,1.1,0,0,1-1.22,1.05c-.83,0-1.07-.62-1.48-.62-.2,0-.45.08-.45.39,0,.49,1,.91,1.92.91A2,2,0,0,0,75.3,70.2"/>
  <path class="cls-1" d="M26.56,71.63V67.52c0-.7,0-2-2.41-2a5.77,5.77,0,0,0-1.86.29c-.41.13-.53.28-.53.49v5.31c0,.2.06.23.22.23h.58c.17,0,.25,0,.25-.24V66.76c0-.28.45-.55,1.28-.55,1.39,0,1.39.89,1.39,1.45v4c0,.22.07.24.26.24h.66c.15,0,.16-.15.16-.25"/>
  <path class="cls-1" d="M32.86,68.8A3.17,3.17,0,0,0,31.72,66a3,3,0,0,0-3.1,0,3.17,3.17,0,0,0-1.14,2.81,3.18,3.18,0,0,0,1.14,2.8,2.75,2.75,0,0,0,1.55.44,2.83,2.83,0,0,0,1.55-.44,3.17,3.17,0,0,0,1.14-2.8m-1.09,0A3.13,3.13,0,0,1,31.21,71a1.32,1.32,0,0,1-1,.39,1.35,1.35,0,0,1-1-.39,3.09,3.09,0,0,1-.56-2.16,3.12,3.12,0,0,1,.56-2.17,1.58,1.58,0,0,1,2.08,0,3.14,3.14,0,0,1,.56,2.17"/>
  <path class="cls-1" d="M43.74,68.8A3.17,3.17,0,0,0,42.6,66a3,3,0,0,0-3.1,0,3.17,3.17,0,0,0-1.14,2.81,3.18,3.18,0,0,0,1.14,2.8,2.75,2.75,0,0,0,1.55.44,2.83,2.83,0,0,0,1.55-.44,3.17,3.17,0,0,0,1.14-2.8m-1.1,0A3.13,3.13,0,0,1,42.08,71,1.58,1.58,0,0,1,40,71a3.09,3.09,0,0,1-.56-2.16A3.07,3.07,0,0,1,40,66.63a1.58,1.58,0,0,1,2.08,0,3.09,3.09,0,0,1,.56,2.17"/>
  <path class="cls-1" d="M38.26,65.82c0-.12-.1-.12-.16-.12h-.59c-.08,0-.11,0-.14.17l-1.55,4.54L34.21,65.9c-.06-.17-.08-.19-.26-.19h-.72s-.17,0-.17.14a.41.41,0,0,0,0,.17l2.15,5.67c.06.14.08.18.18.19h.47c.14,0,.17,0,.23-.18L38.22,66a.85.85,0,0,0,0-.2"/>
  <path class="cls-1" d="M81.72,61.69h.38c.2,0,.52,0,.52.31s-.34.31-.5.31h-.4Zm-.34,1.77h.33v-.87h.2c.27,0,.36.1.61.55l.18.32h.4l-.25-.4c-.26-.41-.36-.47-.48-.52h0A.57.57,0,0,0,83,62a.53.53,0,0,0-.2-.41,1,1,0,0,0-.68-.15h-.71v2.06Zm.84-3a1.91,1.91,0,1,0,1.91,1.91,1.9,1.9,0,0,0-1.91-1.91m0,.32a1.59,1.59,0,1,1-1.59,1.59,1.6,1.6,0,0,1,1.59-1.59"/>
  <path class="cls-1" d="M41.36,27.41a4.82,4.82,0,1,0,4.82,4.82A4.82,4.82,0,0,0,41.36,27.41Zm.19,7.49a3.24,3.24,0,1,1,3.24-3.24A3.23,3.23,0,0,1,41.55,34.9Z"/>
  <path class="cls-2" d="M59.32,43.58a4.71,4.71,0,0,1,1,2.06c.07.43.66.27.73-.14a3,3,0,0,0-.53-2.13,1,1,0,0,0-1-.28c-.38.07-.49.16-.19.49"/>
  <g>
    <path class="cls-1" d="M37.23,41c.47.79,1.39-.52,1.31-.76S36.77,40.18,37.23,41Z"/>
    <path class="cls-1" d="M65.88,52.47c0-1.25.16-6.75-.82-8.51-1.17-2.11-3.53-1.9-4.61-1.81-1.45.12-4,.48-6.76.49a30.29,30.29,0,0,1-8.52-1.57,19.61,19.61,0,0,1-2.7-1c-.57-.27-.28-.38,0-.51a6.74,6.74,0,0,0,2.94-2.34c.5-.8.31-1.06-.24-.61a5.13,5.13,0,0,1-.61.46A5.87,5.87,0,0,1,35.67,34c-.2-.57-.5-.61-.5.23A5.84,5.84,0,0,0,36.42,38c.32.36.46.72.29.93a7,7,0,0,0-1,1.4,3.55,3.55,0,0,0,0,.46c-.07.47-.55,1-1.13,1.68a.87.87,0,0,0,.15,1.17,10.9,10.9,0,0,0,.84.93c.5.28.88.08,1.33.22A2.39,2.39,0,0,1,38.47,46a25.8,25.8,0,0,0,2.71,4.64A4,4,0,0,1,41.76,53c0,3.64-1.88,7-3.1,9.21-.29.52-.23.95.16.95s1,0,1.92,0c.8,0,.46-.46.63-.75s.56.06.62-.68c0-.12,0-.23.09-.71.42-3,1.86-7.37,2.76-7.94a7.21,7.21,0,0,1,3.39,5.23,9.06,9.06,0,0,1,.14,2.45,9.57,9.57,0,0,1-.24,1.45c-.25.79-.05,1,.33.95h2c.8,0,.4-.49.59-.73s.46-.06.4-.52c-.5-2.58-1.81-4.77-2.4-7.33a2.62,2.62,0,0,1,1.6-3.23,6.41,6.41,0,0,1,3.71.43c.24.14.26.2.45,0,1.65-1.35,2.41-.69,2.45-.65a3.57,3.57,0,0,1,.33,1.33c.23,4.5-4.35,8.83-5.15,9.81-.36.44-.16.87.2.87h2.12c.77,0,.37-.47.56-.71s.36,0,.49-.36a15.85,15.85,0,0,1,4.48-6.87c.23-.19.45-.65.64-1.69a9.25,9.25,0,0,1,.27-1c1.47,1.91,1.65,5.33-.84,9.83-.26.47-.1.83.2.83s1.54,0,2,0c.61,0,.51-.33.51-.6s0-.35.47-.35h.68c.16,0,1,0,1.3,0s.35-.37.36-.8C65.88,60.71,65.91,53.37,65.88,52.47ZM51.5,43.31c1,0,1.45.1,2,.09s1.56,0,1.88-.06a1,1,0,0,1,1.13.57c.18.44.83,2.24-.24,2.74a7.37,7.37,0,0,1-4.37.44c-.37-.11-1-.25-1-1A16.44,16.44,0,0,0,50.91,44C50.85,43.59,50.77,43.27,51.5,43.31Zm-4.34-.1c0-.47.05-.49.64-.39s.59.26.6.62c0,1.47-.35,2.43-.86,2.71-.28.15-.63.08-.64-.21A9.68,9.68,0,0,0,47.16,43.21Zm-7.33,3.36a6.61,6.61,0,0,0-1.51-2c-1.13-.89-2.14-.34-2.58-.87S35,43,35.39,42.46s.55-.75.7-.94.17-.83.25-1.06a4.3,4.3,0,0,1,1.15-1.39c.58-.47,1.36,0,2.91.91.85.5,1.72,1,2.13,1.2s.12.74-.12,1.1a28.26,28.26,0,0,0-2,3.92C40.23,46.73,40.08,47,39.83,46.57ZM63.19,48c0,.48-.24,1.52-.34,2-.43,2-1.47,1.19-1.79,1a8.2,8.2,0,0,0-3.74-1.27c-3.34-.31-5.21-.09-6.2.25a3.72,3.72,0,0,0-2.84,3.37c0,.76-.23.69-.58.42A40,40,0,0,0,43.5,51a5.51,5.51,0,0,1-1.78-1.61,3.82,3.82,0,0,1-.34-3.55,15.84,15.84,0,0,1,1.46-2.91c.81-1.19.72-1.2,2.28-.7,1.4.45,1.32.62,1.34,1.31A9.66,9.66,0,0,1,46.18,46a.75.75,0,0,0,.72.94c2.2.06,2.24-3,2.24-3,0-.71-.22-.85.48-.79.53.05.62.5.7,1.3,0,.29,0,1.44,0,1.76a1.35,1.35,0,0,0,1.11,1.42,8.26,8.26,0,0,0,5.28-.5,1.51,1.51,0,0,0,.9-1.61,8.1,8.1,0,0,0-.35-1.73c-.13-.33-.11-.56.17-.6,1.34-.18,1.94,1.21,2.4,2.92.15.55.91.52,1.3.14a2,2,0,0,0,.33-2,3.4,3.4,0,0,0-.32-.82c-.1-.16-.12-.31.24-.31C63.84,43.1,63.22,47.64,63.19,48Zm1.54,5.41a.2.2,0,0,1-.36.13,26.47,26.47,0,0,1-.68-3.2A8.22,8.22,0,0,1,63.87,48,24.2,24.2,0,0,0,64,45.55c0-.36.25-.33.44.17C65,47.23,64.73,53.31,64.73,53.43Z"/>
  </g>
</svg>
