<svg id="øjenlægeforeningen" xmlns="http://www.w3.org/2000/svg" width="110" height="92" viewBox="0 0 110 92">
  <defs>
    <style>
      .cls-1 {
        fill: #fff;
      }
    </style>
  </defs>
  <title>oejenlaegeforeningen</title>
  <g>
    <g>
      <path class="cls-1" d="M9.08,54.32a8,8,0,1,0-8-8.09,8.05,8.05,0,0,0,8,8.09"/>
      <path class="cls-1" d="M6.2,53.77a7.81,7.81,0,0,0,2.88.55,8,8,0,0,0,8.1-8,8.25,8.25,0,0,0-.55-3C16.58,43.3,6.15,53.77,6.2,53.77"/>
      <path class="cls-1" d="M15.74,42.65a7.76,7.76,0,0,1-6.66,3.67,7.74,7.74,0,0,1-6.65-3.67h0a7.51,7.51,0,0,1,6.65-4,7.41,7.41,0,0,1,6.66,4M2,42.75a7.38,7.38,0,0,0,3,3,8.47,8.47,0,0,0,4.07,1,9.07,9.07,0,0,0,4.07-1,7.26,7.26,0,0,0,3-3l.05-.1-.05-.1A8,8,0,0,0,9,38.23a8,8,0,0,0-7.15,4.32l.05.1Z"/>
      <path class="cls-1" d="M9.08,46.08a3.58,3.58,0,0,0,1.44-6.86L9.88,40l-.8-.9-.79.9-.65-.75a3.58,3.58,0,0,0,1.44,6.86"/>
      <path class="cls-1" d="M8.69,50.45,5.61,53.52A8.1,8.1,0,0,1,1,46.23a7.56,7.56,0,0,1,.55-2.84Z"/>
    </g>
    <polygon class="cls-1" points="9.08 50.1 9.43 49.75 9.43 47.02 8.74 47.02 8.74 49.75 9.08 50.1"/>
    <g>
      <path class="cls-1" d="M30,46.23a4.64,4.64,0,0,1-.65,2.68,2.19,2.19,0,0,1-1.93.94,1.83,1.83,0,0,1-1.25-.45l3.48-5.31A5.49,5.49,0,0,1,30,46.23M27.41,51a3.56,3.56,0,0,0,2.88-1.24,5.3,5.3,0,0,0,1-3.48A5.46,5.46,0,0,0,30.39,43l.94-1.39H30l-.4.59a4,4,0,0,0-2.23-.59A3.18,3.18,0,0,0,24.72,43a5.48,5.48,0,0,0-1,3.28,5.78,5.78,0,0,0,1,3.47l-1,1.29h1.34l.4-.54a3.74,3.74,0,0,0,1.94.54m-1.89-2.43a5.57,5.57,0,0,1-.45-2.33,4.54,4.54,0,0,1,.6-2.54,1.92,1.92,0,0,1,1.74-.94,2.35,2.35,0,0,1,1.59.5Z"/>
      <path class="cls-1" d="M31.63,53.43v-1A2.85,2.85,0,0,0,33.32,52a1.47,1.47,0,0,0,.44-1.19V45.18H32.42v-1H34.9v6.55a2.48,2.48,0,0,1-.79,2,3.7,3.7,0,0,1-2.48.65m2.58-11.77a.75.75,0,0,1,.55.2.63.63,0,0,1,.19.49.79.79,0,0,1-.19.55.68.68,0,0,1-.55.2.58.58,0,0,1-.5-.2.68.68,0,0,1-.2-.55c0-.25.05-.4.2-.49a.76.76,0,0,1,.5-.2"/>
      <path class="cls-1" d="M42.6,46.92a2.66,2.66,0,0,0-.79-2,3,3,0,0,0-2.24-.79,3,3,0,0,0-2.13.89,3.6,3.6,0,0,0-1,2.64,3.44,3.44,0,0,0,1,2.53,3.05,3.05,0,0,0,2.13.84,5.3,5.3,0,0,0,1.59-.25,2.24,2.24,0,0,0,.85-.49l-.5-.85a2.41,2.41,0,0,1-1.69.6,2,2,0,0,1-1.44-.55,2.23,2.23,0,0,1-.65-1.78H42.5a3.86,3.86,0,0,0,.1-.75M41,45.58a1.6,1.6,0,0,1,.45,1.19H37.73a1.72,1.72,0,0,1,.6-1.19,1.8,1.8,0,0,1,1.34-.5,1.75,1.75,0,0,1,1.29.5"/>
      <path class="cls-1" d="M47.82,50.84V47a2.77,2.77,0,0,0-.3-1.49,1.21,1.21,0,0,0-1.1-.45,2,2,0,0,0-.84.25,1.92,1.92,0,0,0-.69.6v4.91h-1.2v-6.6h.8l.4.84a2.08,2.08,0,0,1,1.88-1c1.44,0,2.19.89,2.19,2.63v4.12H47.82Z"/>
      <path class="cls-1" d="M54.12,42.5a1.57,1.57,0,0,0-.64-.1,1.25,1.25,0,0,0-.9.4,1.38,1.38,0,0,0-.35,1v.35h1.35v1H52.23v5.61H51V45.18H50.1v-1H51a2.83,2.83,0,0,1,.65-2,2,2,0,0,1,1.64-.74,3,3,0,0,1,1.09.2Z"/>
      <path class="cls-1" d="M55.41,50a2.78,2.78,0,0,0,2.24.94A2.66,2.66,0,0,0,59.83,50a3.59,3.59,0,0,0,.8-2.53,3.6,3.6,0,0,0-.8-2.54A2.88,2.88,0,0,0,57.6,44a2.74,2.74,0,0,0-2.19.94,3.71,3.71,0,0,0-.84,2.49A4.22,4.22,0,0,0,55.41,50m1-4.32A1.44,1.44,0,0,1,57.65,45c1.19,0,1.74.8,1.74,2.44a3.31,3.31,0,0,1-.45,1.83,1.46,1.46,0,0,1-1.29.65c-1.19,0-1.79-.84-1.79-2.48a3.61,3.61,0,0,1,.5-1.79"/>
      <path class="cls-1" d="M65.39,45.33a1.14,1.14,0,0,0-.79-.25,1.35,1.35,0,0,0-1.09.6,2.21,2.21,0,0,0-.45,1.39v3.77H61.87V44.19h1.19v1.09A2.05,2.05,0,0,1,65,44.09c.2,0,.49,0,.89.1Z"/>
      <path class="cls-1" d="M72.05,46.92a2.63,2.63,0,0,0-.8-2,3.26,3.26,0,0,0-4.37.1,3.63,3.63,0,0,0-1,2.64,3.47,3.47,0,0,0,1,2.53A3.08,3.08,0,0,0,69,51a5.35,5.35,0,0,0,1.59-.25,2.27,2.27,0,0,0,.84-.49L71,49.4a2.38,2.38,0,0,1-1.68.6,2,2,0,0,1-1.44-.55,2.23,2.23,0,0,1-.65-1.78H72a1.94,1.94,0,0,0,.1-.75m-1.59-1.34a1.6,1.6,0,0,1,.45,1.19H67.23a1.72,1.72,0,0,1,.6-1.19,2,2,0,0,1,2.63,0"/>
      <path class="cls-1" d="M77.26,50.84V47a2.77,2.77,0,0,0-.3-1.49A1.25,1.25,0,0,0,75.87,45a2,2,0,0,0-.84.25,2,2,0,0,0-.7.6v4.91H73.14v-6.6h.79l.4.84a2.1,2.1,0,0,1,1.89-1c1.44,0,2.18.89,2.18,2.63v4.12H77.26Z"/>
      <path class="cls-1" d="M80.59,50.84V45.18h-.9v-1h2.09v6.65Zm.64-9.18a.75.75,0,0,1,.55.2.61.61,0,0,1,.2.49.75.75,0,0,1-.2.55.68.68,0,0,1-.55.2.57.57,0,0,1-.49-.2.68.68,0,0,1-.2-.55c0-.25,0-.4.2-.49a.76.76,0,0,1,.49-.2"/>
      <path class="cls-1" d="M87.59,50.84V47a2.77,2.77,0,0,0-.3-1.49A1.25,1.25,0,0,0,86.2,45a2,2,0,0,0-.84.25,2,2,0,0,0-.7.6v4.91H83.47v-6.6h.79l.4.84a2.1,2.1,0,0,1,1.89-1c1.44,0,2.18.89,2.18,2.63v4.12H87.59Z"/>
      <path class="cls-1" d="M91.46,53.18a4.86,4.86,0,0,0,1.34.25,3.81,3.81,0,0,0,2.09-.55,1.74,1.74,0,0,0,.84-1.49,1.66,1.66,0,0,0-.54-1.29,2.37,2.37,0,0,0-1.54-.45c-.2,0-.45.05-.85.1s-.64.1-.84.1c-.4,0-.6-.1-.6-.25s.1-.2.3-.3a2.32,2.32,0,0,0,.45-.15l1-.09a2.35,2.35,0,0,0,1.64-.8,2.54,2.54,0,0,0,.65-1.69A2.47,2.47,0,0,0,94.94,45l.69-.54-.79-.75-.6.7A2.67,2.67,0,0,0,92.7,44a2.57,2.57,0,0,0-1.78.7,2.23,2.23,0,0,0-.75,1.73,2.31,2.31,0,0,0,1.39,2.29,2.33,2.33,0,0,0-.84.39,1,1,0,0,0-.35.6c0,.7.45,1,1.39,1a6.85,6.85,0,0,0,.8-.1c.34,0,.59-.1.69-.1.8,0,1.19.25,1.19.8a.85.85,0,0,1-.44.69,2.33,2.33,0,0,1-1.25.25,3.57,3.57,0,0,1-1.88-.69l-.65.94a4.92,4.92,0,0,0,1.24.6m2.34-7.75a1.6,1.6,0,0,1,.39,1,1.72,1.72,0,0,1-.34,1.15,1.35,1.35,0,0,1-2,0,1.78,1.78,0,0,1-.4-1.15,1.61,1.61,0,0,1,.4-1,1.25,1.25,0,0,1,1-.45,1.69,1.69,0,0,1,1,.45"/>
      <path class="cls-1" d="M102.73,46.92a2.62,2.62,0,0,0-.79-2,3,3,0,0,0-2.23-.79,3,3,0,0,0-2.14.89,3.63,3.63,0,0,0-1,2.64,3.47,3.47,0,0,0,1,2.53,3.08,3.08,0,0,0,2.14.84,5.23,5.23,0,0,0,1.58-.25,2.24,2.24,0,0,0,.85-.49l-.5-.85A2.39,2.39,0,0,1,100,50a2,2,0,0,1-1.44-.55,2.26,2.26,0,0,1-.64-1.78h4.77a2.15,2.15,0,0,0,.09-.75m-1.58-1.34a1.63,1.63,0,0,1,.44,1.19H97.87a1.75,1.75,0,0,1,.59-1.19,2.06,2.06,0,0,1,2.69,0"/>
      <path class="cls-1" d="M107.75,50.84V47a2.77,2.77,0,0,0-.3-1.49,1.19,1.19,0,0,0-1.09-.45,2,2,0,0,0-.84.25,2,2,0,0,0-.7.6v4.91h-1.19v-6.6h.79l.35.84a2.1,2.1,0,0,1,1.89-1c1.44,0,2.18.89,2.18,2.63v4.12h-1.09Z"/>
    </g>
  </g>
</svg>
