<svg id="tandlægeforeningen" xmlns="http://www.w3.org/2000/svg" width="110" height="92" viewBox="0 0 110 92">
  <defs>
    <style>
      .cls-1 {
        fill: #fff;
      }
    </style>
  </defs>
  <title>tandlaegeforeningen</title>
  <path class="cls-1" d="M13.6,39.61a.6.6,0,0,0,.61.61h.29a.62.62,0,0,0,.61-.61V31.92H17.8a.59.59,0,0,0,.61-.57v-.23a.59.59,0,0,0-.63-.57H10.91a.59.59,0,0,0-.62.57v.23a.59.59,0,0,0,.64.57H13.6v7.69Z"/>
  <path class="cls-1" d="M23.14,40.28h.31c1.55,0,2.49-.9,3.16-.9.16,0,.24,0,.37.21l.2.34a.56.56,0,0,0,.45.29h.28a.49.49,0,0,0,.49-.51V32.8a2.33,2.33,0,0,0-2.3-2.25H21.94a.58.58,0,0,0-.61.57v.23a.59.59,0,0,0,.63.57h3.61a1.19,1.19,0,0,1,1.32,1.3v1.43c0,.2-.12.37-.28.37-.67,0-1.61-.94-3.16-.94h-.31a2.36,2.36,0,0,0-2.63,2.41v1.38A2.36,2.36,0,0,0,23.14,40.28ZM22,36.55a1.05,1.05,0,0,1,1.06-1h2.75a1,1,0,0,1,1.06,1v1.26a1,1,0,0,1-1.06,1H23.08a1.05,1.05,0,0,1-1.06-1Z"/>
  <path class="cls-1" d="M39.8,39.61V32.9a2.36,2.36,0,0,0-2.63-2.41h-.3c-1.55,0-2.49.94-3.18.94a.33.33,0,0,1-.35-.22l-.2-.37a.49.49,0,0,0-.47-.29h-.29a.48.48,0,0,0-.47.51v8.55a.61.61,0,0,0,.61.61h.29a.61.61,0,0,0,.61-.61V33.14a1.22,1.22,0,0,1,1.22-1.22h2.43a1.22,1.22,0,0,1,1.22,1.22v6.47a.61.61,0,0,0,.62.61h.28A.61.61,0,0,0,39.8,39.61Z"/>
  <path class="cls-1" d="M51.39,38V32.8a2.23,2.23,0,0,0-2.51-2.31h-.47c-2,0-2.43.94-3.37.94a.4.4,0,0,1-.3-.22l-.24-.43a.48.48,0,0,0-.35-.23h-.29a.51.51,0,0,0-.55.51v9.16h5.81A2.23,2.23,0,0,0,51.39,38Zm-1.51-.29a1.24,1.24,0,0,1-1.23,1.16H44.82V33A1.12,1.12,0,0,1,46,31.92h2.82A1.1,1.1,0,0,1,49.88,33Z"/>
  <path class="cls-1" d="M61.37,39.65v-.23a.57.57,0,0,0-.61-.57H56.4V31.16a.61.61,0,0,0-.61-.61h-.28a.61.61,0,0,0-.62.61v9.06h5.87A.57.57,0,0,0,61.37,39.65Z"/>
  <path class="cls-1" d="M18.65,44.09h-4.1a2.11,2.11,0,0,0-2.14,2.21v6.85a.6.6,0,0,0,.61.61h.29a.62.62,0,0,0,.61-.61V49.37h3.46A.58.58,0,0,0,18,48.8v-.22a.59.59,0,0,0-.64-.57H13.92V46.6a1,1,0,0,1,1-1.14h3.73a.58.58,0,0,0,.61-.57v-.23A.59.59,0,0,0,18.65,44.09Z"/>
  <path class="cls-1" d="M26.3,44.09H23.14a2.31,2.31,0,0,0-2.34,2.25v5.14a2.27,2.27,0,0,0,2.26,2.28h3.33a2.29,2.29,0,0,0,2.26-2.28V46.34A2.31,2.31,0,0,0,26.3,44.09Zm.84,7.18A1.12,1.12,0,0,1,26,52.39H23.41a1.1,1.1,0,0,1-1.1-1.12V46.58a1.12,1.12,0,0,1,1.12-1.12H26a1.13,1.13,0,0,1,1.12,1.12Z"/>
  <path class="cls-1" d="M37.29,44.09H35.74c-1.29,0-1.68.88-2.23.88a.35.35,0,0,1-.34-.22L33,44.38a.53.53,0,0,0-.45-.29h-.3a.49.49,0,0,0-.47.49v8.57a.6.6,0,0,0,.61.61h.29a.62.62,0,0,0,.61-.61V46.76a1.22,1.22,0,0,1,1.3-1.3h2.74a.57.57,0,0,0,.61-.57v-.23A.57.57,0,0,0,37.29,44.09Z"/>
  <path class="cls-1" d="M55,44h-.31c-1.55,0-2.48.94-3.18.94-.16,0-.24,0-.34-.22L51,44.38a.49.49,0,0,0-.47-.29h-.28a.47.47,0,0,0-.47.51v8.55a.59.59,0,0,0,.61.61h.29a.61.61,0,0,0,.61-.61V46.68a1.22,1.22,0,0,1,1.22-1.22h2.43a1.22,1.22,0,0,1,1.22,1.22v6.47a.6.6,0,0,0,.61.61h.29a.61.61,0,0,0,.61-.61V46.44A2.36,2.36,0,0,0,55,44Z"/>
  <path class="cls-1" d="M64.77,52.39H63.69V45.46h1a.57.57,0,0,0,.61-.57v-.23a.58.58,0,0,0-.61-.57H61.2a.59.59,0,0,0-.61.57v.23a.57.57,0,0,0,.61.57h1v6.93H61.1a.58.58,0,0,0-.61.57v.23a.56.56,0,0,0,.61.57h3.67a.56.56,0,0,0,.61-.57V53A.58.58,0,0,0,64.77,52.39Z"/>
  <path class="cls-1" d="M73.78,44h-.3C71.93,44,71,45,70.3,45a.33.33,0,0,1-.35-.22l-.2-.37a.5.5,0,0,0-.47-.29H69a.48.48,0,0,0-.47.51v8.55a.6.6,0,0,0,.61.61h.29a.61.61,0,0,0,.61-.61V46.68a1.22,1.22,0,0,1,1.22-1.22h2.43a1.23,1.23,0,0,1,1.23,1.22v6.47a.59.59,0,0,0,.61.61h.28a.61.61,0,0,0,.61-.61V46.44A2.35,2.35,0,0,0,73.78,44Z"/>
  <path class="cls-1" d="M106.39,44h-.31c-1.55,0-2.48.94-3.18.94-.16,0-.24,0-.34-.22l-.21-.37a.48.48,0,0,0-.46-.29h-.29a.47.47,0,0,0-.47.51v8.55a.59.59,0,0,0,.61.61H102a.61.61,0,0,0,.61-.61V46.68a1.22,1.22,0,0,1,1.22-1.22h2.43a1.22,1.22,0,0,1,1.22,1.22v6.47a.6.6,0,0,0,.61.61h.29a.61.61,0,0,0,.61-.61V46.44A2.36,2.36,0,0,0,106.39,44Z"/>
  <path class="cls-1" d="M86.47,34.73h-.29a.61.61,0,0,0-.61.61v2.29a1.22,1.22,0,0,1-1.22,1.22H81.92a1.22,1.22,0,0,1-1.22-1.22V33.06a1.11,1.11,0,0,1,1.1-1.14h4.3a.57.57,0,0,0,.61-.57v-.23a.57.57,0,0,0-.61-.57H81.49a2.31,2.31,0,0,0-2.3,2.35v5a2.35,2.35,0,0,0,2.63,2.41h.3c1.56,0,2.5-.9,3.17-.9.16,0,.28.21.28.39v3a1.18,1.18,0,0,1-1.34,1.28H81.49a2.31,2.31,0,0,0-2.3,2.35v5a2.35,2.35,0,0,0,2.63,2.4h.31c1.55,0,2.49-.9,3.16-.9.16,0,.28.21.28.39v1.42A1.18,1.18,0,0,1,84.23,56H82.86a.57.57,0,0,0-.61.58v.22a.56.56,0,0,0,.61.57h2a2.29,2.29,0,0,0,2.26-2.28V48.88a.6.6,0,0,0-.61-.6h-.29a.6.6,0,0,0-.61.6v2.29a1.22,1.22,0,0,1-1.22,1.22H81.92a1.22,1.22,0,0,1-1.22-1.22V46.6a1.11,1.11,0,0,1,1.1-1.14h3a2.29,2.29,0,0,0,2.26-2.28V35.34A.61.61,0,0,0,86.47,34.73Z"/>
  <path class="cls-1" d="M95.74,30.55H92.53a2.31,2.31,0,0,0-2.35,2.25v5.09a2.32,2.32,0,0,0,2.23,2.33h3.42a.56.56,0,0,0,.61-.57v-.23a.57.57,0,0,0-.61-.57H93a1.16,1.16,0,0,1-1.33-1.24v-2c0-.18.12-.39.29-.39.67,0,1.61.9,3.16.82h1.77a1.22,1.22,0,0,0,1.18-1.31v-2A2.31,2.31,0,0,0,95.74,30.55Zm.83,4.18H92.91a1.22,1.22,0,0,1-1.22-1.22V33a1.1,1.1,0,0,1,1.1-1.1h2.67A1.11,1.11,0,0,1,96.57,33Z"/>
  <path class="cls-1" d="M95.74,44.09H92.53a2.31,2.31,0,0,0-2.35,2.25v5.1a2.32,2.32,0,0,0,2.23,2.32h3.42a.56.56,0,0,0,.61-.57V53a.57.57,0,0,0-.61-.58H93a1.16,1.16,0,0,1-1.33-1.24v-2c0-.18.12-.39.29-.39.67,0,1.61.9,3.16.83h1.77a1.23,1.23,0,0,0,1.18-1.32v-2A2.31,2.31,0,0,0,95.74,44.09Zm.83,4.18H92.91a1.22,1.22,0,0,1-1.22-1.22v-.49a1.1,1.1,0,0,1,1.1-1.1h2.67a1.11,1.11,0,0,1,1.11,1.1Z"/>
  <path class="cls-1" d="M45,44.09H41.74a2.31,2.31,0,0,0-2.34,2.25v5.1a2.32,2.32,0,0,0,2.22,2.32h3.43a.57.57,0,0,0,.61-.57V53a.58.58,0,0,0-.61-.58H42.23a1.16,1.16,0,0,1-1.33-1.24v-2c0-.18.13-.39.29-.39.67,0,1.61.9,3.16.83h1.77a1.23,1.23,0,0,0,1.19-1.32v-2A2.31,2.31,0,0,0,45,44.09Zm.82,4.18H42.13a1.23,1.23,0,0,1-1.23-1.22v-.49A1.1,1.1,0,0,1,42,45.46h2.67a1.1,1.1,0,0,1,1.1,1.1v1.71Z"/>
  <path class="cls-1" d="M74.56,30.55h-3a2.39,2.39,0,0,0-1.6.66,2.33,2.33,0,0,0-1.54-.66H64.28a.59.59,0,0,0-.62.57v.23a.59.59,0,0,0,.64.57h3.61a1.19,1.19,0,0,1,1.32,1.3v1.43a.33.33,0,0,1-.29.37c-.67,0-1.6-.94-3.16-.94h-.3a2.35,2.35,0,0,0-2.63,2.41v1.38a2.35,2.35,0,0,0,2.63,2.41h.3c2,0,2.76-.9,3.43-.9a1.44,1.44,0,0,1,1.06.43,2.4,2.4,0,0,0,1.23.41h3.17a.57.57,0,0,0,.61-.57v-.23a.57.57,0,0,0-.61-.57h-2.6a1.16,1.16,0,0,1-1.33-1.24V35.54c0-.15.14-.28.27-.28.67,0,1.61.9,3.16.82h1.56a1.22,1.22,0,0,0,1.18-1.31v-2A2.31,2.31,0,0,0,74.56,30.55Zm-5.33,7.26a1.05,1.05,0,0,1-1.06,1H65.42a1.05,1.05,0,0,1-1.06-1V36.55a1.05,1.05,0,0,1,1.06-1h2.75a1.05,1.05,0,0,1,1.06,1Zm6.17-3.08H72a1.22,1.22,0,0,1-1.21-1V33a1.1,1.1,0,0,1,1.1-1.1H74.3A1.1,1.1,0,0,1,75.4,33v1.71Z"/>
  <path class="cls-1" d="M1.17,30.55H.88a.61.61,0,0,0-.61.61v22a.6.6,0,0,0,.61.61h.29a.62.62,0,0,0,.61-.61v-22A.6.6,0,0,0,1.17,30.55Z"/>
</svg>
