<?xml version="1.0" encoding="utf-8"?>
<!-- Generator: Adobe Illustrator 23.0.3, SVG Export Plug-In . SVG Version: 6.00 Build 0)  -->
<svg version="1.1" id="Layer_1" xmlns="http://www.w3.org/2000/svg" xmlns:xlink="http://www.w3.org/1999/xlink" x="0px" y="0px"
	 viewBox="0 0 57 24.3" style="enable-background:new 0 0 57 24.3;" xml:space="preserve">
<style type="text/css">
	.st0{enable-background:new    ;}
	.st1{fill:#03E3FC;}
</style>
<g class="st0">
	<path class="st1" d="M6.9,11.6h1.7c1.3,0,2.3-0.3,3-1c0.7-0.7,1-1.5,1-2.6c0-1.1-0.3-2-1-2.7c-0.6-0.7-1.6-1-2.9-1
		c-1.2,0-2.1,0.3-2.9,1C5.3,6.1,4.9,7,4.9,8.1H3.5l0-0.1c0-1.4,0.5-2.6,1.5-3.5c1-0.9,2.3-1.4,3.9-1.4c1.6,0,2.9,0.4,3.9,1.3
		c1,0.9,1.4,2.1,1.4,3.7c0,0.9-0.3,1.7-0.8,2.4c-0.5,0.8-1.3,1.3-2.3,1.7c1.1,0.3,2,0.9,2.5,1.6c0.6,0.8,0.8,1.7,0.8,2.7
		c0,1.6-0.5,2.9-1.6,3.8c-1,0.9-2.4,1.4-4,1.4c-1.6,0-3-0.5-4.1-1.4c-1.1-0.9-1.7-2.2-1.7-3.8l0-0.1h1.4c0,1.2,0.4,2.1,1.2,2.8
		c0.8,0.7,1.8,1.1,3.1,1.1c1.3,0,2.3-0.3,3-1c0.7-0.7,1.1-1.6,1.1-2.9c0-1.3-0.4-2.2-1.1-2.8c-0.8-0.6-1.8-0.9-3.3-0.9H6.9V11.6z"/>
	<path class="st1" d="M24.2,3.1c0.6,0,1.2,0.1,1.9,0.2c0.6,0.1,1.2,0.3,1.6,0.6l-0.4,1.2c-0.5-0.3-0.9-0.5-1.4-0.6
		c-0.5-0.1-1-0.2-1.7-0.2c-1.4,0-2.5,0.5-3.4,1.6C20,7,19.5,8.3,19.5,10.1v1.6c0.5-0.7,1.1-1.2,1.9-1.6s1.6-0.6,2.6-0.6
		c1.6,0,2.9,0.6,3.9,1.7c1,1.1,1.4,2.6,1.4,4.4c0,1.8-0.5,3.3-1.5,4.4c-1,1.2-2.4,1.8-4,1.8c-1.7,0-3.1-0.6-4.2-1.9S18,17,18,14.8
		v-4.6c0-2.1,0.6-3.8,1.8-5.1C21,3.7,22.5,3.1,24.2,3.1z M23.7,10.7c-1,0-1.9,0.3-2.7,0.8c-0.8,0.5-1.3,1.2-1.5,2v1.3
		c0,1.7,0.4,3.1,1.2,4.1c0.8,1,1.8,1.5,3.1,1.5c1.2,0,2.2-0.5,2.9-1.4c0.7-1,1.1-2.1,1.1-3.5c0-1.5-0.4-2.6-1.1-3.5
		C26.1,11.2,25,10.7,23.7,10.7z"/>
	<path class="st1" d="M43.6,14.5c0,2.4-0.5,4.2-1.5,5.4c-1,1.3-2.4,1.9-4.2,1.9c-1.8,0-3.2-0.6-4.3-1.9c-1-1.3-1.5-3.1-1.5-5.4v-4.1
		c0-2.3,0.5-4.2,1.5-5.4c1-1.3,2.4-1.9,4.2-1.9c1.8,0,3.2,0.6,4.3,1.9c1,1.3,1.5,3.1,1.5,5.4V14.5z M42.1,10.2
		c0-1.9-0.4-3.3-1.1-4.3c-0.7-1-1.8-1.5-3.2-1.5c-1.4,0-2.5,0.5-3.2,1.5c-0.7,1-1.1,2.4-1.1,4.3v4.5c0,1.9,0.4,3.3,1.1,4.3
		s1.8,1.5,3.2,1.5S40.3,20,41,19c0.7-1,1.1-2.5,1.1-4.3V10.2z"/>
	<path class="st1" d="M47.1,6.2c0-0.9,0.3-1.6,0.9-2.2c0.6-0.6,1.3-0.9,2.2-0.9c0.8,0,1.5,0.3,2.1,0.9c0.6,0.6,0.9,1.4,0.9,2.2
		c0,0.9-0.3,1.6-0.9,2.2C51.7,9,51,9.3,50.2,9.3c-0.8,0-1.6-0.3-2.2-0.9S47.1,7,47.1,6.2z M48.2,6.2c0,0.6,0.2,1,0.6,1.4
		c0.4,0.4,0.8,0.6,1.4,0.6c0.5,0,1-0.2,1.4-0.6c0.4-0.4,0.5-0.8,0.5-1.4c0-0.6-0.2-1-0.5-1.4c-0.4-0.4-0.8-0.6-1.4-0.6
		c-0.6,0-1,0.2-1.4,0.6C48.4,5.2,48.2,5.6,48.2,6.2z"/>
</g>
</svg>
