<?xml version="1.0" encoding="utf-8"?>
<!-- Generator: Adobe Illustrator 23.0.3, SVG Export Plug-In . SVG Version: 6.00 Build 0)  -->
<svg version="1.1" id="Layer_1" xmlns="http://www.w3.org/2000/svg" xmlns:xlink="http://www.w3.org/1999/xlink" x="0px" y="0px"
	 viewBox="0 0 80 39.6" style="enable-background:new 0 0 80 39.6;" xml:space="preserve">
<style type="text/css">
	.st0{fill:#03E3FC;}
</style>
<g id="Group_5" transform="translate(0.5 0.504)">
	<path id="Path_2" class="st0" d="M78.4,20.5c-0.1-1-0.6-2-1.4-2.6c-0.3-0.3-0.9-0.3-1.1,0.1s-0.3,0.9,0.1,1.1
		c0.5,0.3,0.8,0.8,0.8,1.4l0,0c0,2-5.2,4.1-12.7,4.8c-0.9-8,0.1-16.1,2.7-23.7c0.1-0.4-0.1-0.9-0.5-1c-0.1,0-0.3-0.1-0.4,0
		c-17.6,2.7-35.4,2.7-53,0C12.5,0.4,12,0.7,12,1.1c0,0.1,0,0.3,0,0.4c2.6,7.6,3.5,15.7,2.7,23.7C7.2,24.6,2,22.4,2,20.5l0,0
		c0.1-0.6,0.4-1.1,0.8-1.4c0.3-0.3,0.4-0.8,0.1-1.1s-0.8-0.4-1.1-0.1c-0.8,0.6-1.3,1.6-1.4,2.6l0,0c0,3.5,6.6,5.7,14.1,6.4
		c-0.5,3.5-1.3,7-2.5,10.4c-0.1,0.4,0.1,0.9,0.5,1c0.1,0,0.3,0.1,0.4,0c17.6-2.7,35.4-2.7,53,0H66c0.4,0,0.8-0.4,0.8-0.8
		c0-0.1,0-0.2,0-0.3c-1.1-3.4-2-6.8-2.5-10.4C71.8,26.2,78.4,24,78.4,20.5L78.4,20.5L78.4,20.5z M60.6,24.4c0-0.4-0.4-0.8-0.8-0.8
		c-0.1,0-0.2,0-0.3,0.1l-5.1,2.2C54,26.1,53.8,26.6,54,27c0.1,0.2,0.3,0.4,0.5,0.5l5.1,1.5c0.4,0.1,0.9-0.1,1-0.6c0-0.1,0-0.2,0-0.2
		v-1c0.7,0,1.4,0,2.1-0.1c0.5,3.2,1.2,6.4,2.2,9.5c-16.9-2.5-34-2.5-50.9,0c1-3.1,1.7-6.3,2.2-9.5c0.7,0,1.4,0.1,2.1,0.1v1
		c0,0.4,0.4,0.8,0.8,0.8c0.1,0,0.2,0,0.2,0l5.1-1.5c0.4-0.1,0.7-0.6,0.6-1c-0.1-0.2-0.2-0.4-0.5-0.5l-5.1-2.2
		c-0.4-0.2-0.9,0-1.1,0.4c0,0.1-0.1,0.2-0.1,0.3v1c-0.6,0-1.3,0-1.9-0.1c0.8-7.8,0-15.6-2.3-23.1c16.9,2.5,34,2.5,50.9,0
		c-2.4,7.4-3.2,15.3-2.3,23.1c-0.6,0-1.2,0.1-1.9,0.1L60.6,24.4z"/>
	<path id="Path_3" class="st0" d="M64.7,14.9c-0.1,0.4,0.3,0.8,0.7,0.9l0,0c1,0.1,1.9,0.3,2.8,0.4h0.1c0.4,0,0.8-0.4,0.8-0.8
		c0-0.4-0.3-0.7-0.7-0.8c-0.9-0.2-1.9-0.3-3-0.4C65.1,14.2,64.7,14.5,64.7,14.9L64.7,14.9z"/>
	<path id="Path_4" class="st0" d="M70.4,15.9c-0.1,0.4,0.1,0.9,0.6,1c0.9,0.2,1.8,0.5,2.7,0.9c0.4,0.2,0.9,0,1.1-0.4s0-0.9-0.4-1.1
		l0,0c-0.9-0.4-1.9-0.7-2.9-1C71,15.2,70.6,15.4,70.4,15.9L70.4,15.9z"/>
	<path id="Path_5" class="st0" d="M4.8,17.8c0.1,0,0.2,0,0.3-0.1C6,17.3,6.9,17,7.8,16.8c0.4-0.1,0.7-0.6,0.6-1s-0.6-0.7-1-0.6
		c-1,0.3-1.9,0.6-2.9,1c-0.4,0.2-0.6,0.7-0.4,1.1C4.2,17.6,4.5,17.8,4.8,17.8L4.8,17.8z"/>
	<path id="Path_6" class="st0" d="M10.4,16.2h0.1c0.9-0.2,1.9-0.3,2.8-0.4c0.4-0.1,0.8-0.5,0.7-0.9c-0.1-0.4-0.5-0.8-0.9-0.7
		c-1,0.1-2,0.3-3,0.4c-0.4,0.1-0.7,0.5-0.7,0.9C9.7,16,10,16.3,10.4,16.2L10.4,16.2z"/>
	<path id="Path_7" class="st0" d="M47.5,17.5c-0.3-0.3-0.8-0.3-1.1,0l-5.2,4.8l-5.1-4.6c-0.3-0.3-0.8-0.3-1.1,0L25.7,26
		c-0.3,0.3-0.4,0.8-0.1,1.2c0.3,0.3,0.8,0.4,1.2,0.1l0,0l8.7-7.8l8.8,7.8c0.3,0.3,0.9,0.3,1.1-0.1c0.3-0.3,0.3-0.9-0.1-1.1l-3-2.7
		l4.5-4.2l5.3,4.6c0.3,0.3,0.9,0.3,1.1-0.1s0.3-0.9-0.1-1.1L47.5,17.5z"/>
	<path id="Path_8" class="st0" d="M47.1,15.3c2.1,0,3.7-1.7,3.7-3.7c0-2.1-1.7-3.7-3.7-3.7c-2.1,0-3.7,1.7-3.7,3.7l0,0
		C43.4,13.6,45.1,15.3,47.1,15.3z M47.1,9.5c1.2,0,2.1,0.9,2.1,2.1s-0.9,2.1-2.1,2.1c-1.2,0-2.1-0.9-2.1-2.1l0,0
		C45.1,10.4,46,9.5,47.1,9.5L47.1,9.5z"/>
</g>
</svg>
