<?xml version="1.0" encoding="utf-8"?>
<!-- Generator: Adobe Illustrator 23.0.3, SVG Export Plug-In . SVG Version: 6.00 Build 0)  -->
<svg version="1.1" id="Layer_1" xmlns="http://www.w3.org/2000/svg" xmlns:xlink="http://www.w3.org/1999/xlink" x="0px" y="0px"
	 viewBox="0 0 250 250" style="enable-background:new 0 0 250 250;" xml:space="preserve">
<style type="text/css">
	.st0{fill:#FFFFFF;stroke:#FFFFFF;stroke-width:2;stroke-miterlimit:10;}
</style>
<g>
	<path class="st0" d="M90.3,239.6c-7.6,0-10.6-5.6-10.9-10.4c-0.2-3.5,0.7-8.6,1.7-13.6c0.6-3,1.1-5.9,1.3-8.1
		c0.5-5.6,0.2-23.7-0.2-33.7c-0.4-8.4-4.5-28.2-4.5-28.5l-0.2-0.9l0.7-0.5c0.3-0.2,7.6-5.2,16-5.1c8.3,0.1,14.7,3.7,15,3.8l0.9,0.5
		l-0.2,1c-0.1,0.2-5.2,24.4-6,30c-1.1,7.5-2.5,28.8-2.3,33.1c0.2,4.8,1.2,18.3,1.6,21.9c0.3,2.2-0.5,4.5-2.2,6.3
		C98.6,238.2,94.8,239.6,90.3,239.6z M80.4,145.8c0.8,4,4,20.3,4.4,28c0.5,10.3,0.8,28.2,0.2,34c-0.2,2.3-0.8,5.3-1.4,8.4
		c-0.9,4.8-1.8,9.8-1.6,12.9c0.1,1.9,1.1,7.9,8.3,7.9c3.8,0,6.8-1.1,8.6-3.1c1.1-1.3,1.7-2.8,1.5-4.2c-0.5-3.9-1.4-17.7-1.7-22.1
		c-0.2-4.9,1.3-26.6,2.3-33.7c0.8-5.1,4.9-24.5,5.9-29.2c-1.9-0.9-6.9-3-12.8-3c-0.1,0-0.2,0-0.2,0
		C87.8,141.6,82.3,144.6,80.4,145.8z"/>
	<path class="st0" d="M74.8,165.2c-2.1,0-4.5-0.2-6.9-0.8c-3-0.7-8.5-2.6-11.3-6.7c-0.8-1.3-1.4-2.5-1.9-3.6
		c-1.4,2.8-2.5,4.9-3.3,6.3c-1.8,3.3-2.6,4-4.2,4c-1,0-2.3-0.6-4-7.3c-1-3.8-1.6-8.1-1.7-11c-0.2-6.6-0.9-15.3-2.2-19.8
		c-0.1-0.5-0.3-1-0.4-1.6c-1.4-4.7-3-10.5,1.1-16.3c2-2.9,4.4-4.9,6.5-6.7c2.2-1.9,3.9-3.3,4.1-4.9c0.1-0.7,0.7-1.2,1.5-1.2
		c0.7,0.1,1.2,0.7,1.2,1.5c-0.3,2.6-2.5,4.4-5,6.6c-2,1.7-4.2,3.6-6,6.2c-3.4,4.8-2,9.7-0.7,14c0.2,0.5,0.3,1.1,0.5,1.6
		c1.3,4.7,2,13.6,2.2,20.4c0.2,5.5,2.3,13.7,3.4,15.6c1.2-1.3,5.1-9.2,13.3-26c15.5-32,21.4-33.4,31.3-35.8c0.6-0.1,1.1-0.3,1.7-0.4
		c4.2-1,7.8-0.6,10.7,1.4c4.1,2.7,6.8,8.1,8.1,16c1.8,11-2.8,26.8-3,27.5l-0.5,1.6l-1.4-0.8c-0.1,0-6.1-3.4-13.7-3.5
		c-0.1,0-0.2,0-0.2,0c-6,0-11.6,3-13.5,4.2c0.5,2.7,2,11.2,3,17.1l0.2,1.2l-1.2,0.3C82.2,164.4,78.9,165.2,74.8,165.2z M56.5,150.6
		c0.1,0.7,0.7,3.1,2.4,5.6c1.6,2.5,5.2,4.5,9.7,5.6c4.6,1.1,9.7,0.6,12,0.2c-1.2-7.1-2.9-16.6-3-16.7l-0.1-0.8l0.7-0.5
		c0.3-0.2,7.6-5.2,16-5.1c6,0.1,11.1,2,13.5,3.1c1.1-4.2,3.9-16.3,2.5-24.8c-1.2-7.2-3.5-12-6.9-14.2c-2.3-1.5-5.2-1.9-8.6-1
		c-0.6,0.1-1.2,0.3-1.8,0.4c-9.1,2.2-14.6,3.5-29.6,34.4C60.5,142.4,58.3,147,56.5,150.6z"/>
	<path class="st0" d="M170,186.1c-0.6,0-1.1-0.1-1.6-0.3c-2.5-1.1-3.3-2.9-4.5-5.5c-0.3-0.6-0.6-1.3-0.9-2
		c-1.2-2.6-2.9-7.3-4.9-12.8c-1.1-3-2.2-6.2-3.4-9.2c-1.8-4.8-4.3-12.8-6.3-19.2c-1.3-4.3-2.7-8.8-3.1-9.5c-0.4-0.6-0.2-1.4,0.4-1.8
		c0.6-0.4,1.4-0.2,1.8,0.4c0.4,0.6,1.1,3,3.3,10.1c2,6.4,4.4,14.4,6.2,19.1c1.2,3.1,2.3,6.2,3.4,9.3c1.9,5.2,3.6,10.1,4.8,12.5
		c0.4,0.8,0.7,1.5,1,2.1c1.2,2.7,1.6,3.5,3.2,4.2c1.3,0.6,4.7-1.5,7.4-3.1c1-0.6,2.1-1.3,3.1-1.9c2.9-1.6,5-2,6.6-2.3
		c0.8-0.2,1.4-0.3,1.8-0.5c0-0.4-0.4-1.2-0.8-1.9c-0.4-0.9-0.9-1.8-1.2-3c-0.5-1.5-1-3.3-1.7-5.3c-1.5-4.8-3.2-10.2-4.4-13.7
		c-0.6-1.9-1.3-3.6-2-5.4c-1.3-3.1-2.7-6.6-4.1-12.2c-0.8-3-2.1-8.4-3.3-13.6c-1.2-5-2.3-9.7-3-12.2l-0.3-1
		c-1.4-5.4-3.1-12.1-1.8-18.6c1.3-6.4,0.5-11.2-0.7-13.5c-0.6-1.3-4.3-2.6-7.2-3.2c-1.9,3.4-5.8,6.9-10.2,10.8
		c-2.7,2.4-5.4,4.8-7.9,7.4c-6.7,7-11.4,18.3-11.5,18.4l-2.5-0.6c0.5-7.3-2.5-26-4.9-36.1c-2.1-9.1-3.7-21.8-4.1-25.3
		c-2.1-0.5-7.6-1.6-13.5-1.3c-5.3,0.3-12.9,3.8-18.5,6.4L84.3,52c-2.5,1.1-7.4,3.3-12.5,5.5c-6.7,2.9-14.2,6.1-17.5,7.7
		C49,67.7,41.5,75.5,41.1,83.6C40.7,90.9,52.3,95.9,52.4,96l0,0c0,0,4.5,2,18.1,3.4c18.8,1.9,22.9,0.2,23.1,0.1l0,0l1.2,2.3
		c-0.4,0.2-4.8,2.1-24.6,0.1c-13.8-1.4-18.5-3.4-18.9-3.6c-0.7-0.3-13.4-5.9-12.9-14.9c0.5-8.6,8-17.4,14.6-20.6
		c3.4-1.6,10.6-4.8,17.6-7.8c5.1-2.2,10-4.3,12.5-5.4l0.7-0.3c5.8-2.7,13.7-6.3,19.4-6.6c7.8-0.4,14.9,1.5,15.2,1.6l1,1.1
		c0,0.2,1.7,15.5,4.1,25.9c1.9,8.1,4.3,21.9,4.9,31.1c2.1-4.1,5.4-9.8,9.6-14.1c2.6-2.7,5.4-5.2,8.1-7.6c4.4-3.9,8.7-7.7,10-10.9
		l1.5-0.8c1.4,0.3,8.5,1.8,10,4.8c1.8,3.6,2.1,9.3,0.9,15.2c-1.2,5.9,0.4,12.3,1.7,17.5l0.2,1c0.6,2.6,1.8,7.3,3,12.3
		c1.2,5.2,2.5,10.5,3.3,13.5c1.4,5.4,2.7,8.7,4,11.9c0.7,1.8,1.4,3.5,2.1,5.6c1.2,3.5,2.9,9,4.4,13.8c0.6,2,1.2,3.9,1.7,5.3
		c0.3,1,0.7,1.9,1.1,2.7c0.8,1.7,1.7,3.7,0,5c-0.8,0.7-1.8,0.8-3,1.1c-1.5,0.3-3.3,0.6-5.8,2c-1,0.6-2,1.2-3,1.8
		C175.3,184.4,172.4,186.1,170,186.1z"/>
	<path class="st0" d="M130.5,146.8c-0.8,0-1.6-0.1-2.5-0.3c-4.1-1-9.8-4.5-12.2-10.9c-3.2-8.6-5.1-12.2-5.2-12.3
		c-0.3-0.6-0.1-1.4,0.6-1.8c0.6-0.3,1.4-0.1,1.8,0.5c0.1,0.1,2,3.8,5.3,12.6c2.1,5.5,6.9,8.4,10.3,9.3c2,0.5,2.9,0.2,3.1,0
		c0.4-0.4,1.3-2.8,1.7-9.2c0.3-4.6,0.4-9.6,0-12.3c-0.6-4.7-6.2-12.2-9.3-16.2c-0.3-0.4-0.6-0.7-0.8-1c-2.5-3.3-11.2-11.4-14.1-14.1
		c-0.7,0.8-1.7,2.1-2.5,3.6c-1.1,2-1.4,6-1.5,7.4c0,0.7-0.7,1.3-1.4,1.3c-0.7,0-1.3-0.6-1.3-1.4c0-0.2,0.3-5.5,1.8-8.5
		c1.5-2.9,3.8-5.1,3.9-5.2l0.9-0.9l0.9,0.8c0.5,0.5,12.2,11.3,15.4,15.4c0.2,0.3,0.5,0.7,0.8,1c3.4,4.5,9.2,12,9.8,17.5
		c0.3,2.9,0.3,8.2,0,12.9c-0.7,9.2-2.1,10.5-2.6,10.9C132.8,146.5,131.8,146.8,130.5,146.8z"/>
	<path class="st0" d="M109.2,90.5c-0.3,0-0.6-0.1-0.9-0.4c-0.1-0.1-9.3-8.5-29.4-15.8c-7.2-2.6-12.2-4.9-15.9-6.5
		c-4.5-2-6.9-3.1-8.5-2.7c-0.7,0.2-1.4-0.3-1.6-1c-0.2-0.7,0.3-1.4,1-1.6c2.5-0.6,5,0.5,10.2,2.9c3.6,1.6,8.6,3.9,15.7,6.4
		c20.8,7.6,29.9,16,30.3,16.4c0.5,0.5,0.6,1.3,0.1,1.9C109.9,90.3,109.6,90.5,109.2,90.5z"/>
	<path class="st0" d="M95,81.2c-0.2,0-0.5-0.1-0.7-0.2c-0.6-0.4-0.8-1.2-0.5-1.8c0.1-0.1,5.4-9.4,4.6-16.3c-0.1-0.7,0.4-1.4,1.2-1.5
		c0.7-0.1,1.4,0.4,1.5,1.2c0.9,7.8-4.7,17.6-4.9,18C95.8,80.9,95.4,81.2,95,81.2z"/>
	<path class="st0" d="M134.7,136.7c-0.6,0-1.2-0.4-1.3-1.1c-0.1-0.7,0.3-1.4,1.1-1.5c1.6-0.3,7.5-0.8,14.4-1c0,0,0,0,0,0
		c0.7,0,1.3,0.6,1.3,1.3c0,0.7-0.6,1.3-1.3,1.4c-7.3,0.2-12.8,0.7-14,0.9C134.8,136.7,134.7,136.7,134.7,136.7z"/>
	<path class="st0" d="M189.7,176.7c-0.4,0-0.8-0.2-1-0.5c-0.4-0.6-0.4-1.4,0.2-1.9c10-8,8.3-18.2,6-22.5
		c-3.9-7.3-10.1-11.9-18.9-14.1c-0.7-0.2-1.1-0.9-1-1.6c0.2-0.7,0.9-1.1,1.6-1c9.6,2.4,16.3,7.4,20.6,15.4c2.6,5,4.7,16.7-6.7,25.8
		C190.3,176.6,190,176.7,189.7,176.7z"/>
	<path class="st0" d="M124.8,210.4c-6.5,0-14.7-6.5-18.1-11.3c-3.2-4.5-6.4-5.7-6.4-5.7c-0.7-0.3-1-1-0.8-1.7c0.2-0.7,1-1,1.7-0.8
		c0.2,0.1,3.9,1.4,7.7,6.7c3.3,4.6,11.4,10.8,16.7,10.2c5.2-0.6,6.5-5.6,6.5-6.3c0-1.1-2.3-7-6-9.4c-9.6-6.2-9.6-8.3-9.6-9
		c0-1.3,0.5-2.9,0.7-3.5c0.8-2.3,1.4-2.6,2-2.7c0.8-0.2,10.4,0.5,17.8,2.5c0.4,0.1,0.8,0.2,1.2,0.3c5.6,1.5,17.2,4.7,29.6,3.1
		c0.7-0.1,1.4,0.4,1.5,1.1c0.1,0.7-0.4,1.4-1.1,1.5c-13,1.6-24.9-1.6-30.7-3.2c-0.4-0.1-0.9-0.2-1.2-0.3c-6.3-1.7-14-2.3-16.2-2.4
		c-0.4,0.8-1,2.5-1,3.5c0.2,0.7,2.7,3.2,8.4,6.9c4.4,2.8,7.2,9.5,7.2,11.6c0,2-2.2,8.2-8.9,8.9C125.5,210.3,125.1,210.4,124.8,210.4
		z"/>
	<path class="st0" d="M207.8,221.9c-2.3,0-4.3-1.9-5.2-2.8c-0.5-0.4-1.1-1.1-1.7-1.8c-2.3-2.5-6.7-7.2-9.4-7c-2.9,0.2-4.5,3-6,5.7
		c-1.5,2.6-3.1,5.2-5.8,4.6c-3-0.6-2.5-3.4-2.2-5c0.1-0.8,0.3-1.7,0.2-2.5c-0.1-1.6-0.7-3.2-1.5-5.1c-1-2.5-2.1-5.4-2.1-9
		c0-1.6,0-3.2,0.1-4.8c0.1-4.1,0.2-8.7-0.6-10.5c-0.3-0.7,0-1.4,0.6-1.8c0.7-0.3,1.5,0,1.8,0.6c1.1,2.3,1,6.6,0.8,11.7
		c0,1.6-0.1,3.2-0.1,4.7c0,3.1,1,5.6,1.9,8.1c0.8,2,1.5,3.9,1.6,5.9c0.1,1.1-0.1,2.1-0.3,3.1c-0.1,0.6-0.3,1.7-0.1,1.9l0,0
		c0,0,0.1,0.1,0.3,0.1c0.9,0.2,1.9-1.5,3-3.4c1.7-3,3.9-6.6,8.1-7c4-0.3,8.6,4.6,11.6,7.8c0.6,0.7,1.2,1.3,1.6,1.7
		c2.7,2.5,3.8,2.4,5,1.3c0-0.1,0.3-1.2-2.1-5.5c-1.7-3.1-4.1-6.8-6.7-10.7c-1.1-1.7-2.3-3.5-3.4-5.2c-6.2-9.6-9.9-19.1-10-19.5
		c-0.3-0.7,0.1-1.5,0.8-1.7c0.7-0.3,1.4,0.1,1.7,0.8c0,0.1,3.7,9.6,9.7,19c1.1,1.7,2.3,3.5,3.4,5.2c7.1,10.7,11,16.9,8.5,19.5
		C210.1,221.5,208.9,221.9,207.8,221.9z"/>
	<path class="st0" d="M134.8,123.5c-0.5,0-1-0.3-1.2-0.8c-0.3-0.7,0-1.4,0.6-1.8l0,0c0,0,4.3-2,7.8-7.3c1.9-2.9,3.1-5.5,4.1-7.9
		c0.9-2.2,1.7-4,2.9-5.5c0.5-0.6,1.3-0.7,1.9-0.2c0.6,0.5,0.7,1.3,0.2,1.9c-1,1.2-1.7,2.9-2.5,4.8c-1,2.3-2.2,5.2-4.3,8.3
		c-4,5.9-8.7,8.1-8.9,8.2C135.2,123.5,135,123.5,134.8,123.5z"/>
	<path class="st0" d="M124.4,171.2c-0.4,0-0.9,0-1.3,0c-6.1-0.2-14.5-0.3-19.5-2.7c-0.7-0.3-0.9-1.1-0.6-1.8
		c0.3-0.7,1.1-0.9,1.8-0.6c4.6,2.2,12.7,2.3,18.4,2.4c7.8,0.2,16.1-1.7,22.2-3c5.8-1.3,9.9-2,13.8-2.3c0.7,0,1.4,0.5,1.4,1.2
		c0,0.7-0.5,1.4-1.2,1.4c-3.7,0.3-7.7,0.9-13.4,2.2C140,169.4,132.2,171.2,124.4,171.2z"/>
	<path class="st0" d="M145.3,77.5L145.3,77.5c-0.3,0-0.5,0-0.8,0c-6.2-0.4-15.2-8-20.9-15.3c-5.8-7.4-6.4-11.4-6.8-16.6
		c-0.3-4.9,2.2-15.5,8.8-23.8c0.3-0.4,0.6-0.7,0.9-1.1c3.6-4.7,8.6-11.1,19-11.3c0.1,0,0.3,0,0.4,0c12.3,0,20.7,12.6,22.1,21.7
		c1.3,8.6-1.4,19.8-4.7,27.1c-0.6,1.4-1.2,2.8-1.7,4.1c-1.2,2.9-2.4,5.7-4.1,8.3C155.2,73.9,150.8,77.5,145.3,77.5z M145.8,12
		c-0.1,0-0.2,0-0.3,0c-9.1,0.2-13.5,5.8-17,10.3c-0.3,0.4-0.6,0.8-0.9,1.1c-6.1,7.7-8.5,17.7-8.2,22c0.3,4.9,0.9,8.4,6.2,15.1
		c6.1,7.8,14.3,13.9,19,14.3c3.9,0.3,8-2,10.5-5.7c1.6-2.4,2.6-4.9,3.8-7.9c0.6-1.3,1.1-2.7,1.8-4.2c3.1-6.9,5.7-17.5,4.5-25.6
		C164.3,24.7,157.5,12,145.8,12z"/>
</g>
</svg>
