<?xml version="1.0" encoding="utf-8"?>
<!-- Generator: Adobe Illustrator 23.0.3, SVG Export Plug-In . SVG Version: 6.00 Build 0)  -->
<svg version="1.1" id="Layer_1" xmlns="http://www.w3.org/2000/svg" xmlns:xlink="http://www.w3.org/1999/xlink" x="0px" y="0px"
	 viewBox="0 0 28 34" style="enable-background:new 0 0 28 34;" xml:space="preserve">
<style type="text/css">
	.st0{fill:#03E3FC;}
</style>
<g>
	<path class="st0" d="M19.7,29.6c-2.2,1.1-4.4,1.6-7,1.6c-6.5,0-12-4.7-12-12.4c0-8.1,5.7-15.2,14.4-15.2c6.9,0,11.5,4.9,11.5,11.5
		c0,5.9-3.3,9.4-7,9.4c-1.6,0-3-1-3-3.5h-0.1c-1.4,2.3-3.2,3.5-5.6,3.5c-2.3,0-4.3-1.9-4.3-5c0-4.9,3.9-9.4,9.4-9.4
		c1.7,0,3.2,0.4,4.2,0.8l-1.3,7.2c-0.6,3-0.1,4.4,1.2,4.4c2,0.1,4.3-2.6,4.3-7.2c0-5.8-3.4-9.9-9.6-9.9C8.4,5.4,3,10.6,3,18.6
		c0,6.6,4.3,10.7,10.2,10.7c2.3,0,4.3-0.5,6-1.4L19.7,29.6z M17.6,12.5c-0.4-0.2-1.1-0.3-2-0.3c-3.5,0-6.3,3.3-6.3,7.1
		c0,1.7,0.9,3,2.6,3c2.3,0,4.4-2.9,4.8-5.4L17.6,12.5z"/>
</g>
</svg>
