<svg id="ambu" xmlns="http://www.w3.org/2000/svg" width="110" height="92" viewBox="0 0 110 92">
  <defs>
    <style>
      .cls-1 {
        fill: #fff;
      }
    </style>
  </defs>
  <title>ambu</title>
  <g id="layer1">
    <g id="surface781230">
      <path id="path19802" class="cls-1" d="M92.05,43.66a10.81,10.81,0,0,0-4.14,0c-.29.08-.36.14-.36.42v7.31c0,.62,0,.62-.63.81h0a10.43,10.43,0,0,1-2.31.26,9.52,9.52,0,0,1-2.51-.32c-.39-.1-.39-.21-.39-.75V44.08c0-.34-.13-.36-.6-.47a9.7,9.7,0,0,0-3.72,0c-.47.08-.58.13-.6.47v8.8c0,.55,0,.63.39.76a31.06,31.06,0,0,0,7.43.83,30.19,30.19,0,0,0,7.2-.76c.6-.15.63-.18.63-.78V44.14c0-.34-.11-.4-.39-.48"/>
      <path id="path19804" class="cls-1" d="M69,51.39c0,.62,0,.62-.63.81h0a11.38,11.38,0,0,1-2.43.26,10.24,10.24,0,0,1-2.62-.32C63,52,63,51.93,63,51.39V46.05c0-.55,0-.63.39-.76A10.54,10.54,0,0,1,66,45a11.16,11.16,0,0,1,2.43.26h0c.63.16.63.19.63.82Zm4.24-7.62A30.09,30.09,0,0,0,66,43c-1,0-2.07.05-3,.1V35.66c0-.34-.13-.37-.57-.48A10.38,10.38,0,0,0,60.59,35a9.81,9.81,0,0,0-1.81.18c-.47.08-.57.14-.6.48V52.9c0,.55,0,.63.39.76A30.71,30.71,0,0,0,66,54.5a31.68,31.68,0,0,0,7.27-.76c.6-.16.63-.18.63-.78V44.58c0-.65,0-.68-.63-.81"/>
      <path id="path19806" class="cls-1" d="M54.7,43.77A30.12,30.12,0,0,0,47.42,43,38.59,38.59,0,0,0,42,43.4,35,35,0,0,0,36.48,43a29.76,29.76,0,0,0-7.51.84c-.39.1-.39.21-.39.76v9c0,.34.13.36.6.47a9.7,9.7,0,0,0,3.72,0c.47-.08.57-.13.57-.47V46.12c0-.55,0-.62.42-.75a10.05,10.05,0,0,1,2.59-.32,11.18,11.18,0,0,1,2.41.26h0c.63.16.63.19.63.81h0v7.44c0,.34.13.36.6.47a10.38,10.38,0,0,0,1.86.18A10.27,10.27,0,0,0,43.86,54c.48-.08.58-.13.58-.47V46.12c0-.55,0-.62.42-.75a10.11,10.11,0,0,1,2.59-.32,11.25,11.25,0,0,1,2.41.26h0c.63.16.63.19.63.81v7.44c0,.26.07.34.39.42A10.26,10.26,0,0,0,55,54c.29-.08.37-.13.37-.42v-9c-.08-.68-.08-.71-.68-.84"/>
      <path id="path19808" class="cls-1" d="M19.11,46.15c-.76,0-1.55-.08-2.36-.08s-1.6,0-2.36.08c-.41,0-.49,0-.39-.29L16.54,39c.24-.7.29-.73.52,0l2.41,6.73c.16.42.11.44-.36.39M27,53.48,20.52,36.05c-.24-.63-.26-.63-.92-.79A13.79,13.79,0,0,0,16.88,35a13.87,13.87,0,0,0-2.72.23c-.66.16-.68.19-.92.79L6.39,53.48c-.08.26-.06.34.21.42a8.86,8.86,0,0,0,2,.21,11.49,11.49,0,0,0,2.2-.21c.34-.08.44-.13.55-.42l1.78-4.71c.1-.26.21-.26.71-.34h0c.81-.08,1.83-.16,2.9-.16a26.78,26.78,0,0,1,3.11.18c.29.06.37.08.48.32l1.72,4.68c.11.26.21.34.55.42a11.74,11.74,0,0,0,2.2.21,9.08,9.08,0,0,0,2-.21c.26,0,.28-.13.21-.39"/>
      <path id="path19810" class="cls-1" d="M6.52,57.12H7.3v3.82H6.52Z"/>
      <path id="path19812" class="cls-1" d="M11,58.61a3.4,3.4,0,0,0-.42,0c-.58,0-.76.42-.76.94s.16.89.71.89a3.78,3.78,0,0,0,.49,0V58.61ZM10.65,61A1.47,1.47,0,0,1,9,59.5,1.4,1.4,0,0,1,10.5,58c.07,0,.28,0,.49,0v-1.2h.76v4a5.64,5.64,0,0,1-1.1.1"/>
      <path id="path19814" class="cls-1" d="M14.89,58.5c-.44,0-.6.34-.6.74h1.2c0-.37-.1-.74-.6-.74m-1.44,1A1.37,1.37,0,0,1,14.92,58c1.07,0,1.44.55,1.41,1.73h-2c.05.63.52.76,1,.76a5.39,5.39,0,0,0,.81-.08v.5a5.92,5.92,0,0,1-1,.1c-.89,0-1.65-.42-1.65-1.49"/>
      <path id="path19816" class="cls-1" d="M19.6,59.71h-.44c-.34,0-.63,0-.63.39s.29.39.63.39a3.17,3.17,0,0,0,.44,0ZM19.05,61c-.68,0-1.31-.13-1.31-.92s1.05-.86,1.86-.86c0-.44,0-.63-.7-.63a6.55,6.55,0,0,0-1,.11v-.53a4.46,4.46,0,0,1,1-.1c.68,0,1.46.08,1.46.94v2c-.52,0-.94,0-1.36,0"/>
      <path id="path19818" class="cls-1" d="M23.06,61c-.39,0-.76-.08-1-.1v-.55a3.93,3.93,0,0,0,.92.13c.28,0,.68-.08.68-.34s-.29-.29-.76-.37c-.16,0-.89-.18-.89-.84s.76-.89,1.28-.89a9.63,9.63,0,0,1,1,.08v.5a4.21,4.21,0,0,0-.86-.08c-.24,0-.63,0-.63.31s.42.32.71.34,1,.21,1,.84-.54,1-1.38,1"/>
      <path id="path19820" class="cls-1" d="M29.84,58.61v1.46a.24.24,0,0,0,.28.27h.53v.55H30c-.5,0-.94,0-.94-.76V58.58H28.5V58h.58v-.76s.63-.21.76-.23v1h.89v.55Z"/>
      <path id="path19822" class="cls-1" d="M34.18,60.94V59.11c0-.21-.08-.48-.39-.48a3.33,3.33,0,0,0-.76.16v2.12h-.76V56.83H33v1.46A3.24,3.24,0,0,1,34,58a.85.85,0,0,1,.94.89v2Z"/>
      <path id="path19824" class="cls-1" d="M38.42,59.71H38c-.34,0-.61,0-.61.39s.29.39.61.39a3.1,3.1,0,0,0,.44,0ZM37.87,61c-.68,0-1.31-.13-1.31-.92s1-.86,1.86-.86c0-.44,0-.63-.71-.63a6.4,6.4,0,0,0-1,.11v-.53a4.46,4.46,0,0,1,1-.1c.68,0,1.44.08,1.44.94v2c-.5,0-.92,0-1.34,0"/>
      <path id="path19826" class="cls-1" d="M42,58.61v1.46c0,.21.13.27.29.27h.52v.55h-.63c-.49,0-.94,0-.94-.76V58.58h-.57V58h.57v-.76s.63-.21.76-.23v1h.89v.55Z"/>
      <path id="path19828" class="cls-1" d="M50.54,60.94H49.6L49,58.87H49l-.58,2.07h-.94l-.71-2.85h.74s.47,2,.47,2.22h0c0-.21.58-2.22.58-2.22h.94s.55,2,.55,2.22h0c0-.21.5-2.22.5-2.22h.62Z"/>
      <path id="path19830" class="cls-1" d="M54,58.56c-.55,0-.73.34-.73,1s.18,1,.73,1,.71-.34.71-1-.16-1-.71-1M54,61A1.39,1.39,0,0,1,52.5,59.5,1.41,1.41,0,0,1,54,58a1.39,1.39,0,0,1,1.52,1.49A1.44,1.44,0,0,1,54,61"/>
      <path id="path19832" class="cls-1" d="M57.94,58.87v2.07h-.75V58.09h.68v.26A1.75,1.75,0,0,1,59,58.06v.63a1.84,1.84,0,0,0-1.05.18"/>
      <path id="path19834" class="cls-1" d="M62.34,60.94l-1.15-1.47v1.47h-.76V56.86h.76v2.46l1.15-1.23h.92L62,59.39,63.34,61h-1Z"/>
      <path id="path19836" class="cls-1" d="M68.41,58.61v2.3h-.76v-2.3H67.1v-.55h.55V57.8A.91.91,0,0,1,68,57a1.1,1.1,0,0,1,.63-.16h.71v.52H69c-.45,0-.55,0-.55.5v.21h.86v.55Z"/>
      <path id="path19838" class="cls-1" d="M72.13,58.56c-.55,0-.73.34-.73,1s.18,1,.73,1,.71-.34.71-1-.19-1-.71-1m0,2.43a1.39,1.39,0,0,1-1.52-1.49A1.41,1.41,0,0,1,72.13,58a1.39,1.39,0,0,1,1.52,1.49A1.45,1.45,0,0,1,72.13,61"/>
      <path id="path19840" class="cls-1" d="M76.06,58.87v2.07H75.3V58.09H76v.26a1.75,1.75,0,0,1,1.12-.29v.63a1.76,1.76,0,0,0-1,.18"/>
      <path id="path19842" class="cls-1" d="M81.29,56.83h.76v4.08h-.76Z"/>
      <path id="path19844" class="cls-1" d="M83.88,58.06h.76v2.85h-.76Zm0-1.23h.76v.71h-.76Z"/>
      <path id="path19846" class="cls-1" d="M87.52,58.61v2.3h-.76v-2.3h-.55v-.55h.55V57.8A.91.91,0,0,1,87.1,57a1,1,0,0,1,.63-.16h.71v.52h-.35c-.44,0-.54,0-.54.5v.21h.86v.55Z"/>
      <path id="path19848" class="cls-1" d="M91.16,58.5c-.45,0-.63.34-.63.74h1.2c0-.37-.08-.74-.57-.74m-1.44,1A1.36,1.36,0,0,1,91.18,58c1,0,1.44.55,1.42,1.73H90.53c0,.63.52.76,1,.76a6.31,6.31,0,0,0,.84-.08v.5a5.92,5.92,0,0,1-1,.1c-.92,0-1.65-.42-1.65-1.49"/>
      <path id="path19850" class="cls-1" d="M98.64,40.52a11.24,11.24,0,0,1,4.19,2,.23.23,0,0,0,.31,0,6.1,6.1,0,0,0,.81-.74,3.32,3.32,0,0,0,.63-.89c.08-.13.08-.21,0-.31l0,0a13.06,13.06,0,0,0-6.86-2.69,12.92,12.92,0,0,0-3.42,6.54v0c0,.13,0,.21.18.23a4,4,0,0,0,1,.24,3.65,3.65,0,0,0,1.09,0c.16,0,.21,0,.21-.2a10.8,10.8,0,0,1,1.86-4.17"/>
      <path id="path19852" class="cls-1" d="M99.69,34.5a10.64,10.64,0,0,1-.34-4.6.2.2,0,0,0-.16-.26,4.47,4.47,0,0,0-1-.34,5.45,5.45,0,0,0-1.07-.13c-.16,0-.21,0-.23.18v0a12.76,12.76,0,0,0,1,7.31,13.23,13.23,0,0,0,7.38-.21h0c.13-.08.16-.11.13-.26a7.16,7.16,0,0,0-.31-1.05,7.85,7.85,0,0,0-.5-1c-.08-.13-.13-.16-.29-.1a11.42,11.42,0,0,1-4.63.41"/>
      <path id="path19854" class="cls-1" d="M93.93,36.6a11,11,0,0,1-3.82,2.59c-.13.05-.16.1-.16.26a6.1,6.1,0,0,0,.21,1,4.54,4.54,0,0,0,.42,1c.08.13.13.19.26.13h0a13.26,13.26,0,0,0,5.81-4.55,12.74,12.74,0,0,0-3.9-6.28h0a.18.18,0,0,0-.28,0,9.74,9.74,0,0,0-.76.79,4.79,4.79,0,0,0-.58.92c-.08.13-.08.2.05.28a11.08,11.08,0,0,1,2.75,3.8"/>
    </g>
  </g>
</svg>
