<svg id="cowi" xmlns="http://www.w3.org/2000/svg" width="110" height="92" viewBox="0 0 110 92">
  <defs>
    <style>
      .cls-1 {
        fill: #fff;
      }
    </style>
  </defs>
  <title>cowi</title>
  <path class="cls-1" d="M28.17,34.14a6,6,0,0,1,3.27.93c1.27.74,2.06.45,2.06-.71v-.69h1v8.46h-.92c-.52-4.48-2.34-6.91-5.43-6.91-3.59,0-5.12,3.81-5.12,8.91S24.59,53,28.18,53c4.44,0,6.54-3.24,7.31-8.86l.27-2c.68-4.68,3.82-8,8.79-8,5.64,0,9.06,4.28,9.06,10s-3.42,10-9.06,10a8.4,8.4,0,0,1-8.49-6.47l0-.17-.06.28c-1.09,3.32-3,6.36-7.8,6.36-5.66,0-8.93-4.26-8.93-10s3-10,8.92-10m11.26,10c0,5.07,1.87,8.89,5.11,8.89s5.11-3.82,5.11-8.89-1.87-8.91-5.11-8.91S39.43,39,39.43,44.13m18.38-7.84c-.18-.57.13-.91.7-.91H60v-1H50.5v1h2.17a1.29,1.29,0,0,1,1.27.9l5.71,17.59h2.16l3.9-12.2,3.76,12.2h2.47l5.25-17.17a1.65,1.65,0,0,1,1.69-1.32c.58,0,.89.43.89,1V51.84a.9.9,0,0,1-.89,1H75.7v1h12v-1H84.48a.91.91,0,0,1-.89-1V36.41a.91.91,0,0,1,.89-1h3.19v-1H72.37v1h1.77c1.28,0,1.76.68,1.4,2L71.91,49.21l-4-12.91c-.19-.58.12-.92.69-.92h2.3v-1H61.43v1h1.34A1.28,1.28,0,0,1,64,36.3L65,39.4l-3,9.55Z"/>
</svg>
