<svg id="danske_bank" data-name="danske bank" xmlns="http://www.w3.org/2000/svg" width="110" height="92" viewBox="0 0 110 92">
  <defs>
    <style>
      .cls-1, .cls-2 {
        fill: #fff;
      }

      .cls-2 {
        fill-rule: evenodd;
      }
    </style>
  </defs>
  <title>danske_bank</title>
  <g>
    <g>
      <path class="cls-1" d="M28.73,50.88a2.47,2.47,0,0,0,1.39.24,4,4,0,0,0,1.45-.18c.55-.18.55-.61.55-1v-.66H30.18a3.28,3.28,0,0,0-1.39.12c-.24.12-.36.36-.36.84S28.55,50.82,28.73,50.88Z"/>
      <path class="cls-1" d="M63.69,47.85c-.18-.48-.67-.66-1.7-.66a2.85,2.85,0,0,0-1.51.3A1.47,1.47,0,0,0,60,48.64h3.75A1.49,1.49,0,0,0,63.69,47.85Z"/>
      <path class="cls-1" d="M24.13,48.58h0V47.37c0-1.21-.54-2.36-2.9-2.36h-3v6h3.08C23.29,50.94,24.13,50.15,24.13,48.58Z"/>
      <path class="cls-1" d="M.61,55.6H68.77V39.33H.61Zm58.54-8.17c.36-.72,1.33-1.09,2.84-1.09a3.64,3.64,0,0,1,2.48.67A2.31,2.31,0,0,1,65,48.76v.55h-4.9v.12a2.05,2.05,0,0,0,.3,1.27,2.57,2.57,0,0,0,1.69.36c1,0,1.34-.06,1.52-.24a1.11,1.11,0,0,0,.18-.73H65v.61c0,.3-.18.72-.85.9a7.8,7.8,0,0,1-2.12.25,4.44,4.44,0,0,1-2.11-.37,2.34,2.34,0,0,1-1-2.29A3.31,3.31,0,0,1,59.15,47.43ZM52,44.1h1.15v4.42h.43L56,46.46h1.39l-2.72,2.36,3.38,3H56.43l-2.84-2.54h-.43v2.54H52Zm-8.16,6H45a2,2,0,0,1,.06.43c.06.24,0,.42.3.48a4.38,4.38,0,0,0,1.39.12,3.93,3.93,0,0,0,1.64-.24.64.64,0,0,0,.36-.67c0-.42-.12-.6-.55-.66a1,1,0,0,1-.42-.06H46.39C45.24,49.43,44,49.37,44,48s.79-1.64,2.84-1.64c.55,0,1.21.06,1.58.06a2,2,0,0,1,1,.31.92.92,0,0,1,.37.84V48H48.63l-.06-.25c-.06-.3-.06-.36-.18-.42A3.28,3.28,0,0,0,47,47.19a4.32,4.32,0,0,0-1.46.18.61.61,0,0,0-.42.67.66.66,0,0,0,.24.54,10.46,10.46,0,0,0,2.48.18,3.9,3.9,0,0,1,1.33.18c.61.18.85.61.85,1.39a1.28,1.28,0,0,1-.67,1.27,6.58,6.58,0,0,1-2.6.37,9.39,9.39,0,0,1-2-.18c-.55-.13-.85-.37-.85-.85A1.38,1.38,0,0,1,43.85,50.09Zm-8.1-3.69h1l.06.37a3.07,3.07,0,0,1,.67-.31A5.19,5.19,0,0,1,39,46.28a4.65,4.65,0,0,1,1.76.3,1.44,1.44,0,0,1,.78,1,5.65,5.65,0,0,1,.06,1.15v3.09H40.46v-3c0-1-.06-1.27-.3-1.45a2.48,2.48,0,0,0-1.39-.3,6.67,6.67,0,0,0-1.87.24v4.42H35.75Zm-8.23,2.79a2.35,2.35,0,0,1,2-.61h2.66V48a.72.72,0,0,0-.24-.67,4,4,0,0,0-1.76-.18c-.78,0-1,.06-1.21.18a1.16,1.16,0,0,0-.18.61H27.64c0-.25-.06-.43-.06-.55a.73.73,0,0,1,.24-.54,5.15,5.15,0,0,1,2.48-.49c.67,0,2.12,0,2.66.49a1.09,1.09,0,0,1,.43.72,7.49,7.49,0,0,1,.06,1.27v3h-1l-.12-.49a3.22,3.22,0,0,1-2.18.55c-2.05,0-2.84-.43-2.84-1.7A1.46,1.46,0,0,1,27.52,49.19ZM17,44.1h4c1.75,0,4.35.13,4.35,3.39v1c0,1.45-.54,3.33-4,3.33H17Z"/>
      <path class="cls-1" d="M70.4,39.33V55.6h38.95V39.33Zm38.52,15.84H70.82V39.75h38.1Z"/>
    </g>
    <path class="cls-2" d="M80.44,46c0,1.15-.67,1.39-2,1.39h-3V45h3.08c1.21,0,1.88.12,1.88,1.09ZM82,49.67c0-1-.54-1.69-1.87-1.88h0c1-.24,1.57-.78,1.57-1.63,0-1.39-.67-2.06-2.6-2.06h-4.9v7.75h5.08c1.81,0,2.72-.79,2.72-2.18Zm-1.27.06c0,1.09-.78,1.21-2,1.21H75.48V48.28h3.39C80.32,48.28,80.68,48.76,80.68,49.73Zm7.68.18c0,.48-.06.85-.54,1a4,4,0,0,1-1.45.18,2.91,2.91,0,0,1-1.46-.24c-.18-.12-.24-.3-.24-.67s.12-.72.37-.84.48-.12,1.39-.12h1.93v.66Zm1.21,1.94v-3a7.43,7.43,0,0,0-.06-1.27,1.28,1.28,0,0,0-.42-.72,5.46,5.46,0,0,0-2.66-.49,5.1,5.1,0,0,0-2.48.49.65.65,0,0,0-.24.54,2.17,2.17,0,0,0,.06.55h1.14a1.18,1.18,0,0,1,.19-.61c.18-.18.42-.18,1.21-.18a5.85,5.85,0,0,1,1.81.18c.24.12.24.42.24.67v.54H85.7a2.36,2.36,0,0,0-2,.6,1.7,1.7,0,0,0-.31,1c0,1.27.79,1.7,2.85,1.7a3.26,3.26,0,0,0,2.17-.55l.12.43,1,.12Zm6.84,0v-3c0-1-.06-1.27-.31-1.45a2.58,2.58,0,0,0-1.45-.3,6.4,6.4,0,0,0-1.87.24v4.42H91.63V46.34h1l.06.37a2.81,2.81,0,0,1,.66-.31,5.19,5.19,0,0,1,1.51-.18,4.65,4.65,0,0,1,1.76.3,1.44,1.44,0,0,1,.78,1,5.65,5.65,0,0,1,.06,1.15v3.09l-1.08.12m7.62,0-2.85-2.54h-.42v2.54H99.61V44.1h1.15v4.42h.42l2.36-2.06h1.39l-2.72,2.36,3.39,3H104"/>
  </g>
</svg>
