<svg id="genmap" xmlns="http://www.w3.org/2000/svg" width="110" height="92" viewBox="0 0 110 92">
  <defs>
    <style>
      .cls-1 {
        fill: #fff;
      }
    </style>
  </defs>
  <title>genmap</title>
  <g>
    <path class="cls-1" d="M22.84,51.92c1.2,0,2.24-1.3,2.24-2.87s-1-2.92-2.24-2.92-2.25,1.3-2.25,2.92,1,2.87,2.25,2.87"/>
    <path class="cls-1" d="M22.84,45c1.2,0,2.24-1.3,2.24-2.92s-1-2.87-2.24-2.87-2.25,1.3-2.25,2.87,1,2.92,2.25,2.92"/>
    <path class="cls-1" d="M20.77,38.47a2.62,2.62,0,0,0-1.61-3.28c-1.39-.67-3-.36-3.49.77s.18,2.6,1.56,3.31,3,.32,3.54-.8"/>
    <path class="cls-1" d="M41.08,44.65l-.77,1.08a5.36,5.36,0,0,0-3.13-1.12,3.58,3.58,0,0,0-3.63,2.47A10.63,10.63,0,0,0,33,50.75a8,8,0,0,0,1,4.44,4.37,4.37,0,0,0,3.5,1.52,4.69,4.69,0,0,0,2.33-.54V51.74h-3l-.31-1.44h4.89v6.77a7.84,7.84,0,0,1-4.08,1.08,6,6,0,0,1-4.48-1.79,8,8,0,0,1-1.8-5.65c0-2.78.72-4.75,2.25-6.09a5.33,5.33,0,0,1,3.8-1.39,5.81,5.81,0,0,1,3.95,1.42"/>
    <path class="cls-1" d="M51.07,55.77l.68,1a5.32,5.32,0,0,1-3.59,1.3c-2.91,0-4.66-2.11-4.66-5.6a5.67,5.67,0,0,1,1.26-4A4,4,0,0,1,47.94,47a3.71,3.71,0,0,1,2.82,1.17c.94.94,1.17,1.92,1.21,4.48v.22H45.38v.23a4.18,4.18,0,0,0,.5,2.33,3,3,0,0,0,2.64,1.3,3.65,3.65,0,0,0,2.55-1m-5.69-4.12h4.84a4.52,4.52,0,0,0-.49-2.38,2.27,2.27,0,0,0-1.89-.9c-1.52,0-2.37,1.08-2.46,3.28"/>
    <path class="cls-1" d="M54.12,47.52l1.61-.45a3.61,3.61,0,0,1,.36,1.66,4.89,4.89,0,0,1,3.36-1.61A2.74,2.74,0,0,1,62,48.64a3,3,0,0,1,.27,1.25v8H60.62V50.74c0-1.11-.09-1.43-.41-1.74a1.53,1.53,0,0,0-1.16-.45A4.82,4.82,0,0,0,56.13,50v7.85H54.52V50a4.59,4.59,0,0,0-.4-2.5"/>
    <path class="cls-1" d="M65.1,47.48l1.61-.41a3.77,3.77,0,0,1,.4,1.48v.09a4.72,4.72,0,0,1,1.26-1,3.53,3.53,0,0,1,1.79-.58,2.69,2.69,0,0,1,2.11,1,4.34,4.34,0,0,1,.36.72A5,5,0,0,1,76,47.07a2.66,2.66,0,0,1,2.65,2.87v7.94H77v-7.8c0-1-.49-1.52-1.34-1.52a2.72,2.72,0,0,0-1.57.58A11.53,11.53,0,0,0,73,50l-.18.18v7.72H71.15V50.4c0-.9,0-1.08-.31-1.35a1.24,1.24,0,0,0-1.08-.44A4.23,4.23,0,0,0,67.07,50v7.89H65.51V50a5,5,0,0,0-.41-2.56"/>
    <path class="cls-1" d="M81.28,48.46a8.18,8.18,0,0,1,4.44-1.39,2.9,2.9,0,0,1,2.91,1.66,4.27,4.27,0,0,1,.23,1.79v.54l-.09,3.45V55c0,1.29.18,1.74.85,2.1l-.85,1.17a2.16,2.16,0,0,1-1.44-1.53,3.93,3.93,0,0,1-3,1.39,3.28,3.28,0,0,1-2.56-.85,3.09,3.09,0,0,1-.8-2.15c0-2.38,2-3.77,5.55-3.77h.76v-.72c0-.94,0-1.34-.36-1.65a1.59,1.59,0,0,0-1.38-.59,5.66,5.66,0,0,0-2.07.45,3.7,3.7,0,0,0-1.29.81Zm5.91,4.08a6.41,6.41,0,0,0-.85,0c-1.57,0-2.47.26-3,.85A2.17,2.17,0,0,0,82.76,55c0,1.25.58,1.92,1.79,1.92a3,3,0,0,0,2.59-1.65Z"/>
    <path class="cls-1" d="M93.38,42.37A9.81,9.81,0,0,1,93.69,45v2.33c0,.54,0,1.08,0,1.17a4,4,0,0,1,3-1.39c2.51,0,4.08,2.06,4.08,5.33s-1.66,5.7-4.17,5.7a4,4,0,0,1-2.91-1.39,2.17,2.17,0,0,1-.32,1.12H91.72a6.45,6.45,0,0,0,.32-2.6v-10a5.92,5.92,0,0,0-.45-2.51ZM93.64,50v5.43a3.46,3.46,0,0,0,2.6,1.25,2.56,2.56,0,0,0,1.93-.89,6.49,6.49,0,0,0,.72-3.41,4.92,4.92,0,0,0-.58-2.82,2.43,2.43,0,0,0-2-.95,3.13,3.13,0,0,0-1.88.68,2.07,2.07,0,0,0-.77.71"/>
    <path class="cls-1" d="M14.59,35.46c.54-1.12-.18-2.6-1.61-3.32A2.61,2.61,0,0,0,9.44,33c-.54,1.12.18,2.56,1.61,3.28s3,.35,3.54-.77"/>
    <path class="cls-1" d="M24.9,38.47a2.61,2.61,0,0,1,1.62-3.28c1.38-.67,3-.36,3.49.77s-.18,2.6-1.57,3.31-3,.32-3.54-.8"/>
    <path class="cls-1" d="M31.08,35.46c-.54-1.12.18-2.6,1.62-3.32a2.62,2.62,0,0,1,3.54.81,2.73,2.73,0,0,1-1.62,3.28c-1.43.66-3,.35-3.54-.77"/>
  </g>
</svg>
