<svg id="isover" xmlns="http://www.w3.org/2000/svg" width="110" height="92" viewBox="0 0 110 92">
  <defs>
    <style>
      .cls-1 {
        fill: #fff;
      }
    </style>
  </defs>
  <title>isover</title>
  <path class="cls-1" d="M11.23,30.19a169.13,169.13,0,0,0-.77,17.06H4.6a162.07,162.07,0,0,0,.92-17.06Z"/>
  <path class="cls-1" d="M12.27,43.23a17.09,17.09,0,0,0,5.66,1.26c1.23,0,3-.33,3-1.78,0-2.4-7.49-4.27-7.49-8.23,0-2.82,2.27-4.71,7.49-4.71a36.2,36.2,0,0,1,5.85.56l.23,3.5a12.11,12.11,0,0,0-4.3-.89c-1.63,0-3.29.16-3.29,1.64,0,2.15,7.48,4.2,7.48,8.42,0,3.56-4.54,4.65-7.88,4.65a34.47,34.47,0,0,1-6.34-.7Z"/>
  <path class="cls-1" d="M59.72,43.38l-.08.13,5.42-13.32H71c-3,5.65-5.8,11.33-8.56,17.06h-6c-2.12-5.73-4.56-11.34-6.87-17.06h5.67Z"/>
  <path class="cls-1" d="M74.75,39v.55c0,3.17,2.49,5,6,5a24.37,24.37,0,0,0,6.57-1.1L86.66,47a34.22,34.22,0,0,1-6.4.65c-10.18,0-11-6-11-8.34,0-3.13,1.39-9.55,10.67-9.55,5.34,0,9.23,2.32,9.23,7.22a9,9,0,0,1-.24,2Zm0-.49a22.29,22.29,0,0,1,8.87-1.73.35.35,0,0,0,.26-.09c0-2.65-1.08-4-4.1-4a4.72,4.72,0,0,0-4.88,4Z"/>
  <path class="cls-1" d="M95.7,33.5h.08a6,6,0,0,1,5.3-3.72,12,12,0,0,1,2,.22L103,34a8.76,8.76,0,0,0-2.16-.33,4.81,4.81,0,0,0-5,4,42.77,42.77,0,0,0-.48,7.47v2.14H89.8c.36-4.86.76-9.42.76-17.06h5.26Z"/>
  <path class="cls-1" d="M35.07,46.35c.22.06.46.1.7.14L37,46.21a4.45,4.45,0,0,1-.48-.26Z"/>
  <path class="cls-1" d="M33.34,45.8l.39.16,2.08-.47-.38-.27Z"/>
  <path class="cls-1" d="M34.59,44.44,32,45.15l.3.16,2.62-.57a4,4,0,0,1-.29-.3"/>
  <path class="cls-1" d="M30.84,44.44a2.07,2.07,0,0,1,.25.19l3-.69-.25-.32Z"/>
  <path class="cls-1" d="M29.9,43.68l.21.18,3.4-.78c-.07-.11-.15-.22-.21-.33Z"/>
  <path class="cls-1" d="M28.53,42c0,.08.1.15.14.23l4-.87-.15-.44Z"/>
  <path class="cls-1" d="M29.16,42.88l.16.18,3.7-.82c-.06-.12-.12-.23-.17-.35Z"/>
  <path class="cls-1" d="M28,41.16l.13.26,4.2-1c0-.17-.07-.31-.1-.48Z"/>
  <path class="cls-1" d="M32.17,39l-4.51,1.24c0,.1.06.22.1.32l4.45-1a.41.41,0,0,1,0-.11c0-.15,0-.29,0-.45"/>
  <path class="cls-1" d="M27.38,39.31l.09.35,4.69-1.06q0-.3,0-.63Z"/>
  <path class="cls-1" d="M27.23,38.34s0,.1,0,.15a2,2,0,0,1,0,.24l4.94-1.14q0-.35.12-.69Z"/>
  <path class="cls-1" d="M27.21,37.3c0,.15,0,.29,0,.48l5.19-1.17a7.24,7.24,0,0,1,.25-.79Z"/>
  <path class="cls-1" d="M27.34,36.25c0,.19-.06.36-.08.53l5.47-1.21c.13-.32.29-.63.45-1Z"/>
  <path class="cls-1" d="M37.42,28.05A12.15,12.15,0,0,0,29,32.56l1.81-.37-1.95.57a9.7,9.7,0,0,0-.58.93l3.59-.79L28.12,34c-.11.27-.23.51-.33.77l5.15-1.08-5.3,1.5a5.79,5.79,0,0,0-.18.63l5.8-1.29A9.85,9.85,0,0,1,41,29.6a10.4,10.4,0,0,1,5.14.73,12.28,12.28,0,0,0-8.69-2.28"/>
  <path class="cls-1" d="M43.34,30.69l-.68-.12-1.23.26.49.26Z"/>
  <path class="cls-1" d="M45.11,31.23l-.4-.15-2.08.47.34.27Z"/>
  <path class="cls-1" d="M43.84,32.6l2.62-.72c-.1-.06-.2-.1-.29-.16l-2.63.59a2.76,2.76,0,0,0,.3.29"/>
  <path class="cls-1" d="M47.58,32.6l-.23-.17-3.06.68a2.13,2.13,0,0,1,.28.33Z"/>
  <path class="cls-1" d="M48.52,33.37l-.22-.2-3.37.77c.07.11.13.23.21.35Z"/>
  <path class="cls-1" d="M49.92,35l-.17-.25-4,.9a4,4,0,0,1,.16.45Z"/>
  <path class="cls-1" d="M49.25,34.15a1.62,1.62,0,0,0-.17-.19l-3.68.83.15.38Z"/>
  <path class="cls-1" d="M50.41,35.89c0-.08-.08-.18-.13-.26l-4.22.94c0,.16.06.33.1.49Z"/>
  <path class="cls-1" d="M46.26,38.06l4.53-1.28c0-.1-.07-.19-.11-.29l-4.47,1s0,.07,0,.1a4.23,4.23,0,0,1,0,.47"/>
  <path class="cls-1" d="M51,37.74a3.59,3.59,0,0,0-.08-.35l-4.69,1.06c0,.21,0,.41,0,.63Z"/>
  <path class="cls-1" d="M51.19,38.73a1,1,0,0,1,0-.16l0-.23-4.93,1.11c0,.25-.07.47-.11.71Z"/>
  <path class="cls-1" d="M51.2,39.75c0-.15,0-.3,0-.45L46,40.44a8.45,8.45,0,0,1-.26.81Z"/>
  <path class="cls-1" d="M51.09,40.78c0-.17.06-.37.09-.55l-5.49,1.25c-.12.3-.25.61-.41.93Z"/>
  <path class="cls-1" d="M41,49a12.05,12.05,0,0,0,8.42-4.51l-1.81.36,2-.56a7.92,7.92,0,0,0,.58-.92l-3.61.78L50.34,43c.12-.24.22-.5.34-.76L45.5,43.38l5.31-1.5a6.48,6.48,0,0,0,.17-.63L45.2,42.52a10,10,0,0,1-7.73,4.94,10.37,10.37,0,0,1-5.12-.72A12.36,12.36,0,0,0,41,49"/>
  <rect class="cls-1" x="4.62" y="58.4" width="100.72" height="0.85"/>
  <polygon class="cls-1" points="67.93 51.23 66.31 51.23 66.31 50.26 70.48 50.26 70.48 51.23 68.95 51.23 68.95 56.27 67.93 56.27 67.93 51.23"/>
  <rect class="cls-1" x="70.17" y="53.2" width="2.1" height="0.99"/>
  <path class="cls-1" d="M75.45,53.19h3.72v.12a3,3,0,1,1-3-3.18A2.9,2.9,0,0,1,78.89,52H77.66a1.73,1.73,0,0,0-1.5-.87,2,2,0,0,0-2,2.1,2,2,0,0,0,2,2.08,1.79,1.79,0,0,0,1.65-1.15H75.45v-1Z"/>
  <path class="cls-1" d="M87.49,53.5h.84a.87.87,0,0,1,1,.93c0,.6-.55.77-1,.77h-.81V53.5Zm-1,2.77h1.77a2.39,2.39,0,0,0,1.49-.39,1.67,1.67,0,0,0,.69-1.4,1.39,1.39,0,0,0-1-1.49,1.22,1.22,0,0,0,.63-1.16,1.54,1.54,0,0,0-.48-1.11,2.4,2.4,0,0,0-1.79-.46H86.46v6Zm1-5h.7c.66,0,.86.28.86.67,0,.64-.68.64-1,.64h-.61Z"/>
  <rect class="cls-1" x="96.38" y="50.26" width="1.09" height="6.01"/>
  <path class="cls-1" d="M82.75,50.14a3.13,3.13,0,1,0,3.13,3.11,3.09,3.09,0,0,0-3.13-3.11m0,5.19a2.06,2.06,0,0,1-2-2.09,2.09,2.09,0,0,1,2-2.09,2.13,2.13,0,0,1,2.12,2.09,2.11,2.11,0,0,1-2.12,2.09"/>
  <path class="cls-1" d="M90.36,56.27l2.37-6h.82l2.34,6H94.8l-.56-1.53H92l-.57,1.53Zm2.8-4.47h0l-.78,2h1.53Z"/>
  <polygon class="cls-1" points="98.49 50.26 99.55 50.26 102.04 54.19 102.04 50.26 103.07 50.26 103.07 56.27 102.1 56.27 99.53 52.12 99.53 56.27 98.49 56.27 98.49 50.26"/>
  <path class="cls-1" d="M50.25,54.54a1,1,0,0,0,1,.79.84.84,0,0,0,.87-.75c0-.6-.47-.79-1.17-1.07-.51-.18-1.5-.4-1.5-1.65a1.75,1.75,0,0,1,1.82-1.73A1.77,1.77,0,0,1,53,51.86H52a.72.72,0,0,0-.76-.71c-.33,0-.75.25-.75.6,0,.55.53.71,1.11.91a1.88,1.88,0,0,1-.35,3.73,2,2,0,0,1-2-1.85Z"/>
  <rect class="cls-1" x="59.11" y="50.26" width="1.04" height="6.01"/>
  <path class="cls-1" d="M53,56.27l2.41-6h.8l2.35,6H57.5l-.57-1.53H54.7l-.58,1.53Zm2.82-4.47h0l-.75,2h1.5Z"/>
  <polygon class="cls-1" points="61.18 50.26 62.23 50.26 64.73 54.18 64.73 50.26 65.77 50.26 65.77 56.27 64.79 56.27 62.21 52.11 62.21 56.27 61.18 56.27 61.18 50.26"/>
</svg>
