<svg id="lundbeck" xmlns="http://www.w3.org/2000/svg" width="110" height="92" viewBox="0 0 110 92">
  <defs>
    <style>
      .cls-1 {
        fill: #fff;
      }
    </style>
  </defs>
  <title>lundbeck</title>
  <g>
    <path class="cls-1" d="M45.22,48.29a.8.8,0,0,0,.76-.83s0-1.84-1.7-1.84a3.26,3.26,0,0,0-2.79,2c-1,0-2,0-2.19,0,0,0-.11-1-.84-.87,0,0-1.2.37-.34,1.45a.74.74,0,0,0,.34.21s.7,1.23-.42,1.83c0,0-1.16.73-1.13-1.86,0,0,.05-6.84-.16-8.41a1.85,1.85,0,0,0-1-1.36s-.39-.24-.42.26L35.26,49.5a1.51,1.51,0,0,0,.65,1.31,2.3,2.3,0,0,0,3.41-.47,2.38,2.38,0,0,0,.13-2h1.78a4.32,4.32,0,0,0-.1.56,2.06,2.06,0,0,0,2.18,2.41,2.75,2.75,0,0,0,2.38-1.78s.16-.68-.47-.11c0,0-.94,1.5-2.12.69a2.08,2.08,0,0,1-.46-1.78Zm-2.07-1.41s.68-.94,1.26-.73a.83.83,0,0,1,.36,1.2s0,.34-1.7.24h-.25a4.89,4.89,0,0,1,.33-.71Z"/>
    <path class="cls-1" d="M53.46,38.43a1.16,1.16,0,0,0-1.32,1.27l0,7.33c-.25.72-1.2,2.69-2.6,3.15,0,0-1.78.58-1.5-1.6a3.88,3.88,0,0,1,1-2.25s.79-.7.82.36V47a.41.41,0,0,0-.24.57s.34.88.81.54a.58.58,0,0,0,.18-.34,2,2,0,0,0-.39-2s-1.53-1.23-3.3,1.08c0,0-1.7,2.91.74,4,0,0,2.45.94,4.44-2.16v2.11s-.1.18.42.13c0,0,.81,0,.92-.5V49a.7.7,0,0,0,.49.3,2.25,2.25,0,0,0,1.59-.12,1.62,1.62,0,0,1,.56,1.43c.08.69,0,9.23,0,10.46a2,2,0,0,0,1.15,1.73c.45.26.42-.26.42-.26l-.15-11.06c0-1.81-.92-2.42-1.49-2.62a2.94,2.94,0,0,0,.47-.41A1.7,1.7,0,0,0,56,45.49a2.46,2.46,0,0,0-2.5.75V38.55c0-.12-.09-.12-.09-.12Zm1,9.89a1.88,1.88,0,0,0-.76.16.47.47,0,0,0-.21.21V47.28a2.5,2.5,0,0,1,1.41-.77.88.88,0,0,1,1,.89s0,1.08-1.39.92Z"/>
    <path class="cls-1" d="M33.7,49.76c-.09-.62,0-9.75,0-9.75a1.72,1.72,0,0,0-.56-1.22s-.49-.52-.74,0c0,0,0,4.05,0,7.52h0a3,3,0,0,0-4,.7,3.26,3.26,0,0,0-.75,2.45c-.22.24-.67.68-.82.24,0,0-.21-1.25-1-1.3,0,0-.34-.16-1,.74,0,0-.31.38-.35-.28,0,0,0-1.36-1-1.26,0,0-.56-.07-1.72,1.68,0,0-.62.66-.73-.18,0,0,0-2.65-1.15-1.6,0,0-1,1.08-1.72,1.92,0,0-.48.42-.55-.35,0,0,0-3.08-.91-3.08,0,0-.84-.28-1.54,2.8,0,0-.13,1.85-1.5,1.57a49.12,49.12,0,0,0-5-.57A2.78,2.78,0,0,0,9,49.2a10.46,10.46,0,0,0,.7-4s-.07-11.87-.49-13.09c0,0-.21-.73-.73-.45,0,0-.87-.07-.73,5.27,0,0,.1,8.27.21,10.13a5.67,5.67,0,0,1-.31,2.68A8.47,8.47,0,0,0,4.38,50s-1.24.68,0,1.19a4.86,4.86,0,0,0,3.45-.49,36.54,36.54,0,0,0,6.27.66,1.42,1.42,0,0,0,1.53-1.08c.58-1.45.7-.28.7-.28,0,1.44.49,1.54.49,1.54.6.45,2-1.33,2-1.33.84-1.29.84-.56.84-.56-.07,1.29.7,1.58.7,1.58.94.34,1.95-1.37,1.95-1.37.77-1.33.88-.73.88-.73a14.6,14.6,0,0,0,0,1.67c.28,1.3,1.75-.42,1.75-.42.42-.66.49-.38.49-.38.24,1,.94,1,.94,1,.61,0,1.2-.7,1.48-1.1a2.45,2.45,0,0,0,.3.44,2.3,2.3,0,0,0,3,.45,6.32,6.32,0,0,0,1.31-1.42c0,.5,0,.92,0,1.21,0,0,.18,1,1,.28,0,0,.21-.07.26-.59a5.51,5.51,0,0,0,0-.56Zm-2.24-.52c-1.75,1.5-2.24-.07-2.24-.07-.24-2.2,2.17-2.45,2.17-2.45a1.43,1.43,0,0,1,1,.33v.87a3.15,3.15,0,0,1-1,1.32Z"/>
    <path class="cls-1" d="M21.88,55.18s7.41-.32,21.29,0a1.85,1.85,0,0,1,1.36.59l-21.46.91s-3.25-.07-2.13-1.15a1.81,1.81,0,0,1,.94-.35Z"/>
  </g>
  <path class="cls-1" d="M106.48,30.53a1.61,1.61,0,0,0-.48-.74c-.55-.56-1.38-.23-2.06-.22a1.23,1.23,0,0,0-.8.25,2.92,2.92,0,0,1-.34.13.45.45,0,0,1-.11,0c-.25.05-.5-.05-.72.09-.58.44-1.41.29-2,.75a3.46,3.46,0,0,1-1.11.7c-.11,0-.18.05-.26.07-.66.34-1.35.61-2,.92a5.75,5.75,0,0,0-1.16.43.87.87,0,0,0-.64.24l0,0c-.08,0-.12.09-.19.18-.28.15-.68,0-1,0-.23.2-.58.11-.85.21a5.31,5.31,0,0,1-2,.34l0,0c-.29,0-.52,0-.82,0l-.56-.18c-.3,0-.45-.39-.64-.59a1.86,1.86,0,0,1-.44-.39s0-.05,0,0a2.8,2.8,0,0,1-.42-.87,1.66,1.66,0,0,0-.06-.21l-.07-.22A4.86,4.86,0,0,1,87,29.86a5.57,5.57,0,0,0-1.08-3.13,1.58,1.58,0,0,0-.75-.19h0a.55.55,0,0,0-.34-.06l-.09.06a1.22,1.22,0,0,0-.29.17,6.12,6.12,0,0,0-.56.45.08.08,0,0,1,0,0,2.44,2.44,0,0,0-.53.79l0,0s0,.06,0,.09c-.08.23-.15.47-.21.71s0,.42,0,.62a1.15,1.15,0,0,0-.12.25,6.86,6.86,0,0,0-.56.77c-.07.22.07.5,0,.68a4.55,4.55,0,0,0-.56,1.37c-.4.55-.1,1.38-.72,1.83a2.39,2.39,0,0,0-.19.82,2.89,2.89,0,0,1-.25.24.27.27,0,0,0-.19.11.15.15,0,0,0,0,.09,3,3,0,0,0-.29.33l-.25.16-.07,0s0,0-.08.06a1,1,0,0,0-.35.32,1.4,1.4,0,0,0-1,.64c-.51.2-1.07.22-1.58.41a2.36,2.36,0,0,1-1.64.22,10.25,10.25,0,0,1-1.37.15,5.17,5.17,0,0,0-1,0A12.08,12.08,0,0,1,71.1,38a3.67,3.67,0,0,0-1.32,0,13.6,13.6,0,0,1-2.84.48c-.33,0-.65,0-.91.18a3.7,3.7,0,0,0-.68.75.65.65,0,0,0,.05.46c.13.38.52.48.82.66.33.6,1,.47,1.47,1a19,19,0,0,0,2.4.7c.73,0,1.22.56,2,.46l.43.34a2.65,2.65,0,0,0,1,.79c.63.23,1.31.36,1.93.61a2.24,2.24,0,0,1,.45.09A1.47,1.47,0,0,1,77,45c.16.17.41.24.5.44.07.5-.38.82-.41,1.29a5.42,5.42,0,0,0-1,2.19c-.13.67-.74,1.15-.75,1.88-.05.32-.31.55-.43.84a11.8,11.8,0,0,1-1.37,2c-.2.71-.92,1.11-1.28,1.75l-.12.27-.06.12a3.25,3.25,0,0,1-.64,1c-.5.8-1.4,1.44-1.71,2.33a6.76,6.76,0,0,1-.67.85,5.85,5.85,0,0,1-1,1.81c-.22.3-.19.71-.36,1a4.37,4.37,0,0,0-.43.93,3.63,3.63,0,0,0-.31.66,3.19,3.19,0,0,0-.46.69c-.06.39-.34.73-.35,1.13a2.41,2.41,0,0,0,.24,2.43,3,3,0,0,0,.63.25c.41.48.8-.2,1.3.07.21,0,.31-.35.56-.24a3.17,3.17,0,0,0,1.22-.79,2.69,2.69,0,0,0,1.06-1.2c0-.43.5-.45.67-.8a4.51,4.51,0,0,0,1.31-1.37,3,3,0,0,0,.62-1c.34-.32.77-.62.86-1.08-.1-.35.25-.48.46-.63A16.75,16.75,0,0,1,77,59.43a.58.58,0,0,0,.15-.5l.29-.26a12.18,12.18,0,0,0,1.92-2.41c.2-.12.45-.17.6-.37a5.62,5.62,0,0,0,.82-1.1c.15-.66.86-1,1.23-1.59a5.37,5.37,0,0,0,1.54-1.92,1.37,1.37,0,0,1,.38-.63,3.24,3.24,0,0,0,.71-.38l.06,0a.27.27,0,0,0,.09-.12l0,0a5.8,5.8,0,0,0,.6-.13c.46,0,.63-.74,1.13-.46a.69.69,0,0,1,.32-.16c.07.2.31.1.43.16.15.33.55.33.88.39a1.51,1.51,0,0,0,.42.25c.38.36.9.36,1.23.83a0,0,0,0,0,0,0h0l.37.14a6.44,6.44,0,0,1,1.25,1.25,1.24,1.24,0,0,1,.48.28c.41.65,1.09.94,1.58,1.53a4.34,4.34,0,0,0,1.15,1.42c.5.48.73,1.08,1.21,1.55A9.15,9.15,0,0,1,97.4,59c.21.31.55.47.72.79s.35.47.55.7c.37.1.56.51.89.7a2.44,2.44,0,0,0,1.39.49,3.19,3.19,0,0,1,1.21-.25c.53,0,.93-.59,1.14-1,.12-.26,0-.59.3-.78a1.23,1.23,0,0,0,0-1c0-.6-.5-1-.5-1.52a2.19,2.19,0,0,0-.63-1.79,2.19,2.19,0,0,0-.62-1c-.39-.41-.34-1.07-.86-1.37a1,1,0,0,0-.42-.63A4.36,4.36,0,0,0,100,51.2c-.1-.41-.5-.67-.74-1-.61-.6-.85-1.36-1.45-2a3.6,3.6,0,0,1-.57-.39q-.33-.59-.72-1.14a1.31,1.31,0,0,1-.51-.85c-.33-.34-.37-.81-.63-1.18s-.86-.38-.92-.94c-.13-.25-.4-.26-.59-.41,0,0,0,0,0-.09l-.07-.66a.45.45,0,0,0,0-.36c.13-.17.39-.33.31-.58s.37-.41.51-.67c.15-.45.64-.43.89-.8a2.39,2.39,0,0,1,.89-.84c.3-.45.85-.48,1.15-1h0c.51-.64,1.26-.75,1.88-1.14a8.37,8.37,0,0,1,.62-.7,3.39,3.39,0,0,0,1.16-.81,16.87,16.87,0,0,0,2.3-1.38c.26-.35.71-.46,1-.81.14-.7,1-.71,1.33-1.34C106,31.61,106.59,31.18,106.48,30.53Z"/>
</svg>
