<svg id="region_sydanmark" data-name="region sydanmark" xmlns="http://www.w3.org/2000/svg" width="110" height="92" viewBox="0 0 110 92">
  <defs>
    <style>
      .cls-1 {
        fill: #fff;
      }
    </style>
  </defs>
  <title>region_syddanmark</title>
  <path class="cls-1" d="M95.22,41.06c-.28-.17-1.08-.65-3.68,1.74a24.69,24.69,0,0,0,.86-6c0-3.3-1-5.71-2.88-6.85-2.08-1.25-4.93-.62-7.4,1.59-1.2-5.71-5.76-10.83-11.81-13.17-4.51-1.75-8.22-1.75-10.74,0-2.1,1.45-3.2,4-3.16,7.38s1.35,5.58,2.88,7.81c1.76,2.54,3.57,5.16,3.22,10.24-.23,3.25-.42,6,1.07,7.48.83.8,2.11,1.1,3.91.91,2.72-.3,5.52-2.64,6.82-3.81a1.23,1.23,0,0,1,0,.13A31.9,31.9,0,0,0,74,51.87c0,1.33.21,2.35.87,2.81a1.17,1.17,0,0,0,1,.13c.75-.22,1.89-1.11,3.08-4.14s1.42-5.47,1-6.14a.83.83,0,0,0-.59-.38c-.7-.11-1.9.51-3.63,1.89a30.24,30.24,0,0,1,5.26-11.37c.06.67.1,1.36.1,2.09,0,.41,0,.82,0,1.25,0,.74,0,1.43,0,2.09,0,4,.6,6.48,1.87,7.56,1.64,1.4,3.45.93,6.7-1.84l-.14.48A28.49,28.49,0,0,0,88,53.35c0,1.16.29,2,1,2.33,1.42.65,3.47-2,4.92-4.7a17.63,17.63,0,0,0,2.33-7.39A2.77,2.77,0,0,0,95.22,41.06ZM76,47l1.12-.77c1.28-.82,1.6-.82,1.67-.8a.46.46,0,0,1,.05.26A14.83,14.83,0,0,1,77.59,50c-1.22,3.11-1.88,3.25-1.89,3.25s-.4-.79-.4-2.52c0-.25,0-.52,0-.81,0-.68.11-1.51.24-2.54Zm-1.58,0c-2.83,2-5.13,3.16-6.47,3.2a3.72,3.72,0,0,1-2.81-1c-1-1-1.53-2.64-1.53-4.82a17.11,17.11,0,0,0-3.18-10.74,11.61,11.61,0,0,1-2.41-7,6.74,6.74,0,0,1,2.82-5.47c2.25-1.49,5.61-1.45,9.72.13,5.85,2.26,9.19,6,10.21,11.39C77.47,36.28,74.86,43.44,74.45,47.06Zm9.6,0c-.72-.6-1.52-2.32-1.52-7,0-.62,0-1.28,0-2,0-.49,0-1,0-1.46a27.79,27.79,0,0,0-.21-3.5c2-1.93,3.91-2.58,5.51-1.88,1.91.85,3.14,3.56,3.14,6.84,0,.18,0,.36,0,.55a30.53,30.53,0,0,1-.92,5.63C85.87,48,84.79,47.67,84.05,47.06ZM92.33,50c-1.39,2.94-2.53,4.35-2.89,4.41A2.12,2.12,0,0,1,89,52.82a27.85,27.85,0,0,1,1.81-7.69s.13-.38.17-.52l.47-.43c2.36-2.18,3-2,3-2a1.22,1.22,0,0,1,.15.69A21.43,21.43,0,0,1,92.33,50Z"/>
  <g>
    <path class="cls-1" d="M8.51,68.53H6.78L5.09,63.67H3.8v4.86H2.24V57.38H5.38a3.17,3.17,0,0,1,2.16.72,3,3,0,0,1,.94,2.37A2.8,2.8,0,0,1,6.73,63.4Zm-1.64-8a1.44,1.44,0,0,0-1.62-1.63H3.8v3.29H5.25A1.45,1.45,0,0,0,6.87,60.52Z"/>
    <path class="cls-1" d="M14.94,64.33c0,.25,0,.43,0,.54H10.56c.1,1.58.62,2.37,1.57,2.37a2.17,2.17,0,0,0,1.51-.62l.94,1a3.23,3.23,0,0,1-2.49,1.12,2.62,2.62,0,0,1-2.27-1.18A5.33,5.33,0,0,1,9,64.39a5.61,5.61,0,0,1,.83-3.29A2.47,2.47,0,0,1,12,60a2.49,2.49,0,0,1,2.1,1.06A5.53,5.53,0,0,1,14.94,64.33Zm-1.56-.79A3,3,0,0,0,13,62a1.15,1.15,0,0,0-1-.58c-.8,0-1.27.7-1.4,2.11Z"/>
    <path class="cls-1" d="M21.24,67.8a4.08,4.08,0,0,1-.74,2.69,4,4,0,0,1-2.66,1.11l-.43-1.22a3.11,3.11,0,0,0,1.83-.67A2.39,2.39,0,0,0,19.72,68V68a2.05,2.05,0,0,1-1.57.75c-1.67,0-2.51-1.49-2.51-4.45a6.06,6.06,0,0,1,.68-3.16A2.17,2.17,0,0,1,18.27,60a2,2,0,0,1,1.45.62v-.45h1.52Zm-1.52-1.29V62.18a1.53,1.53,0,0,0-1.33-.75c-.8,0-1.21.92-1.21,2.75q0,3.09,1.29,3.09A1.41,1.41,0,0,0,19.72,66.51Z"/>
    <path class="cls-1" d="M24.32,57.92a1,1,0,0,1-1.9,0,1,1,0,0,1,.28-.68.94.94,0,0,1,.68-.27.93.93,0,0,1,.66.27A1,1,0,0,1,24.32,57.92Zm-.18,10.61H22.61V60.17h1.53Z"/>
    <path class="cls-1" d="M31.29,64.33a5.5,5.5,0,0,1-.81,3.26,2.66,2.66,0,0,1-2.24,1.12,2.52,2.52,0,0,1-2.14-1.07,5.41,5.41,0,0,1-.82-3.25,5.65,5.65,0,0,1,.81-3.29A2.54,2.54,0,0,1,28.3,60a2.57,2.57,0,0,1,2.17,1.06A5.56,5.56,0,0,1,31.29,64.33Zm-1.54,0c0-1.93-.49-2.9-1.48-2.9s-1.45,1-1.45,2.9.49,2.88,1.47,2.88a1.19,1.19,0,0,0,1.08-.78A4.9,4.9,0,0,0,29.75,64.36Z"/>
    <path class="cls-1" d="M37.7,68.53H36.17V63.39a3.59,3.59,0,0,0-.23-1.5.84.84,0,0,0-.81-.45,1.4,1.4,0,0,0-1.24.77v6.32H32.36V60.17h1.53v.57A2,2,0,0,1,35.51,60a1.86,1.86,0,0,1,1.68.75,4.36,4.36,0,0,1,.51,2.38Z"/>
    <path class="cls-1" d="M47.85,65.65a3.09,3.09,0,0,1-.79,2.21,3,3,0,0,1-2.25.85,3.28,3.28,0,0,1-2.94-1.82l1.22-1a2.19,2.19,0,0,0,1.82,1.24c.89,0,1.34-.47,1.34-1.41a1.77,1.77,0,0,0-.38-1.13,6.57,6.57,0,0,0-1.5-1.22A6.74,6.74,0,0,1,42.79,62a3.19,3.19,0,0,1-.65-2,2.75,2.75,0,0,1,.76-2A2.79,2.79,0,0,1,45,57.21a3.14,3.14,0,0,1,2.7,1.51l-1.14,1a3.06,3.06,0,0,0-.76-.77,1.7,1.7,0,0,0-.85-.2A1,1,0,0,0,43.75,60a1.63,1.63,0,0,0,.34,1,5.57,5.57,0,0,0,1.28,1,7.58,7.58,0,0,1,1.77,1.45A3.41,3.41,0,0,1,47.85,65.65Z"/>
    <path class="cls-1" d="M54.09,60.17l-3.3,11.3h-1.5l.91-2.94-2.32-8.36H49.5l1,4c.2.8.37,1.56.5,2.27.11-.66.28-1.42.51-2.29l1-4Z"/>
    <path class="cls-1" d="M59.89,68.53H58.36V68a2.1,2.1,0,0,1-1.56.74c-1.68,0-2.52-1.49-2.52-4.45A6,6,0,0,1,55,61.1,2.14,2.14,0,0,1,56.91,60a1.93,1.93,0,0,1,1.45.62V57.73l1.53-.8Zm-1.53-2V62.18A1.51,1.51,0,0,0,57,61.43c-.81,0-1.21.92-1.21,2.75q0,3.09,1.29,3.09A1.39,1.39,0,0,0,58.36,66.51Z"/>
    <path class="cls-1" d="M66.61,68.53H65.08V68a2.1,2.1,0,0,1-1.56.74c-1.68,0-2.52-1.49-2.52-4.45a6,6,0,0,1,.69-3.16A2.14,2.14,0,0,1,63.63,60a2,2,0,0,1,1.45.62V57.73l1.53-.8Zm-1.53-2V62.18a1.51,1.51,0,0,0-1.32-.75c-.81,0-1.22.92-1.22,2.75,0,2.06.44,3.09,1.29,3.09A1.4,1.4,0,0,0,65.08,66.51Z"/>
    <path class="cls-1" d="M73,68.53H71.45V68a2.16,2.16,0,0,1-1.72.75A2,2,0,0,1,68.14,68a3,3,0,0,1-.68-2.1,2.7,2.7,0,0,1,.76-2.05,2.74,2.74,0,0,1,2-.69,2.92,2.92,0,0,1,1.27.27v-.81c0-.79-.36-1.19-1.08-1.19a3.2,3.2,0,0,0-1.64.52l-.65-1.16a4.26,4.26,0,0,1,2.4-.79A2.08,2.08,0,0,1,73,62.5Zm-1.53-2V64.87a2.39,2.39,0,0,0-1.25-.32c-.81,0-1.22.44-1.22,1.32s.36,1.45,1.06,1.45A1.5,1.5,0,0,0,71.45,66.54Z"/>
    <path class="cls-1" d="M79.78,68.53H78.25V63.39a3.59,3.59,0,0,0-.23-1.5.82.82,0,0,0-.81-.45,1.42,1.42,0,0,0-1.24.77v6.32H74.45V60.17H76v.57A2,2,0,0,1,77.6,60a1.88,1.88,0,0,1,1.68.75,4.46,4.46,0,0,1,.5,2.38Z"/>
    <path class="cls-1" d="M90.05,68.53H88.52V63.39a8.16,8.16,0,0,0-.06-1.25.8.8,0,0,0-.81-.7,1.42,1.42,0,0,0-1.25.77v6.32H84.88V63.39a7.74,7.74,0,0,0-.07-1.25.8.8,0,0,0-.81-.7,1.4,1.4,0,0,0-1.24.77v6.32H81.23V60.17h1.53v.57A1.9,1.9,0,0,1,84.32,60a1.76,1.76,0,0,1,1.68.89A2.5,2.5,0,0,1,88,60a1.77,1.77,0,0,1,1.68.81,5.49,5.49,0,0,1,.41,2.48Z"/>
    <path class="cls-1" d="M96.4,68.53H94.88V68a2.18,2.18,0,0,1-1.72.75,2.05,2.05,0,0,1-1.6-.71,3,3,0,0,1-.68-2.1,2.7,2.7,0,0,1,.76-2.05,2.74,2.74,0,0,1,2-.69,3,3,0,0,1,1.28.27v-.81c0-.79-.37-1.19-1.09-1.19a3.23,3.23,0,0,0-1.64.52l-.65-1.16A4.31,4.31,0,0,1,93.9,60a2.08,2.08,0,0,1,2.5,2.5Zm-1.52-2V64.87a2.43,2.43,0,0,0-1.26-.32c-.81,0-1.21.44-1.21,1.32s.35,1.45,1,1.45A1.52,1.52,0,0,0,94.88,66.54Z"/>
    <path class="cls-1" d="M102,60.28l-.36,1.53a2.12,2.12,0,0,0-1.07-.26,1.36,1.36,0,0,0-1.19.66v6.32H97.87V60.17H99.4v.57a1.81,1.81,0,0,1,1.48-.74A2.12,2.12,0,0,1,102,60.28Z"/>
    <path class="cls-1" d="M107.91,68.53h-1.67l-1.38-3.9L104,66v2.58H102.5V57.73l1.53-.8v5q0,1,0,1.8c.11-.25.34-.68.68-1.29l1.26-2.28h1.73l-1.79,2.9Z"/>
  </g>
</svg>
