<svg id="rockwool" xmlns="http://www.w3.org/2000/svg" width="110" height="92" viewBox="0 0 110 92">
  <defs>
    <style>
      .cls-1 {
        fill: #fff;
      }
    </style>
  </defs>
  <title>rockwool</title>
  <g>
    <path class="cls-1" d="M26.69,41.2h4.14a6.74,6.74,0,0,1,1.41.14,3.41,3.41,0,0,1,1.24.5,2.74,2.74,0,0,1,.89,1,3,3,0,0,1,.34,1.52A2.71,2.71,0,0,1,33,46.91l2.44,3.9H31.76l-1.84-3.44h-.1v3.44H26.69V41.2Zm3.11,4.06h.63l.36,0a1.08,1.08,0,0,0,.36-.11.75.75,0,0,0,.28-.25.73.73,0,0,0,.11-.41.78.78,0,0,0-.09-.41.56.56,0,0,0-.24-.22.9.9,0,0,0-.32-.09,1.94,1.94,0,0,0-.33,0H29.8v1.54Z"/>
    <path class="cls-1" d="M35.07,46a5.15,5.15,0,0,1,.4-2.08,4.77,4.77,0,0,1,1.12-1.58,5.21,5.21,0,0,1,1.69-1,6.09,6.09,0,0,1,2.12-.35,6.23,6.23,0,0,1,2.11.35,5,5,0,0,1,1.7,1,4.52,4.52,0,0,1,1.13,1.58A5.15,5.15,0,0,1,45.75,46a5.24,5.24,0,0,1-.41,2.1,4.59,4.59,0,0,1-1.13,1.62,4.9,4.9,0,0,1-1.7,1,6.23,6.23,0,0,1-4.23,0,5,5,0,0,1-1.69-1,4.84,4.84,0,0,1-1.12-1.62,5.28,5.28,0,0,1-.4-2.1m3.43,0a2.65,2.65,0,0,0,.14.87,2.28,2.28,0,0,0,.39.68,1.68,1.68,0,0,0,.61.44,1.75,1.75,0,0,0,.76.15,1.86,1.86,0,0,0,.75-.15,1.8,1.8,0,0,0,.61-.44,2,2,0,0,0,.4-.68A2.69,2.69,0,0,0,42.3,46a2.57,2.57,0,0,0-.14-.85,1.78,1.78,0,0,0-.4-.65,1.91,1.91,0,0,0-1.36-.56,1.91,1.91,0,0,0-.76.15,2,2,0,0,0-.61.41,1.82,1.82,0,0,0-.39.65,2.57,2.57,0,0,0-.14.85"/>
    <path class="cls-1" d="M46.11,46a5.26,5.26,0,0,1,.4-2.09,4.86,4.86,0,0,1,2.78-2.63,5.76,5.76,0,0,1,2-.36,6.1,6.1,0,0,1,2.1.36,4.79,4.79,0,0,1,1.65,1l-2,2.38a1.7,1.7,0,0,0-.68-.53,2.19,2.19,0,0,0-.9-.18,2.06,2.06,0,0,0-.76.14,1.72,1.72,0,0,0-.62.41,1.87,1.87,0,0,0-.42.66,2.39,2.39,0,0,0-.14.86,2.07,2.07,0,0,0,.57,1.5,1.64,1.64,0,0,0,.62.41,1.86,1.86,0,0,0,.75.14,1.78,1.78,0,0,0,.95-.23,2,2,0,0,0,.63-.54l2,2.37a4.62,4.62,0,0,1-1.6,1,5.62,5.62,0,0,1-2.16.39,5.55,5.55,0,0,1-2-.37,4.86,4.86,0,0,1-2.77-2.64,5.13,5.13,0,0,1-.4-2.07"/>
    <polygon class="cls-1" points="58.65 46.98 58.62 46.98 58.62 50.81 55.48 50.81 55.48 41.2 58.6 41.2 58.6 44.74 58.63 44.74 61.19 41.2 64.99 41.2 61.39 45.6 65.17 50.81 61.2 50.81 58.65 46.98"/>
    <polygon class="cls-1" points="70.78 50.81 67.53 50.81 64.91 41.2 68.33 41.2 69.35 46.6 69.41 46.6 70.52 41.2 73.9 41.2 75.11 46.6 75.17 46.6 76.21 41.2 79.52 41.2 76.85 50.81 73.59 50.81 72.23 45.38 72.18 45.38 70.78 50.81"/>
    <path class="cls-1" d="M79,46a5.15,5.15,0,0,1,.4-2.08,4.77,4.77,0,0,1,1.12-1.58,5.21,5.21,0,0,1,1.69-1,6.09,6.09,0,0,1,2.12-.35,6.33,6.33,0,0,1,2.12.35,5,5,0,0,1,1.69,1,4.65,4.65,0,0,1,1.13,1.58,5.15,5.15,0,0,1,.4,2.08,5.24,5.24,0,0,1-.4,2.1,4.72,4.72,0,0,1-1.13,1.62,5,5,0,0,1-1.69,1,6.26,6.26,0,0,1-4.24,0,5,5,0,0,1-1.69-1,4.84,4.84,0,0,1-1.12-1.62A5.28,5.28,0,0,1,79,46m3.43,0a2.65,2.65,0,0,0,.14.87,2.28,2.28,0,0,0,.39.68,1.68,1.68,0,0,0,.61.44,1.75,1.75,0,0,0,.76.15,1.91,1.91,0,0,0,.76-.15,2,2,0,0,0,.6-.44,2.18,2.18,0,0,0,.4-.68,2.69,2.69,0,0,0,.14-.87,2.57,2.57,0,0,0-.14-.85,1.93,1.93,0,0,0-.4-.65,2.21,2.21,0,0,0-.6-.41,2,2,0,0,0-1.52,0,2,2,0,0,0-.61.41,1.82,1.82,0,0,0-.39.65,2.57,2.57,0,0,0-.14.85"/>
    <path class="cls-1" d="M90.05,46a5.15,5.15,0,0,1,.41-2.08,4.63,4.63,0,0,1,1.12-1.58,5.1,5.1,0,0,1,1.69-1,6,6,0,0,1,2.12-.35,6.23,6.23,0,0,1,2.11.35,5.08,5.08,0,0,1,1.7,1,4.5,4.5,0,0,1,1.12,1.58,5,5,0,0,1,.41,2.08,5.08,5.08,0,0,1-.41,2.1,4.57,4.57,0,0,1-1.12,1.62,5,5,0,0,1-1.7,1,6.23,6.23,0,0,1-4.23,0,4.76,4.76,0,0,1-1.69-1,4.7,4.7,0,0,1-1.12-1.62,5.28,5.28,0,0,1-.41-2.1m3.44,0a2.41,2.41,0,0,0,.14.87,2.08,2.08,0,0,0,.39.68,1.68,1.68,0,0,0,.61.44,1.72,1.72,0,0,0,.76.15,1.86,1.86,0,0,0,.75-.15,1.76,1.76,0,0,0,.6-.44,1.86,1.86,0,0,0,.4-.68,2.44,2.44,0,0,0,.14-.87,2.33,2.33,0,0,0-.14-.85,1.66,1.66,0,0,0-.4-.65,1.94,1.94,0,0,0-.6-.41,1.94,1.94,0,0,0-2.12.41,1.69,1.69,0,0,0-.39.65,2.33,2.33,0,0,0-.14.85"/>
    <polygon class="cls-1" points="101.3 41.2 104.56 41.2 104.56 48.02 107.75 48.02 107.75 50.81 101.3 50.81 101.3 41.2"/>
    <path class="cls-1" d="M2.66,55.61H21.88V36.4H2.66Zm8.89-8.41L9.39,50.81H4.58l5.76-9.61h1.21v6Zm3.6,3.61L13,47.2v-6h1.22L20,50.81Z"/>
    <path class="cls-1" d="M105.43,42.34a1.14,1.14,0,0,1,.09-.46,1.08,1.08,0,0,1,.26-.37,1,1,0,0,1,.36-.24,1.13,1.13,0,0,1,.45-.09,1.17,1.17,0,0,1,.45.09,1.13,1.13,0,0,1,.36.24,1.19,1.19,0,0,1,.26.36,1.13,1.13,0,0,1,.09.45,1.14,1.14,0,0,1-.09.46,1.18,1.18,0,0,1-.26.37,1,1,0,0,1-.36.24,1.16,1.16,0,0,1-1.26-.24,1.19,1.19,0,0,1-.26-.36,1.13,1.13,0,0,1-.09-.45m.19,0a.93.93,0,0,0,.28.69,1.08,1.08,0,0,0,.3.21,1.22,1.22,0,0,0,.38.07,1.17,1.17,0,0,0,.38-.07,1.13,1.13,0,0,0,.31-.21,1,1,0,0,0,.21-.31,1.05,1.05,0,0,0,.07-.4,1.17,1.17,0,0,0-.07-.38,1,1,0,0,0-.52-.52,1.17,1.17,0,0,0-.38-.07,1.22,1.22,0,0,0-.38.07,1,1,0,0,0-.51.52,1,1,0,0,0-.07.4m.54-.67h.48a.6.6,0,0,1,.36.09.38.38,0,0,1,.11.3.31.31,0,0,1-.1.26.63.63,0,0,1-.25.1l.38.58h-.2l-.37-.57h-.24V43h-.19V41.67Zm.18.59h.36a.42.42,0,0,0,.12,0,.13.13,0,0,0,.08-.07s0-.06,0-.12a.15.15,0,0,0,0-.1l-.07-.07a.29.29,0,0,0-.1,0h-.39v.42Z"/>
  </g>
</svg>
