<svg id="seeland" xmlns="http://www.w3.org/2000/svg" width="110" height="92" viewBox="0 0 110 92">
  <defs>
    <style>
      .cls-1 {
        fill: #fff;
      }
    </style>
  </defs>
  <title>seeland</title>
  <path class="cls-1" d="M32.49,47.77a6.11,6.11,0,0,0-6.35,5,17.87,17.87,0,0,0-.44,2.89c0,2.73,2.45,3.61,4.77,3.61a10.71,10.71,0,0,0,4.92-1l-.58-2.35a11.05,11.05,0,0,1-3.25.6c-.86,0-2-.33-2-1.39a6.2,6.2,0,0,1,.1-.7H36.2a18,18,0,0,0,.44-3C36.64,48.92,34.73,47.77,32.49,47.77Zm.56,4.58H30c0-.05.08-.46.1-.49a1.72,1.72,0,0,1,1.78-1.44,1.11,1.11,0,0,1,1.26,1.16A6.76,6.76,0,0,1,33.05,52.35Z"/>
  <path class="cls-1" d="M21,49.88c-.84-.33-2.34-.65-2.34-1.53s1.11-1.18,2-1.18a4.26,4.26,0,0,1,2.94,1.31L26,46.16a7.22,7.22,0,0,0-5.6-2.11c-3.22,0-5.7,1.93-5.7,5.1,0,3,2.68,3.75,4.87,4.52.7.26,1.35.56,1.35,1.24,0,1.08-1.34,1.28-2.17,1.28a5.05,5.05,0,0,1-3.66-1.67L12.63,57a8.15,8.15,0,0,0,6.19,2.27c3.2,0,6.32-1.45,6.32-5.13C25.14,51.53,22.89,50.53,21,49.88Z"/>
  <path class="cls-1" d="M43.47,47.77a6.11,6.11,0,0,0-6.35,5,16.83,16.83,0,0,0-.44,2.89c0,2.73,2.45,3.61,4.77,3.61a10.63,10.63,0,0,0,4.91-1l-.57-2.35a11.05,11.05,0,0,1-3.25.6c-.86,0-2-.33-2-1.39a6.2,6.2,0,0,1,.1-.7h6.55a18,18,0,0,0,.44-3C47.62,48.92,45.73,47.77,43.47,47.77ZM44,52.35H41c0-.05.08-.46.1-.49a1.72,1.72,0,0,1,1.78-1.44,1.11,1.11,0,0,1,1.26,1.16A3.39,3.39,0,0,1,44,52.35Z"/>
  <path class="cls-1" d="M53.6,44.28H49.8l-2.11,12a3.08,3.08,0,0,0-.07.68c0,1.62,1.33,2.27,2.85,2.27a7.6,7.6,0,0,0,2.27-.37L53.23,56a5.22,5.22,0,0,1-.92.09c-.33,0-.7-.07-.7-.54a1.46,1.46,0,0,1,0-.3Z"/>
  <path class="cls-1" d="M74.66,47.74A4.72,4.72,0,0,0,71,49.41h0l.25-1.49H67.5L65.58,59h3.75l1.12-6.23c.18-1.09.78-2.12,1.94-2.12a1.17,1.17,0,0,1,1.31,1.19,7,7,0,0,1-.09.7L72.47,59h3.78l1.32-7.68a4.94,4.94,0,0,0,.1-1A2.73,2.73,0,0,0,74.66,47.74Z"/>
  <path class="cls-1" d="M62.33,47.94l-.18.94h-.07a3.35,3.35,0,0,0-2.76-1.17,4.64,4.64,0,0,0-4.67,3.89c-.23,1.22-.46,2.43-.66,3.66a4.87,4.87,0,0,0-.08.93c0,2,1.36,3,3.3,3a4.75,4.75,0,0,0,3.38-1.57h.07L60.41,59h3.68l2-11.08ZM61.59,52l-.47,2.63a2,2,0,0,1-2,1.75,1.24,1.24,0,0,1-1.31-1.31,1.6,1.6,0,0,1,0-.39l.44-2.52a2,2,0,0,1,1.85-1.8,1.31,1.31,0,0,1,1.45,1.28C61.61,51.76,61.61,51.86,61.59,52Z"/>
  <path class="cls-1" d="M90.69,44.28H86.88L86.06,49h0a3.23,3.23,0,0,0-2.65-1.18,4.79,4.79,0,0,0-4.82,3.89c-.23,1.23-.44,2.44-.65,3.66a4.36,4.36,0,0,0-.08,1c0,2,1.38,3,3.3,3a4.56,4.56,0,0,0,3.36-1.57h0v0l.26-.08c.29,1.16,1.45,1.65,2.78,1.65a7.6,7.6,0,0,0,2.27-.37L90.33,56a5.22,5.22,0,0,1-.92.09c-.32,0-.7-.07-.7-.54a1.46,1.46,0,0,1,0-.3Zm-5.12,7.48-.44,2.52-.06.39a2,2,0,0,1-2,1.75,1.24,1.24,0,0,1-1.31-1.31,1.6,1.6,0,0,1,0-.39l.44-2.52a2,2,0,0,1,1.88-1.8,1.28,1.28,0,0,1,1.42,1.26A.18.18,0,0,0,85.57,51.76Z"/>
  <g>
    <path class="cls-1" d="M74.71,37.09a2.67,2.67,0,0,0,1.13,1.63c.52.26,1.12.66,1.88,1.05a3,3,0,0,1,1.11,1.08s.31-.25.57-.43a.61.61,0,0,0,.29-.67c-.08-.24-.29-.8-.44-1.32s-.33-1.77-.36-1.77a17.43,17.43,0,0,0-4.16-1.29c-.56,0-.43.28-.4.41S74.48,36.3,74.71,37.09Z"/>
    <path class="cls-1" d="M80.41,30s1,.7,1.24,1c.69.59,2.16,1.78,2.16,1.78.26.23,1.53,1.31,1.73,1.59s0,.82-.05,1a2.62,2.62,0,0,0-.32,2.17,2.05,2.05,0,0,0,1,.83,4.13,4.13,0,0,1,1.44-.78,2.09,2.09,0,0,1,1.89.62,3.82,3.82,0,0,1,.41.52,1.54,1.54,0,0,0,.13.17l.15.14a1.49,1.49,0,0,0,.6.4c.8.32,2.42.76,3,.93.23.06.29.11.26.19s-.13.07-.28,0-1.71-.37-2.2-.45-1-.12-1.29-.14H90a6,6,0,0,0-2,.79c-.82.57-1.31,1.11-1.74,1.37a7,7,0,0,1-4.13,1.1,7,7,0,0,0-1.8.34,31.63,31.63,0,0,1-3.85.72c-.44,0-.56.08-.57,0s.19-.19.7-.54,2.51-2,3-2.42.9-.55,1-1-.29-1.17-.49-1.87a13.93,13.93,0,0,1-.44-2.52s0-.23,0-.44a1.77,1.77,0,0,0-.51-.85,1.63,1.63,0,0,1-.41-.52.76.76,0,0,1,.07-.41h0l-.28-.28a.5.5,0,0,1,0-.54l-.31-.36a.67.67,0,0,1-.1-.62.82.82,0,0,1-.34-.57A.37.37,0,0,1,78,31a1.07,1.07,0,0,1-.33-.32c-.2-.41.13-.51.13-.51-.39-.56-.34-.9-.26-1a.38.38,0,0,1,.26-.08s-.13-.21,0-.29a1.89,1.89,0,0,1,.77.11A19.34,19.34,0,0,1,80.41,30Z"/>
  </g>
</svg>
