<svg id="videncenter_for_arbejdsmiljø" data-name="videncenter for arbejdsmiljø" xmlns="http://www.w3.org/2000/svg" width="110" height="92" viewBox="0 0 110 92">
  <defs>
    <style>
      .cls-1 {
        fill: #fff;
      }
    </style>
  </defs>
  <title>videncenter_for_arbejdsmiljoe</title>
  <g>
    <path class="cls-1" d="M42.23,29.74c-.43.5-1.45.75-1.8,1.25a1.16,1.16,0,0,0,.08,1.2c0,.05,0,.08,0,.07-.21-.07-.61-.2-1-.3-.05,0,0-.06,0-.09a8.57,8.57,0,0,1,1.16-2.06,3.17,3.17,0,0,0,.33-1.13s0-.08,0-.08a1.23,1.23,0,0,1,1.23-.37c.52.25.47,1,0,1.51m-4.08.85a1.17,1.17,0,0,0,0,1c.06.12,0,.1-.08.09l-.82-.07s-.05,0,0-.07a1.45,1.45,0,0,0,.16-1.5,3,3,0,0,1-.29-1.31c0-.07.08-.07.14-.07,1.18-.09,1.86-1.48,2.68-.79a.91.91,0,0,1,0,1.26c-.49.68-1.46,1-1.74,1.43m-1.95,1s0,.07,0,.06c-.29,0-.56,0-.82.08,0,0-.14,0-.08-.1a1.18,1.18,0,0,0,0-1c-.29-.4-1.25-.75-1.75-1.43a.91.91,0,0,1,0-1.26c.83-.7,1.51.7,2.68.79.07,0,.13,0,.14.07A3,3,0,0,1,36,30.07a1.46,1.46,0,0,0,.16,1.5M33.94,32c-.42.11-.82.24-1,.3,0,0-.06,0,0-.06A1.21,1.21,0,0,0,33,31c-.35-.51-1.37-.76-1.81-1.26s-.5-1.26,0-1.51a1.25,1.25,0,0,1,1.23.37s0,0,0,.08a3,3,0,0,0,.33,1.14A8.19,8.19,0,0,1,34,31.88s0,.07,0,.08m8.83-4.36a1.7,1.7,0,0,0-1.84.25s0,0,0-.06a1.29,1.29,0,0,0-1.18-.91C38.41,26.75,38,28,37.13,28c-.18,0-.26-.52-.13-.56h0l0,0a.93.93,0,0,0,.6-.87.84.84,0,0,0-.25-.64c-.2-.18-.46-.22-.5-.47s.09-.33.19-.33.1.05.12.06h0a.36.36,0,0,0,.24.11.37.37,0,0,0,.35-.38.37.37,0,0,0-.35-.38.38.38,0,0,0-.27.14s-.12.16-.21.16a.12.12,0,0,1-.09-.05c-.12-.14.06-.36.1-.43a.42.42,0,0,0,.08-.22.37.37,0,0,0-.34-.38h0a.37.37,0,0,0-.34.38.42.42,0,0,0,.08.22c0,.07.22.29.11.43a.11.11,0,0,1-.09.05c-.09,0-.18-.11-.22-.16a.36.36,0,0,0-.26-.14.38.38,0,0,0,0,.76.37.37,0,0,0,.25-.11h0s.05-.07.11-.06.23.08.19.33-.3.29-.5.47a.85.85,0,0,0-.26.64.92.92,0,0,0,.61.87l0,0h0c.13,0,0,.56-.13.56-.87,0-1.29-1.27-2.57-1.14a1.29,1.29,0,0,0-1.18.91s0,.09-.06.06a1.68,1.68,0,0,0-1.83-.25,1.5,1.5,0,0,0-.33,2.21c.36.58,1,1.29,1.44,2A2.91,2.91,0,0,1,32,33.14a.1.1,0,0,0,.12.09,17.39,17.39,0,0,1,4.61-.5,17.36,17.36,0,0,1,4.6.5.1.1,0,0,0,.13-.09,2.78,2.78,0,0,1,.23-1.33c.4-.71,1.08-1.41,1.44-2a1.5,1.5,0,0,0-.32-2.21"/>
    <path class="cls-1" d="M41.34,33.83a22.67,22.67,0,0,0-9.28,0c-.11,0-.09.1-.09.1v1a.07.07,0,0,0,.08.07,26.52,26.52,0,0,1,9.29,0s.09,0,.09-.07v-1a.09.09,0,0,0-.09-.1"/>
    <path class="cls-1" d="M41.3,57.08H32.09V37.61s0-.17.23-.22A27.68,27.68,0,0,1,36.6,37a24.68,24.68,0,0,1,4.42.35c.3.08.28.22.28.22V57.08Z"/>
    <path class="cls-1" d="M31,54.57a7.3,7.3,0,0,1,.17,2.51H22c-.57,0,0-16.41,0-17.08s3.52.34,3.83.92S29.71,51.3,31,54.57"/>
    <path class="cls-1" d="M13.93,57.08h7s.12-1.34-.32-1.84a53.71,53.71,0,0,0-7.8-6.16c-.62-.4-1,0-1,.08,0,.61,1.27,7.92,2.07,7.92"/>
    <path class="cls-1" d="M12.68,57.08s-.06-.65-.47-.79a50.93,50.93,0,0,0-7.93-1.67c-1,.06-2.4,2.47-2.4,2.47h10.8Z"/>
    <polygon class="cls-1" points="51.16 44.13 49.65 48.4 49.1 48.4 47.68 44.13 47.1 44.13 47.1 43.71 48.82 43.71 48.82 44.13 48.27 44.13 49.44 47.68 50.67 44.13 50.15 44.13 50.15 43.71 51.72 43.71 51.72 44.13 51.16 44.13"/>
    <path class="cls-1" d="M52.51,43.78h.68v.58h-.68Zm-.41,4.57V48h.53V45.44H52.1v-.37h1.07V48h.52v.38Z"/>
    <path class="cls-1" d="M56.37,45.76a.84.84,0,0,0-.67-.37.73.73,0,0,0-.45.16,1.39,1.39,0,0,0-.42,1.18,1.81,1.81,0,0,0,.2.91.81.81,0,0,0,.67.38.77.77,0,0,0,.44-.14,1.4,1.4,0,0,0,.43-1.17,1.83,1.83,0,0,0-.2-1m.21,2.59v-.5a1.08,1.08,0,0,1-1,.57,1.33,1.33,0,0,1-.59-.16,1.78,1.78,0,0,1-.76-1.55c0-.77.42-1.72,1.36-1.72a1,1,0,0,1,.94.57V44.07h-.52v-.38h1V48h.52v.37h-1Z"/>
    <path class="cls-1" d="M59.55,45.39c-.58,0-.83.51-.89,1h1.65c0-.48-.16-1-.76-1m1.34,1.36H58.65v.1c0,.54.2,1.17.89,1.17a.78.78,0,0,0,.8-.68h.51a1.23,1.23,0,0,1-1.33,1.08,1.48,1.48,0,0,1-1.43-1.67,1.76,1.76,0,0,1,.72-1.54,1.48,1.48,0,0,1,.74-.21c1,0,1.35.83,1.35,1.62a.62.62,0,0,1,0,.13"/>
    <path class="cls-1" d="M63.53,48.35V48H64V46.21c0-.39-.07-.78-.58-.78a.77.77,0,0,0-.64.33,1.23,1.23,0,0,0-.17.75V48h.46v.38H61.53V48h.52V45.44h-.52v-.37h1v.52a1.06,1.06,0,0,1,1-.59,1,1,0,0,1,.87.46,2,2,0,0,1,.12,1V48h.52v.38Z"/>
    <path class="cls-1" d="M67,48.42c-1,0-1.39-.85-1.39-1.67S66.06,45,67,45a.92.92,0,0,1,.75.36v-.3h.43v1.1h-.43c0-.41-.23-.75-.71-.75-.73,0-.87.83-.87,1.37s.18,1.24.86,1.24c.48,0,.67-.37.72-.76h.48A1.17,1.17,0,0,1,67,48.42"/>
    <path class="cls-1" d="M70.4,45.39c-.58,0-.83.51-.88,1h1.65c0-.48-.17-1-.77-1m1.34,1.36H69.5v.1c0,.54.2,1.17.89,1.17a.78.78,0,0,0,.8-.68h.51a1.22,1.22,0,0,1-1.32,1.08A1.48,1.48,0,0,1,69,46.75a1.78,1.78,0,0,1,.71-1.54,1.48,1.48,0,0,1,.75-.21,1.44,1.44,0,0,1,1.35,1.62s0,.08,0,.13"/>
    <path class="cls-1" d="M74.38,48.35V48h.46V46.21c0-.39-.06-.78-.57-.78a.76.76,0,0,0-.64.33,1.23,1.23,0,0,0-.17.75V48h.46v.38H72.39V48h.52V45.44h-.52v-.37h1v.52a1.06,1.06,0,0,1,1-.59,1,1,0,0,1,.87.46,2,2,0,0,1,.12,1V48h.52v.38Z"/>
    <path class="cls-1" d="M77.54,48.39c-.67,0-.85-.38-.85-1v-2h-.5v-.38h.5v-1h.54v1h.82v.38h-.82V47.3c0,.31,0,.68.45.68a.86.86,0,0,0,.42-.12v.43a1.78,1.78,0,0,1-.56.1"/>
    <path class="cls-1" d="M80,45.39c-.58,0-.82.51-.89,1h1.66c0-.48-.17-1-.77-1m1.34,1.36H79.09v.1c0,.54.21,1.17.89,1.17a.78.78,0,0,0,.8-.68h.51A1.23,1.23,0,0,1,80,48.42c-1,0-1.43-.82-1.43-1.67a1.76,1.76,0,0,1,.71-1.54A1.48,1.48,0,0,1,80,45a1.44,1.44,0,0,1,1.35,1.62s0,.08,0,.13"/>
    <path class="cls-1" d="M84,46c0-.26,0-.58-.38-.58a.59.59,0,0,0-.52.46,3.29,3.29,0,0,0-.07.84V48h.59v.38H82V48h.52V45.44H82v-.37h1v.49a.92.92,0,0,1,.82-.54.69.69,0,0,1,.62.33V46Z"/>
    <path class="cls-1" d="M88.37,44.19a.94.94,0,0,0-.54-.17c-.39,0-.43.3-.43.6v.44h.82v.39H87.4V48H88v.37h-1.7V48h.52V45.45h-.5v-.39h.5v-.51a.83.83,0,0,1,.93-.93,1.67,1.67,0,0,1,.59.11Z"/>
    <path class="cls-1" d="M90.07,45.38c-.75,0-.89.77-.89,1.33s.14,1.32.9,1.32.89-.77.89-1.34-.15-1.31-.9-1.31m.81,2.81a1.5,1.5,0,0,1-1.4.12,1.64,1.64,0,0,1-.87-1.6,1.61,1.61,0,0,1,.87-1.61,1.48,1.48,0,0,1,.59-.12,1.36,1.36,0,0,1,.72.19,1.66,1.66,0,0,1,.73,1.53,1.71,1.71,0,0,1-.64,1.49"/>
    <path class="cls-1" d="M94.2,46c0-.26,0-.58-.38-.58a.57.57,0,0,0-.52.46,2.89,2.89,0,0,0-.08.84V48h.59v.38H92.15V48h.53V45.44h-.53v-.37h1v.49A.9.9,0,0,1,94,45a.68.68,0,0,1,.62.33V46Z"/>
    <path class="cls-1" d="M50.59,55,50,53l-.59,2Zm.12-3.29,2,5.4H51.23L50.91,56H49.07l-.32,1.07H47.27l2-5.4Z"/>
    <path class="cls-1" d="M55.55,54c.64,0,1,0,1.16-.36a.63.63,0,0,0,.06-.27.52.52,0,0,0-.13-.38c-.22-.25-.57-.22-1.17-.22h-.53V54Zm-.07-2.34a7.32,7.32,0,0,1,1.15.06,1.73,1.73,0,0,1,1.3.85,1.91,1.91,0,0,1,.21.87,1.79,1.79,0,0,1-.07.51,1.39,1.39,0,0,1-.94,1l1.28,2.13H56.87l-1-2H55v2H53.61V51.7h1.87Z"/>
    <path class="cls-1" d="M61.32,56a2,2,0,0,0,1-.13.45.45,0,0,0,.22-.44.65.65,0,0,0-.1-.35c-.19-.3-.79-.27-1.07-.27h-.73V56h.71Zm0-2.28h.37c.1,0,.61,0,.61-.46a.34.34,0,0,0-.09-.27c-.14-.2-.42-.18-.89-.18h-.66v.92Zm-.08-2h.53a2,2,0,0,1,1.66.64,1.34,1.34,0,0,1,.23.79,1.12,1.12,0,0,1-.62,1,1.29,1.29,0,0,1,.88,1.27,1.58,1.58,0,0,1-.5,1.17,2.26,2.26,0,0,1-.47.28,4.49,4.49,0,0,1-1.77.19h-1.8v-5.4Z"/>
    <polygon class="cls-1" points="68.34 53.76 68.34 54.85 66.26 54.85 66.26 56 68.78 56 68.78 57.09 64.91 57.09 64.91 51.69 68.61 51.69 68.61 52.8 66.26 52.8 66.26 53.76 68.34 53.76"/>
    <path class="cls-1" d="M71.61,51.69v4.24c0,.16,0,.33,0,.49a1.54,1.54,0,0,1-.48,1.32,2.16,2.16,0,0,1-1.46.39,3.75,3.75,0,0,1-.48,0V57a5.66,5.66,0,0,0,.58,0,.56.56,0,0,0,.44-.19,2.31,2.31,0,0,0,.07-.9V51.68h1.34Z"/>
    <path class="cls-1" d="M74.81,56a4.49,4.49,0,0,0,.54,0,1.05,1.05,0,0,0,.87-.58,2.1,2.1,0,0,0,.2-1A1.79,1.79,0,0,0,75.88,53a2.44,2.44,0,0,0-1.33-.22h-.23V56Zm-.2-4.31a3.69,3.69,0,0,1,2,.39,2.59,2.59,0,0,1,1.18,2.35A2.73,2.73,0,0,1,77.36,56c-.69,1.11-1.79,1.14-3,1.12H73V51.7h1.63Z"/>
    <path class="cls-1" d="M81.64,53.27a.72.72,0,0,0-.08-.24c-.1-.19-.34-.34-.8-.34s-.73.2-.73.46.36.4.85.56a7.2,7.2,0,0,1,1.51.57A1.45,1.45,0,0,1,83,55.53a1.55,1.55,0,0,1-.71,1.31,2.83,2.83,0,0,1-1.47.36,2.66,2.66,0,0,1-1.76-.51,1.59,1.59,0,0,1-.52-.79,2.92,2.92,0,0,1-.08-.77h1.31a.87.87,0,0,0,.3.78,1.59,1.59,0,0,0,.78.19c.54,0,.79-.24.79-.52a.41.41,0,0,0-.05-.21c-.09-.2-.35-.26-.75-.39s-.7-.22-1-.36a1.56,1.56,0,0,1-1.07-.91,1.67,1.67,0,0,1-.09-.53A1.49,1.49,0,0,1,79,52.3a2.12,2.12,0,0,1,1.79-.72,2.57,2.57,0,0,1,1.71.55,1.51,1.51,0,0,1,.34.47,1.91,1.91,0,0,1,.11.68Z"/>
    <polygon class="cls-1" points="85.97 51.69 87.28 55.62 88.61 51.69 90.42 51.69 90.42 57.09 89.2 57.09 89.2 53.43 87.89 57.09 86.66 57.09 85.36 53.43 85.36 57.09 84.15 57.09 84.15 51.69 85.97 51.69"/>
    <rect class="cls-1" x="91.81" y="51.69" width="1.35" height="5.4"/>
    <polygon class="cls-1" points="95.91 51.69 95.91 56 98.35 56 98.35 57.09 94.57 57.09 94.57 51.69 95.91 51.69"/>
    <path class="cls-1" d="M101,51.69v4.24c0,.16,0,.33,0,.49a1.56,1.56,0,0,1-.47,1.32,2.2,2.2,0,0,1-1.46.39,3.91,3.91,0,0,1-.49,0V57a5.66,5.66,0,0,0,.58,0,.55.55,0,0,0,.44-.19,2.31,2.31,0,0,0,.07-.9V51.68H101Z"/>
    <path class="cls-1" d="M103.86,55.74a1.17,1.17,0,0,0,.9.36,1.15,1.15,0,0,0,.84-.33,2,2,0,0,0,.5-1.39,2.43,2.43,0,0,0-.08-.68ZM105.63,53a1.26,1.26,0,0,0-.86-.33,1.18,1.18,0,0,0-.63.16,1.85,1.85,0,0,0-.73,1.55,2.46,2.46,0,0,0,.08.67Zm2.49-1.32-1.07,1.07.12.21a3.33,3.33,0,0,1,.31,1.41,3.12,3.12,0,0,1-.47,1.68,2.58,2.58,0,0,1-2.22,1.14,2.74,2.74,0,0,1-1.83-.62l-.5.51H101.4L102.48,56a3.2,3.2,0,0,1-.44-1.6,3.77,3.77,0,0,1,.24-1.27,2.58,2.58,0,0,1,2.47-1.58,2.85,2.85,0,0,1,1.77.59l.47-.48h1.13Z"/>
  </g>
</svg>
