<svg id="Layer_5" data-name="Layer 5" xmlns="http://www.w3.org/2000/svg" width="110" height="92" viewBox="0 0 110 92">
  <defs>
    <style>
      .cls-1, .cls-2 {
        fill: #fff;
      }

      .cls-1 {
        fill-rule: evenodd;
      }
    </style>
  </defs>
  <title>calsberg</title>
  <g>
    <path class="cls-1" d="M39.51,35.46a2.8,2.8,0,0,1-2.82,2.82,1.38,1.38,0,0,1-1.36-1.36c0-.69.37-.71.37-1.17a.66.66,0,0,0-.64-.65,1,1,0,0,0-1.05,1v7.32a.27.27,0,0,0,.22.24l.72.21c.1,0,.24.1.24.24v.58A.24.24,0,0,1,35,45H30.3a.24.24,0,0,1-.24-.24v-3.3c-1.31,1.36-4,3.91-5.36,3.91s-1.34-1.66-2.5-1.66c-1,0-1.07,1.66-3.87,1.66-3,0-5.48-2.83-5.48-6.35s2.46-6.36,5.48-6.36c2.46,0,3,1.34,3.63,1.34.38,0,.53-.29.62-.72a.3.3,0,0,1,.29-.24h3.88a.25.25,0,0,1,.24.24v.59c0,.14-.14.22-.24.24l-.72.22c-.1,0-.22.1-.22.24V41a.82.82,0,0,0,.83.77c.77,0,2.44-1.38,3.42-2.25V35a.42.42,0,0,0-.46-.43c-.29,0-.31.26-.68.26a.56.56,0,0,1-.57-.57,2.32,2.32,0,0,1,2.32-1.6c2.45,0,2.07,1.82,2.94,1.82s.92-1.82,3.07-1.82A2.81,2.81,0,0,1,39.51,35.46ZM21.86,37.05c0-.8-1.09-1.61-2.1-1.61-1.87,0-3.07,1.47-3.07,3.56s1.2,3.57,3.07,3.57c1,0,2.1-.81,2.1-1.6ZM40.73,41a3.74,3.74,0,0,0,3.93,4h8.12a3.48,3.48,0,0,0,3.59-3.5c0-3.27-5-3-5-4.86,0-.76.75-1,1.67-1a4.12,4.12,0,0,1,2.17.71.24.24,0,0,0,.38-.1l1.25-2.85a.24.24,0,0,0-.22-.33H50.74a3.08,3.08,0,0,0-3,3.07c0,3.37,4.38,2.77,4.38,5.06a1.65,1.65,0,0,1-1.69,1.64,2.65,2.65,0,0,1-2.84-2,.26.26,0,0,0-.33-.19l-.81.32a.27.27,0,0,0-.1.38.85.85,0,0,1,.22.6,1,1,0,1,1-1.91,0V25.1a.24.24,0,0,0-.24-.24H39.78a.23.23,0,0,0-.24.24v.58c0,.14.14.21.24.24l.72.21a.26.26,0,0,1,.21.24V41Zm65.45-7.73v.59a.27.27,0,0,1-.23.24l-.72.22c-.1,0-.22.1-.22.24V46.82a5.47,5.47,0,0,1-5.5,5.39,5.38,5.38,0,0,1-4.73-2.48c-1.23,2.18-5.21,6.88-16.79,6.88-6.39,0-17.23-3.15-22.87-3.15-7.73,0-12.84,2.1-18.15,7.42-.13.13-.22.16-.38.06l-9.89-5.4a.24.24,0,0,1-.06-.38,38.12,38.12,0,0,1,22.73-8.41c13.11,0,22.24,6.48,33,6.48,9.08,0,11.72-4.54,11.72-6a.24.24,0,0,1,.24-.24h.91a.24.24,0,0,1,.24.24,2.79,2.79,0,0,0,5.58-.22V44.62a.38.38,0,0,0-.42-.43c-.41,0-.8,1.15-3.1,1.15-3,0-5.48-2.83-5.48-6.35s2.46-6.36,5.48-6.36c2.46,0,3,1.34,3.63,1.34.38,0,.53-.29.62-.72a.3.3,0,0,1,.29-.24H106A.26.26,0,0,1,106.18,33.26Zm-5.13,3.8c0-.8-1.1-1.6-2.11-1.6-1.86,0-3.06,1.46-3.06,3.54s1.2,3.58,3.06,3.58c1,0,2.11-.8,2.11-1.6Zm-7.92-4.68c0,2.46-1.54,3.76-2.83,3.76-1.51,0-1.31-1-2.3-1a1.1,1.1,0,0,0-1.12,1v7.32a.25.25,0,0,0,.21.23l.72.22c.1,0,.24.1.24.24v.59a.24.24,0,0,1-.24.24H83.17a.24.24,0,0,1-.24-.24V36.25a.88.88,0,0,0-1-1,4.51,4.51,0,0,0-2,.91c0,2.62-2.41,4.62-6.09,4.62a3.48,3.48,0,0,0,3.42,2.37,3.57,3.57,0,0,0,3-1.39c.32-.41,1.09-.25.72.57a5.64,5.64,0,0,1-5.17,3,6.34,6.34,0,0,1-6.21-5,8.33,8.33,0,0,1-2-.92v2.23A3.18,3.18,0,0,1,64.33,45H62.42c-2.83,0-4.6-1.58-4.6-4V26.37a.26.26,0,0,0-.21-.24l-.72-.21c-.1,0-.24-.12-.24-.24V25.1a.23.23,0,0,1,.24-.24h4.64a.23.23,0,0,1,.24.24V41.3a1.84,1.84,0,0,0,2,1.68c.91,0,2-.35,2-1.61v-3.2l-1.6-1a.66.66,0,0,1-.38-.62V33.26A.24.24,0,0,1,64,33h3.47a.24.24,0,0,1,.24.24v4.53a11.81,11.81,0,0,0,1.88,1,6.31,6.31,0,0,1,6.35-6.16,3.93,3.93,0,0,1,3.74,2c1.15-.89,2.91-2,4.33-2,1.59,0,1.59,1.31,2.37,1.31a.5.5,0,0,0,.48-.5c0-.33-.16-.57-.16-.88a1.22,1.22,0,0,1,1.22-1.13c1.15,0,1.82,1.2,2.8,1.2a1,1,0,0,0,.94-1.07,3.69,3.69,0,0,0-1.39-2.13c-.47-.39,0-1.1.63-.76A4.17,4.17,0,0,1,93.13,32.38ZM77.69,36.25A1.12,1.12,0,0,0,76.47,35c-1.34,0-2.75,1.6-2.75,4.29A3.85,3.85,0,0,0,77.69,36.25ZM87.75,21.43a.54.54,0,0,1-.54-.55V19.77a.73.73,0,0,0-.73-.73.73.73,0,0,0-.45.16,1.73,1.73,0,0,1-1.7.26,1.1,1.1,0,0,0-1.35.46,1.08,1.08,0,0,0,.27,1.4,1.73,1.73,0,0,1,.63,1.61.62.62,0,0,0,.09.46.71.71,0,0,0,1,.27l1-.56a.55.55,0,0,1,.75.21.54.54,0,0,1-.21.74l-.95.55a.73.73,0,0,0-.27,1,.64.64,0,0,0,.37.3,1.75,1.75,0,0,1,1.07,1.35,1.09,1.09,0,0,0,2.16,0,1.71,1.71,0,0,1,1.07-1.35.66.66,0,0,0,.36-.3.73.73,0,0,0-.26-1l-1-.55a.55.55,0,0,1,.54-.95l1,.56a.74.74,0,0,0,1-.27.76.76,0,0,0,.09-.46,1.73,1.73,0,0,1,.63-1.61,1.09,1.09,0,0,0-1.09-1.86,1.73,1.73,0,0,1-1.7-.26A.73.73,0,0,0,89,19a.74.74,0,0,0-.74.73v1.11A.53.53,0,0,1,87.75,21.43ZM29.87,46.55a12.82,12.82,0,0,1-8.51,3.25A12.46,12.46,0,0,1,8.94,37.52C8.94,32,13.41,26.37,19,26.37a8.2,8.2,0,0,1,5.53,2.11.26.26,0,0,0,.39,0l6.89-9a.22.22,0,0,0-.17-.37H11a.84.84,0,0,0-.54.21c-4.75,4.27-7.87,9.82-7.87,16.23A16.67,16.67,0,0,0,19.14,52.3a16.68,16.68,0,0,0,11.61-4.9C31.41,46.74,30.59,45.89,29.87,46.55Z"/>
    <g>
      <path class="cls-2" d="M64.6,73.36a.81.81,0,0,1-.71-.27c-.12-.14-.23-.36-.49-.36a.87.87,0,0,0-.49.19,8.06,8.06,0,0,1-3.16.69c-3.73,0-5.69-2.11-5.69-7.81,0-5.5,2.55-7.72,6.55-7.72a12.51,12.51,0,0,1,4.13.76l-.47,1.4c-.06.15-.13.22-.25.22a.83.83,0,0,1-.43-.19,4.94,4.94,0,0,0-2.89-.78c-3.05,0-4.88,1.44-4.88,6.31s1.14,6.32,4.92,6.32a5.65,5.65,0,0,0,2.61-.62c.43-.29.45-.41.45-1V66h1.11c.31,0,.43.14.43.48v6.93H64.6Z"/>
      <path class="cls-2" d="M68.35,73.36c-.31,0-.43-.15-.43-.48V62.73h.58c.43,0,.55.07.68.26s.2.39.39.39.25-.07.45-.19a5.33,5.33,0,0,1,2.6-.7,3.5,3.5,0,0,1,.39,0V64a8.8,8.8,0,0,0-.9-.06,4,4,0,0,0-2.44.82c-.23.19-.23.2-.23.43v8.18H68.35Z"/>
      <path class="cls-2" d="M78.53,73.6c-3.17,0-4.89-1.95-4.89-5.57s1.71-5.56,4.89-5.56,4.88,1.94,4.88,5.56S81.71,73.6,78.53,73.6Zm0-9.87c-2.19,0-3.26,1.46-3.26,4.3s1.07,4.31,3.26,4.31,3.25-1.47,3.25-4.31S80.71,63.73,78.53,63.73Z"/>
      <path class="cls-2" d="M93.14,73.36c-.43,0-.56-.06-.68-.25s-.2-.4-.39-.4a.84.84,0,0,0-.46.19,5,5,0,0,1-2.53.7c-2.52,0-3.8-1.14-3.8-3.55V62.73h1.1c.3,0,.42.14.42.48v6.43c0,1.88.6,2.6,2.58,2.6A4.08,4.08,0,0,0,92,71.42c.23-.19.23-.23.23-.46V62.73h1.1c.3,0,.43.14.43.48V73.36Z"/>
      <path class="cls-2" d="M96.42,77c-.3,0-.43-.14-.43-.48V62.75h.58c.43,0,.56.06.68.25s.2.39.39.39a.77.77,0,0,0,.46-.19,5.26,5.26,0,0,1,2.6-.69c2.38,0,4.3,1.66,4.3,5.52s-2.11,5.59-4.3,5.59a5.81,5.81,0,0,1-2.64-.69.67.67,0,0,0-.33-.13c-.14,0-.2.13-.2.43V77H96.42ZM97.52,71c0,.23,0,.27.22.46a3.8,3.8,0,0,0,2.38.82c1.79,0,3.25-1.08,3.25-4.21,0-2.72-1.07-4.19-3.18-4.19a3.72,3.72,0,0,0-2.45.82c-.19.17-.22.21-.22.43V71Z"/>
    </g>
  </g>
</svg>
