<svg id="danfoss" xmlns="http://www.w3.org/2000/svg" width="110" height="92" viewBox="0 0 110 92">
  <defs>
    <style>
      .cls-1 {
        fill: #fff;
      }
    </style>
  </defs>
  <title>danfoss</title>
  <path class="cls-1" d="M6.26,37.48c8.22-3.08,17.52-5.08,27-3.69l1-1.79c2-.31,4-.58,5.92-.78l-2.64,4a8.43,8.43,0,0,1,4.94,6.67c0,3.86-1.72,7.07-3.68,10.05l2.87-.34c1.93-3.15,7.35-6.94,9.58-4.06L52,46.48s3.55-.54,3.62-.54c-3.15,5.85-4.84,7.44-4.44,8s6.23-4.47,8.4-8.63L63,44.92l-1.92,3.42c3.45-2.84,4.7-4.67,6.63-3.86,2.67,1.12-3.18,7.34-2.54,7.75s5.24-3.11,7.51-6.6l-3.21.51L70.61,44l3.18-.41c3.46-6.36,12.52-18.5,15.3-16.71,2.57,1.66-3.62,9.71-11.74,15.53l-.51.91,7-.77a.27.27,0,0,1,0,.44c-2.27,1.92-6.73,6.63-4.4,8.08,2.07.75,5.28-4,5.59-5-1.83-.57-.38-5.68,2.23-5,1.76.61.44,3.11,0,4.09,3.35-.4,6.36-3.82,6.36-3.82,0-2.71,1.69-5.62,3.69-4.91,1.28.68.24,2.61-1.9,4.87-.27.27-.13,1.32-.17,2.58a64.77,64.77,0,0,0,7-2.91c0-2.61,1.32-5.76,3.52-5.11,1.59.47,0,3.68-2,5.31,0,3.48.54,5.78-.34,7.61-1,2.1-4.54,3.86-6.63,2.64s-.24-4.06,1.08-5.11a26.83,26.83,0,0,1,4.2-2.37,10.51,10.51,0,0,0,.1-1.76C101,42.92,95.38,45,95.38,45a10.78,10.78,0,0,1-1.18,4.81c-1.22,2.33-5.25,3.28-6.6,2-.95-.91-.68-3.11,1.29-4.67a24.09,24.09,0,0,1,4.56-2.47A6,6,0,0,0,93.62,43c-2,1.73-4.26,3.45-7.17,3.52h0C84.69,50,80,54.9,76.64,52.7s2-7.64,2.5-8.05a31.52,31.52,0,0,0-3.25.54L70.17,55.78l.07,0s19.53-2.23,37.26-2.27l-2.14,2c1,.71,2.07,1.42,3.15,2a353.64,353.64,0,0,0-39.76,1l-3.11,5.78-3.86.27,3.35-5.78s-9.68.3-30.93,3.18c.24-.44.31-.54.65-1.12a284.51,284.51,0,0,1,31.67-4.74s3-5.11,2.84-5c-1.86,1.55-6,4.87-7.71,3.24-1.26-1.55,3.11-6.53,2.6-6.93s-5.58,5-7.44,7.88c-1.05.07-3,.31-3,.31l1.49-2.91a23.29,23.29,0,0,1-5.38,3.48A1.71,1.71,0,0,1,47.64,55s-3.83,3.45-6.4,2.13c-1.38-.71-.74-3.31-.5-3.89l-3.05.34c-13.2,15.29-30.42,17-32.48,13.67C3,63.63,10.82,58.83,21.52,55.44c0,0,9.5-17.12,9.33-17.25-13.12-2-29.37,8.08-29.37,8.08Zm5,27.57c1.56,2,14.45-.1,23.18-10.93a57.3,57.3,0,0,0-10.93,2.71c-2.84,4.64-4,6.33-5.11,6.16-1.32-.17.78-2.67,1.89-5.08C15.53,59.47,9.81,63.23,11.23,65.05ZM25.17,54.36a91.56,91.56,0,0,1,10.46-2c1.52-2.47,6.46-10.69-.61-13.27Zm20.4-3.45c-1,1.35-2.09,3.62-1.28,4.26s3.15-1.35,3.92-2.33c1.32-1.73,2.41-4.1,1.59-4.54C48.52,47.63,46.28,50,45.57,50.91ZM78.8,39.57c2.57-1.59,9.14-8.12,7.51-9.64C84.62,29.19,80.12,36.46,78.8,39.57Zm11.71,7.75c-1.08.78-1.62,1.76-1.08,2.2s1.86-.37,2.43-1.22A6.35,6.35,0,0,0,93,45.9,8.26,8.26,0,0,0,90.51,47.32Zm8.56-.44c-.37.34-1.76,1.59-1.15,2.2s2-.37,2.64-1.08a7.79,7.79,0,0,0,1.22-2.54A8.4,8.4,0,0,0,99.07,46.88Z"/>
</svg>
