<svg id="Layer_16" data-name="Layer 16" xmlns="http://www.w3.org/2000/svg" width="110" height="92" viewBox="0 0 110 92">
  <defs>
    <style>
      .cls-1 {
        fill: #fff;
      }

      .cls-2 {
        fill: #565656;
      }
    </style>
  </defs>
  <title>kraft</title>
  <g>
    <path class="cls-1" d="M98.73,40.88,94.2,34.5l0-.07-.06-.08c-2.62-3.2-4.15-4.05-8.65-4.79-3.52-.58-6.59-1-9.67-1.28a199.48,199.48,0,0,0-21-.86,204.93,204.93,0,0,0-21,.86c-3.08.29-6.15.7-9.67,1.28-4.5.74-6,1.59-8.65,4.79l-.06.08-.06.07-4.51,6.37a7.15,7.15,0,0,0,0,8.67l4.52,6.38.06.08.06.07c2.62,3.2,4.15,4,8.65,4.79,3.52.58,6.59,1,9.67,1.29a205.56,205.56,0,0,0,21,.85,205.71,205.71,0,0,0,21-.85c3.08-.3,6.15-.71,9.67-1.29,4.5-.74,6-1.59,8.65-4.79l.06-.07,0-.08,4.52-6.37a7.15,7.15,0,0,0,0-8.67"/>
    <path class="cls-2" d="M33.4,34.7c-4,.55-4.83.93-7,3.63L23.48,42.4a4.59,4.59,0,0,0,0,5.62l2.89,4.08c2.2,2.69,3,3.07,7,3.62A178.87,178.87,0,0,0,54.79,57a178.87,178.87,0,0,0,21.39-1.26c4-.55,4.82-.93,7-3.62L86.1,48a4.59,4.59,0,0,0,0-5.62l-2.89-4.07c-2.21-2.7-3-3.08-7-3.63a174.27,174.27,0,0,0-21.39-1.26A181,181,0,0,0,33.4,34.7M75.51,31c3.27.31,6.31.74,9.48,1.26,3.81.63,4.75,1.11,7,3.81l4.52,6.36a4.39,4.39,0,0,1,0,5.48l-4.52,6.37c-2.2,2.69-3.14,3.18-7,3.81-3.17.52-6.21.94-9.48,1.25a200.94,200.94,0,0,1-20.72.85,200.94,200.94,0,0,1-20.72-.85c-3.28-.31-6.31-.73-9.48-1.25-3.81-.63-4.75-1.12-6.95-3.81L13.12,48a4.39,4.39,0,0,1,0-5.48l4.52-6.36c2.2-2.7,3.14-3.18,7-3.81,3.17-.52,6.2-.95,9.48-1.26a201.53,201.53,0,0,1,20.72-.84A196.41,196.41,0,0,1,75.51,31Z"/>
    <path class="cls-2" d="M34.58,50.12a1.88,1.88,0,0,1,.24.74h4.35a3.09,3.09,0,0,1-.55-.74l-3.18-5.84,3.3-4.45a5,5,0,0,1,.66-.75H35.57a2.2,2.2,0,0,1-.4.75l-3,3.87V39.83a1.66,1.66,0,0,1,.16-.75H28.44a1.66,1.66,0,0,1,.16.75V50.12a1.6,1.6,0,0,1-.16.74h3.93a1.6,1.6,0,0,1-.16-.74V45.88l2.37,4.24"/>
    <path class="cls-2" d="M44,44.44h1.27a1.37,1.37,0,1,0,0-2.73H44v2.73m-3.62-4.61a1.8,1.8,0,0,0-.15-.75h5.89c1.7,0,4.06.44,4.06,3.18a3,3,0,0,1-2.52,3.24l2.75,4.62a2.84,2.84,0,0,0,.55.74H46.49a1.61,1.61,0,0,0-.24-.74L44,46.39v3.73a1.72,1.72,0,0,0,.15.74H40.2a1.72,1.72,0,0,0,.15-.74V39.83Z"/>
    <path class="cls-2" d="M71.36,39.1v3.22a1.8,1.8,0,0,0-.75-.15h-3.7v2h4.33v2.67a1.64,1.64,0,0,0-.75-.16H66.91v3.4a1.59,1.59,0,0,0,.15.74H63.13a1.6,1.6,0,0,0,.16-.74V39.83a1.66,1.66,0,0,0-.16-.75l8.23,0"/>
    <path class="cls-2" d="M72.18,39.1v3.22a1.74,1.74,0,0,1,.75-.15h2.44v7.95a1.59,1.59,0,0,1-.15.74h3.89a1.59,1.59,0,0,1-.15-.74V42.17h2.33a1.8,1.8,0,0,1,.75.15V39.1H72.18"/>
    <path class="cls-2" d="M57.93,48.51l.38,1.61a1.45,1.45,0,0,1,0,.74h4.13a2.12,2.12,0,0,1-.36-.74l-3-10.3a1.6,1.6,0,0,1-.08-.74h-5a1.6,1.6,0,0,1-.08.74l-3.16,10.3a1.93,1.93,0,0,1-.35.74h3.91a1.45,1.45,0,0,1,0-.74l.38-1.61h3.13M56.13,46h-.74l1-4.07,1,4.07Z"/>
  </g>
</svg>
