<svg id="phillips" xmlns="http://www.w3.org/2000/svg" width="110" height="92" viewBox="0 0 110 92">
  <defs>
    <style>
      .cls-1 {
        fill: #fff;
      }
    </style>
  </defs>
  <title>phillips</title>
  <g id="g2853">
    <path id="path2859" class="cls-1" d="M41.08,38.34H36.46v6h-4.8v-6H27.05V53.45h4.61V47.51h4.8v5.94h4.62Zm16,12.07V38.34H52.5V53.45h8.34l.7-3Zm-8-12.07H44.48V53.45H49.1Zm18.69,0H63.18V53.45h4.61ZM90.52,42.2c0-.82.83-1.2,2.15-1.2a11.49,11.49,0,0,1,4.11.76l-.38-3.29A18.24,18.24,0,0,0,92.17,38c-3.73,0-6.26,1.47-6.26,4.55,0,5.31,7.21,4.23,7.21,6.7,0,.95-.7,1.45-2.41,1.45a13.72,13.72,0,0,1-5.24-1.2L86,53a15.41,15.41,0,0,0,4.8.76c3.85,0,7-1.27,7-5.06,0-5.06-7.27-4.11-7.27-6.51m-13,7.65c4.29,0,7-2.22,7-6.07,0-4.23-2.9-5.75-7.64-5.75a51.88,51.88,0,0,0-5.62.31V53.45h4.61v-3.6Zm2.46-6c0,2-1,3.29-3.35,3.29h-.76V40.89c.27,0,.52,0,.76,0,2.27,0,3.35,1.08,3.35,3m-61.77,6c4.3,0,7-2.22,7-6.07,0-4.23-2.9-5.75-7.64-5.75a51.88,51.88,0,0,0-5.62.31V53.45h4.61v-3.6Zm2.47-6c0,2-.95,3.29-3.35,3.29h-.76V40.89c.27,0,.52,0,.76,0,2.27,0,3.35,1.08,3.35,3"/>
  </g>
</svg>
