<svg id="telia" xmlns="http://www.w3.org/2000/svg" width="110" height="92" viewBox="0 0 110 92">
  <defs>
    <style>
      .cls-1 {
        fill: #fff;
      }
    </style>
  </defs>
  <title>telia</title>
  <g id="g22">
    <g id="g28">
      <path id="path30" class="cls-1" d="M50.81,43.17c-.45,0-.89-.34-1.34-1A2.24,2.24,0,0,1,49,41.09a1.45,1.45,0,0,1,.81-1.15,3.25,3.25,0,0,1,1.78-.53H62.21q1,0,1,.93a3.53,3.53,0,0,1-.57,1.95,1.6,1.6,0,0,1-1.25.88H58V54.88a3.5,3.5,0,0,1-.57,1.94,1.56,1.56,0,0,1-1.25.88c-.45,0-.9-.33-1.35-1a2.33,2.33,0,0,1-.44-1.06V43.17Z"/>
    </g>
    <g id="g32">
      <path id="path34" class="cls-1" d="M67.27,47.05a3.32,3.32,0,0,0-2.13.71,3,3,0,0,0-1.08,1.91h6.11a2.65,2.65,0,0,0-.88-1.87,2.91,2.91,0,0,0-2-.75m-3.21,5.24a3.28,3.28,0,0,0,1.24,2,3.62,3.62,0,0,0,2.3.74,6.32,6.32,0,0,0,2.72-.78,3.1,3.1,0,0,1,1.35-.36c.56,0,.83.25.83.75a3,3,0,0,1-.3,1.3,2,2,0,0,1-.76.9,7.36,7.36,0,0,1-2,.85,7.88,7.88,0,0,1-2.13.3,6.18,6.18,0,0,1-3.41-1,7,7,0,0,1-2.4-2.54,6.74,6.74,0,0,1-.85-3.31,6.94,6.94,0,0,1,.93-3.57,6.62,6.62,0,0,1,2.44-2.46,6.42,6.42,0,0,1,3.29-.87,6,6,0,0,1,3.12.82,5.76,5.76,0,0,1,2.14,2.16,6,6,0,0,1,.75,3,2.73,2.73,0,0,1-.43,1.49,1.18,1.18,0,0,1-1,.66Z"/>
    </g>
    <g id="g36">
      <path id="path38" class="cls-1" d="M78.15,57.7a2.64,2.64,0,0,1-2-.92,3.06,3.06,0,0,1-.86-2.16V40.86c0-.38.27-.74.79-1.09a3.11,3.11,0,0,1,1.7-.52c.64,0,1,.3,1,.88V53.5a1,1,0,0,0,.14.56,1.17,1.17,0,0,0,.51.38.71.71,0,0,1,.41.72,3.07,3.07,0,0,1-.52,1.75,1.39,1.39,0,0,1-1.11.79"/>
    </g>
    <g id="g40">
      <path id="path42" class="cls-1" d="M83.38,57.7c-.39,0-.82-.33-1.29-1a2.27,2.27,0,0,1-.42-1V46c0-.38.27-.74.79-1.09a3.1,3.1,0,0,1,1.7-.51c.64,0,1,.29,1,.88V55a3.46,3.46,0,0,1-.27,1.35,2.76,2.76,0,0,1-.68,1,1.18,1.18,0,0,1-.79.36m0-14.92c-.44,0-.91-.36-1.39-1.07a2.41,2.41,0,0,1-.5-1.16c0-.43.3-.84.88-1.22a3.44,3.44,0,0,1,1.9-.57q1.08,0,1.08,1a3.94,3.94,0,0,1-.29,1.48,3,3,0,0,1-.76,1.13,1.36,1.36,0,0,1-.92.42"/>
    </g>
    <g id="g44">
      <path id="path46" class="cls-1" d="M93.7,54.49a4,4,0,0,0,2.17-.65V48a4.29,4.29,0,0,0-2.15-.54,3.4,3.4,0,0,0-3.47,3.49,3.49,3.49,0,0,0,1,2.54,3.26,3.26,0,0,0,2.45,1m-.24,3.21a6.34,6.34,0,0,1-3.38-.93A6.65,6.65,0,0,1,86.88,51a6.6,6.6,0,0,1,1-3.5,6.87,6.87,0,0,1,2.49-2.45,6.53,6.53,0,0,1,3.29-.87,5.79,5.79,0,0,1,2.93.83,3.24,3.24,0,0,1,1.81-.59c.64,0,1,.29,1,.88V55a3.46,3.46,0,0,1-.27,1.35,2.76,2.76,0,0,1-.68,1,1.18,1.18,0,0,1-.79.36c-.39,0-.83-.33-1.29-1a3.24,3.24,0,0,1-.36-.73,3.4,3.4,0,0,1-.56,1,1.74,1.74,0,0,1-.74.54,3.68,3.68,0,0,1-1.17.18"/>
    </g>
    <g id="g68">
      <g>
        <path class="cls-1" d="M41.34,38.07l-.28.43Z"/>
        <path class="cls-1" d="M18.78,54.31a38.34,38.34,0,0,0,11.54-3.86,39.15,39.15,0,0,0,4.15-2.32,39.15,39.15,0,0,1-4.15,2.32A38.34,38.34,0,0,1,18.78,54.31Z"/>
        <path class="cls-1" d="M11.55,50.37c1.85,1.54,5.4,1.48,9.83.2C17,51.85,13.4,51.91,11.55,50.37Z"/>
        <path class="cls-1" d="M34.58,55.16c-.46.31-.94.6-1.43.89-.89.51-1.76,1-2.6,1.4.84-.42,1.71-.89,2.6-1.4C33.64,55.76,34.12,55.47,34.58,55.16Z"/>
        <path class="cls-1" d="M31.55,46.3c4.33-2.39,7.76-5.2,9.51-7.8C39.31,41.1,35.88,43.91,31.55,46.3Z"/>
        <path class="cls-1" d="M43.32,38.59a10.33,10.33,0,0,0-.06-1.14c-.14,2.24-1.74,4.79-4.3,7.21l-.23.21-.47.42a29.44,29.44,0,0,1-2.62,2.06l-.58.39-.59.39a39.15,39.15,0,0,1-4.15,2.32,38.34,38.34,0,0,1-11.54,3.86l-.56,0-.55,0h-.52A9.56,9.56,0,0,1,15,54.17a3.31,3.31,0,0,1-.42-.12,5.32,5.32,0,0,1-2.42-1.48,30.11,30.11,0,0,0,3.91,5.82h0c3.17,2.82,8.15,2.26,14.48-.94.84-.42,1.71-.89,2.6-1.4.49-.29,1-.58,1.43-.89A21.34,21.34,0,0,0,41.72,48a14.21,14.21,0,0,0,.64-1.3A34.12,34.12,0,0,0,43.32,38.59Z"/>
        <path class="cls-1" d="M11.55,50.37c1.85,1.54,5.4,1.48,9.83.2a52.12,52.12,0,0,0,7.92-3.11c.65-.31,1.27-.63,1.88-1l.37-.2c4.33-2.39,7.76-5.2,9.51-7.8l.28-.43.25-.43A5.81,5.81,0,0,0,42.36,35a3.39,3.39,0,0,0-.12-.91c-1.63-2.83-5-3.91-8.5-3.91C23.2,30.21,10.27,37.15,10.27,46a11.94,11.94,0,0,0,.7,3.74h0A3.35,3.35,0,0,0,11.55,50.37Z"/>
        <path class="cls-1" d="M28.61,60h0A17.55,17.55,0,0,1,22,61.52a6.78,6.78,0,0,1-4.31-1.37l0,0c2.83,2.82,6.06,4.8,8.88,4.8,4.95,0,11.73-6,14.94-15.32C39.68,53,35.8,57.11,28.61,60Z"/>
        <path class="cls-1" d="M30.55,57.45c-6.33,3.2-11.31,3.76-14.48.94h0C19.24,61.21,24.22,60.65,30.55,57.45Z"/>
        <path class="cls-1" d="M34.58,55.16A21.34,21.34,0,0,0,41.72,48,21.34,21.34,0,0,1,34.58,55.16Z"/>
        <path class="cls-1" d="M28.61,60h0c7.19-2.9,11.07-7,12.88-10.4h0C39.68,53,35.8,57.11,28.61,60Z"/>
        <path class="cls-1" d="M28.61,60h0A17.55,17.55,0,0,1,22,61.52,17.55,17.55,0,0,0,28.61,60Z"/>
        <path class="cls-1" d="M35.64,47.35l-.58.39Z"/>
        <path class="cls-1" d="M38.26,45.29a29.44,29.44,0,0,1-2.62,2.06A29.44,29.44,0,0,0,38.26,45.29Z"/>
        <path class="cls-1" d="M38.73,44.87l-.47.42Z"/>
        <path class="cls-1" d="M17.67,54.4h0Z"/>
        <path class="cls-1" d="M18.22,54.36l-.55,0Z"/>
        <path class="cls-1" d="M17.15,54.41A9.56,9.56,0,0,1,15,54.17,9.56,9.56,0,0,0,17.15,54.41Z"/>
        <path class="cls-1" d="M11.55,50.37a3.35,3.35,0,0,1-.58-.61h0A3.35,3.35,0,0,0,11.55,50.37Z"/>
        <path class="cls-1" d="M42.36,35a5.81,5.81,0,0,1-.77,2.61A5.81,5.81,0,0,0,42.36,35Z"/>
        <path class="cls-1" d="M21.38,50.57a52.12,52.12,0,0,0,7.92-3.11c.65-.31,1.27-.63,1.88-1-.61.33-1.23.65-1.88,1A52.12,52.12,0,0,1,21.38,50.57Z"/>
      </g>
    </g>
  </g>
</svg>
