<?xml version="1.0" encoding="utf-8"?>
<!-- Generator: Adobe Illustrator 23.0.3, SVG Export Plug-In . SVG Version: 6.00 Build 0)  -->
<svg version="1.1" id="Layer_1" xmlns="http://www.w3.org/2000/svg" xmlns:xlink="http://www.w3.org/1999/xlink" x="0px" y="0px"
	 viewBox="0 0 46.6 67.7" style="enable-background:new 0 0 46.6 67.7;" xml:space="preserve">
<style type="text/css">
	.st0{fill:#03E3FC;}
</style>
<g id="Group_7" transform="translate(-1147.89 -88.389)">
	<path id="Path_12" class="st0" d="M1150,148.8c1.6,0.6,3.2,1.3,4.7,2.1c3.6,1.8,7.2,3.6,12.8,3.6h0.5c5.6,0,9.3-1.8,12.8-3.6
		c1.5-0.8,3.1-1.5,4.7-2.1c0.4-0.1,0.6-0.6,0.4-0.9c-0.1-0.2-0.2-0.3-0.4-0.4c-3.3-1.5-7.6-4.1-9.3-7.8c-0.4-0.8-0.6-1.7-0.7-2.5
		c1.8,0.7,3.8,1.1,5.7,1.2c0.1,0,0.2,0,0.4,0c1.2-0.1,2.3-0.8,3-1.8c0,0,0,0,0.1-0.1c0.9-1.5,1.8-5.5,2.4-10.4h0.7
		c1.3,0,2.5-0.7,3.1-1.9c2.6-5.2,1.3-11,0.2-14c-0.5-1.4-1.8-2.3-3.3-2.3h-0.9l-0.6-3c-1.9-9.3-11-15.4-20.3-13.5
		c-4.5,0.8-8.5,3.4-11.2,7.2c-2.6,3.7-3.6,8.3-2.8,12.7c-0.1,0.1-0.2,0.1-0.2,0.2c-0.2,0.2-0.3,0.6-0.2,0.9l1,3.5
		c0,0.1,0,0.1-0.1,0.2c-1,2.6,0.1,5.6,2.5,7c1,2.2,2.4,4.1,4.1,5.8c1.7,7.6-2.1,15.5-9.3,18.7c-0.4,0.2-0.5,0.6-0.4,1
		C1149.7,148.6,1149.9,148.7,1150,148.8L1150,148.8z M1161,130.2c2.6,1.9,5.5,3.4,8.5,4.5c0.3,0.1,0.7,0.3,1.2,0.5
		c1,0.4,2.2,0.9,3.4,1.3c0.1,1.3,0.4,2.5,0.9,3.7c1.6,3.6,5.3,6.1,8.5,7.8c-1.1,0.5-2.2,1-3.3,1.5c-3.6,1.8-7,3.5-12.4,3.4
		c-5.4,0-8.8-1.6-12.4-3.4c-1.1-0.5-2.2-1.1-3.3-1.6C1158.3,144.4,1161.9,137.4,1161,130.2L1161,130.2z M1158.1,123.7
		c0.3,0,0.7,0,1-0.1c0.4-0.1,0.7-0.5,0.6-0.9s-0.5-0.7-0.9-0.6c-2.4,0.4-4.6-1.1-5-3.5c-0.1-0.8-0.1-1.5,0.2-2.3
		c0.4-1.3,1.6-2.1,2.9-2.3c1.3-0.1,2.4,0.5,3,1.6c0.6,1.2,0.7,2.6,0.3,3.9c-0.1,0.4,0.2,0.8,0.6,0.9s0.8-0.2,0.9-0.5s0.1-0.7,0.2-1
		l11.8,2l5.1,4.1c0.6,0.5,1.4,0.8,2.2,0.8h4.7c-0.5,4.6-1.4,8.3-2.1,9.6c-0.5,0.7-1.2,1.1-2,1.2c-2.5,0.2-7.6-1.9-10.4-3
		c-0.4-0.2-0.8-0.3-1.2-0.5c-5.7-2.2-10.1-4.8-12.9-9.7C1157.5,123.7,1157.8,123.7,1158.1,123.7L1158.1,123.7z M1156.1,99.4
		c2.4-3.5,6.1-5.9,10.2-6.6c1-0.2,2-0.3,3.1-0.3c7.5-0.1,14.1,5.3,15.6,12.7l0.5,2.7h-5.4c-0.9,0-1.8,0.3-2.4,1l-3.5,3.3l-20.6-0.9
		C1152.8,107,1153.7,102.8,1156.1,99.4L1156.1,99.4z M1189.9,110.6c1,2.8,2.3,8.1-0.1,12.8c-0.4,0.7-1.1,1.1-1.8,1.1h-6.9
		c-0.5,0-0.9-0.2-1.3-0.5l-6.9-5.6c-0.9-0.7-1-2-0.3-2.9c0.1-0.1,0.1-0.1,0.2-0.2l6-5.6c0.4-0.4,0.9-0.6,1.4-0.6h7.8
		C1188.8,109.3,1189.6,109.8,1189.9,110.6L1189.9,110.6z"/>
	<path id="Path_13" class="st0" d="M1187.3,111.2l-1.6-1.1c-0.3-0.2-0.8-0.2-1,0.2c-0.2,0.3-0.2,0.8,0.2,1l1.6,1.1
		c0.3,0.2,0.8,0.2,1-0.2C1187.7,111.9,1187.7,111.5,1187.3,111.2L1187.3,111.2z"/>
	<path id="Path_14" class="st0" d="M1187.5,121.6c-0.2-0.3-0.7-0.4-1-0.2l-1.6,1.1c-0.3,0.2-0.4,0.7-0.2,1c0.2,0.3,0.7,0.4,1,0.2
		l1.6-1.1C1187.7,122.4,1187.7,121.9,1187.5,121.6L1187.5,121.6z"/>
</g>
</svg>
