<?xml version="1.0" encoding="utf-8"?>
<!-- Generator: Adobe Illustrator 23.0.3, SVG Export Plug-In . SVG Version: 6.00 Build 0)  -->
<svg version="1.1"
	 id="svg8" inkscape:version="0.92.3 (2405546, 2018-03-11)" sodipodi:docname="ambu.svg" xmlns:cc="http://creativecommons.org/ns#" xmlns:dc="http://purl.org/dc/elements/1.1/" xmlns:inkscape="http://www.inkscape.org/namespaces/inkscape" xmlns:rdf="http://www.w3.org/1999/02/22-rdf-syntax-ns#" xmlns:sodipodi="http://sodipodi.sourceforge.net/DTD/sodipodi-0.dtd" xmlns:svg="http://www.w3.org/2000/svg"
	 xmlns="http://www.w3.org/2000/svg" xmlns:xlink="http://www.w3.org/1999/xlink" x="0px" y="0px" viewBox="0 0 159.7 52"
	 style="enable-background:new 0 0 159.7 52;" xml:space="preserve">
<style type="text/css">
	.st0{fill:#FFFFFF;}
	.st1{fill:#808080;}
</style>
<sodipodi:namedview  bordercolor="#666666" borderopacity="1.0" fit-margin-bottom="0.5" fit-margin-left="0.5" fit-margin-right="0.5" fit-margin-top="0.5" id="base" inkscape:current-layer="layer1" inkscape:cx="73.875548" inkscape:cy="21.680573" inkscape:document-units="px" inkscape:pageopacity="0" inkscape:pageshadow="2" inkscape:window-height="1001" inkscape:window-maximized="1" inkscape:window-width="1920" inkscape:window-x="-9" inkscape:window-y="-9" inkscape:zoom="7.9195959" pagecolor="#00ffff" showgrid="false" units="px">
	</sodipodi:namedview>
<g id="layer1" transform="translate(-874.21077,-335.03299)" inkscape:groupmode="layer" inkscape:label="Layer 1">
	<g id="surface781230" transform="matrix(0.3527778,0,0,0.3527778,791.26308,216.76561)">
		<path id="path19802" inkscape:connector-curvature="0" class="st0" d="M599.8,403.5c-2.3-0.5-5-0.8-7.9-0.8s-5.6,0.3-7.9,0.8
			c-1.1,0.3-1.4,0.5-1.4,1.6V433c0,2.4-0.1,2.4-2.4,3.1l0,0c-2.4,0.6-5.6,1-8.8,1c-3.7,0-7-0.5-9.6-1.2c-1.5-0.4-1.5-0.8-1.5-2.9
			v-27.9c-0.1-1.3-0.5-1.4-2.3-1.8c-2.1-0.4-4.5-0.7-7.1-0.7c-2.6,0-5,0.3-7.1,0.7c-1.8,0.3-2.2,0.5-2.3,1.8v33.6
			c0,2.1,0,2.4,1.5,2.9c7.3,1.9,17.3,3.2,28.4,3.2c10.7,0,20.4-1.1,27.5-2.9c2.3-0.6,2.4-0.7,2.4-3v-33.6
			C601.2,404,600.9,403.8,599.8,403.5"/>
		<path id="path19804" inkscape:connector-curvature="0" class="st0" d="M511.9,433c0,2.4-0.1,2.4-2.4,3.1l0,0c-2.4,0.6-6,1-9.3,1
			c-3.7,0-7.5-0.5-10-1.2c-1.5-0.4-1.5-0.8-1.5-2.9v-20.4c0-2.1,0-2.4,1.5-2.9c2.6-0.7,6.4-1.2,10-1.2c3.4,0,6.9,0.4,9.3,1l0,0
			c2.4,0.6,2.4,0.7,2.4,3.1V433z M528.1,403.9c-7.2-1.9-17.2-2.9-27.8-2.9c-3.9,0-7.9,0.2-11.4,0.4v-28.5c-0.1-1.3-0.5-1.4-2.2-1.8
			c-2.1-0.4-4.5-0.7-7.1-0.7c-2.6,0-4.8,0.3-6.9,0.7c-1.8,0.3-2.2,0.5-2.3,1.8v65.9c0,2.1,0,2.4,1.5,2.9c7.3,1.9,17.4,3.2,28.4,3.2
			c10.7,0,20.5-1.1,27.8-2.9c2.3-0.6,2.4-0.7,2.4-3V407C530.4,404.5,530.4,404.4,528.1,403.9"/>
		<path id="path19806" inkscape:connector-curvature="0" class="st0" d="M457.1,403.9c-7.2-1.9-17.2-2.9-27.8-2.9
			c-7.6,0-14.9,0.6-20.9,1.5c-6.1-1-13.4-1.5-20.9-1.5c-11.1,0-21.4,1.2-28.7,3.2c-1.5,0.4-1.5,0.8-1.5,2.9v34.2
			c0.1,1.3,0.5,1.4,2.3,1.8c2.1,0.4,4.5,0.7,7.1,0.7c2.6,0,5-0.3,7.1-0.7c1.8-0.3,2.2-0.5,2.2-1.8v-28.4c0-2.1,0-2.4,1.6-2.9
			c2.5-0.7,6.2-1.2,9.9-1.2c3.4,0,6.7,0.4,9.2,1l0,0c2.4,0.6,2.4,0.7,2.4,3.1h0.1v28.4c0.1,1.3,0.5,1.4,2.3,1.8
			c2.1,0.4,4.5,0.7,7.1,0.7c2.6,0,5-0.3,7.1-0.7c1.8-0.3,2.2-0.5,2.2-1.8v-28.4c0-2.1,0.1-2.4,1.6-2.9c2.6-0.7,6.2-1.2,9.9-1.2
			c3.4,0,6.7,0.4,9.2,1l0,0c2.4,0.6,2.4,0.7,2.4,3.1v28.4c0.1,1,0.3,1.3,1.5,1.6c2.3,0.5,5,0.8,7.9,0.8c2.9,0,5.6-0.3,7.9-0.8
			c1.1-0.3,1.4-0.5,1.4-1.6v-34.2C459.4,404.5,459.4,404.4,457.1,403.9"/>
		<path id="path19808" inkscape:connector-curvature="0" class="st0" d="M321.1,413c-2.9-0.2-5.9-0.3-9-0.3s-6.1,0.1-9,0.3
			c-1.6,0.1-1.9,0-1.5-1.1l9.7-26.1c0.9-2.7,1.1-2.8,2,0l9.2,25.7C323.1,413.1,322.9,413.2,321.1,413 M351.4,441l-24.9-66.6
			c-0.9-2.4-1-2.4-3.5-3s-6.6-0.9-10.4-0.9s-7.9,0.3-10.4,0.9c-2.5,0.6-2.6,0.7-3.5,3L272.5,441c-0.3,1-0.2,1.3,0.8,1.6
			c2.1,0.5,4.7,0.8,7.7,0.8c2.9,0,6-0.3,8.4-0.8c1.3-0.3,1.7-0.5,2.1-1.6l6.8-18c0.4-1,0.8-1,2.7-1.3l0,0c3.1-0.3,7-0.6,11.1-0.6
			c4.5,0,8.7,0.3,11.9,0.7c1.1,0.2,1.4,0.3,1.8,1.2l6.6,17.9c0.4,1,0.8,1.3,2.1,1.6c2.5,0.5,5.5,0.8,8.4,0.8c2.9,0,5.6-0.3,7.7-0.8
			C351.6,442.3,351.7,442,351.4,441"/>
		<path id="path19810" inkscape:connector-curvature="0" class="st1" d="M273,454.9h3v14.6h-3V454.9z"/>
		<path id="path19812" inkscape:connector-curvature="0" class="st1" d="M290.2,460.6c0,0-0.8-0.1-1.6-0.1c-2.2,0-2.9,1.6-2.9,3.6
			c0,1.5,0.6,3.4,2.7,3.4c0.7,0,1.3,0,1.9-0.1V460.6z M288.8,469.6c-3.5,0-6.3-1.9-6.3-5.6c0-3.4,2.2-5.7,5.7-5.7
			c0.3,0,1.1,0,1.9,0.1v-4.6h2.9c0,0,0,14.8,0,15.4C292.4,469.4,290.3,469.6,288.8,469.6"/>
		<path id="path19814" inkscape:connector-curvature="0" class="st1" d="M305,460.2c-1.7,0-2.3,1.3-2.3,2.8h4.6
			C307.3,461.6,306.9,460.2,305,460.2 M299.5,464.2c0-3.5,1.9-5.8,5.6-5.8c4.1,0,5.5,2.1,5.4,6.6h-7.8c0.2,2.4,2,2.9,3.9,2.9
			c1.3,0,2.2-0.2,3.1-0.3v1.9c0,0-1.9,0.4-3.9,0.4C302.4,469.7,299.5,468.3,299.5,464.2"/>
		<path id="path19816" inkscape:connector-curvature="0" class="st1" d="M323,464.8c-0.3,0-1.4,0-1.7,0c-1.3,0-2.4,0.1-2.4,1.5
			s1.1,1.5,2.4,1.5c0.6,0,1.1,0,1.7-0.1V464.8z M320.9,469.7c-2.6-0.1-5-0.5-5-3.5c0-3.4,4-3.3,7.1-3.3c0-1.7,0-2.4-2.7-2.4
			c-1.4,0-2.9,0.3-3.7,0.4v-2c0.9-0.3,2.7-0.4,3.9-0.4c2.6,0,5.6,0.3,5.6,3.6v7.5C324.1,469.6,322.5,469.7,320.9,469.7"/>
		<path id="path19818" inkscape:connector-curvature="0" class="st1" d="M336.2,469.7c-1.5,0-2.9-0.3-4-0.4v-2.1
			c1.1,0.3,2.3,0.5,3.5,0.5c1.1,0,2.6-0.3,2.6-1.3c0-1-1.1-1.1-2.9-1.4c-0.6-0.2-3.4-0.7-3.4-3.2c0-2.7,2.9-3.4,4.9-3.4
			c2.1,0,3.4,0.3,3.9,0.3v1.9c-0.3-0.1-1.9-0.3-3.3-0.3c-0.9,0-2.4,0.2-2.4,1.2c0,1,1.6,1.2,2.7,1.3c1.4,0.3,3.7,0.8,3.7,3.2
			C341.5,468.3,339.4,469.7,336.2,469.7"/>
		<path id="path19820" inkscape:connector-curvature="0" class="st1" d="M362.1,460.6v5.6c0,0.8,0.5,1,1.1,1h2v2.1h-2.4
			c-1.9,0-3.6,0-3.6-2.9v-5.9H357v-2.1h2.2v-2.9c0,0,2.4-0.8,2.9-0.9v3.9h3.4v2.1L362.1,460.6L362.1,460.6z"/>
		<path id="path19822" inkscape:connector-curvature="0" class="st1" d="M378.7,469.5v-7c0-0.8-0.3-1.8-1.5-1.8
			c-1.1,0-2.5,0.5-2.9,0.6v8.1h-2.9v-15.6h2.9v5.6c1.1-0.4,2.5-1,3.7-1c1.7,0,3.6,0.8,3.6,3.4v7.7L378.7,469.5L378.7,469.5z"/>
		<path id="path19824" inkscape:connector-curvature="0" class="st1" d="M394.9,464.8c-0.3,0-1.4,0-1.7,0c-1.3,0-2.3,0.1-2.3,1.5
			s1.1,1.5,2.3,1.5c0.7,0,1.1,0,1.7-0.1V464.8z M392.8,469.7c-2.6-0.1-5-0.5-5-3.5c0-3.4,4-3.3,7.1-3.3c0-1.7,0-2.4-2.7-2.4
			c-1.4,0-2.9,0.3-3.7,0.4v-2c0.9-0.3,2.7-0.4,3.9-0.4c2.6,0,5.5,0.3,5.5,3.6v7.5C396,469.6,394.4,469.7,392.8,469.7"/>
		<path id="path19826" inkscape:connector-curvature="0" class="st1" d="M408.5,460.6v5.6c0,0.8,0.5,1,1.1,1h2v2.1h-2.4
			c-1.9,0-3.6,0-3.6-2.9v-5.9h-2.2v-2.1h2.2v-2.9c0,0,2.4-0.8,2.9-0.9v3.9h3.4v2.1L408.5,460.6L408.5,460.6z"/>
		<path id="path19828" inkscape:connector-curvature="0" class="st1" d="M441.2,469.5h-3.6l-2.2-7.9h-0.2l-2.2,7.9h-3.6l-2.7-10.9
			h2.8c0,0,1.8,7.7,1.8,8.5h0.2c0-0.8,2.2-8.5,2.2-8.5h3.6c0,0,2.1,7.7,2.1,8.5h0.2c0-0.8,1.9-8.5,1.9-8.5h2.4L441.2,469.5z"/>
		<path id="path19830" inkscape:connector-curvature="0" class="st1" d="M454.5,460.4c-2.1,0-2.8,1.3-2.8,3.7c0,2.4,0.7,3.7,2.8,3.7
			c2.1,0,2.7-1.3,2.7-3.7C457.2,461.6,456.6,460.4,454.5,460.4 M454.5,469.7c-3.7,0-5.8-2.3-5.8-5.7c0-3.4,2.2-5.7,5.8-5.7
			s5.8,2.2,5.8,5.7C460.3,467.4,457.9,469.7,454.5,469.7"/>
		<path id="path19832" inkscape:connector-curvature="0" class="st1" d="M469.5,461.6v7.9h-2.9v-10.9h2.6v1c1.9-1.2,3.3-1.1,4.3-1.1
			v2.4C472.4,460.9,470.5,460.8,469.5,461.6"/>
		<path id="path19834" inkscape:connector-curvature="0" class="st1" d="M486.3,469.5l-4.4-5.6v5.6H479v-15.6h2.9v9.4l4.4-4.7h3.5
			l-4.9,5l5.2,6H486.3z"/>
		<path id="path19836" inkscape:connector-curvature="0" class="st1" d="M509.5,460.6v8.8h-2.9v-8.8h-2.1v-2.1h2.1v-1
			c0-1.3,0.3-2.4,1.3-3.1c0.8-0.5,1.5-0.6,2.4-0.6h2.7v2h-1.3c-1.7,0-2.1,0.2-2.1,1.9v0.8h3.3v2.1L509.5,460.6L509.5,460.6z"/>
		<path id="path19838" inkscape:connector-curvature="0" class="st1" d="M523.7,460.4c-2.1,0-2.8,1.3-2.8,3.7c0,2.4,0.7,3.7,2.8,3.7
			c2,0,2.7-1.3,2.7-3.7C526.4,461.6,525.7,460.4,523.7,460.4 M523.7,469.7c-3.7,0-5.8-2.3-5.8-5.7c0-3.4,2.2-5.7,5.8-5.7
			c3.6,0,5.8,2.2,5.8,5.7C529.5,467.4,527,469.7,523.7,469.7"/>
		<path id="path19840" inkscape:connector-curvature="0" class="st1" d="M538.7,461.6v7.9h-2.9v-10.9h2.6v1c1.9-1.2,3.3-1.1,4.3-1.1
			v2.4C541.5,460.9,539.7,460.8,538.7,461.6"/>
		<path id="path19842" inkscape:connector-curvature="0" class="st1" d="M558.7,453.8h2.9v15.6h-2.9V453.8z"/>
		<path id="path19844" inkscape:connector-curvature="0" class="st1" d="M568.6,458.5h2.9v10.9h-2.9V458.5z M568.6,453.8h2.9v2.7
			h-2.9V453.8z"/>
		<path id="path19846" inkscape:connector-curvature="0" class="st1" d="M582.5,460.6v8.8h-2.9v-8.8h-2.1v-2.1h2.1v-1
			c0-1.3,0.3-2.4,1.3-3.1c0.7-0.5,1.5-0.6,2.4-0.6h2.7v2h-1.3c-1.7,0-2.1,0.2-2.1,1.9v0.8h3.3v2.1L582.5,460.6L582.5,460.6z"/>
		<path id="path19848" inkscape:connector-curvature="0" class="st1" d="M596.4,460.2c-1.7,0-2.4,1.3-2.4,2.8h4.6
			C598.6,461.6,598.3,460.2,596.4,460.2 M590.9,464.2c0-3.5,1.9-5.8,5.6-5.8c4,0,5.5,2.1,5.4,6.6H594c0.2,2.4,2,2.9,3.9,2.9
			c1.3,0,2.2-0.2,3.2-0.3v1.9c0,0-1.9,0.4-3.9,0.4C593.7,469.7,590.9,468.3,590.9,464.2"/>
		<path id="path19850" inkscape:connector-curvature="0" class="st1" d="M625,391.5c5,0.8,12.3,4.6,16,7.5c0.4,0.3,0.7,0.3,1.2,0
			c1-0.8,2.1-1.7,3.1-2.8c1-1.1,1.9-2.3,2.4-3.4c0.3-0.5,0.3-0.8-0.1-1.2l-0.1-0.1c-5.6-5-18.5-10.3-26.2-10.3
			c-5.9,5-12.1,17.5-13.1,25v0.1c0,0.5,0.1,0.8,0.7,0.9c1.2,0.4,2.5,0.8,4,0.9c1.5,0.2,2.9,0.3,4.2,0.1c0.6-0.1,0.8-0.2,0.8-0.8
			C618.7,403,621.7,395.4,625,391.5"/>
		<path id="path19852" inkscape:connector-curvature="0" class="st1" d="M629,368.5c-1.8-4.8-2.1-13-1.3-17.6c0.1-0.5,0-0.8-0.6-1
			c-1.1-0.5-2.5-1-4-1.3c-1.5-0.3-2.9-0.5-4.1-0.5c-0.6,0-0.8,0.1-0.9,0.7v0.1c-1.6,7.4,0.1,21.3,4,27.9c7.2,2.7,21.2,1.9,28.2-0.8
			h0.1c0.5-0.3,0.6-0.4,0.5-1c-0.3-1.2-0.6-2.6-1.2-4c-0.6-1.4-1.3-2.7-1.9-3.7c-0.3-0.5-0.5-0.6-1.1-0.4
			C642.1,368.3,634,369.5,629,368.5"/>
		<path id="path19854" inkscape:connector-curvature="0" class="st1" d="M607,376.5c-3.3,4-10.2,8.2-14.6,9.9
			c-0.5,0.2-0.6,0.4-0.6,1c0.1,1.3,0.4,2.6,0.8,4c0.4,1.4,1,2.8,1.6,3.8c0.3,0.5,0.5,0.7,1,0.5h0.1c7.2-2.4,18.3-10.8,22.2-17.4
			c-1.3-7.7-8.9-19.3-14.9-24h-0.1c-0.4-0.3-0.7-0.3-1.1,0.1c-0.9,0.8-1.9,1.9-2.9,3c-0.9,1.2-1.7,2.4-2.2,3.5
			c-0.3,0.5-0.3,0.8,0.2,1.1C600.2,365.3,605.3,371.6,607,376.5"/>
	</g>
</g>
</svg>
