<?xml version="1.0" encoding="utf-8"?>
<!-- Generator: Adobe Illustrator 23.0.3, SVG Export Plug-In . SVG Version: 6.00 Build 0)  -->
<svg version="1.1" id="Layer_1" xmlns="http://www.w3.org/2000/svg" xmlns:xlink="http://www.w3.org/1999/xlink" x="0px" y="0px"
	 viewBox="0 0 176 38.6" style="enable-background:new 0 0 176 38.6;" xml:space="preserve">
<style type="text/css">
	.st0{fill:#FFFFFF;}
</style>
<g>
	<g>
		<path class="st0" d="M69.4,21.2l0,0.4c-0.5,4.8-4,7.9-8.9,7.9c-2.9,0-5.4-0.9-7.1-2.7c-1.8-1.8-2.8-4.4-2.8-7.3c0-3,1-5.6,2.8-7.4
			c1.8-1.8,4.3-2.7,7.1-2.7c4.7,0,8.3,2.8,8.8,7l0,0.4l-4.8,0l0-0.3c-0.2-1.7-2-3-3.9-3c-1.4,0-2.5,0.4-3.4,1.3
			c-1,1.1-1.6,2.8-1.6,4.8c0,1.9,0.6,3.6,1.6,4.6c0.8,0.8,2,1.3,3.4,1.3c2.3,0,3.8-1.4,4.1-3.9l0-0.3L69.4,21.2L69.4,21.2z"/>
		<path class="st0" d="M78.3,14.4c2.3,0,4.3,0.7,5.7,2.1c1.3,1.3,2,3.2,2,5.4c0,2.2-0.7,4-2,5.3c-1.4,1.4-3.3,2.1-5.7,2.1
			c-2.3,0-4.2-0.7-5.6-2.1c-1.3-1.3-2-3.2-2-5.3c0-2.2,0.7-4.1,2-5.4C74,15.2,76,14.4,78.3,14.4z M76.2,25.1
			c0.5,0.5,1.2,0.8,2.1,0.8c0.9,0,1.6-0.3,2.1-0.8c0.8-0.8,1-2.2,1-3.2c0-1-0.2-2.4-1-3.2c-0.5-0.5-1.2-0.8-2.1-0.8
			c-0.9,0-1.6,0.3-2.1,0.8c-0.8,0.8-1,2.2-1,3.2C75.2,22.9,75.4,24.3,76.2,25.1z"/>
		<path class="st0" d="M101.4,14.4c2.3,0,4.3,0.7,5.7,2.1c1.3,1.3,2,3.2,2,5.4c0,2.2-0.7,4-2,5.3c-1.4,1.4-3.3,2.1-5.7,2.1
			c-2.3,0-4.3-0.7-5.6-2.1c-1.3-1.3-2-3.2-2-5.3c0-2.2,0.7-4.1,2-5.4C97.1,15.2,99,14.4,101.4,14.4z M99.3,25.1
			c0.5,0.5,1.2,0.8,2.1,0.8c0.9,0,1.6-0.3,2.1-0.8c0.8-0.8,1-2.2,1-3.2c0-1-0.2-2.4-1-3.2c-0.5-0.5-1.2-0.8-2.1-0.8
			c-0.9,0-1.6,0.3-2.1,0.8c-0.8,0.8-1,2.2-1,3.2C98.3,22.9,98.4,24.3,99.3,25.1z"/>
		<g>
			<rect x="87.5" y="9.7" class="st0" width="4.6" height="19.3"/>
		</g>
		<g>
			<rect x="127.3" y="9.7" class="st0" width="4.6" height="19.3"/>
		</g>
		<path class="st0" d="M170.9,18h2.9v-3.2l-2.9,0v-4.1h-4.6v4.1l-2.4,0l0,3.2h2.4v7.6c0,1,0.3,1.9,0.9,2.4c1,1,2.7,1.1,3.9,1.1
			c1,0,1.8,0,2.3-0.1l0.3,0v-3.6l-0.4,0.1c-0.4,0.1-0.7,0.1-1.1,0.1c-0.6,0-0.9-0.1-1.1-0.2c-0.2-0.1-0.2-0.5-0.2-1
			C170.9,24.3,170.9,18,170.9,18z"/>
		<path class="st0" d="M115.2,33.7h-4.6l0-0.3V14.8v0h3.9l0.5,1.1l0,0.1l0.1,0c1-0.9,2.3-1.5,3.9-1.5c1.9,0,3.5,0.6,4.7,1.8
			c1.4,1.4,2.1,3.4,2.1,5.8c0,2.2-0.8,4.2-2.1,5.5c-1.2,1.2-2.7,1.8-4.5,1.8c-1.5,0-2.9-0.5-3.9-1.4l-0.1-0.1L115.2,33.7L115.2,33.7
			z M121.2,21.9c0-1.4-0.4-2.6-1.1-3.3c-0.5-0.5-1.2-0.8-2-0.8c-0.8,0-1.5,0.3-2,0.7c-0.7,0.7-1,1.8-1,3.3c0,1.4,0.4,2.5,1,3.2
			c0.5,0.5,1.2,0.8,2,0.8c0.8,0,1.5-0.3,2-0.8C121,24.3,121.2,22.9,121.2,21.9z"/>
		<path class="st0" d="M148.6,29h-3.9l-0.5-1.2l0-0.1l-0.1,0.1c-1,1-2.5,1.6-4.1,1.6c-1.8,0-3.3-0.6-4.5-1.8
			c-1.3-1.3-2.1-3.3-2.1-5.5c0-2.4,0.7-4.5,2.1-5.8c1.2-1.2,2.8-1.8,4.7-1.8c1.6,0,2.9,0.5,3.9,1.5l0,0l0.5-1.1l3.9,0L148.6,29
			L148.6,29z M141.1,25.9c0.8,0,1.5-0.3,2-0.8c0.7-0.7,1-1.8,1-3.2c0-1.4-0.4-2.6-1-3.3c-0.5-0.5-1.2-0.7-2-0.7
			c-0.8,0-1.5,0.3-2,0.8c-0.7,0.7-1.1,1.9-1.1,3.3c0,1,0.2,2.4,1,3.2C139.6,25.6,140.2,25.9,141.1,25.9z"/>
		<path class="st0" d="M154.5,24.7c0.3,1.4,2.1,1.5,2.6,1.5c0.2,0,1.3,0,1.9-0.6c0.2-0.2,0.3-0.5,0.3-0.8c0-0.8-1.6-1.2-4.1-1.8
			c-1.5-0.3-4.8-1-4.8-3.9c0-1.2,0.4-2.3,1.2-3c1.1-1.1,2.9-1.6,5.4-1.6c4,0,6.2,1.6,6.6,4.5l-4.4,0c-0.1-0.6-0.5-1.3-2.3-1.3
			c-1,0-1.4,0.2-1.6,0.4c-0.1,0.1-0.2,0.3-0.2,0.5c0,0.8,1.4,1.1,3.1,1.5c0.4,0.1,0.7,0.1,1.1,0.2c1.5,0.3,4.8,1,4.8,4.1
			c0,1.3-0.4,2.4-1.3,3.3c-1.5,1.5-3.8,1.8-5.5,1.8c-2.1,0-3.7-0.4-4.9-1.2c-1.2-0.8-1.9-2-2-3.5L154.5,24.7z"/>
	</g>
	<g>
		<path class="st0" d="M20.1,6c1.7,0,3.8-1.3,6.8-1.3c2.8,0,4.6,1.1,5.5,1.2c0.6,0.1,1.6,0.1,2.9,0c-0.7-0.7-1.5-1.4-2.3-2H9.9
			C9.1,4.5,8.3,5.2,7.6,6L20.1,6z"/>
		<path class="st0" d="M40.4,15.5l-4.5,0.1c-0.9,0-2.9,0.7-7.9,0.7l-1.6,0c-4.6,0-7.4-0.7-9-0.8H2.6c-0.1,0.7-0.2,1.4-0.3,2.1h15.5
			c1.3,0,5.4-0.8,8.5-0.8l1.6,0c3.1,0,5.8,0.8,7.2,0.8l5.6,0C40.7,16.9,40.6,16.2,40.4,15.5z"/>
		<path class="st0" d="M15.6,13.7c0.8,0,6.1-0.7,10-0.7l3.1,0c3.9,0,6.6,0.7,8.1,0.7l3.2,0c-0.2-0.7-0.5-1.4-0.7-2l-1.9,0
			c-0.9,0.2-4.5,0.9-8.6,0.8l-3.1,0c-3.2,0-7.6-0.5-9.5-0.9H3.8c-0.3,0.7-0.5,1.4-0.8,2.1L15.6,13.7z"/>
		<path class="st0" d="M17,9.8c1.1,0,4.8-0.8,9.4-0.8l1.6,0c3.9,0,5.8,0.4,7.4,0.6l2.9,0.1C37.9,9,37.4,8.3,37,7.7l-3.2,0.2
			C32.9,8,31.1,8.5,28,8.5l-1.6,0c-3.5,0-5.7-0.5-7.2-0.7H6c-0.5,0.6-0.9,1.3-1.3,2H17z"/>
		<path class="st0" d="M12.7,2.1h17.6C27.7,0.8,24.7,0,21.5,0C18.4,0,15.4,0.8,12.7,2.1z"/>
	</g>
	<path class="st0" d="M33.2,19.3c-2.6,0-4.4,0.6-6,0.6c-1.6,0-3.8-0.6-5-0.6l0,0H2.2c0,10.7,8.6,19.3,19.3,19.3
		c10.7,0,19.3-8.6,19.3-19.3C40.8,19.3,33.2,19.3,33.2,19.3z"/>
</g>
</svg>
