<?xml version="1.0" encoding="utf-8"?>
<!-- Generator: Adobe Illustrator 23.0.3, SVG Export Plug-In . SVG Version: 6.00 Build 0)  -->
<svg version="1.1" id="_x3C_Layer_x3E_" xmlns="http://www.w3.org/2000/svg" xmlns:xlink="http://www.w3.org/1999/xlink" x="0px"
	 y="0px" viewBox="0 0 264.6 152" style="enable-background:new 0 0 264.6 152;" xml:space="preserve">
<style type="text/css">
	.st0{fill:#DADADA;}
	.st1{fill:#B4B4B4;}
	.st2{fill:#FFFFFF;}
</style>
<path class="st0" d="M216.5,22.9c-12.3-11.2-25.1-18.9-29.9-14.1c-18.7,18.7-12.4,88.2-3.4,102.1c0-0.1-0.1-0.1-0.1-0.2
	C178.7,99.4,195.1,43.4,216.5,22.9z"/>
<path class="st0" d="M225.5,16.7c-3.1,1.2-6.1,3.4-9,6.2c15,13.7,29.3,32.6,27.3,40.5c-5.5,21.7-34.4,42.9-55.6,49.2
	c-0.6,0.2-1.2,0.4-1.7,0.4c-0.1,0-0.2,0-0.3,0c0,0,0,0,0,0s1.2,0.2,2.5,0.2c1.8,0.1,4.3,0.2,5.9,0.2c21.7,0,50.4-8.3,62.3-24.1
	C265.9,77.4,239.4,11.1,225.5,16.7z"/>
<path class="st1" d="M188.2,112.6c21.2-6.3,50.1-27.5,55.6-49.2c2-7.9-12.3-26.8-27.3-40.5c-21.4,20.4-37.8,76.5-33.4,87.8
	c0,0.1,0,0.1,0.1,0.2c0.5,0.9,1.9,1.8,3,2c0.1,0,0.2,0,0.3,0C187.1,112.9,187.6,112.7,188.2,112.6z"/>
<g>
	<path class="st2" d="M11.2,119.6c-1.5,0-2.8-0.1-3.9-0.1v-15.3c1.2,0,2.9-0.1,4.6-0.1c4.9,0,7.8,2.3,7.8,7.6
		C19.8,117,16.2,119.6,11.2,119.6z M11.7,105.8c-0.8,0-1.7,0-2.3,0.1v11.8c0.6,0.1,1.4,0.1,2,0.1c3.6,0,6.1-1.9,6.1-6
		C17.6,107.9,15.7,105.8,11.7,105.8z"/>
	<path class="st2" d="M27.9,119.6c0-0.8,0-1.6,0.1-2.3h0c-0.5,1.4-2,2.5-3.8,2.5c-1.9,0-3.1-1-3.1-2.8c0-2.5,2.5-4,6.8-4v-0.8
		c0-1.6-0.6-2.4-2.5-2.4c-1.1,0-2.4,0.3-3.4,0.9l-0.2-1.8c1.1-0.5,2.5-0.8,4-0.8c3.3,0,4.2,1.5,4.2,3.8v4.5c0,1.1,0,2.3,0,3.3H27.9z
		 M27.8,114.3c-3.9,0-4.8,1.2-4.8,2.2c0,1,0.7,1.6,1.7,1.6c1.8,0,3.1-1.8,3.1-3.6V114.3z"/>
	<path class="st2" d="M39.8,119.6v-7.3c0-1.6-0.4-2.5-1.9-2.5c-1.9,0-3.2,1.9-3.2,4.4v5.4h-2v-11.3h2c0,0.7,0,1.7-0.2,2.4l0,0
		c0.7-1.6,2-2.6,4-2.6c2.6,0,3.4,1.6,3.4,3.6v7.9H39.8z"/>
	<path class="st2" d="M58.7,119.6v-7.3c0-1.6-0.4-2.6-1.8-2.6c-1.6,0-3.2,1.7-3.2,4.4v5.4h-2v-7.3c0-1.4-0.3-2.5-1.8-2.5
		c-1.7,0-3.2,1.8-3.2,4.4v5.4h-2v-11.3h2c0,0.7,0,1.7-0.2,2.4l0,0c0.7-1.6,2.1-2.6,3.9-2.6c2.4,0,3,1.7,3.1,2.6
		c0.5-1.1,1.7-2.6,3.9-2.6c2.1,0,3.4,1.2,3.4,3.7v7.8H58.7z"/>
	<path class="st2" d="M69.8,119.6c0-0.8,0-1.6,0.1-2.3h0c-0.5,1.4-2,2.5-3.8,2.5c-1.9,0-3.1-1-3.1-2.8c0-2.5,2.5-4,6.8-4v-0.8
		c0-1.6-0.6-2.4-2.5-2.4c-1.1,0-2.4,0.3-3.4,0.9l-0.2-1.8c1.1-0.5,2.5-0.8,4-0.8c3.3,0,4.2,1.5,4.2,3.8v4.5c0,1.1,0,2.3,0,3.3H69.8z
		 M69.7,114.3c-3.9,0-4.8,1.2-4.8,2.2c0,1,0.7,1.6,1.7,1.6c1.8,0,3.1-1.8,3.1-3.6V114.3z"/>
	<path class="st2" d="M80.1,110c-2.4-0.4-3.5,1.3-3.5,5v4.5h-2v-11.3h2c0,0.7-0.1,1.8-0.2,2.7h0c0.5-1.6,1.6-3.1,3.9-2.9L80.1,110z"
		/>
	<path class="st2" d="M87.9,119.6l-4.2-5.8v5.8h-2v-16.6h2v10.3l4-5h2.5l-4.3,5.2l4.7,6.1H87.9z"/>
	<path class="st2" d="M94.3,119.8c-0.8,0-1.7-0.1-2.4-0.2l0.1-1.8c0.7,0.2,1.6,0.4,2.5,0.4c1.5,0,2.5-0.7,2.5-1.7c0-2.5-5.3-1-5.3-5
		c0-1.9,1.6-3.4,4.5-3.4c0.7,0,1.5,0.1,2.2,0.2l0,1.7c-0.7-0.2-1.5-0.4-2.3-0.4c-1.5,0-2.3,0.6-2.3,1.6c0,2.5,5.3,1.1,5.3,4.9
		C99.1,118.2,97.3,119.8,94.3,119.8z"/>
	<path class="st2" d="M49.2,142.3l-5.8-9.5c-0.7-1.1-1.3-2.2-1.8-3.2c0.1,1.6,0.2,5.3,0.2,7.8v4.9h-2v-15.4h2.8l5.7,9.2
		c0.7,1.1,1.3,2.3,1.9,3.4c-0.1-1.9-0.2-5.7-0.2-8.2v-4.4h2v15.4H49.2z"/>
	<path class="st2" d="M60.9,142.3c0-0.8,0-1.6,0.1-2.3h0c-0.5,1.4-2,2.5-3.8,2.5c-1.9,0-3.1-1-3.1-2.8c0-2.5,2.5-4,6.8-4v-0.8
		c0-1.6-0.6-2.4-2.5-2.4c-1.1,0-2.4,0.3-3.4,0.9l-0.2-1.8c1.1-0.5,2.5-0.8,4-0.8c3.3,0,4.2,1.5,4.2,3.8v4.5c0,1.1,0,2.3,0,3.3H60.9z
		 M60.8,137.1c-3.9,0-4.8,1.2-4.8,2.2c0,1,0.7,1.6,1.7,1.6c1.8,0,3.1-1.8,3.1-3.6V137.1z"/>
	<path class="st2" d="M69.5,142.5c-2.3,0-3-1-3-3.4v-6.5h-2.3V131h2.3v-3.7l2-0.6v4.2h3.2v1.6h-3.2v5.8c0,1.9,0.3,2.4,1.6,2.4
		c0.5,0,1.1-0.1,1.5-0.2v1.7C71,142.4,70.2,142.5,69.5,142.5z"/>
	<path class="st2" d="M81.1,142.3c0-0.7,0.1-1.7,0.2-2.4l0,0c-0.7,1.6-2,2.6-4,2.6c-2.6,0-3.4-1.6-3.4-3.6V131h2v7.3
		c0,1.6,0.5,2.5,1.9,2.5c1.9,0,3.2-1.9,3.2-4.4V131h2v11.3H81.1z"/>
	<path class="st2" d="M91.4,132.8c-2.4-0.4-3.5,1.3-3.5,5v4.5h-2V131h2c0,0.7-0.1,1.8-0.2,2.7h0c0.5-1.6,1.6-3.1,3.9-2.9L91.4,132.8
		z"/>
	<path class="st2" d="M101.2,127.5c-0.5-0.2-1.1-0.3-1.7-0.3c-1.6,0-2.3,0.9-2.3,2.9v0.9h3.1v1.6h-3.1v9.7h-2v-9.7h-2.3V131h2.3
		v-0.8c0-3.1,1.5-4.6,4.3-4.6c0.6,0,1.3,0.1,1.9,0.2L101.2,127.5z"/>
	<path class="st2" d="M107.4,132.8c-2.4-0.4-3.5,1.3-3.5,5v4.5h-2V131h2c0,0.7-0.1,1.8-0.3,2.7h0c0.5-1.6,1.6-3.1,3.9-2.9
		L107.4,132.8z"/>
	<path class="st2" d="M118,136.5h-7.4c-0.1,3,1.2,4.3,3.6,4.3c1.2,0,2.4-0.3,3.3-0.7l0.2,1.7c-1.1,0.5-2.4,0.7-3.8,0.7
		c-3.5,0-5.3-1.8-5.3-5.8c0-3.4,1.8-5.9,5-5.9c3.2,0,4.5,2.2,4.5,4.8C118.1,135.8,118.1,136.1,118,136.5z M113.5,132.3
		c-1.5,0-2.5,1.1-2.8,2.8h5.3C116,133.4,115.1,132.3,113.5,132.3z"/>
	<path class="st2" d="M127.4,142.3c0-0.6,0-1.6,0.2-2.3l0,0c-0.6,1.5-2,2.5-3.8,2.5c-2.8,0-4.2-2-4.2-5.3c0-4,2.3-6.3,5.8-6.3
		c0.6,0,1.2,0,1.9,0.1v-5.3h2v16.6H127.4z M127.4,132.7c-0.7-0.2-1.4-0.3-2-0.3c-2.2,0-3.6,1.3-3.6,4.6c0,2.4,0.8,3.8,2.5,3.8
		c2,0,3.1-2.4,3.1-4.4V132.7z"/>
	<path class="st2" d="M139.4,142.3V135c0-1.6-0.4-2.5-1.9-2.5c-1.9,0-3.2,1.9-3.2,4.4v5.4h-2V131h2c0,0.7,0,1.7-0.2,2.4l0,0
		c0.7-1.6,2-2.6,4-2.6c2.6,0,3.4,1.6,3.4,3.6v7.9H139.4z"/>
	<path class="st2" d="M145.3,129.1c-0.8,0-1.4-0.6-1.4-1.3c0-0.7,0.6-1.3,1.4-1.3c0.8,0,1.4,0.6,1.4,1.3
		C146.6,128.5,146,129.1,145.3,129.1z M144.2,142.3V131h2v11.3H144.2z"/>
	<path class="st2" d="M156.2,142.3V135c0-1.6-0.4-2.5-1.9-2.5c-1.9,0-3.2,1.9-3.2,4.4v5.4h-2V131h2c0,0.7,0,1.7-0.2,2.4l0,0
		c0.7-1.6,2-2.6,4-2.6c2.6,0,3.4,1.6,3.4,3.6v7.9H156.2z"/>
	<path class="st2" d="M174.8,142.5c-0.8,0-1.7-0.1-2.4-0.2l0.1-1.8c0.7,0.2,1.6,0.4,2.5,0.4c1.5,0,2.5-0.7,2.5-1.7
		c0-2.5-5.3-1-5.3-5c0-1.9,1.6-3.4,4.5-3.4c0.7,0,1.5,0.1,2.2,0.2l0,1.7c-0.7-0.2-1.5-0.4-2.3-0.4c-1.5,0-2.3,0.6-2.3,1.6
		c0,2.5,5.3,1.1,5.3,4.9C179.6,141,177.8,142.5,174.8,142.5z"/>
	<path class="st2" d="M189,127.5c-0.5-0.2-1.1-0.3-1.7-0.3c-1.6,0-2.3,0.9-2.3,2.9v0.9h3.1v1.6H185v9.7h-2v-9.7h-2.3V131h2.3v-0.8
		c0-3.1,1.5-4.6,4.3-4.6c0.6,0,1.3,0.1,1.9,0.2L189,127.5z"/>
	<path class="st2" d="M193.7,142.5c-3.1,0-5.1-1.8-5.1-5.8c0-3.3,2.1-6,5.5-6c2.9,0,5.1,1.6,5.1,5.7
		C199.2,139.9,197,142.5,193.7,142.5z M193.9,132.5c-1.6,0-3.2,1.2-3.2,4c0,2.7,1.1,4.2,3.2,4.2c1.7,0,3.1-1.3,3.1-4.2
		C197.1,134,196,132.5,193.9,132.5z"/>
	<path class="st2" d="M207.2,132.8c-2.4-0.4-3.5,1.3-3.5,5v4.5h-2V131h2c0,0.7-0.1,1.8-0.3,2.7h0c0.5-1.6,1.6-3.1,3.9-2.9
		L207.2,132.8z"/>
	<path class="st2" d="M217.6,136.5h-7.4c-0.1,3,1.2,4.3,3.6,4.3c1.2,0,2.4-0.3,3.3-0.7l0.2,1.7c-1.1,0.5-2.4,0.7-3.8,0.7
		c-3.5,0-5.3-1.8-5.3-5.8c0-3.4,1.8-5.9,5-5.9c3.2,0,4.5,2.2,4.5,4.8C217.7,135.8,217.7,136.1,217.6,136.5z M213.1,132.3
		c-1.5,0-2.5,1.1-2.8,2.8h5.3C215.7,133.4,214.7,132.3,213.1,132.3z"/>
	<path class="st2" d="M227.2,142.3V135c0-1.6-0.4-2.5-1.9-2.5c-1.9,0-3.2,1.9-3.2,4.4v5.4h-2V131h2c0,0.7,0,1.7-0.2,2.4l0,0
		c0.7-1.6,2-2.6,4-2.6c2.6,0,3.4,1.6,3.4,3.6v7.9H227.2z"/>
	<path class="st2" d="M233,129.1c-0.7,0-1.4-0.6-1.4-1.3c0-0.7,0.6-1.3,1.4-1.3c0.8,0,1.4,0.6,1.4,1.3
		C234.3,128.5,233.7,129.1,233,129.1z M231.9,142.3V131h2v11.3H231.9z"/>
	<path class="st2" d="M243.9,142.3V135c0-1.6-0.4-2.5-1.9-2.5c-1.9,0-3.2,1.9-3.2,4.4v5.4h-2V131h2c0,0.7,0,1.7-0.2,2.4l0,0
		c0.7-1.6,2-2.6,4-2.6c2.6,0,3.4,1.6,3.4,3.6v7.9H243.9z"/>
	<path class="st2" d="M170.9,132.6h-1.9c0.6,0.5,1,1.3,1,2.2c0,2.4-1.7,4.2-4.9,4.2c-0.5,0-1-0.1-1.4-0.1c-0.5,0.2-0.7,0.6-0.7,0.9
		c0,0.6,0.6,0.9,1.9,0.9h2.1c2.5,0,3.8,1.2,3.8,3.2c0,0.1,0,0.2,0,0.3h-2c0,0,0,0,0,0c0-1.1-0.8-1.8-2.4-1.8c0,0-2.5,0-2.9,0
		c-0.9,0-1.6-0.4-2.1-0.8c-0.4-0.3-0.6-0.8-0.6-1.3c0-0.8,0.5-1.5,1.3-1.9c-1.1-0.6-1.7-1.8-1.7-3.2c0-2.4,1.8-4.4,5-4.4
		c0.7,0,1.2,0.1,1.8,0.2h3.8V132.6z M167.9,134.9c0-1.7-1-2.6-2.7-2.6c-1.8,0-2.9,1.1-2.9,2.6c0,1.7,1,2.6,2.8,2.6
		C166.8,137.5,167.9,136.6,167.9,134.9z"/>
	<path class="st2" d="M258.3,144.2h-2c0,0,0,0,0,0c0-1.1-0.8-1.8-2.4-1.8c0,0-2.5,0-2.9,0c-0.9,0-1.6-0.4-2.1-0.8
		c-0.4-0.3-0.6-0.8-0.6-1.3c0-0.8,0.5-1.5,1.3-1.9c-1.1-0.6-1.7-1.8-1.7-3.2c0-2.4,1.8-4.4,5-4.4c0.7,0,1.2,0.1,1.8,0.2h3.8v1.6
		h-1.9c0.6,0.5,1,1.3,1,2.2c0,2.4-1.7,4.2-4.9,4.2c-0.5,0-1-0.1-1.4-0.1c-0.5,0.2-0.7,0.6-0.7,0.9c0,0.6,0.6,0.9,1.9,0.9h2.1
		c2.5,0,3.8,1.2,3.8,3.2C258.3,144,258.3,144.1,258.3,144.2z M249.9,134.9c0,1.7,1,2.6,2.8,2.6c1.7,0,2.8-0.9,2.8-2.6
		c0-1.7-1-2.6-2.7-2.6C251,132.3,249.9,133.4,249.9,134.9z"/>
</g>
<path class="st2" d="M236,60c0.5,2.1-0.8,4.3-2.9,4.8c-2.1,0.5-4.3-0.8-4.8-2.9c-0.5-2.1,0.8-4.3,2.9-4.8
	C233.4,56.6,235.5,57.9,236,60L236,60z"/>
</svg>
