<?xml version="1.0" encoding="utf-8"?>
<!-- Generator: Adobe Illustrator 23.0.3, SVG Export Plug-In . SVG Version: 6.00 Build 0)  -->
<svg version="1.1" id="svg" xmlns="http://www.w3.org/2000/svg" xmlns:xlink="http://www.w3.org/1999/xlink" x="0px" y="0px"
	 viewBox="0 0 400 187.3" style="enable-background:new 0 0 400 187.3;" xml:space="preserve">
<style type="text/css">
	.st0{fill-rule:evenodd;clip-rule:evenodd;fill:#888888;}
	.st1{fill-rule:evenodd;clip-rule:evenodd;fill:#FFFFFF;}
</style>
<path id="path0" class="st0" d="M84.5,64.7c-0.4,0-0.8,0.2-0.8,0.3c0,0.1-0.2,0.2-0.6,0.1c-0.3-0.1-0.6,0-0.6,0.1
	c0,0.1-0.2,0.2-0.5,0.1c-0.3-0.1-0.5,0-0.5,0.1c0,0.1-0.3,0.2-0.7,0.3c-0.4,0.1-0.8,0.2-0.9,0.3c-0.1,0.1-0.3,0.1-0.4,0.1
	c-0.1-0.1-0.2,0-0.2,0.1c0,0.1-0.2,0.2-0.4,0.1c-0.2-0.1-0.4,0-0.4,0.1s-0.3,0.2-0.6,0.3s-0.6,0.2-0.6,0.3s-0.1,0.2-0.3,0.1
	c-0.2,0-0.4,0-0.6,0.2c-0.1,0.1-0.4,0.3-0.6,0.3c-0.2,0-0.4,0.1-0.4,0.2c0,0.1-0.1,0.1-0.3,0.1c-0.2-0.1-0.3,0-0.3,0.1
	c0,0.1-0.1,0.2-0.2,0.1c-0.1-0.1-0.2,0-0.2,0.1c0,0.1-0.4,0.3-0.8,0.4c-0.5,0.1-0.8,0.3-0.8,0.4c0,0.1-0.3,0.3-0.7,0.4
	c-0.4,0.1-0.7,0.3-0.7,0.4c0,0.1-0.1,0.1-0.2,0.1c-0.1-0.1-0.2,0-0.2,0.1c0,0.1-0.2,0.3-0.5,0.4c-1.3,0.6-3.1,2.6-3.1,3.4
	c0,0.2-0.1,0.3-0.1,0.3s-0.1,1.4-0.1,3.1c0,1.7,0.1,3.1,0.1,3.1c0.1,0,0.1,1.3,0.1,3c0,2.1-0.1,3-0.2,3c-0.1,0-0.2,0.4-0.1,1.3
	c0.1,0.8,0.1,1.5-0.1,1.8c-0.1,0.3-0.3,1.4-0.3,2.5c-0.1,1.1-0.2,2-0.3,1.9c-0.1-0.1-0.1,0.3-0.1,0.9c0.1,0.7,0.1,1-0.1,1
	c-0.2,0-0.2,0.2-0.1,0.7c0.1,0.4,0,0.7-0.1,0.7c-0.1,0-0.2,0.7-0.3,1.5c-0.1,0.8-0.2,1.5-0.3,1.4c-0.1-0.1-0.1,0.2,0,0.7
	c0.1,0.5,0.1,0.8-0.1,0.8c-0.1,0-0.2,0.2-0.1,0.6c0.1,0.3,0,0.6-0.1,0.6c-0.1,0-0.2,0.5-0.3,1.2c-0.1,0.7-0.2,1.2-0.3,1.2
	c-0.1,0-0.1,0.3-0.1,0.6c0.1,0.4,0,0.6-0.1,0.6c-0.2,0-0.2,0.2-0.1,0.6c0.1,0.3,0,0.6-0.1,0.7c-0.1,0.1-0.2,0.6-0.3,1.2
	c-0.1,0.6-0.2,1.1-0.3,1.1c-0.1,0-0.1,0.3-0.1,0.6c0.1,0.4,0,0.6-0.1,0.6c-0.2,0-0.2,0.2-0.1,0.5c0.1,0.3,0,0.6-0.1,0.7
	c-0.1,0.1-0.3,0.9-0.3,1.7c-0.1,0.8-0.2,1.4-0.2,1.4c-0.1,0-0.1,1.2-0.1,2.6c0,1.4,0.1,2.6,0.1,2.5c0.1,0,0.2,0.6,0.2,1.4
	c0.1,0.8,0.2,1.6,0.3,1.8c0.1,0.1,0.2,0.4,0.1,0.6c-0.1,0.2,0,0.4,0.1,0.4c0.1,0,0.2,0.2,0.1,0.5c-0.1,0.3,0,0.5,0.1,0.5
	s0.2,0.4,0.3,0.8c0.1,0.5,0.2,0.8,0.3,0.8c0.1,0,0.1,0.1,0.1,0.3s0,0.3,0.1,0.4c0.1,0.1,0.1,0.2,0.1,0.4c-0.1,0.1,0,0.3,0.1,0.3
	s0.2,0.3,0.3,0.7c0.1,0.4,0.2,0.7,0.3,0.7c0.1,0,0.1,0.1,0.1,0.3c-0.1,0.2,0,0.3,0,0.3c0.1,0,0.3,0.4,0.4,0.8
	c0.1,0.5,0.3,0.8,0.4,0.8c0.1,0,0.1,0.1,0,0.2c-0.1,0.1-0.1,0.3,0,0.3c0.1,0.1,0.9,1.6,1.8,3.3c0.9,1.8,1.7,3.3,1.8,3.4
	s0.3,0.5,0.5,0.9c0.1,0.4,0.3,0.7,0.4,0.7c0.1,0,0.1,0.1,0,0.2c-0.1,0.1,0,0.2,0,0.2c0.2,0,0.9,1.3,0.8,1.5c0,0.1,0.1,0.1,0.2,0.1
	s0.2,0.1,0.1,0.3c-0.1,0.2,0,0.2,0,0.2c0.2-0.1,1.1,1.5,1.9,3.3c0.2,0.5,0.5,0.9,0.6,1c0.1,0.1,0.1,0.2,0,0.4
	c-0.1,0.1,0,0.1,0.2-0.1c0.2-0.2,0.5-0.7,0.6-1.2c0.1-0.5,0.3-0.8,0.4-0.8c0.1,0,0.1-0.1,0.1-0.2c-0.1-0.1,0-0.2,0-0.2
	s0.3-0.3,0.4-0.7s0.3-0.7,0.4-0.8c0.1-0.1,0.4-0.7,0.8-1.4c0.4-0.7,0.9-1.6,1.2-2c0.3-0.4,0.5-0.9,0.6-1.1c0.1-0.2,0.3-0.4,0.4-0.4
	c0.1,0,0.2-0.1,0.2-0.3c0-0.1,0.1-0.4,0.3-0.5s0.3-0.2,0.2-0.2c-0.2,0,0.8-1.6,1-1.7c0.1,0,0.1-0.2,0.1-0.3s0.1-0.3,0.3-0.4
	c0.2-0.1,0.2-0.2,0.2-0.3c0-0.1,0.1-0.4,0.3-0.6c0.2-0.3,0.4-0.5,0.4-0.6c0-0.2,0.9-1.6,1.3-2.1c0.1-0.1,0.2-0.3,0.2-0.3
	c0-0.2,0.7-1.5,0.8-1.6c0.1,0,0.2-0.3,0.3-0.7c0.1-0.4,0.3-0.6,0.4-0.6c0.1,0,0.1-0.1,0.1-0.3c-0.1-0.2,0-0.3,0.1-0.3
	c0.1,0,0.3-0.4,0.4-0.9c0.1-0.5,0.3-0.9,0.4-0.9c0.1,0,0.1-0.2,0-0.4c-0.1-0.2,0-0.4,0.1-0.4c0.1,0,0.3-0.4,0.3-0.9s0.2-0.9,0.3-0.8
	c0.1,0,0.1-0.5,0-1.1c-0.1-0.8,0-1.2,0.1-1.2c0.1,0,0.2-0.2,0.2-0.5c0-0.3-0.1-0.5-0.2-0.5c-0.1,0-0.2-0.3-0.1-1
	c0.1-0.6,0-1-0.1-0.9c-0.1,0.1-0.2-0.1-0.2-0.3c0-0.2-0.1-0.7-0.3-1c-0.2-0.3-0.2-0.6-0.2-0.7c0.1-0.1,0.1-0.2,0-0.1
	c-0.2,0.1-0.9-1.3-0.9-1.6c0-0.1,0-0.1-0.1,0c-0.1,0.1-0.2,0-0.4-0.3s-0.6-0.8-0.9-1.2c-0.7-0.8-1.1-1.2-4.7-4.7
	c-1-1-2.1-2.1-2.3-2.5c-0.3-0.3-0.6-0.8-0.8-1c-0.2-0.2-0.4-0.6-0.4-0.8c-0.1-0.2-0.2-0.4-0.3-0.4s-0.1-0.1-0.1-0.2
	c0.1-0.1,0-0.2-0.1-0.2c-0.1,0-0.3-0.4-0.4-0.9c-0.1-0.5-0.3-1-0.3-1.2c-0.2-0.4-0.2-3.6,0-3.6c0.1,0,0.2-0.3,0.2-0.7
	c0.1-0.4,0.2-0.7,0.3-0.7c0.1,0,0.1-0.1,0.1-0.3c-0.1-0.1,0-0.4,0.2-0.5c0.1-0.1,0.3-0.4,0.4-0.6c0.2-0.6,1.3-2.2,1.5-2.2
	c0.1,0,0.1-0.1,0.1-0.2c-0.1-0.1,0-0.2,0-0.2c0.1,0,0.4-0.4,0.8-0.9c0.4-0.5,0.8-0.9,0.9-0.9c0.1,0,0.2-0.1,0.3-0.3
	c0.1-0.3,1.6-2.1,3.9-4.4c1-1,1.7-1.8,1.7-1.9c0-0.1,0.6-0.7,1.4-1.5c1.6-1.6,2.8-3,4.5-5.1c0.2-0.2,0.6-0.9,1-1.5
	c0.4-0.6,0.7-1.1,0.8-1.2c0.1-0.1,0.1-0.3,0.1-0.3c-0.1-0.1,0-0.1,0.1-0.1c0.1,0,0.3-0.3,0.3-0.6c0.1-0.3,0.2-0.5,0.3-0.5
	c0.1,0.1,0.1-0.1,0.1-0.3c-0.1-0.2,0-0.4,0.1-0.4c0.1,0,0.2-0.1,0.1-0.4c-0.1-0.2,0-0.4,0.1-0.5c0.2-0.2,0.3-2.5,0-2.6
	c-0.1-0.1-0.1-0.2-0.1-0.4c0.1-0.2,0-0.3-0.1-0.3c-0.1,0-0.2-0.2-0.3-0.5c-0.1-0.5-1.9-2.3-2.3-2.3c-0.1,0-0.4-0.1-0.5-0.3
	c-0.2-0.2-0.4-0.2-0.5-0.2c-0.1,0.1-0.3,0-0.4-0.1C89.9,64.7,86.1,64.6,84.5,64.7 M127.7,65.9c-0.3,0.1-0.7,0.1-1.1,0.1
	c-0.4-0.1-0.6,0-0.6,0.1c0,0.1-0.2,0.2-0.6,0.1c-0.3,0-0.6,0-0.6,0.1s-0.3,0.2-0.7,0.3c-0.4,0.1-0.8,0.2-0.9,0.3
	c-0.1,0.1-0.2,0.1-0.3,0.1c-0.1-0.1-0.2,0-0.2,0.1c0,0.1-0.2,0.2-0.5,0.3c-0.3,0.1-0.7,0.3-1,0.5c-0.3,0.2-0.8,0.6-1.3,0.9
	c-0.8,0.5-2.4,2.1-2.8,2.8c-0.1,0.2-0.5,0.7-0.7,1.1c-0.3,0.4-0.6,1-0.7,1.4c-0.1,0.4-0.4,0.9-0.5,1.2c-0.2,0.3-0.3,0.7-0.3,0.8
	c0,0.1-0.1,0.2-0.2,0.2c-0.1,0-0.1,0.2-0.1,0.4c0.1,0.2,0,0.4-0.1,0.4c-0.1,0-0.2,0.1-0.1,0.4c0.1,0.2,0,0.4-0.1,0.5
	c-0.2,0.1-0.3,0.5-0.3,1.1c0,0.5-0.1,1-0.2,1c-0.1,0-0.1,0.3-0.1,0.7c0.1,0.4,0,0.6-0.1,0.6c-0.1,0-0.2,0.3-0.2,0.8
	c0,0.4-0.1,1.6-0.2,2.5c-0.2,2.2-0.2,14.6,0,16.9c0.1,1,0.2,2.1,0.2,2.5c0,0.4,0.1,0.7,0.2,0.7c0.1,0,0.2,0.3,0.1,0.7
	c-0.1,0.4,0,0.7,0,0.7c0.1,0,0.2,0.5,0.3,1c0.1,0.6,0.2,1,0.3,1c0.1,0,0.1,0.2,0.1,0.4c-0.1,0.2,0,0.4,0.1,0.4
	c0.1,0,0.2,0.2,0.1,0.4c-0.1,0.2,0,0.3,0.1,0.3c0.1-0.1,0.2,0.2,0.3,0.6c0.1,0.4,0.2,0.7,0.3,0.7c0.1,0,0.1,0.1,0.1,0.2
	c-0.1,0.1,0,0.2,0,0.2c0.1,0,0.3,0.4,0.5,0.8c0.2,0.5,0.4,0.8,0.5,0.8c0.1,0,0.1,0.2,0.1,0.4c-0.1,0.2-0.1,0.3,0,0.2
	c0.1-0.1,0.5,0.2,1,0.9c0.8,0.9,1.3,1.4,2.4,2.2c0.5,0.4,2.7,1.5,3,1.5c0.2,0,0.3,0.1,0.3,0.2s0.1,0.1,0.3,0.1
	c0.2-0.1,0.3,0,0.3,0.1c0,0.1,0.5,0.3,1,0.3c0.6,0.1,1,0.2,0.9,0.3c0,0.1,0.3,0.1,0.8,0c0.5-0.1,0.8,0,0.8,0.1
	c0,0.1,1.2,0.2,2.6,0.2s2.6-0.1,2.6-0.2c0-0.1,0.4-0.1,0.9-0.1c0.5,0.1,0.9,0,0.8,0c-0.1-0.1,0.4-0.2,0.9-0.3
	c0.6-0.1,1.1-0.2,1.1-0.3c0.1-0.1,0.3-0.1,0.5-0.1c0.2,0.1,0.4,0,0.4-0.1c0-0.1,0.1-0.2,0.2-0.2s0.5-0.1,0.9-0.3
	c0.4-0.2,0.8-0.3,0.8-0.3c0.1,0,0.1,0,0.1-0.1c0-0.1,0.2-0.3,0.5-0.4c1-0.5,3.7-3.1,4-4c0.1-0.3,0.3-0.6,0.4-0.6
	c0.1,0,0.2-0.3,0.3-0.6c0.1-0.3,0.2-0.5,0.3-0.5c0.1,0.1,0.1-0.1,0.1-0.3c-0.1-0.2,0-0.4,0.1-0.4c0.1,0,0.2-0.1,0.2-0.1
	c0-0.1,0.1-0.4,0.2-0.7c0.1-0.3,0.2-0.6,0.2-0.8c0-0.1,0.1-0.3,0.2-0.3c0.1,0,0.1-0.2,0.1-0.5c-0.1-0.3,0-0.5,0.1-0.5
	c0.1,0,0.2-0.2,0.1-0.4c-0.1-0.2,0-0.5,0.1-0.6s0.2-1.2,0.3-2.3c0.1-1.1,0.2-2.1,0.3-2.1c0.1,0,0.2-2.7,0.2-5.9v-5.9h-8.4H130v3.7
	v3.7h3.4h3.4v3.8c0,2.6-0.1,3.8-0.2,3.8c-0.1,0-0.1,0.2-0.1,0.4c0.1,0.2,0,0.5-0.1,0.6c-0.1,0.1-0.3,0.6-0.4,1
	c-0.1,0.4-0.4,1-0.5,1.2c-0.7,0.9-1.6,1.9-1.8,1.9c-0.1,0-0.5,0.2-0.9,0.4c-0.4,0.2-0.9,0.3-1.1,0.3c-0.2-0.1-0.4,0-0.4,0.1
	c0,0.1-0.3,0.2-0.8,0.2c-0.5,0-0.8-0.1-0.8-0.2c0-0.1-0.2-0.2-0.3-0.1c-0.7,0.2-3.6-1.9-3.3-2.4c0.1-0.1,0-0.2-0.1-0.2
	c-0.1,0-0.2-0.2-0.1-0.4c0.1-0.3,0.1-0.3-0.1-0.2c-0.2,0.3-0.7-0.7-0.6-1.2c0-0.1,0-0.2-0.1-0.2c-0.1,0-0.3-0.6-0.4-1.4
	c-0.1-0.8-0.3-1.4-0.4-1.4c-0.1,0-0.1-0.3-0.1-0.6c0.1-0.4,0-0.7-0.1-0.7c-0.8-0.3-0.8-20.6,0-20.9c0.1,0,0.1-0.3,0.1-0.5
	c-0.1-0.3,0-0.6,0.1-0.7c0.1-0.1,0.3-0.8,0.4-1.5c0.1-0.7,0.3-1.3,0.4-1.3c0.1,0,0.2-0.1,0.1-0.1c-0.3-1.2,3.1-4.5,4.2-4.1
	c0.2,0.1,0.3,0,0.3-0.1s0.3-0.2,0.7-0.2c0.4,0,0.7,0.1,0.7,0.2c0,0.1,0.2,0.2,0.6,0.1c0.3-0.1,0.6,0,0.6,0.1c0,0.1,0.2,0.3,0.5,0.3
	c0.6,0.2,2.3,2.1,2.6,2.9c0.1,0.4,0.3,0.7,0.4,0.7c0.1,0,0.1,0.2,0,0.4c-0.1,0.3-0.1,0.4,0.1,0.3c0.1-0.1,0.2,0,0.2,0.1
	c0,0.4,0.4,3.1,0.5,3.4c0.1,0.3,0.4,0.3,4.9,0.3l4.8-0.1l0-1.7c0-0.9,0-1.8-0.1-1.9c-0.1-0.1-0.1-0.5-0.1-0.8c0.1-0.3,0-0.6,0-0.6
	c-0.1,0-0.2-0.4-0.3-0.9c-0.1-0.5-0.2-1-0.3-1c-0.1-0.1-0.2-0.2-0.1-0.4c0.1-0.1,0-0.3-0.1-0.3s-0.2-0.2-0.1-0.4
	c0.1-0.2,0-0.4,0-0.4c-0.1,0-0.4-0.5-0.7-1.1c-0.8-1.7-3.2-4.3-4.3-4.6c-0.2-0.1-0.4-0.2-0.4-0.3c0-0.1-0.3-0.3-0.7-0.4
	c-0.4-0.1-0.7-0.3-0.7-0.4c0-0.1-0.1-0.1-0.3,0c-0.2,0.1-0.3,0-0.3-0.1c0-0.1-0.4-0.3-0.8-0.3c-0.5-0.1-0.8-0.2-0.8-0.3
	c0-0.1-0.3-0.1-0.7-0.1c-0.4,0-0.7,0-0.7-0.1c0-0.1-0.4-0.2-0.8-0.2c-0.4,0-1.8-0.1-3.1-0.1C129.1,65.8,128,65.8,127.7,65.9
	 M203.3,78.7c-0.1,0.1-0.3,0.1-0.5,0.1c-0.2-0.1-0.4,0-0.4,0.1c0,0.1-0.3,0.2-0.6,0.3c-1.4,0.3-4.4,2.5-4.4,3.2
	c0,0.1-0.1,0.2-0.2,0.2c-0.1,0-0.3,0.2-0.4,0.5c-0.4,1.1-0.7,0.4-0.8-2l0-1.6h-4.6h-4.6l0,19.1l0,19.1h4.9h4.9v-13.3
	c0-8.8,0.1-13.3,0.2-13.3c0.1,0,0.1-0.3,0.1-0.7c-0.1-0.5-0.1-0.7,0.1-0.7c0.1,0,0.2-0.1,0.2-0.2c-0.1-0.6,1.5-2.8,2-2.8
	c0.1,0,0.2-0.1,0.2-0.2c0-0.1,0.1-0.2,0.3-0.1c0.1,0.1,0.3,0,0.3-0.1c0.1-0.3,3.5-0.3,3.7,0.1c0.1,0.2,0.2,0.2,0.2,0.1
	c0-0.1,0.2,0,0.5,0.2c0.6,0.4,1.4,1.7,1.3,2c-0.1,0.1,0,0.3,0.1,0.4c0.2,0.1,0.3,2.6,0.3,14.5l0.1,14.3h4.9h4.9l0.1-15.5
	c0-8.5,0-15.5-0.1-15.6c-0.1-0.1-0.2-0.6-0.2-1.2c-0.1-0.6-0.2-1.1-0.3-1.2c-0.1-0.1-0.1-0.2-0.1-0.4c0.1-0.2,0-0.3-0.1-0.3
	c-0.1,0-0.3-0.3-0.4-0.7c-0.1-0.4-0.4-0.9-0.6-1.1c-0.2-0.2-0.4-0.4-0.4-0.5c0-0.1-0.4-0.5-0.9-0.9c-0.5-0.4-1.1-0.8-1.3-1
	c-0.2-0.2-0.7-0.4-1-0.4c-0.4-0.1-0.6-0.2-0.6-0.3c0-0.1-0.2-0.1-0.4-0.1c-0.2,0.1-0.5,0-0.6-0.1C208.6,78.4,203.4,78.4,203.3,78.7
	 M150.6,79.7c-0.1,0.2,0,0.5,0.1,0.7c0.1,0.2,0.2,0.4,0.1,0.5c-0.1,0.1,0,0.2,0.1,0.3c0.1,0.1,0.1,0.3,0.1,0.5
	c-0.1,0.2,0,0.4,0.1,0.4s0.2,0.4,0.3,0.9s0.2,1,0.3,1c0.1,0.1,0.1,0.2,0.1,0.4c-0.1,0.2,0,0.3,0.1,0.3c0.1,0,0.2,0.2,0.1,0.5
	c-0.1,0.3,0,0.5,0.1,0.5c0.1,0,0.2,0.4,0.3,0.8c0.1,0.5,0.2,0.9,0.3,1c0.1,0.1,0.1,0.3,0.1,0.5c-0.1,0.2,0,0.4,0.1,0.4
	c0.1,0,0.2,0.2,0.1,0.5c-0.1,0.3,0,0.5,0.1,0.5s0.2,0.4,0.3,0.8c0.1,0.5,0.2,0.8,0.3,0.8s0.1,0.2,0.1,0.4c-0.1,0.2,0,0.4,0.1,0.4
	c0.1,0,0.1,0.2,0.1,0.6c-0.1,0.3,0,0.5,0.1,0.5c0.1-0.1,0.2,0.3,0.3,0.8s0.2,0.9,0.3,0.9c0.1,0,0.1,0.2,0.1,0.4s0,0.4,0,0.4
	c0.1,0,0.6,1.7,0.6,2.3c0,0.2,0.1,0.3,0.2,0.3c0.1,0,0.1,0.2,0.1,0.5c-0.1,0.3,0,0.5,0,0.5c0.1,0,0.3,0.6,0.4,1.3s0.3,1.3,0.4,1.3
	c0.1,0,0.1,0.2,0.1,0.5c-0.1,0.3,0,0.5,0.1,0.5s0.2,0.4,0.3,0.8c0.1,0.5,0.2,0.9,0.3,0.9c0.1,0,0.1,0.3,0.1,0.5
	c-0.1,0.2,0,0.4,0.1,0.4c0.2,0,0.2,0.2,0.1,0.5c-0.1,0.3-0.1,0.4,0.1,0.4c0.1-0.1,0.2,0.1,0.2,0.4c0,0.3,0,0.7,0.1,0.9
	c0,0.2,0.1,0.4,0.3,0.5c0.1,0.1,0.2,0.3,0.1,0.5c-0.1,0.2,0,0.3,0.1,0.3c0.1,0,0.2,0.2,0.1,0.5c0,0.3,0,0.5,0.1,0.5s0.2,0.4,0.3,0.8
	s0.2,0.9,0.3,1c0.1,0.1,0.1,0.3,0.1,0.5c-0.1,0.2,0,0.4,0.1,0.4c0.1,0,0.2,0.2,0.1,0.5c0,0.3,0,0.5,0.1,0.5c0.1,0,0.2,0.4,0.3,0.8
	c0.1,0.5,0.2,0.9,0.3,0.9c0.6,0.4-0.3,2.3-1.3,2.7c-0.3,0.1-0.7,0.3-0.9,0.3c-0.2,0.1-0.6,0.1-0.9,0.1c-0.3,0-0.5,0.1-0.5,0.2
	c0,0.2-0.4,0.2-1.5,0.1l-1.5-0.1l0.1,3.6l0.1,3.6l2.5-0.1c1.4,0,2.6-0.1,2.8-0.3c0.1-0.1,0.5-0.1,0.8-0.1c0.3,0.1,0.6,0.1,0.6,0
	c0-0.1,0.6-0.3,1.4-0.4c0.8-0.1,1.4-0.3,1.4-0.4c0-0.1,0.2-0.2,0.4-0.1c0.2,0.1,0.4,0,0.4,0c0-0.1,0.3-0.2,0.7-0.4
	c0.4-0.1,1.2-0.5,1.9-0.9c0.6-0.4,1.1-0.6,1.1-0.6c0,0.1,0.3-0.2,1.4-1.1c0.3-0.3,0.7-0.5,0.8-0.5c0.1,0,0.3-0.2,0.3-0.4
	c0.1-0.2,0.2-0.3,0.3-0.3c0.1,0.1,0.1,0,0.1-0.1c-0.2-0.3,0.7-1.2,0.9-1c0.1,0.1,0.1,0,0-0.1c-0.1-0.1,0-0.4,0.1-0.6
	c0.4-0.4,1.6-2.9,1.6-3.2c0-0.1,0.1-0.2,0.2-0.2c0.1,0,0.3-0.4,0.4-0.9c0.1-0.5,0.3-0.9,0.4-0.9c0.1,0,0.1-0.2,0.1-0.4
	s0-0.4,0.1-0.4c0.1,0,0.3-0.6,0.4-1.3s0.3-1.3,0.4-1.3c0.1,0,0.1-0.2,0-0.5c-0.1-0.3,0-0.5,0.1-0.5c0.1,0,0.2-0.5,0.3-1
	c0.1-0.6,0.2-1,0.3-1s0.1-0.3,0.1-0.6c-0.1-0.4,0-0.6,0.1-0.6c0.1,0,0.2-0.1,0.1-0.4c-0.1-0.2,0-0.4,0.1-0.5
	c0.1-0.1,0.2-0.6,0.3-1.1c0.1-0.6,0.2-1,0.3-1s0.1-0.3,0.1-0.6c-0.1-0.4,0-0.6,0.1-0.6c0.1,0,0.2-0.1,0.1-0.4
	c-0.1-0.2,0-0.4,0.1-0.5c0.1-0.1,0.2-0.6,0.3-1.2c0.1-0.6,0.2-1.1,0.3-1c0.1,0.1,0.1-0.2,0.1-0.5c-0.1-0.4,0-0.6,0.1-0.6
	c0.2,0,0.2-0.2,0.1-0.5c-0.1-0.3,0-0.5,0.1-0.6c0.1-0.1,0.2-0.3,0.2-0.6s0.1-0.5,0.2-0.5c0.1-0.1,0.1-0.3,0.1-0.6
	c-0.1-0.3,0-0.5,0.1-0.5c0.1,0,0.2-0.1,0.1-0.4c-0.1-0.2,0-0.5,0.1-0.6c0.1-0.1,0.2-0.4,0.2-0.6c0-0.8,0.5-2.7,0.6-2.6
	c0.1,0.1,0.1-0.1,0-0.5c-0.1-0.3-0.1-0.6,0-0.6c0.1,0,0.3-0.7,0.4-1.6c0.1-0.9,0.3-1.6,0.4-1.6c0.1,0,0.1-0.3,0.1-0.6
	c-0.1-0.3,0-0.6,0.1-0.6c0.1,0,0.2-0.5,0.3-1c0.1-0.6,0.2-1,0.3-1s0.1-0.3,0.1-0.6c-0.1-0.4,0-0.6,0.1-0.6c0.1,0,0.2-0.2,0.1-0.4
	c-0.1-0.2,0-0.5,0.1-0.6c0.7-0.4-0.1-0.5-4.8-0.4l-5,0l-0.2,1.2c-0.1,0.7-0.2,1.1-0.3,1.1c-0.1-0.1-0.1,0.2,0,0.6
	c0.1,0.4,0,0.8-0.1,0.8c-0.1,0-0.2,0.2-0.2,0.5c0,1-0.5,3.2-0.6,3.2c-0.1,0-0.1,0.3,0,0.7c0.1,0.5,0.1,0.7-0.1,0.7
	c-0.1,0-0.2,0.1-0.1,0.4c0.1,0.2,0,0.5-0.1,0.6s-0.2,0.8-0.3,1.6c-0.1,0.8-0.2,1.3-0.3,1.2c-0.1-0.1-0.1,0.1-0.1,0.5
	c0.1,0.3,0,0.7-0.1,0.8c-0.1,0.1-0.3,1.1-0.4,2.1c-0.1,1.1-0.3,1.9-0.4,1.9s-0.1,0.3,0,0.6c0.1,0.3,0,0.6-0.1,0.6
	c-0.1,0-0.3,0.9-0.4,2.1c-0.1,1.1-0.3,2.1-0.4,2.1c-0.1,0-0.1,0.3,0,0.6c0.1,0.4,0,0.6-0.1,0.6c-0.1,0-0.2,0.3-0.2,0.7
	c0,1-0.2,1.8-0.5,1.9c-0.2,0.1-0.5-0.6-0.5-1c0-0.1-0.1-0.4-0.2-0.5c-0.1-0.1-0.2-0.5-0.1-0.8c0.1-0.3,0.1-0.5-0.1-0.4
	c-0.1,0.1-0.2-0.3-0.3-1c-0.1-0.6-0.2-1.2-0.3-1.2c-0.1-0.1-0.1-0.3-0.1-0.6c0.1-0.3,0-0.5-0.1-0.5c-0.2,0-0.2-0.2-0.1-0.6
	c0.1-0.3,0-0.5-0.1-0.5c-0.1,0.1-0.2-0.4-0.3-1c-0.1-0.6-0.2-1.2-0.3-1.2c-0.1-0.1-0.1-0.3-0.1-0.6c0.1-0.3,0-0.5-0.1-0.5
	c-0.2,0-0.2-0.2-0.1-0.6c0.1-0.3,0-0.6,0-0.6c-0.1,0-0.2-0.5-0.3-1c-0.1-0.6-0.2-1.1-0.3-1.1c-0.1-0.1-0.1-0.3-0.1-0.6
	c0.1-0.3,0-0.4-0.1-0.4c-0.1,0-0.2-0.2-0.1-0.7c0.1-0.4,0-0.6-0.1-0.6c-0.1,0.1-0.2-0.4-0.3-1c-0.1-0.6-0.2-1.1-0.3-1.1
	c-0.1,0-0.1-0.2-0.1-0.6c0.1-0.3,0-0.6-0.1-0.6c-0.2,0-0.6-2-0.6-2.8c0-0.2-0.1-0.4-0.2-0.4c-0.1,0-0.2-0.2-0.1-0.6
	c0.1-0.3,0-0.6,0-0.6c-0.1,0-0.6-1.9-0.6-2.6c-0.1-1.1,0-1.1-5.2-1.1C151.3,79.4,150.7,79.4,150.6,79.7"/>
<path id="path1" class="st1" d="M62.4,33.2c0,0.1-0.2,0.1-0.5,0.1c-0.3-0.1-0.5,0-0.5,0.1c0,0.1-0.3,0.2-0.7,0.3
	c-0.4,0.1-0.7,0.2-0.7,0.3c0,0.1-0.2,0.2-0.4,0.3c-0.8,0.2-2.3,1.4-3.2,2.4C55.2,38,55.2,38,54.7,39c-0.3,0.6-0.5,0.8-0.6,0.8
	c-0.1-0.1-0.2,0-0.1,0.1c0.1,0.2-0.2,2.1-0.4,2.3c-0.3,0.3-0.3,4.8,0.1,5.7c0.1,0.2,0.1,0.5,0,0.7c-0.1,0.2,0,0.4,0.1,0.4
	c0.1,0,0.2,0.3,0.1,0.7c-0.1,0.4,0,0.7,0.1,0.7c0.1,0,0.2,0.2,0.2,0.5c0,0.3,0.1,0.6,0.2,0.7c0.1,0.1,0.2,0.3,0.2,0.4
	c0,0.2,0,0.5,0.1,0.6c0.1,0.2,0.1,0.5,0,0.6c-0.1,0.2,0,0.3,0.1,0.3c0.1,0,0.2,0.5,0.3,1.2c0.1,0.7,0.2,1.2,0.3,1.2
	c0.1,0,0.1,0.3,0.1,0.7c-0.1,0.4-0.1,0.7,0.1,0.7c0.2,0,0.2,0.3,0.1,0.9c-0.1,0.5,0,0.9,0.1,0.9c0.1,0,0.2,0.7,0.2,1.7
	c0,1-0.1,1.7-0.2,1.6c-0.1-0.1-0.2,0-0.3,0.1c-0.1,0.1,0,0.2,0.1,0.2c0.3,0,0.2,0.5-0.2,1.5c-0.5,1-1.9,2.2-2.5,2
	c-0.2,0-0.4,0-0.4,0.1c0,0.1-0.5,0.2-1,0.2c-0.6,0-1-0.1-1-0.2c0-0.1-0.3-0.1-0.7-0.1c-0.4,0.1-0.7,0-0.7-0.1c0-0.1-0.1-0.2-0.4-0.1
	c-0.2,0.1-0.4,0-0.5-0.1c-0.1-0.1-0.3-0.2-0.5-0.2c-0.2,0-0.4-0.1-0.4-0.1c0-0.1-0.4-0.2-0.9-0.2s-0.9-0.1-1-0.2
	c-0.3-0.4-4.7-0.4-4.7,0c0,0.1-0.1,0.1-0.3,0.1c-0.5,0-1.7,1.3-1.9,1.9c-0.1,0.3-0.2,0.7-0.2,0.8c-0.2,0.3-0.2,2.7,0,2.7
	c0.1,0,0.1,0.3,0.1,0.6c0,0.3,0,0.6,0.1,0.6c0.1,0,0.2,0.2,0.2,0.5c0,0.3,0.1,0.5,0.2,0.6c0.1,0.1,0.2,0.2,0.1,0.4
	c-0.1,0.1,0,0.3,0.1,0.3c0.1,0,0.3,0.3,0.4,0.7c0.3,0.9,1.8,3.8,2.4,4.6c0.2,0.3,0.5,0.6,0.5,0.7c0,0.1,0.5,0.8,1.1,1.6
	c1.7,2.3,3.4,4.9,3.3,5.1c-0.1,0.1,0,0.2,0.2,0.3c0.2,0.1,0.3,0.2,0.3,0.4c0,0.1,0.1,0.3,0.2,0.3c0.2,0.1,1.3,2.4,1.5,3.1
	c0.1,0.3,0.2,0.6,0.3,0.6c0.1,0,0.1,0.2,0.1,0.4s0,0.4,0.1,0.4c0.1,0,0.1,0.2,0.1,0.6c-0.1,0.3,0,0.6,0.1,0.6c0.1,0,0.2,0.8,0.2,1.9
	c0,1.7,0,1.9-0.3,1.9c-0.2,0-0.3,0-0.1,0.2c0.2,0.2,0.1,1.3-0.1,1.3c-0.1,0-0.2,0.3-0.3,0.7c-0.3,1-1.6,2.7-3.9,5.3
	c-2.9,3.1-3,3.2-3.2,3.1c-0.1-0.1-0.2,0-0.1,0.1c0.1,0.1-0.3,0.8-0.8,1.4c-0.5,0.6-1,1.4-1.2,1.7s-0.4,0.6-0.4,0.6
	c-0.1,0-0.2,0.1-0.2,0.2c0,0.1-0.2,0.7-0.5,1.2c-0.3,0.5-0.6,1.4-0.7,1.9c-0.1,0.5-0.3,1-0.4,1s-0.1,0.2,0,0.5
	c0.1,0.3,0,0.6-0.1,0.7c-0.1,0.1-0.2,1.1-0.2,3c0,1.9,0.1,2.9,0.2,3c0.1,0.1,0.2,0.4,0.1,0.7c-0.1,0.3,0,0.5,0.1,0.5
	c0.1,0,0.2,0.2,0.1,0.6c-0.1,0.3,0,0.6,0.1,0.6c0.1,0,0.2,0.4,0.3,0.8c0.1,0.4,0.2,0.9,0.3,1c0.1,0.1,0.1,0.3,0.1,0.4
	c-0.1,0.1,0,0.2,0.1,0.2c0.1,0,0.2,0.2,0.1,0.4c-0.1,0.2,0,0.4,0.1,0.4c0.1,0,0.2,0.3,0.2,0.6c0,0.3,0.1,0.5,0.2,0.5
	c0.1,0,0.3,0.2,0.3,0.4c0.1,0.3,0.3,1,0.6,1.5s0.4,1.1,0.3,1.2c-0.1,0.1-0.1,0.2,0.1,0.1c0.1-0.1,0.2,0,0.2,0.2
	c0,0.2,0.1,0.3,0.2,0.3c0.3,0,0.6,1.1,0.5,1.3c-0.1,0.1-0.1,0.2,0.1,0.1c0.1-0.1,0.5,0.4,0.8,1c0.7,1.2,0.8,1.5,1.6,2.6
	c0.3,0.4,0.5,0.8,0.5,0.9c0,0.1,0.8,1.3,1.8,2.7c1,1.5,1.7,2.7,1.7,2.9c-0.1,0.1,0,0.1,0.1,0.1c0.1-0.1,0.3,0.1,0.5,0.3
	c0.1,0.2,0.5,0.8,0.9,1.2c0.3,0.4,0.6,0.9,0.6,0.9c0,0.1,0.1,0.2,0.3,0.4c0.4,0.5,3.8,5.2,4.3,6c0.1,0.2,0.2,0.4,0.3,0.4
	c0.1,0.1,0.7,0.9,2.8,4c0.8,1.1,1.6,2.4,1.9,2.8c0.3,0.4,0.5,0.9,0.5,1c0,0.1,0.1,0.2,0.2,0.3c0.2,0.1,1.9,3.3,1.9,3.5
	c0,0.1,0,0.2,0.1,0.2c0.2,0.2,1.3,2.4,1.5,3.1c0.1,0.3,0.2,0.5,0.3,0.5c0.1,0,0.2,0.4,0.4,0.8c0.3,1,0.3,1.1,0,0.9
	c-0.1-0.1-0.2-0.1-0.1,0.1c0.1,0.1,0.2,0.2,0.3,0.1c0.2-0.1,0.3,0.2,0.2,0.5c-0.1,0.4,0.5,0.7,0.8,0.4c0.6-0.6,1.4-1.8,1.9-2.7
	c0.3-0.5,0.5-0.9,0.6-0.9c0.1,0,0.1-0.2,0.1-0.5c0-0.3,0.1-0.5,0.2-0.6c0.1-0.1,0.3-0.6,0.4-1.1c0.1-0.5,0.3-1,0.4-1
	c0.1,0,0.1-0.2,0.1-0.4c-0.1-0.2,0-0.4,0.1-0.5c0.1-0.1,0.2-0.7,0.3-1.4c0.1-0.7,0.2-1.3,0.3-1.3c0.1,0,0.1-0.5,0-1.1
	c-0.1-0.7,0-1.2,0.1-1.3c0.3-0.3,0.3-3.5,0-3.5c-0.1,0-0.2-0.4-0.1-1.4c0.1-0.9,0-1.4-0.1-1.4c-0.1,0-0.1-0.4-0.1-0.8
	c0.1-0.5,0-0.8-0.1-0.8c-0.1,0-0.2-0.2-0.2-0.6c0-0.3-0.1-0.6-0.2-0.7c-0.1-0.1-0.2-0.3-0.2-0.5c0-0.2,0-0.5-0.1-0.7
	c-0.1-0.2-0.1-0.4,0-0.5c0.1-0.1,0-0.2-0.1-0.2c-0.1,0-0.2-0.4-0.3-0.8c-0.1-0.5-0.2-0.9-0.3-1c-0.1-0.1-0.1-0.2-0.1-0.4
	c0.1-0.1,0-0.3-0.1-0.3c-0.2,0-0.7-1.5-0.6-1.7c0-0.1,0-0.1-0.1-0.1c-0.1,0-0.3-0.3-0.4-0.7c-0.1-0.4-0.7-1.5-1.3-2.5
	c-0.5-1-1-1.8-1-1.9c0-0.1-0.1-0.3-0.3-0.4c-0.2-0.2-0.2-0.4-0.2-0.6c0.1-0.1,0-0.2-0.1-0.2c-0.1,0.1-0.6-0.8-1.2-1.9
	c-0.6-1.1-1.1-2-1.1-2.1c-0.1,0-0.1-0.1-0.1-0.2c0-0.1-0.2-0.6-0.4-1.1c-0.2-0.5-0.4-1-0.4-1.1c0-0.1,0-0.1-0.1-0.1
	s-0.3-0.4-0.4-0.8c-0.1-0.5-0.3-0.8-0.4-0.8c-0.2,0-0.6-1.7-0.5-1.9c0.1-0.1,0-0.2-0.2-0.3c-0.2-0.1-0.2-0.2-0.2-0.4
	c0.1-0.2,0-0.3-0.1-0.3c-0.1,0-0.2-0.2-0.1-0.5c0-0.3,0-0.5-0.1-0.5c-0.1,0-0.1-0.2-0.1-0.5c0-0.3,0-0.5-0.1-0.5
	c-0.1,0-0.2-0.3-0.2-0.7c-0.1-0.4-0.2-0.9-0.2-1.2c-0.1-0.3-0.1-0.6,0.1-0.7c0.1-0.1,0.1-0.3-0.1-0.7c-0.3-0.6-0.4-2.5-0.1-2.7
	c0.1-0.1,0.2-0.5,0.1-1.2c-0.1-0.9-0.1-1.1,0.3-1.6c0.2-0.3,0.3-0.5,0.2-0.4c-0.2,0.1-0.2,0-0.2-0.4c0-0.3,0.1-0.6,0.2-0.6
	c0.1,0,0.1-0.3,0.1-0.7c-0.1-0.4,0-0.7,0.1-0.7c0.1,0,0.2-0.2,0.1-0.6c-0.1-0.4,0-0.6,0.1-0.6c0.1,0,0.2-0.2,0.2-0.4
	c0-0.7,0.2-1.6,0.4-1.6c0.1,0,0.1-0.2,0.1-0.5c-0.1-0.3,0-0.5,0.1-0.5c0.1,0,0.2-0.1,0.1-0.3c-0.1-0.2,0-0.4,0.1-0.5
	c0.1-0.1,0.2-0.6,0.3-1c0.1-0.4,0.2-0.8,0.3-0.8c0.1,0,0.1-0.2,0.1-0.5c0-0.3,0-0.5,0.1-0.5c0.1,0,0.1-0.2,0.1-0.4
	c-0.1-0.2,0-0.4,0.1-0.4c0.1,0,0.3-0.4,0.3-0.9s0.2-0.9,0.3-0.9c0.1,0,0.1-0.2,0.1-0.5c0-0.3,0-0.5,0.1-0.5c0.1,0,0.1-0.2,0.1-0.4
	c-0.1-0.2,0-0.5,0.1-0.6c0.1-0.1,0.3-0.7,0.3-1.3c0.1-0.6,0.2-1.1,0.3-1.1s0.1-0.4,0-0.8c-0.1-0.5,0-0.8,0.1-0.8
	c0.2,0,0.2-7.6,0-8.1c-0.1-0.2-0.1-1.2,0-2.2c0.1-1.1,0-1.9-0.1-1.9c-0.1,0-0.2-1.7-0.2-4.2c0-2.7,0.1-4.2,0.2-4.2
	c0.1,0,0.1-0.4,0.1-1c-0.1-0.7-0.1-1,0.1-1c0.1,0,0.2-0.2,0.1-0.5c-0.1-0.3,0-0.6,0.1-0.7c0.1-0.1,0.2-0.4,0.2-0.7
	c0-0.3,0.1-0.5,0.2-0.5c0.1,0.1,0.1,0,0.1-0.2c0-0.2,0-0.6,0.1-0.9c0.1-0.3,0.2-0.6,0.3-0.7c0.4-1.6,2.3-4.1,4.5-5.7
	c0.8-0.6,1.8-1.3,2.1-1.5c1-0.7,3.5-3.2,4.3-4.3c0.4-0.6,0.9-1.1,0.9-1.2c0.1-0.1,0.1-0.2,0.1-0.2c0-0.2,0.6-1.3,0.8-1.4
	c0.1-0.1,0.2-0.2,0.2-0.3c0-0.1,0.1-0.4,0.2-0.6c0.1-0.2,0.2-0.6,0.3-0.9c0.1-0.3,0.2-0.5,0.3-0.5c0.1,0,0.1-0.1,0.1-0.3
	c-0.1-0.2,0-0.3,0.1-0.4c0.1-0.1,0.2-0.4,0.2-0.7c0-0.3,0.1-0.6,0.1-0.6c0.1,0,0.1-1.2,0.1-2.6s-0.1-2.6-0.1-2.6
	c-0.1,0-0.1-0.2-0.1-0.6s-0.1-0.6-0.2-0.7C77,45,77,44.8,77,44.7c0-0.1-0.1-0.5-0.2-0.7c-0.1-0.3-0.2-0.6-0.2-0.7
	c0-0.1-0.2-0.6-0.5-1.1s-0.4-1.1-0.3-1.2c0.1-0.1,0.1-0.2,0-0.1c-0.1,0.1-0.7-0.7-1.4-1.8c-1.2-1.8-2.5-3.2-3.8-4.1
	c-0.3-0.2-0.5-0.4-0.4-0.5c0.1-0.1,0-0.1-0.2,0c-0.1,0.1-0.4,0-0.6-0.2c-0.2-0.2-0.3-0.3-0.4-0.3c0,0-0.3-0.1-0.6-0.2
	c-0.3-0.1-0.6-0.2-0.8-0.2c-0.1,0-0.3-0.1-0.3-0.2c0-0.1-0.2-0.1-0.5-0.1c-0.3,0-0.5,0-0.5-0.1c0-0.1-0.9-0.2-2.1-0.2
	C63.3,33,62.4,33.1,62.4,33.2 M222.7,71v4.3h9.6c5.3,0,9.6,0,9.6,0.1c0,0.3-0.7,1.2-0.8,1.1c-0.1-0.1-0.1,0,0,0.1
	c0.2,0.3-0.6,1.8-0.9,1.6c-0.1-0.1-0.1,0-0.1,0.1c0.1,0.2-0.9,2.3-1.2,2.5c-0.1,0.1-0.2,0.2-0.1,0.2c0,0.2-0.6,1.3-0.8,1.4
	c-0.1,0.1-0.2,0.2-0.2,0.3c0,0.3-0.6,1.4-0.8,1.4c-0.1,0-0.1,0.1,0,0.2c0.1,0.1,0,0.2-0.1,0.2c-0.1,0-0.2,0.1-0.2,0.2
	c0,0.1-0.5,1-1,2c-0.6,0.9-1,1.8-1,1.9s-0.1,0.2-0.1,0.2c-0.1,0-0.4,0.5-0.6,1s-0.6,0.9-0.7,0.9c-0.1,0-0.2,0.1-0.1,0.2
	c0.1,0.1-0.1,0.4-0.2,0.6c-0.2,0.2-0.3,0.3-0.2,0.4c0.1,0-2.6,5.1-2.8,5.1c-0.1,0-0.2,0.2-0.2,0.3c0,0.4-1.9,3.7-2.1,3.6
	c-0.1-0.1-0.1,0,0,0.2c0.1,0.1,0,0.4-0.1,0.5c-0.1,0.1-0.5,0.7-0.7,1.2c-1,1.9-1.2,2.3-1.3,2.4c-0.1,0.1-0.3,0.4-0.5,0.7
	c-0.2,0.4-0.6,1.3-1,2c-0.4,0.7-0.8,1.6-0.9,1.9c-0.1,0.3-0.2,0.6-0.3,0.6c-0.1,0-0.1,0.2-0.1,0.4c0.1,0.2,0,0.4-0.1,0.5
	c-0.3,0.2-0.3,4,0,4.1c0.1,0,0.2,0.3,0.2,0.6c0,0.3,0.1,0.5,0.1,0.4c0,0,0.2,0.1,0.4,0.3c0.1,0.2,0.7,0.6,1.2,0.8l1,0.5h14h14v-4.1
	v-4.1h-9.7c-6.9,0-9.7-0.1-9.7-0.2c0-0.1,0.2-0.4,0.3-0.7c0.2-0.3,0.7-1.1,1.1-1.8s0.8-1.4,0.8-1.4c0.1-0.1,0.3-0.4,0.4-0.7
	c0.7-1.4,1.1-1.9,1.3-2.1c0.1-0.1,0.2-0.2,0.2-0.3c0-0.1,1.7-3.3,1.9-3.5c0.1-0.1,0.3-0.3,0.4-0.7c0.2-0.3,0.7-1.3,1.2-2.2
	c0.5-0.9,0.9-1.6,1-1.7c0.1-0.1,0.2-0.4,0.4-0.7c0.1-0.3,0.3-0.7,0.5-0.8c0.1-0.1,0.5-0.8,0.9-1.5s0.8-1.4,0.8-1.4
	c0.1-0.1,0.3-0.5,0.5-0.9c0.2-0.4,0.4-0.8,0.5-0.8c0.1,0,0.3-0.4,0.5-0.8c0.2-0.5,0.4-0.8,0.5-0.8c0.1,0,0.2-0.3,0.4-0.6
	c0.1-0.3,0.3-0.6,0.4-0.6c0.1,0,0.1-0.1,0.1-0.1c-0.1-0.2,0.7-1.5,0.8-1.5c0.1,0,0.1-0.1,0-0.2c-0.1-0.1,0-0.2,0-0.2
	c0.1,0,0.3-0.3,0.4-0.7c0.1-0.4,0.3-0.7,0.4-0.7c0.1,0,0.1-0.1,0.1-0.2c-0.1-0.1,0-0.2,0.1-0.2c0.1,0,0.2-0.1,0.2-0.2
	c0-0.4,1.1-1.9,1.2-1.7c0.1,0.1,0.1,0,0-0.1c-0.2-0.3,1-2.5,1.3-2.4c0.1,0,0.2,0,0.1-0.1c-0.1-0.2,0.4-1.9,0.7-2.1
	c0.1-0.1,0.2-0.6,0.3-1.3c0.1-0.6,0.2-1.2,0.3-1.2s0.2-0.4,0.2-0.9c0-0.6-0.1-0.9-0.2-0.8c-0.1,0.1-0.2-0.2-0.2-0.6
	c0-1.3-1-2.7-2.1-3c-0.3-0.1-0.5-0.2-0.5-0.2c0-0.1-0.4-0.1-0.8-0.1c-0.5,0-0.8,0-0.8-0.1c0-0.1-3.8-0.2-13.4-0.2h-13.4V71
	 M363.3,69.5c0,0.1-0.3,0.2-0.7,0.3c-0.8,0.2-2.2,1.4-2.5,2.2c-0.1,0.3-0.3,0.8-0.4,0.9c-0.2,0.4-0.2,2,0,2c0.1,0,0.2,0.1,0.2,0.3
	c0,0.8,1.6,2.6,2.5,2.8c0.3,0.1,0.5,0.2,0.5,0.2c0,0.1,0.6,0.1,1.3,0.1c0.7,0,1.3-0.1,1.3-0.1s0.2-0.2,0.5-0.2
	c0.6-0.2,2-1.5,2.3-2.1c0.1-0.3,0.2-0.7,0.3-0.9c0.2-0.5,0.2-2.2,0.1-2.2c-0.1,0-0.2-0.3-0.2-0.6c-0.2-0.9-1.5-2.2-2.5-2.5
	c-0.4-0.1-0.8-0.3-0.8-0.4s-0.4-0.1-0.9-0.1C363.7,69.3,363.3,69.4,363.3,69.5 M366,70.8c0.3,0.2,0.6,0.5,0.6,0.7
	c0,0.2,0.1,0.3,0.2,0.2c0.3-0.1,0.7,0.6,0.5,0.9c-0.1,0.1,0,0.2,0.1,0.2c0.3,0,0.2,2.2,0,2.8c-0.1,0.3-0.3,0.5-0.4,0.5
	c-0.1,0-0.3,0.1-0.4,0.2c-0.1,0.1-0.1,0.1,0.1,0c0.4-0.2,0.3,0.1-0.1,0.5c-1.7,1.4-4.5,0.8-5.4-1.1C359.7,72.3,363.1,69,366,70.8
	 M362.4,74v2.2h0.6c0.5,0,0.6,0,0.6-0.9c0-0.9,0-0.9,0.5-0.9c0.6,0,1,0.5,1,1c0,0.5,0.3,0.9,0.9,0.9c0.4,0,0.6-0.6,0.2-0.8
	c-0.1-0.1-0.2-0.3-0.2-0.5c0-0.2-0.1-0.4-0.3-0.6c-0.3-0.2-0.3-0.3,0.4-1c0.3-0.3,0.3-0.8,0-0.8c-0.1,0-0.2-0.1-0.2-0.3
	c0-0.4-0.4-0.5-2.1-0.5h-1.5V74 M364.6,72.4c0.8,0.2,0.5,1.1-0.4,1.2c-0.7,0.1-0.7,0-0.7-0.5C363.5,72.3,363.7,72.2,364.6,72.4
	 M269.3,78.7c0,0.1-0.3,0.1-0.7,0.1c-0.4-0.1-0.7,0-0.7,0.1c0,0.1-0.2,0.2-0.4,0.2c-0.2,0-0.7,0.1-1,0.3c-0.3,0.2-0.6,0.2-0.7,0.2
	c-0.1-0.1-0.2,0-0.2,0.1s-0.3,0.3-0.6,0.4c-1.7,0.6-5.9,4.8-5.3,5.3c0.1,0.1,0,0.1-0.1,0.1s-0.3,0.2-0.3,0.5
	c-0.1,0.3-0.2,0.5-0.3,0.5c-0.1,0-0.1,0.2-0.1,0.4c0.1,0.2,0,0.4-0.1,0.4s-0.3,0.5-0.4,1.2c-0.1,0.7-0.3,1.2-0.4,1.2
	c-0.1,0-0.1,0.1,0,0.3c0.1,0.2,0,0.4,0,0.6c-0.2,0.3-0.2,0.7-0.4,2.7c-0.1,0.7-0.2,1.3-0.2,1.3c-0.1,0-0.1,2-0.1,4.5
	s0.1,4.5,0.1,4.5c0.1,0,0.3,1.9,0.4,3.1c0,0.3,0.1,0.6,0.2,0.6c0.1,0,0.2,0.2,0.1,0.5c0,0.3,0,0.6,0.1,0.7c0.1,0.1,0.2,0.5,0.2,0.9
	c0.1,0.4,0.2,0.9,0.3,1c0.1,0.1,0.1,0.3,0.1,0.4c-0.1,0.1,0,0.2,0.1,0.2s0.2,0.2,0.3,0.5c0.1,0.3,0.4,1,0.8,1.6
	c0.4,0.6,0.6,1.2,0.7,1.2c0,0.3,2.8,2.5,3.4,2.8c0.4,0.2,0.7,0.4,0.8,0.5c0.1,0.1,0.1,0.1,0.1,0c0-0.1,0.1-0.1,0.2,0
	c0.1,0.1,0.6,0.3,0.9,0.3c0.4,0.1,0.7,0.2,0.7,0.3c0,0.1,0.1,0.1,0.3,0.1c0.2-0.1,0.4,0,0.6,0c1,0.4,8.8,0.5,8.8,0
	c0-0.1,0.3-0.1,0.6-0.1c0.3,0,0.6,0,0.6-0.1s0.2-0.1,0.5-0.1c0.3,0,0.4,0,0.4-0.1c-0.1-0.1,0-0.2,0.2-0.2c0.3,0,2-0.8,3-1.5
	c0.6-0.4,1.9-1.7,2.6-2.6c0.5-0.6,1.2-2,1.4-2.7c0.1-0.4,0.3-0.8,0.4-0.8c0.1,0,0.2-0.6,0.4-1.3c0.1-0.7,0.3-1.3,0.4-1.3
	c0.1,0,0.1-0.2,0-0.5c-0.1-0.3,0-0.6,0.1-0.7c0.1-0.1,0.2-0.5,0.2-1c0-0.5,0.1-0.8,0.2-0.7c0.1,0.1,0.1-0.5,0.1-1.3
	c0-0.8,0-1.4,0.1-1.4s0.2-1.5,0.2-3.3c0-1.8-0.1-3.3-0.2-3.3c-0.1,0-0.1-0.7-0.1-1.5c0-0.8,0-1.5-0.1-1.5s-0.2-0.4-0.2-0.8
	c0-0.5-0.1-0.9-0.2-1c-0.1-0.1-0.2-0.4-0.1-0.7c0.1-0.3,0-0.5,0-0.5c-0.1,0-0.3-0.6-0.4-1.3c-0.1-0.7-0.3-1.3-0.4-1.3
	c-0.1,0-0.1-0.1-0.1-0.3c0.1-0.2,0-0.3-0.1-0.3s-0.2-0.1-0.2-0.2c0-0.9-2.4-4.3-3.7-5c-0.4-0.2-0.7-0.5-0.8-0.6
	c-0.1-0.1-1.5-0.7-1.6-0.7c0,0-0.2-0.1-0.3-0.2c-0.2-0.1-0.6-0.3-1.1-0.4c-0.4-0.1-0.8-0.2-0.8-0.3s-0.3-0.1-0.6,0
	c-0.3,0-0.6,0-0.6-0.1c0-0.1-1.6-0.2-3.6-0.2C270.7,78.5,269.3,78.6,269.3,78.7 M311.2,78.7c0,0.1-0.2,0.1-0.5,0.1
	c-0.3,0-0.5,0-0.5,0.1S310.2,79,310,79c-1.2,0-4,2-5,3.6c-0.9,1.4-1.2,1.2-1.2-1.1l-0.1-1.9h-4.6h-4.6v19.1v19.1h4.8h4.8V105
	c0-7.1,0.1-13.2,0.2-13.6c0.1-0.4,0.3-1.3,0.4-1.9c0.5-2.4,2.8-3.8,5.7-3.4c0.6,0.1,1,0.2,0.9,0.3c-0.1,0.1,0,0.1,0.2,0.1
	c0.4-0.2,1.6,1,1.7,1.7c0.1,0.3,0.2,0.6,0.3,0.6c0.1,0,0.1,0.3,0.1,0.7c-0.1,0.4,0,0.7,0.1,0.7c0.1,0,0.2,4.3,0.2,13.9v13.9l4.8,0
	l4.8-0.1l0-15.4c0-11.3,0-15.5-0.2-15.8c-0.1-0.2-0.2-0.6-0.1-0.8c0.1-0.2,0-0.4-0.1-0.4c-0.1,0-0.2-0.2-0.1-0.5
	c0-0.3,0-0.5-0.1-0.5c-0.1,0-0.2-0.2-0.2-0.3c0-0.2-0.1-0.4-0.2-0.6c-0.1-0.1-0.2-0.2-0.1-0.2c0.1,0,0-0.1-0.1-0.3
	c-0.1-0.2-0.2-0.3-0.1-0.3c0.1,0,0-0.1-0.1-0.3c-0.5-0.6-0.7-0.8-0.7-1c0-0.1-0.2-0.3-0.5-0.5s-0.6-0.5-0.8-0.7
	c-0.7-0.6-2.1-1.3-2.5-1.3c-0.2,0-0.3-0.1-0.3-0.2s-0.2-0.1-0.5-0.1c-0.3,0-0.5,0-0.5-0.1c0-0.1-1.2-0.2-2.6-0.2
	C312.4,78.5,311.2,78.6,311.2,78.7 M342.1,78.7c0,0.1-0.3,0.1-0.7,0.1c-0.4,0-0.7,0-0.7,0s-0.4,0.2-0.8,0.3c-0.4,0.1-0.9,0.2-1,0.3
	c-0.1,0.1-0.5,0.3-0.9,0.4c-0.4,0.1-1.1,0.5-1.5,0.9c-0.5,0.3-0.9,0.6-1,0.6s-0.4,0.3-0.8,0.8c-0.4,0.4-0.8,0.7-0.9,0.7
	c-0.2-0.1-0.2,0-0.1,0.1c0.1,0.1,0,0.4-0.3,0.7c-0.2,0.3-0.7,1.1-1.1,1.9c-0.4,0.8-0.7,1.5-0.8,1.7c-0.1,0.2-0.3,0.7-0.4,1.3
	c-0.1,0.6-0.3,1.2-0.3,1.3c-0.1,0.2-0.1,0.6-0.1,0.9c0,0.3,0,0.6-0.2,0.6c-0.1,0-0.2,0.3-0.2,0.8c0,2.7-0.2,5.9-0.4,5.9
	c-0.1,0-0.2,0.2-0.2,0.4c0,0.2,0.1,0.4,0.2,0.4s0.2,1.8,0.3,4c0.1,2.7,0.2,4.1,0.3,4.3c0.1,0.1,0.2,0.5,0.1,0.7
	c-0.1,0.3,0,0.5,0.1,0.5c0.1,0,0.2,0.2,0.1,0.5c0,0.3,0,0.5,0.1,0.5c0.1,0,0.2,0.3,0.3,0.7c0.1,0.4,0.2,0.7,0.3,0.7s0.3,0.5,0.5,1
	c0.2,0.6,0.4,1,0.5,1c0.1,0,0.2,0.2,0.4,0.5c0.3,0.7,3.1,3.3,3.7,3.6c0.6,0.2,1,0.5,1,0.6c0,0.1,0.1,0.1,0.2,0.1
	c0.1-0.1,0.2,0,0.3,0.1c0.1,0.1,0.4,0.2,0.9,0.3c0.4,0.1,0.7,0.2,0.7,0.3c0,0.1,0.3,0.1,0.6,0.1c0.3,0,0.6,0,0.6,0.1
	c0,0.2,0.9,0.3,4.2,0.3c3.2,0,4-0.1,4-0.3c0-0.1,0.3-0.1,0.6-0.1c0.3,0,0.6,0,0.6,0c0-0.1,1.7-0.6,1.9-0.6c0.1,0,0.1-0.1,0.1-0.2
	c0-0.1,0.1-0.2,0.3-0.2s0.6-0.3,1-0.6c0.4-0.3,0.8-0.6,0.9-0.6c0.2,0,1.4-1.4,2-2.2c0.3-0.5,0.6-0.9,0.7-1c0.1-0.1,0.2-0.4,0.3-0.6
	c0.1-0.2,0.2-0.4,0.3-0.4c0.1,0,0.1-0.1,0.1-0.2c-0.1-0.1,0-0.3,0.1-0.5c0.1-0.1,0.2-0.3,0.1-0.3c-0.1,0-0.1-0.1,0.1-0.2
	c0.1-0.1,0.3-0.6,0.3-1.1s0.2-0.9,0.3-0.9c0.1,0,0.1-0.4,0.1-0.8l0-0.8l-4.3,0c-4.9,0-4.6-0.1-5,1.6c-0.2,0.7-0.4,1.3-0.5,1.4
	c-0.1,0-0.2,0.2-0.2,0.3c0,0.1-0.3,0.5-0.7,0.9c-2.2,2-6.2,0.9-7-2c-0.1-0.4-0.3-0.9-0.4-1c-0.1-0.1-0.1-0.4-0.1-0.5s0-0.3-0.1-0.3
	c-0.3,0-0.2-1.1,0.1-1.1c0.1,0,0.1-0.1-0.1-0.3c-0.3-0.2-0.3-0.6-0.3-3l0.1-2.8l9.8,0l9.8,0v-2c0-1.2-0.1-2.1-0.2-2.2
	c-0.1-0.1-0.2-0.8-0.1-1.9c0-0.9,0-1.7-0.1-1.6c-0.1,0-0.2-0.4-0.2-1.1c-0.2-1.6-0.2-2.1-0.4-2.4c-0.1-0.2-0.1-0.5,0-0.6
	c0.1-0.2,0-0.3-0.1-0.3s-0.2-0.2-0.1-0.4c0.1-0.2,0-0.4-0.1-0.4c-0.1,0-0.2-0.1-0.2-0.3c0-0.1-0.1-0.5-0.3-0.8
	c-0.1-0.3-0.2-0.6-0.2-0.7s0-0.2-0.1-0.2c-0.1,0-0.2-0.2-0.3-0.5c-0.1-0.3-0.2-0.5-0.3-0.5c-0.1,0-0.2-0.1-0.2-0.2
	c0-0.8-3.1-3.7-4.3-4.1c-0.3-0.1-0.6-0.3-0.6-0.4s-0.1-0.1-0.2-0.1c-0.1,0.1-0.2,0-0.3-0.1s-0.5-0.2-0.9-0.3
	c-0.5-0.1-0.8-0.2-0.7-0.3c0.1-0.1-0.1-0.1-0.3-0.1c-0.2,0.1-0.5,0-0.7,0C348.5,78.5,342.1,78.5,342.1,78.7 M274.5,85.6
	c0.1,0.2,0.2,0.2,0.2,0.1c0-0.1,0.3,0.1,0.7,0.5c0.4,0.3,0.7,0.7,0.7,0.9c0,0.1,0.1,0.2,0.2,0.2c0.1,0,0.3,0.4,0.4,0.8
	c0.1,0.4,0.3,0.9,0.4,1c0.1,0.1,0.1,0.3,0,0.4c-0.1,0.1,0,0.3,0.1,0.5c0.1,0.2,0.2,0.5,0.1,0.7c-0.1,0.3,0,0.5,0.1,0.5
	c0.2,0,0.2,0.3,0.1,0.9c-0.1,0.6,0,0.9,0.1,0.8c0.1-0.1,0.2,0.9,0.2,2.4c0.1,3.9-0.1,8.9-0.2,8.9c-0.1,0-0.1,0.5,0,1
	c0.1,0.6,0,0.9-0.1,0.9c-0.1,0-0.2,0.2-0.1,0.5c0.1,0.3,0,0.6-0.1,0.7s-0.2,0.3-0.2,0.4c0,0.1-0.1,0.6-0.3,1.2
	c-1.2,4.1-7.2,4.2-8.4,0.1c-0.1-0.4-0.3-0.9-0.4-1c-0.1-0.1-0.1-0.3,0-0.5c0.1-0.2,0-0.3-0.1-0.3c-0.2,0-0.2-0.2-0.1-0.7
	c0.1-0.4,0-0.7,0-0.7c-0.2,0-0.4-4.3-0.4-7c0-3.5,0.3-7.6,0.4-7.6c0.1,0,0.1-0.3,0-0.7c-0.1-0.5,0-0.7,0.1-0.7
	c0.1,0,0.2-0.1,0.1-0.3c-0.1-0.2,0-0.4,0.1-0.6c0.1-0.2,0.3-0.7,0.5-1.2c0.2-0.5,0.4-0.9,0.5-0.9c0.1,0,0.2-0.1,0.2-0.3
	c0-0.4,1.5-1.4,1.8-1.3c0.1,0.1,0.2,0,0.2-0.1C271.2,85,274.3,85.2,274.5,85.6 M346.6,85.4c0,0.1,0.1,0.1,0.2,0.1
	c0.7-0.4,2.3,1.5,2.6,3.1c0.1,0.6,0.3,1.2,0.4,1.4c0.1,0.2,0.1,0.7,0.1,1.1c-0.1,0.5-0.1,0.7,0.1,0.7c0.1,0,0.2,0.5,0.2,1.3v1.3
	h-5.1h-5.1v-1.8c0-1,0.1-1.8,0.2-1.8c0.1,0,0.1-0.3,0.1-0.7c-0.1-0.6-0.1-0.7,0.2-0.7c0.3,0,0.3,0,0.1-0.2c-0.6-0.4,1.2-3.1,2.5-3.8
	C343.8,85.2,346.6,85.1,346.6,85.4 M288.4,130.5c0,0.1-0.2,0.2-0.4,0.2c-0.5,0-1.1,1-1.1,1.7c0,0.8,0.8,1.8,1.3,1.8
	c0.3,0,0.4,0.1,0.4,0.7c0,0.6-0.5,1.4-0.9,1.4c-0.1,0-0.2,0.2-0.2,0.5c0,0.7,0.6,0.7,1.5-0.1c0.4-0.3,0.7-0.6,0.8-0.6
	c0.1,0,0.2-0.2,0.2-0.5c0.1-0.3,0.2-0.5,0.3-0.5c0.1,0,0.1-0.2,0.1-0.5c-0.1-0.3,0-0.5,0.1-0.5c0.1,0,0.2-0.3,0.1-1
	c-0.1-0.7,0-1,0.1-1.1c0.2-0.1,0.2-0.2,0-0.2c-0.2,0-0.4-0.2-0.5-0.5C289.9,130.8,288.4,130,288.4,130.5 M154.3,135.1
	c0,0.1-0.3,0.2-0.7,0.1c-0.4,0-0.7,0-0.7,0.1c0,0.1-0.2,0.2-0.4,0.2c-0.4,0.1-1.2,0.7-1.8,1.5c-0.1,0.2-0.3,0.6-0.4,0.9
	c-0.1,0.3-0.2,0.6-0.2,0.6c-0.1,0-0.1,0.5-0.1,1.2c0,0.7,0.1,1.2,0.1,1.2c0.1,0,0.1,0.2,0.1,0.5c0,0.6,2.2,2.9,2.5,2.6
	c0.1-0.1,0.1,0,0.1,0.1c0,0.1,0.3,0.2,0.6,0.3c2.6,0.5,4.1,2.2,3.4,3.9c-0.7,1.5-4.3,1.2-3.7-0.3c0.1-0.2,0-0.3-0.1-0.3
	c-0.1,0-0.2-0.3-0.2-0.7v-0.7l-1.5,0l-1.5,0l0,1c0,0.6,0.1,1,0.2,1c0.1,0,0.1,0.2,0.1,0.5c0,0.3,0,0.5,0.1,0.5
	c0.1,0,0.2,0.1,0.2,0.3c0,0.5,1.6,1.9,2.3,1.9c0.1,0,0.2,0.1,0.3,0.1c0.2,0.2,4,0.2,4.1-0.1c0.1-0.1,0.2-0.2,0.3-0.1
	c0.7,0.1,2.7-1.6,2.7-2.4c0-0.2,0.1-0.3,0.1-0.2c0.1,0,0.1-0.3,0.1-0.7c0-0.5,0-0.8,0.1-0.8c0.1,0,0.2-0.1,0.2-0.3
	c0-0.2-0.1-0.3-0.2-0.3c-0.1,0-0.2-0.4-0.3-1c-0.1-0.9-1.4-2.6-1.9-2.6c-0.4,0-1.8-0.8-1.7-0.9c0.1-0.1,0-0.1-0.2-0.1
	c-0.9,0.4-3.3-1.6-3.3-2.7c0-0.4,0.6-1.4,1-1.5c0.2-0.1,0.3-0.2,0.3-0.3c0-0.1,0.3-0.2,0.7-0.2c0.4,0,0.7,0.1,0.7,0.2
	c0,0.1,0.2,0.2,0.4,0.3c0.2,0.1,0.4,0.4,0.6,1l0.3,0.9h1.4h1.4l0.1-0.7c0.1-0.9-1-3.2-1.5-3.1c0,0-0.4-0.1-0.7-0.3
	c-0.4-0.2-1-0.3-1.3-0.3s-0.6-0.1-0.6-0.2s-0.3-0.2-0.7-0.2C154.6,134.8,154.3,134.9,154.3,135.1 M238.8,135.1
	c0,0.1-0.3,0.2-0.6,0.1c-0.4,0-0.6,0-0.6,0.1c0.1,0.1-0.1,0.1-0.3,0.1c-0.4,0-2.2,1.7-2.2,2.1c0,0.1-0.1,0.1-0.1,0.1
	c-0.1,0-0.2,0.3-0.2,0.8c0,0.5-0.1,0.9-0.2,1c-0.4,0.3-0.4,8.1,0,8.1c0.1,0,0.1,0.1,0.1,0.3c0,0.9,1.8,3.8,2.2,3.5c0,0,0.1,0,0.1,0
	s0.2,0.1,0.4,0.1c0.8,0.3,4.8,0.1,4.8-0.2c0-0.1,0.1-0.2,0.3-0.2c0.4,0,1.6-1.2,1.6-1.6c0-0.2,0.1-0.3,0.2-0.3
	c0.1,0,0.1-0.1,0.1-0.2c-0.1-0.1,0-0.2,0.1-0.3c0.1-0.1,0.2-0.3,0.2-0.5c0-0.2,0.1-0.4,0.1-0.4c0.1,0,0.1-0.4,0.1-0.9s0-0.9,0.1-0.9
	c0.1,0,0.2-1.1,0.2-2.5c0-1.4-0.1-2.5-0.2-2.5c-0.1,0-0.1-0.4-0.1-0.9s0-0.9-0.1-0.9c-0.1,0-0.1-0.2-0.1-0.5c0-0.3-0.1-0.5-0.1-0.5
	c-0.1,0-0.3-0.3-0.4-0.6c-0.3-0.8-0.9-1.5-1.7-1.8c-0.3-0.1-0.6-0.3-0.6-0.4s-0.3-0.1-0.6,0c-0.3,0-0.7,0-0.8-0.1
	C240.2,134.8,238.8,134.8,238.8,135.1 M295.8,135c-0.1,0.1-0.4,0.2-0.7,0.1c-0.3,0-0.5,0-0.5,0.1s-0.2,0.2-0.5,0.3
	c-0.8,0.2-1.9,1.4-2.1,2.1c-0.1,0.4-0.2,0.6-0.2,0.6c-0.1,0-0.1,0.7-0.1,1.5c0,0.8,0.1,1.5,0.1,1.5c0.1,0,0.2,0.2,0.2,0.5
	c0.1,0.3,0.4,0.8,0.7,1.1c0.3,0.3,0.5,0.7,0.4,0.8c-0.1,0.1,0,0.1,0.1,0c0.2-0.1,2,0.7,1.8,0.9c-0.1,0.1,0.1,0.1,0.3,0
	c0.2-0.1,0.4,0,0.4,0.1c0,0.1,0.1,0.2,0.2,0.1c0.1-0.1,0.3,0,0.4,0.1c0.1,0.1,0.3,0.2,0.4,0.2c1.8,0.2,2.6,3.2,1,4.1
	c-1.7,0.9-3.1-0.1-3.2-2l0-0.9H293h-1.6v1.1c0,1.3,0.6,2.8,1.4,3.4c0.3,0.2,0.6,0.5,0.8,0.6c0.1,0.1,0.3,0.2,0.4,0.2
	c0.1,0,0.3,0,0.5,0.1c0.7,0.3,4.6,0,5-0.4c0.1-0.1,0.4-0.2,0.5-0.2c0.2,0,1.1-0.9,1.6-1.6c0.5-0.8,0.5-3.7,0-4.5
	c-0.4-0.7-1.8-2-2.1-2c-0.2,0-0.7-0.2-2.9-1.2c-1.3-0.6-1.7-1.2-1.7-2.2c0-0.8,0.6-1.9,1-1.7c0.1,0.1,0.2,0,0.2-0.1
	c0-0.5,1.3-0.2,1.9,0.3c0.6,0.6,0.7,1.1,0.3,1.1c-0.1,0,0,0.2,0.2,0.4c0.3,0.3,0.7,0.4,1.7,0.4h1.3l0.1-0.8c0-0.5,0-0.8-0.1-0.8
	c-0.1,0-0.2-0.2-0.2-0.5c-0.2-1.1-1.9-2.3-3.3-2.3c-0.2,0-0.5-0.1-0.5-0.2C297.1,134.8,295.9,134.8,295.8,135 M312.8,135.1
	c0,0.2-0.1,0.3-0.3,0.3c-0.5,0-2,1.5-2.2,2.3c-0.1,0.4-0.3,0.7-0.4,0.7c-0.2,0-0.2,0.2-0.3,4.7c-0.1,2.6,0,4,0.1,4.2
	c0.1,0.2,0.2,0.5,0.2,0.6s0.1,0.5,0.3,0.9c0.4,0.8,0.4,1.1,0.1,0.9c-0.1-0.1-0.2-0.1-0.1,0.1c0.1,0.1,0.2,0.2,0.4,0.1
	c0.1-0.1,0.4,0.1,0.5,0.3c0.8,1.1,5.2,2,5.7,1.1c0.1-0.1,0.2-0.2,0.3-0.1c0.2,0.1,0.4,0,1.4-1c0.4-0.4,0.7-0.9,0.9-1.5
	c0.1-0.5,0.3-0.8,0.3-0.8s0.1-0.6,0.1-1.3l0-1.3h-1.7h-1.7l0.1,1c0.1,0.7,0,1-0.1,1c-0.1,0-0.2,0.2-0.1,0.4c0.1,0.2,0,0.4-0.1,0.4
	c-0.1,0-0.2,0.1-0.1,0.2c0.2,0.3-0.8,1-1.4,1c-0.9,0-1.7-0.6-1.6-1.1c0-0.1,0-0.2-0.1-0.2c-0.1,0-0.2-0.2-0.1-0.6
	c0.1-0.4,0-0.5-0.1-0.5c-0.1,0.1-0.2-1.2-0.2-3.5c0-2,0.1-3.7,0.2-3.7c0.1,0,0.1-0.2,0.1-0.4c-0.1-0.5,0.5-1.8,0.8-1.7
	c0.1,0,0.2,0,0.2-0.1c0-0.1,0.3-0.2,0.6-0.2c0.6,0,1.7,0.7,1.5,0.9c-0.1,0.1,0,0.2,0.1,0.3c0.1,0.1,0.2,0.3,0.1,0.6
	c-0.1,0.3,0,0.4,0.1,0.4c0.1,0,0.2,0.3,0.2,0.6v0.6h1.5h1.5l0.1-0.8c0.1-0.5,0.1-0.8-0.1-0.9c-0.1,0-0.2-0.3-0.2-0.5
	c0-1.1-1.5-3.1-2.3-3.1c-0.2,0-0.3-0.1-0.3-0.2s-0.3-0.1-0.6-0.1c-0.3,0-0.6,0-0.6-0.1c0-0.1-0.3-0.2-0.8-0.2
	c-0.5,0-0.8,0.1-0.8,0.2c0,0.3-1.1,0.2-1.2,0C312.8,134.8,312.8,134.9,312.8,135.1 M115.5,136.2c0,0.4,0.1,0.7,0.2,0.7
	c0.1,0,0.1,0.3,0.1,0.7c0,0.4,0,0.7,0.1,0.7c0.1,0,0.1,0.3,0.1,0.6c0,0.4,0.1,0.7,0.2,0.8c0.1,0.1,0.2,0.4,0.1,0.7
	c-0.1,0.3,0,0.5,0.1,0.5c0.1,0,0.2,0.2,0.1,0.7c-0.1,0.4,0,0.7,0.1,0.7c0.1,0,0.2,0.3,0.1,0.7c0,0.4,0,0.7,0.1,0.7s0.2,0.3,0.2,0.6
	c0,0.4,0.1,0.7,0.2,0.8c0.1,0.1,0.1,0.4,0.1,0.7c-0.1,0.4,0,0.5,0.1,0.5c0.2,0,0.2,0.2,0.1,0.7c-0.1,0.4,0,0.7,0,0.7
	c0.1,0,0.2,0.6,0.3,1.3c0.1,0.7,0.2,1.4,0.3,1.5c0.1,0.1,0.1,0.4,0.1,0.6c-0.1,0.4,0,0.4,1.9,0.3l2-0.1l-0.1-0.7
	c0-0.4,0-0.7,0.1-0.7c0.1,0,0.1-0.4,0.1-0.8c-0.1-0.5,0-0.8,0.1-0.8c0.1,0,0.2-0.2,0.1-0.6c-0.1-0.3,0-0.7,0.1-0.8
	c0.1-0.1,0.3-0.9,0.3-1.8c0.1-0.8,0.2-1.5,0.3-1.5c0.1,0,0.1-0.3,0-0.8c-0.1-0.5,0-0.8,0.1-0.8c0.1,0,0.2-0.2,0.1-0.6
	c-0.1-0.4,0-0.7,0.2-1c0.3-0.4,0.3-0.3,0.2,0.3c-0.1,0.4,0,0.7,0,0.7c0.2,0,0.6,2.8,0.6,4c0,0.4,0.1,0.7,0.2,0.7s0.1,0.3,0.1,0.7
	c-0.1,0.4,0,0.8,0,0.8c0.1,0,0.2,0.7,0.3,1.5c0.2,2.2,0.2,2.2,2.3,2.2c1.9,0,1.9,0,1.9-1.4c0-0.3,0.1-0.5,0.2-0.5
	c0.1,0,0.1-0.3,0.1-0.7c-0.1-0.4,0-0.7,0.1-0.7c0.2,0,0.2-0.2,0.1-0.6c-0.1-0.3,0-0.7,0.1-0.8c0.1-0.1,0.2-0.8,0.3-1.4
	c0.1-0.6,0.2-1.2,0.3-1.2c0.1,0,0.1-0.3,0.1-0.7c-0.1-0.4,0-0.7,0.1-0.7c0.1,0,0.2-0.2,0.1-0.5c-0.1-0.3,0-0.6,0.1-0.7
	c0.1-0.1,0.2-0.4,0.2-0.8c0-0.4,0.1-0.6,0.2-0.6c0.1,0,0.1-0.3,0.1-0.7c-0.1-0.4,0-0.7,0.1-0.7c0.1,0,0.1-0.3,0.1-0.6
	c-0.1-0.4,0-0.6,0.3-0.8c0.2-0.2,0.3-0.3,0.1-0.3c-0.3,0-0.3-0.7,0-0.8c0.8-0.5,0.2-0.8-1.4-0.8h-1.6v0.8c0,0.5-0.1,0.7-0.2,0.6
	c-0.1-0.1-0.1,0.2-0.1,0.7c0.1,0.6,0,0.9-0.1,0.9c-0.1,0-0.2,0.2-0.1,0.6c0.1,0.3,0,0.7,0,0.9c-0.1,0.2-0.2,0.6-0.2,0.9
	c-0.2,1.9-0.3,2.5-0.5,2.4c-0.1-0.1-0.1,0.3,0,0.7c0.1,0.6,0,0.9-0.1,0.9c-0.1,0-0.2,0.3-0.1,0.8c0.1,0.6,0,0.9-0.2,1.2
	c-0.3,0.4-0.3,0.3-0.2-0.3c0.1-0.4,0-0.7-0.1-0.7c-0.1,0-0.2-0.3-0.1-0.7c0.1-0.4,0-0.7-0.1-0.6c-0.1,0.1-0.2-0.3-0.2-0.7
	c0-0.5-0.1-0.9-0.2-1c-0.1-0.1-0.2-0.4-0.1-0.8c0.1-0.4,0-0.6-0.1-0.6c-0.1,0-0.2-0.2-0.1-0.7c0-0.4,0-0.7-0.1-0.7
	c-0.1,0-0.1-0.4-0.1-0.8c0.1-0.5,0-0.8,0-0.8c-0.2,0-0.4-1.2-0.4-2.2l0-0.6h-1.5c-1.7,0-2.1,0.2-1.9,1c0.1,0.3,0.1,0.6,0,0.8
	c-0.1,0.2-0.2,0.5-0.2,0.8c-0.1,1.3-0.3,2.2-0.5,2.2c-0.1,0-0.1,0.3,0,0.7c0.1,0.4,0,0.8-0.1,0.9c-0.1,0.1-0.2,0.3-0.1,0.6
	c0.1,0.3,0.1,0.6,0,0.8c-0.1,0.2-0.2,0.5-0.2,0.8c0,0.3-0.1,0.8-0.2,1.1c-0.1,0.4-0.2,0.9-0.2,1.3c-0.2,1.2-0.4,0.3-0.5-1.5
	c0-0.4-0.1-0.7-0.2-0.7c-0.1,0-0.2-0.3-0.1-0.7c0-0.4,0-0.7-0.1-0.7c-0.1,0-0.1-0.4-0.1-0.8c0.1-0.5,0-0.8,0-0.8
	c-0.2,0-0.4-1.3-0.4-2.5c0-0.4-0.1-0.7-0.2-0.7c-0.1,0-0.1-0.3-0.1-0.7c0-0.4,0-0.7-0.1-0.7s-0.1-0.2-0.1-0.5c0-0.5,0-0.5-1.5-0.5
	h-1.5V136.2 M133.7,143.3v7.9h4.5h4.5V150v-1.1l-2.9-0.1l-3-0.1l-0.1-2.2l-0.1-2.2l2.8,0.1l2.8,0.1v-1.4v-1.4h-2.8h-2.8l0.1-1.9
	l0.1-1.9l2.8-0.1l2.8-0.1v-1.2v-1.2H138h-4.3V143.3 M162.7,135.5c-0.1,0.1-0.1,3.6-0.1,7.9v7.7h1.6h1.6v-3.5v-3.5h1.9h1.9v3.5v3.5
	h1.6h1.6v-7.9v-7.9h-1.6h-1.6l-0.1,3l-0.1,3h-1.8h-1.8l-0.1-3l-0.1-3h-1.5C163.5,135.4,162.7,135.5,162.7,135.5 M178.3,135.7
	c-0.1,0.1-0.2,0.4-0.1,0.6c0.1,0.2,0,0.4-0.1,0.4s-0.2,0.1-0.1,0.4c0.1,0.2,0,0.4-0.1,0.5c-0.1,0.1-0.2,0.5-0.3,1
	c-0.1,0.5-0.2,0.9-0.3,0.9c-0.1,0-0.1,0.1-0.1,0.3c0.1,0.2,0,0.4-0.1,0.5c-0.1,0.1-0.2,0.3-0.1,0.4c0.1,0.1,0,0.2-0.1,0.4
	c-0.1,0.1-0.3,0.8-0.4,1.5c-0.1,0.7-0.3,1.3-0.4,1.4c-0.1,0.1-0.1,0.3-0.1,0.4c-0.1,0.6-0.3,1.4-0.5,1.4c-0.1,0-0.1,0.2,0,0.5
	c0.1,0.3,0,0.5-0.1,0.5c-0.1,0-0.2,0.1-0.1,0.4c0.1,0.2,0,0.4-0.1,0.5c-0.1,0.1-0.2,0.5-0.3,1c-0.1,0.5-0.2,0.9-0.3,0.8
	c-0.1,0-0.1,0.1-0.1,0.4c0,0.3,0,0.5-0.1,0.5c-0.1,0-0.2,0.2-0.2,0.5c0,0.5,0.1,0.5,1.5,0.5c1.9,0,2-0.1,1.9-0.8
	c-0.1-0.3,0-0.5,0.1-0.5c0.1,0,0.2-0.4,0.3-0.9l0.1-0.9l2.2,0.1l2.2,0.1l0,0.5c0,0.3,0.1,0.5,0.2,0.5c0.1,0,0.2,0.2,0.1,0.5
	c-0.1,0.3,0,0.5,0.1,0.5c0.1,0,0.2,0.3,0.2,0.6v0.6h1.7h1.7l-0.1-0.7c-0.1-0.4-0.2-0.8-0.3-0.9c-0.1-0.1-0.1-0.4-0.1-0.5
	c0.1-0.2,0-0.3-0.1-0.3c-0.2,0-0.6-2.2-0.5-2.4c0-0.1,0-0.2-0.2-0.3c-0.2-0.1-0.3-0.3-0.2-0.5c0.1-0.2,0-0.4,0-0.4
	c-0.1,0-0.2-0.6-0.4-1.3c-0.1-0.7-0.3-1.4-0.4-1.5c-0.1-0.1-0.1-0.4-0.1-0.5c0.1-0.2,0-0.3-0.1-0.3c-0.3,0-0.2-0.7,0.1-0.8
	c0.1-0.1,0.1-0.1-0.1-0.1c-0.3,0-0.3-0.1-0.3-0.5c0.1-0.3,0-0.5-0.2-0.6c-0.2-0.1-0.2-0.2-0.1-0.5c0.1-0.2,0-0.4-0.1-0.4
	c-0.1,0-0.2-0.2-0.1-0.4c0.1-0.2,0-0.4,0-0.4c-0.1,0-0.2-0.4-0.3-0.8c-0.3-1.8-0.3-1.8-2.4-1.8C179.1,135.4,178.5,135.5,178.3,135.7
	 M188,143.3v7.9h1.8h1.8v-3.4v-3.4h0.8c0.5,0,0.8,0.1,0.8,0.2c0,0.1,0.2,0.1,0.3,0.1c0.9-0.3,1.2,0.4,1.5,3.3c0.2,1.9,0.2,2.7,0,2.8
	c-0.3,0.2,0.6,0.4,2.1,0.4c1.3,0,1.4,0,1.3-0.3c-0.1-0.2-0.2-1.5-0.2-3c0-2-0.1-2.7-0.3-2.7c-0.1,0-0.2-0.1-0.2-0.3
	c0-0.4-0.9-1.2-1.4-1.3c-0.2,0-0.4-0.1-0.3-0.2c0.1-0.1,0.1-0.2,0.2-0.1c0.1,0,1.2-0.9,1.7-1.6c0.5-0.6,0.4-3.8-0.2-4.6
	c-1-1.5-1.3-1.6-5.8-1.6l-4-0.1V143.3 M201.1,143.3v7.9h4.5h4.5V150v-1.1l-2.9-0.1l-3-0.1l-0.1-2.2l-0.1-2.2l2.8,0.1l2.8,0.1v-1.4
	v-1.4h-2.8h-2.8l0.1-1.9l0.1-1.9l2.8-0.1l2.8-0.1v-1.1v-1.1l-4.4-0.1l-4.4,0V143.3 M216.1,135.6c0,0.1,0.1,0.2,0.2,0.2
	c0.1,0,0.2,0.2,0.1,0.6c0,0.3,0,0.6,0.1,0.6c0.1,0,0.1,0.3,0.1,0.7c-0.1,0.4,0,0.7,0.1,0.7c0.1-0.1,0.3,0.9,0.4,2
	c0,0.3,0.1,0.5,0.2,0.5c0.1,0,0.1,0.3,0.1,0.7c0,0.4,0,0.7,0.1,0.7c0.1,0,0.2,0.6,0.3,1.3c0.1,0.7,0.2,1.4,0.3,1.5
	c0.1,0.1,0.1,0.4,0.1,0.6c-0.1,0.2,0,0.5,0.1,0.7c0.1,0.1,0.2,0.5,0.1,0.7c0,0.3,0,0.5,0.1,0.5s0.2,0.6,0.3,1.3
	c0.1,0.7,0.2,1.4,0.3,1.5c0.1,0.1,0.1,0.4,0.1,0.6c-0.1,0.4,0,0.4,1.8,0.3l1.9-0.1l0.1-0.8c0-0.4,0.1-0.8,0.2-0.8
	c0.1,0,0.1-0.3,0.1-0.7c0-0.4,0-0.7,0.1-0.7c0.1,0,0.2-0.3,0.2-0.7c0-1,0.4-4,0.6-4c0.1,0,0.1-0.3,0-0.7c0-0.5,0-0.7,0.1-0.7
	c0.1,0,0.2-0.2,0.1-0.7c-0.1-0.5,0-0.8,0.2-1c0.3-0.3,0.3-0.2,0.2,0.5c-0.1,0.4,0,0.8,0,0.8c0.1,0,0.2,0.7,0.3,1.5
	c0.1,0.8,0.2,1.6,0.3,1.7c0.1,0.1,0.1,0.5,0.1,0.8c-0.1,0.3,0,0.6,0.1,0.7c0.1,0.1,0.2,0.4,0.1,0.9c-0.1,0.4,0,0.7,0.1,0.6
	c0.2-0.1,0.4,1.3,0.4,2.5c0,0.3,0.1,0.6,0.2,0.6c0.1,0,0.2,0.1,0.2,0.3c0,0.2,0.3,0.3,1.8,0.3h1.8l0.1-0.6c0.1-0.3,0.1-0.8,0.1-1
	c0-0.2,0.1-0.4,0.1-0.4c0.1,0,0.1-0.3,0.1-0.7c0-0.4,0-0.7,0.1-0.7c0.1,0,0.2-0.2,0.1-0.6c-0.1-0.4,0-0.6,0.2-0.7
	c0.2-0.1,0.2-0.3,0.2-0.8c0-0.4,0-0.7,0.1-0.7c0.1,0,0.1-0.3,0.1-0.7c-0.1-0.5,0-0.6,0.2-0.5c0.2,0.1,0.2,0,0.1-0.4
	c-0.1-0.3-0.1-0.7,0-0.8c0.1-0.1,0.2-0.4,0.2-0.7c0.1-1.1,0.3-2.1,0.4-2.1c0.1,0,0.1-0.3,0.1-0.7c0-0.4,0-0.7,0.1-0.7
	c0.1,0,0.1-0.2,0.1-0.4c-0.1-0.2,0-0.5,0-0.7c0.1-0.2,0.2-0.5,0.2-0.8c0-0.3,0.1-0.7,0.2-0.9c0.1-0.4,0.1-0.4-1.5-0.4h-1.6l-0.1,1.5
	c-0.1,0.8-0.2,1.5-0.3,1.5c-0.1,0-0.1,0.3-0.1,0.6c0.1,0.3,0,0.7,0,0.9c-0.1,0.2-0.2,0.6-0.2,0.9c-0.2,2-0.3,2.5-0.4,2.4
	c-0.1,0-0.1,0.3-0.1,0.7c0.1,0.5,0,0.8-0.1,0.8c-0.1,0-0.2,0.4-0.2,0.9c0,0.5-0.1,1-0.3,1.2c-0.2,0.2-0.2,0.1-0.1-0.5
	c0.1-0.5,0.1-0.7-0.1-0.7c-0.1,0-0.2-0.2-0.1-0.7c0-0.4,0-0.7-0.1-0.7c-0.1,0-0.3-0.9-0.4-2.3c0-0.3-0.1-0.7-0.2-0.9
	c-0.1-0.2-0.1-0.5,0-0.8c0.1-0.3,0-0.5-0.1-0.5c-0.1,0-0.2-0.3-0.1-0.8c0.1-0.5,0-0.8-0.1-0.8c-0.2,0.1-0.4-1.2-0.4-2.3l0-0.6h-1.5
	c-1.8,0-2,0.2-1.9,1.2c0.1,0.5,0,0.7-0.1,0.7c-0.1,0-0.2,0.2-0.1,0.6c0.1,0.4,0,0.7-0.1,0.8c-0.1,0.1-0.2,0.4-0.2,0.8
	c0,0.4-0.1,0.8-0.3,0.9c-0.2,0.1-0.2,0.2-0.1,0.2c0.2-0.1,0.2,0.1,0.2,0.5c0,0.4-0.1,0.7-0.2,0.7c-0.1,0-0.1,0.2-0.1,0.6
	c0.1,0.3,0,0.7-0.1,0.8c-0.1,0.2-0.2,0.4-0.1,0.6c0.1,0.2,0,0.6-0.1,0.9c-0.1,0.3-0.2,1-0.3,1.5c-0.1,0.9-0.3,1-0.4,0.2
	c0-0.3-0.1-0.9-0.2-1.3c-0.1-0.5-0.1-1.2-0.1-1.5c0-0.4-0.1-0.7-0.2-0.7c-0.1,0-0.1-0.4-0.1-0.8c0.1-0.5,0-0.8-0.1-0.8
	c-0.1,0-0.2-0.3-0.2-0.6c0-0.4,0.1-0.5,0.2-0.4c0.1,0.1,0-0.1-0.2-0.4c-0.3-0.4-0.4-0.7-0.3-1c0.1-0.3,0-0.5-0.1-0.6
	c-0.1-0.1-0.2-0.4-0.1-0.9c0.1-0.4,0-0.7-0.1-0.7c-0.1,0-0.2-0.2-0.2-0.5c0-0.5,0-0.5-1.6-0.5C216.8,135.4,216.1,135.5,216.1,135.6
	 M247.6,143.3v7.9h1.5h1.5v-5.1c0-4.5,0-5.1,0.3-5.1c0.2,0,0.3,0.1,0.2,0.6c0,0.3,0,0.6,0.1,0.6c0.1,0,0.3,0.6,0.4,1.6
	c0,0.2,0.1,0.5,0.2,0.7c0.1,0.2,0.1,0.5,0,0.6c-0.1,0.2,0,0.3,0.1,0.3c0.1,0,0.2,0.4,0.3,1c0.1,0.5,0.2,1.1,0.3,1.3
	c0.1,0.2,0.1,0.4,0,0.6c-0.2,0.2-0.2,0.3,0.1,0.3c0.3,0,0.3,0.1,0.2,0.6c0,0.3,0,0.6,0.1,0.6c0.1,0,0.1,0.2,0.1,0.6
	c0,0.3,0,0.5,0.1,0.5s0.2,0,0.2,0.2c0,0.2,0.3,0.3,1.4,0.3c1.4,0,1.4,0,1.3-0.5c-0.1-0.3,0-0.5,0.2-0.6c0.3-0.1,0.3-0.2,0.1-0.3
	c-0.2-0.1-0.2-0.2,0-0.5c0.1-0.2,0.2-0.6,0.2-0.8s0.1-0.5,0.1-0.5c0.1,0,0.2-0.4,0.2-1c0-0.5,0.1-1,0.2-1c0.1,0,0.1-0.3,0.1-0.5
	c-0.1-0.2,0-0.5,0.1-0.6c0.1-0.1,0.2-0.4,0.2-0.7c0-0.3,0.1-0.5,0.2-0.4c0.1,0.1,0.1-0.1,0.1-0.5c-0.1-0.4,0-0.6,0.1-0.6
	c0.1,0,0.2-0.2,0.1-0.6c-0.1-0.3,0-0.6,0.1-0.6c0.1,0,0.2-0.2,0.2-0.4c0-0.9,0.2-1.6,0.4-1.9c0.3-0.5,0.3-0.9,0.2,6l0,5.9h1.4h1.4
	v-7.9v-7.9h-2.3c-2.2,0-2.3,0-2.3,0.4c0,0.2-0.1,0.4-0.2,0.4c-0.1,0-0.1,0.3-0.1,0.6c0,0.3,0,0.6-0.1,0.6c-0.1,0-0.2,0.2-0.1,0.5
	c0.1,0.3,0,0.6-0.1,0.7c-0.1,0.1-0.2,0.7-0.3,1.3c-0.1,0.6-0.2,1.1-0.3,1.1c-0.1,0-0.1,0.3-0.1,0.6c0.1,0.3,0,0.6-0.1,0.6
	c-0.1,0-0.2,0.2-0.1,0.5c0.1,0.3,0,0.6-0.1,0.7c-0.1,0.1-0.3,0.7-0.3,1.3c-0.1,0.6-0.2,1.1-0.3,1.1s-0.1,0.2-0.1,0.5
	c0.1,0.5,0.1,0.5-0.2,0.1c-0.2-0.2-0.3-0.5-0.3-0.7c0-0.2,0-0.5-0.1-0.7c-0.1-0.2-0.1-0.5,0-0.6c0.1-0.2,0-0.3-0.1-0.3
	c-0.1,0-0.2-0.5-0.3-1.2c-0.1-0.7-0.2-1.3-0.3-1.3c-0.1-0.1-0.1-0.3-0.1-0.6c0.1-0.3,0-0.4-0.1-0.4s-0.2-0.2-0.1-0.6
	c0-0.4,0-0.6-0.1-0.6c-0.1,0.1-0.3-1.1-0.4-1.9c0-0.2-0.1-0.5-0.2-0.6c-0.1-0.1-0.2-0.4-0.1-0.6c0.1-0.5-0.2-0.6-2.6-0.6h-2.1V143.3
	 M264.4,142.8c0,4.1-0.1,7.6-0.1,7.9l-0.1,0.4h4.5h4.5V150v-1.1l-2.9-0.1l-2.9-0.1l-0.1-2.2l-0.1-2.2l2.7,0.1l2.7,0.1v-1.4v-1.4
	h-2.7h-2.7v-2v-2h2.8h2.8v-1.2v-1.2h-4.3h-4.3L264.4,142.8 M275.3,143.3v7.9h1.5h1.5v-5.5c0-4.7,0-5.4,0.3-5.2
	c0.1,0.1,0.2,0.3,0.2,0.5c-0.1,0.1,0,0.3,0.1,0.4c0.2,0.1,0.1,0.2,0,0.4c-0.2,0.2-0.2,0.3,0,0.2c0.2,0,0.3,0.1,0.2,0.3
	c0,0.2,0,0.3,0.1,0.3c0.1,0,0.2,0.3,0.3,0.6c0.1,0.3,0.2,0.7,0.3,0.9c0.1,0.2,0.1,0.3-0.1,0.4c-0.2,0.1-0.2,0.2,0,0.2
	c0.2,0,0.4,0.3,0.5,0.9c0.1,0.5,0.3,1,0.4,1.1c0.1,0.1,0.1,0.3,0.1,0.4c-0.1,0.1,0,0.2,0,0.2c0.1,0,0.5,1.1,0.7,1.9
	c0,0.1,0.1,0.2,0.2,0.3c0.1,0.1,0.1,0.3,0,0.4c-0.1,0.1,0,0.2,0.1,0.2c0.1,0,0.2,0.2,0.1,0.4c-0.1,0.2,0,0.3,0.1,0.3
	c0.1-0.1,0.2,0,0.2,0.2c0,0.2,0.3,0.3,2,0.3h2v-7.9v-7.9h-1.5h-1.5v5.3c0,3.4-0.1,5.3-0.2,5.3c-0.1,0-0.2-0.1-0.2-0.1
	c-0.1-0.8-0.2-1.3-0.4-1.3c-0.1,0-0.3-0.5-0.4-1.1c-0.1-0.6-0.3-1-0.4-1c-0.1,0-0.3-0.6-0.5-1.3c-0.2-0.7-0.4-1.3-0.5-1.3
	c-0.1,0-0.1-0.2-0.1-0.4c0.1-0.2,0-0.4-0.1-0.4c-0.1,0-0.2-0.3-0.3-0.6c-0.1-0.3-0.3-0.9-0.5-1.4c-0.2-0.4-0.4-1-0.5-1.3l-0.1-0.5
	h-1.9h-1.9V143.3 M325,136.3c-0.1,0.5-0.2,0.9-0.3,0.9c-0.1,0-0.1,0.2-0.1,0.4c0.1,0.2,0,0.4-0.1,0.4c-0.1,0-0.1,0.2-0.1,0.4
	c0.1,0.2,0,0.5-0.1,0.6c-0.1,0.1-0.3,0.6-0.3,1c-0.1,0.4-0.2,0.8-0.3,0.8c-0.1,0-0.1,0.2,0,0.5c0.1,0.3,0,0.5-0.1,0.5
	c-0.1,0-0.2,0.1-0.1,0.3c0.1,0.2,0,0.4-0.1,0.5c-0.1,0.1-0.2,0.6-0.3,1c-0.1,0.4-0.2,0.8-0.3,0.8c-0.1,0-0.1,0.2-0.1,0.5
	c0.1,0.3,0,0.5-0.1,0.5c-0.1,0-0.1,0.2-0.1,0.4s0,0.4-0.1,0.5s-0.2,0.3-0.2,0.6c0,0.3-0.1,0.4-0.2,0.4c-0.1-0.1-0.1,0.1-0.1,0.4
	c0,0.3,0,0.5-0.1,0.5c-0.1,0-0.1,0.2-0.1,0.5c0.1,0.3,0,0.5-0.1,0.5c-0.1,0-0.2,0.1-0.1,0.4c0.1,0.2,0,0.4-0.1,0.5
	c-0.1,0.1-0.2,0.3-0.2,0.6c0,0.3-0.1,0.5-0.2,0.5c-0.1,0-0.1,0.1-0.1,0.2c0.1,0.1,0.9,0.2,1.8,0.2h1.7l0.1-0.9
	c0.1-0.5,0.2-0.9,0.3-0.9c0.1,0,0.1-0.2,0.1-0.3c-0.3-0.9,0-1,2.3-1h2.1l0.1,0.7c0.1,0.4,0.2,0.8,0.3,1c0.1,0.2,0.1,0.5,0.1,0.6
	c-0.1,0.2,0,0.3,0.1,0.3c0.1,0,0.2,0.1,0.2,0.3c0,0.2,0.3,0.3,1.7,0.3c1.1,0,1.6-0.1,1.5-0.2c-0.2-0.1-0.2-0.3-0.2-0.6
	c0.1-0.2,0-0.4-0.1-0.4c-0.1,0-0.2-0.2-0.1-0.5c0.1-0.3,0-0.5,0-0.5c-0.2,0-0.4-1.1-0.4-1.5c0-0.1-0.1-0.2-0.2-0.2
	c-0.1,0-0.2-0.2-0.1-0.5c0-0.3,0-0.5-0.1-0.5c-0.1,0-0.1-0.2-0.1-0.5c0-0.3,0-0.5-0.1-0.5c-0.1,0-0.2-0.2-0.2-0.5
	c0-0.3-0.1-0.5-0.2-0.5c-0.1,0-0.2-0.2-0.1-0.4c0.1-0.2,0-0.4-0.1-0.5c-0.1-0.1-0.3-0.7-0.4-1.4c-0.1-0.7-0.3-1.4-0.4-1.5
	c-0.1-0.1-0.1-0.3,0-0.5c0.1-0.2,0-0.3-0.1-0.3c-0.1,0-0.3-0.6-0.4-1.3c-0.1-0.7-0.3-1.4-0.4-1.5c-0.1-0.1-0.1-0.3,0-0.5
	c0.1-0.2,0-0.3-0.1-0.3c-0.1,0-0.2-0.2-0.1-0.5c0-0.3,0-0.4-0.1-0.4c-0.1,0.1-0.2,0-0.2-0.1c0-0.1-0.7-0.2-2-0.2h-2L325,136.3
	 M335.1,135.5c-0.1,0.1-0.1,3.6-0.1,7.9v7.7h1.6h1.6l0.1-3.3l0.1-3.3l0.9-0.1c0.6,0,0.9,0,0.9,0.2c0,0.1,0.2,0.2,0.4,0.1
	c0.4-0.1,1.3,0.7,1.2,1.2c-0.1,0.1,0,0.3,0.1,0.3c0.2,0,0.2,0.5,0.1,2.2c0,1.2,0,2.2,0.1,2.2c0.1,0,0.2,0.2,0.2,0.4
	c0,0.3,0.1,0.4,1.7,0.4c1.5,0,2-0.2,1.5-0.5c-0.1-0.1-0.1-0.3-0.1-0.6c0.1-0.3,0-0.5-0.1-0.5c-0.3,0-0.3-3.3,0-3.4
	c0.1,0,0.1-0.2-0.1-0.3c-0.2-0.2-0.3-0.5-0.4-0.8c-0.2-0.6-0.8-1.3-1.4-1.4c-0.3-0.1-0.5-0.2-0.6-0.4c-0.1-0.2,0-0.2,0.2-0.1
	c0.7,0.3,2-1.4,2-2.7c0-0.3,0.1-0.6,0.2-0.6s0.2-0.2,0.2-0.5c0-0.3-0.1-0.5-0.2-0.5s-0.2-0.3-0.2-0.6c0-0.7-0.6-2-0.9-2.1
	c-0.2-0.1-0.6-0.3-0.9-0.5C342.4,135.4,335.5,135.2,335.1,135.5 M347.8,143.3v7.9h4.5h4.5V150v-1.1l-2.9-0.1l-2.9-0.1l-0.1-2.2
	l-0.1-2.2l2.7,0.1l2.7,0.1l-0.1-1.4l-0.1-1.4l-2.7-0.1l-2.7-0.1l0.1-1.9l0.1-1.9l2.9-0.1l3-0.1v-1.2v-1.2h-4.6h-4.6V143.3
	 M240.3,137.5c0,0.1,0.1,0.2,0.2,0.1c0.2-0.1,1,0.8,1,1.2c0,0.2-0.1,0.2-0.2,0.1c-0.1-0.1,0,0,0.2,0.2c0.4,0.3,0.4,0.5,0.3,1
	c-0.1,0.4,0,0.7,0.1,0.8c0.3,0.2,0.3,4.8,0,4.8c-0.1,0-0.2,0.3-0.1,0.8c0.1,0.5,0,0.9-0.1,0.9c-0.1,0.1-0.2,0.3-0.2,0.5
	c0,0.2-0.1,0.3-0.2,0.3c-0.1-0.1-0.2,0-0.1,0.2c0.1,0.9-2.3,1-2.9,0.2c-0.2-0.2-0.3-0.5-0.2-0.6c0.1-0.1,0-0.2-0.1-0.2
	c-0.1,0-0.2-0.2-0.1-0.4c0.1-0.2,0-0.4,0-0.4c-0.1,0-0.1-1.7-0.1-3.8c0-2.1,0.1-3.8,0.1-3.8c0.1,0,0.1-0.2,0-0.5
	c-0.2-0.7,1-1.8,1.9-1.8C240,137.3,240.3,137.4,240.3,137.5 M193.6,137.8c0.3,0.1,0.5,0.2,0.5,0.3c-0.1,0.1,0,0.1,0.2,0.1
	c0.3-0.1,1,1.3,1,1.9c0,1.4-1.1,2.4-2.7,2.2l-1.1-0.1v-2.2v-2.2h0.7C192.7,137.7,193.3,137.7,193.6,137.8 M340.7,137.8
	c1,0.3,1.2,0.8,1.2,2.2c0,1.7-0.6,2.2-2.4,2.2l-1.2,0v-2.3l0-2.3l0.9,0C339.6,137.7,340.3,137.7,340.7,137.8 M180.6,138.6
	c-0.1,0.2,0,0.4,0.1,0.5c0.1,0.1,0.2,0.3,0.2,0.5c0,0.2,0,0.6,0.1,0.7c0.1,0.2,0.1,0.5,0,0.6c-0.1,0.2,0,0.3,0.1,0.3
	c0.1,0,0.2,0.5,0.3,1.1c0.1,0.6,0.2,1.2,0.3,1.3c0.1,0.1,0.1,0.4,0.1,0.6s0,0.4,0.1,0.4c0.1,0,0.2,0.2,0.2,0.4
	c0,0.3-0.1,0.4-1.5,0.4c-1.3,0-1.5,0-1.5-0.3c0-0.4,0.4-2.5,0.5-2.8c0.1-0.2,0.1-0.5,0.1-0.7c0-0.2,0.1-0.5,0.2-0.5
	c0.1-0.1,0.2-0.3,0.2-0.5c0-0.7,0.4-2.2,0.6-2.2C180.7,138.2,180.7,138.4,180.6,138.6 M327.5,139.1c0,0.3,0,0.6,0.1,0.5
	c0.1-0.1,0.1,0.2,0.1,0.5c0,0.3,0.1,0.6,0.2,0.7c0.1,0.1,0.2,0.3,0.1,0.6c0,0.2,0,0.5,0.1,0.6c0.1,0.1,0.1,0.3,0.1,0.6
	c-0.1,0.3,0,0.4,0.1,0.4c0.1,0,0.2,0.2,0.1,0.6c0,0.3,0,0.6,0.1,0.6c0.1,0,0.2,0.3,0.2,0.7l0.1,0.7h-1.6c-1.3,0-1.6-0.1-1.6-0.3
	c0-0.2,0.1-0.3,0.2-0.3c0.1,0,0.1-0.1,0.1-0.3c-0.1-0.2,0-0.4,0-0.6c0.1-0.2,0.2-0.5,0.2-0.7c0.2-1.4,0.3-1.8,0.4-1.7
	c0.1,0,0.1-0.2,0.1-0.5c0-0.3,0-0.6,0.1-0.6c0.1,0,0.2-0.2,0.1-0.6c-0.1-0.4,0-0.6,0.1-0.6c0.1,0,0.2-0.1,0.1-0.4
	c-0.1-0.4,0-0.8,0.3-0.6C327.5,138.4,327.5,138.7,327.5,139.1 M250.6,139.6c-0.2,0.2-0.2,0.1-0.2-0.2c0-0.3,0-0.4,0.2-0.2
	C250.8,139.3,250.8,139.4,250.6,139.6 M250.9,140.5c0,0.2-0.1,0.4-0.2,0.4c-0.1,0-0.2-0.2-0.2-0.5c0-0.3,0.1-0.4,0.2-0.4
	C250.9,140.1,250.9,140.3,250.9,140.5"/>
</svg>
