<?xml version="1.0" encoding="utf-8"?>
<!-- Generator: Adobe Illustrator 23.0.3, SVG Export Plug-In . SVG Version: 6.00 Build 0)  -->
<svg version="1.1" id="svg" xmlns="http://www.w3.org/2000/svg" xmlns:xlink="http://www.w3.org/1999/xlink" x="0px" y="0px"
	 viewBox="0 0 400 153" style="enable-background:new 0 0 400 153;" xml:space="preserve">
<style type="text/css">
	.st0{fill-rule:evenodd;clip-rule:evenodd;fill:#FFFFFF;}
	.st1{fill-rule:evenodd;clip-rule:evenodd;fill:#565656;}
</style>
<ellipse class="st0" cx="199.6" cy="75.1" rx="190.5" ry="71"/>
<path id="path0" class="st1" d="M170.3-0.9c-3.3,0-5.6,0.1-5.7,0.2c-0.1,0.1-1.8,0.2-4.3,0.2c-2.6,0-4.2,0.1-4.2,0.2
	c-0.1,0.1-1.5,0.2-3.7,0.2c-2.2,0-3.6,0.1-3.7,0.2c-0.1,0.1-1.2,0.2-2.8,0.2s-2.7,0.1-2.8,0.2c-0.1,0.1-1.2,0.2-3,0.2
	s-2.9,0.1-3,0.2c-0.1,0.1-1,0.2-2.3,0.2c-1.3,0-2.3,0.1-2.3,0.2c-0.1,0.1-1,0.2-2.3,0.2s-2.3,0.1-2.3,0.2c-0.1,0.1-0.9,0.2-2,0.2
	s-1.9,0.1-2,0.2c-0.1,0.1-0.9,0.2-2,0.2s-1.9,0.1-2,0.2S119,2.2,118,2.2c-1.1,0-1.8,0.1-1.8,0.2c0,0.1-0.7,0.2-1.7,0.2
	c-1,0-1.8,0.1-1.8,0.2c-0.1,0.1-0.8,0.2-1.7,0.2c-0.9,0-1.6,0.1-1.7,0.2s-0.8,0.2-1.6,0.2c-0.9,0-1.5,0.1-1.5,0.2
	c0,0.1-0.6,0.2-1.5,0.2s-1.5,0.1-1.5,0.2c0,0.1-0.6,0.2-1.5,0.2s-1.5,0.1-1.5,0.2s-0.6,0.2-1.5,0.2s-1.5,0.1-1.5,0.2
	s-0.6,0.2-1.3,0.2c-0.8,0-1.3,0.1-1.3,0.2c0,0.1-0.6,0.2-1.3,0.2c-0.8,0-1.3,0.1-1.3,0.2s-0.6,0.2-1.3,0.2s-1.3,0.1-1.3,0.2
	c0,0.1-0.6,0.2-1.3,0.2c-0.7,0-1.4,0.1-1.4,0.2c-0.1,0.1-0.7,0.2-1.3,0.2c-0.7,0-1.2,0.1-1.2,0.2c0,0.1-0.5,0.2-1.2,0.2
	c-0.7,0-1.2,0.1-1.2,0.2c0,0.1-0.5,0.2-1.2,0.2c-0.6,0-1.2,0.1-1.3,0.2c-0.1,0.1-0.6,0.2-1.2,0.2c-0.6,0-1.1,0.1-1.1,0.2
	c0,0.1-0.5,0.2-1.2,0.2c-0.7,0-1.2,0.1-1.2,0.2c0,0.1-0.4,0.2-1,0.2s-1,0.1-1,0.2c0,0.1-0.4,0.2-1,0.2c-0.5,0-1,0.1-1.1,0.2
	c-0.1,0.1-0.5,0.2-1.1,0.2c-0.5,0-1,0.1-1.1,0.2c-0.1,0.1-0.5,0.2-0.9,0.2c-0.5,0-0.8,0.1-0.8,0.2s-0.4,0.2-1,0.2s-1,0.1-1,0.2
	c0,0.1-0.4,0.2-0.9,0.2c-0.5,0-1,0.1-1,0.2c-0.1,0.1-0.4,0.2-0.8,0.2S61,9.6,60.9,9.7c-0.1,0.1-0.4,0.2-0.8,0.2
	c-0.4,0-0.8,0.1-0.8,0.2s-0.4,0.2-0.8,0.2s-0.7,0.1-0.7,0.2c0,0.1-0.3,0.2-0.7,0.2c-0.4,0-0.7,0.1-0.8,0.2c-0.1,0.1-0.4,0.2-0.8,0.2
	S55,10.9,54.9,11c-0.1,0.1-0.3,0.2-0.6,0.2c-0.3,0-0.5,0.1-0.5,0.2c0,0.1-0.3,0.2-0.7,0.2c-0.4,0-0.7,0.1-0.7,0.2
	c0,0.1-0.2,0.2-0.4,0.2c-0.2,0-0.5,0.1-0.5,0.2c-0.1,0.1-0.3,0.2-0.6,0.2c-0.3,0-0.5,0.1-0.5,0.2c0,0.1-0.2,0.2-0.5,0.2
	s-0.5,0.1-0.5,0.2c0,0.1-0.2,0.2-0.5,0.2s-0.5,0.1-0.5,0.2s-0.2,0.2-0.4,0.2c-0.2,0-0.5,0.1-0.5,0.2c-0.1,0.1-0.2,0.2-0.4,0.2
	c-0.2,0-0.3,0.1-0.3,0.2c0,0.1-0.2,0.2-0.4,0.2c-0.2,0-0.5,0.1-0.5,0.2c-0.1,0.1-0.2,0.2-0.4,0.2c-0.2,0-0.3,0.1-0.3,0.2
	c0,0.1-0.2,0.2-0.3,0.2c-0.2,0-0.3,0.1-0.3,0.2c0,0.1-0.2,0.2-0.3,0.2c-0.2,0-0.3,0.1-0.3,0.2c0,0.1-0.2,0.2-0.3,0.2
	s-0.3,0.1-0.3,0.2c0,0.1-0.2,0.2-0.3,0.2c-0.2,0-0.3,0.1-0.3,0.2c0,0.1-0.2,0.2-0.3,0.2c-0.2,0-0.3,0.1-0.3,0.2s-0.1,0.2-0.2,0.2
	c-0.1,0-0.4,0.1-0.6,0.3c-0.2,0.2-0.5,0.3-0.6,0.3c-0.1,0-0.3,0.1-0.3,0.2s-0.1,0.2-0.2,0.2c-0.1,0-0.4,0.1-0.6,0.3
	c-0.2,0.2-0.4,0.3-0.5,0.3c-0.1,0-0.4,0.2-0.7,0.5c-0.3,0.3-0.6,0.5-0.7,0.5c-0.1,0-0.5,0.3-0.9,0.7c-0.4,0.4-0.8,0.7-0.8,0.7
	c-0.2,0-5.1,5-5.6,5.7c-0.2,0.3-0.6,0.8-0.9,1s-0.5,0.5-0.5,0.6s-0.2,0.4-0.5,0.7c-0.3,0.3-0.5,0.6-0.5,0.7c0,0.1-0.2,0.4-0.5,0.7
	c-0.3,0.3-0.5,0.6-0.5,0.7c0,0.1-0.2,0.4-0.5,0.7c-0.3,0.3-0.5,0.6-0.5,0.7c0,0.1-0.2,0.4-0.5,0.7c-0.3,0.3-0.5,0.6-0.5,0.7
	c0,0.1-0.1,0.3-0.3,0.4s-0.3,0.3-0.3,0.4s-0.2,0.4-0.5,0.7c-0.3,0.3-0.5,0.6-0.5,0.7c0,0.1-0.2,0.4-0.5,0.7
	c-0.3,0.3-0.5,0.6-0.5,0.7c0,0.1-0.2,0.4-0.5,0.7c-0.3,0.3-0.5,0.6-0.5,0.7c0,0.1-0.1,0.3-0.3,0.4c-0.2,0.1-0.3,0.3-0.3,0.4
	s-0.2,0.4-0.5,0.7c-0.3,0.3-0.5,0.6-0.5,0.6c0,0.1-0.2,0.4-0.5,0.7s-0.5,0.6-0.5,0.7c0,0.1-0.2,0.4-0.5,0.7
	c-0.3,0.3-0.5,0.6-0.5,0.7c0,0.1-0.1,0.3-0.3,0.4c-0.2,0.1-0.3,0.3-0.3,0.4s-0.2,0.4-0.5,0.7c-0.3,0.3-0.5,0.6-0.5,0.6
	c0,0.1-0.2,0.4-0.5,0.7c-0.3,0.3-0.5,0.7-0.5,0.8c0,0.1-0.2,0.3-0.3,0.4s-0.3,0.3-0.3,0.4c0,0.1-0.2,0.4-0.5,0.7
	c-0.3,0.3-0.5,0.6-0.5,0.7c0,0.1-0.2,0.4-0.5,0.7c-0.3,0.3-0.5,0.6-0.5,0.7c0,0.1-0.2,0.4-0.5,0.7c-0.3,0.3-0.5,0.6-0.5,0.7
	S11,51.9,10.8,52c-0.2,0.1-0.3,0.3-0.3,0.4s-0.3,0.5-0.7,0.9c-0.4,0.4-0.7,0.8-0.7,0.9S9,54.5,8.8,54.7c-0.2,0.1-0.3,0.3-0.3,0.4
	c0,0.1-0.2,0.4-0.5,0.7c-0.3,0.3-0.5,0.6-0.5,0.7S7.3,56.9,7,57.2c-0.3,0.3-0.5,0.6-0.5,0.7c0,0.1-0.2,0.4-0.5,0.7
	c-0.3,0.3-0.5,0.6-0.5,0.7s-0.2,0.3-0.3,0.4C5,59.8,4.8,60,4.8,60.1c0,0.1-0.2,0.4-0.5,0.8c-0.3,0.3-0.5,0.7-0.5,0.8
	c0,0.1-0.2,0.3-0.3,0.4s-0.3,0.4-0.3,0.5c0,0.2-0.1,0.3-0.2,0.3s-0.2,0.1-0.2,0.3c0,0.1-0.1,0.4-0.3,0.6s-0.3,0.5-0.3,0.6
	c0,0.1-0.2,0.5-0.3,0.8c-0.2,0.3-0.3,0.7-0.3,0.8c0,0.1-0.1,0.2-0.2,0.2c-0.1,0-0.2,0.2-0.2,0.5S1.1,67.2,1,67.2s-0.2,0.2-0.2,0.5
	s-0.1,0.5-0.2,0.5c-0.1,0-0.2,0.3-0.2,0.6s-0.1,0.7-0.2,0.8c-0.3,0.3-0.3,13,0,13.2c0.1,0,0.2,0.3,0.2,0.7c0,0.4,0.1,0.7,0.2,0.7
	c0.1,0,0.2,0.2,0.2,0.5s0.1,0.5,0.2,0.5s0.2,0.2,0.2,0.5s0.1,0.5,0.2,0.5c0.1,0,0.2,0.2,0.2,0.3s0.1,0.3,0.2,0.3
	c0.1,0,0.2,0.2,0.2,0.3c0,0.2,0.1,0.3,0.2,0.3s0.2,0.2,0.2,0.3c0,0.2,0.1,0.3,0.2,0.3c0.1,0,0.2,0.2,0.2,0.3s0.1,0.3,0.2,0.3
	c0.1,0,0.2,0.1,0.2,0.2c0,0.1,0.2,0.4,0.3,0.6c0.2,0.2,0.3,0.4,0.3,0.5c0,0.1,0.2,0.4,0.5,0.7c0.3,0.3,0.5,0.7,0.5,0.8
	c0,0.1,0.1,0.2,0.2,0.2c0.1,0,0.2,0.1,0.2,0.2c0,0.1,0.1,0.4,0.3,0.6c0.2,0.2,0.3,0.4,0.3,0.5c0,0.1,0.2,0.4,0.5,0.7
	c0.3,0.3,0.5,0.7,0.5,0.8c0,0.1,0.1,0.2,0.1,0.2c0.1,0,0.2,0.2,0.4,0.5c0.1,0.3,0.4,0.6,0.5,0.8c0.2,0.2,0.3,0.4,0.3,0.5
	c0,0.1,0.1,0.2,0.1,0.2s0.2,0.2,0.4,0.5s0.4,0.6,0.5,0.8s0.3,0.4,0.3,0.5c0,0.1,0.1,0.2,0.1,0.2c0.1,0,0.2,0.2,0.4,0.5
	s0.4,0.6,0.5,0.8c0.2,0.2,0.3,0.4,0.3,0.5c0,0.1,0.1,0.2,0.1,0.2c0.1,0,0.2,0.2,0.4,0.5c0.1,0.3,0.4,0.6,0.5,0.8
	c0.2,0.2,0.3,0.4,0.3,0.5c0,0.1,0.1,0.2,0.1,0.2s0.2,0.2,0.4,0.5s0.4,0.6,0.5,0.8s0.3,0.4,0.3,0.5c0,0.1,0.1,0.2,0.1,0.2
	c0.1,0,0.2,0.2,0.4,0.5s0.4,0.6,0.5,0.8c0.2,0.2,0.3,0.4,0.3,0.5c0,0.1,0.1,0.2,0.1,0.2c0.1,0,0.2,0.2,0.4,0.5
	c0.1,0.3,0.4,0.6,0.5,0.8c0.2,0.2,0.3,0.4,0.3,0.5c0,0.1,0.1,0.3,0.3,0.5c0.2,0.2,0.3,0.5,0.3,0.6c0,0.1,0.1,0.2,0.2,0.2
	c0.1,0,0.2,0.1,0.2,0.2c0,0.1,0.1,0.4,0.3,0.5c0.2,0.2,0.4,0.5,0.5,0.8c0.1,0.3,0.3,0.5,0.4,0.5s0.1,0.1,0.1,0.2
	c0,0.1,0.1,0.4,0.3,0.5c0.2,0.2,0.4,0.5,0.5,0.8c0.1,0.3,0.3,0.5,0.4,0.5c0.1,0,0.1,0.1,0.1,0.2c0,0.1,0.1,0.4,0.3,0.5
	c0.2,0.2,0.4,0.5,0.5,0.8c0.1,0.3,0.3,0.5,0.4,0.5s0.1,0.1,0.1,0.2c0,0.1,0.1,0.4,0.3,0.5c0.2,0.2,0.4,0.5,0.5,0.8
	c0.1,0.3,0.3,0.5,0.4,0.5s0.1,0.1,0.1,0.2c0,0.1,0.1,0.4,0.3,0.5c0.2,0.2,0.4,0.5,0.5,0.8c0.1,0.3,0.3,0.5,0.4,0.5
	c0.1,0,0.1,0.1,0.1,0.2c0,0.1,0.1,0.4,0.3,0.5c0.2,0.2,0.4,0.5,0.5,0.8c0.1,0.3,0.3,0.5,0.4,0.5s0.1,0.1,0.1,0.2
	c0,0.1,0.2,0.5,0.5,0.8c0.3,0.3,0.5,0.7,0.5,0.8c0,0.1,0.1,0.3,0.3,0.4c0.2,0.1,0.3,0.3,0.3,0.4c0,0.1,0.3,0.5,0.7,0.9
	c0.4,0.4,0.7,0.8,0.7,0.8c0,0.2,5.4,5.7,5.6,5.7c0.1,0,0.5,0.3,0.9,0.7c0.4,0.4,0.8,0.7,0.9,0.7c0.1,0,0.3,0.2,0.5,0.3
	c0.2,0.2,0.5,0.3,0.6,0.3c0.1,0,0.2,0.1,0.2,0.2s0.1,0.2,0.2,0.2c0.1,0,0.4,0.1,0.6,0.3c0.2,0.2,0.5,0.3,0.6,0.3
	c0.1,0,0.3,0.1,0.3,0.2s0.2,0.2,0.3,0.2s0.3,0.1,0.3,0.2c0,0.1,0.2,0.2,0.3,0.2c0.2,0,0.3,0.1,0.3,0.2c0,0.1,0.2,0.2,0.3,0.2
	c0.2,0,0.3,0.1,0.3,0.2s0.2,0.2,0.3,0.2s0.3,0.1,0.3,0.2c0,0.1,0.2,0.2,0.3,0.2c0.2,0,0.3,0.1,0.3,0.2c0,0.1,0.2,0.2,0.5,0.2
	s0.5,0.1,0.5,0.2s0.2,0.2,0.3,0.2c0.2,0,0.3,0.1,0.3,0.2c0,0.1,0.2,0.2,0.5,0.2s0.5,0.1,0.5,0.2c0,0.1,0.2,0.2,0.5,0.2
	s0.5,0.1,0.5,0.2s0.2,0.2,0.5,0.2c0.3,0,0.5,0.1,0.6,0.2c0.1,0.1,0.3,0.2,0.5,0.2s0.4,0.1,0.5,0.2c0.1,0.1,0.4,0.2,0.7,0.2
	c0.3,0,0.6,0.1,0.6,0.2s0.3,0.2,0.6,0.2c0.3,0,0.6,0.1,0.7,0.2c0.1,0.1,0.4,0.2,0.8,0.2s0.7,0.1,0.7,0.2c0,0.1,0.3,0.2,0.7,0.2
	c0.4,0,0.7,0.1,0.7,0.2s0.4,0.2,0.8,0.2c0.5,0,0.8,0.1,0.8,0.2c0,0.1,0.4,0.2,0.8,0.2s0.8,0.1,0.8,0.2c0,0.1,0.3,0.2,0.7,0.2
	c0.4,0,0.8,0.1,0.8,0.2c0.1,0.1,0.5,0.2,0.9,0.2c0.4,0,0.9,0.1,0.9,0.2c0.1,0.1,0.5,0.2,0.9,0.2c0.4,0,0.9,0.1,0.9,0.2
	c0.1,0.1,0.5,0.2,0.9,0.2s0.9,0.1,0.9,0.2c0.1,0.1,0.5,0.2,1,0.2c0.5,0,0.9,0.1,1,0.2c0.1,0.1,0.6,0.2,1.2,0.2
	c0.6,0,1.1,0.1,1.1,0.2c0,0.1,0.4,0.2,1,0.2c0.6,0,1,0.1,1,0.2c0,0.1,0.5,0.2,1.2,0.2c0.7,0,1.2,0.1,1.2,0.2c0,0.1,0.5,0.2,1.1,0.2
	c0.6,0,1.1,0.1,1.2,0.2c0.1,0.1,0.5,0.2,1.1,0.2c0.5,0,1,0.1,1.1,0.2c0.1,0.1,0.7,0.2,1.3,0.2c0.7,0,1.2,0.1,1.2,0.2
	c0,0.1,0.5,0.2,1.2,0.2c0.6,0,1.2,0.1,1.3,0.2c0.1,0.1,0.7,0.2,1.3,0.2s1.3,0.1,1.3,0.2c0.1,0.1,0.7,0.2,1.3,0.2
	c0.7,0,1.3,0.1,1.3,0.2c0.1,0.1,0.7,0.2,1.3,0.2c0.7,0,1.3,0.1,1.3,0.2c0.1,0.1,0.7,0.2,1.3,0.2s1.3,0.1,1.3,0.2
	c0.1,0.1,0.7,0.2,1.5,0.2c0.8,0,1.4,0.1,1.4,0.2c0,0.1,0.6,0.2,1.5,0.2s1.5,0.1,1.5,0.2c0,0.1,0.6,0.2,1.5,0.2s1.5,0.1,1.5,0.2
	s0.6,0.2,1.5,0.2s1.5,0.1,1.5,0.2c0,0.1,0.6,0.2,1.5,0.2c0.8,0,1.5,0.1,1.6,0.2c0.1,0.1,0.8,0.2,1.7,0.2s1.6,0.1,1.7,0.2
	s0.8,0.2,1.7,0.2c0.9,0,1.6,0.1,1.6,0.2c0,0.1,0.7,0.2,1.8,0.2c1,0,1.9,0.1,1.9,0.2c0.1,0.1,0.9,0.2,1.8,0.2s1.8,0.1,1.8,0.2
	c0.1,0.1,1,0.2,2.2,0.2s2.1,0.1,2.2,0.2c0.1,0.1,1,0.2,2.2,0.2c1.2,0,2.1,0.1,2.2,0.2s1,0.2,2.3,0.2c1.3,0,2.3,0.1,2.3,0.2
	c0.1,0.1,1.2,0.2,2.8,0.2s2.8,0.1,2.8,0.2c0.1,0.1,1.2,0.2,3,0.2c1.8,0,2.9,0.1,3,0.2c0.1,0.1,1.5,0.2,3.7,0.2s3.6,0.1,3.7,0.2
	c0.1,0.1,1.7,0.2,4.5,0.2c2.8,0,4.4,0.1,4.5,0.2c0.1,0.1,2.4,0.2,6.5,0.2c4.1,0,6.4,0.1,6.5,0.2c0.1,0.2,44.4,0.2,44.5,0
	c0.1-0.1,2.4-0.2,6.6-0.2c4.2,0,6.5-0.1,6.5-0.2c0-0.1,1.6-0.2,4.6-0.2c2.9,0,4.6-0.1,4.7-0.2c0.1-0.1,1.5-0.2,3.8-0.2
	c2.3,0,3.8-0.1,3.8-0.2c0.1-0.1,1.2-0.2,2.9-0.2c1.7,0,2.9-0.1,2.9-0.2c0.1-0.1,1.2-0.2,3-0.2s2.9-0.1,3-0.2
	c0.1-0.1,1.1-0.2,2.4-0.2c1.4,0,2.4-0.1,2.4-0.2c0.1-0.1,1.1-0.2,2.4-0.2c1.4,0,2.3-0.1,2.3-0.2c0-0.1,0.8-0.2,2.1-0.2
	c1.2,0,2.1-0.1,2.2-0.2c0.1-0.1,0.9-0.2,2-0.2c1.1,0,1.9-0.1,2-0.2c0.1-0.1,0.9-0.2,1.9-0.2s1.9-0.1,1.9-0.2
	c0.1-0.1,0.8-0.2,1.8-0.2c0.9,0,1.7-0.1,1.8-0.2c0.1-0.1,0.8-0.2,1.8-0.2c0.9,0,1.7-0.1,1.8-0.2c0.1-0.1,0.8-0.2,1.6-0.2
	s1.5-0.1,1.6-0.2c0.1-0.1,0.7-0.2,1.5-0.2c0.8,0,1.4-0.1,1.5-0.2c0.1-0.1,0.7-0.2,1.5-0.2c0.8,0,1.4-0.1,1.5-0.2
	c0.1-0.1,0.7-0.2,1.4-0.2s1.4-0.1,1.4-0.2c0.1-0.1,0.7-0.2,1.4-0.2c0.7,0,1.4-0.1,1.4-0.2s0.7-0.2,1.4-0.2c0.8,0,1.3-0.1,1.3-0.2
	s0.6-0.2,1.3-0.2c0.7,0,1.4-0.1,1.4-0.2c0.1-0.1,0.7-0.2,1.3-0.2c0.7,0,1.3-0.1,1.3-0.2c0.1-0.1,0.7-0.2,1.3-0.2
	c0.7,0,1.2-0.1,1.2-0.2c0-0.1,0.5-0.2,1.2-0.2c0.6,0,1.2-0.1,1.3-0.2c0.1-0.1,0.6-0.2,1.2-0.2c0.6,0,1.1-0.1,1.2-0.2
	s0.6-0.2,1.2-0.2c0.6,0,1.1-0.1,1.2-0.2c0.1-0.1,0.6-0.2,1.2-0.2c0.6,0,1.1-0.1,1.1-0.2c0-0.1,0.5-0.2,1.1-0.2
	c0.6,0,1.1-0.1,1.2-0.2c0.1-0.1,0.5-0.2,1-0.2c0.5,0,0.9-0.1,1-0.2c0.1-0.1,0.5-0.2,1.1-0.2c0.5,0,1-0.1,1-0.2
	c0-0.1,0.4-0.2,0.8-0.2s0.9-0.1,0.9-0.2c0.1-0.1,0.5-0.2,1.1-0.2s1-0.1,1.1-0.2c0.1-0.1,0.5-0.2,0.9-0.2s0.8-0.1,0.8-0.2
	c0-0.1,0.4-0.2,0.8-0.2c0.5,0,0.8-0.1,0.8-0.2s0.4-0.2,0.8-0.2c0.5,0,0.8-0.1,0.8-0.2c0-0.1,0.4-0.2,0.8-0.2s0.8-0.1,0.8-0.2
	c0-0.1,0.3-0.2,0.7-0.2s0.7-0.1,0.7-0.2s0.3-0.2,0.7-0.2c0.4,0,0.7-0.1,0.8-0.2c0.1-0.1,0.4-0.2,0.7-0.2c0.3,0,0.6-0.1,0.6-0.2
	c0-0.1,0.3-0.2,0.7-0.2s0.7-0.1,0.7-0.2s0.2-0.2,0.5-0.2s0.5-0.1,0.5-0.2c0-0.1,0.2-0.2,0.5-0.2c0.3,0,0.5-0.1,0.6-0.2
	c0.1-0.1,0.3-0.2,0.5-0.2s0.4-0.1,0.5-0.2s0.3-0.2,0.5-0.2s0.4-0.1,0.4-0.2c0-0.1,0.2-0.2,0.5-0.2s0.5-0.1,0.5-0.2
	c0-0.1,0.2-0.2,0.4-0.2c0.2,0,0.5-0.1,0.5-0.2c0.1-0.1,0.2-0.2,0.4-0.2c0.2,0,0.3-0.1,0.3-0.2c0-0.1,0.1-0.2,0.3-0.2
	c0.2,0,0.3-0.1,0.3-0.2c0-0.1,0.1-0.2,0.3-0.2c0.1,0,0.4-0.1,0.5-0.1c0.3-0.1,2.1-1.1,2.8-1.4c0.2-0.1,0.4-0.2,0.4-0.3
	c0-0.1,0.2-0.1,0.3-0.1c0.2,0,0.3-0.1,0.3-0.2s0.1-0.2,0.2-0.2s0.4-0.1,0.6-0.3c0.2-0.2,0.5-0.3,0.6-0.3c0.1,0,0.3-0.2,0.5-0.3
	c0.1-0.2,0.3-0.3,0.4-0.3c0.1,0,0.4-0.2,0.7-0.5c0.3-0.3,0.6-0.5,0.7-0.5c0.1,0,0.4-0.2,0.6-0.5c0.2-0.3,0.7-0.6,1-0.9
	c0.7-0.5,5-4.8,5-5c0-0.1,0.3-0.5,0.7-0.8c0.4-0.4,0.7-0.7,0.7-0.8c0-0.1,0.3-0.5,0.7-0.9c0.4-0.4,0.7-0.8,0.7-0.9
	c0-0.1,0.2-0.3,0.3-0.4c0.2-0.1,0.3-0.3,0.3-0.4c0-0.1,0.2-0.4,0.5-0.7s0.5-0.6,0.5-0.7s0.2-0.4,0.5-0.7s0.5-0.6,0.5-0.7
	c0-0.1,0.2-0.4,0.5-0.7s0.5-0.6,0.5-0.7c0-0.1,0.1-0.3,0.3-0.4c0.2-0.1,0.3-0.3,0.3-0.4c0-0.1,0.2-0.4,0.5-0.7s0.5-0.6,0.5-0.7
	s0.2-0.4,0.5-0.7s0.5-0.6,0.5-0.7c0-0.1,0.2-0.4,0.5-0.7s0.5-0.6,0.5-0.7s0.1-0.2,0.1-0.2c0.1,0,0.3-0.2,0.4-0.5
	c0.2-0.3,0.5-0.7,0.7-0.9c0.2-0.2,0.4-0.5,0.4-0.6s0.2-0.4,0.5-0.7s0.5-0.6,0.5-0.7c0-0.1,0.2-0.4,0.5-0.7s0.5-0.6,0.5-0.7
	s0.1-0.2,0.1-0.2s0.3-0.2,0.4-0.5c0.2-0.3,0.5-0.7,0.7-0.9c0.2-0.2,0.4-0.5,0.4-0.6c0-0.1,0.2-0.4,0.5-0.7c0.3-0.3,0.5-0.6,0.5-0.7
	c0-0.1,0.2-0.4,0.5-0.7s0.5-0.6,0.5-0.7s0.1-0.2,0.1-0.2c0.1,0,0.3-0.2,0.4-0.5c0.2-0.3,0.5-0.7,0.7-0.9c0.2-0.2,0.4-0.5,0.4-0.6
	c0-0.1,0.2-0.4,0.5-0.7c0.3-0.3,0.5-0.6,0.5-0.7c0-0.1,0.2-0.4,0.5-0.7s0.5-0.6,0.5-0.7s0.2-0.4,0.5-0.7c0.3-0.3,0.5-0.6,0.5-0.7
	c0-0.1,0.2-0.3,0.3-0.4c0.2-0.1,0.3-0.3,0.3-0.4c0-0.1,0.2-0.4,0.5-0.7c0.3-0.3,0.5-0.6,0.5-0.7c0-0.1,0.2-0.4,0.5-0.7
	s0.5-0.6,0.5-0.7c0-0.1,0.1-0.3,0.3-0.4c0.2-0.1,0.3-0.3,0.3-0.4c0-0.1,0.2-0.4,0.5-0.7s0.5-0.6,0.5-0.7c0-0.1,0.1-0.3,0.3-0.5
	c0.2-0.1,0.4-0.5,0.5-0.7c0.1-0.3,0.3-0.5,0.4-0.5c0.1,0,0.1-0.2,0.1-0.3s0.1-0.3,0.2-0.3c0.1,0,0.2-0.2,0.2-0.3
	c0-0.2,0.1-0.3,0.2-0.3c0.1,0,0.2-0.2,0.2-0.3c0-0.2,0.1-0.3,0.2-0.3s0.2-0.2,0.2-0.3s0.1-0.3,0.2-0.3c0.1,0,0.2-0.2,0.2-0.4
	s0.1-0.5,0.2-0.5c0.1-0.1,0.2-0.2,0.2-0.4c0-0.2,0.1-0.3,0.2-0.3s0.2-0.3,0.2-0.6c0-0.3,0.1-0.6,0.2-0.7c0.1-0.1,0.2-0.3,0.2-0.6
	c0-0.3,0.1-0.6,0.2-0.7c0.2-0.2,0.2-1.7,0.2-6.4c0-4.8,0-6.3-0.2-6.4c-0.1-0.1-0.2-0.5-0.2-0.8c0-0.3-0.1-0.6-0.2-0.6
	c-0.1,0-0.2-0.2-0.2-0.5c0-0.3-0.1-0.5-0.2-0.6c-0.1-0.1-0.2-0.3-0.2-0.5s-0.1-0.4-0.2-0.4c-0.1,0-0.2-0.1-0.2-0.3
	c0-0.4-1-2.4-1.2-2.4c-0.1,0-0.1-0.2-0.1-0.3s-0.1-0.3-0.1-0.3c-0.1,0-0.2-0.2-0.4-0.5c-0.1-0.3-0.4-0.6-0.5-0.8
	c-0.2-0.2-0.3-0.4-0.3-0.5c0-0.1-0.1-0.2-0.1-0.2c-0.1,0-0.2-0.2-0.4-0.5s-0.4-0.6-0.5-0.8c-0.2-0.2-0.3-0.4-0.3-0.5
	c0-0.1-0.1-0.2-0.1-0.2c-0.1,0-0.2-0.2-0.4-0.5c-0.1-0.3-0.4-0.6-0.5-0.8c-0.2-0.2-0.3-0.4-0.3-0.5c0-0.1-0.1-0.2-0.1-0.2
	c-0.1,0-0.2-0.2-0.4-0.5c-0.1-0.3-0.4-0.6-0.5-0.8c-0.2-0.2-0.3-0.4-0.3-0.5c0-0.1-0.1-0.2-0.1-0.2c-0.1,0-0.2-0.2-0.4-0.5
	s-0.4-0.6-0.5-0.8c-0.2-0.2-0.3-0.4-0.3-0.5c0-0.1-0.1-0.2-0.1-0.2c-0.1,0-0.2-0.2-0.4-0.5c-0.1-0.3-0.4-0.6-0.5-0.8
	c-0.2-0.2-0.3-0.4-0.3-0.5c0-0.1-0.1-0.2-0.1-0.2c-0.1,0-0.2-0.2-0.4-0.5c-0.1-0.3-0.4-0.6-0.5-0.8c-0.2-0.2-0.3-0.4-0.3-0.5
	c0-0.1-0.1-0.2-0.1-0.2c-0.1,0-0.2-0.2-0.4-0.5s-0.4-0.6-0.5-0.8c-0.2-0.2-0.3-0.4-0.3-0.5c0-0.1-0.1-0.2-0.1-0.2
	c-0.1,0-0.2-0.2-0.4-0.5c-0.1-0.3-0.4-0.6-0.5-0.7c-0.2-0.1-0.3-0.4-0.3-0.5c0-0.1-0.1-0.3-0.3-0.5c-0.2-0.1-0.3-0.4-0.3-0.5
	s-0.1-0.4-0.3-0.5c-0.2-0.1-0.3-0.4-0.3-0.5s-0.1-0.4-0.3-0.5s-0.3-0.4-0.3-0.5s-0.1-0.4-0.3-0.5c-0.2-0.1-0.3-0.4-0.3-0.5
	s-0.1-0.4-0.3-0.5c-0.2-0.1-0.3-0.3-0.3-0.4c0-0.1-0.1-0.3-0.3-0.5c-0.2-0.2-0.4-0.5-0.5-0.8c-0.1-0.3-0.3-0.5-0.4-0.5
	c-0.1,0-0.1-0.1-0.1-0.3c0-0.2-0.1-0.4-0.3-0.5c-0.2-0.1-0.3-0.4-0.3-0.5s-0.1-0.4-0.3-0.5s-0.3-0.4-0.3-0.5s-0.1-0.4-0.3-0.5
	c-0.2-0.1-0.3-0.4-0.3-0.5s-0.1-0.4-0.3-0.5c-0.2-0.1-0.3-0.4-0.3-0.5s-0.1-0.4-0.3-0.5s-0.3-0.4-0.3-0.5s-0.1-0.4-0.3-0.5
	c-0.2-0.1-0.3-0.3-0.3-0.4c0-0.1-0.1-0.3-0.3-0.5c-0.2-0.2-0.4-0.5-0.5-0.8c-0.1-0.3-0.3-0.5-0.4-0.5c-0.1,0-0.1-0.1-0.1-0.3
	s-0.1-0.4-0.3-0.5c-0.2-0.1-0.3-0.3-0.3-0.4c0-0.1-0.2-0.4-0.5-0.8c-0.3-0.3-0.5-0.6-0.5-0.7c0-0.1-0.2-0.4-0.5-0.6
	s-0.5-0.5-0.5-0.6c0-0.4-4.9-5.3-6.3-6.4c-0.3-0.2-0.7-0.5-0.8-0.6c-0.1-0.1-0.4-0.3-0.7-0.5c-0.3-0.2-0.5-0.4-0.5-0.4
	c0-0.1-0.1-0.1-0.2-0.1s-0.4-0.1-0.6-0.3c-0.2-0.2-0.5-0.3-0.6-0.3s-0.3-0.1-0.3-0.1c-0.1-0.2-1-0.7-1.3-0.8
	c-0.2-0.1-0.3-0.2-0.3-0.2s-0.1-0.1-0.3-0.1s-0.3-0.1-0.3-0.2c0-0.1-0.1-0.2-0.3-0.2c-0.2,0-0.6-0.1-0.9-0.3
	c-0.3-0.2-0.7-0.3-0.8-0.3c-0.1,0-0.2-0.1-0.2-0.2c0-0.1-0.1-0.2-0.3-0.2c-0.2,0-0.4-0.1-0.4-0.2c-0.1-0.1-0.3-0.2-0.5-0.2
	c-0.2,0-0.4-0.1-0.4-0.2s-0.2-0.2-0.5-0.2s-0.5-0.1-0.5-0.2c0-0.1-0.2-0.2-0.5-0.2s-0.5-0.1-0.5-0.2c0-0.1-0.2-0.2-0.5-0.2
	c-0.3,0-0.5-0.1-0.6-0.2c-0.1-0.1-0.4-0.2-0.7-0.2c-0.3,0-0.6-0.1-0.6-0.2c0-0.1-0.3-0.2-0.6-0.2c-0.3,0-0.6-0.1-0.7-0.2
	c-0.1-0.1-0.4-0.2-0.7-0.2s-0.6-0.1-0.7-0.2s-0.4-0.2-0.8-0.2s-0.7-0.1-0.8-0.2c-0.1-0.1-0.4-0.2-0.7-0.2s-0.6-0.1-0.7-0.2
	c-0.1-0.1-0.4-0.2-0.8-0.2c-0.4,0-0.8-0.1-0.8-0.2s-0.4-0.2-0.8-0.2c-0.4,0-0.8-0.1-0.8-0.2c-0.1-0.1-0.4-0.2-0.8-0.2
	s-0.8-0.1-0.8-0.2c-0.1-0.1-0.5-0.2-1-0.2c-0.5,0-0.9-0.1-0.9-0.2c0-0.1-0.4-0.2-1-0.2s-1-0.1-1-0.2s-0.4-0.2-0.9-0.2
	c-0.5,0-1-0.1-1-0.2c-0.1-0.1-0.5-0.2-1.1-0.2c-0.5,0-1-0.1-1-0.2s-0.4-0.2-1-0.2c-0.5,0-1-0.1-1.1-0.2c-0.1-0.1-0.5-0.2-1.1-0.2
	c-0.5,0-1-0.1-1.1-0.2c-0.1-0.1-0.6-0.2-1.2-0.2c-0.6,0-1.1-0.1-1.2-0.2c-0.1-0.1-0.5-0.2-1.1-0.2c-0.5,0-1-0.1-1.1-0.2
	c-0.1-0.1-0.6-0.2-1.3-0.2s-1.2-0.1-1.3-0.2c-0.1-0.1-0.6-0.2-1.3-0.2s-1.2-0.1-1.3-0.2s-0.6-0.2-1.3-0.2s-1.2-0.1-1.3-0.2
	c-0.1-0.1-0.7-0.2-1.4-0.2c-0.8,0-1.3-0.1-1.3-0.2c0-0.1-0.6-0.2-1.3-0.2c-0.8,0-1.3-0.1-1.3-0.2s-0.6-0.2-1.3-0.2
	c-0.7,0-1.4-0.1-1.4-0.2c-0.1-0.1-0.7-0.2-1.3-0.2s-1.3-0.1-1.3-0.2c-0.1-0.1-0.7-0.2-1.5-0.2c-0.8,0-1.4-0.1-1.5-0.2
	c-0.1-0.1-0.7-0.2-1.5-0.2c-0.8,0-1.4-0.1-1.5-0.2c-0.1-0.1-0.7-0.2-1.5-0.2c-0.8,0-1.4-0.1-1.5-0.2c-0.1-0.1-0.8-0.2-1.6-0.2
	c-0.8,0-1.5-0.1-1.6-0.2s-0.8-0.2-1.6-0.2c-0.8,0-1.5-0.1-1.6-0.2c-0.1-0.1-0.8-0.2-1.7-0.2c-0.9,0-1.6-0.1-1.7-0.2
	c-0.1-0.1-0.8-0.2-1.8-0.2s-1.7-0.1-1.8-0.2c-0.1-0.1-0.9-0.2-2-0.2s-1.9-0.1-2-0.2c-0.1-0.1-0.9-0.2-1.8-0.2c-1,0-1.8-0.1-1.8-0.2
	c-0.1-0.1-1-0.2-2.3-0.2c-1.3,0-2.2-0.1-2.3-0.2c-0.1-0.1-1-0.2-2.3-0.2s-2.3-0.1-2.3-0.2c-0.1-0.1-1.1-0.2-2.7-0.2
	c-1.6,0-2.6-0.1-2.6-0.2c0-0.1-1.1-0.2-2.9-0.2c-1.8,0-2.9-0.1-3-0.2c-0.1-0.1-1.4-0.2-3.5-0.2s-3.4-0.1-3.5-0.2
	c-0.1-0.1-1.6-0.2-4.1-0.2c-2.9,0-4-0.1-4.2-0.2C240.8-0.9,185.4-1,170.3-0.9 M216.5,14c8.5,0.2,14.3,0.4,24.9,1
	c8.6,0.5,23.4,1.6,31.2,2.3c0.9,0.1,2.5,0.2,3.5,0.3c6.6,0.6,12.2,1.3,17.5,2c3.4,0.5,7.2,1,8.9,1.3c0.5,0.1,1.4,0.2,2,0.3
	c2.5,0.4,3,0.5,3.8,0.7c0.5,0.1,1.1,0.2,1.5,0.3c0.4,0.1,1.1,0.2,1.6,0.4c2.7,0.6,5.8,1.4,6.8,1.8c0.2,0.1,0.7,0.3,1.2,0.4
	c0.5,0.1,1.1,0.4,1.3,0.5c0.3,0.1,0.8,0.3,1.2,0.5c3.7,1.6,7.1,3.9,10.1,6.9c3.2,3.2,4.5,4.9,9.1,11.8c1.7,2.5,4.5,6.7,6.3,9.3
	c3.9,5.8,4.5,6.7,5.8,9.4c1,2.1,1.1,2.3,1.5,3.3c0.1,0.3,0.3,0.7,0.3,0.9c0.3,0.7,0.5,1.6,1,4c0.3,1.4,0.3,6.5,0,7.8
	c-1,4.1-2.8,7.7-6.7,13.1c-0.6,0.9-1.6,2.1-2.1,2.8c-0.5,0.7-1.3,1.8-1.8,2.5c-0.5,0.7-1.5,2-2.1,2.9c-0.6,0.9-1.4,2-1.8,2.4
	c-0.3,0.5-1.2,1.6-1.8,2.5c-0.7,0.9-1.5,2.1-1.9,2.5c-3.1,4.2-4.5,5.9-7.2,8.6c-5.9,6-11.7,9.1-20.9,11.4c-0.6,0.1-0.9,0.2-2.9,0.7
	c-1.1,0.2-3.7,0.7-5.3,1c-0.6,0.1-1.5,0.2-2,0.3c-4.3,0.7-12.3,1.7-18.6,2.3c-1,0.1-2.5,0.2-3.3,0.3c-0.8,0.1-2.4,0.2-3.6,0.3
	c-1.1,0.1-2.9,0.2-3.9,0.3c-3.1,0.3-9,0.7-12.8,1c-10.9,0.8-21.5,1.3-35.9,1.9c-7.7,0.3-37.6,0.3-45.1,0c-9.7-0.4-15.8-0.7-21.3-1
	c-1.4-0.1-3.7-0.2-5.2-0.3c-1.4-0.1-3.6-0.2-4.9-0.3c-1.3-0.1-3.3-0.3-4.4-0.3c-4.7-0.4-7.7-0.6-11.8-1c-1-0.1-2.6-0.2-3.6-0.3
	c-3-0.3-5.1-0.5-6.7-0.7c-0.8-0.1-2.2-0.2-3-0.3c-2.2-0.2-4.1-0.5-5.7-0.7c-0.8-0.1-1.9-0.3-2.6-0.3c-0.6-0.1-1.7-0.2-2.3-0.3
	c-0.6-0.1-1.6-0.2-2.3-0.3c-1.2-0.2-2.4-0.4-4.3-0.7c-0.6-0.1-1.4-0.2-2-0.3c-0.5-0.1-1.1-0.2-1.4-0.2c-0.5-0.1-2.1-0.4-3.3-0.6
	c-2-0.4-6.2-1.4-7.5-1.8c-0.5-0.2-1.3-0.4-1.7-0.5c-0.4-0.1-0.8-0.3-0.9-0.3s-0.5-0.2-0.8-0.3c-0.9-0.3-1-0.3-3.5-1.5
	c-5.9-2.8-10.3-6.9-15.4-14.3c-2.3-3.4-12.4-18.4-13.2-19.7c-1-1.6-2.7-5.3-2.7-5.7c0-0.1-0.1-0.3-0.1-0.4c-0.2-0.2-0.9-2.7-1.4-4.8
	c-0.3-1.4-0.3-6.7,0-8c0.9-3.9,2.7-7.5,5.8-11.7c0.5-0.7,1.3-1.8,1.8-2.5c0.5-0.7,1.3-1.8,1.9-2.5c0.5-0.7,1.4-1.9,1.9-2.5
	c0.5-0.7,1.3-1.8,1.8-2.5c0.5-0.7,1.3-1.8,1.8-2.5c0.9-1.2,1.6-2.2,3.7-5c3.1-4.2,4.3-5.6,6.9-8.3c2.7-2.7,4.7-4.2,7.9-6.2
	c1-0.6,3.9-2.1,4.1-2.1c0.1,0,0.5-0.2,1-0.4c1.2-0.5,5.3-1.9,7.4-2.4c0.4-0.1,1-0.3,1.3-0.3c0.3-0.1,0.9-0.2,1.2-0.3
	c0.3-0.1,0.9-0.2,1.3-0.3c1.2-0.3,3.9-0.8,5.3-1c0.6-0.1,1.5-0.2,2.1-0.3c2.8-0.5,6.1-0.9,9.6-1.3c0.8-0.1,2-0.2,2.8-0.3
	c3.3-0.4,10.1-1.1,13.5-1.3c1.1-0.1,2.9-0.2,3.9-0.3c3.3-0.3,5.8-0.5,8.3-0.7c1.3-0.1,3.4-0.2,4.7-0.3c3.2-0.2,6.9-0.5,10.4-0.7
	c1.7-0.1,4.3-0.2,5.8-0.3c6.2-0.4,18.1-0.8,24.8-1C193.5,13.8,208.9,13.8,216.5,14"/>
<path id="path1" class="st1" d="M258.8,35.9c-0.7,0.1-1.9,0.2-3.6,0.6c-9.5,1.9-14.9,9.7-14.9,21.6c0,2.3,0.3,2.1-3.6,2.1h-3.1v6.6
	v6.6l3.1,0c1.7,0,3.2,0.1,3.3,0.1c0.2,0.1,0.2,4.4,0.3,20.1l0,20h7.6h7.6l0-20c0-15.7,0.1-20,0.3-20.1c0.1-0.1,2.4-0.1,5.2-0.1l5,0
	v-6.6v-6.6h-4.9c-6.1,0-5.4,0.3-5.4-2.3c0-4.9,1.7-7.5,5.7-8.4c0.9-0.2,2.1-0.2,6.5,0l0.8,0l0-6.5c0-3.6,0-6.6-0.1-6.7
	C268.3,36,262.1,35.7,258.8,35.9 M91.6,41.1c-0.1,0.1-0.1,16.4-0.1,36.3v36.2h8.1h8.1l0-16c0-18.4-0.1-17,1.7-14.3
	c0.6,1,4.2,6.4,7.9,12c3.7,5.6,7.9,12,9.4,14.2l2.7,4h9.4c5.2,0,9.4,0,9.4-0.1s-5.4-8.1-11.9-17.9c-6.6-9.8-11.9-17.9-11.9-18.1
	c0-0.2,1-1.6,2.2-3.3c1.2-1.7,3.3-4.5,4.6-6.2c2.8-3.8,7.3-9.9,10.3-14c1.2-1.7,3.4-4.7,4.9-6.7c1.5-2,3.1-4.2,3.6-4.9
	c0.5-0.7,0.9-1.3,0.9-1.4c0-0.1-4.1-0.1-9-0.1h-8.9l-0.3,0.4c-0.2,0.2-1.6,2.2-3.2,4.4c-1.6,2.2-3.2,4.4-3.5,4.8
	c-0.3,0.5-1.9,2.6-3.5,4.8c-1.6,2.2-3.4,4.8-4.1,5.7c-0.7,0.9-2.8,3.9-4.8,6.7c-5.5,7.6-5.5,7.6-5.8,7.4c0,0-0.1-7.7-0.1-17l-0.1-17
	l-7.9,0C95.3,41,91.7,41,91.6,41.1 M278.2,52.7c0,5.3-0.1,7.1-0.2,7.3c-0.1,0.1-1.1,0.2-3.2,0.2c-2.9,0-3,0-3.1,0.4
	c0,0.2-0.1,3.2,0,6.5l0,6.2l3,0c2.7,0,3.1,0.1,3.2,0.3c0.1,0.2,0.2,5,0.2,11.5c0.1,9.1,0.1,11.5,0.3,12.4c0.1,0.6,0.3,1.5,0.4,2
	c1.5,7.1,6.7,12.6,13.9,14.2c0.4,0.1,0.9,0.2,1.2,0.3c2.3,0.5,9.4,0.9,9.8,0.5c0.1-0.1,0.1-2.6,0.1-6.8l0-6.7l-0.8,0
	c-6-0.3-8.7-2.5-9.6-8c-0.1-0.8-0.2-3.9-0.1-10.4l0.1-9.3l5.6,0l5.6,0v-6.6v-6.6l-5.5,0c-3,0-5.6-0.1-5.7-0.1
	c-0.2-0.1-0.2-1.8-0.3-7.2l0-7.1l-7.5,0l-7.5,0V52.7 M197.6,58.9c-2.6,0.1-6.3,0.5-8.2,0.9l-0.9,0.2v7.2v7.2l0.5-0.1
	c0.3-0.1,0.9-0.2,1.3-0.3c0.7-0.2,1.3-0.3,3.7-0.7c10.5-1.8,17.4,0.7,18,6.3c0.1,1.6,0.1,1.8-0.5,1.7c-3.8-1-10.1-1.4-13-0.7
	c-0.4,0.1-1.2,0.3-1.6,0.4c-10.1,2.2-16,11.2-13.5,21c3,11.8,17.5,16.6,28.5,9.4c0.6-0.4,0.8-0.2,0.8,1.2v1.2l7.4,0l7.4,0V95.9
	c0-18.3,0-18.3-0.7-21.9c-1.6-8.1-7.1-13-16.3-14.5c-0.6-0.1-1.6-0.3-2.1-0.4C207.4,59,199.9,58.8,197.6,58.9 M152.7,60.5
	c0,0.1-0.1,12.1,0,26.6l0,26.4l7.7,0l7.7,0l0.1-13.4c0.1-14,0.1-13.7,0.8-15.5c1.8-4.6,5.6-7.7,11.5-9.2l1.5-0.4l0-7.3l0-7.3h-0.6
	c-4.4,0-10.5,4.3-12.6,8.8c-0.9,1.9-1,1.5-1-4.1l0-5l-7.5,0C154.4,60.3,152.8,60.4,152.7,60.5 M209.4,91.2c3,0.5,2.7,0,2.7,5.5
	c0,5.4,0.1,5.1-1.2,5.7c-7,3.2-13.7,0.7-13.7-4.9C197.3,92.4,202.1,89.9,209.4,91.2"/>
<path class="st1" d="M-83.3-101"/>
</svg>
