<svg id="Layer_1" data-name="Layer 1" xmlns="http://www.w3.org/2000/svg" width="110" height="92" viewBox="0 0 110 92">
  <defs>
    <style>
      .cls-1 {
        fill: #fff;
      }

      .cls-2 {
        fill: gray;
      }
    </style>
  </defs>
  <title>nasa</title>
  <g>
    <circle class="cls-1" cx="53.63" cy="46" r="33.35"/>
    <path class="cls-2" d="M61.54,38c-3.88,1.51-7.66,2.85-10.85,3.85-6.48,2-24.23,7.53-34.95,14.46l.9.35A65.37,65.37,0,0,1,31.5,50.54c4.43-1.4,18.78-4.76,25.27-6.58,2.2-.62,4.77-1.43,7.49-2.41-.63-.89-1.3-1.77-2-2.66Zm4.74,6.53c-.94.63-1.73,1.14-2.28,1.46-3.19,1.84-18.74,12.46-22.28,14.91S28.36,72.62,25.47,75.31l-.1,1.1a191.42,191.42,0,0,1,16-13.26c4.59-3.49,14.07-9.95,17.3-12s5.86-3.79,8.36-5.46l-.13-.2C66.67,45.16,66.47,44.85,66.28,44.54ZM80.85,29.15a148.35,148.35,0,0,1-18.64,8.6l.49.62c.78,1,1.51,2,2.2,2.94a76,76,0,0,0,16.2-8A172.66,172.66,0,0,1,66.79,44.19l.68,1.15C74.39,40.71,79,37.31,81.75,35,85.49,31.89,94,24.86,97.26,15.44A56.25,56.25,0,0,1,80.85,29.15Z"/>
    <g>
      <circle cx="51.66" cy="19.05" r="0.37"/>
      <circle cx="55.5" cy="19.55" r="0.37"/>
      <circle cx="60.54" cy="26.33" r="0.37"/>
      <circle cx="32.92" cy="61.23" r="0.37"/>
      <circle cx="33.89" cy="64.22" r="0.37"/>
      <path d="M29.25,61.4a.28.28,0,0,0-.28.28.29.29,0,0,0,.28.28.28.28,0,0,0,.28-.28A.27.27,0,0,0,29.25,61.4Z"/>
      <path d="M44.46,67.27a.29.29,0,0,0,0,.57.29.29,0,0,0,0-.57Z"/>
      <path d="M68.31,62.32a.28.28,0,0,0-.28.28.27.27,0,0,0,.28.28.28.28,0,0,0,.28-.28A.29.29,0,0,0,68.31,62.32Z"/>
      <circle cx="75.24" cy="55.07" r="0.28"/>
      <path d="M41,28.52a.28.28,0,0,0,.28.28.29.29,0,0,0,.28-.28.28.28,0,0,0-.28-.28A.27.27,0,0,0,41,28.52Z"/>
      <path d="M48.9,23.2a.29.29,0,0,0,.28-.28.28.28,0,0,0-.28-.28.27.27,0,0,0-.28.28A.28.28,0,0,0,48.9,23.2Z"/>
      <path d="M48.07,22.65a.29.29,0,0,0,.28-.28.28.28,0,0,0-.28-.28.27.27,0,0,0-.28.28A.28.28,0,0,0,48.07,22.65Z"/>
      <path d="M47.32,22.1a.28.28,0,0,0,.28-.28.28.28,0,0,0-.56,0A.28.28,0,0,0,47.32,22.1Z"/>
      <path d="M42.47,29.69a.27.27,0,0,0-.28.28.28.28,0,0,0,.28.28.29.29,0,0,0,.28-.28A.28.28,0,0,0,42.47,29.69Z"/>
      <path d="M53.7,15.67a.28.28,0,1,0,0-.56.28.28,0,0,0,0,.56Z"/>
      <path d="M55.55,23.19a.27.27,0,0,0-.28.28.28.28,0,0,0,.28.28.29.29,0,0,0,.28-.28A.28.28,0,0,0,55.55,23.19Z"/>
      <circle cx="52.64" cy="21.89" r="0.28"/>
      <path d="M47.37,24a.28.28,0,1,0,.56,0,.28.28,0,0,0-.56,0Z"/>
      <path d="M69.64,69.72a.27.27,0,0,0-.28.28.28.28,0,0,0,.28.28.29.29,0,0,0,.28-.28A.28.28,0,0,0,69.64,69.72Z"/>
      <circle cx="32.44" cy="63.12" r="0.28"/>
      <path d="M51.94,66.46a.27.27,0,0,0-.28.28.28.28,0,0,0,.28.28.29.29,0,0,0,.28-.28A.28.28,0,0,0,51.94,66.46Z"/>
      <path d="M38.25,62.62a.28.28,0,0,0-.28.28.27.27,0,0,0,.28.28.28.28,0,0,0,.28-.28A.29.29,0,0,0,38.25,62.62Z"/>
      <path d="M41,66.86a.27.27,0,0,0-.28-.28.28.28,0,0,0-.28.28.29.29,0,0,0,.28.28A.28.28,0,0,0,41,66.86Z"/>
      <path d="M58.52,64.09a.27.27,0,0,0-.28.28.28.28,0,0,0,.28.28.29.29,0,0,0,.28-.28A.28.28,0,0,0,58.52,64.09Z"/>
      <path d="M68.36,58.53a.28.28,0,0,0-.28.28.27.27,0,0,0,.28.28.28.28,0,0,0,.28-.28A.29.29,0,0,0,68.36,58.53Z"/>
      <path d="M75.82,61.94a.28.28,0,0,0-.28.28.27.27,0,0,0,.28.28.28.28,0,0,0,.28-.28A.29.29,0,0,0,75.82,61.94Z"/>
      <path d="M78.36,63.57a.28.28,0,0,0-.28.28.28.28,0,0,0,.56,0A.28.28,0,0,0,78.36,63.57Z"/>
      <path d="M78.78,59.13a.28.28,0,0,0-.28.28.27.27,0,0,0,.28.28.28.28,0,0,0,.28-.28A.29.29,0,0,0,78.78,59.13Z"/>
      <path d="M41.69,52.85a.27.27,0,0,0-.28.28.28.28,0,0,0,.28.28.29.29,0,0,0,.28-.28A.28.28,0,0,0,41.69,52.85Z"/>
      <circle cx="41.79" cy="59.56" r="0.37"/>
      <path d="M44.41,64.3a.38.38,0,1,0-.37.37A.38.38,0,0,0,44.41,64.3Z"/>
      <circle cx="70.91" cy="59.36" r="0.37"/>
      <circle cx="80.58" cy="58.81" r="0.37"/>
      <path d="M75.79,56.39a.38.38,0,1,0,.38.38A.38.38,0,0,0,75.79,56.39Z"/>
      <circle cx="70.91" cy="56.97" r="0.37"/>
      <path d="M60.35,19.15l.09,1,.05-1a.42.42,0,0,0,.34-.33l.93-.09-.93-.05a.4.4,0,0,0-.35-.34l-.09-.93-.06.93a.42.42,0,0,0-.31.36l-1,.08,1,0A.43.43,0,0,0,60.35,19.15Z"/>
      <path d="M44.66,29.5l.09.95,0-.95a.43.43,0,0,0,.34-.33l.93-.09-.93,0a.4.4,0,0,0-.36-.34l-.08-.93-.06.93a.43.43,0,0,0-.32.36l-1,.08,1,.05A.43.43,0,0,0,44.66,29.5Z"/>
      <path d="M79.9,56.4a.42.42,0,0,0-.36-.35l-.08-.92-.06.93a.42.42,0,0,0-.31.35l-1,.09,1,0a.43.43,0,0,0,.33.32l.09,1,0-1a.43.43,0,0,0,.34-.33l.93-.09Z"/>
      <path d="M41.64,70.36l-.09-.92,0,.93a.41.41,0,0,0-.32.35l-1,.09,1,0a.43.43,0,0,0,.33.32l.08.95.06-.95a.43.43,0,0,0,.34-.33l.93-.09L42,70.71A.44.44,0,0,0,41.64,70.36Z"/>
      <path d="M76.59,63.38l-.09-.92,0,.93a.41.41,0,0,0-.32.35l-.95.09,1,.05a.4.4,0,0,0,.33.32l.08,1,0-1a.42.42,0,0,0,.34-.33l.93-.09-.93-.05A.41.41,0,0,0,76.59,63.38Z"/>
      <path d="M49.34,54.26c-.73-.93-1.75-2.17-2.52-3.13-.47-.6-.93-1.21-1.38-1.81h3.08a6.9,6.9,0,0,1,.4,1.37c.09.51-.43,1.08-.9,1.48h6.54L55,51.9a2.53,2.53,0,0,1-.64-1c-.25-.65-4.19-11.27-4.19-11.27H43.66c.31.29,1.21,1.06,1.07,1.89-.07.45-.88,3.45-1.55,5.89h0l0,0c-.46,1.66-.85,3.06-.9,3.22-.19.55-1.15,1.16-1.54,1.48h4a1.75,1.75,0,0,1-.64-1.38c.07-.5.29-1.49.29-1.49h0c.7,1,1.43,2,2.22,3,.92,1.17,1.76,2.1,2.19,2.69.09.11.26.38.5.72l.81-.55C49.86,54.88,49.59,54.58,49.34,54.26Zm-3.19-11.1L48,47.72H44.76Z"/>
      <path d="M51.11,56.17l-1,.7c1,1.39,2.32,3.09,3.37,3.59,1.59.75,2-.6,1.24-1.33C54.1,58.56,52.64,57.6,51.11,56.17Z"/>
      <path d="M28.31,50.46V44.18l4.76,8h5.38c-.38-.3-1.19-1.07-1.19-1.63V41.41a2.47,2.47,0,0,1,1-1.74H34.39a2.71,2.71,0,0,1,1.2,1.74v6.21L30.9,39.67H25.32c.58.47,1.32,1.1,1.32,1.86,0,.34.05,8.38,0,9a2.23,2.23,0,0,1-1.2,1.65h4.11C28.92,51.68,28.31,51.09,28.31,50.46Z"/>
      <path d="M72.45,50.81c.08-.5.3-1.49.3-1.49h4.14a6.9,6.9,0,0,1,.4,1.37c.09.51-.44,1.08-.9,1.48h7.43a2,2,0,0,1-1.12-1.23c-.25-.65-4.19-11.27-4.19-11.27H75.69l-2.58,1.82s0,0,0,.07c-.12.75-2.33,8.76-2.47,9.15a1.34,1.34,0,0,1-.3.46,49.57,49.57,0,0,0-5.09-9.36,6.53,6.53,0,0,1,1.55.9V39.49c-.12.13-.67.76-1.17.65s-1.06-.2-1.78-.29c-.37-.49-.74-1-1.14-1.48-8.71-11-19.36-17-24-13.36-3.57,2.84-2.11,11.12,2.81,19.82l.75-.26c-5-8.48-6.32-16.35-3-19,4.23-3.35,14.43,2.7,22.9,13.35l.67.87c-.56,0-1.15-.07-1.77-.07a4,4,0,0,0-4,3.77c-.09,2.93,2.26,3.72,3.58,4.18l.46.16C62.41,47,63.42,46.34,64,46c.4-.23.91-.55,1.52-1-.32-.19-.64-.35-.94-.5-1.6-.74-3.27-.88-3.62-1.89-.25-.71.45-1.37,2.14-1.35a5.51,5.51,0,0,1,1.09.15c1,1.35,1.87,2.69,2.66,4A43.57,43.57,0,0,1,70,51.53c-.31.26-.65.5-.85.66h1.11c2.1,5.41,2.2,9.88-.28,12.07-1.06.94-4.28,1.31-8.51-.6-.06.08,0,.28.11.33,3.65,1.46,7.14,2,8.91.62,2.43-1.93,2.39-6.66.28-12.42H73.1A1.8,1.8,0,0,1,72.45,50.81Zm2.07-7.65,1.85,4.56H73.13Z"/>
      <path d="M72.5,40.12l.61-.45H72C72.14,39.77,72.32,39.93,72.5,40.12Z"/>
      <path d="M63.38,52.58c1.64-.09,4.82-1.84,4.77-3.86a3.89,3.89,0,0,0-1.47-2.85c-1.22.82-2.51,1.66-3.87,2.55.61.3,1.1.67,1.14,1.14.09.9-1.72,1.34-3.35,1.15a3.78,3.78,0,0,1-1-.24l-1,.66L57.35,52v1.29A2.28,2.28,0,0,1,58.93,52,8.75,8.75,0,0,0,63.38,52.58Z"/>
      <path d="M57.35,49v1.32l.88-.59A6.57,6.57,0,0,1,57.35,49Z"/>
    </g>
  </g>
</svg>
