<svg id="novozymes" xmlns="http://www.w3.org/2000/svg" width="110" height="92" viewBox="0 0 110 92">
  <defs>
    <style>
      .cls-1 {
        fill: #fff;
        fill-rule: evenodd;
      }
    </style>
  </defs>
  <title>nonozymes</title>
  <g id="Page-1">
    <path id="Fill-1" class="cls-1" d="M89.08,45.67h-.24v-.43h.24a.2.2,0,0,1,.23.21A.21.21,0,0,1,89.08,45.67Zm.22.13a.36.36,0,0,0,.24-.36c0-.2-.13-.36-.43-.36h-.42a.09.09,0,0,0-.08.08v1.16a.09.09,0,0,0,.08.09h.06a.09.09,0,0,0,.09-.09v-.48h.22l.26.48c0,.06.06.09.12.09h.08c.06,0,.07-.06,0-.11l-.27-.5Zm-.24,1a1,1,0,0,1,0-2,1,1,0,0,1,0,2Zm0-2.19a1.18,1.18,0,1,0,1.17,1.18,1.16,1.16,0,0,0-1.17-1.18Z"/>
    <path id="Fill-3" class="cls-1" d="M87,52.22c0-3.33-4.87-2.81-4.87-5a1.57,1.57,0,0,1,1.7-1.51c1.15,0,1.45.75,2,.75a.68.68,0,0,0,.72-.7c0-.75-1.29-1.19-2.66-1.19-1.8,0-3.37,1-3.37,2.81s1.2,2.43,2.65,3c1.14.48,2.21.92,2.21,2a1.82,1.82,0,0,1-2,1.73c-1.39,0-1.79-1-2.46-1-.34,0-.75.13-.75.65,0,.81,1.58,1.5,3.18,1.5,1.78,0,3.64-1,3.64-3.06"/>
    <path id="Fill-5" class="cls-1" d="M76.84,48.55H72.51c.18-1.58,1-2.85,2.77-2.85a2.18,2.18,0,0,1,2.11,2.24c0,.31-.08.61-.55.61m2.41-.27a3.76,3.76,0,0,0-3.92-3.72c-2.11,0-4.38,1.57-4.38,5.54,0,2.41,1.3,5.17,4.38,5.17a3.84,3.84,0,0,0,3.72-2.41.43.43,0,0,0-.28-.57c-.25,0-.37.08-.71.41a3.38,3.38,0,0,1-2.43,1c-1.52,0-3.2-1.36-3.16-4.23h5.89c.61,0,.89-.59.89-1.2"/>
    <path id="Fill-7" class="cls-1" d="M66,44.56a4,4,0,0,0-2.75,1,4.16,4.16,0,0,0-2.94-1,9.69,9.69,0,0,0-2.8.48c-.67.21-.88.47-.88.81v9a.19.19,0,0,0,.19.19h1.37a.19.19,0,0,0,.19-.19V46.54c0-.46.75-.84,1.85-.84,1.91,0,2,1.21,2,2.13v7a.2.2,0,0,0,.19.19h1.38a.2.2,0,0,0,.19-.19v-7c0-.9.11-2.08,1.91-2.12,2,0,1.91,1.42,1.91,2.33v6.81A.2.2,0,0,0,68,55h1.38a.2.2,0,0,0,.19-.19V47.77c0-1.34-.2-3.21-3.59-3.21"/>
    <path id="Fill-9" class="cls-1" d="M55.34,44.8H54.18a.21.21,0,0,0-.19.13l-2.73,7.75-2.78-7.74a.21.21,0,0,0-.2-.14H46.65a.2.2,0,0,0-.18.27l3.94,9.72-.36,1.15a4.37,4.37,0,0,1-1.08,2,1.6,1.6,0,0,1-1.21.5c-.45,0-.78-.1-1.09-.1A.65.65,0,0,0,46,59c0,.5.26.84,1,.84a4.11,4.11,0,0,0,2.93-1.22,12,12,0,0,0,1.92-3.71l3.68-9.85a.18.18,0,0,0-.11-.24l-.07,0"/>
    <path id="Fill-12" class="cls-1" d="M45.38,53.93H41.07l4.42-8.57a.38.38,0,0,0-.34-.56h-6A.2.2,0,0,0,39,45v.73a.19.19,0,0,0,.19.19h4.22l-4.55,8.57a.38.38,0,0,0,.34.56h6.2a.19.19,0,0,0,.19-.19v-.73a.18.18,0,0,0-.19-.19"/>
    <path id="Fill-14" class="cls-1" d="M36.23,49.93c0,1.85-.38,3-.93,3.56a2.57,2.57,0,0,1-3.42,0C31.33,53,31,51.78,31,49.93s.37-3.06.92-3.58a2.57,2.57,0,0,1,3.42,0c.55.52.93,1.71.93,3.58m1.81,0c0-2.36-.75-3.87-1.89-4.64a4.84,4.84,0,0,0-5.11,0c-1.14.77-1.89,2.28-1.89,4.64s.75,3.85,1.89,4.62a4.84,4.84,0,0,0,5.11,0c1.14-.77,1.89-2.28,1.89-4.62"/>
    <path id="Fill-16" class="cls-1" d="M28.45,44.8h-1.1a.19.19,0,0,0-.18.13l-2.62,7.7L21.8,44.94a.18.18,0,0,0-.17-.14H20.12a.19.19,0,0,0-.18.26l3.74,9.86a.2.2,0,0,0,.18.12h.95a.17.17,0,0,0,.18-.13l3.63-9.85a.18.18,0,0,0-.17-.26"/>
    <path id="Fill-18" class="cls-1" d="M17.84,49.93c0,1.85-.38,3-.93,3.56a2.19,2.19,0,0,1-1.71.65,2.2,2.2,0,0,1-1.71-.65c-.55-.52-.92-1.71-.92-3.56s.37-3.06.92-3.58a2.2,2.2,0,0,1,1.71-.65,2.19,2.19,0,0,1,1.71.65c.55.52.93,1.71.93,3.58m1.81,0c0-2.36-.75-3.87-1.89-4.64a4.84,4.84,0,0,0-5.11,0c-1.14.77-1.89,2.28-1.89,4.64s.75,3.85,1.89,4.62a4.84,4.84,0,0,0,5.11,0c1.14-.77,1.89-2.28,1.89-4.62"/>
    <path id="Fill-20" class="cls-1" d="M5.36,44.56A9.58,9.58,0,0,0,2.28,45c-.67.21-.89.47-.89.81v9a.2.2,0,0,0,.2.19H3a.19.19,0,0,0,.19-.19V46.54c0-.46.75-.84,2.13-.84C7.6,45.7,7.6,47.11,7.6,48v6.81a.19.19,0,0,0,.19.19H9.16a.19.19,0,0,0,.19-.19v-7c0-1.16,0-3.26-4-3.26"/>
    <path id="Fill-23" class="cls-1" d="M108.19,39.44a1.19,1.19,0,0,1-1.2,1.29c-2.06,0-3.6-1.41-5.85-3.67,1.58-1.39,3.83-3.13,5.72-3.13a1.35,1.35,0,0,1,1.33,1.36Zm-8.13-2-.55.54-.42-.42-.47-.45.46-.43.44-.41.41.42.45.45-.32.3Zm-3.72-7.43c0-.41.21-1.07,1.4-1.07h3.76c1.06,0,1.57.52,1.57,1.22,0,1.88-1.6,3.33-3.53,5.22-1.64-1.72-3.2-3.65-3.2-5.37Zm10.82,3.16c-2.22,0-4.77,2.11-6.32,3.54l-.44-.44c-.14-.15-.29-.29-.43-.43,2.49-2.36,3.88-3.8,3.88-5.82a1.73,1.73,0,0,0-1.92-1.87h-4.4c-1.28,0-2,.52-2,1.76,0,1.49,1.13,3.35,3.52,5.91l-.4.41-.49.48C95.12,33.82,93.75,33,91.82,33a1.55,1.55,0,0,0-1.59,1.67s.3-1.36,1.45-1.36c2,0,3.31,1.29,6,4-2.23,2.06-4.26,3.27-5.6,3.27A1.64,1.64,0,0,1,90.23,39a1.73,1.73,0,0,0,2,2c1.6,0,3.52-1.22,5.87-3.32l.46.46.44.45c-2.21,2.27-3.43,4.09-3.43,5.42a1.8,1.8,0,0,0,.59,1.37,2.51,2.51,0,0,0,1.39.36,2.26,2.26,0,0,1-1.17-.41A1.74,1.74,0,0,1,95.83,44c0-1.48,1.87-3.65,3.42-5.2,3.15,3.22,3.87,4.72,3.87,5.55a1.39,1.39,0,0,1-1.45,1.33c2,0,2-1.21,2-1.52,0-1.14-.92-2.86-3.92-5.88l.44-.42.44-.4c2.75,2.75,4.28,4,6.57,4A1.65,1.65,0,0,0,109,39.77V35.11A1.72,1.72,0,0,0,107.16,33.21Z"/>
  </g>
</svg>
