<?xml version="1.0" encoding="utf-8"?>
<!-- Generator: Adobe Illustrator 23.0.3, SVG Export Plug-In . SVG Version: 6.00 Build 0)  -->
<svg version="1.1" id="Layer_1" xmlns="http://www.w3.org/2000/svg" xmlns:xlink="http://www.w3.org/1999/xlink" x="0px" y="0px"
	 viewBox="0 0 57 65" style="enable-background:new 0 0 57 65;" xml:space="preserve">
<style type="text/css">
	.st0{fill:#03E3FC;}
</style>
<g id="Group_11" transform="translate(-843.451 -701.619)">
	<path id="Path_9" class="st0" d="M899.3,717.1c0,0,0-0.1,0-0.1c0,0,0,0,0,0c0,0-0.1-0.1-0.1-0.1c0,0,0,0,0,0c0,0-0.1-0.1-0.1-0.1
		l0,0l-22.2-13.3c-0.2-0.1-0.5-0.1-0.8,0l-18,10.8c-0.4,0.2-0.5,0.7-0.3,1s0.7,0.5,1,0.3l0,0l17.6-10.6l20.8,12.5l-20.8,12.4
		l-6.1-3.9v-6.4c0-1.4-1.2-2.6-2.6-2.6h-19.8c-1.4,0-2.6,1.2-2.6,2.6v43.2c0,1.4,1.2,2.6,2.6,2.6h19.8c1.4,0,2.6-1.1,2.6-2.6v-8.1
		l5.6,3.4c0.2,0.1,0.5,0.1,0.8,0l22.2-13.3l0,0c0,0,0.1-0.1,0.1-0.1c0,0,0,0,0,0c0,0,0.1-0.1,0.1-0.1c0,0,0,0,0,0c0,0,0-0.1,0-0.1
		c0,0,0,0,0,0c0-0.1,0-0.1,0-0.2v-26.7C899.3,717.2,899.3,717.2,899.3,717.1C899.3,717.1,899.3,717.1,899.3,717.1z M897.8,718.6v24
		l-20-12L897.8,718.6z M867.7,763.7h-19.8c-0.6,0-1.1-0.5-1.1-1.1v-5.3h22v5.3C868.8,763.2,868.3,763.7,867.7,763.7z M847.9,718.4
		h19.8c0.6,0,1.1,0.5,1.1,1.1v2.5h-22v-2.5C846.8,718.8,847.3,718.4,847.9,718.4C847.9,718.4,847.9,718.4,847.9,718.4L847.9,718.4z
		 M868.8,755.8h-22v-32.4h22V755.8z M876.3,756.4l-6-3.7v-25.2l4.6,3l-3,1.8c-0.4,0.2-0.5,0.7-0.3,1c0.2,0.4,0.7,0.5,1,0.3l0,0
		l3.6-2.2l20.8,12.5L876.3,756.4z"/>
	<path id="Path_10" class="st0" d="M861.1,759.5h-6.7c-0.4,0-0.8,0.3-0.8,0.8c0,0.4,0.3,0.8,0.8,0.8h6.7c0.4,0,0.8-0.3,0.8-0.8
		C861.9,759.8,861.6,759.5,861.1,759.5z"/>
	<path id="Path_11" class="st0" d="M853.3,744.2c0,0,0,0.1,0,0.1c0,0,0,0,0,0c0,0,0,0.1,0.1,0.1c0,0,0,0,0,0v0c0,0,0,0,0,0.1
		c0,0,0,0.1,0.1,0.1c0,0,0.1,0,0.1,0.1c0,0,0,0,0.1,0l12.6,7.5c0.4,0.2,0.8,0.1,1-0.3s0.1-0.8-0.3-1l-11.5-6.9l11.5-6.9
		c0.4-0.2,0.5-0.7,0.3-1s-0.7-0.5-1-0.3l0,0l-11.4,6.8v-17.2c0-0.4-0.3-0.8-0.8-0.8c-0.4,0-0.8,0.3-0.8,0.8L853.3,744.2
		C853.3,744.2,853.3,744.2,853.3,744.2z"/>
</g>
</svg>
