<?xml version="1.0" encoding="utf-8"?>
<!-- Generator: Adobe Illustrator 23.0.3, SVG Export Plug-In . SVG Version: 6.00 Build 0)  -->
<svg version="1.1" id="Layer_1" xmlns="http://www.w3.org/2000/svg" xmlns:xlink="http://www.w3.org/1999/xlink" x="0px" y="0px"
	 viewBox="0 0 479.9 419.5" style="enable-background:new 0 0 479.9 419.5;" xml:space="preserve">
<style type="text/css">
	.st0{fill:#03E3FC;}
	.st1{fill:none;stroke:#03E3FC;stroke-linejoin:round;}
</style>
<title>location_map</title>
<g id="Group_326">
	<ellipse id="Ellipse_14" class="st0" cx="264.9" cy="312.4" rx="12.3" ry="12.9"/>
	<ellipse id="Ellipse_15" class="st0" cx="238" cy="304.7" rx="13.5" ry="12.3"/>
	<g id="Group_324">
		<g id="Group_323">
			<path id="path241" class="st1" d="M373.9,368.7c1,1.7,0.1,2.3-0.9,3.8s-1.8,2.1-3.6,1.6c-3-0.9-5.6-3.3-8.2-4.8
				c-2.9-1.7-7.7-2.4-9.3-5.5c-0.8-1.6-0.5-2.9-0.1-4.5c0.3-0.8,0.3-1.6,0.2-2.4c-0.2-0.9-0.8-1.5-0.9-2.4c-0.1-1.6,0.9-3,1.2-4.5
				c0-0.9,0.1-1.9,0.3-2.8c0.3-0.8,1.1-1.3,1.4-2.1s-0.1-2,0.2-3c0.6-1.5,1.7-1.1,2.3,0.1c1.5,3.1,3.4,5.9,6.8,7.1
				c1.6,0.5,3.2,0.8,4.1,2.4c0.8,1.4,0.9,2.9,2.2,4s2.8,1.1,4.2,1.6c2,0.8,2.1,1.7,1.9,3.7c0,0.8,0.1,1.7,0.2,2.5
				c-0.1,0.6-0.2,1.1-0.5,1.6c-0.2,0.6-0.3,1.2-0.5,1.8S373.9,368,373.9,368.7z"/>
			<path id="path243" class="st1" d="M186.5,393.4c0-1-0.7-1.6-1.1-2.3c-0.6-0.9-0.9-1,0.3-1.5c0.6-0.2,2.3-0.2,2.7-0.6
				s0.1-1.8,0.1-2.5c0-0.5-0.4-1.9-0.1-2.3s1.3,0.5,1.7,0.8c0.6,0.6,1.2,1.2,1.9,1.7c0.9,0.5,1.4,1.4,1.4,2.5
				c0.2,1.3,0.3,1.5,1.5,1.9s0.5,0.9,0.9,2.2c0.6,1.4,1.4,2.6,2.3,3.8c0.6,1,1.6,2.5,1.4,3.7c0,0.5-0.3,0.9-0.8,1.1
				c-0.7,0.3-0.7-0.3-1.1,0.2c-0.2,0.5-0.4,1.1-0.4,1.7c-0.1,1.2,0.1,1.4,1.1,1.9c0.1,0,0.7-0.3,0.9,0s-0.1,0.8-0.2,1
				c-0.4,0.7-0.6,1.4-0.8,2.2c-0.1,0.6,0.2,0.5,0,0.9c-0.5,0.4-0.9,0.8-1.5,1.1c-0.9,0-1.8-0.2-2.6-0.5c-1-0.5-0.7-1.3-1.8-1.3
				c-0.6,0-0.8,0.3-1.4,0s-1-0.7-1.8-0.6c-0.5,0.1-0.8,0.5-1.3,0.5s-1-0.6-1.4-0.6c-0.8,0-1.7,1.1-2.4,1.6c-1,0.6-2,1.4-2.9,2.2
				c-0.7,0.7-1.2,2.1-2.2,2.1c-1.6-0.1-3.4-2.7-4.4-3.7c-0.8-0.7-1.6-1.3-2.5-1.8c-1.1-0.9-2.1-1.9-3-2.9c-2.8-2.6-6.2-4.5-9.9-5.5
				c-1.1-0.1-2.1-0.5-2.9-1.1c-0.7-0.7-1.3-1.6-1.7-2.5c-0.4-0.8-0.8-1.5-0.2-2.3c0.8-1.1,1.6-0.9,0.2-1.8c2.1-0.2,2.3,2.4,4.4,1.2
				c0.7-0.4,1.4-1,1.8-1.7c0.5-1,0.1-1.3-0.8-1.9c-0.8-0.6-1.4-1.4-1.7-2.4c-0.4-1.1-1.3-1.5-1.9-2.5c-0.9-1.7,0.9-3.9,1.8-5.2
				c0.2-0.3,0.5-0.7,0.8-0.9c0.5-0.3,0.9,0.2,1.4,0c0.7-0.3,1.1-1.2,1.9-1.5c2.1-0.7,4.3-0.8,6.4-0.2c0.9,0.3,1.7,0.9,2.2,1.7
				c0.8,0.8,1.6,1.7,2.3,2.6c0.6,1,0.5,2.1,1.1,3.1c0.5,0.6,1.1,1.2,1.7,1.6c1.7,1.4,3.5,2.6,5.4,3.7c1,0.4,2.1,0.8,3.1,1.1
				C185,391.8,185.6,393.3,186.5,393.4z"/>
			<path id="path245" class="st1" d="M201.6,381.6c0.9,0.1,0.6-0.6,1-1c0.6-0.5,1.5-0.4,2,0.2c0.4,0.4,0.3,1.1,0.5,1.6
				c0.5,1.2,1.3,1.2,2.5,1.6c1,0.3,2.1,0.6,3.1,0.7c1,0,1.9,0.5,2.3,1.4c0.4,0.8,0.7,1.7,1.2,2.5s0.9,1.5,0.6,2.5
				c-1.2,3.2-5.9,4.3-6.7,7.6c-0.2,0.8,0.3,1.7,0,2.5s-1.4,1.3-1.9,1.9c-1.9,1.9-2.2,4.8-2.1,7.4s1.1,5,1.1,7.4c0,1.8-1.8,1.1-2.7,0
				c-0.7-0.9-0.5-2.6-0.9-3.7s-1-2.1-1.4-3.1c-1-2.6-0.3-4.1,0.8-6.5c0.2-0.3,0.8-1.4,0.7-1.8c-0.2-0.6-0.9-0.5-1.1-1s0.1-1.1,0-1.6
				c-0.1-0.3-0.2-0.7-0.4-1c-0.9-1.7-2.4-3.1-3-4.9c-0.5-1.5,0.3-2.7-0.6-4.2c-1.1-1.9-2.8-1.9-2.7-4.4c0.1-1.2,0.5-2.8-0.2-3.9
				c-0.6-0.9-2.5-0.2-2.8-1.1s1.6-2,2.1-2.5c1-0.8,1.5-0.9,2.2,0.2c0.4,0.6,0.6,1.9,1.7,1.3c0.9-0.5,0.4-1.7,0.8-2.3
				c0.7-1,1.3,0.5,1.8,1.3C199.9,379.8,200.7,380.8,201.6,381.6z"/>
			<path id="path247" class="st1" d="M221.5,368.1c1,1.7,1.5,2.1,3.5,2.1c1.5,0,3,0.1,4.5,0.4c2.7,0.6,5.8,3.2,6.2,6.1
				c0.2,1.3-0.3,2.9-1.7,3s-2.9-0.9-4.1-1.2c-2.7-0.8-6.2-1.3-8.2,1.2c-1.4,1.7-1.9,4.4-3.7,5.8c-0.7,0.6-1.6,0.7-2.4,0.4
				c-0.8-0.3-1-0.9-1.6-1.4s-1.3-0.5-1.7-1.3c-0.2-0.6-0.2-1.2,0-1.8c0.3-0.6,1.4-0.8,1.7-1.4c0.4-1-2.4-2.1-0.6-3.1
				c0.6-0.3,1.4,0.1,1.9-0.3s0.1-1.4,0.5-1.7s2.5,0.8,3.3,0.7c1.9-0.2,2.3-2.4,2.3-4c0-0.7-0.1-1.4-0.4-2c-0.3-0.4-1.1-0.5-1.2-0.9
				C219.8,367.9,220.9,368,221.5,368.1z"/>
			<path id="path249" class="st1" d="M210.6,380.2c1.1,1.8-2.3,2-3,1.2C206.5,380.1,209.9,379.4,210.6,380.2z"/>
			<path id="path251" class="st1" d="M217.8,369.1c-1.8-0.7-0.1-2,1.1-1.9C218.9,367.9,218.5,368.6,217.8,369.1z"/>
			<path id="path253" class="st1" d="M237.7,314.8c-1-0.1-1.5-1.7-2-2.4c-0.8-1.2-0.8-2.7,0.1-3.9c0.5-0.6,0.9-1.2,1.3-1.8
				c0.2-0.8,0.3-1.7,0.3-2.5c0.6-1.8,1.4-3.5,2.4-5.1c0.9,1.3,0.8,3,1.2,4.5s1.4,2.6,1.7,4c0.2,1.6-0.3,3.1-1.3,4.3
				C240.8,312.6,238.7,314.7,237.7,314.8z"/>
			<path id="path255" class="st1" d="M248.1,309.1c-1,1-2-2.3-2.2-2.9c-0.4-0.9-0.4-1.9-0.2-2.8c0.2-0.6,1.2-1.8,1.9-1.4
				C248.9,302.5,248.2,307.8,248.1,309.1z"/>
			<path id="path257" class="st1" d="M209.7,301c0.4,1.5-2.7,0-2.7-1C207,298.2,209.4,300.4,209.7,301z"/>
			<path id="path259" class="st1" d="M197.9,293.7c-0.9,0.1-1.7-0.9-1.9-1.6c-0.4-1.2,1.1-2.5,2.1-3.2
				C198.8,289.7,199,293,197.9,293.7z"/>
			<path id="path261" class="st1" d="M184.8,195.9c-0.6,0.3-1,0-1.4-0.4c-0.7-0.8-1.2-1.7-1.7-2.6c-0.7-1.5,0.6-0.9,1.5-1
				c2-0.1,4-1.5,6-1.5c0.2,0.5-1.9,2.1-2.3,2.7C186.3,194,185.6,195,184.8,195.9z"/>
			<path id="path263" class="st1" d="M164.6,281.1c-0.3,1.9-2.6-1.3-2.9-1.7s-3.8-2.7-2.9-3s2.8,1.6,3.4,2.1
				C163.1,279.3,163.9,280.2,164.6,281.1z"/>
			<path id="path265" class="st1" d="M169.2,289.6c0.4,0.4,0.9,2.1-0.1,1.5c-0.5-0.3-0.7-1.9-0.1-2.1
				C169.2,289.1,169.2,289.3,169.2,289.6z"/>
			<path id="path267" class="st1" d="M165.3,352.8c-0.8,0.8-2.3-2.8-2.1-3.5c0.2-1,0.7-0.1,1,0.5
				C164.7,350.7,164.8,351.8,165.3,352.8z"/>
			<path id="path269" class="st1" d="M162.6,356.1c-0.4,0.5-0.5,1.3-1,1.7c-0.8-0.7,0-2.4,0.9-2.5
				C162.6,355.6,162.6,355.9,162.6,356.1z"/>
			<path id="path271" class="st1" d="M191,355.6c-0.7,0.9-1.1-0.2-0.9-0.9C190.6,353,191.4,354.3,191,355.6z"/>
			<path id="path273" class="st1" d="M181.2,384c0.4,1.3-1.4,1.1-1.8,0.3C178.9,383.2,180.6,383.3,181.2,384z"/>
			<path id="path275" class="st1" d="M182.6,378.1c-1.8-0.2-2.7-4.3,0.1-3.4c0.9,0.3,1.4,1.3,1.1,2.2
				C183.7,377.5,183.2,378,182.6,378.1z"/>
			<path id="path277" class="st1" d="M178.7,378.5c0.2,1-2,0.4-2.7,0.7c-1.1,0.5-1.3,2.8-2.1,0.7c-0.2-0.4-0.5-1-0.2-1.4
				s0.7,0,1-0.2c0.6-0.4,0.4-0.7,0.3-1.5C176.2,377.3,178,377.1,178.7,378.5z"/>
			<path id="path279" class="st1" d="M138.1,402c-1.5,0.7-1.6-3.1-1.6-3.8c0-1.8,0.3-3.9-0.8-5.5c-0.4-0.6-2.3-1.3-2.4-1.8
				c-0.2-0.9,1.3-0.3,1.7-0.4c1.8-0.5,0.7-2.5,1.5-3.6c0.7-0.8,1.7,0.1,2.4-0.7c0.5-0.7,0.5-1.7,0-2.4c-0.6-0.8-1.6-0.3-1.9-0.8
				s0.1-0.8,0.2-1.2c0.9-2.5,2.4-4.9,4.2-6.9c2.8-2.7,5.1-5.9,5.6-9.8c0.1-1.7,0.5-3.4,1-5c0.4-0.9,2-4.4,3.2-3.7
				c0.7,0.4,0.2,3.1,0,3.8c-0.3,1.5-0.6,3-1,4.4c-0.6,2.7-1,5.9-2.4,8.4c-0.5,1-1.3,1.8-1.8,2.8c-0.7,1.4-1.2,2.9-1.5,4.5
				c-0.7,2.7-1.7,5.3-2.4,8s-1.4,5.1-1.9,7.7C139.8,397.9,139.5,400.7,138.1,402z"/>
			<path id="path281" class="st1" d="M138.9,368.8c-0.1,0.5-0.5,0.8-1,0.8c0,0,0,0,0,0c-0.3-0.3-0.6-0.7-0.9-1.1
				C137.2,367.6,138.9,367.7,138.9,368.8z"/>
			<path id="path283" class="st1" d="M133.9,381.7c0.6,0.7,0.4,2.8-0.6,1.7C132.6,382.6,132.5,381.3,133.9,381.7z"/>
			<path id="path285" class="st1" d="M135.5,374c0.7,0.8,1.1-0.5,1.7-0.5c0.8,0,0.5,1.4,0.2,1.9c-0.6,0.9-0.9,0.2-1.7,0.5
				s-0.6,2.1-1.5,2.3c-0.4,0.1-0.8-0.3-1.2-0.3c-0.2,0-0.4,0.5-0.6,0.5c-0.5,0.1-0.8,0.2-1.3-0.1c-0.8-1-1.5-2-1.9-3.2
				c-0.4-0.8-1.4-2.4-0.7-3.1c0.6-0.7,1.8-0.4,2.5-0.7c0.7-0.4,1.4-0.9,1.9-1.5c0.4-0.4,1.1-1.4,1.7-1.5c1-0.2,0.6,0.2,0.8,0.8
				c0.3,0.6,0.5,1.3,0.6,1.9C136.1,372.1,135,373,135.5,374z"/>
			<path id="path287" class="st1" d="M122.4,385c1-0.6,0.1-2.6,0-3.5c0.4,1.2,1.2,1.6,1.3,2.9s-0.2,2,1,2.7c0.7,0.5,1.8,0.8,1.9-0.5
				c0.1-0.9-1.4-1.6-0.8-2.5c0.8,0.9,2.1,1.6,2.5,2.7c0.3,0.8-0.1,2.2,1.1,2.5c-0.6,0.6-2.6,0.3-3.4,0.3s-1.1,0-1.5,0.9
				c-0.3,0.4-0.2,1.5-1,1.5c-0.4,0-1.4-1.4-1.6-1.6c-0.8-0.8-1.6-1.6-2.3-2.4s-1.1-2-1.9-2.9c-1-1-2.2-1.3-3-2.6s-3.7-5.8-2.7-7.1
				c1,0.8,1.4,2.2,2.4,3c1.3,1,3,1.4,4.1,2.7C119.2,382.1,120.5,385.8,122.4,385z"/>
			<path id="path289" class="st1" d="M89.3,365.6c2.9-0.7,4.9,3.4,6.6,5.1c1.1,1.1,2.9,1.5,3.9,2.7c0.7,0.8,1,1.8,1.6,2.6
				c0.8,0.9,1.4,2,1.8,3.1c0.7,1.9,1.1,3.9,1.3,5.9c0.1,1,0.3,0.9-0.8,1.1c-0.4,0-0.7,0-1.1,0.1c-0.4,0.2-0.6,0.7-1.1,0.9
				c-2.4,0.6-4-3.9-6.2-3.7c-1.3,0.1-1.7,2.3-3.5,1.6c-1.1-0.5-1.6-1.9-1.9-3s-0.5-2.1-0.7-3.2s-1.1-3.8,0.7-2.2
				c0.9,0.9,1.2,3,2.1,3.7c1.4,0.9,1.7-1.7,1.3-2.6c-0.6-1.2-2.1-1.4-2.8-2.5c-0.4-0.7,0.1-1.8-0.3-2.3s-1.4-0.4-2-0.5
				c-1.1-0.1-4.4-0.4-4.5-2.1c0-0.7,0.8-0.6,1.3-1.1c0.7-0.6,0.6-1-0.3-1.2s-2,1.2-2.7,0c-0.5-0.9,0.6-1.6,1.3-2
				C84.3,365.5,88.9,363.9,89.3,365.6z"/>
			<path id="path291" class="st1" d="M78.6,361.4c-0.9,0.4-1.5-0.9-1.3-1.7C77.7,357.8,78.7,360.4,78.6,361.4z"/>
			<path id="path293" class="st1" d="M126.7,371.7c0.5,0.6-0.1,1.3-0.8,1.1C125,372.6,126,371.5,126.7,371.7z"/>
			<path id="path295" class="st1" d="M121.8,374.4c0.7,0.8,1.9-0.4,2.4,0.6s-0.5,1.7-1.1,1.6c-0.9-0.2-1.7-0.6-2.4-1.1
				C120.2,374.8,121.1,374.3,121.8,374.4z"/>
			<path id="path297" class="st1" d="M115.3,369.4c0.2,1.6-1.9,0.5-1.9-0.4C113.5,367.4,115,368.9,115.3,369.4z"/>
			<path id="path299" class="st1" d="M110.1,368.2c0.2,0.3,0.1,0.8-0.3,1c0,0,0,0,0,0c-0.1,0.1-0.2,0.1-0.3,0.1c-0.4,0-0.8-1-1-1.3
				c-0.4-0.8-0.6-1.5,0.7-1.7C109.1,367,109.4,367.8,110.1,368.2z"/>
			<path id="path301" class="st1" d="M88,344.7c0.2,1,1.5,0.6,1.4,1.7c-0.1,0.6-0.6,1.1-1.3,1c-0.1,0-0.2,0-0.3-0.1
				C86.2,346.8,86.3,343.3,88,344.7z"/>
			<path id="path303" class="st1" d="M92.1,339.3c0,0.7,0.9,2,0.4,2.6c-0.6,1-1.5,0.4-1.8-0.3C90.3,340.6,90.6,337.6,92.1,339.3z"/>
			<path id="path305" class="st1" d="M118.4,293.2c-0.4,0.9-2,0.7-2.8,0.7c-1,0-2-0.5-0.6-1c1-0.4,1.5,0,2.1-1
				c0.2-0.4,0.2-1.5,0.8-1.6C118.8,290.1,118.5,292.6,118.4,293.2z"/>
			<path id="path307" class="st1" d="M135,276.1c-0.1,0.9-0.8,1.5-0.7,2.5c0,0.8,0.3,1.6,0.7,2.4c1.2,1.8,2.9-0.6,2-1.8
				c0.8,2.3-1.5,3.9-2,5.9c-0.3,1.2,0.2,2.4,0.2,3.6c0,1.1-0.3,2.2-0.7,3.3c-0.7,1.3-1.1,0.6-2.2,0.3c-0.7-0.2-1.5,0.3-2.1-0.1
				s-0.5-1.6-0.7-2.4c-0.2-0.8-0.4-1.7-0.5-2.5c0-1.3,0-3.5,0.7-4.7c0.5-0.8,1.2-0.6,1.9-1.1c0.6-0.5,1-1.3,1-2.1
				c0.1-1,0-1.9-0.2-2.9c-0.3-1.2-0.8-1.4-1.9-1.9c-1.9-0.8-1.7-3.4-1-5.1c0.2-0.5,1.2-2.5,1.9-2.1c0.5,0.3,0.1,2.4,0.1,3
				c0,1.2,0.2,2.4,0.6,3.5C132.9,275,134.1,275.1,135,276.1z"/>
			<path id="path309" class="st1" d="M126,272.6c-0.7,0.7-4.1,1.4-3.4-0.5C123,271.1,125.8,271.5,126,272.6z"/>
			<path id="path311" class="st1" d="M105.2,284.1c-1.4,0.8-2.3-1.7-0.9-2.4c0.9-0.4,2-0.5,3-0.2C107,282.2,105.7,283.4,105.2,284.1
				z"/>
			<path id="path313" class="st1" d="M106.7,286.1c0,0.9-1.8,0.7-1.8,0C105,285.2,106.3,285.6,106.7,286.1z"/>
			<path id="path315" class="st1" d="M155.5,140.6c-0.5,0.1-1.1,0.8-1.5,0.4s-0.1-0.5,0.1-0.8C154.7,139.6,156.4,139.7,155.5,140.6z
				"/>
			<path id="path317" class="st1" d="M164.5,130.1c-0.5,0.7-2.7,0.5-3.7,0.8c-1.6,0.5-2.1,0.7-2,2.3c0.1,1.2,0.3,2.4-0.8,3.3
				c-0.5,0.4-1.8,0.5-2,1.1c0.3,0,0.7,0.1,0.7,0.5s-1.3,0.5-1.6,0.5c-0.5,0.1-1.6,0.5-2,0c0,0,0-0.7-0.1-1c-0.8-1.3-3.4-0.8-4.5-1.8
				c-1.4-1.2,0.8-2.3,1.3-3.4c0.6-1.3,0.4-1.9,2-2.2s2.7-1.3,4.1-1.3c1.8,0,3.6-0.3,5.3-0.9C162.8,127.6,165.5,127.8,164.5,130.1z"
				/>
			<path id="path319" class="st1" d="M92.5,154.5c1.3-0.3,2.6,1.3,1.1,1.8C92.4,156.7,91.1,155.2,92.5,154.5z"/>
			<path id="path321" class="st1" d="M53.8,175.4c-0.8-0.4-2.2-2.9-0.5-2.9C54.7,172.6,54.8,174.8,53.8,175.4z"/>
			<path id="path323" class="st1" d="M50.8,178.5c0.3,0.1,1.4,0.8,1.4,1.2c0.1,0.8-0.8,0.2-1.3,0.5c-0.9,0.5-1,2.4-2.3,1.8
				c-0.4-0.1-1-1.1-1.1-1.5c-0.3-0.6-0.5-0.8,0.1-1.3C48.3,178.6,49.9,178.9,50.8,178.5z"/>
			<path id="path325" class="st1" d="M26.7,192c0.5,0.4,1,2.3-0.1,1.7C25.9,193.4,25.8,191.9,26.7,192z"/>
			<path id="path327" class="st1" d="M28.8,197.9c1.3,0.7,1.5,3.9,0,2.9C28.1,200.3,27.4,197.6,28.8,197.9z"/>
			<path id="path329" class="st1" d="M30.7,207.2c0,1-1.1,1.6-1.3,2.5c-0.3,1.1,0.4,2.2-0.1,3.4c-0.2-0.5,0-1.5,0-2
				s-0.3-1.1-0.3-1.7C28.8,208.1,29.2,206.7,30.7,207.2z"/>
			<path id="path331" class="st1" d="M9.6,282.2c-0.4,1-1.6,0.2-2-0.3s-0.9-2.6,0-2.8C8.2,279,9.5,281.7,9.6,282.2z"/>
			<path id="path333" class="st1" d="M7.1,283.9c1.3-0.4,0.5,1.5-0.5,1.2S6.3,283.4,7.1,283.9z"/>
			<path id="path335" class="st1" d="M18.4,328.3c0.6-0.1,1-1.1,1.5-0.9c0.7,0.2,0.5,1.5,0.4,2c-0.3,0.7-0.5,1.4-0.7,2.2
				c0,0.9,0.5,1.5,0.7,2.4c0,0.6,0.1,1.2,0.2,1.8c0.1,0.2,0.5,0.7,0.5,0.9c0.1,0.5-0.3,0.9-0.7,0.9c0,0,0,0,0,0c-0.1,0-0.2,0-0.4,0
				c-0.9-0.3-1.7-2.5-2-3.3c-0.7-1.5-1.2-3.1-1.7-4.7c-0.6-1.3-1-2.7-1.2-4.1c-0.1-0.8,0.3-1.5,1-1.9c1.1-0.5,1.2-0.2,1.4,0.6
				C17.7,325.4,17.4,327.5,18.4,328.3z"/>
			<path id="path337" class="st1" d="M25.6,342.5c1.6,0.7,0,3-1.3,2.7C22.7,344.8,24.4,342.2,25.6,342.5z"/>
			<path id="path339" class="st1" d="M42.9,175.8c-0.5-0.3-1-1.7-1.7-1.6c-0.9,0.1-0.4,1.3-0.4,2c0,1.2-0.5,2.6-0.1,3.9
				c0.3,1,1.6,1.5,1.8,2.5s-0.7,2.6-1.2,3.6c-0.5,1.3-1.2,2.6-2.1,3.7c-0.8,0.8-1.5,1.7-2.1,2.7c-0.3,1-0.8,2-1.4,2.9
				c-0.8,0.8-2.2,0.4-3.3,0.6c-1.1,0.2-2,0.6-2.8-0.2c-1-1-1.1-2.9-1.8-4.1c-0.4-0.6-0.9-1.1-1.6-1.4c-1.1-0.5-1.3-0.8-2,0.1
				c-0.5,0.7-0.8,1.4-1-0.1c-0.1-0.8,0.2-1.5,0.6-2.2c0.3-0.4,0.8-0.6,1.1-1s0.2-0.4,0.3-1c-0.1-0.3-0.1-0.7,0-1.1
				c0.4,0.1,0.7,0.1,1.1,0c0.5-0.3,0.4-0.6,1-0.7c0.4,0,0.8-0.1,1.2-0.1c0.7-0.3,1.4-0.8,1.9-1.3c0.5-0.5,1-1.1,0.5-1.8
				s-1.7,0-1.9-0.6s0.8-0.9,1.1-1.3s0.1-0.7,0.1-1.1c0-0.8-0.6-2.7-0.2-3.3c0.6-0.8,3.2-1.1,4.1-1.3c1.6-0.2,3.1-0.6,4.6-1.1
				c1.7-0.8,1.4-3.2,3.3-4c0.5-0.2,0.9-0.2,1.2-0.6s0.4-2.7,1.3-2.6c0.6,0.1-0.3,2.9-0.4,3.4c-0.1,0.8,0,1.6-0.1,2.5
				C44,172.1,44.2,175.2,42.9,175.8z"/>
			<path id="path341" class="st1" d="M95.8,385c1-0.3,2.5,1.2,3.2,1.7s1.8,1.4,0.5,1.8c-1.2,0-2.3-0.3-3.3-1
				c-0.5-0.2-0.9-0.6-1.1-1.1C94.8,385.6,95.3,385.6,95.8,385z"/>
			<path id="path1069" class="st1" d="M171.1,19.4c0.4,0.6,0.4,2.4-0.6,2.2C170.6,20.6,169.4,18.4,171.1,19.4z"/>
			<path id="path1071" class="st1" d="M179.5,29.6c-0.1,0.6-0.6,0.9-0.8,1.4s0.2,1.5-0.1,2.1c-0.5,0.9-1.1,0.2-1.9,0.6
				c-0.3,0.1-0.5,0.6-0.7,0.8c-0.3-0.5,0.1-0.8,0.1-1.3s-0.5-0.8-0.4-1.4c0.2-0.7,0.7-1.2,1.4-1.5c0.2-0.1,0.5-0.1,0.8-0.3
				s0.2-0.7,0.5-0.9C178.9,28.7,179.5,28.9,179.5,29.6z"/>
			<path id="path1073" class="st1" d="M181.1,31.4c-0.1,0.8-0.9,1-1.5,1.3C179.2,31.7,180.2,31.5,181.1,31.4z"/>
			<path id="path1075" class="st1" d="M173.8,40.9c-1.1,0.5-0.8-0.8-0.6-1.3s0.7-2.1,1.5-2.3C174.5,38.6,174.8,39.7,173.8,40.9z"/>
			<path id="path1077" class="st1" d="M193.9,25.2c0.2,0.5,0.3,1.1,0.3,1.6c0,0.4,0.2,0.8,0.5,1.2c0,0.1,0.7,0.7,0.7,0.7
				c0.4,0.2,0.9,0.2,1.2,0.6c1.6,1.6,1.5,4.2,1.5,6.3c0,1.2-0.1,2.5-0.2,3.7c0,0.7,0.1,2.7-0.5,3.1s-0.7-0.1-1.3-0.1
				c-0.7,0.1-0.7,0.4-1.3,0.8s-1.5,0.5-2,0.9s-0.3,1.5-1.1,1.5c-0.6,0-1-0.9-1.5-1.2c-0.3-0.1-0.6-0.2-0.9-0.3
				c-0.5,0-0.4,0.1-0.8,0.1s-0.2,0.4-0.6,0.2s0-1.1-0.3-1.5c-0.8-1.2-3.7-0.4-4.5,0.5s-0.2,1.9-0.6,2.7c-1,1.9-1.9-2-2.8-2
				c-0.5,0-0.5,3.2-0.4,3.8c-1.1-1.1-0.4-2.3-0.9-3.6c-0.6-0.9-1.3-1.8-2-2.6c-0.9-1.5,0.1-2.5,1.2-3.6c0.7-0.6,1.3-1.2,1.8-1.9
				c0.4-0.6,0.3-1.5,0.8-2c1.3,1.1,1.5-0.5,2.3-1.3c0.8-0.5,1.5-1,2.4-1.5c0.7-0.7,1.5-1.2,2.5-1.3c0.6-0.1,1.6,0.5,2.1,0.2
				s0.3-1.3,0.4-1.9c0.3-0.9,0.5-1.8,0.7-2.7c0-0.4-0.6-0.7-0.2-1.1S193.4,25.1,193.9,25.2z"/>
			<path id="path1079" class="st1" d="M193.9,49.4c0,1.3,1.1,6-0.7,6.7c-1.2,0.4-0.7-1.1-0.8-1.7c-0.2-1.3-0.9-0.7-1.3,0.2
				c-0.6,1.5-0.6,4.6-2,5.6c-0.7,0.5-1.4-0.1-2,0.6c-0.4,0.4-0.1,1.2-0.9,1.5s-1.1-0.2-1.4-0.9c-0.2-0.5-0.1-0.8-0.6-1
				c-0.3-0.1-0.5,0.2-0.7,0.2c-1.1-0.2-0.8-1-0.9-2.1c-0.1-0.8-1.1-2.8-0.4-3.3s2.3,0.8,2.5-0.4c0.4-1.7-2.7-0.3-3.2-0.5
				c-0.9-0.4-0.1-2.7,0.3-3.4s0.6-1.1,1.3-1.1s0.7,0.6,1.3,0.8c1.1,0.4,3.3-0.3,4.6-0.3c0.9,0.1,1.7-0.2,2.4-0.8
				C192,49,193.4,47.9,193.9,49.4z"/>
			<path id="path1081" class="st1" d="M191.5,47.5c-0.4,0.5-0.9,1-1.4,1.4c-0.9,0.5-3-0.3-1.9-1.6c0.5-0.6,1.2,0,1.8-0.2
				s0.3-1,1.1-0.5C191.4,46.9,191.6,47.1,191.5,47.5z"/>
			<path id="path1083" class="st1" d="M186.1,69.1c0.3,0.3,0.5,1.1,0.1,1.3s-1.7-0.7-2.2-0.8C184.2,68.8,185.4,68.9,186.1,69.1z"/>
			<path id="path1085" class="st1" d="M189.1,66.6c0.1,0.6-0.3,1.9-0.9,1.1C187.7,67,188.4,66.1,189.1,66.6z"/>
			<path id="path1087" class="st1" d="M185.5,66.9c0.9-0.1,1.9,0.3,1.6,1.3c-0.6-0.6-1.6-0.2-2.3-0.6
				C184.9,67.3,185.2,67.1,185.5,66.9z"/>
			<path id="path1089" class="st1" d="M190.5,86.8l-0.4,0.3c-0.4-0.8-0.9-4.4,0-4.9S190.5,86.2,190.5,86.8z"/>
			<path id="polygon1091" class="st1" d="M188,85.6c0.7-0.3,0.9,0.6,0.4,0.9C187.7,87,187.2,86.1,188,85.6z"/>
			<path id="path1093" class="st1" d="M189.3,88c0.1,0.7,0,1-0.7,1.1s-0.7-0.2-1-1c-0.1-0.2-0.7-0.3-0.4-0.7S189,87.7,189.3,88z"/>
			<path id="polygon1095" class="st1" d="M194.7,92.9c0.5,0.7-0.6,1.4-0.9,0.7s0.6-1.1,1.1-0.9L194.7,92.9z"/>
			<path id="path1097" class="st1" d="M195.1,47c-0.9,0.2-0.9-1.8-0.4-1.8C195.4,45.2,195.5,46.5,195.1,47z"/>
			<path id="polygon1099" class="st1" d="M193.4,46.3"/>
			<path id="path1101" class="st1" d="M217.1,144c0.7,0.5,0.3,2.1-0.5,1.4C216.2,145,216.5,143.9,217.1,144z"/>
			<path id="path1103" class="st1" d="M218.2,148.3c1.4-0.1,1.6,1.2-0.2,0.6C218.1,148.6,218.1,148.4,218.2,148.3z"/>
			<path id="path1105" class="st1" d="M393,254.2c0,0.3-0.4,1.4-0.8,1.4c-0.1,0-0.3-0.3-0.5-0.3s-0.3-0.3-0.5-0.3
				c-0.4,0-0.5,0.8-1,0.9c-0.6-0.7-0.1-1.6,0.6-2.1C391.9,253.3,392.2,253.7,393,254.2z"/>
			<path id="path1107" class="st1" d="M397.3,254.1c0.1,0.7,0.1,1.5,0,2.2c-0.8,0-1.5-0.5-1.8-1.3
				C395.4,253.9,396.4,253.1,397.3,254.1z"/>
			<path id="path1109" class="st1" d="M400.4,255.3c-0.4,0.5-1,0.6-1.2,0s0.7-2.1,1.1-2.4C400.5,253.7,400.6,254.5,400.4,255.3z"/>
			<path id="path1111" class="st1" d="M404,258.6c-1.7,1.5-3.2-3.8-1.5-4.3c0.5,0.1,0.9,0.2,1.4,0.5c0.7,0.5,0.6,0.4,0.4,0.9
				c-0.1,0.4-0.6,0.1-0.5,0.7C403.6,257.1,404.2,257.6,404,258.6z"/>
			<path id="path1113" class="st1" d="M407.6,257.7c-0.2,0.5-1.3,1.3-1,0.3c0.4-0.6,1.1-1,1.9-0.9
				C408.3,257.4,408,257.6,407.6,257.7z"/>
			<path id="path1115" class="st1" d="M408,253.7c-0.1,0.7-0.6,2-1.5,1.9c-1.2-0.1-1.3-2.5-1.3-3.3c0.7-0.1,0.3,0.4,0.6,0.5
				s0.7-0.1,1,0C407.3,253.1,407.7,253.4,408,253.7z"/>
			<path id="path1117" class="st1" d="M451.1,148.5c0.6,0.4,1.4,0.6,1.8,1.1C452.9,149.7,449.6,149.3,451.1,148.5z"/>
			<path id="path1119" class="st1" d="M448.7,145c-0.5-0.3-0.5-0.7-0.5-1.3c-0.1-0.4,0-0.8,0.1-1.2c0.2-0.2,1.1-0.7,1.6-0.3
				C450.5,142.8,449.2,144.6,448.7,145z"/>
			<path id="path1121" class="st1" d="M452.6,98.7c-0.1,0.5-0.6,1-0.9,0.4S452.2,97.8,452.6,98.7z"/>
			<path id="path1123" class="st1" d="M458.2,97c-1.1,0.5-1.7-1-1-1.8C458.5,94,459,96.4,458.2,97z"/>
			<path id="path1125" class="st1" d="M454.9,74.7c0.7,0.4,3,1.2,1.6,2.3c-1,0.8-2.3-1.2-2.5-2.1C454.3,74.7,454.6,74.7,454.9,74.7z
				"/>
			<path id="polygon1127" class="st1" d="M454.9,72.9c0.6,0.1,0.9,1,0.1,1.1S454.4,73.2,454.9,72.9z"/>
			<path id="path1129" class="st1" d="M460,74c-0.8,1.8-3.2-2.1-3.1-2.8c0.1-1,0.6-0.3,1,0C458.8,71.9,459.5,72.9,460,74z"/>
			<path id="path1131" class="st1" d="M461.3,55.3c1.7,1.8-0.7,3.3-2,1.9C457.9,55.5,459.7,54.6,461.3,55.3z"/>
			<path id="path1141" class="st1" d="M461.6,47.4c-0.1,0.4-0.2,0.8-0.3,1.2c-0.8-0.2-0.7-1.4-0.2-1.9
				C461.3,46.9,461.4,47.1,461.6,47.4z"/>
			<path id="path1143" class="st1" d="M462.9,42.7c-0.4,0.4-0.7,0.5-1,0.9c-0.2,0.3,0,0.8-0.4,1c-1,0.4-0.1-1.6,0.1-1.9
				C462.6,41.3,463.5,42.4,462.9,42.7z"/>
			<path id="path1145" class="st1" d="M468.5,32.8c0.9,0.4,1.7,2.6,0.3,2.5C467.9,35.1,466.6,32.7,468.5,32.8z"/>
			<path id="polygon1147" class="st1" d="M468.7,27.4c-0.2,0.4-1,1-1.3,0.4C466.8,27,468.4,27.3,468.7,27.4z"/>
			<path id="path1149" class="st1" d="M465.9,28.1c-1-1-0.6-1.2-0.1-1.8c0.2-0.2,1.4-1.5,1.8-1.5C469.3,24.9,466.2,27.5,465.9,28.1z
				"/>
			<path id="path1151" class="st1" d="M465.7,24.3c-0.1,0.8-0.7,1.2-1.3,0.8c-0.6-0.7-0.9-1.6-0.9-2.5c0.1-1,0.2-0.8,1-0.5
				c0.3,0.1,1,0.2,1.2,0.5S465.4,23.7,465.7,24.3z"/>
			<path id="path1153" class="st1" d="M466.8,20.6c-1,0.6-3.1,0-2.6-1.5c0.3-0.9,0.3-0.5,0.9-0.1c0.4,0.3,0.3,0.4,0.7,0.5
				c0.3,0,0.9-0.5,1.1-0.5C466.8,19.4,466.8,20,466.8,20.6z"/>
			<path id="path1155" class="st1" d="M462.7,19.2c-0.7,0.2-0.4-0.2-0.5-0.5c0-0.1,0.2-0.4,0.2-0.5c-0.1-0.4-0.5-0.4-0.7-0.7
				c-0.3-0.7,0.1-0.5,0.2-1.3s-0.4-1.8,0.4-2.5c0.3-0.2,0.9-0.3,1.2-0.5s0.4-0.6,0.7-0.6c0.9,0,0.4,0.9,0.1,1.4
				c-0.6,0.7-0.9,1.5-1,2.4C463.3,17.4,463.5,18.5,462.7,19.2z"/>
			<path id="path1157" class="st1" d="M462.5,11c-0.1,0.7-1.1,2.6-1.5,1.3c-0.3-0.8,1.1-2.3,1.3-1.1L462.5,11z"/>
			<path id="path1223" class="st1" d="M181.9,49.2c-0.7,1.4-1.7-0.6-1.6-1.3C180.4,45.8,182.1,48.2,181.9,49.2z"/>
			<path id="polygon1227" class="st1" d="M461.8,24.3c0.5,0.7-0.6,0.8-0.6,0.3s0.6-0.3,0.8,0L461.8,24.3z"/>
			<path id="path1731" class="st1" d="M9.8,250.3c-0.1,0.9-1.3,3.5-2.1,3.3c-0.1,0-0.7-0.9-0.8-1s-0.7-0.1-0.9-0.3s-1.4-1.3-1.4-1.6
				c0-0.7,0.9-0.6,1.4-0.9s0.7-1.8,1.3-2C7.9,247.6,9.7,249.7,9.8,250.3z"/>
			<path id="path1733" class="st1" d="M212.7,266.7c0.4,0.5,0.8,1,1.4,1.4c0.6,0.5,0.8,1.1,1.3,1.5s1.2,0.4,1.1,1.1
				c0,0.3-0.7,0.9-0.9,1.2c-0.7,0.9-1.1,1.6-2.3,1.7c-1,0.1-2.4-0.4-2.2-1.6c0.1-0.6,1.9-2.2,1.3-2.9c-0.8-0.9-1.3,1.3-1.6,1.4
				c-1.2,0.5-1.1-1.6-0.7-2.3S211.7,266.2,212.7,266.7z"/>
			<path id="path1813" class="st1" d="M135.4,84.5c-0.4-2.2-5.2-0.7-6.3,0.1c-1.9,1.3-3,3.5-4.5,5.2c-1,1.1-2.1,1.9-3.1,3
				s-1.4,2.1-2.3,3c-1.6,1.6-4.2,2.4-6.4,3c-2.1,0.7-4.3,1.1-6.6,1.2c-1.6,0.1-3.2-0.2-4.8-0.1c-2.1,0.1-2.8,0.5-3.5,2.3
				c-1.1,2.9-3.2,5.2-5.2,7.6c-1.9,2.3-3.3,4.9-4.3,7.7c-2.1,6-4.9,11.7-8.2,17.1c-1.7,2.7-3.8,5.1-6.2,7.1
				c-1.1,0.9-2.3,1.8-3.4,2.6c-1.3,0.9-2.6,0.9-4.1,1.4c-1.2,0.6-2.4,1-3.6,1.3c-1.4,0.2-2.8,0.3-4.2,0.2c-2.9-0.1-5.3-1.5-8-2
				c-5-1-8.6,5.5-13.3,6.3c-3.5,0.6-9-4-11.2,0c-0.8,1.9-1.8,3.6-2.9,5.3c-0.9,1.1-2.1,2-3,3c-0.9,1.2-1.6,2.5-2.3,3.8
				c-1.8,2.9-3.5,5.9-4.9,9c-1.2,2.7-3,5.1-3.8,7.9c-0.4,1.3-1.6,12.8,0.3,12.2c1.3-0.4-0.2-4.5-0.2-5.4c0-1.4,0.5-1.3,1.5-0.6
				c0.9,0.6,1.7,1.4,2.1,2.4c0.1,0.9,0.2,1.9,0.1,2.8c0.1,1.4,1.4,2.8,2.5,3.7c1.8,1.5,4,2.3,5.7,3.9c0.9,0.9,1.6,2,2,3.3
				c0.2,0.9,0,3.1,1.4,3.2c0.7,0,1.2-0.9,1.8-1.3s0.5,0.2,0.9-0.6c0.2-0.4-0.1-1.4,0-1.8c0-1.4-0.5-1.7-0.9-2.9s0.9-2.8,0.4-3.5
				c-1.2-1.7-3.1,3.8-4.8,1c-0.2-0.4,0.1-1.1-0.3-1.4c-0.7-0.5-0.8,0.3-1.4,0.5c-1.8,0.5-0.7-1.5,0.6-1.4c0.9,0.1,1.7,1.3,2.6,0.5
				c0.5-0.7,0.6-1.7,0.2-2.5c-0.7-0.8-2.3-0.1-1.7-1.8c0.4-1.1,1.1-1.4,0.8-2.7c-0.5-2-2.6-4.2,0.1-5.8c0.5-0.2,0.9-0.4,1.4-0.7
				c0.3-0.2,0-0.4,0.5-0.7s0.6,0,0.9-0.2c0.3-0.2,0.5-0.5,0.7-0.8c0.9-1.2,2.4-2.6,2.7-4.1s-0.4-2.8,0.6-4.1
				c0.4-0.4,0.8-0.9,1.2-1.4c0.3-0.7,0.5-1.4,0.6-2.1c0.5-1.3,1.5-1.1,2.6-0.8c1.5,0.5,2,0.4,2.9-0.8c0.4-0.6,0.9-1.1,1.4-1.5
				c0.5-0.4,1.2-0.6,1.4-1.2c0.3-1.1-1.4-1.3-1.5-2.5c1-0.2,2.1,1.5,3,0.5c0.6-0.7-0.6-2.2,0.4-2.5s1.3,1.3,1.7,1.8
				c0.9,1.3,1.3,0.6,2.5,0c0.6-0.3,1.3-0.1,1.8-0.4s0.7-0.6,1-0.8c0.4-0.3,0.9-0.4,1.4-0.1c0.3,0.2,0.3,0.7,0.7,0.8
				c0.7,0.1,1.1-1.4,1.9-1.8s2.4-0.1,2.9-0.9c0.5-1-0.9-2.1-1.5-2.6c-0.9-0.9-1.3-2-2-2.9s-1.8-1.1-1.9-2.5c0-0.3,0.1-1.2,0.6-1.3
				s1,1.5,1.2,1.9c0.4,1.4,1,2.8,1.7,4.1c0.9,1,2,1.9,3.1,2.7c1.5,1.3,1.9,4.2,3.6,5.1s2.4-0.9,3.7-1.6c1.7-0.8,3.4-1.6,5-2.5
				c1.3-0.9,2.7-0.7,4.2-1.1c1.2-0.4,1.8-1.5,3.1-1.5c-1.2,1,0.5,1.4,1.2,1.4c1-0.1,2-0.5,2.9-1c0.8-0.5,1.6-1,2.4-1.4
				c0.9-0.2,1.9-0.2,2.8,0.2c1.1,0.3,2.3,0.6,3.1-0.5c0.5-0.8,0.4-1.9,0.8-2.7c1.3-2.5,3.9,0.6,5,1.8s3.3,3.3,4.5,1.9
				c0.7-0.8,0.7-1.8,1.6-2.5s1.7-0.5,2.6,0.3c0.7,0.6,1.3,1.4,2,2c1.1,1,2.6,1.6,3.7,2.7c1.8,1.8,3.2,5,6.2,5.1
				c1.3-0.1,2.6-0.4,3.9-0.9c1.4-0.5,1.8-2.3,2.1-3.6c0.6-3.3,1.4-6.5,2.4-9.7c1-2.9,2.7-5.5,4.8-7.6c2.1-2.2,2.8-3.7,2.4-6.8
				c-0.9-6.1-1.7-11.8-0.3-17.9c0.5-2.1,0.5-3.5-0.9-5.3c-1.1-1.4-3.1-2.1-4.2-3.6c-0.8-1.1-0.5-2.6-0.7-3.9
				c-0.3-1.7-0.4-3.5-0.2-5.2c0.5-2.6,1.6-5.1,3.4-7.1c1.5-1.7,3.1-3.2,4.9-4.5C133.2,86.4,135.1,85.5,135.4,84.5z"/>
			<path id="path1815" class="st1" d="M185.2,272c0.7,0.5,0.7,1.7,1.8,1.7c0.5,0,1.1-0.5,1.6-0.5c0.7,0,1.3-0.1,2-0.3
				c1.3-0.4,3.4-2.7,4.8-2.1c1.1,0.5,0.7,1.4,0.1,2.1c-0.8,0.9-1.7,1.6-1.5,2.9c0.1,1,1.2,2.4,0.6,3.4s-1.3,0.2-2-0.3
				s-1.8-1.7-2.7-1.7c-1.5,0.1-0.9,2.2-0.3,3c0.9,1,1.6,2.1,2.3,3.3c0.4,0.9,1.6,3.2,1.1,4.1c-0.9,2.1-3.3-1.8-4.6-0.7
				c-0.6,0.5,0.3,1.6-0.1,2.2c-0.3,0.4-0.9,0.4-1.2,0.7c-0.9,0.8-0.4,1.3,0.8,1.5c1.8,0.4,2.8-1.1,4.4-1.3c1.4-0.1,3.2,3,1.6,2.8
				c0.4,1.1,0.9,2.2,1.3,3.3c0.7,1.2,1.2,2.5,1.5,3.9c0.1,0.6-1.5,3.2-0.3,2.9c0.3-0.1,0.7-0.9,0.9-1.1s0.4,0,0.5-0.1
				c0.3-0.5,0.5-1.1,0.5-1.8c0.2-0.9,0.4-1.7,0.8-2.6c0.3-0.7,1.1-1.6,1-2.3c-0.1-1.1-1.1-1.8-0.8-3s1.1-1.8,1.3-2.9
				s0.3-1.3,1.1-1.8c0.6-0.3,1.2-0.6,1.7-1.1c0.5-0.6,0.9-1.3,1-2c0.1-1-0.6-1.6-0.9-2.5c-0.3-0.9-0.5-1.9-0.6-2.9
				c-0.3-1-0.6-2.1-0.6-3.1c0.1-1.9,1.7-1.1,2.7-0.4c1.3,0.9,3.1,2.1,2.9,3.9s-1.3,2.8,0.2,4.4s1.6,3.7,1.9,5.9c0.2,1.7,1.5,6,0,7.5
				c-1.2,1.2-2.4-0.8-3.4-0.4c-0.7,0.3-0.7,1.5-0.8,2.1c-0.2,0.9-0.6,1.8-1.3,2.4c-0.4,0.5-2.1,2.4-0.8,2.8c0.8,0.3,0.9-1,1.4-1.3
				c0.8-0.4,1.6-0.5,2.4-0.3c1.4,0.2,3.4,2.3,3.9,0.3c0.1-0.8,0.3-1.6,0.6-2.4c0.6-0.8,0.9-1.8,1-2.8c0-2.5-1.2-4.8-1.4-7.3
				c0-1.2,0-2.4-0.2-3.6c-0.4-1-0.7-2.1-0.8-3.2c0.2-1,0.2-2.1,0.1-3.2c-0.4-1.1-0.6-2.3-0.5-3.5c0.1-1.9-0.8-2.9-1.4-4.6
				c-0.4-1.1-0.4-1-1.7-0.7c-1.1,0.2-2.1,0.5-3.1,0.9c-1.2,0.6-4.2,2.4-4.2-0.6c0-2.1,4.2-4.5,5.6-5.6c1.2-0.9,2.4-1.7,3.5-2.6
				c1.7-1.5,3.1-3.4,4.9-4.7c3.3-2.3,8.4-5.1,12.2-2.9c1.5,0.9,3.2,1.5,4.9,2c1.8,0.2,3.5,0.9,5.1,1.9c1.6,1.1,2.8,2.7,3.4,4.6
				c0.4,1.9-0.9,2.4-1.7,3.8c-1.5,2.6-2.6,5.4-3.1,8.4c-0.4,3.1,2.8,5.9,3,9c-0.1,1.1,0,2.2,0.3,3.2c0.4,0.8,1.2,1.2,1.5,2
				c0.2,0.9,0.3,1.9,0.1,2.9c0.1,0.6,0.3,1.2,0.6,1.8c0.6,2.2-1.8,5.2-2.9,6.9c-0.5,1.1-1.2,2-2,2.9c-0.5,0.5-1.2,0.6-1.7,1.1
				c-0.2,0.2-0.4,0.5-0.6,0.9c-0.2,0.6,0.1,1.2,0,1.7c-0.6,1.6-1.8,0.4-2.6-0.1c-2-1.2-3.6,0.4-4.9,1.9c-2.4,2.8-5.6,4-7,7.7
				c-1,2.8-2.1,6.4-0.1,9c1.5,2,4.1,2.8,6.2,3.8c2.6,1.3,5.8,3.5,6,6.7c0.1,1-0.5,2-0.4,3.1s0.7,1,1,1.7c0.3,0.8,0,1.8-0.7,2.3
				c-1.1,1-2.9,1.4-4.2,2.1c-1.3,0.8-2.9,1.1-4.4,0.7c-3.9-0.5-7.6,1.7-8.9,5.3c-0.4,1.2-0.3,2.5-0.6,3.6s-1.6,1.5-1.4,0.1
				c0.1-0.9,1.5-1.7,0.7-2.5c-0.4-0.4-1.5-0.3-1.9-0.1c-1,0.5-1.6,1.7-1.2,2.8c0.7,3.1,5.1,1.3,6.9,3.3c0.6,0.7,0.8,3.4,0.1,4
				c-0.9,0.8-4-1.9-3.8-0.4c0.1,0.6,1.1,0.9,1.4,1.4s-0.2,1,0,1.5c0.1,0.3,0.4,0.5,0.6,0.8c0.4,0.7,0.4,1.6,0.8,2.3s1.6,1.7,1,2.7
				s-2.7,0.6-3.6,1.3c-1.3,0.9-2.2,2.6-4,2.7c-2,0.2-2.8-1.3-4-2.6c-0.3-0.3-0.8-0.9-1.3-0.8c-0.7,0.1-0.6,1.3-1.3,1.6
				c-1.2,0.5-1-1.1-1.6-1.9c-0.9-1.2-2-2.2-3.1-3.2c-0.7-0.8-1.5-1.4-2.4-1.8c-0.9-0.2-1.8-0.5-2.7-0.9c-1.2-0.6-2.1-1.6-3.2-2.4
				c0.7,0.2,1.2,0.7,1.8,1c0.7,0.1,1.3,0.2,2,0.2c0.9,0.2,1.8,0.6,2.4,1.3c1.1,0.9,4.8,3.2,3.1,0c-0.3-0.7-0.7-1.4-1.2-1.9
				c-0.5-0.3-1-0.5-1.6-0.7c-1.1-0.6-2.1-1.5-2.7-2.6c-0.2-0.3-0.6-1-0.4-1.4c0.3-0.6,0.1-0.1,0.7-0.3c1-0.3,2.4-0.2,3.4-0.7
				c2.4-1.3-0.7-3-2.1-3c-0.7,0-1.3,1-2.1,0.2s-0.1-1.8,0.1-2.5c0.3-1.2,0.9-2.3-0.8-2.4c-1.3-0.1-1.1,0.5-1.7,1.4
				c-0.9,1.3-1.7,0.8-2.9,0.2c-1.1-0.7-2.4-1.2-3.8-1.4c-1.8-0.1-2.5-1-4-1.9s-2.1-0.3-3.4,0.4c-0.6,0.4-1.2,0.6-1.9,0.7
				c-0.7,0-1.2-0.4-1.8-0.4c-1.7,0-0.1,1,0.4,1.5c-1.2,0.2-2.5,0-3.6-0.7c-0.7-0.5-0.7-1.5-0.8-2.4s-0.4-1.4,0.3-1.6
				c0.9-0.3,1.2,0.6,1.9-0.5c0.3-0.5,0.4-1.1,0.1-1.7c-0.6,1.2-2,1.8-2.2,0.2c-0.2-1.4,0.1-2.6-0.9-3.7c-0.9-1-5.3-2.6-3.2-3.8
				c0.8-0.5,1.4-0.1,1.4-1.2c-0.1-0.6-0.4-1.1-0.9-1.4c-2.3-1.5-1.3,2-2.5,2.2c-1.1,0.2-1.6-2-1.8-2.8c-0.4-2,1.3-0.5,2.5-1.2
				c0.7-0.4,0.9-1.2,1.7-1.5s1.6,0,1.8-0.9c0.2-0.7-0.3-0.9-0.6-1.5c-0.6-0.9-0.8-2-0.5-3.1c0.1-2.4-0.4-4.7-1.6-6.8
				c-0.3-0.5-0.8-2-1.5-2.2c-0.9-0.3-0.9,2.5-2.1,0.9c-0.4-0.9-0.2-2,0.6-2.6c1.2-0.6,2.3,0.1,2.9-1.6c0.9-2.4-1.6-7-3.4-8.6
				c-1.3-1-2.9-1.7-4.6-1.9c-1-0.2-4.1-0.5-3.9-2c1.9,0.2,3.7,0.7,5.6,0.9c0.9,0.1,4,0.3,2.6-1.4c-1.1-1.3-3.2-0.4-4.4-2.1
				c-1-1.4-1.3-3.6-3.2-3.9c-0.6-0.1-5-0.1-2.7-1.3c1.6-0.8,3.7,0.1,5.2,0.6c1.5,0.6,3.1,0.6,4.6,0c0.9-0.4,4.1-3.3,4.8-0.9
				c-1,0.7-2.7-0.3-2.1,1.7c0.4,1,1.2,1.8,2.2,2.2c0.6,0.3,2,1,2.5,0.3s-1.6-2.3-2.1-2.8c0.2-0.2,0.4-0.3,0.7-0.3
				c0.4,0,0.4,0.5,0.9,0.5c0.2,0,0.5-0.4,0.6-0.4c0.4,0,0.8,0.4,1.3,0.5c0.7,0.1,0.8-0.5,1.4-0.8s1-0.2,1.5-0.5
				c0.2-0.1,0.3-0.4,0.5-0.5c0.4-0.2,0.9-0.3,1.4-0.5c1.4-0.5,1.7-1.5,1.9-2.9c0.2-1.1,0.3-2.3,0.3-3.4c-0.1-0.5-1.8-2.1-1.4-2.6
				s1.7,0.9,2.3,1c1.3,0.2,1.3-0.8,2.2-1.4s1.6,0.3,2.5-0.3c0.6-0.5,1-1.1,1.2-1.8c1.3-3.4,1.3-8.8-3.3-9.4c-2-0.1-4-0.6-5.8-1.5
				c-0.7-0.4-1.5-0.8-2.1-1.3c-0.9-0.8-0.4-1.4-0.9-2.3c0.6,0.3,1.1,0.6,1.6,1c0.6,0.3,1.2,0.6,1.9,0.9c1.4,0.8,3,1.2,4.6,1.2
				c1.4,0,2.8,0.4,4,1C182.7,272.5,183.9,271.7,185.2,272z"/>
			<path id="path1817" class="st1" d="M137.3,315.3c1.2,0.9,1,3.1,1.8,4.3c0.5,0.7,1.2,1.1,1.6,1.8c0.6,1.1,0.2,1.2-0.8,1.4
				c-1.1,0.3-2.3,0.4-2.5,1.8c0,1.2,0.5,2.4,1.3,3.4c1.3,2.1,2.8,4.1,4,6.3c0.9,1.5,1.7,3.1,2.4,4.7c0.4,0.8,1.4,2.5,0.7,3.4
				c-0.5-0.7-1.3-2.3-2.3-1.7c-1.2,0.6-0.5,4.2-0.3,5.2c0.7,3.5,0.8,7.2,0.2,10.7c-0.3,1.7-0.6,3.4-1.1,5c-0.3,0.7-0.5,1.4-0.7,2.1
				c-0.1,0.7,0,1.7-0.6,2.2s-1.3,0.3-2.1,0.2c-0.7,0-1.4,0.2-2.1,0.4c-0.7,0-1.5,0-2.2,0c-0.8,0.1-1.5,0.5-2,1.1
				c-0.9,0.8-1.5,1.8-2.7,2.2c-1.7,0.5-2.4-0.9-3.9-1.2c-0.9-0.2-1.9,0.1-2.7-0.3c-0.6-0.3-0.9-1-1.5-1.3c-1-0.6-2.3-0.3-3.4-0.6
				c-1.1-0.4-2.1-1.1-2.9-1.9c-0.4-0.3-1.9-2-2.4-2c-1,0.2-0.2,3-0.7,3.6s-1.3-1.8-2.1-2.1c-1.2-0.6-6.1,1-4.2-1.6
				c0.9-1.2,2.3-1.3,3.4-2.2c0.8-0.6,0.4-1.2,0.2-2.2s-1.2-4.9-2.4-5c-0.9-0.1-0.8,1.6-1.9,1.6c-1.4,0-1.8-2.2-3-2.1
				c-2.1,0-0.1,3.5,0.3,4.2c0.5,0.7,0.9,1.6,1,2.4c-0.1,0.7-0.7,1.2-1.4,1.1c0,0,0,0,0,0c-0.4,0-0.7-0.3-0.9-0.6
				c-0.7-1,0.4-0.7,0.6-1.4c0.3-1-1.2-3-1.3-4.1c-0.1-1.4,1.3-3.1-0.4-4c-1-0.5-1.8-0.1-2.7-0.9c-1.2-1-1.8-2.5-1.5-4
				c0.5-1.2,0.6-2.5,0.3-3.8c-0.2-0.8-1.2-2.1-1-2.9c0.1-0.5,0.3-0.4,0.5-0.8c0.3-0.7,0.5-1-0.2-1.5s-1.9-0.2-2.7-0.5
				s-2.7-1.7-2.3-2.8c0.4-0.9,1.7-0.4,2.5-0.8c2.1-1.4-1.7-2.2-2.5-2.7c0.4-0.2,2.4,0.1,2-0.9s-2.5-0.9-3.2-1.1
				c-1.2-0.3-3.4-2.4-3.1-3.8c0.8,0,5.4,4.8,5.7,3c0.1-0.5-1.5-2.1-1.8-2.5c-0.8-1-1.9-0.9-2.8-1.7c-0.3-0.4-0.6-0.7-1-1
				c-0.2-0.2-0.6-0.2-0.8-0.4s-0.8-0.4-0.8-0.9c0.1-1.2,2.1-1,2.8-1.5c1-0.8,0.3-2.6,1.5-3c0.7-0.2,1.3,0.1,2-0.2
				c1.1-0.4,1.8-1,2.2,0.5s0,2.3,1.4,3.1c3,1.7,5.3-2.3,7.7-3.6c1.6-0.8,3.2-1.5,4.9-2.1c1.6-0.5,3.1-1.4,4.4-2.6
				c1-1,2.4-1.5,3.8-1.6c1.2,0,0.7,0.4,1.2,1.3c0.2,0.4,0,0.8,0.5,0.7s0.6-0.5,0.6-0.9c0.1-0.6-0.7-2-0.4-2.5c0.4-0.6,1.6,0.2,2,0.4
				c0.6,0.6,1.2,1.1,1.9,1.6c0.9,0.5,1.8,0.5,2.5,1.4c1.2,1.4,1,3.1,2.9,3.9c1.5,0.7,3.2,0.9,4.1,2.5c-0.9-0.5-2.4-1.7-3.4-0.7
				c-0.8,0.8-0.1,1.5,0.3,2.2c1.1,2.1-0.7,2.2-2.1,3.4c-1.1,0.9-2.3,3.4-0.4,4.1c0.8,0.2,1.6,0.2,2.3-0.1c0.9-0.5,0.3-2.4,1.1-2.6
				c0.4-0.1,1,0.4,1.5,0.2s0.9-0.7,1.3-1.1c0.8-0.8,1.9-0.5,2.7-1.1c2.2-1.9-2.1-2.8-1.9-4c0.1-0.4,0.5-0.8,0.9-0.7c0,0,0,0,0,0
				l0.2,0.1c0.7,0.3,0.8,2,1.5,0.8c0.4-0.7-0.2-2-0.4-2.7c-0.3-1.2-0.6-2.4-0.7-3.6c0.6,1.3,1.4,2.5,1.2,0.2c0-0.6-0.8-3.6-0.3-3.6
				c0.5,1,1,2,1.4,3.1C136.4,312.7,136.9,314,137.3,315.3z"/>
			<path id="path1823" class="st1" d="M478.6,125.2c-0.1,0.8,1.1,1.5,0.6,2.2c-0.1,0.2-1.2,0.5-1.5,0.7c-0.4,0.3-0.7,0.7-1,1.2
				c-0.9,1.3-1.9,2.9-1.4,4.5c0.3,0.9,1,1.6,1,2.6c-0.1,1-0.4,1.9-0.7,2.8c-0.2,1-0.1,1.8-0.6,2.6s-1.2,1.1-1.4,2.2
				s-0.1,2.1-0.4,3.1c-0.5,1.1-1,2.1-1.7,3c-0.4,1-0.7,2-0.8,3.1c-0.1,1.2-0.5,3.8-1.9,3.9c-0.7,0-1.6-0.7-1.4,0.8
				c0.1,0.7,1.1,1.4,1.7,1.7c-0.3,0.7-1.2,1-1.6,1.5c-0.4,0.6-0.8,1.3-1,2.1c-0.3,1.1-0.4,2.3-0.1,3.5c0.1,0.8,0,1.6,0.1,2.4
				c0,1-0.2,1.9-0.8,2.6c-0.6,1-1,2.2-1,3.4c-0.1,1.2,0.2,2.7-0.4,3.8s-0.4,0.3-1.3,0.8c-0.7,0.3,0,0.1-0.6,0.7
				c-0.7,0.6-1.3,1.3-1.8,2.1c-0.9,2.1-0.3,4.6-1.1,6.7c-0.5,1.1-0.9,2.2-1.2,3.3c-0.2,1.2-0.4,2.4-0.8,3.6c-0.4,1-0.7,2-1,3
				c-0.3,1.4-0.2,2.9-0.5,4.4c-0.4,1.8-1.6,2.8-2.4,4.4c-1,1.9,0,3.8-0.8,5.7c-0.3,0.8-0.4,1.8-0.2,2.6c0,1-0.2,2-0.6,2.9
				c-0.9,2.4-2.2,4.6-2.1,7.3c0.2,0.9,0.2,1.9,0.1,2.8c-0.2,0.9-0.6,1.8-0.9,2.7l-2.6,8c-0.2,0.6-0.3,1.1-0.6,1.7
				c-0.4,0.8-1,1.5-1.8,2c-0.5,0.4-1.4,1.4-1.9,1.4c-1.5-0.2-0.8-3.5-0.8-4.3c0.1-1.5-0.6-2.9-0.6-4.5c0-3.6,0.4-7.1,0.6-10.7
				c0.1-1.2-0.1-2.4-0.5-3.5c-0.6-2.2-0.7-4.4-0.4-6.7c0.2-2.1-0.3-4,0.2-6.1c0.6-2.2,1.3-4.4,2.1-6.5c1.7-4.6,2.9-9.2,4.2-13.9
				c0.6-2.4,1.6-4.7,2.7-6.9c0.5-0.9,1-1.8,1.4-2.8c0.5-1.4,0.3-3.1,1-4.3c0.9-1.6,2.7-1.5,4.3-1.7c2.4-0.2,2.4-2.5,2.7-4.5
				c0.3-1.7,0.7-3.3,1.3-4.9c0.2-0.8,0.5-1.6,0.9-2.3c0.5-0.8,1.1-1.6,1.7-2.3c0.7-1,0.5-2.1,0.8-3.2c0.5-1,1-2,1.6-3
				c1.3-2.7,2.1-5.6,2.3-8.6c0.1-1.6-0.7-3.5,0.6-4.7c1.8-1.2,2.7-3.4,2.3-5.5c-0.5-4.3,1.4-8.6,4.9-11.1c0.2,0.6,0.8,2.5,1.5,2.4
				c0.5-0.1,0.6-1.1,0.7-1.4C478.5,124.1,478.5,124.6,478.6,125.2z"/>
			<path id="path1839" class="st1" d="M466.7,4.5c5.2,0.5,1.2-2.8-0.5-4.1"/>
			<path id="path1839-2" class="st1" d="M445,4.2c2.6,0.6,4.5,2.9,7.1,3.5c1.4,0.3,2.8,0.5,4.2,0.8c0.5,0.1,1,0.3,1.4,0.4
				c0.4,0.3,0.8,0.6,1.2,0.9c0.7,0.1,0.8-0.6,1.4-1c0.8-0.6,1.7-0.2,2.6-0.5c1.1-0.4,1.8-1.4,1.9-2.5c0-0.6-0.8-1.1-0.2-1.5"/>
			<path id="path1839-3" class="st1" d="M442.5,4.2c1.1-0.2,1.2,0.5,2.5,0"/>
			<path id="path1839-4" class="st1" d="M168.1,4.1c0.4,0.2,1.3,0.7,1.5,0.8s0.4-0.1,0.6,0.3c0.8,1.2-1.5,1.5-1.8,2
				c-0.6,0.8,0.8,4.9-0.9,3.1c-0.4-0.4-0.1-0.9-0.8-0.7c-0.4,0.1-0.4,1-0.5,1.3c-0.1,0.3-0.2,0.7-0.4,1c-0.4,0.4-0.4,0.7,0.1,1
				c0.2,0.5,0.4,0.6,0.6,1.2c0.2,1-0.5,4.9,0.8,5.3c0.5-1,0.3-1.8,1.1-2.6c0.4-0.5,0.9-1.3,1.5-0.8s0,1.7,1.1,1.9
				c0.9,0.2,1.3-0.7,1.6-1.4c1.3-3.1,3.4-5.6,5.3-8.3c-0.8,1.1-0.8,2.5-1.4,3.6s-1.5,1.8-2,2.8c-0.4,0.8-1.5,3.6-1,4.3
				c1.6,2.5,2.8-6.3,4-4.5c0.3,0.5-0.4,1.8-0.2,2.4c0.1,0.5,2.6,2,1.5,2.8c-0.6,0.5-1.5-0.7-2.2-0.5c-0.9,0.3-1.2,1.9-1.2,2.8
				c0.2,3.4,2.3-1,3.3,0.2c0.4,0.5-0.9,1.6-1.2,1.8c-0.9,0.9-1.4,2.2-1.4,3.5c1.1-0.3,2.6-1.9,3.5-2.7c1.2-1.3,2.1-2.8,2.7-4.5
				c0.7-2.1,1.2-4.2,1.5-6.4c0.5-1.5,0.8-3,0.8-4.5c-0.1-1.1-0.9-2.2-0.8-3.4c1.9,0.8,1.1,5.2,2.6,6.8c0.4-1.3,1.2-2.4,2.2-3.3
				c0.5-0.3,1-0.5,1.5-0.1c0.9,0.7,0.2,0.9-0.3,1.3c-0.9,0.4-1.6,1-2.1,1.8c-0.6,1.1,0.3,1,0,1.9c-0.2,0.6-1.6,1.4-2,1.8
				c-0.3,0.3-0.5,0.7-0.7,1.1c-1.1,1.8-2.1,3.7-2.9,5.7c-0.4,1-0.1,2.2-0.4,3.2c-0.4,0.8-0.6,1.6-0.8,2.4c0,0.9,0.6,1.7,1.5,1.7
				c0,0,0,0,0,0c0.1,0,0.2,0,0.3,0c1.2-0.2,0.1-1.6,0.1-2.6c2,3.8,5.3-2.9,6.3-3.9c1.2-1.2,3.6-0.1,4-2c0.2-0.9-0.6-1.9,0.7-1.9
				c1,0,2,1.1,3.1,1s1.8-1,2.6-1.8c0.7-0.7,2.1-1.3,2,0.2c-0.1,1.9-3.1,1.8-3.8,3c-0.4,0.6-0.1,0.9,0,1.5c0,0.4-0.1,1.5-0.1,1.8
				c0.2,0.6,1,1.1,1.4,1.7c0.5,1.1,0.9,2.3,1,3.5c0,0.3,0,1.1,0.3,1.3c0.5,0.5-0.2-0.1,0.7,0.1s1.2-0.1,0.6,1.3
				c-0.6,1.6-0.7,0.5-1.8,1s-0.6,3.5-0.6,4.5c0,1.3,0.1,3.8-0.8,4.9c-0.3,0.4-1,0.3-1.3,0.8c-0.1,0.5-0.2,1.1-0.3,1.7
				c-0.2,0.7-0.9,1.6-0.8,2.4s0.8,0.7,1.2,1.4c0.2,0.7,0.2,1.4,0,2.1c-0.1,1.6-0.4,3.2-0.8,4.7c-0.5,1.6-2.2,1.9-2.7,3.3
				s0.4,1.5,1.2,2.3c0.3,0.3,0.5,0.3,0.4,0.8s-0.8,0.4-0.9,0.8c-0.3,0.8,1,0.8,0.6,1.5c-0.3,0.5-2.3,0.8-2.8,1.1
				c-2.2,1.3,1.1,2-0.3,3.4c-0.6,0.5-1.9,0.6-1.9,1.6c-0.1,1.4,0.9-0.1,1.7,0.1c-0.7,1.4,0.6,1.7,1.1,2.9c0.5,1,0.8,2.9,2.1,3
				c0.4,0,3.8-1.1,3,0.7c-0.1,0.3-0.8,0.4-1,0.8c-0.2,0.4,0.1,1-0.1,1.4c-0.2,0.4-0.9,0.9-1.2,1.1c-1.3,0.9-3,1.7-3.5,3.2
				c-0.2,0.8-0.1,1.5,0.2,2.3c0.2,0.2,0.8-0.1,1.1,0c0.4,0.1,0.8,0.6,1,0.6c1.1-0.1-0.4-1.6,0.2-2.2c0.6-0.6,1.8,0,2.1,0.4
				c0.6,0.8,0.3,1.5,1.6,1.5c0.4,0,0.7-0.3,1.2-0.3s1.1,0.5,1.7,0.6c-1,0.8-2.4,1.3-2.3,2.7s1.5,2.1,1.9,3.3c0.3,0.8-0.7,3,0.5,3.4
				s1.1-1.8,1.4-2.5c1.5,0.3,0.4,3.2,0.6,4.2c0.1,0.8,0.8,1.5,0.7,2.3s-0.6,1.3-0.6,2.1s-0.5,2.6-0.3,3s0.8,0.2,1,0.5
				c0.5,0.7-0.2,1-0.7,1.5c0.4,0.3,1.4,0.1,1.6,0.7c0.2,0.7-0.7,0.7-1.1,1.1c-0.8,0.9-0.6,2.3-0.7,3.3c-0.3,0.9-0.3,1.9-0.1,2.9
				c0.1,0.4,0.5,0.6,0.6,1.3c0,0.6-0.1,1.2-0.3,1.7c-0.1,0.5-0.7,0.6-0.1,0.9s1.2-0.6,1.7,0c0.7,0.9-1.1,2.4-0.4,3.4
				c0.8,1.2,0.8-1.2,1.7-1.2c1.2,0,0.1,2.1,1.1,2.3c0.1-1.3,0.2-2.7,0.2-4c0.1-1.2,0.9-2.1,1-3.4c0.1-1.6,0.1-3.4,1.4-4.6
				s1.6,1.5,2.4,2.3c0.5,0.5,0.7,0.4,0.8,1.1c0.1,0.5,0.1,0.9,0,1.4c-0.2,1.5-1,0.8-1.7,1.8c1,0.1,2.4-0.5,2.2,1.1
				c-0.1,0.8-0.9,1.2-1.4,1.7c-0.9,0.6-1.5,1.5-1.7,2.6c-0.1,1.5,0.9,0.8,1.8,0.4c1.6-0.8,1.4,0.3,1.9,1.4c0.4,0.8,1,0.5,1.5,1.2
				c0.4,0.5,0.3,1.5,0.3,2.1c0.1,1,0.4,1-0.4,1.8c-0.3,0.3-0.7,0.5-1.1,0.7c-0.2,0.4-0.3,0.8-0.3,1.2c-0.3,0.5-0.9,0.5-1,1.1
				c0.5,0.3,3.4,0.1,3.2,1.2c-0.1,0.8-1.4,0.3-1.9,0.3c-0.3,0-0.8-0.3-0.9,0.2c0.4,0.5,0.8,0.9,1.2,1.3c0.4,0.6,1.1,0.9,1.9,1
				c0.5,0,0.8-1,1.5-0.4c1.8,1.5-2.3,2.1-2,3.1c0.2,0.6,0.9,0.5,1.4,0.4c1-0.1,0.9-0.3,1.3,0.5c0.6,1.3-0.2,3,0.4,4.3
				c0.3,0.8,1.2,0.8,1.6,1.5s-0.1,1.5-0.3,2.1s-0.7,1.2-0.4,1.8s0.8,0.6,1,1.3s-0.3,1,0.1,1.8c0.2,0.3,0.4,0.5,0.6,0.7
				c0.4,0.4,1,0.9,1.4,1.3c0.8,0.7,2,1.2,2.7,2.1c0.7,1.1,1.1,2.4,1.1,3.8c-0.1,0.8-0.3,1.6-0.5,2.4c-0.1,0.8,0.1,0.7,0.2,1.3
				c0.1,0.7,0.1,1.3,0.1,2c-0.1,1.7,0.5,1,1.7,1.6c0.9,0.5,1.5,1.4,2.4,1.9s1.9,0.4,2.7,0.9c1,0.7,0.8,1.9,1.8,2.6
				c0.3,0.2,0.5,0,0.7,0.3s0.1,0.8,0.4,1.3c0.5,0.7,1.3,0.5,2,1c1,1,1.7,2.3,1.8,3.8c-0.1,1,0,2,0.2,3c0.3,0.9,0.3,1.8,0.5,2.8
				c0.3,1,0.7,1.9,1.3,2.7c0.7,0.6,1.2,0.1,1.6,1c0.2,0.9,0.2,1.8,0,2.8c0,1.4,0.4,1,1.2,1.6c0.7,0.5,0.6,0.2,0.9,1.1
				c0.2,0.5,0.1,1.4,0.4,1.8c0.7,0.7,3,0.3,3.9-0.3c0.5-0.3,1-1.3,1.6-1.3c0.3,0,1.1,0.8,1.5,0.9c0.8,0.3,1.2,0,1.7,0.8
				c0.3,0.6,0.5,1.3,0.5,2c0.1,0.7,0,1.4,0.2,2c0.3,1,0.7,2,1.2,3c1.2,3.1,1.3,6.5,0.3,9.7c-0.9,2.8-3.1,6.1-6.4,4.1
				c-1.5-0.9-2.5-2.3-4.4-2.4c-1.6-0.2-3.1,0.6-3.9,2c-1.2,1.7-2.3,5-0.4,6.5c1.1,0.9,2.6,1.4,3.8,2.2c1,0.7,1.7,1.8,1.7,3
				c0.3,1.1,0.7,2.1,1.2,3c0.2,0.8,0.7,1.6,1.3,2.3c0.6,0.6,1.5,1.1,1.9,1.9c0.7,1.3-0.2,3.2-1.1,4.3s-1.2,0.7-2.4,0.5
				c-0.4-0.1-0.8-0.1-1.2-0.1c-0.9,0-1.1,0.6-1.8,0.8c-1.5,0.3-2.3-2.7-3.1-3.4c-1.5-1.5-3.8-1.5-5.5-2.6c-1.3-0.9-3.2-2.8-5-2.4
				c0,0.9,1.4,1.5,2,2c0.7,0.8,1.2,1.7,1.6,2.7c0.9,2.1,1,4.4,1.6,6.6c0.6,1.9,0,4.4,1.1,6c1,1.7,2.1,3.4,3.2,5
				c1.2,1.5,2.4,3.1,3.5,4.7c0.5,0.8,0.7,1.9,0.6,2.8c-0.2,1.3,0.2,2.5,1,3.5c0.5,0.9,0.9,1.8,1,2.8c0.4,1.1,0.9,2.2,1.6,3.1
				c0.6,0.9,1,1.9,1.2,3c0.3,1.3,0.2,3.4,1.1,4.4s2.2,0.2,3.4,1.3c1.2,1.2,2,2.7,2.5,4.4c0.4,1.3,0.9,2.8,0.1,4
				c-0.5,0.7-1.5,1-1.3,1.9c0.4,1.8,1.6,0.5,2.5,0.8c1.1,0.4-0.3,2.3,1.1,2.5c0.7,0.1,1-0.8,1.8-0.2s0.8,2.4,1.2,3.2
				c0.4,0.5,0.8,1.1,1.1,1.7c0.4,0.9,0.2,1.1-0.1,2.1s-0.2,1.9-0.6,2.7c-0.5,1.3-1.6,1.3-2.4,2.1c-0.5,0.8-1.1,1.5-1.8,2.1
				c-0.6,0.3-1.1,0.6-1.7,1c-1.3,1.3-1.4,3.5-0.9,5.1c0.7,1.9,1.6,3.8,2.6,5.5c0.5,1,1.7,2.9,1,4.1c-0.5-0.3-0.3-0.9-0.7-1.3
				c-1.3,0.9,0.3,3-1.1,3.9c-1.4,0.6-3,0.2-3.9-1.1c-0.2,0.6-4.7,5.4-1.8,5.3c0.6,0,1.3-1.1,1.9-1.3c0.9-0.3,0.9,0.2,1.7,0.6
				s0.5,0.3,1.1,0.1c1-0.5,0.8-1.7,2.1-1.3c2.2,0.7,3.8,4.1,6,4.2c1.1,0,1.7-1,3-0.9c1.6,0.2,3.1,1.5,4.5,2.3
				c2.8,1.7,6.9,2.7,9.7,0.5c1.3-1,2.4-2.2,3.6-3.2c1.1-0.9,2.6-1.3,4-0.9c1.3,0.2,2.6-0.4,3.2-1.6c0.4-0.7,0.9-1.4,1.5-2
				c0.9-0.4,1.8-0.7,2.8-0.9c1.2-0.3,2.4-0.4,3.6-0.4c1.4-0.1,3.3,0.4,4.6,0.1c1-0.2,1.6-1.2,2.6-1.5c1.6-0.4,3.3,0.9,4.5,1.8
				c0.8,0.5,1.5,1.1,2.2,1.8c0.5,0.6,0.7,1.1,1.5,1.4s1.7,0.1,2.5,0.4c0.8,0.3,1.7,0.5,2.6,0.5c3.7-0.1,4.1-3.7,5.4-6.4
				c1.3-2.5,3.3-4.7,4.9-7c0.7-0.9,1.3-1.9,1.6-3c0.3-1.3-0.9-3-1.4-4.2c-0.9-1.6-1.9-3.1-3-4.5c-1.2-1.9,0.1-3.7-0.7-5.5
				c-0.5-1.4-2.2-1.9-3.1-3c-0.8-1.2-1.3-2.6-1.4-4.1c-0.2-3.2,0.2-6.4,1.1-9.5c0.7-2.5,1.6-6.2,3.9-7.9c0.5-0.4,1.3-0.6,1.7-1.1
				s0.4-1.3,0.5-2c0.3-2.2,1.9-2.9,3.4-4.2c0.6-0.7,1.1-1.4,1.6-2.2c0.6-0.8,1.5-1.2,2-2.2c0.4-0.8,0.2-1.7,0.6-2.5
				c0.5-1,1.2-0.4,2.2-0.7s2.4-3.1,3.1-1.5c0.2,0.4-0.4,1.6,0.4,1.5c0.6-0.1,0.6-1.3,1.4-1.5c0.2,0.5-0.1,1.2,0.1,1.7
				c0.3,0.7,0.7,0.5,0.8,1.2s-1.2,2.4-0.1,2.4c0.3,0,0.4-0.4,0.7-0.5c0.5-0.1,0.6,0,1.1,0.1c0.2,0,0.7,0.3,1,0.2
				c0.6-0.1,0.4-0.5,0.8-0.9c1.5-1.4,0.5,1,1.8,1.2c0.4,0.1,2.6-3.1,2.6-3.7c-0.2-1-0.6-1.9-1.1-2.7c-0.5-0.6-1.2-0.9-1.5-1.7
				s0.2-1.7-0.3-2.5c-0.3-0.5-0.9-0.6-1.2-1.1c-0.4-0.6-0.6-1.3-0.6-2.1c0-0.9,0.1-2.8,1-3.3c0.6-0.4,1.4,0.2,2,0.3
				c0.9,0.1,1.8-0.4,2.7-0.3s1.2,0.5,1.6,1.3c0.2,0.4,0.6,1.5,1.2,1.3c1.1-0.4-0.3-2.4,0.9-2.9c0.6-0.3,0.9,0.2,1.4,0.5
				c1,0.7,0.7,0.5,1.7,0c1.6-0.7,3.5-0.7,5.1,0c0.6,0.3,1.9,1.7,2,0.4c0.1-0.8-1.2-0.9-0.7-2c0.2-0.4,1.9-1,2.4-0.5
				s-0.1,1.5,0.5,2.2c0.4,0.4,1.1,1,1.8,0.9s0.9-1.6,1.6-1.6c0.5,0,0.2,0.5,0.5,0.8c0.7,0.7,3.5,1.2,4.3,0.4c0.5-0.4,1-3.1,2-1.6
				c0.3-0.4,0.4-1,0.8-1.4c0.2,0.8,0.6,1.5,0.9,2.3c0.6,1.4,0.1,0.6-0.6,1.2c-0.5,0.4-0.5,1.2,0,1.5c0.9,0.4,0.9-1.2,1.8-0.6
				c0.4,0.3-0.3,0.5,0.5,0.9s1.2-0.3,1.5-0.8c0.5-1,0-2.3,0.8-3.3c0.9-0.8,2.2-0.7,3,0.1l0.1,0.1c0.5,0.5,0.8,2.9,1.8,2.4
				c0.8-0.4-0.1-2.1,0.4-2.7c0.3-0.4,1.1-0.4,1.5-0.6c0.3-0.2,0.5-0.5,0.8-0.8c0.2-0.2,0.3-0.6,0.6-0.7s0.6,0.2,0.8,0
				c0.6-0.3,0.8-1.2,1.6-1c1,0.3-0.2,2.3-0.4,2.9c-0.3,0.9-0.2,2.5,1.3,1.6c1-0.5,0.8-2.2,1.6-2.8c1-0.8,0.8,0.5,1.2,0.9
				s0.5,0.1,1,0.1s0.5-0.4,0.9,0c0.6,0.5-0.3,1.4,1.1,1c-0.1,1.8,0.6,0.6,1.3,0.8c1.1,0.2,1,2.3,2.5,0.8c0.4-0.5,0.2-0.9,1-1
				s0.9,0.6,1,1.4c0.2,1,0,1.9-0.5,2.8c-0.9,1.2-2.5,1.3-0.6,2.5c0.7,0.4,0.8,0.1,1.3,1c0.2,0.4,0.4,1.5,1,1.5
				c0.9-0.1,1.1-2.2,1.4-3c1-2.9,2.7-5.4,3.8-8.2c0.2-0.7,0.5-1.4,1-1.9c0.4-0.3,1-0.4,1.4-0.7c1.3-1,0.7-2.7,1.5-3.9
				s1.4-1.3,1.4-2.8c-0.1-1.4-0.1-2.7,0.1-4.1c0.4-1.6,1-3,1.3-4.6c0.4-2,0.6-4,0.8-6c0.1-1.3,1-2.1,1.3-3.4c0.3-1.4,0.7-2.7,1.3-4
				c0.7-1.4,1.2-2.8,1.6-4.2c0.2-0.8,0.2-1.5,1-1.9s1,0.2,1.4-0.5s0.2-2.4,0.1-3.3c-0.1-1-0.2-2.1-0.1-3.2c0.2-1.4,1.1-2.4,1.7-3.7
				c0.4-1,0.8-2.4,2.1-2.5c1.5-0.1,1.4,1.8,3.1,1c1.1-0.4,1.8-1.3,1.9-2.5c0-1.1-0.1-2.1-0.3-3.2c-0.1-0.3-0.2-0.7-0.3-1
				c0-0.8,0.4-1.3,0.2-2.1s-1.5-2.1-0.7-3c0.4-0.4,0.8-0.1,1.2-0.3c0.3-0.1,0.4-0.7,0.6-0.9c0.5-0.1,1-0.2,1.5-0.3
				c1,0.3,1.3,1.8,2.4,0.6c0.4-0.7,0.6-1.5,0.4-2.2c-0.4-0.8-0.6-0.6-1.3-0.1c-0.9,0.6-1.5,1.3-2.1-0.1c-0.3-1.2-0.1-2.4,0.3-3.6
				c0.3-1.2,0.9-2.4,1.2-3.6c0.2-1.2,0.2-2.3-0.1-3.5c-0.2-1.3,0.1-2.7,0.9-3.7c0.4-0.6,1.1-1.5,0.8-2.3c-0.2-0.6-0.9-0.7-1.1-1.2
				c-0.4-1.1-0.5-2.2-0.3-3.4c0-0.6-0.4-5.3,1.6-3c-0.1-0.9-2.5-3.1-0.8-3.2c0.8-0.1,1.3,0.9,2,1.1c0.9,0.2,0.6-0.4,0.9-1.2
				c0.1-0.4,0.3-1.3,0.9-1.2c0.8,0.2,0.3,1.3,0.7,1.7c0.6,0.3,1.3,0.3,2,0.2c0.5-0.4,0.2-0.7-0.1-1.2s-0.9-0.7-1.1-1.3
				c-0.4-0.9,0.1-0.9,0.5-1.6c0.5-0.9,0.3-0.4,0-1.2c-0.3-0.8-0.6-1.6-0.9-2.3c-0.6-0.9-0.5-0.1-1.3-0.2s-0.7-1-1-1.6
				c-0.6-1.3-1.8-2.3-2.2-3.7c-0.2-0.8-0.3-1.6-0.3-2.4c-0.1-0.9,0-1.7,0.4-2.5c0.2-0.7-0.1-1.4,0.4-1.9s1.2-0.1,1-1.1
				c-0.1-0.6-0.9-1.2-1.1-1.9c-0.2-0.8-0.2-1.7,0-2.5c0.6-1.4,1.8-2.5,3.3-2.9c0.4-0.1,1.4,0.1,1.5-0.4s-1.3-0.8-1-1.6
				s1.2,0.2,1.5-0.5c0.2-0.4-0.5-1.1-0.7-1.4c-0.7-0.9-1.5-1.9-0.8-3.1c1.2-2,3.8,1.2,4.8,0c0.4-0.5-0.6-1.4-0.4-2
				c0.2-0.9,1-0.6,1.7-1c1.4-0.7,0.2-0.8-0.5-1.3c-0.5-0.4-0.7-0.9-0.7-1.5c-0.1-0.6-0.4-0.9,0.3-1.4s1.4,0.5,1.7-0.6
				c0.1-0.6-1.1-2-0.5-2.4s0.9,0.6,1.3,0.9c1.6-1.7-1.8-3.9-2.1-5.5c-0.1-0.5,0.1-1,0-1.5s-0.6-0.7-0.7-1.1s0.2-0.9,0-1.2
				c-0.5-0.6-2.6-1.2-2.7,0c-0.6-2.1-1.3-0.8-2.8-1c-1-0.2-1-0.6-0.3-0.9c0.4-0.2,1.6,0.2,1-0.7s-1.6-0.3-0.9-1.5
				c0.2-0.4,0.8-0.3,0.8-1c-0.2-0.8-0.6-1.6-1-2.4c0.6,0.9,1.1,0.9,1.7,0c0,0.6-0.3,3.1,0.2,3.5c0.8,0.7,0.8-1.1,1-1.4
				c0.4-0.5,0.6-0.1,1.2-0.4c1.2-0.5,2.1-2.4,1.1-3.4c-0.6-0.6-2-0.8-1.9-1.9c0.7-0.1,1.5,0.4,2-0.2c0.3-0.5,0.3-1.1,0-1.6
				c-0.1-0.3-0.5-0.3-0.6-0.4s-0.3-0.6-0.5-0.9c-0.5-0.7-1.5-1-1.5-2c1.1,0.6,2.2,2,3.5,2.2c0.7,0.1,1.3-0.3,2-0.3
				c0.4,0,1.2,0.4,1.5,0c0.4-0.5-0.4-0.5-0.5-0.9c-0.1-0.4,0.1-1,0.8-0.7c-0.1-0.7-0.4-1.4-0.9-2c-0.7-0.8-1.1-0.5-2.2-0.8
				c0-0.6,0.5-0.9,0.4-1.4c-0.1-0.3-0.8-0.5-1-0.7c-0.8-0.6-1-1.5-1.7-2.2c-0.4-0.4-0.9-0.6-1.2-0.9c-0.5-0.7-0.8-1.4-1-2.2
				c-0.3-0.7-0.7-1.4-1.3-1.9c-2.7-2.4-6.9-4-6.7-8.3c0.6,1,1.4,1.8,2.3,2.6c1,1,2.4,1.6,3.2,2.8c1.1,1.3,2.2,2.5,3.4,3.7
				c0.6,0.6,1,1.3,1.3,2c0.4,1.1,0.3,1.7,1.3,2.4c0.8,0.5,1.6,1.1,2.1,1.8c0.3,0.3,0.7,1.1,1.2,0.9c0.8-0.4-1.5-3.3-1.9-3.9
				c-2.3-3.3-4.8-6.4-7.5-9.3c-0.7-0.7-1.5-1.3-2.3-2c-0.2-0.2-1-0.8-1-1.2c0-0.6,0.4-0.2,0.9-0.2c1.7,0.1,0.4,0,0.5-1.2
				c0.1-1.2,1.6,0.2,2.2,0.6c0.3,0.2,2.1,1.7,2.5,1.5c0.7-0.4-0.2-2.9,0.1-3.6s1-0.5,0.4-1.3c-0.7-1-2.4-1.5-3.3-2.4s-2.2-3.1-0.8-4
				c1-0.7,1.1,1.2,2,1.7c0.2,0.2,0.7,0.1,0.9,0.2c0.5,0.4,0.4,0.9,0.6,1.4c0.3,0.6,0.7,1.2,1.2,1.7c0.4,0.5,0.8,1,1.2,1.5
				s1.4,0.9,1.6,1.5c-0.4-0.2-1.7-0.9-2-0.6s0.3,1.4,0.3,1.8s-0.3,1.3,0.1,1.7s0.6-0.1,1.1-0.1c0.9,0,0.7,0.9,1.4,1
				c1.1,0.3,1-2.3,1-2.6c0.1-0.9,0.2-1,0.8-0.6c0.8,0.6,0.8,2.6,1.4,3.5c0.3,0.7,1.2,1,1.9,0.7c0.5-0.2,0.8-0.7,0.8-1.2
				c0.1-0.9-3.6-4-2.4-4.5c0.9-0.4,1.8,2.6,2.8,1.7c0.6-0.5-0.4-1.5-0.8-1.8c-0.7-0.5-1.2-1.4-1.2-2.2c0-0.6,0.1-1.9-0.5-2.4
				c-1-0.8-0.4,0.7-0.8,1.1c-1.1,1.2-1.1-2.8-2.2-2.7c-0.1,0-0.5,0.8-1.1,0.9c-0.6,0-1.2-0.2-1.6-0.6c-0.9-1.1,1.3-0.1,1.7-0.4
				c0.9-0.7-0.7-1.6-1.1-2.1c-0.9-1.3,0.8-2.6,0.8-4.1c0.7,1.7,0.2,4.7,2.5,5.2c-0.1-0.9-1.7-2.3,0.5-2.3c0.6,0,1.6,1,2,0.8
				c0.8-0.3,0.1-2.4-0.1-2.9c-0.7-1.8-1.6-1.2-3.3-1.5c0-0.6,1.5-0.3,1.8-0.6c0.4-0.5-0.1-0.6,0-1s0-0.3,0.2-0.6s0.7-0.2,0.9-0.6
				c0.3-0.9,0-1.8-0.6-2.5c-0.7-0.5-1.3,0.1-1.9-0.6c-0.5-0.6-1.9-2.9-1.5-3.7s1,0.1,1.3-0.3s-1-1.6-1.2-1.8c-0.4-0.4-3.4-3.6-2.1-4
				c0.9-0.3,2.5,2.1,2.9,2.7c1.1,1.4,2.1,2.8,3.1,4.2s1.8,1.2,3-0.2c0.5-0.4,0.8-1.1,0.7-1.8c-0.1-0.6-0.5-0.4-0.7-0.8
				c-0.3-0.6-0.5-1.5,0.2-1.6c0.3,0,0.8,0.7,1.2,0.5c0.6-0.2,0.4-1.6,0.3-2c-0.2-0.6-0.5-1.1-0.8-1.6c-0.4-1,0-1.4,0-2.5
				c-0.6-0.2-1.2,0.4-1.1-0.4c0-0.6,0.8-0.6,0.4-1.3c-0.6-1.1-3.2-1.3-4.2-2.1c-0.6-0.5-0.8-0.5-0.5-1c0,0.1,0.8,0,0.8,0
				s0-0.5,0.1-0.6c0.4-0.2,0.8,0,1.1-0.1s0.8-1.3,1.2-1.7c0.6-0.8,2.5-2.1,0.9-2.7c-0.8-0.2-1.7,0-2.4,0.5c-0.9,0.8-0.4,1.5-0.8,2.3
				c-0.8,1.3-1.7,0.2-1.7-0.8c0-1.3,0.5-1.5-0.5-2.4c-0.7-0.6-1.9-0.9-2.5-1.6c-0.7-0.9,0.2-0.5,1-0.3c0.9,0.1,1.8,0.2,2.6,0.4
				c0,0,0.4,0.6,0.6,0.6c0.4,0,0.3-0.5,0.5-0.6c0.8-0.3,0.3,0,1.1,0.2c1,0.2,1.3-0.4,1.2-1.4c0-0.5-0.1-1-0.4-1.5
				c-0.5-0.5-0.1-0.3-0.6-0.1s-2,1.8-2.7,0.8c-0.3-0.4,0.6-2.1,0.7-2.5c0.4-1.1-0.1-2.2-1.2-2.7c-1-0.4-2.1,0-3-0.3
				s-1.4-1.2-2.2-1.8c-0.4-0.3-0.6-0.7-1.2-0.6c-0.2,0-0.8,0.5-1,0.4s-0.4-1.2-0.6-1.5c-0.8-0.9-2.5-1.3-3.5-1.7
				c-0.6-0.3-3-0.8-3.4-1.4c-0.1-0.2,0.7-0.5,0.8-0.5"/>
			<path id="path1881" class="st1" d="M31.4,382.5c0.7,0.9,1.4,2.2,2.8,2c1.2-0.3,2.3-0.8,3.3-1.4c0.7-0.5,1.4-0.8,2.3-1
				c0.7,0,1.1,0.3,1.7,0.5c1.9,0.6,3.6-0.2,5.5,0.9c1.6,0.9,2.8,2.2,4.7,2.5c2.2,0.3,4.4,0.8,6.6,1.4c0.9,0.2,1.8,0.6,2.6,1.1
				c0.6,0.7,0.2,1.1,0.2,1.9c0.1,0.8,0.4,1.6,1,2.2c0.9,0.9,1.5-0.1,2.6,0c1.6,0.1,2.6,1.1,3.7-0.4c0.7-1,0.7-1.9,2.1-1.8
				c0.7,0.1,1.5,0.8,2,0.6c0.3-0.1,0.6-0.8,0.8-1c0.5-0.4,1-0.8,1.5-1.3c0.6-0.7,0.8-2.2,1.6-2.6c0.7-0.3,1.4,0.2,2-0.3
				c1.4-1.1,0.8-7.2,4-5.1c0.7,0.3,1,1.1,0.9,1.8c-0.4,1.2-1.2,0.2-1.9,0.7s0.1,0.9,0.5,1.4c0.6,0.7,0.8,0.9,0.5,1.9
				c-0.5,1.5-0.7,2.3,1.2,1.7s2.4,0.1,3.3,1.8s1.7,1.3,2.1-0.5c0.3-1.2-0.2-2.5-1.2-3.3c-0.3-0.3-1.5-0.9-1.6-1.4
				c-0.2-1.8,2.7,0.2,3.2-0.1c0.9-0.5-0.8-4.2-0.9-5.1c-0.1-2-0.3-4.6-2.4-5.5c-2.4-1-5.1-1.7-6.1-4.3c-0.2-0.4-0.2-1.2-0.7-1.4
				s-0.5,0.1-0.9,0.5c-0.8,0.8-1.3,0.7-2.4,0.8s-3.6,1.8-4,0.1s2.6-1.8,3.6-2.3c1.2-0.6,1.8-1.9,1.3-3.1c-0.3-0.8-0.6-1.5-1-2.3
				c-0.6-1.3-1.5-0.5-2.3-1.3c-0.4-0.3-0.4-0.9-0.1-1.3c0,0,0,0,0,0l0,0c0.6-1,1.8,0.2,2.3-0.4c0.8-0.9-1-0.5-1.3-1.2
				c-0.5-1.3,2.7-2.5,3.3-3.2c1.2-1.4,1.2-2.5,2.7-0.8c0.6,0.7,0.4,1,1.3,0.5c0.8-0.6,1.4-1.3,1.9-2.1c0.6-1.1,0.5-2.3,1.2-3.4
				c0.8-1.3,1.8-2.3,0.2-3.6c-0.7-0.6-1.5-1-2.3-1.7c-0.4-0.4-0.7-0.7-1.3-0.5c-0.4-1.2,1.9-1,1.2-2.4c-0.2-0.4-0.9-0.2-1.1-0.7
				c-0.1-0.2,0.4-1,0.5-1c0.2-0.9,0.1-1.8-0.1-2.6c0-0.7-0.2-1.3-0.5-1.9c-0.2-0.3-0.7-0.1-0.9-0.6c-0.3-0.8,0.7-1.6,0.7-2.4
				c0-1.1-1.3-1.8-1.1-3.1c0.3-2,3.1-1.3,3.8-3.4c0.5-1.7-0.5-3.5-2.2-4c-1.6-0.4-2.9,0.6-4.5,0.8c-1.3,0.1-3-0.5-1.2-1.5
				c0.8-0.4,2.3-0.4,2.7-1.3c0.2-0.4-0.5-1.4,0.3-1.5c0.6-0.1,1.5,1.2,2.3,1.2c1.1,0,1.5-1.1,2.6-1.4c0.8-0.2,1.7,0.2,2.3-0.6
				s-0.1-1.8,0.3-2.5s0.6-0.3,1.3-0.4c1.6-0.2,1.5-1.8,2.3-3s4.3-2.3,3.7-3.7c-0.8-1.7-4.1,0.3-5.4,0c-2-0.6-0.5-2.8-1.9-3.8
				c-0.8-0.5-1.5-1.1-2.2-1.8c-0.7-0.9-1.2-1.9-2.4-2.1s-3.4,0.6-3.9-0.9c-0.3-1,0.9-0.6,1.5-0.6c1.2,0,2.4-0.5,3.7-0.4
				c2.3,0.2,2.9,2.6,4.9,3.3c0.9,0.3,1.8,0.5,2.7,0.8c0.5,0.3,1.1,0.4,1.7,0.2c1-0.2,1.7-1.1,2.6-1.6c1.2-0.5,2.4-1,3.7-1.4
				c0.6-0.2,1.2-0.4,1.7-0.6c0.2-0.1,0.5-0.1,0.7-0.2c0,0,1.1,0.3,0.6,0.3c2,0,0-1.2,0.2-2.4c0.2-0.7,3.8-1.9,2.8-2.7
				c-0.7-0.7-2,0.8-2.4-0.8c0-0.7,0.2-1.4,0.5-2c0.3-0.9,2-3.6,1.1-4.3c-0.2-0.2-0.9,0.1-1.2,0c-0.1,0-0.3-0.3-0.4-0.3
				c-0.5-0.2-1-0.3-1.5-0.4c-1.6-0.2-3.1-0.5-4.7-1c-0.7-0.3-2.2-1-1.2-1.9c0.6-0.5,2-0.2,2.7-0.1c1.3,0.1,1.9,0.2,2.6-0.9
				c0.6-0.9,0.5-1.6,1.7-1.7c0.2,0,0.4,0.1,0.7,0.1c0.6-0.1,1.2-0.2,1.8-0.4c1.2-0.2,3.5,0,4.2,1.3c0.5,0.9,0.2,2,0.9,2.9
				c0.3,0.4,1.5,1.6,2,1.5c0.7-0.1,0.8-2.3,0.9-2.8c0-0.9-0.9-1.8-0.7-2.7c0.2-0.7,0.5-0.6,1.1-1c0.5-0.2,0.8-0.5,1.1-1
				c0.9-0.9,1.3-2.1,1.3-3.3c0-1.1,0.3-2,0.3-3.1s-0.7-2.2-0.4-3.4c0.2-0.9,1.8-2.6,1.6-3.4c-0.3-1.7-1.8,0.5-2.5,0.6
				c0.3-1.3,1.4-2.2,1.5-3.6c0-1.3-0.4-2.7-1-3.9c-0.7-1.5-1.1-2.2-0.6-3.9c0.2-0.6,0.4-1.3,0.4-2c0-0.8-0.4-1.5-0.4-2.2
				c0.1-2.3,2.8-4.2,3.9-6c0.8-1.2,0.7-2.6,1.5-3.7c0.4-0.5,1-0.9,1.3-1.5s0.5-1.5,1.1-1.9c1.3-1,6.7,1.5,5.1,3
				c-0.5,0.5-1,0.1-1.5,0.8c-0.9,1.2-0.3,2.5-0.4,3.6c0,0.3-0.5,1.6-1,1.4s-0.2-0.9-0.4-1.2c-0.6-1-1,0.1-1.6,0.6s-1.3,0.3-1.9,0.7
				c-1.6,0.9,0.3,2.2,0.9,3.1s0.5,3.2,2,2.3c0.5-0.3,0.8-1.1,1.2-1.6c0.2-0.3,0.4-0.5,0.6-0.7c0.7-0.4,0.4-0.1,1.1,0.2
				c1.3,0.5,2.9,0.6,2.7,2.3s-0.7,0.3-1.6,0.9c-0.6,0.4-0.3,1.2,0.1,1.7l-0.2-0.4c0.6,1.2,2,5.4,3.8,2.5c1.1-1.7-0.7-3.6-1.3-5.1
				c-0.4-0.8-0.3-1.7,0.3-2.4c0.4-0.4,0.8-0.9,1.1-1.3c0.2-0.7,0.5-1.5,0.9-2.2c1.1-1.5,3.9-1.7,4.9-0.1c0.4,0.5,0.5,1.2,0.3,1.9
				c-0.4,0.9-1,0.5-1.5,0.9c-0.7,0.6,0.3,1.4,0.8,2c0.6,0.8,1,2.8,2.1,3c2.4,0.3,1.5-5.1,1.6-6.3c0.2-3.1,2.6-4.7,4.1-7.1
				c0.8-1.2,1.2-2.5,2.1-3.7s1.8-1.8,2.6-2.7c1.7-2,0.5-4.9,1-7.3c0.2-1.1,0.7-2.2,1.5-3c0.7-0.9,1.2-1.6,0.5-2.6
				c-1.3-1.9-3.9-2.3-4.6-4.6c0-2.3-1.8-4.2-4.1-4.4c-1.2-0.2-2.1,0.8-3.3,1c-1.5,0.3-3,0-4.5,0.3c-1.3,0.3-2.5,0.9-3.8,1.3
				c-2.4,0.9-5,0.4-7-1.1c-1-0.6-2-1.3-2.8-2.1c-0.7-1-1.3-2.1-1.8-3.3c-0.2-0.5-0.5-1.9-0.9-2.2c-0.9-0.6-1.5,0.9-2,1.5
				c-0.8,0.9-2.3,1.3-2.9,2.3c-0.3,0.8-0.4,1.6-0.3,2.5c-0.2,2.1,0,4.2,0.5,6.2l-2.6,0.4c0-0.9,0.9-1.7,1.1-2.6
				c0.1-1,0.1-2.1-0.1-3.1c-0.1-1.2,0-2.5,0.5-3.6c0.9-1.6,1.9-3.1,3.1-4.4c0.6-0.7,1.3-1.3,2.2-1.7c1.2-0.3,1.8-1.6,1.5-2.7
				c0-0.1-0.1-0.2-0.1-0.3c-0.4-1.3-1.9-1.7-2.7-2.8c-0.7-0.9-1.3-2.6-2.4-2.8c-1-0.1-1.2,0.7-1.9,1.1c-1.5,0.9-2.1,0-2.7-1.3
				c-0.1-0.3-0.7-1.1-0.3-1.5c0.6-0.5,1.8,0.9,2.5,1c0.9,0,1.4-1,2.4-1s1.3,0.7,2,1.1c1.2,0.8,2.1,0.3,2.3-1.2s-0.9-2.1-1.4-3.3
				c-1.6-3.7-2.4-7.6-2.3-11.6c0-2.3,0.2-4.6,0.6-6.9c0.3-1.6,1.1-3.4,1-5s-1-0.6-2.4-0.7c-2.6-0.1-3.9-1.5-5.2-3.5
				c-1.2-1.8-3.4-2.5-4.8-4.2c-0.7-1-1.5-1.9-2.5-2.5c-1.4-0.7-1.7-0.1-2.5,0.9c-0.3,0.3-0.5,0.9-0.9,1c-0.8,0.3-0.7-0.1-1.5-0.1
				c-0.8,0.2-1.6,0.5-2.4,0.9c-0.6,0.3-1.2,1.5-1.8,1.5c-0.3,0-1-0.8-1.4-0.9c-0.7-0.1-1.4,0-2.1,0.2c-1,0.1-2.5-0.4-3.5,0.1
				s-1.2,1.8-1.5,2.6c-0.2,1-0.7,1.9-1.3,2.6c-0.3,0.3-0.8,0.5-1.2,0.8c-0.5,0.5-0.6,1.3-1.1,1.8c-0.7,0.6-1.4,0.4-1.6,1.5
				c-0.1,0.5,0.3,2.1-0.4,2.2c-0.2,0-0.9-1.6-1.1-1.9c-0.6-1.6,0.1-1,1-1.8c0.8-0.6,1-1.8,0.4-2.7c0,0,0,0,0,0
				c0-0.1-0.1-0.1-0.2-0.2c-1.4-0.7-2.9-1.2-4.5-1.4c-3.8-0.7-7.9-0.8-10.5,2.4c-0.7,0.8-1.5,1.3-2.2,2s-0.8,1.9-1.5,2.8
				c-1.1,1.5-2.9,2.8-2.4,5c0.2,1.1,1.3,1.6,1.8,2.6c0.8,1.9-1,3.1-1.5,4.7c-0.2,1.4,0.1,2.9,0.8,4.1c0.6,1.5,2.6,0.9,2.9,2.5
				c0.3,1.4-0.8,3.4-1.4,4.6s-2.3,2.4-2.5,4c-0.1,0.6,0.1,1.6,0.9,1.4c0.7-0.2,0.9-1.5,1.2-2c0.6-1,2.8-2.4,4-1.6s1.2,2.9,1.3,4.2
				c0.1,1.9-0.6,3.1-0.8,4.9c-0.2,1.3,0,2.6-0.2,3.9s-0.4,2.2,1.3,1.8c0.8-0.2,1.4-1,2.2-1.2c1.2-0.3,1.1,0.3,1.2,1.4
				c0,0.7,0.4,1.5-0.3,1.9s-2-0.5-2.7-0.2s-0.8,1.6-1.6,1.3c-0.6-0.2-1.6-2.7-1.9-3.3c-0.4-0.8-0.5-1.8-0.4-2.7
				c0.2-1.1,0.7-1.2,1.3-1.9c1.6-1.9-1.2-3.3-2.9-2.8c-1,0.3-1.7,1.7-2.8,0.7c-0.5-0.5-0.2-1.3-0.5-1.8c-0.6-1.2-1,0.4-1.2,1.2
				c-0.1,0.4-0.1,0.9,0,1.3c0.1,0.3,0.8,0.8,0.6,1.1s-1.3-0.2-1.9,0.1c-1.3,0.8-0.4,3.2-0.8,4.4c-0.5,1.6-1.6,0-1.9-0.9
				c-0.6-1.7-0.7-3.5-0.2-5.2c0.4-1.6,2-2.3,2.8-3.7c1-1.7,1.7-3.5,2.2-5.4c0.5-2-0.9-3.2-1.5-5.1s-1.1-5.6-3.6-5.4
				c-0.5,0-1,0.3-1.4,0.6c-0.4,0.3-0.5,0.6-1,0.6c-0.7-0.1-1.1-0.9-1.9-1c-1.9-0.1-3.3,2-4.1,3.4c-0.4,0.8-0.8,1.6-1.2,2.4
				s-1,1.2-1.3,1.9c-1.6,3.2,5.1,0.7,3.1,3.6c-0.9,1.3-2.3,0.8-3.7,0.8c-2.2,0.1-2.9,1.9-3.6,3.7c-0.6,1.5-1,3.2-2.8,3.3
				c-0.6,0-1.2-0.4-1.8,0c-1.2,0.8-0.3,1.9,0.3,2.5c0.5,0.7,0.9,1.4,1.3,2.2c0.5,0.7,1.6,0.9,2,1.6c0.4,0.7-0.1,1.3-0.4,2.1
				c-0.5,1-0.4,2.1,0.1,3.1c0.8,2.5-0.8,3.2-3.2,3.3c-1.5,0.1-3.8-0.1-4.5-1.6c-0.5-1,0.4-1.9,0.1-2.9c-0.2-0.6-0.7-0.7-1-1.1
				c-0.2-0.5-0.3-0.9-0.2-1.4c-0.1-0.6,0-2-0.8-2.4c-1.1-0.5-0.8,1.2-1.1,1.8c-1.1,2.4-3.5-0.8-4.9-1.3c-0.8-0.4-1.6-0.6-2.4-0.8
				c-0.8,0-1.3,0.4-2.2,0.3c-1.4-0.2-1.8-0.8-2.6,0.6c-0.3,0.5-0.3,1.4-1.1,0.7c-1.8-1.6,2-2.9-1.1-3.6c-0.5-0.1-1.8-0.1-2.1-0.6
				c-0.4-0.6,0.2-1.3-0.3-2s-1.2-0.3-1.4-1.1c-0.1-0.7,0-1.4,0.2-2c0.3-1.6,1.3-3.1,1.6-4.6c0.1-0.6-0.1-1.1-1.1-0.8
				S5.9,196,5.6,197c-0.6,2.6-1.6,5.1-2.4,7.7c-0.8,2.7-1.1,5.5-0.8,8.3c0.3,2.8-0.4,5.6,0.1,8.4c0.2,1.4,0.2,2.8,0.1,4.2
				c-0.1,0.6-0.6,2.7,0.2,2.9c0.5-1.2-0.3-6.5,1-6.7c0,0,1.5,0.5,1.5,0.6c0.2,0.3,0.4,0.6,0.6,0.8c0.2,0.1,0.5,0.1,0.8,0.1
				c1.1,0.4,2.4,0.7,2.3,2.3c0,0.6,0.1,0.6-0.6,0.6c-0.5-0.1-0.9-0.7-1.3-1c-0.8-0.6-1.9-1.4-2.2,0.1c-0.3,2,2.4,3.9,3.5,5.1
				s1.4,2,2.8,2.4c0.3,0.1,1.1-0.1,1.3,0.3s-0.8,1.6-0.9,1.9c-0.2,0.3-0.4,0.6-0.5,0.9c-0.3,0.1-0.6,0.2-0.9,0.4
				c-0.2,0.2-0.2,0.6-0.4,0.9s-0.5,1-1,0.3s0.7-2.4-0.2-3.4s-2.3,0.2-3.2-0.6c-0.2-0.3-0.3-0.6-0.5-0.9c-0.7-0.3-0.5,0.5-1,0.4
				c-1.8-0.1-0.1-3.1-1.4-3.4c-0.3,1.2-0.4,2.4-0.2,3.5c0.2,1.3,0.2,2.5,0.1,3.8c-0.1,1.6,0.6,3,0.6,4.7c0,3-0.2,5.9-0.8,8.9
				c-0.5,1.5-0.8,3.1-1,4.7c-0.1,1.8-0.1,3.7-0.1,5.5c0,0.6,0.5,9.7,2.3,8.1c0.5-0.4,0-1.1-0.1-1.5c-0.4-1.1-0.5-2.2-0.4-3.3
				c0.1-1.2,0.4-2.3,0.5-3.5c0-0.6,0-1.1-0.2-1.7c-0.2-0.7-0.9-1.3-0.9-2.1c0.2-2.2,3,1,3.9,1.3c2.2,0.9,4,2.6,5,4.7
				c0.8,2,0.5,4.1,1.7,6c1.3,2.1,2.8,3.6,3.3,6.2c0.3,0.9,0.4,1.8,0.5,2.8c-0.2,0.4-0.5,0.7-0.9,1c-1.1,1.2-2.2,2.5-3.3,3.6
				c-1.1,1.1-2.5,2-3.9,2.7c-0.7,0.4-2.1,2-2.8,1.8c-1-0.3-0.4-2.7-0.2-3.4c0.5-1,0.6-2.2,0.1-3.2c-0.5-1.2-0.8-2.5-1-3.8
				c-0.3-1.8-0.1-4.3-1-5.9c-0.4,4,0.5,7.7,0.9,11.6c0.4,3.3,0.6,6.7,0.8,10c0.1,3.7-1,6.8-1.7,10.5c-0.4,2.3-0.9,4.6-1.6,6.8
				c-0.5,1.4-2.4,3.9-1.7,5.4c0.6,1.3,2.7,1.3,3.9,1.7c1.5,0.5,2.9,1.5,3.9,2.8c0.4,0.5,4.8,6.2,4.9,3.4c0-1.1-1.5-1.8-1.8-2.7
				s-0.1-1.3-1.1-1.6c-0.5-0.2-1.4,0-1.5-0.6s0.9-0.6,1.1-1.1c0.3-0.6-0.3-0.8-0.7-1.3c-1.2-1.2-1.3-2.3,0.1-3.4
				c0.8-0.6,2.8-1.5,3.7-0.7c0.7,0.5,0.2,0.7-0.2,1.1c-0.7,0.9-1,0.4-0.8,1.4c0.5,1.1,1.1,2,1.9,2.9c0.9,1.2,1.7,2.4,2.6,3.7
				c0.6,0.8,1.2,1.6,1.6,2.5c0.6,1.2,0.5,1.8,1.8,1.6c1.1,0,2.2,0.2,3.2,0.5c1.7,0.2,3.5,0.1,4.8,1.4s1.4,3.5,1.5,5.3
				c0.3,1.9,0.7,3.7,1.2,5.5c0.4,2-0.8,3.8-0.7,5.8c0.1,1.1,0.5,2.1,0.5,3.2s-0.1,2.4,0,3.7c0.2,1.5,0.6,2.9,1.1,4.3
				c0.3,1,1.1,2.8,0.5,3.9c-0.7,1.2-2.8,0.6-3.9,0.3s-3.2-0.9-3.3-2.1c-0.1-1.5,2.1-1.7,2.1-2.9c0-0.9-1-1.2-1.7-1.2
				c-0.4,0-0.8,0.2-1.2,0.2c-0.7,0-0.8-0.2-1.4-0.4c-2.6-1-2.1,2.7-2.2,4.2s-0.8,2.6-0.7,4.2c0.1,1.4,0.2,2.8,0.5,4.2
				c0.2,0.6,0.6,1.6,1.3,1.7c1,0.1,1.2-1.5,1.6-1.9c0.8-0.9,1.8,0,1.9-1.8c0-1-1.2-3.7-0.5-4.6s2.5,0.1,3.2,0.4
				c1.2,0.4,2.5,0.2,3.6,0.5c-1.1,4.3-3.1,8.9-2,13.3c0.5,1.9,1.7,3.8,1.7,5.8C31.7,379.8,31.2,381,31.4,382.5z"/>
		</g>
		<ellipse id="Ellipse_16" class="st0" cx="196.9" cy="85.4" rx="13.5" ry="12.3"/>
		<circle id="Ellipse_17" class="st0" cx="263.8" cy="85.4" r="12.3"/>
	</g>
</g>
</svg>
