<svg id="Layer_1" data-name="Layer 1" xmlns="http://www.w3.org/2000/svg" width="479.85" height="419.49" viewBox="0 0 479.85 419.49">
  <defs>
    <style>
      .cls-1 {
        fill: #03e3fc;
      }

      .cls-2 {
        fill: none;
        stroke: #03e3fc;
        stroke-linejoin: round;
      }
    </style>
  </defs>
  <title>location_map</title>
  <g id="Group_326" data-name="Group 326">
    <ellipse id="Ellipse_14" data-name="Ellipse 14" class="cls-1" cx="264.93" cy="312.36" rx="12.31" ry="12.9"/>
    <ellipse id="Ellipse_15" data-name="Ellipse 15" class="cls-1" cx="237.96" cy="304.73" rx="13.49" ry="12.31"/>
    <g id="Group_324" data-name="Group 324">
      <g id="Group_323" data-name="Group 323">
        <path id="path241" class="cls-2" d="M395.57,405.71c1,1.71.14,2.31-.85,3.77s-1.82,2.15-3.63,1.57c-3-.94-5.59-3.25-8.24-4.83-2.87-1.71-7.69-2.39-9.33-5.55-.83-1.6-.53-2.9-.15-4.55a5.55,5.55,0,0,0,.22-2.43c-.2-.87-.82-1.51-.88-2.44-.09-1.6.88-3,1.18-4.52a18.33,18.33,0,0,1,.3-2.77c.31-.83,1.12-1.3,1.41-2.13s-.13-2.05.24-3c.58-1.5,1.69-1.06,2.27.12,1.5,3.06,3.43,5.94,6.82,7.11,1.61.55,3.19.8,4.13,2.38.81,1.37.88,2.88,2.19,3.95s2.78,1.1,4.18,1.65c2,.8,2.06,1.68,1.87,3.71a24.38,24.38,0,0,0,.22,2.47,7,7,0,0,1-.45,1.62c-.18.58-.32,1.2-.54,1.77S395.58,405,395.57,405.71Z" transform="translate(-21.65 -37.01)"/>
        <path id="path243" class="cls-2" d="M208.13,430.45c0-.95-.66-1.61-1.14-2.34-.63-.94-.85-1.05.3-1.46.61-.23,2.27-.24,2.66-.64s.13-1.79.08-2.45c0-.45-.4-1.91-.1-2.3s1.32.48,1.71.82c.64.56,1.22,1.16,1.91,1.66a2.58,2.58,0,0,1,1.35,2.45c.16,1.3.29,1.45,1.53,1.9s.5.9.89,2.24a19.75,19.75,0,0,0,2.26,3.84c.57,1,1.59,2.46,1.43,3.68a1.21,1.21,0,0,1-.8,1.12c-.72.25-.67-.31-1.13.21a4.64,4.64,0,0,0-.39,1.73c-.09,1.22.1,1.39,1.05,1.9.1.05.72-.28.89,0s-.11.75-.21,1a7.71,7.71,0,0,0-.8,2.21c-.06.57.18.45,0,.92a11.35,11.35,0,0,1-1.46,1.15,6.43,6.43,0,0,1-2.6-.52c-1-.51-.7-1.32-1.82-1.33-.58,0-.76.29-1.44,0s-1-.72-1.81-.57c-.46.08-.83.48-1.32.5s-1-.61-1.43-.63c-.82-.05-1.74,1.13-2.41,1.58a16.6,16.6,0,0,0-2.89,2.18c-.66.7-1.22,2.14-2.22,2.1-1.55-.06-3.39-2.7-4.39-3.68a18.27,18.27,0,0,0-2.52-1.84,22.75,22.75,0,0,1-3-2.93,23.26,23.26,0,0,0-9.94-5.54,6.42,6.42,0,0,1-2.94-1.07,8,8,0,0,1-1.71-2.54c-.4-.84-.76-1.48-.19-2.25.79-1.06,1.55-.94.16-1.75,2.1-.19,2.33,2.44,4.42,1.2a5,5,0,0,0,1.82-1.68c.54-1,.05-1.27-.8-1.86a3.92,3.92,0,0,1-1.66-2.41c-.41-1.11-1.34-1.53-1.9-2.51-.93-1.66.85-3.93,1.81-5.2a3.82,3.82,0,0,1,.77-.93c.51-.3.9.19,1.37,0,.71-.26,1.07-1.24,1.91-1.55a11.32,11.32,0,0,1,6.42-.22A3.85,3.85,0,0,1,192,416.3a29.64,29.64,0,0,1,2.29,2.59c.58,1,.49,2.15,1.15,3.1a8.52,8.52,0,0,0,1.7,1.64,46.84,46.84,0,0,0,5.44,3.74,24.21,24.21,0,0,0,3.13,1.11C206.62,428.85,207.2,430.36,208.13,430.45Z" transform="translate(-21.65 -37.01)"/>
        <path id="path245" class="cls-2" d="M223.25,418.58c.91.11.55-.61,1-1.05a1.49,1.49,0,0,1,2,.17c.43.44.32,1.11.53,1.65.48,1.22,1.31,1.19,2.52,1.57a15.31,15.31,0,0,0,3.14.69,2.3,2.3,0,0,1,2.25,1.44c.44.82.68,1.69,1.16,2.5s.93,1.51.55,2.53c-1.19,3.17-5.92,4.29-6.68,7.63-.18.78.26,1.71,0,2.46s-1.36,1.33-1.95,1.93c-1.88,1.93-2.22,4.81-2.09,7.39s1.06,5,1.05,7.41c0,1.8-1.83,1.1-2.68,0-.67-.88-.48-2.64-.92-3.71s-1-2.06-1.36-3.12c-1-2.58-.28-4.1.84-6.51.16-.34.79-1.38.68-1.77-.16-.56-.88-.55-1.11-1s.09-1.13,0-1.57a4.46,4.46,0,0,0-.42-1c-.86-1.68-2.35-3.11-3-4.9-.51-1.45.26-2.7-.62-4.18-1.13-1.91-2.81-1.91-2.66-4.41.07-1.16.48-2.81-.24-3.86-.61-.89-2.52-.24-2.79-1.15s1.57-2,2.14-2.48c1-.82,1.48-.87,2.22.19.45.63.64,1.92,1.71,1.31.85-.5.36-1.66.8-2.3.69-1,1.32.51,1.75,1.25A8.06,8.06,0,0,0,223.25,418.58Z" transform="translate(-21.65 -37.01)"/>
        <path id="path247" class="cls-2" d="M243.19,405.08c1,1.74,1.47,2.15,3.46,2.1a18.35,18.35,0,0,1,4.49.44c2.68.63,5.81,3.21,6.17,6.08.17,1.27-.26,2.94-1.69,3s-2.93-.87-4.14-1.23c-2.69-.81-6.22-1.31-8.18,1.18-1.36,1.74-1.89,4.36-3.66,5.76a2.3,2.3,0,0,1-2.39.4c-.78-.31-1-.87-1.6-1.38s-1.32-.49-1.67-1.29a2.69,2.69,0,0,1,0-1.75c.33-.62,1.45-.76,1.68-1.36.4-1-2.45-2.14-.59-3.07.56-.28,1.41.12,1.91-.26s.12-1.35.49-1.68,2.54.81,3.34.72c1.94-.23,2.32-2.38,2.27-4a4.67,4.67,0,0,0-.37-2c-.26-.42-1.14-.47-1.18-.92C241.45,404.88,242.59,405,243.19,405.08Z" transform="translate(-21.65 -37.01)"/>
        <path id="path249" class="cls-2" d="M232.25,417.18c1.09,1.78-2.27,2-3,1.18C228.13,417.15,231.55,416.43,232.25,417.18Z" transform="translate(-21.65 -37.01)"/>
        <path id="path251" class="cls-2" d="M239.47,406.08c-1.8-.69-.15-2,1.08-1.93A2.37,2.37,0,0,1,239.47,406.08Z" transform="translate(-21.65 -37.01)"/>
        <path id="path253" class="cls-2" d="M259.34,351.76c-1-.09-1.53-1.67-2-2.42a3.34,3.34,0,0,1,.09-3.88,14.56,14.56,0,0,0,1.33-1.79,23.27,23.27,0,0,0,.34-2.49,28.78,28.78,0,0,1,2.37-5.06c.89,1.28.82,3,1.22,4.45s1.44,2.58,1.67,4a5.47,5.47,0,0,1-1.33,4.31C262.43,349.64,260.35,351.74,259.34,351.76Z" transform="translate(-21.65 -37.01)"/>
        <path id="path255" class="cls-2" d="M269.7,346.11c-1,1.05-2-2.26-2.16-2.89a4.83,4.83,0,0,1-.23-2.79c.23-.61,1.16-1.77,1.93-1.44C270.51,339.52,269.84,344.82,269.7,346.11Z" transform="translate(-21.65 -37.01)"/>
        <path id="path257" class="cls-2" d="M231.38,338c.43,1.54-2.7,0-2.72-1C228.62,335.19,231.05,337.38,231.38,338Z" transform="translate(-21.65 -37.01)"/>
        <path id="path259" class="cls-2" d="M219.5,330.68c-.88.12-1.66-.91-1.9-1.65-.37-1.21,1.1-2.46,2.1-3.17C220.46,326.73,220.67,330.05,219.5,330.68Z" transform="translate(-21.65 -37.01)"/>
        <path id="path261" class="cls-2" d="M206.47,232.9c-.65.34-1,0-1.39-.45a14.41,14.41,0,0,1-1.71-2.6c-.71-1.49.55-.94,1.47-1,2-.09,4-1.49,6-1.52.16.54-1.85,2.11-2.28,2.7A24.18,24.18,0,0,1,206.47,232.9Z" transform="translate(-21.65 -37.01)"/>
        <path id="path263" class="cls-2" d="M186.26,318.09c-.27,1.85-2.6-1.31-2.87-1.66s-3.76-2.66-2.95-3,2.82,1.58,3.42,2.12A24.73,24.73,0,0,1,186.26,318.09Z" transform="translate(-21.65 -37.01)"/>
        <path id="path265" class="cls-2" d="M190.88,326.58c.37.44.89,2.06-.1,1.45-.46-.29-.67-1.87-.09-2.07A1,1,0,0,1,190.88,326.58Z" transform="translate(-21.65 -37.01)"/>
        <path id="path267" class="cls-2" d="M186.92,389.82c-.84.82-2.25-2.83-2.11-3.52.19-1,.71-.15,1,.48C186.3,387.75,186.43,388.86,186.92,389.82Z" transform="translate(-21.65 -37.01)"/>
        <path id="path269" class="cls-2" d="M184.24,393.14c-.39.52-.48,1.32-1,1.68-.82-.68,0-2.41.92-2.51A3.84,3.84,0,0,1,184.24,393.14Z" transform="translate(-21.65 -37.01)"/>
        <path id="path271" class="cls-2" d="M212.6,392.59c-.66.9-1.12-.24-.92-.9C212.23,390,213.08,391.34,212.6,392.59Z" transform="translate(-21.65 -37.01)"/>
        <path id="path273" class="cls-2" d="M202.82,421.06c.42,1.25-1.43,1.11-1.76.34C200.56,420.22,202.29,420.32,202.82,421.06Z" transform="translate(-21.65 -37.01)"/>
        <path id="path275" class="cls-2" d="M204.28,415.1c-1.83-.24-2.68-4.26.14-3.36a1.74,1.74,0,0,1-.14,3.36Z" transform="translate(-21.65 -37.01)"/>
        <path id="path277" class="cls-2" d="M200.35,415.5c.17.95-2,.36-2.66.67-1.11.53-1.33,2.76-2.1.71-.16-.43-.53-.95-.22-1.39s.71,0,1-.22c.57-.41.43-.7.34-1.54C197.86,414.32,199.68,414.14,200.35,415.5Z" transform="translate(-21.65 -37.01)"/>
        <path id="path279" class="cls-2" d="M159.7,439c-1.48.72-1.63-3.09-1.65-3.79,0-1.79.26-3.86-.78-5.45-.38-.58-2.27-1.31-2.38-1.77-.21-.85,1.29-.26,1.69-.36,1.84-.46.69-2.53,1.51-3.56.67-.83,1.7.12,2.41-.68a2.19,2.19,0,0,0,0-2.44c-.58-.84-1.57-.33-1.91-.78s.07-.79.22-1.16A21.33,21.33,0,0,1,163,412.1c2.81-2.74,5.14-5.86,5.59-9.82a21,21,0,0,1,1-5c.36-.92,2-4.37,3.16-3.67.71.42.18,3.07,0,3.8-.28,1.49-.63,3-1,4.43-.64,2.69-1,5.9-2.39,8.35-.53,1-1.27,1.82-1.83,2.78a16.31,16.31,0,0,0-1.49,4.5c-.66,2.69-1.69,5.27-2.37,8s-1.36,5.1-1.89,7.68C161.41,434.94,161.19,437.68,159.7,439Z" transform="translate(-21.65 -37.01)"/>
        <path id="path281" class="cls-2" d="M160.58,405.8a.86.86,0,0,1-1,.75,4.84,4.84,0,0,1-.87-1.15C158.83,404.61,160.59,404.67,160.58,405.8Z" transform="translate(-21.65 -37.01)"/>
        <path id="path283" class="cls-2" d="M155.55,418.73c.62.68.41,2.8-.58,1.69C154.28,419.62,154.19,418.27,155.55,418.73Z" transform="translate(-21.65 -37.01)"/>
        <path id="path285" class="cls-2" d="M157.16,411c.69.77,1.12-.51,1.7-.49.82,0,.5,1.35.16,1.86-.6.89-.85.16-1.67.53s-.62,2.07-1.5,2.32c-.42.12-.8-.31-1.19-.27-.19,0-.4.47-.58.53-.51.15-.83.24-1.25-.08a10.81,10.81,0,0,1-1.91-3.22c-.39-.82-1.35-2.44-.74-3.14s1.79-.38,2.48-.67a6.39,6.39,0,0,0,1.92-1.46c.45-.44,1.06-1.37,1.72-1.51,1-.2.59.19.79.83a7.47,7.47,0,0,1,.63,1.94C157.72,409.15,156.67,410,157.16,411Z" transform="translate(-21.65 -37.01)"/>
        <path id="path287" class="cls-2" d="M144.06,422c1-.56.13-2.63,0-3.52.44,1.16,1.17,1.57,1.31,2.88s-.18,2,1,2.68c.72.45,1.8.8,1.87-.46.05-.9-1.43-1.59-.8-2.55.76.93,2.07,1.58,2.51,2.74.32.84-.14,2.2,1.06,2.48-.63.57-2.6.25-3.38.33s-1.05.05-1.54.85c-.28.44-.24,1.51-1,1.46-.39,0-1.36-1.37-1.63-1.65-.78-.79-1.6-1.57-2.33-2.4s-1.12-2-1.92-2.85c-1-1-2.24-1.31-3-2.6s-3.7-5.77-2.68-7.1c1,.79,1.35,2.22,2.44,3,1.32,1,3,1.35,4.06,2.69C140.85,419.07,142.11,422.86,144.06,422Z" transform="translate(-21.65 -37.01)"/>
        <path id="path289" class="cls-2" d="M111,402.6c2.91-.69,4.92,3.38,6.58,5.06,1.14,1.15,2.87,1.46,3.92,2.68.67.76,1,1.77,1.62,2.58a10.66,10.66,0,0,1,1.82,3.15,27.43,27.43,0,0,1,1.35,5.88c.09,1,.27.93-.76,1.09a4.28,4.28,0,0,0-1.07.11c-.43.2-.6.74-1.1.87-2.43.61-4-3.87-6.2-3.67-1.35.11-1.69,2.34-3.46,1.59-1.1-.47-1.6-1.92-1.92-3s-.46-2.11-.68-3.17-1.06-3.84.7-2.22c.93.86,1.18,3,2.14,3.67,1.39.92,1.67-1.71,1.27-2.59-.55-1.2-2.09-1.42-2.76-2.47-.43-.69.08-1.81-.33-2.29s-1.45-.42-2-.48c-1.12-.15-4.44-.44-4.53-2.12,0-.74.76-.65,1.28-1.13.7-.65.57-1-.26-1.17s-2,1.2-2.74,0c-.54-.89.63-1.6,1.26-2C106,402.51,110.52,400.93,111,402.6Z" transform="translate(-21.65 -37.01)"/>
        <path id="path291" class="cls-2" d="M100.21,398.37c-.93.36-1.53-.89-1.34-1.68C99.32,394.8,100.38,397.38,100.21,398.37Z" transform="translate(-21.65 -37.01)"/>
        <path id="path293" class="cls-2" d="M148.4,408.75c.53.61-.08,1.33-.83,1.13C146.66,409.64,147.68,408.55,148.4,408.75Z" transform="translate(-21.65 -37.01)"/>
        <path id="path295" class="cls-2" d="M143.47,411.43c.71.78,1.89-.35,2.44.56s-.5,1.69-1.14,1.64a8.31,8.31,0,0,1-2.42-1.11C141.83,411.76,142.77,411.32,143.47,411.43Z" transform="translate(-21.65 -37.01)"/>
        <path id="path297" class="cls-2" d="M137,406.42c.22,1.61-1.95.52-1.93-.43C135.11,404.43,136.61,405.94,137,406.42Z" transform="translate(-21.65 -37.01)"/>
        <path id="path299" class="cls-2" d="M131.73,405.18a.72.72,0,0,1-.32,1,.64.64,0,0,1-.3.08c-.35,0-.82-1-1-1.29-.42-.8-.59-1.47.68-1.7A2,2,0,0,0,131.73,405.18Z" transform="translate(-21.65 -37.01)"/>
        <path id="path301" class="cls-2" d="M109.67,381.74c.2,1,1.47.64,1.43,1.69a1.16,1.16,0,0,1-1.27,1,1,1,0,0,1-.34-.09C107.82,383.78,107.93,380.27,109.67,381.74Z" transform="translate(-21.65 -37.01)"/>
        <path id="path303" class="cls-2" d="M113.71,376.26c0,.72.87,2,.45,2.64-.62,1-1.49.36-1.8-.34C111.94,377.66,112.26,374.61,113.71,376.26Z" transform="translate(-21.65 -37.01)"/>
        <path id="path305" class="cls-2" d="M140.09,330.19c-.4.85-2,.72-2.81.71-1,0-2-.49-.64-1,1-.42,1.51,0,2.07-1,.21-.42.19-1.46.79-1.57C140.43,327.1,140.19,329.63,140.09,330.19Z" transform="translate(-21.65 -37.01)"/>
        <path id="path307" class="cls-2" d="M156.68,313.09c-.06.91-.77,1.45-.7,2.45a5.12,5.12,0,0,0,.68,2.35c1.2,1.76,2.93-.57,2-1.82.82,2.33-1.48,3.87-2,5.92-.32,1.24.24,2.37.19,3.6a9.44,9.44,0,0,1-.74,3.27c-.66,1.26-1.15.64-2.16.34-.72-.21-1.48.33-2.11-.08s-.53-1.65-.68-2.4a12.3,12.3,0,0,1-.46-2.55c0-1.34,0-3.5.74-4.66.53-.78,1.16-.65,1.87-1.12a2.69,2.69,0,0,0,1-2.15,7.93,7.93,0,0,0-.19-2.87c-.34-1.22-.77-1.4-1.9-1.87-1.92-.79-1.69-3.36-1-5.11.2-.52,1.16-2.5,1.91-2.09.46.25.07,2.44.07,2.95a7.94,7.94,0,0,0,.64,3.47C154.5,312.06,155.72,312.13,156.68,313.09Z" transform="translate(-21.65 -37.01)"/>
        <path id="path309" class="cls-2" d="M147.6,309.64c-.7.73-4.14,1.42-3.36-.46C144.67,308.16,147.41,308.52,147.6,309.64Z" transform="translate(-21.65 -37.01)"/>
        <path id="path311" class="cls-2" d="M126.82,321.08c-1.38.77-2.26-1.66-.91-2.39a4.43,4.43,0,0,1,3-.22C128.67,319.25,127.35,320.42,126.82,321.08Z" transform="translate(-21.65 -37.01)"/>
        <path id="path313" class="cls-2" d="M128.36,323.07c0,.86-1.81.67-1.76,0C126.67,322.18,128,322.58,128.36,323.07Z" transform="translate(-21.65 -37.01)"/>
        <path id="path315" class="cls-2" d="M177.17,177.59c-.46.11-1.1.79-1.47.38s-.1-.54.14-.82C176.3,176.63,178,176.74,177.17,177.59Z" transform="translate(-21.65 -37.01)"/>
        <path id="path317" class="cls-2" d="M186.11,167.15c-.54.67-2.74.52-3.67.83-1.56.52-2.08.68-2,2.27.09,1.24.3,2.42-.81,3.32-.48.38-1.84.46-2,1.07.3,0,.71.13.66.48s-1.3.47-1.61.54c-.48.11-1.59.48-2,0,0,0,0-.74-.09-1-.84-1.29-3.4-.82-4.48-1.77-1.37-1.21.83-2.26,1.34-3.36.63-1.34.41-1.91,2-2.21s2.73-1.31,4.07-1.33a15.91,15.91,0,0,0,5.29-.92C184.41,164.61,187.14,164.76,186.11,167.15Z" transform="translate(-21.65 -37.01)"/>
        <path id="path319" class="cls-2" d="M114.12,191.49c1.29-.34,2.61,1.25,1.12,1.78C114.09,193.67,112.79,192.23,114.12,191.49Z" transform="translate(-21.65 -37.01)"/>
        <path id="path321" class="cls-2" d="M75.5,212.42c-.83-.35-2.19-2.92-.52-2.86C76.35,209.61,76.44,211.79,75.5,212.42Z" transform="translate(-21.65 -37.01)"/>
        <path id="path323" class="cls-2" d="M72.49,215.53c.33.05,1.36.79,1.39,1.19.06.84-.8.2-1.33.48-.86.46-1,2.39-2.33,1.83-.36-.15-1-1.12-1.14-1.46-.33-.59-.47-.76.09-1.28C70,215.56,71.54,215.91,72.49,215.53Z" transform="translate(-21.65 -37.01)"/>
        <path id="path325" class="cls-2" d="M48.31,229c.46.43,1,2.25-.14,1.71C47.59,230.39,47.44,228.88,48.31,229Z" transform="translate(-21.65 -37.01)"/>
        <path id="path327" class="cls-2" d="M50.49,234.9c1.31.73,1.48,3.9,0,2.89C49.76,237.29,49,234.6,50.49,234.9Z" transform="translate(-21.65 -37.01)"/>
        <path id="path329" class="cls-2" d="M52.39,244.19c0,1-1.12,1.57-1.34,2.53-.27,1.15.38,2.21-.12,3.38-.2-.5,0-1.47,0-2s-.3-1.11-.35-1.68C50.43,245.13,50.85,243.69,52.39,244.19Z" transform="translate(-21.65 -37.01)"/>
        <path id="path331" class="cls-2" d="M31.26,319.24c-.41,1-1.6.19-2-.3s-.86-2.64,0-2.79C29.81,316.06,31.13,318.68,31.26,319.24Z" transform="translate(-21.65 -37.01)"/>
        <path id="path333" class="cls-2" d="M28.74,320.92c1.25-.42.55,1.5-.54,1.18S27.92,320.45,28.74,320.92Z" transform="translate(-21.65 -37.01)"/>
        <path id="path335" class="cls-2" d="M40,365.35c.56-.13,1-1.11,1.54-.93.71.23.52,1.54.42,2a15.24,15.24,0,0,0-.67,2.18c0,.86.52,1.55.67,2.4a10,10,0,0,0,.16,1.81c.08.23.5.66.51.87a.83.83,0,0,1-.72.93.78.78,0,0,1-.37,0c-.92-.3-1.68-2.55-2-3.3-.65-1.55-1.23-3.12-1.73-4.73a19.07,19.07,0,0,1-1.21-4.07,1.7,1.7,0,0,1,1-1.85c1.08-.55,1.17-.22,1.43.65C39.31,362.41,39,364.52,40,365.35Z" transform="translate(-21.65 -37.01)"/>
        <path id="path337" class="cls-2" d="M47.26,379.5c1.62.68,0,3-1.33,2.67C44.38,381.79,46.05,379.19,47.26,379.5Z" transform="translate(-21.65 -37.01)"/>
        <path id="path339" class="cls-2" d="M64.59,212.82c-.5-.32-1-1.71-1.65-1.65-.93.07-.39,1.32-.39,2,0,1.24-.52,2.63-.1,3.86.34,1,1.6,1.53,1.85,2.52s-.74,2.59-1.22,3.56A16.87,16.87,0,0,1,61,226.82a10.26,10.26,0,0,0-2.07,2.74,7.93,7.93,0,0,1-1.41,2.85c-.85.76-2.18.43-3.27.62s-2,.65-2.84-.22c-1-1-1.08-2.86-1.83-4.08a3.18,3.18,0,0,0-1.62-1.36c-1.08-.53-1.29-.75-2,.14-.5.66-.78,1.35-1-.08a3.21,3.21,0,0,1,.62-2.16c.3-.38.82-.58,1.08-1s.18-.35.25-1a1.57,1.57,0,0,1,0-1.07,3.51,3.51,0,0,0,1.12,0c.53-.25.44-.59,1-.72a7.49,7.49,0,0,0,1.17-.15,7.68,7.68,0,0,0,1.94-1.28c.52-.48,1-1.1.49-1.8s-1.69,0-1.94-.62.85-.94,1.06-1.29.07-.72.06-1.13c0-.78-.63-2.69-.17-3.33.61-.83,3.16-1.09,4.08-1.29a21.22,21.22,0,0,0,4.64-1.12c1.69-.83,1.4-3.21,3.34-4,.49-.21.86-.2,1.24-.63s.37-2.7,1.25-2.61c.57.07-.31,2.85-.37,3.35-.09.81,0,1.64-.08,2.46C65.68,209.15,65.87,212.21,64.59,212.82Z" transform="translate(-21.65 -37.01)"/>
        <path id="path341" class="cls-2" d="M117.43,422c1-.27,2.51,1.16,3.19,1.74s1.76,1.44.52,1.79a5.78,5.78,0,0,1-3.3-1,2.33,2.33,0,0,1-1.11-1.08C116.44,422.63,117,422.64,117.43,422Z" transform="translate(-21.65 -37.01)"/>
        <path id="path1069" class="cls-2" d="M192.79,56.4c.41.57.41,2.41-.62,2.21C192.26,57.63,191,55.44,192.79,56.4Z" transform="translate(-21.65 -37.01)"/>
        <path id="path1071" class="cls-2" d="M201.14,66.6c-.1.58-.65.88-.81,1.43s.22,1.5-.11,2.08c-.51.87-1.1.15-1.87.56-.25.14-.49.59-.67.81-.26-.5.15-.78.11-1.34s-.5-.84-.36-1.44a2.63,2.63,0,0,1,1.38-1.49c.23-.14.52-.06.79-.29s.23-.69.47-.86C200.58,65.69,201.11,65.87,201.14,66.6Z" transform="translate(-21.65 -37.01)"/>
        <path id="path1073" class="cls-2" d="M202.73,68.44c-.12.78-.92,1-1.5,1.33C200.89,68.72,201.86,68.48,202.73,68.44Z" transform="translate(-21.65 -37.01)"/>
        <path id="path1075" class="cls-2" d="M195.42,77.86c-1.06.54-.79-.75-.6-1.29s.72-2.12,1.47-2.29C196.18,75.65,196.4,76.73,195.42,77.86Z" transform="translate(-21.65 -37.01)"/>
        <path id="path1077" class="cls-2" d="M215.52,62.19a3.81,3.81,0,0,1,.32,1.64,1.69,1.69,0,0,0,.48,1.16c0,.06.68.71.7.73.4.23.86.18,1.24.57,1.55,1.58,1.51,4.23,1.46,6.28,0,1.24-.11,2.49-.21,3.73,0,.66.1,2.71-.46,3.14s-.74-.12-1.25-.07c-.74.07-.74.38-1.27.79s-1.47.47-2,.93-.31,1.47-1.13,1.49c-.59,0-1-.88-1.49-1.16a3.45,3.45,0,0,0-.88-.27c-.47,0-.41.09-.78.1s-.21.38-.59.21,0-1.08-.26-1.46c-.76-1.16-3.74-.42-4.49.51s-.17,1.87-.64,2.71c-1,1.87-1.86-2-2.79-2-.48,0-.54,3.24-.39,3.79-1.12-1.13-.38-2.32-.93-3.61a22.08,22.08,0,0,0-2-2.57c-.94-1.48.08-2.48,1.23-3.55a10.87,10.87,0,0,0,1.76-1.89c.36-.58.32-1.52.77-2,1.33,1.1,1.48-.49,2.26-1.27a23.17,23.17,0,0,1,2.36-1.47A4.62,4.62,0,0,1,209,67.32c.63-.07,1.62.5,2.11.2s.3-1.34.38-1.88a15.65,15.65,0,0,0,.7-2.69c0-.42-.59-.73-.18-1.13S215,62.07,215.52,62.19Z" transform="translate(-21.65 -37.01)"/>
        <path id="path1079" class="cls-2" d="M215.52,86.41c0,1.31,1.08,6-.73,6.65-1.18.43-.67-1.12-.76-1.68-.22-1.31-.86-.71-1.27.2-.65,1.47-.57,4.61-2,5.61-.69.48-1.41-.07-2,.63-.42.45-.06,1.17-.89,1.46s-1.12-.22-1.44-.86c-.24-.47-.15-.83-.65-1-.31-.12-.49.24-.72.2-1.15-.2-.75-1-.85-2.06-.07-.77-1.08-2.79-.36-3.3s2.25.77,2.51-.4c.38-1.7-2.68-.27-3.23-.53-.88-.4-.08-2.73.29-3.37s.62-1.09,1.29-1.1.69.6,1.27.84c1.11.45,3.33-.3,4.55-.31a3,3,0,0,0,2.39-.77C213.6,86,215,84.89,215.52,86.41Z" transform="translate(-21.65 -37.01)"/>
        <path id="path1081" class="cls-2" d="M213.12,84.48a7,7,0,0,1-1.45,1.42c-.92.49-3-.31-1.93-1.58.49-.57,1.17,0,1.83-.18s.28-1,1.1-.51C213.08,83.86,213.2,84.07,213.12,84.48Z" transform="translate(-21.65 -37.01)"/>
        <path id="path1083" class="cls-2" d="M207.75,106.12c.3.28.53,1.06.09,1.33s-1.69-.66-2.18-.8C205.89,105.79,207.09,105.89,207.75,106.12Z" transform="translate(-21.65 -37.01)"/>
        <path id="path1085" class="cls-2" d="M210.75,103.63c.07.56-.34,1.92-.94,1.08C209.33,104,210,103.12,210.75,103.63Z" transform="translate(-21.65 -37.01)"/>
        <path id="path1087" class="cls-2" d="M207.12,103.91c.89-.07,1.86.31,1.56,1.34-.6-.61-1.6-.21-2.29-.62A2.77,2.77,0,0,1,207.12,103.91Z" transform="translate(-21.65 -37.01)"/>
        <path id="path1089" class="cls-2" d="M212.1,123.81l-.39.28c-.42-.79-.88-4.39,0-4.91S212.11,123.16,212.1,123.81Z" transform="translate(-21.65 -37.01)"/>
        <path id="polygon1091" class="cls-2" d="M209.64,122.63c.68-.27.94.6.42.93C209.38,124,208.89,123.12,209.64,122.63Z" transform="translate(-21.65 -37.01)"/>
        <path id="path1093" class="cls-2" d="M210.92,125c.09.74,0,1-.69,1.09s-.72-.22-1-1c-.06-.18-.7-.27-.39-.65S210.67,124.66,210.92,125Z" transform="translate(-21.65 -37.01)"/>
        <path id="polygon1095" class="cls-2" d="M216.39,129.93c.51.66-.55,1.36-.92.67s.59-1.1,1.1-.95Z" transform="translate(-21.65 -37.01)"/>
        <path id="path1097" class="cls-2" d="M216.79,84c-.9.19-.89-1.84-.41-1.84C217.07,82.17,217.17,83.49,216.79,84Z" transform="translate(-21.65 -37.01)"/>
        <path id="polygon1099" class="cls-2" d="M215.08,83.27" transform="translate(-21.65 -37.01)"/>
        <path id="path1101" class="cls-2" d="M238.74,181c.67.52.31,2.12-.47,1.39C237.83,182,238.13,180.93,238.74,181Z" transform="translate(-21.65 -37.01)"/>
        <path id="path1103" class="cls-2" d="M239.86,185.27c1.39-.12,1.63,1.18-.21.56A2.92,2.92,0,0,1,239.86,185.27Z" transform="translate(-21.65 -37.01)"/>
        <path id="path1105" class="cls-2" d="M414.67,291.17c0,.29-.42,1.35-.79,1.43-.14,0-.34-.27-.49-.25s-.32-.26-.48-.25c-.4,0-.55.83-1,.94-.64-.73-.08-1.65.56-2.07C413.5,290.32,413.85,290.73,414.67,291.17Z" transform="translate(-21.65 -37.01)"/>
        <path id="path1107" class="cls-2" d="M418.92,291.14a6,6,0,0,1,0,2.2,1.9,1.9,0,0,1-1.77-1.29C417,290.89,418.05,290.11,418.92,291.14Z" transform="translate(-21.65 -37.01)"/>
        <path id="path1109" class="cls-2" d="M422,292.35c-.38.52-1,.58-1.22,0s.72-2.14,1.12-2.44A3.89,3.89,0,0,1,422,292.35Z" transform="translate(-21.65 -37.01)"/>
        <path id="path1111" class="cls-2" d="M425.61,295.58c-1.68,1.53-3.21-3.77-1.55-4.27a3.88,3.88,0,0,1,1.36.48c.71.47.57.35.36.93-.13.38-.56.06-.54.73S425.87,294.63,425.61,295.58Z" transform="translate(-21.65 -37.01)"/>
        <path id="path1113" class="cls-2" d="M429.27,294.68c-.24.47-1.32,1.26-1,.32a1.91,1.91,0,0,1,1.87-.91A1.65,1.65,0,0,1,429.27,294.68Z" transform="translate(-21.65 -37.01)"/>
        <path id="path1115" class="cls-2" d="M429.67,290.73c-.06.74-.57,2-1.49,1.93-1.22-.08-1.34-2.45-1.32-3.33.68-.09.31.42.65.53s.7-.09,1,0A6.31,6.31,0,0,1,429.67,290.73Z" transform="translate(-21.65 -37.01)"/>
        <path id="path1117" class="cls-2" d="M472.76,185.55c.59.39,1.37.55,1.81,1.15C474.5,186.67,471.23,186.28,472.76,185.55Z" transform="translate(-21.65 -37.01)"/>
        <path id="path1119" class="cls-2" d="M470.31,182c-.49-.3-.48-.74-.51-1.28a2.48,2.48,0,0,1,.13-1.24c.16-.21,1.15-.68,1.56-.25C472.12,179.85,470.83,181.58,470.31,182Z" transform="translate(-21.65 -37.01)"/>
        <path id="path1121" class="cls-2" d="M474.29,135.75c-.07.48-.58,1-.92.37S473.88,134.8,474.29,135.75Z" transform="translate(-21.65 -37.01)"/>
        <path id="path1123" class="cls-2" d="M479.84,134c-1.06.53-1.67-1-1-1.77C480.1,131,480.64,133.37,479.84,134Z" transform="translate(-21.65 -37.01)"/>
        <path id="path1125" class="cls-2" d="M476.56,111.71c.74.43,3,1.19,1.6,2.3-1,.82-2.3-1.22-2.54-2.14A2,2,0,0,1,476.56,111.71Z" transform="translate(-21.65 -37.01)"/>
        <path id="polygon1127" class="cls-2" d="M476.57,109.94c.6.12.9,1,.13,1.06S476,110.16,476.57,109.94Z" transform="translate(-21.65 -37.01)"/>
        <path id="path1129" class="cls-2" d="M481.61,111c-.77,1.85-3.23-2.1-3.14-2.82.12-1,.63-.32,1,0A7.19,7.19,0,0,1,481.61,111Z" transform="translate(-21.65 -37.01)"/>
        <path id="path1131" class="cls-2" d="M482.9,92.34c1.7,1.79-.68,3.31-1.95,1.88C479.5,92.56,481.31,91.58,482.9,92.34Z" transform="translate(-21.65 -37.01)"/>
        <path id="path1141" class="cls-2" d="M483.21,84.39a8.32,8.32,0,0,1-.33,1.21c-.76-.19-.69-1.41-.17-1.86A2.62,2.62,0,0,1,483.21,84.39Z" transform="translate(-21.65 -37.01)"/>
        <path id="path1143" class="cls-2" d="M484.5,79.75c-.39.36-.74.47-1,.93-.17.31.05.83-.35,1-1.05.36-.14-1.64.08-1.94C484.23,78.32,485.18,79.44,484.5,79.75Z" transform="translate(-21.65 -37.01)"/>
        <path id="path1145" class="cls-2" d="M490.19,69.77c.94.38,1.71,2.63.29,2.47C489.57,72.14,488.26,69.73,490.19,69.77Z" transform="translate(-21.65 -37.01)"/>
        <path id="polygon1147" class="cls-2" d="M490.31,64.43c-.18.42-1,1-1.3.44C488.45,64,490,64.27,490.31,64.43Z" transform="translate(-21.65 -37.01)"/>
        <path id="path1149" class="cls-2" d="M487.56,65.08c-1-1-.62-1.15-.08-1.79.18-.22,1.44-1.53,1.83-1.51C490.92,61.89,487.82,64.55,487.56,65.08Z" transform="translate(-21.65 -37.01)"/>
        <path id="path1151" class="cls-2" d="M487.36,61.28c-.06.85-.7,1.23-1.32.83a4,4,0,0,1-.87-2.54c.09-1,.23-.8,1-.55.27.09,1,.23,1.18.52S487,60.75,487.36,61.28Z" transform="translate(-21.65 -37.01)"/>
        <path id="path1153" class="cls-2" d="M488.42,57.58c-1,.63-3.13,0-2.63-1.48.3-.87.3-.48.91-.12.44.26.26.44.74.47.29,0,.86-.48,1.13-.55A9.46,9.46,0,0,0,488.42,57.58Z" transform="translate(-21.65 -37.01)"/>
        <path id="path1155" class="cls-2" d="M484.37,56.25c-.73.22-.41-.24-.54-.55,0-.06.23-.38.19-.54-.08-.38-.53-.42-.66-.71-.31-.72.08-.54.18-1.32s-.36-1.79.43-2.45c.25-.2.88-.31,1.21-.53s.37-.61.66-.61c.88,0,.37.9.06,1.43a4.12,4.12,0,0,0-1,2.43C484.92,54.38,485.11,55.46,484.37,56.25Z" transform="translate(-21.65 -37.01)"/>
        <path id="path1157" class="cls-2" d="M484.16,48c-.06.71-1.08,2.63-1.51,1.34-.26-.77,1.15-2.25,1.32-1.06Z" transform="translate(-21.65 -37.01)"/>
        <path id="path1223" class="cls-2" d="M203.55,86.16c-.7,1.45-1.7-.56-1.64-1.34C202.07,82.82,203.7,85.2,203.55,86.16Z" transform="translate(-21.65 -37.01)"/>
        <path id="polygon1227" class="cls-2" d="M483.46,61.35c.46.69-.58.84-.56.25s.62-.28.79,0Z" transform="translate(-21.65 -37.01)"/>
        <path id="path1731" class="cls-2" d="M31.4,287.35c-.14.85-1.32,3.46-2.08,3.32-.07,0-.68-.86-.83-.95s-.66-.09-.94-.25-1.37-1.28-1.36-1.62c0-.69.85-.59,1.39-.94s.73-1.77,1.26-2C29.56,284.61,31.34,286.71,31.4,287.35Z" transform="translate(-21.65 -37.01)"/>
        <path id="path1733" class="cls-2" d="M234.3,303.73a5.1,5.1,0,0,0,1.36,1.38c.55.46.8,1.09,1.26,1.54s1.18.38,1.08,1.14c0,.34-.66.89-.87,1.16-.69.86-1.15,1.6-2.33,1.69-1,.07-2.45-.37-2.17-1.59.14-.59,1.94-2.17,1.28-2.89-.84-.94-1.3,1.25-1.55,1.35-1.16.45-1.11-1.64-.74-2.28S233.32,303.23,234.3,303.73Z" transform="translate(-21.65 -37.01)"/>
        <path id="path1813" class="cls-2" d="M157,121.48c-.43-2.18-5.18-.69-6.3.06-1.9,1.29-3,3.49-4.53,5.15-1,1.06-2.12,1.93-3.11,3s-1.36,2.15-2.28,3c-1.65,1.59-4.22,2.36-6.36,3a30,30,0,0,1-6.57,1.22c-1.6.08-3.2-.17-4.8-.11-2.06.07-2.75.46-3.47,2.34-1.12,2.93-3.18,5.16-5.16,7.56a27,27,0,0,0-4.35,7.67,94.15,94.15,0,0,1-8.16,17.14,29.75,29.75,0,0,1-6.18,7.1c-1.11.9-2.27,1.82-3.45,2.63-1.35.93-2.6.91-4.08,1.44a14.61,14.61,0,0,1-3.64,1.29,25.91,25.91,0,0,1-4.22.23c-2.87-.15-5.26-1.46-8-2-5-1-8.63,5.53-13.32,6.34-3.52.61-9-4-11.22,0a28.73,28.73,0,0,1-2.93,5.29c-.92,1.08-2.06,2-3,3a33.51,33.51,0,0,0-2.3,3.81,70.61,70.61,0,0,0-4.9,9c-1.2,2.66-3,5.06-3.82,7.89-.39,1.3-1.62,12.82.29,12.24,1.34-.4-.24-4.47-.24-5.39,0-1.38.46-1.32,1.49-.58a5.19,5.19,0,0,1,2.09,2.38,11.74,11.74,0,0,1,.1,2.84c.11,1.45,1.43,2.76,2.54,3.69,1.77,1.48,4,2.29,5.66,3.92a7.44,7.44,0,0,1,2,3.25c.23.92,0,3.15,1.36,3.17.74,0,1.23-.87,1.75-1.26s.51.17.87-.56c.19-.4-.06-1.38-.05-1.82.05-1.38-.47-1.73-.93-2.91s.91-2.76.37-3.52c-1.2-1.7-3.13,3.78-4.76,1-.22-.38.08-1.1-.35-1.42-.67-.5-.83.3-1.36.46-1.8.53-.65-1.47.64-1.37.92.07,1.68,1.34,2.59.52a2.25,2.25,0,0,0,.16-2.46c-.7-.76-2.28-.13-1.72-1.77.38-1.1,1.14-1.41.85-2.74-.45-2-2.6-4.24.13-5.79a9.38,9.38,0,0,0,1.39-.67c.29-.22,0-.42.45-.67s.61,0,.86-.18a4.2,4.2,0,0,0,.66-.79c.94-1.18,2.43-2.61,2.69-4.13s-.37-2.76.62-4.12a16.65,16.65,0,0,0,1.16-1.36,14.88,14.88,0,0,0,.64-2.06c.54-1.29,1.45-1.15,2.6-.79,1.48.47,2,.43,2.94-.79a8.48,8.48,0,0,1,1.38-1.49c.46-.35,1.21-.61,1.36-1.24.27-1.14-1.44-1.26-1.46-2.46,1-.19,2.12,1.52,3,.53.6-.67-.57-2.16.4-2.52s1.35,1.31,1.68,1.79c.9,1.34,1.3.57,2.52,0,.58-.26,1.26-.12,1.85-.36s.65-.57,1-.8a1.4,1.4,0,0,1,1.41-.15c.34.17.33.7.74.75.7.06,1.1-1.38,1.9-1.75s2.44-.13,2.86-.91c.54-1-.95-2.06-1.46-2.59-.86-.89-1.26-2-2-2.95s-1.84-1.14-1.86-2.5c0-.33.06-1.24.57-1.27s1,1.48,1.2,1.87a22.86,22.86,0,0,0,1.7,4.13,17.34,17.34,0,0,0,3.14,2.72c1.48,1.29,1.94,4.18,3.59,5.06s2.45-.9,3.67-1.59a54.55,54.55,0,0,0,5-2.54c1.29-.91,2.7-.66,4.21-1.08,1.21-.35,1.79-1.47,3.12-1.47-1.2,1,.47,1.44,1.24,1.39A7.17,7.17,0,0,0,102,193.4a21.08,21.08,0,0,1,2.44-1.4,4.38,4.38,0,0,1,2.81.22c1.11.26,2.33.58,3.06-.51.53-.79.36-1.89.8-2.72,1.29-2.46,3.88.62,5,1.75s3.33,3.25,4.52,1.89c.68-.77.7-1.78,1.62-2.49s1.65-.5,2.56.26c.73.61,1.27,1.41,2,2,1.14,1,2.59,1.59,3.69,2.66,1.82,1.76,3.22,5,6.16,5.07a13.21,13.21,0,0,0,3.87-.94c1.38-.53,1.75-2.26,2.05-3.59a70.24,70.24,0,0,1,2.4-9.71,20.69,20.69,0,0,1,4.84-7.63c2.09-2.18,2.8-3.66,2.36-6.81-.86-6.11-1.71-11.82-.27-17.9.49-2.07.5-3.52-.94-5.31-1.15-1.42-3.14-2.08-4.16-3.56-.76-1.1-.54-2.61-.69-3.88a19,19,0,0,1-.23-5.21,14.63,14.63,0,0,1,3.39-7.11,30.07,30.07,0,0,1,4.87-4.49C154.8,123.46,156.72,122.49,157,121.48Z" transform="translate(-21.65 -37.01)"/>
        <path id="path1815" class="cls-2" d="M206.83,309.05c.71.5.7,1.69,1.82,1.67.51,0,1.11-.46,1.65-.55a15.48,15.48,0,0,0,2-.28c1.29-.42,3.41-2.66,4.81-2.09,1.15.48.72,1.41.1,2.06-.84.87-1.66,1.56-1.51,2.9.12,1,1.19,2.38.62,3.41s-1.34.21-2-.29-1.78-1.72-2.7-1.67c-1.51.09-.93,2.2-.3,3a16.34,16.34,0,0,1,2.27,3.27c.42.86,1.57,3.17,1.14,4.14-.92,2.06-3.34-1.84-4.63-.68-.6.53.26,1.63-.08,2.24-.25.44-.91.39-1.24.69-.91.81-.39,1.29.82,1.54,1.84.37,2.79-1.08,4.43-1.26,1.45-.15,3.21,3,1.65,2.82.4,1.11.89,2.2,1.33,3.29a15.31,15.31,0,0,1,1.5,3.85c.05.62-1.53,3.23-.34,2.92.28-.08.69-.91.9-1.14s.39-.05.47-.15a3.72,3.72,0,0,0,.52-1.75,12.93,12.93,0,0,1,.75-2.56c.28-.66,1.07-1.58,1-2.34-.13-1.06-1.05-1.76-.84-3s1.05-1.77,1.32-2.92.25-1.27,1.07-1.75a5.18,5.18,0,0,0,1.7-1.12,4.26,4.26,0,0,0,1-2c.12-1-.56-1.56-.91-2.46a17.72,17.72,0,0,1-.63-2.87,12.37,12.37,0,0,1-.64-3.12c.15-1.89,1.68-1.1,2.72-.42,1.32.87,3.09,2.06,2.9,3.85s-1.34,2.8.22,4.38,1.64,3.73,1.88,5.94c.18,1.73,1.48,6.05,0,7.49-1.24,1.17-2.37-.78-3.43-.41-.72.26-.66,1.47-.8,2.1a4.55,4.55,0,0,1-1.29,2.42c-.4.46-2.15,2.4-.8,2.84.78.25.94-1,1.37-1.31a3.71,3.71,0,0,1,2.43-.27c1.4.16,3.36,2.28,3.88.34a10.6,10.6,0,0,1,.57-2.38,5.26,5.26,0,0,0,1-2.79c0-2.52-1.22-4.83-1.42-7.32a24.9,24.9,0,0,0-.17-3.56,12.11,12.11,0,0,1-.84-3.19,8.89,8.89,0,0,0,.06-3.17,7.79,7.79,0,0,1-.47-3.48c.14-1.88-.81-2.93-1.36-4.65-.35-1.11-.37-1-1.7-.7a14.43,14.43,0,0,0-3.06.94c-1.21.58-4.23,2.44-4.19-.56,0-2.07,4.23-4.52,5.64-5.58,1.16-.88,2.4-1.66,3.48-2.63,1.69-1.53,3.05-3.4,4.94-4.72,3.29-2.32,8.41-5.09,12.24-2.94a17.74,17.74,0,0,0,4.9,1.95,12.38,12.38,0,0,1,5.08,1.89,8.8,8.8,0,0,1,3.41,4.61c.37,1.88-.87,2.36-1.69,3.79a24.75,24.75,0,0,0-3.14,8.4c-.4,3.11,2.77,5.87,3,9.05a9.26,9.26,0,0,0,.29,3.19c.37.79,1.16,1.22,1.48,2.05a9.34,9.34,0,0,1,.15,2.89,6.85,6.85,0,0,0,.56,1.82c.63,2.23-1.84,5.21-2.91,6.93a13,13,0,0,1-2,2.91c-.5.45-1.24.58-1.71,1.06a2.57,2.57,0,0,0-.55.87c-.21.59.15,1.16,0,1.68-.56,1.56-1.76.41-2.59-.09-2-1.24-3.58.35-4.89,1.85-2.44,2.78-5.65,4-7,7.69-1,2.78-2.1,6.43-.12,9,1.48,2,4.11,2.77,6.23,3.84,2.58,1.29,5.8,3.54,6,6.72.07,1.05-.53,2-.44,3.06s.68,1,1,1.73a2,2,0,0,1-.67,2.32c-1.11,1-2.89,1.35-4.18,2.15a5.58,5.58,0,0,1-4.38.71,8.35,8.35,0,0,0-8.95,5.31c-.42,1.19-.33,2.45-.63,3.65s-1.59,1.5-1.41.11c.12-.91,1.48-1.73.67-2.54-.35-.35-1.52-.25-1.9-.1a2.38,2.38,0,0,0-1.23,2.8c.71,3.13,5.12,1.31,6.93,3.33.61.68.83,3.38.12,4-.87.81-4-1.89-3.84-.4.06.58,1.14.9,1.35,1.39s-.17,1,0,1.48c.13.32.43.47.59.76.42.74.39,1.58.83,2.34s1.59,1.66,1,2.67-2.66.65-3.61,1.29c-1.34.92-2.2,2.57-4,2.73-2,.19-2.8-1.3-4-2.57-.31-.33-.76-.94-1.3-.83-.72.15-.62,1.34-1.31,1.62-1.19.48-1-1.08-1.55-1.86a20.78,20.78,0,0,0-3.11-3.18,7.74,7.74,0,0,0-2.35-1.82,27.6,27.6,0,0,1-2.66-.88c-1.16-.63-2.07-1.65-3.16-2.37.68.17,1.17.74,1.83.95a10.09,10.09,0,0,0,2,.18,4.35,4.35,0,0,1,2.4,1.28c1.07.87,4.79,3.19,3.12,0a6.35,6.35,0,0,0-1.24-1.91,7.52,7.52,0,0,0-1.56-.7,6.63,6.63,0,0,1-2.68-2.62c-.18-.34-.61-1-.45-1.41.26-.63.11-.07.7-.25,1-.32,2.45-.21,3.36-.7,2.43-1.29-.66-3.05-2.15-2.95-.7.05-1.29,1-2.07.23s-.07-1.82.12-2.51c.32-1.16.88-2.27-.79-2.36-1.26-.07-1.12.55-1.72,1.44-.85,1.25-1.72.79-2.88.18a8.78,8.78,0,0,0-3.79-1.38c-1.84-.12-2.53-1.05-4-1.93s-2.1-.31-3.4.35a5.07,5.07,0,0,1-1.85.7c-.66,0-1.18-.44-1.78-.43-1.72,0-.09.95.38,1.53a5.52,5.52,0,0,1-3.62-.66c-.72-.54-.67-1.48-.82-2.38s-.39-1.44.31-1.64c.93-.27,1.21.65,1.85-.5a1.7,1.7,0,0,0,.12-1.69c-.55,1.23-2,1.82-2.24.19-.18-1.43.15-2.58-.94-3.74-.93-1-5.26-2.59-3.17-3.81.76-.45,1.41-.08,1.37-1.2a2,2,0,0,0-.92-1.38c-2.31-1.46-1.3,2-2.51,2.19-1.06.16-1.61-2-1.76-2.76-.42-2,1.29-.45,2.48-1.17.7-.43.93-1.16,1.69-1.47s1.56,0,1.83-.86c.22-.67-.27-.94-.61-1.49a4.14,4.14,0,0,1-.53-3.07,12,12,0,0,0-1.64-6.8c-.27-.54-.83-2-1.5-2.22-.92-.26-.9,2.54-2.11.89a2.06,2.06,0,0,1,.65-2.59c1.2-.65,2.28.1,2.87-1.6.85-2.44-1.58-7-3.35-8.64a9.79,9.79,0,0,0-4.56-1.92c-1-.22-4.15-.51-3.87-2,1.88.17,3.71.73,5.59.91.9.09,4,.28,2.61-1.44-1.11-1.33-3.2-.43-4.38-2.06-1-1.38-1.29-3.59-3.23-3.9-.65-.1-5-.11-2.7-1.28,1.55-.77,3.73.15,5.22.63a6.25,6.25,0,0,0,4.64.05c.92-.4,4.15-3.29,4.81-.93-1,.69-2.72-.29-2.05,1.72a4.55,4.55,0,0,0,2.17,2.22c.59.32,2,1,2.51.33s-1.59-2.29-2.09-2.81a1.79,1.79,0,0,1,.69-.31c.35,0,.41.54.92.49.17,0,.48-.39.6-.39.4,0,.82.43,1.32.47.71.06.82-.46,1.36-.82s1-.24,1.54-.52c.2-.09.32-.4.54-.51a11.16,11.16,0,0,1,1.38-.46c1.36-.5,1.71-1.48,1.89-2.91a14.5,14.5,0,0,0,.32-3.41c-.08-.54-1.8-2.13-1.37-2.63s1.72.88,2.29,1c1.33.21,1.34-.78,2.19-1.41s1.59.26,2.51-.26A3.51,3.51,0,0,0,203,319.4c1.25-3.41,1.26-8.82-3.27-9.42a13.33,13.33,0,0,1-5.76-1.53,15.63,15.63,0,0,1-2.13-1.25c-.94-.77-.38-1.4-.86-2.31a13,13,0,0,1,1.63,1c.61.3,1.24.59,1.85.87a9.85,9.85,0,0,0,4.59,1.24,9.46,9.46,0,0,1,4,1C204.38,309.52,205.54,308.72,206.83,309.05Z" transform="translate(-21.65 -37.01)"/>
        <path id="path1817" class="cls-2" d="M158.92,352.35c1.23.85,1,3.1,1.79,4.28.47.67,1.21,1.12,1.61,1.84.63,1.13.21,1.2-.75,1.43-1.12.27-2.32.44-2.51,1.8a5.9,5.9,0,0,0,1.26,3.42c1.3,2.13,2.75,4.11,4,6.31.85,1.53,1.68,3.08,2.39,4.68.36.81,1.39,2.51.73,3.36-.53-.68-1.26-2.25-2.28-1.71-1.19.62-.49,4.17-.31,5.17a28.48,28.48,0,0,1,.18,10.73,40.31,40.31,0,0,1-1.1,5,19.7,19.7,0,0,0-.71,2.13c-.14.73,0,1.67-.61,2.22s-1.25.25-2.06.21a6.07,6.07,0,0,0-2.1.44,18.45,18.45,0,0,1-2.23-.05,3.42,3.42,0,0,0-2,1.1c-.86.79-1.54,1.84-2.72,2.19-1.7.51-2.4-.93-3.91-1.21-.89-.16-1.87.14-2.72-.29-.62-.31-.93-1-1.5-1.34-1-.63-2.28-.27-3.38-.6a8.34,8.34,0,0,1-2.9-1.88c-.38-.32-1.89-2-2.43-2-1,.16-.17,3-.71,3.61s-1.33-1.75-2.11-2.11c-1.23-.57-6.11,1-4.18-1.64.89-1.21,2.33-1.3,3.41-2.17.75-.61.45-1.24.17-2.21s-1.24-4.85-2.42-5c-.91-.14-.79,1.62-1.94,1.58-1.37-.05-1.81-2.16-3-2.14-2.09,0-.07,3.54.28,4.22a5.74,5.74,0,0,1,1,2.44,1.27,1.27,0,0,1-1.43,1.11,1.29,1.29,0,0,1-.94-.61c-.67-1,.39-.66.64-1.4.34-1-1.24-3-1.34-4.12-.13-1.36,1.27-3.15-.37-3.95-1-.46-1.8-.1-2.69-.92a4.26,4.26,0,0,1-1.5-4,6.2,6.2,0,0,0,.32-3.78c-.22-.76-1.17-2.06-1-2.86.08-.47.34-.44.48-.75.32-.66.54-1.05-.24-1.51s-1.92-.24-2.74-.55-2.69-1.7-2.27-2.79c.37-.93,1.73-.35,2.47-.84,2.09-1.38-1.67-2.19-2.49-2.67.42-.17,2.37.07,2-.87s-2.5-.92-3.18-1.11c-1.19-.31-3.38-2.37-3.08-3.77.78,0,5.41,4.77,5.69,2.95.06-.45-1.46-2.14-1.76-2.51-.8-1-1.92-.93-2.78-1.74a9.83,9.83,0,0,0-1-1c-.24-.17-.58-.18-.83-.35s-.82-.41-.78-.91c.07-1.16,2.07-.95,2.77-1.48,1-.78.34-2.58,1.49-3,.65-.23,1.28.06,2-.21,1.09-.41,1.8-.95,2.24.45s0,2.3,1.38,3.06c3,1.68,5.33-2.33,7.65-3.61a34.21,34.21,0,0,1,4.86-2.09,11.65,11.65,0,0,0,4.36-2.62,5.66,5.66,0,0,1,3.83-1.57c1.18,0,.74.4,1.2,1.32.2.4,0,.76.53.72s.55-.55.62-.89c.13-.6-.69-2-.38-2.48.41-.62,1.62.16,2,.41a21.9,21.9,0,0,0,1.86,1.61c.9.54,1.78.51,2.49,1.36,1.17,1.39,1,3.08,2.87,3.92,1.53.69,3.17.9,4.14,2.46-.87-.55-2.4-1.73-3.4-.71-.79.8-.07,1.53.32,2.24,1.12,2.08-.74,2.24-2.13,3.42-1.09.93-2.33,3.43-.45,4.08a4.13,4.13,0,0,0,2.31-.1c.94-.55.27-2.36,1.09-2.64.41-.14,1,.35,1.46.22s.85-.67,1.29-1.07c.81-.75,1.92-.45,2.68-1.12,2.19-1.93-2.11-2.8-1.94-4a.82.82,0,0,1,.92-.71l.21.06c.68.28.78,2,1.54.78.44-.69-.19-2-.43-2.71a19.69,19.69,0,0,1-.66-3.57c.55,1.3,1.35,2.55,1.16.18,0-.59-.79-3.64-.25-3.59.52,1,1,2,1.41,3.1A16.85,16.85,0,0,1,158.92,352.35Z" transform="translate(-21.65 -37.01)"/>
        <path id="path1823" class="cls-2" d="M500.28,162.17c-.12.77,1.09,1.48.6,2.18-.14.21-1.23.47-1.51.7a6.37,6.37,0,0,0-1,1.17c-.89,1.26-1.89,2.92-1.4,4.51.29.94,1,1.6,1,2.64a12.27,12.27,0,0,1-.7,2.79c-.22,1-.06,1.77-.64,2.61s-1.16,1.12-1.41,2.19-.09,2.07-.37,3.07a17.8,17.8,0,0,1-1.66,3,9.11,9.11,0,0,0-.77,3.11c-.15,1.2-.45,3.84-1.94,3.85-.66,0-1.62-.7-1.41.75.12.74,1.14,1.39,1.73,1.73-.3.68-1.16,1-1.62,1.49a7.31,7.31,0,0,0-1,2.08,6.91,6.91,0,0,0-.13,3.47c.08.83.05,1.64.12,2.44a4,4,0,0,1-.83,2.64,7.18,7.18,0,0,0-1,3.37c-.06,1.17.21,2.7-.36,3.76s-.39.33-1.29.77c-.68.33,0,.12-.6.7a6.63,6.63,0,0,0-1.75,2.12c-.9,2.13-.34,4.55-1.15,6.73a21.2,21.2,0,0,0-1.17,3.3,27.29,27.29,0,0,1-.75,3.57,21.32,21.32,0,0,0-1,3c-.28,1.45-.22,2.94-.52,4.39-.4,1.84-1.57,2.81-2.42,4.37-1,1.87,0,3.8-.78,5.73a5,5,0,0,0-.24,2.65,7.63,7.63,0,0,1-.57,2.95c-.85,2.4-2.2,4.62-2.06,7.25a9.39,9.39,0,0,1,.07,2.8c-.21.9-.59,1.8-.88,2.68l-2.64,8a15.63,15.63,0,0,1-.57,1.67,4.82,4.82,0,0,1-1.77,2c-.46.35-1.38,1.43-1.89,1.36-1.45-.18-.81-3.46-.76-4.3.07-1.54-.62-2.9-.63-4.49,0-3.56.44-7.11.57-10.67a10,10,0,0,0-.46-3.48,17.57,17.57,0,0,1-.38-6.66c.17-2.07-.31-4,.16-6.08a51,51,0,0,1,2.12-6.47c1.71-4.55,2.85-9.19,4.17-13.86a31.75,31.75,0,0,1,2.73-6.92,19.48,19.48,0,0,0,1.4-2.82c.48-1.35.29-3.05,1-4.31.9-1.62,2.72-1.52,4.34-1.69,2.43-.24,2.38-2.46,2.66-4.54a24.85,24.85,0,0,1,1.31-4.87,23.83,23.83,0,0,1,.85-2.32,14.29,14.29,0,0,1,1.72-2.31c.7-1,.45-2.06.79-3.18a20.4,20.4,0,0,1,1.62-3,24.83,24.83,0,0,0,2.33-8.61c.14-1.65-.73-3.49.65-4.68a5.41,5.41,0,0,0,2.25-5.51,11.87,11.87,0,0,1,4.94-11.11c.18.6.77,2.46,1.52,2.36.49-.06.6-1.09.71-1.43C500.19,161.13,500.15,161.64,500.28,162.17Z" transform="translate(-21.65 -37.01)"/>
        <path id="path1839" class="cls-2" d="M488.38,41.53c5.23.53,1.22-2.81-.49-4.12" transform="translate(-21.65 -37.01)"/>
        <path id="path1839-2" class="cls-2" d="M466.65,41.2c2.64.58,4.45,2.94,7.15,3.55,1.4.32,2.82.5,4.21.85a9.71,9.71,0,0,1,1.42.43,10.74,10.74,0,0,1,1.22.91c.73.13.81-.62,1.36-1,.83-.63,1.73-.22,2.65-.47a2.81,2.81,0,0,0,1.89-2.53c0-.59-.75-1.09-.2-1.53" transform="translate(-21.65 -37.01)"/>
        <path id="path1839-3" class="cls-2" d="M464.17,41.23c1.15-.2,1.21.47,2.48,0" transform="translate(-21.65 -37.01)"/>
        <path id="path1839-4" class="cls-2" d="M189.71,41.11c.38.19,1.34.67,1.54.82s.41-.06.64.29c.8,1.23-1.46,1.55-1.79,2-.56.77.79,4.9-.89,3.1-.37-.41-.09-.89-.79-.65-.36.13-.42,1-.52,1.33a6.45,6.45,0,0,1-.4,1c-.43.38-.42.7.05,1,.17.47.44.59.56,1.17.2,1-.52,4.88.77,5.29.5-1,.29-1.75,1.07-2.63.44-.5.86-1.33,1.51-.82s0,1.68,1.06,1.92c.88.19,1.27-.69,1.57-1.39,1.32-3.1,3.37-5.56,5.28-8.34-.75,1.11-.82,2.45-1.41,3.62s-1.51,1.79-2,2.84c-.37.75-1.47,3.56-1,4.34,1.58,2.55,2.84-6.34,4-4.51.29.47-.38,1.78-.16,2.41.15.45,2.6,2,1.47,2.81-.62.45-1.47-.71-2.17-.47-.93.32-1.2,1.93-1.16,2.76.16,3.39,2.32-1,3.29.19.37.46-.95,1.57-1.17,1.85a4.87,4.87,0,0,0-1.38,3.47c1.11-.29,2.64-1.91,3.47-2.69a13.41,13.41,0,0,0,2.72-4.45,40.94,40.94,0,0,0,1.5-6.37,14.3,14.3,0,0,0,.8-4.53c-.11-1.14-.94-2.23-.75-3.38,1.87.82,1.1,5.23,2.58,6.78a7,7,0,0,1,2.24-3.31c.52-.3,1-.47,1.48-.06.9.69.23.94-.32,1.28a4.68,4.68,0,0,0-2.08,1.81c-.55,1.06.31,1,0,1.93-.18.56-1.59,1.36-2,1.85a7,7,0,0,0-.71,1.09,34.76,34.76,0,0,0-2.85,5.73c-.35,1-.12,2.15-.42,3.2a10.49,10.49,0,0,0-.8,2.45,1.63,1.63,0,0,0,1.56,1.71.82.82,0,0,0,.27,0c1.22-.16.08-1.64.1-2.6,2,3.83,5.25-2.87,6.27-3.92,1.16-1.22,3.55-.09,4-2,.23-.87-.59-1.92.7-1.89,1,0,2,1.09,3.12,1s1.76-1,2.59-1.81c.66-.65,2.14-1.35,2,.16-.15,1.87-3.08,1.82-3.83,3-.35.56-.1.89,0,1.49,0,.39-.15,1.48-.05,1.75.22.58,1,1.1,1.37,1.68a10,10,0,0,1,1,3.47c0,.28,0,1.12.26,1.32.54.49-.17-.09.68.08s1.18-.06.65,1.33c-.62,1.62-.73.52-1.81,1s-.57,3.47-.59,4.49c0,1.29.15,3.85-.79,4.93-.34.39-1,.35-1.28.75a11.34,11.34,0,0,0-.26,1.65c-.2.68-.91,1.64-.79,2.38s.83.68,1.17,1.44a4.83,4.83,0,0,1,0,2.14,21.11,21.11,0,0,1-.79,4.68c-.5,1.56-2.17,1.92-2.73,3.33s.43,1.5,1.17,2.29c.31.34.48.33.44.79s-.8.37-.94.83c-.26.81,1,.8.61,1.47-.26.5-2.3.76-2.82,1.06-2.2,1.27,1.1,2-.33,3.39-.55.53-1.86.62-1.94,1.6-.12,1.44.95-.13,1.69.07-.69,1.42.6,1.7,1.15,2.86.46,1,.8,2.9,2.08,3,.41,0,3.77-1.06,3,.73-.14.33-.78.39-1,.76s.07,1-.09,1.37-.9.9-1.24,1.14c-1.25.88-3,1.65-3.52,3.21a4.14,4.14,0,0,0,.18,2.26c.21.18.76-.07,1.13,0s.75.63,1,.6c1.11-.14-.35-1.61.22-2.24s1.76,0,2.1.45c.65.79.3,1.54,1.61,1.46.44,0,.71-.32,1.17-.29s1.11.51,1.71.56c-1,.78-2.44,1.32-2.31,2.73s1.49,2.09,1.87,3.27c.28.83-.72,3,.46,3.36s1.13-1.81,1.36-2.52c1.51.26.44,3.19.56,4.17.09.8.77,1.48.72,2.3s-.56,1.34-.56,2.12-.51,2.62-.25,3,.83.2,1,.46c.54.72-.24,1-.73,1.53.43.33,1.43.1,1.6.67.23.72-.71.68-1.09,1.1-.79.86-.55,2.28-.73,3.3a5.74,5.74,0,0,0-.1,2.91c.12.38.53.65.58,1.25a3.74,3.74,0,0,1-.3,1.68c-.14.47-.73.57-.09.93s1.18-.58,1.68,0c.71.86-1.11,2.4-.41,3.42.81,1.19.78-1.21,1.71-1.18,1.19,0,.05,2.11,1.06,2.31a32.71,32.71,0,0,0,.18-4c.15-1.23.94-2.12,1-3.37.05-1.58.13-3.35,1.37-4.61s1.58,1.52,2.39,2.28c.5.47.66.41.84,1.12a3.94,3.94,0,0,1,0,1.37c-.2,1.54-1,.8-1.69,1.8,1,.15,2.43-.49,2.17,1.09-.13.76-.9,1.22-1.43,1.68a4,4,0,0,0-1.73,2.56c-.09,1.54.86.84,1.76.42,1.63-.76,1.38.31,1.87,1.38.35.79,1,.53,1.5,1.2.4.5.25,1.51.28,2.06.06,1,.36,1-.45,1.77a7,7,0,0,1-1.11.68,2.54,2.54,0,0,0-.29,1.24c-.32.47-.86.54-1,1.09.52.28,3.44.06,3.23,1.24-.14.79-1.38.26-1.91.3-.29,0-.82-.32-.94.23a9,9,0,0,0,1.23,1.31,2.55,2.55,0,0,0,1.85,1c.47,0,.79-1,1.54-.39,1.79,1.46-2.33,2.14-2,3.15.19.65.86.48,1.39.43,1-.08.93-.33,1.31.5.59,1.26-.16,3,.36,4.33.32.77,1.21.79,1.58,1.46s-.07,1.51-.25,2.08-.66,1.18-.4,1.82.84.63,1,1.3-.34,1,.07,1.79a3.28,3.28,0,0,0,.58.7c.44.44,1,.95,1.38,1.33.83.73,2,1.17,2.7,2.09a6.74,6.74,0,0,1,1.12,3.77,15,15,0,0,1-.53,2.39c-.12.78.09.66.19,1.32a8.12,8.12,0,0,1,.1,2c-.08,1.68.46,1,1.67,1.63.88.46,1.51,1.38,2.4,1.86s1.88.4,2.66.89c1,.66.82,1.88,1.76,2.57.25.18.5,0,.73.31s.07.84.35,1.29c.47.74,1.28.47,1.95,1a5.94,5.94,0,0,1,1.82,3.76,10.22,10.22,0,0,0,.16,3c.28.94.3,1.84.54,2.75a7.71,7.71,0,0,0,1.33,2.71c.66.57,1.21.1,1.61,1a7.27,7.27,0,0,1,.05,2.75c0,1.38.35,1,1.19,1.63.68.52.59.18.94,1.06.2.51.06,1.45.44,1.84.73.74,3,.25,3.86-.29.53-.33,1-1.31,1.63-1.29.32,0,1.15.76,1.53.89.77.27,1.2,0,1.73.8a4.77,4.77,0,0,1,.52,2c.08.67,0,1.37.17,2a25,25,0,0,0,1.16,3,15,15,0,0,1,.25,9.73c-.94,2.81-3.06,6.06-6.37,4.12-1.51-.89-2.47-2.33-4.36-2.35a3.71,3.71,0,0,0-3.86,2c-1.17,1.68-2.27,5-.38,6.51,1.11.92,2.63,1.42,3.84,2.23a3.85,3.85,0,0,1,1.73,3,10.79,10.79,0,0,0,1.23,3,5.31,5.31,0,0,0,1.29,2.25c.61.56,1.53,1.1,1.92,1.87.66,1.32-.2,3.24-1.08,4.32s-1.17.74-2.36.52a5.66,5.66,0,0,0-1.16-.14c-.94,0-1.06.63-1.81.79-1.48.31-2.32-2.67-3.13-3.43-1.51-1.45-3.8-1.49-5.54-2.58-1.34-.85-3.2-2.83-5-2.36,0,.9,1.42,1.46,2,2.05a9.19,9.19,0,0,1,1.56,2.69c.89,2.13,1,4.4,1.63,6.56.6,1.94,0,4.36,1.11,6a46.27,46.27,0,0,0,3.24,5,48.45,48.45,0,0,1,3.45,4.73A4.22,4.22,0,0,1,267,302,4.59,4.59,0,0,0,268,305.5a7.32,7.32,0,0,1,1,2.83,10.42,10.42,0,0,0,1.65,3.08,9.21,9.21,0,0,1,1.2,3c.27,1.25.2,3.4,1.12,4.4s2.24.24,3.36,1.26a10.12,10.12,0,0,1,2.48,4.36c.4,1.26.85,2.84.08,4.05-.47.72-1.5,1-1.28,1.94.42,1.81,1.64.49,2.5.82,1.12.42-.29,2.3,1.09,2.49.67.1,1-.81,1.77-.22s.75,2.39,1.2,3.16a17.09,17.09,0,0,1,1.11,1.7c.36.88.19,1.12-.12,2.06s-.21,1.86-.56,2.72c-.5,1.25-1.6,1.25-2.43,2.15a14,14,0,0,1-1.77,2.14,15,15,0,0,0-1.69,1c-1.34,1.25-1.38,3.49-.91,5.12a31.52,31.52,0,0,0,2.62,5.54c.52,1,1.74,2.94,1,4.14-.48-.34-.32-.9-.73-1.31-1.34.93.29,3-1.15,3.91a3.09,3.09,0,0,1-3.88-1.11c-.21.59-4.66,5.42-1.76,5.32.56,0,1.29-1.11,1.92-1.29.89-.26.94.24,1.66.58s.52.34,1.13.07c1-.47.77-1.71,2.15-1.29,2.17.66,3.75,4.12,6,4.22,1.14,0,1.73-1,3-.87,1.61.22,3.12,1.49,4.46,2.31,2.84,1.72,6.91,2.74,9.74.55,1.28-1,2.36-2.23,3.64-3.22a4.41,4.41,0,0,1,4-.9,2.94,2.94,0,0,0,3.18-1.56,7.58,7.58,0,0,1,1.51-2,9.63,9.63,0,0,1,2.76-.91,13.35,13.35,0,0,1,3.56-.43c1.41-.06,3.28.4,4.62.13,1-.21,1.6-1.23,2.62-1.46,1.62-.35,3.33.88,4.51,1.79a16.9,16.9,0,0,1,2.16,1.8c.52.57.7,1.08,1.49,1.35s1.73.15,2.54.35a9.11,9.11,0,0,0,2.63.48c3.73-.15,4.08-3.69,5.43-6.37,1.27-2.52,3.25-4.67,4.85-7a9,9,0,0,0,1.64-2.95c.26-1.34-.9-2.95-1.41-4.17a28.61,28.61,0,0,0-3-4.45c-1.22-1.89.07-3.67-.68-5.55-.54-1.38-2.17-1.85-3.07-3a7.66,7.66,0,0,1-1.36-4.09,25.9,25.9,0,0,1,1.1-9.46c.72-2.54,1.62-6.24,3.85-7.86.47-.35,1.31-.61,1.69-1.07s.35-1.27.45-2c.31-2.2,1.88-2.89,3.42-4.24a16,16,0,0,0,1.62-2.2c.65-.8,1.55-1.24,2-2.2.39-.77.24-1.74.63-2.48.53-1,1.22-.38,2.16-.74s2.37-3.13,3.08-1.52c.19.41-.41,1.64.41,1.51.64-.11.62-1.31,1.36-1.48.23.53-.14,1.17.09,1.69.3.67.7.48.78,1.2s-1.23,2.35-.09,2.37c.33,0,.37-.4.68-.48.47-.11.63,0,1.12.14.2,0,.7.27.95.21.63-.15.39-.55.75-.9,1.51-1.43.5,1,1.81,1.18.42.07,2.64-3.12,2.61-3.71a8,8,0,0,0-1.12-2.74c-.46-.65-1.21-.89-1.47-1.66s.21-1.69-.32-2.46c-.32-.46-.88-.63-1.23-1.13a4,4,0,0,1-.57-2.06c0-.86.07-2.78,1-3.28.62-.35,1.43.23,2,.33.91.15,1.76-.37,2.66-.29s1.17.47,1.57,1.28c.19.38.57,1.55,1.23,1.29,1.1-.42-.34-2.37.9-2.92.6-.27.94.18,1.38.47,1,.66.66.52,1.71,0a6.46,6.46,0,0,1,5.12,0c.63.3,1.94,1.68,2.05.39.07-.81-1.24-.88-.7-2,.2-.41,1.86-1,2.37-.55s-.08,1.55.47,2.17c.37.43,1.14,1,1.75.85s.9-1.59,1.62-1.58c.53,0,.21.49.55.83.7.68,3.52,1.17,4.34.42.47-.43,1-3.1,2-1.57.3-.44.41-1,.84-1.37.24.78.62,1.49.92,2.25.57,1.38.11.59-.61,1.2-.46.38-.54,1.23,0,1.45.93.37.89-1.24,1.82-.61.42.29-.28.51.52.85s1.23-.31,1.48-.81c.5-1,0-2.3.76-3.25a2.13,2.13,0,0,1,3,.14l.12.15c.48.5.81,2.88,1.8,2.36.82-.43-.11-2.11.38-2.74.27-.35,1.14-.36,1.55-.65a5.56,5.56,0,0,0,.78-.83c.21-.23.26-.57.56-.74s.57.16.82.05c.56-.27.84-1.24,1.58-1,1,.29-.24,2.29-.44,2.87-.3.89-.22,2.46,1.29,1.64,1-.52.79-2.18,1.56-2.77,1-.77.76.5,1.17.87s.53.11,1,.15.46-.37.93,0c.62.54-.31,1.44,1.15,1-.13,1.77.59.64,1.25.77,1.09.22,1,2.26,2.47.78.44-.45.22-.94,1-1s.89.64,1,1.38a3.92,3.92,0,0,1-.47,2.78c-.9,1.16-2.47,1.29-.56,2.55.68.44.79.07,1.32,1,.23.4.4,1.53,1,1.5.92-.07,1.13-2.21,1.41-3,1-2.87,2.7-5.43,3.84-8.24a4.43,4.43,0,0,1,1-1.92c.41-.33,1-.35,1.4-.67,1.29-1,.69-2.68,1.48-3.92s1.35-1.26,1.41-2.76a18.56,18.56,0,0,1,.12-4.08c.42-1.57,1-3,1.33-4.65.35-2,.61-4,.82-6,.13-1.26.95-2.1,1.27-3.38a22.81,22.81,0,0,1,1.28-4,26.28,26.28,0,0,0,1.6-4.23c.2-.82.19-1.53,1-1.89s1,.17,1.38-.47.16-2.43.13-3.25a19.64,19.64,0,0,1-.1-3.16c.19-1.35,1.14-2.43,1.68-3.66.41-1,.83-2.42,2.11-2.5,1.52-.11,1.44,1.8,3.15,1a2.88,2.88,0,0,0,1.93-2.46,13,13,0,0,0-.33-3.17,7,7,0,0,1-.28-1c0-.79.43-1.29.19-2.11s-1.52-2.11-.7-3c.35-.37.79-.09,1.21-.33.27-.15.35-.73.65-.9a8.21,8.21,0,0,1,1.55-.25c1,.27,1.32,1.77,2.35.65a2.71,2.71,0,0,0,.38-2.23c-.38-.83-.56-.63-1.28-.1-.89.64-1.54,1.32-2.1-.07a6.11,6.11,0,0,1,.33-3.58c.34-1.22.88-2.39,1.17-3.62a10,10,0,0,0-.08-3.5,4.81,4.81,0,0,1,.89-3.73c.4-.62,1.07-1.53.78-2.32-.2-.55-.89-.69-1.14-1.18a6,6,0,0,1-.32-3.38c0-.64-.38-5.29,1.57-3-.14-.94-2.49-3.05-.81-3.22.82-.09,1.33.94,2,1.12.87.24.63-.43.88-1.2.14-.42.25-1.31.85-1.17.84.19.28,1.27.74,1.74a3.52,3.52,0,0,0,2,.18c.47-.36.23-.68-.12-1.21s-.88-.74-1.11-1.26c-.38-.91.12-.94.47-1.63.45-.88.34-.44,0-1.2a21.28,21.28,0,0,0-.92-2.33c-.58-.85-.53-.1-1.27-.17s-.67-1-1-1.62c-.64-1.33-1.77-2.28-2.2-3.73a11.07,11.07,0,0,1-.31-2.36,5.33,5.33,0,0,1,.35-2.53c.2-.67-.11-1.38.38-1.91s1.2-.07,1-1.15c-.1-.58-.93-1.21-1.12-1.86a5,5,0,0,1,0-2.49,4.89,4.89,0,0,1,3.27-2.93c.39-.11,1.39.12,1.52-.43s-1.29-.82-1-1.58,1.19.16,1.52-.47c.2-.4-.53-1.12-.72-1.37-.69-.94-1.49-1.93-.77-3.15,1.16-2,3.84,1.21,4.8,0,.44-.54-.57-1.45-.44-2,.21-.89,1-.64,1.73-1,1.44-.72.2-.79-.49-1.32a1.88,1.88,0,0,1-.73-1.51c-.09-.6-.44-.94.32-1.35s1.44.52,1.7-.62c.14-.59-1.11-2-.45-2.39s.88.58,1.33.86c1.61-1.74-1.76-3.94-2.15-5.47-.13-.53.07-1,0-1.51s-.56-.66-.7-1.07.22-.85,0-1.18c-.46-.64-2.63-1.23-2.72,0-.64-2.14-1.26-.75-2.84-1-1-.17-1-.63-.27-.93.44-.19,1.56.22,1-.68s-1.6-.29-.89-1.51c.23-.42.81-.32.84-1a9.15,9.15,0,0,0-1-2.36c.61.89,1.08.92,1.66,0,0,.63-.3,3.09.19,3.51.78.68.82-1.12,1-1.4.39-.51.62-.11,1.22-.37,1.22-.5,2.1-2.38,1.14-3.37-.59-.61-2-.8-1.91-1.85.71-.15,1.49.43,2-.16a1.53,1.53,0,0,0,0-1.6c-.14-.25-.48-.25-.62-.45s-.28-.63-.46-.91c-.47-.71-1.52-1-1.53-2,1.11.6,2.2,2,3.52,2.21.68.09,1.28-.29,1.95-.32.41,0,1.22.37,1.48,0,.43-.52-.36-.46-.48-.91s.11-1,.84-.66a3.7,3.7,0,0,0-.88-2c-.73-.84-1.13-.49-2.18-.78,0-.58.52-.86.35-1.44-.1-.31-.76-.47-1-.68-.78-.6-1-1.54-1.71-2.23-.36-.36-.86-.56-1.2-.94a6.55,6.55,0,0,1-1-2.19,4.59,4.59,0,0,0-1.27-1.91c-2.68-2.36-6.91-4-6.66-8.26a13.67,13.67,0,0,0,2.25,2.61c1,1,2.36,1.59,3.17,2.78a45.08,45.08,0,0,0,3.36,3.69,7.59,7.59,0,0,1,1.34,2c.44,1.13.25,1.73,1.33,2.41a7.56,7.56,0,0,1,2.15,1.83c.28.34.66,1.15,1.23.86.84-.41-1.54-3.29-1.94-3.85a83.19,83.19,0,0,0-7.51-9.32c-.7-.72-1.55-1.29-2.28-2-.24-.24-1-.82-1-1.19,0-.59.44-.19.86-.17,1.67.07.38,0,.5-1.24s1.57.16,2.2.59c.32.21,2.07,1.72,2.47,1.49.69-.4-.19-2.93.09-3.64s1-.51.43-1.26c-.69-1-2.43-1.53-3.31-2.42s-2.17-3.1-.76-4c1-.65,1.14,1.15,2,1.72.21.15.7.06.85.17.49.41.39.89.62,1.4a9.27,9.27,0,0,0,1.17,1.67c.38.52.8,1,1.23,1.51s1.44.92,1.56,1.46c-.38-.22-1.69-.86-2.05-.56s.26,1.37.3,1.76-.34,1.33.09,1.72.62-.12,1.06-.09c.91,0,.74.9,1.36,1,1.07.25,1-2.34,1-2.6.15-.93.21-1,.77-.57.77.63.84,2.62,1.38,3.5a1.43,1.43,0,0,0,2.73-.45c.15-.86-3.64-4-2.38-4.55.86-.41,1.83,2.56,2.76,1.72.61-.54-.44-1.48-.75-1.8a2.84,2.84,0,0,1-1.17-2.24c0-.55.1-1.93-.48-2.37-1-.75-.44.69-.82,1.12-1.06,1.22-1.07-2.8-2.18-2.67-.12,0-.52.84-1.08.88a2.8,2.8,0,0,1-1.65-.56c-.93-1.09,1.28-.06,1.7-.37.91-.67-.74-1.58-1.08-2.08-.88-1.32.77-2.58.84-4.09.67,1.66.17,4.71,2.46,5.16-.07-.94-1.67-2.32.5-2.31.64,0,1.57,1,2,.84.8-.35.14-2.39-.06-2.92-.71-1.83-1.59-1.23-3.25-1.52.05-.63,1.49-.31,1.77-.63.41-.47-.1-.59,0-1s0-.32.23-.6.7-.22.92-.55a2.3,2.3,0,0,0-.64-2.46c-.74-.48-1.25.12-1.9-.63-.5-.57-1.92-2.94-1.52-3.72s1,.1,1.27-.29-1-1.57-1.18-1.8c-.39-.4-3.43-3.59-2.08-4,.87-.28,2.45,2.13,2.85,2.65,1.08,1.37,2.06,2.83,3.12,4.22s1.81,1.24,3-.18a2.13,2.13,0,0,0,.71-1.79c-.12-.57-.5-.39-.7-.82-.3-.63-.54-1.51.21-1.57.34,0,.84.67,1.23.51.56-.22.4-1.58.31-2a9.9,9.9,0,0,0-.75-1.62c-.44-1,0-1.4,0-2.46-.63-.15-1.17.43-1.15-.42,0-.6.82-.59.44-1.28-.59-1.07-3.2-1.33-4.18-2.1-.6-.47-.75-.48-.45-1-.05.09.76,0,.84-.05s.05-.52.15-.58c.42-.21.77,0,1.13-.14s.79-1.26,1.16-1.74c.63-.82,2.49-2.1.9-2.66a2.84,2.84,0,0,0-2.42.48c-.93.76-.39,1.47-.83,2.26-.75,1.35-1.66.22-1.66-.84,0-1.28.51-1.52-.55-2.38-.72-.58-1.9-.91-2.48-1.62-.72-.88.19-.45,1-.31a14.53,14.53,0,0,1,2.61.44s.43.63.64.62c.39,0,.25-.49.5-.6.75-.34.33,0,1.06.18,1,.22,1.26-.39,1.22-1.41a2.84,2.84,0,0,0-.4-1.48c-.52-.52-.15-.26-.62-.13s-2,1.78-2.7.83c-.29-.44.57-2.07.66-2.5a2.24,2.24,0,0,0-1.16-2.73c-.95-.41-2.06,0-3-.34s-1.39-1.18-2.16-1.8c-.39-.31-.62-.65-1.17-.64-.19,0-.75.49-.95.42s-.4-1.19-.62-1.45c-.76-.88-2.52-1.27-3.54-1.68-.65-.25-3-.79-3.43-1.44-.12-.21.7-.47.82-.5" transform="translate(-21.65 -37.01)"/>
        <path id="path1881" class="cls-2" d="M53,419.49c.74.91,1.42,2.23,2.78,2a13.72,13.72,0,0,0,3.31-1.38,6.21,6.21,0,0,1,2.26-1c.71,0,1.07.33,1.73.54,1.92.62,3.65-.19,5.54.91,1.59.92,2.85,2.16,4.71,2.51a46.44,46.44,0,0,1,6.58,1.41,7.21,7.21,0,0,1,2.59,1.12c.6.71.15,1.06.18,1.91a3.72,3.72,0,0,0,1,2.21c.89.87,1.51-.09,2.6,0,1.57.1,2.58,1.07,3.67-.4.71-1,.7-1.91,2.07-1.77.67.07,1.48.8,2,.6.33-.13.59-.77.85-1a15,15,0,0,0,1.49-1.28c.56-.7.76-2.17,1.62-2.58.68-.33,1.38.22,2-.26,1.44-1.11.84-7.23,4-5.12a1.63,1.63,0,0,1,.89,1.81c-.38,1.24-1.23.19-1.87.68s.07.89.46,1.37c.56.69.83.89.48,1.86-.52,1.48-.7,2.3,1.19,1.73s2.38.07,3.25,1.81,1.67,1.25,2.09-.5a3.34,3.34,0,0,0-1.19-3.28c-.29-.28-1.52-.94-1.56-1.4-.15-1.79,2.68.18,3.24-.12.9-.5-.83-4.16-.87-5.1-.07-2-.35-4.64-2.41-5.54-2.37-1-5.13-1.68-6.14-4.32-.15-.39-.22-1.2-.65-1.42s-.48.07-.9.5c-.79.82-1.29.71-2.37.75s-3.64,1.83-4,.11,2.62-1.76,3.63-2.29a2.59,2.59,0,0,0,1.35-3.15,17.28,17.28,0,0,0-1-2.27c-.6-1.28-1.48-.5-2.29-1.26a.9.9,0,0,1-.11-1.28h0c.64-1,1.79.22,2.34-.43.77-.91-1-.52-1.27-1.17-.54-1.27,2.69-2.5,3.29-3.19,1.18-1.37,1.22-2.53,2.73-.81.59.68.43,1,1.26.52a7.51,7.51,0,0,0,1.89-2.12c.6-1.07.5-2.29,1.2-3.37.85-1.32,1.85-2.27.18-3.6-.74-.58-1.54-1-2.29-1.67-.42-.38-.65-.73-1.31-.48-.41-1.21,1.91-1,1.16-2.44-.24-.44-.88-.18-1.07-.67-.07-.19.44-.95.47-1a6.66,6.66,0,0,0-.07-2.63,4,4,0,0,0-.53-1.87c-.24-.29-.65-.06-.86-.56-.35-.81.65-1.62.68-2.38,0-1.09-1.26-1.76-1.09-3.09.27-2.05,3.14-1.33,3.82-3.41a3.25,3.25,0,0,0-2.17-4c-1.56-.43-2.94.58-4.47.75-1.29.15-3-.5-1.18-1.52.77-.43,2.29-.39,2.67-1.33.17-.42-.47-1.4.3-1.51.6-.09,1.49,1.18,2.32,1.16,1.09,0,1.51-1.1,2.56-1.38.84-.22,1.7.19,2.28-.62s-.08-1.82.35-2.55.56-.33,1.31-.41c1.57-.17,1.49-1.78,2.31-2.95s4.3-2.33,3.65-3.68c-.83-1.73-4.13.33-5.36-.05-2-.62-.54-2.77-1.87-3.84a10.11,10.11,0,0,1-2.16-1.75c-.74-.94-1.21-1.86-2.39-2.08s-3.43.63-3.9-.86c-.32-1,.88-.57,1.5-.57,1.23,0,2.42-.52,3.65-.43,2.29.18,2.89,2.56,4.87,3.26.89.32,1.82.51,2.7.84a2.53,2.53,0,0,0,1.71.23c1-.24,1.66-1.11,2.58-1.58a26.56,26.56,0,0,1,3.68-1.35c.57-.2,1.15-.41,1.74-.56a2.33,2.33,0,0,1,.69-.17s1.06.29.56.29c2,0,0-1.24.21-2.35.17-.73,3.75-1.92,2.84-2.72-.73-.66-2,.76-2.37-.8a4.07,4.07,0,0,1,.49-2c.35-.93,2-3.58,1.13-4.27-.24-.19-.9.11-1.22,0-.12,0-.29-.28-.44-.32-.51-.16-1-.31-1.51-.42a31.06,31.06,0,0,1-4.67-1c-.7-.27-2.16-1-1.21-1.86.55-.52,2-.19,2.65-.12,1.27.12,1.89.2,2.62-.88.59-.87.49-1.59,1.73-1.69.23,0,.44.1.66.1a8.47,8.47,0,0,0,1.79-.42c1.19-.23,3.51.05,4.17,1.25.51.92.18,2,.89,2.88.33.42,1.49,1.65,2,1.55.66-.11.82-2.29.85-2.75,0-.92-.92-1.79-.7-2.66.17-.67.54-.65,1.07-1a3.21,3.21,0,0,0,1.15-.95,4.47,4.47,0,0,0,1.27-3.3c0-1.07.31-2,.28-3.09s-.68-2.2-.42-3.42c.19-.86,1.81-2.56,1.65-3.42-.33-1.71-1.78.5-2.47.63.27-1.31,1.4-2.2,1.52-3.56a8.89,8.89,0,0,0-1-3.85c-.66-1.55-1.06-2.16-.58-3.87a7.37,7.37,0,0,0,.44-2c0-.75-.39-1.49-.35-2.24.12-2.25,2.76-4.24,3.93-6,.78-1.17.66-2.59,1.5-3.71.41-.55,1-.94,1.33-1.53s.5-1.52,1.06-1.94c1.32-1,6.7,1.52,5.15,3.05-.53.53-1,.14-1.53.81-.87,1.18-.25,2.45-.44,3.64,0,.29-.48,1.56-1,1.43s-.23-.94-.42-1.24c-.64-1-1,.11-1.61.59s-1.29.34-1.94.68c-1.62.88.31,2.18.89,3.14s.52,3.16,2,2.25c.54-.33.81-1.09,1.17-1.58a2.5,2.5,0,0,1,.6-.73c.74-.4.43-.09,1.07.18,1.26.52,2.91.58,2.7,2.31s-.69.33-1.56.9c-.63.39-.27,1.18.09,1.67l-.24-.37c.56,1.2,2,5.39,3.78,2.5,1.06-1.67-.71-3.6-1.27-5.13a2.26,2.26,0,0,1,.29-2.39c.38-.42.75-.85,1.09-1.31a21.21,21.21,0,0,1,.85-2.17c1.06-1.5,3.87-1.71,4.94-.11a2.17,2.17,0,0,1,.29,1.88c-.35.86-1,.47-1.49.87-.73.59.25,1.41.75,2.05.63.79,1,2.83,2.09,3,2.36.33,1.54-5.08,1.65-6.34.24-3.07,2.59-4.71,4.13-7.14.76-1.18,1.2-2.54,2.05-3.66s1.78-1.77,2.57-2.74c1.66-2,.54-4.86,1-7.27a6.17,6.17,0,0,1,1.5-3c.71-.88,1.24-1.59.54-2.65-1.25-1.87-3.87-2.26-4.62-4.57a4.49,4.49,0,0,0-4.14-4.43c-1.21-.23-2.09.75-3.28,1-1.49.3-3,0-4.49.32-1.29.3-2.51.86-3.77,1.26a7.4,7.4,0,0,1-7-1.08,15.17,15.17,0,0,1-2.83-2.08,13.22,13.22,0,0,1-1.77-3.26c-.21-.5-.47-1.92-.94-2.21-.95-.6-1.48.85-2,1.47-.81.87-2.29,1.25-2.86,2.33a6.06,6.06,0,0,0-.33,2.46,16.85,16.85,0,0,0,.52,6.16l-2.55.4c0-.92.86-1.73,1.11-2.59a9.26,9.26,0,0,0-.1-3.06,8.08,8.08,0,0,1,.48-3.61,23.19,23.19,0,0,1,3.13-4.43,6.92,6.92,0,0,1,2.18-1.69,2.21,2.21,0,0,0,1.5-2.74,1.48,1.48,0,0,0-.1-.27c-.35-1.29-1.9-1.73-2.71-2.78-.67-.87-1.27-2.63-2.44-2.75-1-.09-1.23.7-1.9,1.12-1.47.91-2.06,0-2.68-1.32-.15-.34-.66-1.12-.28-1.5.55-.53,1.77.94,2.49,1,.93,0,1.44-1,2.37-1s1.32.68,2,1.13c1.24.8,2.06.26,2.28-1.22s-.85-2.12-1.43-3.32a27.35,27.35,0,0,1-2.28-11.6,36.82,36.82,0,0,1,.56-6.87c.3-1.55,1.11-3.41,1-5s-1-.61-2.38-.67c-2.62-.11-3.91-1.53-5.23-3.51-1.18-1.78-3.44-2.52-4.83-4.17a9.17,9.17,0,0,0-2.54-2.54c-1.37-.68-1.72-.11-2.5.87-.26.32-.53.86-.93,1-.76.33-.72-.14-1.51-.11a7.7,7.7,0,0,0-2.38.9c-.6.34-1.17,1.46-1.82,1.47-.32,0-1-.75-1.39-.85a5.51,5.51,0,0,0-2.14.18c-1,.1-2.53-.43-3.46.07s-1.19,1.82-1.48,2.62a5.89,5.89,0,0,1-1.35,2.61c-.35.33-.82.47-1.15.84-.47.52-.57,1.3-1.11,1.77-.7.62-1.38.45-1.62,1.52-.12.51.28,2.07-.38,2.23-.19,0-.93-1.63-1.05-1.94-.6-1.61.13-1,1-1.75a1.91,1.91,0,0,0,.38-2.68.84.84,0,0,0-.15-.18,13.2,13.2,0,0,0-4.47-1.37c-3.8-.71-7.94-.81-10.49,2.41-.67.84-1.51,1.28-2.22,2s-.85,1.94-1.51,2.8c-1.12,1.48-2.88,2.84-2.4,5,.24,1.13,1.35,1.62,1.78,2.63.8,1.88-1,3.07-1.5,4.7a7.12,7.12,0,0,0,.78,4.13c.61,1.51,2.62.9,2.91,2.46.27,1.41-.76,3.44-1.41,4.63s-2.29,2.42-2.53,4c-.09.6.07,1.61.9,1.39.66-.17.87-1.46,1.2-2,.64-1,2.78-2.36,4-1.59S87,234,87.12,235.3c.13,1.86-.55,3.14-.8,4.89-.18,1.32,0,2.62-.24,3.93s-.38,2.2,1.33,1.83c.84-.19,1.41-1,2.21-1.18,1.19-.31,1.07.26,1.15,1.35,0,.72.4,1.5-.34,1.92s-2-.49-2.73-.16-.79,1.59-1.61,1.29c-.56-.21-1.63-2.69-1.87-3.26a4.63,4.63,0,0,1-.36-2.67c.21-1.07.74-1.19,1.34-1.93,1.57-1.95-1.24-3.26-2.94-2.82-1,.25-1.72,1.71-2.81.66-.5-.49-.22-1.26-.5-1.8-.61-1.19-1,.35-1.17,1.21a2.26,2.26,0,0,0,0,1.29c.07.26.79.77.59,1.11s-1.34-.23-1.88.09c-1.33.81-.4,3.18-.81,4.37-.54,1.58-1.6,0-1.94-.94a9.53,9.53,0,0,1-.24-5.24c.42-1.56,2-2.31,2.75-3.68a23,23,0,0,0,2.23-5.4c.5-2-.88-3.23-1.47-5.06s-1.11-5.65-3.63-5.37a2.21,2.21,0,0,0-1.39.63c-.37.27-.54.63-1,.59-.73-.06-1.08-.9-1.91-1-1.91-.14-3.28,2-4.07,3.45-.43.77-.76,1.59-1.18,2.35s-1,1.23-1.29,1.89c-1.57,3.17,5.13.69,3.14,3.62-.91,1.34-2.32.75-3.67.82-2.15.12-2.86,1.93-3.59,3.7-.61,1.47-1,3.21-2.79,3.32-.55,0-1.24-.35-1.76,0-1.16.76-.3,1.9.25,2.51a21.65,21.65,0,0,1,1.25,2.19c.49.7,1.56.89,2,1.62s-.12,1.31-.43,2.07a3.48,3.48,0,0,0,.06,3.05c.8,2.48-.85,3.19-3.15,3.32-1.47.08-3.75-.06-4.46-1.63-.47-1,.41-1.94.12-2.94-.16-.57-.71-.67-1-1.12a3.55,3.55,0,0,1-.24-1.44c-.06-.6,0-2-.77-2.35-1.14-.5-.84,1.21-1.11,1.77-1.13,2.37-3.53-.8-4.94-1.29a10.36,10.36,0,0,0-2.43-.81c-.76,0-1.35.38-2.19.25-1.44-.24-1.76-.78-2.56.57-.29.49-.25,1.43-1.07.72-1.82-1.57,1.95-2.89-1.07-3.6-.52-.11-1.81-.13-2.12-.6-.43-.65.22-1.29-.31-2s-1.17-.33-1.44-1.14a4.65,4.65,0,0,1,.22-2c.33-1.56,1.31-3.07,1.58-4.57.12-.63-.08-1.11-1.11-.81S27.5,233,27.26,234c-.64,2.64-1.56,5.13-2.38,7.71a20.21,20.21,0,0,0-.76,8.25c.25,2.83-.36,5.57.06,8.4a16.17,16.17,0,0,1,.1,4.17c-.06.63-.62,2.74.24,2.87.54-1.19-.33-6.55,1-6.74,0,0,1.52.55,1.52.56a5.28,5.28,0,0,0,.61.8,2.2,2.2,0,0,0,.77.15c1.09.42,2.38.67,2.25,2.34-.05.62.13.64-.56.57-.51-.06-.91-.69-1.28-1-.81-.61-1.91-1.36-2.17.14-.34,2,2.44,3.91,3.54,5.15s1.41,2,2.81,2.43c.32.09,1.12-.1,1.31.28s-.75,1.59-.94,1.92a6.5,6.5,0,0,0-.52.93,2.25,2.25,0,0,0-.87.41c-.21.21-.23.64-.42.88s-.48,1-1,.25.72-2.38-.16-3.35-2.28.17-3.19-.56a5,5,0,0,1-.45-.89c-.68-.34-.55.47-1,.43-1.83-.15-.1-3.09-1.38-3.42a9.24,9.24,0,0,0-.19,3.55,15.11,15.11,0,0,1,.06,3.8c-.06,1.65.65,3.05.62,4.74a48,48,0,0,1-.76,8.87,29.27,29.27,0,0,0-1,4.71c-.11,1.84-.12,3.68-.07,5.52,0,.63.45,9.66,2.31,8.11.45-.37,0-1.15-.13-1.52a7.27,7.27,0,0,1-.37-3.3c.12-1.17.43-2.32.45-3.5a5.17,5.17,0,0,0-.18-1.66c-.21-.73-.93-1.31-.85-2.07.24-2.19,3,1,3.87,1.33A9.89,9.89,0,0,1,33.17,300c.83,2,.53,4.08,1.68,6,1.25,2.11,2.8,3.65,3.25,6.16a9.24,9.24,0,0,1,.46,2.77,4.2,4.2,0,0,1-.89,1q-1.64,1.86-3.35,3.65a14.65,14.65,0,0,1-3.89,2.72c-.67.36-2.11,2-2.79,1.82-1-.32-.39-2.7-.18-3.36a3.69,3.69,0,0,0,.13-3.24,18.73,18.73,0,0,1-1-3.83c-.25-1.77-.06-4.29-1-5.86-.35,4,.49,7.66.92,11.62.36,3.34.65,6.69.78,10,.14,3.73-1,6.84-1.69,10.47A44.18,44.18,0,0,1,24,346.68c-.51,1.38-2.42,3.93-1.67,5.44.63,1.29,2.74,1.33,3.93,1.71a8.1,8.1,0,0,1,3.85,2.82c.41.48,4.8,6.23,4.9,3.43,0-1.09-1.45-1.79-1.8-2.74s-.06-1.25-1.11-1.6c-.53-.18-1.37,0-1.5-.56s.94-.59,1.13-1.06c.26-.64-.27-.84-.7-1.27-1.17-1.17-1.3-2.26.14-3.36.82-.63,2.78-1.48,3.74-.7.65.52.24.66-.16,1.15-.71.87-1,.43-.77,1.35a10.64,10.64,0,0,0,1.86,2.87c.86,1.23,1.74,2.44,2.61,3.66a20.34,20.34,0,0,1,1.64,2.47c.6,1.17.45,1.76,1.8,1.65a13.55,13.55,0,0,1,3.23.47c1.68.24,3.54.15,4.84,1.43s1.37,3.54,1.51,5.32a55.31,55.31,0,0,0,1.18,5.55c.36,2-.84,3.77-.67,5.77.1,1.08.48,2.08.53,3.18s-.06,2.44,0,3.66a17,17,0,0,0,1.14,4.3c.31,1,1.07,2.84.48,3.87-.7,1.22-2.83.59-3.91.29s-3.2-.86-3.32-2.15c-.14-1.48,2.08-1.7,2.12-2.9,0-.88-1-1.19-1.65-1.22-.41,0-.78.22-1.18.24-.71,0-.78-.21-1.36-.44-2.58-1-2.06,2.67-2.2,4.18s-.83,2.57-.67,4.16a23.77,23.77,0,0,0,.53,4.21c.17.56.62,1.63,1.33,1.71,1,.1,1.18-1.45,1.63-1.92.83-.86,1.85,0,1.92-1.79.05-1-1.22-3.72-.52-4.56s2.51.11,3.23.36c1.2.4,2.48.18,3.63.54-1.05,4.26-3.1,8.89-2,13.33.46,1.92,1.69,3.82,1.72,5.82C53.37,416.8,52.84,418,53,419.49Z" transform="translate(-21.65 -37.01)"/>
      </g>
      <ellipse id="Ellipse_16" data-name="Ellipse 16" class="cls-1" cx="196.91" cy="85.42" rx="13.49" ry="12.31"/>
      <circle id="Ellipse_17" data-name="Ellipse 17" class="cls-1" cx="263.76" cy="85.42" r="12.31"/>
    </g>
  </g>
</svg>
