<?xml version="1.0" encoding="utf-8"?>
<!-- Generator: Adobe Illustrator 23.0.3, SVG Export Plug-In . SVG Version: 6.00 Build 0)  -->
<svg version="1.1" id="Layer_1" xmlns="http://www.w3.org/2000/svg" xmlns:xlink="http://www.w3.org/1999/xlink" x="0px" y="0px"
	 viewBox="0 0 512 512" style="enable-background:new 0 0 512 512;" xml:space="preserve">
<style type="text/css">
	.st0{fill-rule:evenodd;clip-rule:evenodd;fill:none;stroke:#03E3FC;stroke-linejoin:round;stroke-miterlimit:3.8637;}
	.st1{fill:none;stroke:#03E3FC;stroke-linejoin:round;stroke-miterlimit:3.8637;}
</style>
<path id="path241" class="st0" d="M391.4,401.1c0.9,1.6,0.1,2.2-0.8,3.6c-1,1.4-1.8,2.1-3.5,1.5c-2.9-0.9-5.4-3.1-7.9-4.7
	c-2.8-1.6-7.4-2.3-9-5.4c-0.8-1.5-0.5-2.8-0.1-4.4c0.2-0.8,0.4-1.6,0.2-2.3c-0.2-0.8-0.8-1.5-0.8-2.4c-0.1-1.5,0.8-2.9,1.1-4.4
	c0.2-0.9,0-1.8,0.3-2.7c0.3-0.8,1.1-1.3,1.4-2.1c0.3-0.9-0.1-2,0.2-2.9c0.6-1.4,1.6-1,2.2,0.1c1.4,2.9,3.3,5.7,6.6,6.9
	c1.5,0.5,3.1,0.8,4,2.3c0.8,1.3,0.8,2.8,2.1,3.8c1.2,0.9,2.7,1.1,4,1.6c1.9,0.8,2,1.6,1.8,3.6c-0.1,0.9,0.2,1.6,0.2,2.4
	c0,0.5-0.3,1.1-0.4,1.6c-0.2,0.6-0.3,1.2-0.5,1.7C392.1,399.7,391.4,400.4,391.4,401.1z"/>
<path id="path243" class="st0" d="M210.8,424.9c0-0.9-0.6-1.6-1.1-2.3c-0.6-0.9-0.8-1,0.3-1.4c0.6-0.2,2.2-0.2,2.6-0.6
	c0.5-0.5,0.1-1.7,0.1-2.4c0-0.4-0.4-1.8-0.1-2.2c0.4-0.5,1.3,0.5,1.6,0.8c0.6,0.5,1.2,1.1,1.8,1.6c1,0.8,1.1,1,1.3,2.4
	c0.2,1.3,0.3,1.4,1.5,1.8c1.3,0.5,0.5,0.9,0.9,2.2c0.4,1.3,1.5,2.5,2.2,3.7c0.5,0.9,1.5,2.4,1.4,3.5c-0.1,0.5-0.2,0.9-0.8,1.1
	c-0.7,0.2-0.7-0.3-1.1,0.2c-0.2,0.3-0.3,1.3-0.4,1.7c-0.1,1.2,0.1,1.3,1,1.8c0.1,0.1,0.7-0.3,0.9,0c0.2,0.3-0.1,0.7-0.2,1
	c-0.3,0.8-0.7,1.2-0.8,2.1c-0.1,0.5,0.2,0.4,0,0.9c0,0.1-1.3,1.1-1.4,1.1c-0.5,0.1-2.1-0.3-2.5-0.5c-0.9-0.5-0.7-1.3-1.8-1.3
	c-0.6,0-0.7,0.3-1.4,0c-0.7-0.3-1-0.7-1.7-0.5c-0.4,0.1-0.8,0.5-1.3,0.5c-0.6,0-0.9-0.6-1.4-0.6c-0.8,0-1.7,1.1-2.3,1.5
	c-1,0.7-2,1.2-2.8,2.1c-0.6,0.7-1.2,2.1-2.1,2c-1.5-0.1-3.3-2.6-4.2-3.5c-0.8-0.7-1.6-1.2-2.4-1.8c-1.1-0.8-2-1.9-2.9-2.8
	c-2.4-2.5-6.2-4.4-9.6-5.3c-1-0.3-2-0.3-2.8-1c-0.7-0.6-1.3-1.6-1.6-2.4c-0.4-0.8-0.7-1.4-0.2-2.2c0.8-1,1.5-0.9,0.2-1.7
	c2-0.2,2.2,2.4,4.3,1.1c0.6-0.4,1.4-1,1.8-1.6c0.5-1,0-1.2-0.8-1.8c-1-0.7-1.2-1.2-1.6-2.3c-0.4-1.1-1.3-1.5-1.8-2.4
	c-0.9-1.6,0.8-3.8,1.7-5c0.2-0.3,0.5-0.7,0.7-0.9c0.5-0.3,0.9,0.2,1.3,0c0.7-0.2,1-1.2,1.8-1.5c1.8-0.7,4.3-0.7,6.2-0.2
	c1,0.3,1.5,0.7,2.2,1.5c0.7,0.9,1.7,1.6,2.2,2.5c0.6,0.9,0.5,2.1,1.1,3c0.4,0.6,1.1,1.1,1.6,1.6c1.6,1.3,3.4,2.5,5.2,3.6
	c1,0.6,2,0.6,3,1.1C209.4,423.4,209.9,424.8,210.8,424.9z"/>
<path id="path245" class="st0" d="M225.4,413.5c0.9,0.1,0.5-0.6,1-1c0.5-0.5,1.5-0.4,2,0.2c0.4,0.4,0.3,1.1,0.5,1.6
	c0.5,1.2,1.3,1.2,2.4,1.5c1.1,0.3,1.9,0.5,3,0.7c1.2,0.1,1.6,0.3,2.2,1.4c0.4,0.8,0.7,1.6,1.1,2.4c0.5,0.9,0.9,1.5,0.5,2.4
	c-1.1,3-5.7,4.1-6.4,7.3c-0.2,0.8,0.3,1.6,0,2.4c-0.3,0.8-1.3,1.3-1.9,1.9c-1.8,1.9-2.2,4.6-2,7.1c0.1,2.4,1,4.8,1,7.1
	c0,1.7-1.8,1.1-2.6,0c-0.6-0.9-0.5-2.5-0.9-3.6c-0.4-1-0.9-2-1.3-3c-0.9-2.5-0.3-3.9,0.8-6.3c0.2-0.3,0.8-1.3,0.7-1.7
	c-0.2-0.5-0.8-0.5-1.1-0.9c-0.2-0.4,0.1-1.1,0-1.5c-0.1-0.3-0.3-0.6-0.4-0.9c-0.8-1.6-2.3-3-2.9-4.7c-0.5-1.4,0.3-2.6-0.6-4
	c-1.1-1.8-2.7-1.8-2.6-4.3c0.1-1.1,0.5-2.7-0.2-3.7c-0.6-0.9-2.4-0.2-2.7-1.1c-0.2-0.8,1.5-1.9,2.1-2.4c1-0.8,1.4-0.8,2.1,0.2
	c0.4,0.6,0.6,1.9,1.6,1.3c0.8-0.5,0.4-1.6,0.8-2.2c0.7-1,1.3,0.5,1.7,1.2C223.9,411.7,224.4,412.8,225.4,413.5z"/>
<path id="path247" class="st0" d="M244.6,400.5c0.9,1.7,1.4,2.1,3.3,2c1.4,0,3,0.1,4.3,0.4c2.6,0.6,5.6,3.1,6,5.9
	c0.2,1.2-0.3,2.8-1.6,2.9c-1.2,0.1-2.8-0.8-4-1.2c-2.6-0.8-6-1.3-7.9,1.1c-1.3,1.7-1.8,4.2-3.5,5.6c-0.7,0.5-1.5,0.7-2.3,0.4
	c-0.8-0.3-1-0.8-1.5-1.3c-0.6-0.5-1.3-0.5-1.6-1.2c-0.2-0.4-0.2-1.3,0-1.7c0.3-0.6,1.4-0.7,1.6-1.3c0.4-1-2.4-2.1-0.6-3
	c0.5-0.3,1.4,0.1,1.8-0.3c0.5-0.4,0.1-1.3,0.5-1.6c0.4-0.3,2.4,0.8,3.2,0.7c1.9-0.2,2.2-2.3,2.2-3.9c0-0.6,0-1.5-0.4-2
	c-0.3-0.4-1.1-0.4-1.1-0.9C242.9,400.3,244,400.4,244.6,400.5z"/>
<path id="path249" class="st0" d="M234,412.1c1.1,1.7-2.2,1.9-2.9,1.1C230.1,412.1,233.4,411.4,234,412.1z"/>
<path id="path251" class="st0" d="M241,401.4c-1.7-0.7-0.1-1.9,1-1.9C242.1,400.2,241.6,401.1,241,401.4z"/>
<path id="path253" class="st0" d="M260.2,349.1c-0.9-0.1-1.5-1.6-1.9-2.3c-0.8-1.3-0.7-2.4,0.1-3.7c0.4-0.6,1-1.1,1.3-1.7
	c0.3-0.7,0.1-1.6,0.3-2.4c0.5-1.7,1.5-3.3,2.3-4.9c0.9,1.2,0.8,2.9,1.2,4.3c0.4,1.4,1.4,2.5,1.6,3.9c0.2,1.5-0.3,3-1.3,4.2
	C263.1,347,261.1,349.1,260.2,349.1z"/>
<path id="path255" class="st0" d="M270.1,343.6c-1,1-1.9-2.2-2.1-2.8c-0.2-0.8-0.5-1.9-0.2-2.7c0.2-0.6,1.1-1.7,1.9-1.4
	C270.9,337.3,270.3,342.4,270.1,343.6z"/>
<path id="path257" class="st0" d="M233.2,335.9c0.4,1.5-2.6,0-2.6-1C230.6,333.1,232.9,335.2,233.2,335.9z"/>
<path id="path259" class="st0" d="M221.8,328.8c-0.8,0.1-1.6-0.9-1.8-1.6c-0.4-1.2,1.1-2.4,2-3C222.7,325,222.9,328.2,221.8,328.8z"
	/>
<path id="path261" class="st0" d="M209.2,234.6c-0.6,0.3-0.9,0-1.3-0.4c-0.5-0.6-1.3-1.8-1.6-2.5c-0.7-1.4,0.5-0.9,1.4-0.9
	c1.9-0.1,3.8-1.4,5.8-1.5c0.2,0.5-1.8,2-2.2,2.6C210.5,232.7,210,233.7,209.2,234.6z"/>
<path id="path263" class="st0" d="M189.7,316.7c-0.3,1.8-2.5-1.3-2.8-1.6c-0.3-0.4-3.6-2.6-2.8-2.9c0.7-0.3,2.7,1.5,3.3,2
	C188.2,315,189.1,315.8,189.7,316.7z"/>
<path id="path265" class="st0" d="M194.2,324.8c0.4,0.4,0.9,2-0.1,1.4c-0.4-0.3-0.6-1.8-0.1-2C194.1,324.4,194.2,324.6,194.2,324.8z
	"/>
<path id="path267" class="st0" d="M190.4,385.8c-0.8,0.8-2.2-2.7-2-3.4c0.2-1,0.7-0.1,1,0.5C189.8,383.8,189.9,384.8,190.4,385.8z"
	/>
<path id="path269" class="st0" d="M187.8,389c-0.4,0.5-0.5,1.3-1,1.6c-0.8-0.7,0-2.3,0.9-2.4C187.7,388.4,187.8,388.7,187.8,389z"/>
<path id="path271" class="st0" d="M215.1,388.4c-0.6,0.9-1.1-0.2-0.9-0.9C214.8,385.9,215.6,387.2,215.1,388.4z"/>
<path id="path273" class="st0" d="M205.7,415.9c0.4,1.2-1.4,1.1-1.7,0.3C203.5,415.1,205.2,415.2,205.7,415.9z"/>
<path id="path275" class="st0" d="M207.1,410.1c-1.8-0.2-2.6-4.1,0.1-3.2C208.9,407.4,208.7,409.6,207.1,410.1z"/>
<path id="path277" class="st0" d="M203.3,410.5c0.2,0.9-2,0.3-2.6,0.6c-1.1,0.5-1.3,2.7-2,0.7c-0.2-0.4-0.5-0.9-0.2-1.3
	c0.3-0.4,0.7,0,0.9-0.2c0.6-0.4,0.4-0.7,0.3-1.5C200.9,409.4,202.7,409.2,203.3,410.5z"/>
<path id="path279" class="st0" d="M164.1,433.2c-1.4,0.7-1.6-3-1.6-3.6c0-1.7,0.2-3.7-0.8-5.2c-0.4-0.6-2.2-1.3-2.3-1.7
	c-0.2-0.8,1.2-0.3,1.6-0.3c1.8-0.4,0.7-2.4,1.5-3.4c0.6-0.8,1.6,0.1,2.3-0.7c0.5-0.6,0.4-1.7,0-2.4c-0.6-0.8-1.5-0.3-1.8-0.7
	c-0.3-0.3,0.1-0.8,0.2-1.1c1-2.3,2.2-4.9,4-6.7c2.7-2.6,5-5.7,5.4-9.5c0.2-1.6,0.4-3.3,1-4.8c0.3-0.9,1.9-4.2,3-3.5
	c0.7,0.4,0.2,3,0,3.7c-0.3,1.4-0.6,2.9-0.9,4.3c-0.6,2.6-1,5.7-2.3,8c-0.5,0.9-1.2,1.8-1.8,2.7c-0.8,1.4-1.1,2.8-1.4,4.3
	c-0.6,2.6-1.6,5.1-2.3,7.7c-0.6,2.5-1.3,4.9-1.8,7.4C165.8,429.2,165.6,431.9,164.1,433.2z"/>
<path id="path281" class="st0" d="M165,401.2c-0.1,0.4-0.5,0.8-0.9,0.7c-0.1,0-0.8-1-0.8-1.1C163.3,400,165,400.1,165,401.2z"/>
<path id="path283" class="st0" d="M160.1,413.6c0.6,0.6,0.4,2.7-0.6,1.6C158.9,414.5,158.8,413.2,160.1,413.6z"/>
<path id="path285" class="st0" d="M161.7,406.2c0.7,0.7,1.1-0.5,1.6-0.5c0.8,0,0.5,1.3,0.2,1.8c-0.6,0.9-0.8,0.2-1.6,0.5
	c-0.9,0.4-0.6,2-1.5,2.2c-0.4,0.1-0.8-0.3-1.1-0.3c-0.2,0-0.4,0.5-0.6,0.5c-0.5,0.2-0.8,0.2-1.2-0.1c-0.7-0.6-1.4-2.3-1.8-3.1
	c-0.4-0.8-1.3-2.3-0.7-3c0.5-0.6,1.7-0.4,2.4-0.6c0.7-0.3,1.3-0.9,1.8-1.4c0.4-0.4,1-1.3,1.7-1.4c0.9-0.2,0.6,0.2,0.8,0.8
	c0.2,0.6,0.6,1.3,0.6,1.9C162.2,404.4,161.2,405.2,161.7,406.2z"/>
<path id="path287" class="st0" d="M149.1,416.8c1-0.5,0.1-2.5,0-3.4c0.4,1.1,1.1,1.5,1.3,2.8c0.1,1.2-0.2,1.9,0.9,2.6
	c0.7,0.4,1.7,0.8,1.8-0.4c0-0.9-1.4-1.5-0.8-2.5c0.7,0.9,2,1.5,2.4,2.6c0.3,0.8-0.1,2.1,1,2.4c-0.6,0.5-2.5,0.2-3.3,0.3
	c-0.9,0.1-1,0.1-1.5,0.8c-0.3,0.4-0.2,1.5-0.9,1.4c-0.4,0-1.3-1.3-1.6-1.6c-0.7-0.8-1.5-1.5-2.2-2.3c-0.7-0.8-1.1-2-1.9-2.8
	c-1-1-2.2-1.3-2.9-2.5c-0.7-1.2-3.6-5.5-2.6-6.8c1,0.8,1.3,2.1,2.4,2.9c1.3,0.9,2.9,1.3,3.9,2.6C146,413.9,147.2,417.6,149.1,416.8z
	"/>
<path id="path289" class="st0" d="M117.2,398.1c2.8-0.7,4.7,3.3,6.3,4.9c1.1,1.1,2.8,1.4,3.8,2.6c0.6,0.7,1,1.7,1.6,2.5
	c0.8,1,1.3,1.8,1.8,3c0.6,1.7,1.1,3.8,1.3,5.7c0.1,1,0.3,0.9-0.7,1.1c-0.3,0-0.8,0-1,0.1c-0.4,0.2-0.6,0.7-1.1,0.8
	c-2.3,0.6-3.9-3.7-6-3.5c-1.3,0.1-1.6,2.3-3.3,1.5c-1.1-0.4-1.5-1.9-1.8-2.9c-0.3-1-0.4-2-0.7-3.1c-0.2-0.9-1-3.7,0.7-2.1
	c0.9,0.8,1.1,2.9,2.1,3.5c1.3,0.9,1.6-1.7,1.2-2.5c-0.5-1.2-2-1.4-2.7-2.4c-0.4-0.7,0.1-1.7-0.3-2.2c-0.4-0.4-1.4-0.4-1.9-0.5
	c-1.1-0.1-4.3-0.4-4.4-2c0-0.7,0.7-0.6,1.2-1.1c0.7-0.6,0.6-1-0.3-1.1c-0.8-0.1-2,1.2-2.6,0c-0.5-0.9,0.6-1.5,1.2-1.9
	C112.4,398,116.8,396.5,117.2,398.1z"/>
<path id="path291" class="st0" d="M106.8,394c-0.9,0.4-1.5-0.9-1.3-1.6C106,390.6,107,393.1,106.8,394z"/>
<path id="path293" class="st0" d="M153.3,404c0.5,0.6-0.1,1.3-0.8,1.1C151.6,404.9,152.6,403.8,153.3,404z"/>
<path id="path295" class="st0" d="M148.5,406.6c0.7,0.8,1.8-0.3,2.4,0.5c0.6,0.9-0.5,1.6-1.1,1.6c-0.3,0-2.1-0.8-2.3-1.1
	C146.9,406.9,147.8,406.5,148.5,406.6z"/>
<path id="path297" class="st0" d="M142.3,401.8c0.2,1.5-1.9,0.5-1.9-0.4C140.5,399.8,141.9,401.3,142.3,401.8z"/>
<path id="path299" class="st0" d="M137.2,400.6c0.2,0.4-0.1,1-0.6,1c-0.3,0-0.8-1-0.9-1.2c-0.4-0.8-0.6-1.4,0.7-1.6
	C136.1,399.4,136.7,400.2,137.2,400.6z"/>
<path id="path301" class="st0" d="M115.9,378c0.2,1,1.4,0.6,1.4,1.6c0,0.8-0.9,1.1-1.6,0.9C114.2,379.9,114.3,376.6,115.9,378z"/>
<path id="path303" class="st0" d="M119.8,372.7c0,0.7,0.8,1.9,0.4,2.5c-0.6,1-1.4,0.3-1.7-0.3C118.1,374,118.4,371.1,119.8,372.7z"
	/>
<path id="path305" class="st0" d="M145.3,328.3c-0.4,0.8-2,0.7-2.7,0.7c-0.9,0-1.9-0.5-0.6-1c1-0.4,1.5,0,2-1
	c0.2-0.4,0.2-1.4,0.8-1.5C145.6,325.3,145.3,327.8,145.3,328.3z"/>
<path id="path307" class="st0" d="M161.2,311.8c-0.1,0.9-0.7,1.4-0.7,2.4c0.1,0.7,0.2,1.7,0.7,2.3c1.2,1.7,2.8-0.6,1.9-1.8
	c0.8,2.2-1.4,3.7-1.9,5.7c-0.3,1.2,0.2,2.3,0.2,3.5c0,0.9-0.3,2.3-0.7,3.2c-0.6,1.2-1.1,0.6-2.1,0.3c-0.7-0.2-1.4,0.3-2-0.1
	c-0.7-0.5-0.5-1.6-0.6-2.3c-0.2-0.9-0.5-1.6-0.5-2.5c0-1.3,0-3.4,0.7-4.5c0.5-0.8,1.1-0.6,1.8-1.1c0.7-0.5,0.9-1.3,1-2.1
	c0.1-0.9,0.1-1.9-0.2-2.8c-0.3-1.2-0.7-1.4-1.8-1.8c-1.8-0.8-1.6-3.2-1-4.9c0.2-0.5,1.1-2.4,1.8-2c0.4,0.2,0.1,2.3,0.1,2.8
	c0,1.1,0.1,2.3,0.6,3.3C159.1,310.8,160.3,310.9,161.2,311.8z"/>
<path id="path309" class="st0" d="M152.5,308.5c-0.7,0.7-4,1.4-3.2-0.4C149.7,307.1,152.3,307.4,152.5,308.5z"/>
<path id="path311" class="st0" d="M132.5,319.5c-1.3,0.7-2.2-1.6-0.9-2.3c0.6-0.3,2.3-0.6,2.9-0.2
	C134.3,317.8,133,318.9,132.5,319.5z"/>
<path id="path313" class="st0" d="M133.9,321.4c0,0.8-1.7,0.6-1.7,0C132.3,320.6,133.6,321,133.9,321.4z"/>
<path id="path315" class="st0" d="M181,181.3c-0.4,0.1-1.1,0.8-1.4,0.4c-0.3-0.3-0.1-0.5,0.1-0.8C180.1,180.4,181.7,180.5,181,181.3
	z"/>
<path id="path317" class="st0" d="M189.6,171.2c-0.5,0.6-2.6,0.5-3.5,0.8c-1.5,0.5-2,0.6-1.9,2.2c0.1,1.2,0.3,2.3-0.8,3.2
	c-0.5,0.4-1.8,0.4-1.9,1c0.3,0,0.7,0.1,0.6,0.5c0,0.2-1.3,0.5-1.6,0.5c-0.5,0.1-1.5,0.5-1.9,0c0,0,0-0.7-0.1-0.9
	c-0.8-1.2-3.3-0.8-4.3-1.7c-1.3-1.2,0.8-2.2,1.3-3.2c0.6-1.3,0.4-1.8,1.9-2.1c1.4-0.3,2.6-1.3,3.9-1.3c2,0,3.2-0.3,5.1-0.9
	C188,168.8,190.6,168.9,189.6,171.2z"/>
<path id="path319" class="st0" d="M120.2,194.7c1.2-0.3,2.5,1.2,1.1,1.7C120.2,196.8,119,195.4,120.2,194.7z"/>
<path id="path321" class="st0" d="M83,214.8c-0.8-0.3-2.1-2.8-0.5-2.7C83.8,212.1,83.9,214.2,83,214.8z"/>
<path id="path323" class="st0" d="M80.1,217.8c0.3,0.1,1.3,0.8,1.3,1.1c0.1,0.8-0.8,0.2-1.3,0.5c-0.8,0.4-1,2.3-2.2,1.8
	c-0.3-0.1-0.9-1.1-1.1-1.4c-0.3-0.6-0.5-0.7,0.1-1.2C77.7,217.9,79.2,218.2,80.1,217.8z"/>
<path id="path325" class="st0" d="M56.8,230.8c0.4,0.4,1,2.2-0.1,1.6C56.1,232.1,56,230.7,56.8,230.8z"/>
<path id="path327" class="st0" d="M58.9,236.5c1.3,0.7,1.4,3.8,0,2.8C58.2,238.8,57.4,236.2,58.9,236.5z"/>
<path id="path329" class="st0" d="M60.7,245.4c0,1-1.1,1.5-1.3,2.4c-0.3,1.1,0.4,2.1-0.1,3.3c-0.2-0.5,0-1.4,0-2
	c-0.1-0.5-0.3-1.1-0.3-1.6C58.9,246.4,59.3,245,60.7,245.4z"/>
<path id="path331" class="st0" d="M40.4,317.8c-0.4,1-1.5,0.2-2-0.3c-0.4-0.5-0.8-2.5,0-2.7C39,314.7,40.3,317.2,40.4,317.8z"/>
<path id="path333" class="st0" d="M38,319.4c1.2-0.4,0.5,1.4-0.5,1.1C36.5,320.2,37.2,318.9,38,319.4z"/>
<path id="path335" class="st0" d="M48.8,362.2c0.5-0.1,1-1.1,1.5-0.9c0.7,0.2,0.5,1.5,0.4,1.9c-0.1,0.7-0.6,1.4-0.6,2.1
	c0,0.8,0.5,1.5,0.6,2.3c0.1,0.6,0,1.2,0.2,1.7c0.1,0.2,0.5,0.6,0.5,0.8c0,0.6-0.4,1.1-1,0.9c-0.9-0.3-1.6-2.5-1.9-3.2
	c-0.6-1.5-1.2-3-1.7-4.5c-0.4-1.2-1.1-2.7-1.2-3.9c0-0.8,0.1-1.4,0.9-1.8c1-0.5,1.1-0.2,1.4,0.6C48.1,359.4,47.8,361.4,48.8,362.2z"
	/>
<path id="path337" class="st0" d="M55.8,375.8c1.6,0.7,0,2.9-1.3,2.6C53,378,54.6,375.5,55.8,375.8z"/>
<path id="path339" class="st0" d="M72.5,215.2c-0.5-0.3-1-1.6-1.6-1.6c-0.9,0.1-0.4,1.3-0.4,2c0,1.2-0.5,2.5-0.1,3.7
	c0.3,1,1.5,1.5,1.8,2.4c0.3,1.1-0.7,2.5-1.2,3.4c-0.6,1.2-1.2,2.5-2,3.6c-0.8,0.9-1.5,1.5-2,2.6c-0.4,0.9-0.6,2.1-1.4,2.7
	c-0.8,0.7-2.1,0.4-3.2,0.6c-1.1,0.2-1.9,0.6-2.7-0.2c-1-1-1-2.8-1.8-3.9c-0.4-0.7-0.8-1-1.6-1.3c-1-0.5-1.2-0.7-1.9,0.1
	c-0.5,0.6-0.8,1.3-0.9-0.1c-0.1-0.7,0.2-1.5,0.6-2.1c0.3-0.4,0.8-0.6,1-0.9c0.3-0.5,0.2-0.3,0.2-1c-0.1-0.3-0.1-0.7,0-1
	c0.4,0.1,0.7,0.1,1.1,0c0.5-0.2,0.4-0.6,0.9-0.7c0.4-0.1,0.8,0,1.1-0.1c0.6-0.2,1.4-0.8,1.9-1.2c0.5-0.5,1-1.1,0.5-1.7
	c-0.5-0.6-1.6,0-1.9-0.6c-0.3-0.7,0.8-0.9,1-1.2c0.2-0.4,0.1-0.7,0.1-1.1c0-0.7-0.6-2.6-0.2-3.2c0.6-0.8,3-1,3.9-1.2
	c1.5-0.3,3.1-0.4,4.5-1.1c1.6-0.8,1.4-3.1,3.2-3.9c0.5-0.2,0.8-0.2,1.2-0.6c0.5-0.5,0.4-2.6,1.2-2.5c0.6,0.1-0.3,2.7-0.4,3.2
	c-0.1,0.8,0,1.6-0.1,2.4C73.6,211.7,73.7,214.6,72.5,215.2z"/>
<path id="path341" class="st0" d="M123.4,416.8c1-0.3,2.4,1.1,3.1,1.7c0.6,0.5,1.7,1.4,0.5,1.7c-0.8,0.2-2.5-0.5-3.2-0.9
	c-0.4-0.2-0.9-0.6-1.1-1C122.5,417.4,123,417.4,123.4,416.8z"/>
<path id="path1069" class="st0" d="M196,64.5c0.4,0.5,0.4,2.3-0.6,2.1C195.5,65.7,194.3,63.6,196,64.5z"/>
<path id="path1071" class="st0" d="M204.1,74.3c-0.1,0.6-0.6,0.9-0.8,1.4c-0.2,0.6,0.2,1.4-0.1,2c-0.5,0.8-1.1,0.1-1.8,0.5
	c-0.2,0.1-0.5,0.6-0.6,0.8c-0.2-0.5,0.1-0.8,0.1-1.3c0-0.5-0.5-0.8-0.3-1.4c0.2-0.7,0.8-1.2,1.3-1.4c0.2-0.1,0.5-0.1,0.8-0.3
	c0.2-0.2,0.2-0.7,0.5-0.8C203.5,73.5,204,73.6,204.1,74.3z"/>
<path id="path1073" class="st0" d="M205.6,76.1c-0.1,0.8-0.9,0.9-1.4,1.3C203.8,76.4,204.8,76.1,205.6,76.1z"/>
<path id="path1075" class="st0" d="M198.6,85.2c-1,0.5-0.8-0.7-0.6-1.2c0.2-0.6,0.7-2,1.4-2.2C199.3,83.1,199.5,84.1,198.6,85.2z"/>
<path id="path1077" class="st0" d="M217.9,70.1c0.3,0.5,0.2,1,0.3,1.6c0.1,0.7,0.2,0.7,0.5,1.1c0,0.1,0.7,0.7,0.7,0.7
	c0.4,0.2,0.8,0.2,1.2,0.5c1.5,1.5,1.4,4.1,1.4,6c0,1.2-0.1,2.4-0.2,3.6c-0.1,0.6,0.1,2.6-0.4,3c-0.4,0.3-0.7-0.1-1.2-0.1
	c-0.7,0.1-0.7,0.4-1.2,0.8c-0.6,0.4-1.4,0.4-1.9,0.9c-0.5,0.4-0.3,1.4-1.1,1.4c-0.6,0-1-0.9-1.4-1.1c-0.2-0.1-0.7-0.2-0.8-0.3
	c-0.4,0-0.4,0.1-0.8,0.1c-0.3,0-0.2,0.4-0.6,0.2c-0.4-0.2,0-1-0.2-1.4c-0.7-1.1-3.6-0.4-4.3,0.5c-0.6,0.8-0.2,1.8-0.6,2.6
	c-1,1.8-1.8-1.9-2.7-1.9c-0.5,0-0.5,3.1-0.4,3.6c-1.1-1.1-0.4-2.2-0.9-3.5c-0.4-0.9-1.3-1.6-1.9-2.5c-0.9-1.4,0.1-2.4,1.2-3.4
	c0.6-0.5,1.3-1.1,1.7-1.8c0.4-0.6,0.3-1.5,0.7-1.9c1.3,1.1,1.4-0.5,2.2-1.2c0.6-0.6,1.6-0.9,2.3-1.4c0.7-0.6,1.3-1.2,2.3-1.3
	c0.6-0.1,1.6,0.5,2,0.2c0.5-0.3,0.3-1.3,0.4-1.8c0.1-0.8,0.7-1.7,0.7-2.6c0-0.4-0.6-0.7-0.2-1.1C215,69.3,217.4,70,217.9,70.1z"/>
<path id="path1079" class="st0" d="M217.9,93.4c0,1.3,1,5.8-0.7,6.4c-1.1,0.4-0.6-1.1-0.7-1.6c-0.2-1.3-0.8-0.7-1.2,0.2
	c-0.6,1.4-0.6,4.4-1.9,5.4c-0.7,0.5-1.4-0.1-2,0.6c-0.4,0.4-0.1,1.1-0.9,1.4c-0.8,0.3-1.1-0.2-1.4-0.8c-0.2-0.4-0.1-0.8-0.6-1
	c-0.3-0.1-0.5,0.2-0.7,0.2c-1.1-0.2-0.7-1-0.8-2c-0.1-0.7-1-2.7-0.4-3.2c0.6-0.4,2.2,0.7,2.4-0.4c0.4-1.6-2.6-0.3-3.1-0.5
	c-0.8-0.4-0.1-2.6,0.3-3.3c0.3-0.5,0.6-1,1.2-1.1c0.7,0,0.7,0.6,1.2,0.8c1.1,0.4,3.2-0.3,4.4-0.3c1,0,1.4-0.1,2.3-0.7
	C216.1,93.1,217.4,92,217.9,93.4z"/>
<path id="path1081" class="st0" d="M215.6,91.6c-0.3,0.4-0.9,1.1-1.4,1.4c-0.9,0.5-2.9-0.3-1.9-1.5c0.5-0.6,1.1,0,1.8-0.2
	c0.5-0.2,0.3-0.9,1.1-0.5C215.6,91,215.7,91.2,215.6,91.6z"/>
<path id="path1083" class="st0" d="M210.4,112.4c0.3,0.3,0.5,1,0.1,1.3c-0.4,0.2-1.6-0.6-2.1-0.8
	C208.7,112.1,209.8,112.2,210.4,112.4z"/>
<path id="path1085" class="st0" d="M213.3,110c0.1,0.5-0.3,1.8-0.9,1C212,110.4,212.6,109.5,213.3,110z"/>
<path id="path1087" class="st0" d="M209.8,110.3c0.9-0.1,1.8,0.3,1.5,1.3c-0.6-0.6-1.5-0.2-2.2-0.6
	C209.3,110.7,209.6,110.5,209.8,110.3z"/>
<path id="path1089" class="st0" d="M214.6,129.5c-0.1,0.1-0.2,0.2-0.4,0.3c-0.4-0.8-0.8-4.2,0-4.7
	C215.3,124.4,214.6,128.8,214.6,129.5z"/>
<path id="polygon1091" class="st0" d="M212.3,128.3c0.6-0.3,0.9,0.6,0.4,0.9C212,129.6,211.5,128.8,212.3,128.3z"/>
<path id="path1093" class="st0" d="M213.5,130.6c0.1,0.7,0,1-0.7,1c-0.7,0.1-0.7-0.2-0.9-0.9c-0.1-0.2-0.7-0.3-0.4-0.6
	C211.9,129.7,213.3,130.3,213.5,130.6z"/>
<path id="polygon1095" class="st0" d="M218.8,135.4c0.5,0.6-0.5,1.3-0.9,0.6c-0.3-0.6,0.6-1.1,1.1-0.9
	C218.9,135.2,218.8,135.3,218.8,135.4z"/>
<path id="path1097" class="st0" d="M219.2,91.1c-0.9,0.2-0.9-1.8-0.4-1.8C219.4,89.3,219.5,90.6,219.2,91.1z"/>
<path id="polygon1099" class="st0" d="M217.5,90.4C219.2,92,216,90.7,217.5,90.4z"/>
<path id="path1101" class="st0" d="M240.3,184.5c0.6,0.5,0.3,2-0.5,1.3C239.4,185.5,239.7,184.5,240.3,184.5z"/>
<path id="path1103" class="st0" d="M241.4,188.7c1.3-0.1,1.6,1.1-0.2,0.5C241.2,189.1,241.3,188.8,241.4,188.7z"/>
<path id="path1105" class="st0" d="M409.8,290.7c0,0.3-0.4,1.3-0.8,1.4c-0.1,0-0.3-0.3-0.5-0.2c-0.1,0-0.3-0.2-0.5-0.2
	c-0.4,0-0.5,0.8-0.9,0.9c-0.6-0.7-0.1-1.6,0.5-2C408.7,289.9,409,290.3,409.8,290.7z"/>
<path id="path1107" class="st0" d="M413.9,290.7c0.1,0.5,0.2,1.6,0,2.1c-0.8-0.1-1.6-0.5-1.7-1.2C412,290.4,413.1,289.7,413.9,290.7
	z"/>
<path id="path1109" class="st0" d="M416.9,291.8c-0.4,0.5-0.9,0.6-1.2,0c-0.2-0.5,0.7-2.1,1.1-2.3
	C417.1,290.1,417.1,291.2,416.9,291.8z"/>
<path id="path1111" class="st0" d="M420.4,295c-1.6,1.5-3.1-3.6-1.5-4.1c0.2-0.1,1.1,0.3,1.3,0.5c0.7,0.4,0.6,0.3,0.4,0.9
	c-0.1,0.4-0.5,0.1-0.5,0.7C420,293.7,420.6,294,420.4,295z"/>
<path id="path1113" class="st0" d="M423.9,294.1c-0.2,0.5-1.3,1.2-1,0.3c0.2-0.6,1.3-1,1.8-0.9C424.5,293.8,424.2,294,423.9,294.1z"
	/>
<path id="path1115" class="st0" d="M424.3,290.3c-0.1,0.7-0.6,1.9-1.4,1.9c-1.2-0.1-1.3-2.4-1.3-3.2c0.7-0.1,0.3,0.4,0.6,0.5
	c0.3,0.1,0.7-0.1,0.9,0C423.5,289.6,423.9,290.1,424.3,290.3z"/>
<path id="path1117" class="st0" d="M465.8,188.9c0.6,0.4,1.3,0.5,1.7,1.1C467.5,190,464.3,189.6,465.8,188.9z"/>
<path id="path1119" class="st0" d="M463.4,185.5c-0.5-0.3-0.5-0.7-0.5-1.2c0-0.3,0-1,0.1-1.2c0.2-0.2,1.1-0.7,1.5-0.2
	C465.2,183.4,463.9,185.1,463.4,185.5z"/>
<path id="path1121" class="st0" d="M467.3,141c-0.1,0.5-0.6,1-0.9,0.4C466.1,140.8,466.9,140,467.3,141z"/>
<path id="path1123" class="st0" d="M472.6,139.3c-1,0.5-1.6-1-0.9-1.7C472.9,136.4,473.4,138.7,472.6,139.3z"/>
<path id="path1125" class="st0" d="M469.4,117.8c0.7,0.4,2.9,1.1,1.5,2.2c-1,0.8-2.2-1.2-2.4-2.1
	C468.8,117.8,469.1,117.8,469.4,117.8z"/>
<path id="polygon1127" class="st0" d="M469.5,116.1c0.6,0.1,0.9,1,0.1,1C468.9,117.1,468.9,116.3,469.5,116.1z"/>
<path id="path1129" class="st0" d="M474.3,117.1c-0.7,1.8-3.1-2-3-2.7c0.1-1,0.6-0.3,1,0C472.9,115,474.1,116.2,474.3,117.1z"/>
<path id="path1131" class="st0" d="M475.6,99.1c1.6,1.7-0.7,3.2-1.9,1.8C472.3,99.3,474,98.4,475.6,99.1z"/>
<path id="path1141" class="st0" d="M475.9,91.5c-0.1,0.4-0.2,0.8-0.3,1.2c-0.7-0.2-0.7-1.4-0.2-1.8C475.6,91,475.7,91.2,475.9,91.5z
	"/>
<path id="path1143" class="st0" d="M477.1,87c-0.4,0.3-0.7,0.4-1,0.9c-0.2,0.3,0,0.8-0.3,0.9c-1,0.3-0.1-1.6,0.1-1.9
	C476.8,85.6,477.8,86.7,477.1,87z"/>
<path id="path1145" class="st0" d="M482.6,77.4c0.9,0.4,1.6,2.5,0.3,2.4C482,79.7,480.7,77.3,482.6,77.4z"/>
<path id="polygon1147" class="st0" d="M482.7,72.2c-0.2,0.4-0.9,0.9-1.3,0.4C480.9,71.8,482.4,72.1,482.7,72.2z"/>
<path id="path1149" class="st0" d="M480.1,72.9c-0.9-1-0.6-1.1-0.1-1.7c0.2-0.2,1.4-1.5,1.8-1.5C483.3,69.8,480.3,72.4,480.1,72.9z"
	/>
<path id="path1151" class="st0" d="M479.9,69.2c-0.1,0.8-0.7,1.2-1.3,0.8c-0.5-0.3-0.9-1.9-0.8-2.4c0.1-1,0.2-0.8,1-0.5
	c0.3,0.1,1,0.2,1.1,0.5C480.1,67.9,479.5,68.7,479.9,69.2z"/>
<path id="path1153" class="st0" d="M480.9,65.6c-1,0.6-3,0-2.5-1.4c0.3-0.8,0.3-0.5,0.9-0.1c0.4,0.2,0.3,0.4,0.7,0.5
	c0.3,0,0.8-0.5,1.1-0.5C481,64.6,480.8,65.1,480.9,65.6z"/>
<path id="path1155" class="st0" d="M477,64.4c-0.7,0.2-0.4-0.2-0.5-0.5c0-0.1,0.2-0.4,0.2-0.5c-0.1-0.4-0.5-0.4-0.6-0.7
	c-0.3-0.7,0.1-0.5,0.2-1.3c0.1-0.8-0.3-1.7,0.4-2.4c0.2-0.2,0.9-0.3,1.2-0.5c0.2-0.1,0.4-0.6,0.6-0.6c0.9,0,0.4,0.9,0.1,1.4
	c-0.5,0.9-0.9,1.2-0.9,2.3C477.5,62.6,477.7,63.6,477,64.4z"/>
<path id="path1157" class="st0" d="M476.8,56.4c-0.1,0.7-1,2.5-1.4,1.3c-0.2-0.7,1.1-2.2,1.3-1C476.7,56.6,476.7,56.5,476.8,56.4z"
	/>
<path id="path1223" class="st0" d="M206.4,93.2c-0.7,1.4-1.6-0.5-1.6-1.3C205,90,206.5,92.2,206.4,93.2z"/>
<path id="polygon1227" class="st0" d="M476.1,69.3c0.4,0.7-0.6,0.8-0.5,0.2c0-0.5,0.6-0.3,0.8,0L476.1,69.3z"/>
<path id="path1731" class="st0" d="M40.5,287c-0.1,0.8-1.3,3.3-2,3.2c-0.1,0-0.7-0.8-0.8-0.9c-0.3-0.2-0.6-0.1-0.9-0.2
	c-0.3-0.2-1.3-1.2-1.3-1.6c0-0.7,0.8-0.6,1.3-0.9c0.6-0.4,0.7-1.7,1.2-1.9C38.8,284.4,40.5,286.4,40.5,287z"/>
<path id="path1733" class="st0" d="M236,302.8c0.3,0.6,0.8,0.9,1.3,1.3c0.5,0.4,0.8,1.1,1.2,1.5c0.5,0.4,1.1,0.4,1,1.1
	c0,0.3-0.6,0.9-0.8,1.1c-0.7,0.8-1.1,1.5-2.2,1.6c-0.9,0.1-2.4-0.4-2.1-1.5c0.1-0.6,1.9-2.1,1.2-2.8c-0.8-0.9-1.3,1.2-1.5,1.3
	c-1.1,0.4-1.1-1.6-0.7-2.2C233.9,303.5,235.1,302.3,236,302.8z"/>
<path id="path1813" class="st0" d="M161.5,127.2c-0.4-2.1-5-0.7-6.1,0.1c-1.8,1.2-2.9,3.4-4.4,5c-0.9,1-2,1.9-3,2.9
	c-0.8,0.9-1.3,2.1-2.2,2.9c-1.6,1.5-4.1,2.3-6.1,2.9c-2,0.6-4.2,1.1-6.3,1.2c-1.5,0.1-3.1-0.2-4.6-0.1c-2,0.1-2.6,0.4-3.3,2.3
	c-1.1,2.8-3.1,5-5,7.3c-1.9,2.2-3.1,4.7-4.2,7.4c-2.2,5.6-4.6,11.4-7.9,16.5c-1.6,2.6-3.6,4.9-6,6.8c-1.1,0.9-2.2,1.8-3.3,2.5
	c-1.3,0.9-2.5,0.9-3.9,1.4c-1.3,0.5-2.1,1.1-3.5,1.2c-1.3,0.2-2.7,0.3-4.1,0.2c-2.8-0.1-5.1-1.4-7.7-1.9c-4.8-0.9-8.3,5.3-12.8,6.1
	c-3.4,0.6-8.7-3.9-10.8,0c-0.9,1.7-1.6,3.6-2.8,5.1c-0.9,1-2,1.9-2.9,2.9c-0.9,1.1-1.5,2.5-2.2,3.7c-1.8,2.8-3.3,5.6-4.7,8.7
	c-1.2,2.6-2.9,4.9-3.7,7.6c-0.4,1.3-1.6,12.4,0.3,11.8c1.3-0.4-0.2-4.3-0.2-5.2c0-1.3,0.4-1.3,1.4-0.6c0.8,0.6,1.7,1.3,2,2.3
	c0.3,0.9,0,1.8,0.1,2.7c0.1,1.4,1.4,2.7,2.4,3.6c1.7,1.4,3.9,2.2,5.5,3.8c0.9,0.9,1.6,1.9,2,3.1c0.2,0.9,0,3,1.3,3.1
	c0.7,0,1.2-0.8,1.7-1.2c0.5-0.4,0.5,0.2,0.8-0.5c0.2-0.4-0.1-1.3,0-1.8c0-1.3-0.5-1.7-0.9-2.8c-0.4-1,0.9-2.7,0.4-3.4
	c-1.2-1.6-3,3.6-4.6,0.9c-0.2-0.4,0.1-1.1-0.3-1.4c-0.6-0.5-0.8,0.3-1.3,0.4c-1.7,0.5-0.6-1.4,0.6-1.3c0.9,0.1,1.6,1.3,2.5,0.5
	c0.5-0.5,0.6-1.9,0.2-2.4c-0.7-0.7-2.2-0.1-1.7-1.7c0.4-1.1,1.1-1.4,0.8-2.6c-0.4-2-2.5-4.1,0.1-5.6c0.5-0.3,0.9-0.3,1.3-0.6
	c0.3-0.2,0-0.4,0.4-0.6c0.3-0.2,0.6,0,0.8-0.2c0.2-0.2,0.5-0.5,0.6-0.8c0.9-1.1,2.3-2.5,2.6-4c0.3-1.4-0.4-2.7,0.6-4
	c0.3-0.5,0.8-0.8,1.1-1.3c0.4-0.6,0.3-1.3,0.6-2c0.5-1.2,1.4-1.1,2.5-0.8c1.4,0.5,1.9,0.4,2.8-0.8c0.4-0.5,0.8-1,1.3-1.4
	c0.4-0.3,1.2-0.6,1.3-1.2c0.3-1.1-1.4-1.2-1.4-2.4c0.9-0.2,2,1.5,2.9,0.5c0.6-0.6-0.5-2.1,0.4-2.4c0.9-0.3,1.3,1.3,1.6,1.7
	c0.9,1.3,1.3,0.6,2.4,0c0.6-0.3,1.2-0.1,1.8-0.3c0.4-0.2,0.6-0.5,1-0.8c0.5-0.3,0.9-0.4,1.4-0.1c0.3,0.2,0.3,0.7,0.7,0.7
	c0.7,0.1,1.1-1.3,1.8-1.7c0.7-0.3,2.3-0.1,2.8-0.9c0.5-0.9-0.9-2-1.4-2.5c-0.8-0.9-1.2-1.9-2-2.8c-0.7-0.9-1.8-1.1-1.8-2.4
	c0-0.3,0.1-1.2,0.5-1.2c0.4,0,1,1.4,1.2,1.8c0.6,1.3,0.8,2.8,1.6,4c0.8,1.1,2,1.8,3,2.6c1.4,1.2,1.9,4,3.5,4.9
	c1.7,0.9,2.4-0.9,3.5-1.5c1.6-0.9,3.3-1.4,4.8-2.4c1.2-0.9,2.6-0.6,4.1-1c1.2-0.3,1.7-1.4,3-1.4c-1.2,0.9,0.5,1.4,1.2,1.3
	c1-0.1,1.9-0.6,2.7-1c0.8-0.4,1.5-1,2.3-1.4c0.9-0.4,1.7,0,2.7,0.2c1.1,0.3,2.2,0.6,3-0.5c0.5-0.8,0.3-1.8,0.8-2.6
	c1.2-2.4,3.7,0.6,4.8,1.7c1,1,3.2,3.1,4.4,1.8c0.7-0.7,0.7-1.7,1.6-2.4c0.9-0.7,1.6-0.5,2.5,0.3c0.7,0.6,1.2,1.4,1.9,2
	c1.1,1,2.5,1.5,3.6,2.6c1.7,1.7,3.1,4.9,5.9,4.9c1.1,0,2.7-0.5,3.7-0.9c1.3-0.5,1.7-2.2,2-3.5c0.7-3.2,1.1-6.3,2.3-9.4
	c1.1-3,2.5-5.1,4.7-7.4c2-2.1,2.7-3.5,2.3-6.6c-0.8-5.9-1.7-11.4-0.3-17.3c0.5-2,0.5-3.4-0.9-5.1c-1.1-1.4-3-2-4-3.4
	c-0.7-1.1-0.5-2.5-0.7-3.7c-0.2-1.7-0.5-3.3-0.2-5c0.4-2.6,1.6-4.9,3.3-6.8c1.4-1.6,3-3,4.7-4.3
	C159.4,129.1,161.3,128.2,161.5,127.2z"/>
<path id="path1815" class="st0" d="M209.6,307.9c0.7,0.5,0.7,1.6,1.8,1.6c0.5,0,1.1-0.4,1.6-0.5c0.7-0.1,1.3-0.1,2-0.3
	c1.2-0.4,3.3-2.6,4.6-2c1.1,0.5,0.7,1.4,0.1,2c-0.8,0.8-1.6,1.5-1.5,2.8c0.1,1,1.2,2.3,0.6,3.3c-0.5,1-1.3,0.2-1.9-0.3
	c-0.6-0.5-1.7-1.7-2.6-1.6c-1.5,0.1-0.9,2.1-0.3,2.9c0.8,1,1.6,1.9,2.2,3.1c0.4,0.8,1.5,3,1.1,4c-0.9,2-3.2-1.8-4.5-0.7
	c-0.6,0.5,0.3,1.6-0.1,2.2c-0.2,0.4-0.9,0.4-1.2,0.7c-0.9,0.8-0.4,1.2,0.8,1.5c1.8,0.4,2.7-1,4.3-1.2c1.4-0.1,3.1,2.9,1.6,2.7
	c0.4,1.1,0.9,2.1,1.3,3.2c0.5,1.1,1.3,2.5,1.4,3.7c0.1,0.6-1.5,3.1-0.3,2.8c0.3-0.1,0.7-0.9,0.9-1.1c0.1-0.1,0.4-0.1,0.4-0.1
	c0.4-0.6,0.4-1,0.5-1.7c0.2-0.9,0.4-1.7,0.7-2.5c0.3-0.6,1-1.5,0.9-2.3c-0.1-1-1-1.7-0.8-2.9c0.2-1.1,1-1.7,1.3-2.8
	c0.3-1.1,0.2-1.2,1-1.7c0.6-0.4,1.1-0.4,1.6-1.1c0.4-0.5,0.9-1.2,1-1.9c0.1-1-0.5-1.5-0.9-2.4c-0.3-0.8-0.4-1.9-0.6-2.8
	c-0.2-0.9-0.7-2.1-0.6-3c0.1-1.8,1.6-1.1,2.6-0.4c1.3,0.8,3,2,2.8,3.7c-0.2,1.8-1.3,2.7,0.2,4.2c1.5,1.6,1.6,3.6,1.8,5.7
	c0.2,1.7,1.4,5.8,0,7.2c-1.2,1.1-2.3-0.8-3.3-0.4c-0.7,0.2-0.6,1.4-0.8,2c-0.2,1-0.6,1.6-1.2,2.3c-0.4,0.4-2.1,2.3-0.8,2.7
	c0.8,0.2,0.9-0.9,1.3-1.3c0.6-0.4,1.6-0.3,2.3-0.3c1.3,0.2,3.2,2.2,3.7,0.3c0.2-0.8,0.2-1.5,0.6-2.3c0.5-1,1-1.5,1-2.7
	c0-2.4-1.2-4.7-1.4-7c-0.1-1.1,0.1-2.3-0.2-3.4c-0.3-1.1-0.8-1.9-0.8-3.1c0-1.1,0.4-2,0.1-3.1c-0.4-1.3-0.6-2-0.5-3.4
	c0.1-1.8-0.8-2.8-1.3-4.5c-0.3-1.1-0.4-1-1.6-0.7c-1,0.2-2,0.5-2.9,0.9c-1.2,0.6-4.1,2.4-4-0.5c0-2,4.1-4.3,5.4-5.4
	c1.1-0.8,2.3-1.6,3.3-2.5c1.6-1.5,2.9-3.3,4.8-4.5c3.2-2.2,8.1-4.9,11.8-2.8c1.6,0.9,3,1.5,4.7,1.9c1.7,0.4,3.5,0.7,4.9,1.8
	c1.4,1.1,2.9,2.7,3.3,4.4c0.4,1.8-0.8,2.3-1.6,3.6c-1.3,2.3-2.7,5.4-3,8.1c-0.4,3,2.7,5.7,2.9,8.7c0.1,1-0.1,2.2,0.3,3.1
	c0.4,0.8,1.1,1.2,1.4,2c0.3,0.9,0.1,1.9,0.1,2.8c0,0.8,0.3,1.1,0.5,1.8c0.6,2.1-1.8,5-2.8,6.7c-0.6,0.9-1.1,2.1-1.9,2.8
	c-0.5,0.4-1.2,0.6-1.7,1c-0.2,0.2-0.4,0.5-0.5,0.8c-0.2,0.6,0.1,1.1,0,1.6c-0.5,1.5-1.7,0.4-2.5-0.1c-2-1.2-3.4,0.3-4.7,1.8
	c-2.3,2.7-5.4,3.8-6.7,7.4c-0.9,2.7-2,6.2-0.1,8.7c1.4,1.9,4,2.7,6,3.7c2.5,1.3,5.6,3.4,5.8,6.5c0.1,1-0.5,2-0.4,2.9
	c0.1,0.9,0.7,1,1,1.7c0.4,0.8,0,1.6-0.7,2.2c-1.1,1-2.8,1.3-4,2.1c-1.5,0.9-2.5,0.9-4.2,0.7c-3.6-0.5-7.4,1.6-8.6,5.1
	c-0.4,1.1-0.3,2.4-0.6,3.5c-0.3,1.1-1.5,1.4-1.4,0.1c0.1-0.9,1.4-1.7,0.6-2.4c-0.3-0.3-1.5-0.2-1.8-0.1c-1.1,0.4-1.4,1.7-1.2,2.7
	c0.7,3,4.9,1.3,6.7,3.2c0.6,0.7,0.8,3.3,0.1,3.9c-0.8,0.8-3.8-1.8-3.7-0.4c0.1,0.6,1.1,0.9,1.3,1.3c0.2,0.4-0.2,1,0,1.4
	c0.1,0.3,0.4,0.4,0.6,0.7c0.4,0.7,0.4,1.5,0.8,2.3c0.5,0.8,1.5,1.6,1,2.6c-0.6,1-2.6,0.6-3.5,1.2c-1.3,0.9-2.1,2.5-3.8,2.6
	c-1.9,0.2-2.7-1.3-3.8-2.5c-0.3-0.3-0.7-0.9-1.3-0.8c-0.7,0.1-0.6,1.3-1.3,1.6c-1.1,0.5-1-1-1.5-1.8c-0.7-1.1-2-2.1-3-3.1
	c-0.7-0.7-1.3-1.4-2.3-1.8c-0.8-0.3-1.8-0.4-2.6-0.9c-1.1-0.6-2-1.6-3.1-2.3c0.7,0.2,1.1,0.7,1.8,0.9c0.7,0.2,1.3,0.1,2,0.2
	c1,0.1,1.6,0.6,2.3,1.2c1,0.8,4.6,3.1,3,0c-0.3-0.6-0.7-1.4-1.2-1.8c-0.4-0.4-1-0.4-1.5-0.7c-1.1-0.5-2-1.5-2.6-2.5
	c-0.2-0.3-0.6-1-0.4-1.4c0.3-0.6,0.1-0.1,0.7-0.2c1-0.3,2.4-0.2,3.2-0.7c2.3-1.2-0.6-2.9-2.1-2.8c-0.7,0-1.2,0.9-2,0.2
	c-0.6-0.6-0.1-1.7,0.1-2.4c0.3-1.1,0.8-2.2-0.8-2.3c-1.2-0.1-1.1,0.5-1.7,1.4c-0.8,1.2-1.7,0.8-2.8,0.2c-1.2-0.7-2.2-1.2-3.7-1.3
	c-1.8-0.1-2.4-1-3.9-1.9c-1.3-0.8-2-0.3-3.3,0.3c-0.5,0.3-1.2,0.6-1.8,0.7c-0.6,0-1.1-0.4-1.7-0.4c-1.7,0-0.1,0.9,0.4,1.5
	c-0.8,0.3-2.8-0.1-3.5-0.6c-0.7-0.5-0.6-1.4-0.8-2.3c-0.1-0.8-0.4-1.4,0.3-1.6c0.9-0.3,1.2,0.6,1.8-0.5c0.3-0.5,0.4-1.2,0.1-1.6
	c-0.5,1.2-2,1.8-2.2,0.2c-0.2-1.4,0.1-2.5-0.9-3.6c-0.9-1-5.1-2.5-3.1-3.7c0.7-0.4,1.4-0.1,1.3-1.1c0-0.5-0.5-1.1-0.9-1.3
	c-2.2-1.4-1.2,1.9-2.4,2.1c-1,0.2-1.6-2-1.7-2.7c-0.4-1.9,1.2-0.4,2.4-1.1c0.7-0.4,0.9-1.1,1.6-1.4c0.6-0.3,1.5,0,1.8-0.8
	c0.2-0.6-0.3-0.9-0.6-1.4c-0.6-1-0.7-1.8-0.5-2.9c0.3-2.4-0.5-4.4-1.6-6.6c-0.3-0.5-0.8-2-1.4-2.1c-0.9-0.2-0.9,2.5-2,0.9
	c-0.5-0.7-0.1-2.1,0.6-2.5c1.2-0.6,2.2,0.1,2.8-1.5c0.8-2.4-1.5-6.7-3.2-8.3c-1.2-1.1-2.9-1.5-4.4-1.8c-0.9-0.2-4-0.5-3.7-1.9
	c1.8,0.2,3.6,0.7,5.4,0.9c0.9,0.1,3.9,0.3,2.5-1.4c-1.1-1.3-3.1-0.4-4.2-2c-1-1.3-1.2-3.5-3.1-3.8c-0.6-0.1-4.8-0.1-2.6-1.2
	c1.5-0.7,3.6,0.1,5,0.6c1.5,0.5,3,0.7,4.5,0.1c0.9-0.4,4-3.2,4.6-0.9c-0.9,0.7-2.6-0.3-2,1.7c0.3,0.9,1.3,1.7,2.1,2.1
	c0.6,0.3,1.9,1,2.4,0.3c0.6-0.8-1.5-2.2-2-2.7c0.1-0.1,0.5-0.3,0.7-0.3c0.3,0,0.4,0.5,0.9,0.5c0.2,0,0.5-0.4,0.6-0.4
	c0.4,0,0.8,0.4,1.3,0.5c0.7,0.1,0.8-0.4,1.3-0.8c0.5-0.3,0.9-0.2,1.5-0.5c0.2-0.1,0.3-0.4,0.5-0.5c0.4-0.2,0.9-0.3,1.3-0.5
	c1.3-0.5,1.6-1.4,1.8-2.8c0.1-1,0.4-2.3,0.3-3.3c-0.1-0.5-1.7-2.1-1.3-2.5c0.4-0.5,1.7,0.9,2.2,0.9c1.3,0.2,1.3-0.8,2.1-1.4
	c0.8-0.6,1.5,0.2,2.4-0.3c0.5-0.3,0.8-1.2,1-1.7c1.2-3.3,1.2-8.5-3.1-9.1c-2.2-0.3-3.7-0.4-5.6-1.5c-0.7-0.4-1.5-0.7-2.1-1.2
	c-0.9-0.7-0.4-1.3-0.8-2.2c0.5,0.1,1.1,0.7,1.6,1c0.6,0.3,1.2,0.6,1.8,0.8c1.5,0.7,2.7,1.2,4.4,1.2c1.6,0,2.4,0.4,3.8,1
	C207.2,308.4,208.3,307.6,209.6,307.9z"/>
<path id="path1817" class="st0" d="M163.4,349.7c1.2,0.8,0.9,3,1.7,4.1c0.5,0.6,1.2,1.1,1.6,1.8c0.6,1.1,0.2,1.2-0.7,1.4
	c-1.1,0.3-2.2,0.4-2.4,1.7c-0.2,1.1,0.6,2.4,1.2,3.3c1.3,2.1,2.7,4,3.8,6.1c0.8,1.5,1.6,3,2.3,4.5c0.3,0.8,1.3,2.4,0.7,3.2
	c-0.5-0.7-1.2-2.2-2.2-1.6c-1.1,0.6-0.5,4-0.3,5c0.6,3.6,0.8,6.7,0.2,10.3c-0.3,1.6-0.6,3.2-1.1,4.8c-0.2,0.7-0.5,1.3-0.7,2.1
	c-0.1,0.7,0,1.6-0.6,2.1c-0.6,0.6-1.2,0.2-2,0.2c-0.9,0-1.2,0.2-2,0.4c-0.8,0.2-1.4-0.1-2.2,0c-0.8,0.1-1.3,0.5-1.9,1.1
	c-0.8,0.8-1.5,1.8-2.6,2.1c-1.6,0.5-2.3-0.9-3.8-1.2c-0.9-0.2-1.8,0.1-2.6-0.3c-0.6-0.3-0.9-0.9-1.4-1.3c-1-0.6-2.2-0.3-3.3-0.6
	c-1.1-0.3-1.9-1.1-2.8-1.8c-0.4-0.3-1.8-2-2.3-1.9c-1,0.2-0.2,2.9-0.7,3.5c-0.4,0.5-1.3-1.7-2-2c-1.2-0.6-5.9,0.9-4-1.6
	c0.9-1.2,2.3-1.3,3.3-2.1c0.7-0.6,0.4-1.2,0.2-2.1c-0.2-0.9-1.2-4.7-2.3-4.9c-0.9-0.1-0.8,1.6-1.9,1.5c-1.3,0-1.7-2.1-2.9-2.1
	c-2,0-0.1,3.4,0.3,4.1c0.3,0.7,0.9,1.6,0.9,2.4c0,1.2-1.6,1.4-2.3,0.5c-0.6-1,0.4-0.6,0.6-1.4c0.3-1-1.2-2.9-1.3-4
	c-0.1-1.3,1.2-3-0.4-3.8c-0.9-0.5-1.7-0.1-2.6-0.9c-1-1-1.8-2.5-1.4-3.9c0.3-1.3,0.7-2.2,0.3-3.6c-0.2-0.7-1.1-2-1-2.8
	c0.1-0.4,0.3-0.4,0.5-0.7c0.3-0.6,0.5-1-0.2-1.5c-0.7-0.4-1.8-0.2-2.6-0.5c-0.8-0.3-2.6-1.6-2.2-2.7c0.4-0.9,1.7-0.3,2.4-0.8
	c2-1.3-1.6-2.1-2.4-2.6c0.4-0.2,2.3,0.1,2-0.8c-0.3-0.9-2.4-0.9-3.1-1.1c-1.1-0.3-3.3-2.3-3-3.6c0.8,0,5.2,4.6,5.5,2.8
	c0.1-0.4-1.4-2.1-1.7-2.4c-0.8-0.9-1.9-0.9-2.7-1.7c-0.4-0.3-0.5-0.7-1-1c-0.2-0.2-0.6-0.2-0.8-0.3c-0.3-0.2-0.8-0.4-0.8-0.9
	c0.1-1.1,2-0.9,2.7-1.4c1-0.7,0.3-2.5,1.4-2.9c0.6-0.2,1.2,0.1,1.9-0.2c1.1-0.4,1.7-0.9,2.2,0.4c0.4,1.2,0,2.2,1.3,3
	c2.9,1.6,5.1-2.3,7.4-3.5c1.5-0.8,3.1-1.4,4.7-2c1.7-0.6,2.8-1.3,4.2-2.5c1-0.9,2.3-1.5,3.7-1.5c1.1,0,0.7,0.4,1.2,1.3
	c0.2,0.4,0,0.7,0.5,0.7c0.4,0,0.5-0.5,0.6-0.9c0.1-0.6-0.7-1.9-0.4-2.4c0.4-0.6,1.6,0.2,1.9,0.4c0.6,0.5,1.1,1.1,1.8,1.6
	c0.9,0.5,1.7,0.5,2.4,1.3c1.1,1.3,1,3,2.8,3.8c1.5,0.7,3,0.9,4,2.4c-0.8-0.5-2.3-1.7-3.3-0.7c-0.8,0.8-0.1,1.5,0.3,2.2
	c1.1,2-0.7,2.2-2,3.3c-1.1,0.9-2.2,3.3-0.4,3.9c0.5,0.2,1.8,0.2,2.2-0.1c0.9-0.5,0.3-2.3,1-2.5c0.4-0.1,0.9,0.3,1.4,0.2
	c0.6-0.1,0.8-0.6,1.2-1c0.8-0.7,1.9-0.4,2.6-1.1c2.1-1.9-2-2.7-1.9-3.8c0.1-0.5,0.6-0.8,1.1-0.6c0.7,0.3,0.8,1.9,1.5,0.8
	c0.4-0.7-0.2-1.9-0.4-2.6c-0.4-1.2-0.5-2.2-0.6-3.4c0.5,1.3,1.3,2.5,1.1,0.2c0-0.6-0.8-3.5-0.2-3.5c0.2,0,1.1,2.6,1.4,3
	C162.7,347.1,162.9,348.2,163.4,349.7z"/>
<path id="path1823" class="st0" d="M492.3,166.4c-0.1,0.7,1.1,1.4,0.6,2.1c-0.1,0.2-1.2,0.4-1.5,0.7c-0.4,0.3-0.6,0.7-0.9,1.1
	c-0.9,1.2-1.8,2.8-1.4,4.3c0.3,0.9,1,1.5,1,2.5c0,0.9-0.5,1.8-0.7,2.7c-0.2,1,0,1.7-0.6,2.5s-1.1,1.1-1.4,2.1c-0.2,1-0.1,2-0.4,3
	c-0.3,1.1-1.1,1.9-1.6,2.9c-0.5,1-0.6,1.9-0.7,3c-0.1,1.2-0.4,3.7-1.9,3.7c-0.6,0-1.6-0.7-1.4,0.7c0.1,0.7,1.1,1.3,1.7,1.7
	c-0.3,0.6-1.1,0.9-1.6,1.4c-0.5,0.5-0.7,1.3-0.9,2c-0.5,1.2-0.2,2-0.1,3.3c0.1,0.8,0,1.6,0.1,2.4c0.1,1-0.3,1.6-0.8,2.5
	c-0.6,1.1-0.9,2-1,3.2c-0.1,1.1,0.2,2.6-0.4,3.6c-0.6,1.1-0.4,0.3-1.2,0.7c-0.6,0.3,0,0.1-0.6,0.7c-0.6,0.7-1.3,1.1-1.7,2
	c-0.9,2.1-0.3,4.4-1.1,6.5c-0.4,1.1-0.9,2-1.1,3.2c-0.2,1.2-0.3,2.3-0.7,3.4c-0.3,1-0.8,1.9-1,2.9c-0.3,1.4-0.2,2.8-0.5,4.2
	c-0.4,1.8-1.5,2.7-2.3,4.2c-1,1.8,0,3.7-0.8,5.5c-0.4,1-0.3,1.5-0.2,2.5c0.1,1-0.2,1.9-0.6,2.8c-0.8,2.3-2.1,4.5-2,7
	c0.1,1,0.3,1.8,0.1,2.7c-0.2,0.9-0.6,1.7-0.8,2.6c-0.8,2.6-1.7,5.2-2.5,7.7c-0.2,0.5-0.3,1.1-0.5,1.6c-0.4,0.9-1,1.3-1.7,1.9
	c-0.4,0.3-1.3,1.4-1.8,1.3c-1.4-0.2-0.8-3.3-0.7-4.1c0.1-1.5-0.6-2.8-0.6-4.3c0-3.4,0.4-6.9,0.5-10.3c0-1.3-0.1-2.1-0.4-3.3
	c-0.6-2.2-0.6-4.1-0.4-6.4c0.2-2-0.3-3.9,0.2-5.9c0.5-2.1,1.3-4.2,2-6.2c1.6-4.4,2.7-8.9,4-13.4c0.7-2.4,1.5-4.5,2.6-6.7
	c0.5-0.9,1-1.8,1.4-2.7c0.5-1.3,0.3-2.9,1-4.2c0.9-1.6,2.6-1.5,4.2-1.6c2.3-0.2,2.3-2.4,2.6-4.4c0.2-1.6,0.7-3.2,1.3-4.7
	c0.3-0.7,0.5-1.5,0.8-2.2c0.4-0.9,1.1-1.4,1.7-2.2c0.7-1,0.4-2,0.8-3.1c0.3-1,1.1-1.9,1.6-2.9c1.2-2.5,2-5.5,2.2-8.3
	c0.1-1.6-0.7-3.4,0.6-4.5c1.9-1.6,2.4-2.7,2.2-5.3c-0.3-4.1,1.2-8.4,4.8-10.7c0.2,0.6,0.7,2.4,1.5,2.3c0.5-0.1,0.6-1,0.7-1.4
	C492.2,165.4,492.2,165.9,492.3,166.4z"/>
<path id="path1839_5_" class="st0" d="M480.8,50.2c5,0.5,1.2-2.7-0.5-4"/>
<path id="path1839_4_" class="st0" d="M459.9,49.9c2.5,0.6,4.3,2.8,6.9,3.4c1.3,0.3,2.7,0.5,4.1,0.8c0.5,0.1,0.9,0.2,1.4,0.4
	c0.2,0.1,1.2,0.9,1.2,0.9c0.7,0.1,0.8-0.6,1.3-1c0.8-0.6,1.7-0.2,2.5-0.5c1-0.3,1.9-1.4,1.8-2.4c0-0.6-0.7-1-0.2-1.5"/>
<path id="path1839_3_" class="st0" d="M457.5,49.9c1.1-0.2,1.2,0.4,2.4,0"/>
<path id="path1839_2_" class="st0" d="M193.1,49.8c0.4,0.2,1.3,0.6,1.5,0.8c0.2,0.1,0.4-0.1,0.6,0.3c0.8,1.2-1.4,1.5-1.7,1.9
	c-0.5,0.7,0.8,4.7-0.9,3c-0.4-0.4-0.1-0.9-0.8-0.6c-0.4,0.1-0.4,1-0.5,1.3c-0.1,0.3-0.2,0.7-0.4,1c-0.4,0.4-0.4,0.7,0,0.9
	c0.2,0.5,0.4,0.6,0.5,1.1c0.2,1-0.5,4.7,0.7,5.1c0.5-1,0.3-1.7,1-2.5c0.4-0.5,0.8-1.3,1.4-0.8c0.6,0.4,0,1.6,1,1.9
	c0.8,0.2,1.2-0.7,1.5-1.3c1.3-3,3.3-5.4,5.1-8c-0.7,1.1-0.8,2.4-1.4,3.5c-0.5,1-1.5,1.7-1.9,2.7c-0.4,0.7-1.4,3.4-1,4.2
	c1.5,2.5,2.7-6.1,3.8-4.3c0.3,0.5-0.4,1.7-0.2,2.3c0.1,0.4,2.5,1.9,1.4,2.7c-0.6,0.4-1.4-0.7-2.1-0.4c-0.9,0.3-1.1,1.9-1.1,2.7
	c0.1,3.3,2.2-1,3.2,0.2c0.4,0.4-0.9,1.5-1.1,1.8c-0.8,1-1.4,2-1.3,3.3c1.1-0.3,2.5-1.8,3.3-2.6c1.2-1.1,2-2.8,2.6-4.3
	c0.8-1.9,1-4.1,1.4-6.1c0.3-1.4,0.9-2.9,0.8-4.4c-0.1-1.1-0.9-2.1-0.7-3.3c1.8,0.8,1.1,5,2.5,6.5c0.4-1.1,1.2-2.6,2.2-3.2
	c0.5-0.3,0.9-0.4,1.4-0.1c0.9,0.7,0.2,0.9-0.3,1.2c-0.8,0.5-1.5,0.9-2,1.7c-0.5,1,0.3,1,0,1.9c-0.2,0.5-1.5,1.3-1.9,1.8
	c-0.3,0.3-0.5,0.7-0.7,1c-1,1.7-2.1,3.7-2.7,5.5c-0.3,1-0.1,2.1-0.4,3.1c-0.2,0.8-0.7,1.5-0.8,2.4c0,0.9,0.7,1.8,1.8,1.6
	c1.2-0.2,0.1-1.6,0.1-2.5c1.9,3.7,5.1-2.8,6-3.8c1.1-1.2,3.4-0.1,3.9-1.9c0.2-0.8-0.6-1.9,0.7-1.8c1,0,1.9,1.1,3,1
	c1.2-0.1,1.7-1,2.5-1.7c0.6-0.6,2.1-1.3,1.9,0.2c-0.1,1.8-3,1.8-3.7,2.9c-0.3,0.5-0.1,0.9,0,1.4c0,0.4-0.1,1.4,0,1.7
	c0.2,0.6,1,1.1,1.3,1.6c0.6,1,0.7,2.2,0.9,3.3c0,0.3,0,1.1,0.3,1.3c0.5,0.5-0.2-0.1,0.7,0.1c0.9,0.2,1.1-0.1,0.6,1.3
	c-0.6,1.6-0.7,0.5-1.7,1c-1.2,0.5-0.5,3.3-0.6,4.3c0,1.2,0.1,3.7-0.8,4.7c-0.3,0.4-0.9,0.3-1.2,0.7c-0.2,0.2-0.2,1.3-0.3,1.6
	c-0.2,0.7-0.9,1.6-0.8,2.3c0.1,0.8,0.8,0.7,1.1,1.4c0.3,0.6,0.1,1.5,0,2.1c-0.1,1.5-0.3,3.1-0.8,4.5c-0.5,1.5-2.1,1.8-2.6,3.2
	c-0.5,1.3,0.4,1.4,1.1,2.2c0.3,0.3,0.5,0.3,0.4,0.8c-0.1,0.6-0.8,0.4-0.9,0.8c-0.2,0.8,0.9,0.8,0.6,1.4c-0.3,0.5-2.2,0.7-2.7,1
	c-2.1,1.2,1.1,1.9-0.3,3.3c-0.5,0.5-1.8,0.6-1.9,1.5c-0.1,1.4,0.9-0.1,1.6,0.1c-0.7,1.4,0.6,1.6,1.1,2.8c0.4,0.9,0.8,2.8,2,2.9
	c0.4,0,3.6-1,2.9,0.7c-0.1,0.3-0.8,0.4-1,0.7c-0.3,0.5,0.1,0.9-0.1,1.3c-0.2,0.4-0.9,0.9-1.2,1.1c-1.2,0.9-2.9,1.6-3.4,3.1
	c-0.1,0.4-0.1,2,0.2,2.2c0.2,0.2,0.7-0.1,1.1,0c0.3,0.1,0.7,0.6,1,0.6c1.1-0.1-0.3-1.5,0.2-2.2c0.5-0.5,1.7,0,2,0.4
	c0.6,0.8,0.3,1.5,1.6,1.4c0.4,0,0.7-0.3,1.1-0.3c0.6,0,1.1,0.5,1.6,0.5c-0.9,0.7-2.4,1.3-2.2,2.6c0.1,1.3,1.4,2,1.8,3.1
	c0.3,0.8-0.7,2.9,0.4,3.2c1.2,0.3,1.1-1.7,1.3-2.4c1.5,0.3,0.4,3.1,0.5,4c0.1,0.8,0.7,1.4,0.7,2.2c0,0.7-0.5,1.3-0.5,2
	c0,0.7-0.5,2.5-0.2,2.9c0.2,0.3,0.8,0.2,1,0.4c0.5,0.7-0.2,1-0.7,1.5c0.4,0.3,1.4,0.1,1.5,0.6c0.2,0.7-0.7,0.7-1.1,1.1
	c-0.8,0.8-0.5,2.2-0.7,3.2c-0.2,1-0.4,1.9-0.1,2.8c0.1,0.4,0.5,0.6,0.6,1.2c0.1,0.6-0.1,1-0.3,1.6c-0.1,0.4-0.7,0.6-0.1,0.9
	c0.5,0.3,1.1-0.6,1.6,0c0.7,0.8-1.1,2.3-0.4,3.3c0.8,1.1,0.8-1.2,1.6-1.1c1.1,0,0.1,2,1,2.2c0.3-1.3,0-2.5,0.2-3.8
	c0.1-1.2,0.9-2,0.9-3.2c0-1.5,0.1-3.2,1.3-4.4c1.3-1.3,1.5,1.5,2.3,2.2c0.5,0.5,0.6,0.4,0.8,1.1c0.1,0.4,0.1,0.9,0,1.3
	c-0.2,1.5-0.9,0.8-1.6,1.7c1,0.2,2.3-0.5,2.1,1.1c-0.1,0.7-0.9,1.2-1.4,1.6c-0.7,0.6-1.6,1.4-1.7,2.5c-0.1,1.5,0.8,0.8,1.7,0.4
	c1.6-0.7,1.3,0.3,1.8,1.3c0.3,0.8,0.9,0.5,1.4,1.2c0.4,0.5,0.2,1.5,0.3,2c0.1,1,0.3,1-0.4,1.7c-0.3,0.3-0.7,0.5-1.1,0.7
	c-0.2,0.4-0.3,0.8-0.3,1.2c-0.3,0.4-0.8,0.5-1,1c0.5,0.3,3.3,0.1,3.1,1.2c-0.1,0.8-1.3,0.3-1.8,0.3c-0.3,0-0.8-0.3-0.9,0.2
	c0,0.1,1.1,1.2,1.2,1.3c0.5,0.5,1,1,1.8,0.9c0.5,0,0.8-1,1.5-0.4c1.7,1.4-2.2,2.1-1.9,3c0.2,0.6,0.8,0.5,1.3,0.4
	c1-0.1,0.9-0.3,1.3,0.5c0.6,1.2-0.2,2.9,0.3,4.2c0.3,0.8,1.2,0.8,1.5,1.4c0.3,0.6-0.1,1.5-0.2,2c-0.2,0.6-0.6,1.1-0.4,1.8
	c0.2,0.5,0.8,0.6,0.9,1.3c0.2,0.8-0.3,0.9,0.1,1.7c0.1,0.2,0.4,0.5,0.6,0.7c0.4,0.4,0.9,0.9,1.3,1.3c0.8,0.7,1.9,1.1,2.6,2
	c0.7,0.9,1.1,2.5,1.1,3.6c0,0.8-0.4,1.5-0.5,2.3c-0.1,0.8,0.1,0.6,0.2,1.3c0.1,0.7,0.1,1.2,0.1,1.9c-0.1,1.6,0.4,1,1.6,1.6
	c0.8,0.4,1.5,1.3,2.3,1.8c0.8,0.4,1.8,0.4,2.6,0.9c1,0.6,0.8,1.8,1.7,2.5c0.2,0.2,0.5,0,0.7,0.3c0.3,0.4,0.1,0.8,0.3,1.2
	c0.4,0.7,1.2,0.5,1.9,1c0.9,0.8,1.7,2.5,1.8,3.6c0,1-0.1,1.9,0.1,2.9c0.3,0.9,0.3,1.8,0.5,2.7c0.2,0.6,0.8,2.2,1.3,2.6
	c0.6,0.5,1.2,0.1,1.6,1c0.3,0.8,0,1.8,0,2.7c0,1.3,0.3,1,1.1,1.6c0.7,0.5,0.6,0.2,0.9,1c0.2,0.5,0.1,1.4,0.4,1.8
	c0.7,0.7,2.9,0.2,3.7-0.3c0.5-0.3,0.9-1.3,1.6-1.2c0.3,0,1.1,0.7,1.5,0.9c0.7,0.3,1.2,0,1.7,0.8c0.4,0.5,0.4,1.3,0.5,1.9
	c0.1,0.6,0,1.3,0.2,2c0.2,1,0.8,1.9,1.1,2.9c1,3.1,1.3,6.3,0.2,9.4c-0.9,2.7-2.9,5.8-6.1,4c-1.5-0.9-2.4-2.2-4.2-2.3
	c-1.9,0-2.6,0.3-3.7,1.9c-1.1,1.6-2.2,4.8-0.4,6.3c1.1,0.9,2.5,1.4,3.7,2.2c1.2,0.8,1.4,1.6,1.7,2.9c0.2,1.3,0.7,1.8,1.2,2.9
	c0.4,0.9,0.5,1.5,1.2,2.2c0.6,0.5,1.5,1.1,1.9,1.8c0.6,1.3-0.2,3.1-1,4.2c-0.8,1-1.1,0.7-2.3,0.5c-0.3-0.1-0.8-0.1-1.1-0.1
	c-0.9,0-1,0.6-1.7,0.8c-1.4,0.3-2.2-2.6-3-3.3c-1.5-1.4-3.7-1.4-5.3-2.5c-1.3-0.8-3.1-2.7-4.8-2.3c0,0.9,1.4,1.4,1.9,2
	c0.7,0.7,1.1,1.7,1.5,2.6c0.9,2,0.9,4.2,1.6,6.3c0.6,1.9,0,4.2,1.1,5.8c1.1,1.6,1.8,3.3,3.1,4.8c1.2,1.4,2.3,3,3.3,4.6
	c0.5,0.8,0.6,1.5,0.6,2.5c0,1.6,0.1,2.1,1,3.4c0.6,0.9,0.7,1.7,0.9,2.7c0.3,1.2,1,2,1.6,3c0.6,0.9,0.9,1.8,1.2,2.9
	c0.3,1.2,0.2,3.3,1.1,4.2c0.8,0.9,2.2,0.2,3.2,1.2c1.2,1.1,1.9,2.7,2.4,4.2c0.4,1.2,0.8,2.7,0.1,3.9c-0.4,0.7-1.4,1-1.2,1.9
	c0.4,1.7,1.6,0.5,2.4,0.8c1.1,0.4-0.3,2.2,1,2.4c0.6,0.1,1-0.8,1.7-0.2c0.6,0.5,0.7,2.3,1.2,3c0.3,0.5,0.8,1,1.1,1.6
	c0.4,0.8,0.2,1.1-0.1,2c-0.3,0.9-0.2,1.8-0.5,2.6c-0.5,1.2-1.5,1.2-2.3,2.1c-0.6,0.7-1,1.5-1.7,2.1c-0.5,0.4-1.2,0.5-1.6,1
	c-1.3,1.2-1.3,3.4-0.9,4.9c0.5,1.9,1.6,3.6,2.5,5.3c0.5,1,1.7,2.8,1,4c-0.5-0.3-0.3-0.9-0.7-1.3c-1.3,0.9,0.3,2.9-1.1,3.8
	c-1.1,0.7-3.1,0.1-3.7-1.1c-0.2,0.6-4.5,5.2-1.7,5.1c0.5,0,1.2-1.1,1.8-1.2c0.9-0.2,0.9,0.2,1.6,0.6c0.7,0.4,0.5,0.3,1.1,0.1
	c1-0.4,0.7-1.6,2.1-1.2c2.1,0.6,3.6,4,5.8,4.1c1.1,0,1.7-1,2.9-0.8c1.6,0.2,3,1.4,4.3,2.2c2.7,1.7,6.7,2.6,9.4,0.5
	c1.2-1,2.3-2.1,3.5-3.1c1.4-1.1,2.2-1.1,3.9-0.9c1.5,0.2,2.3-0.3,3.1-1.5c0.4-0.6,0.8-1.5,1.5-1.9c0.7-0.5,1.8-0.6,2.7-0.9
	c1.1-0.4,2.2-0.4,3.4-0.4c1.4-0.1,3.2,0.4,4.4,0.1c1-0.2,1.5-1.2,2.5-1.4c1.6-0.3,3.2,0.8,4.3,1.7c0.7,0.5,1.5,1.1,2.1,1.7
	c0.5,0.6,0.7,1,1.4,1.3c0.8,0.3,1.7,0.1,2.5,0.3c0.9,0.2,1.6,0.5,2.5,0.5c3.6-0.1,3.9-3.6,5.2-6.1c1.2-2.4,3.1-4.5,4.7-6.7
	c0.6-0.8,1.4-1.8,1.6-2.8c0.3-1.3-0.9-2.8-1.4-4c-0.7-1.7-1.9-2.8-2.8-4.3c-1.2-1.8,0.1-3.5-0.6-5.4c-0.5-1.3-2.1-1.8-3-2.9
	c-0.9-1.1-1.2-2.6-1.3-3.9c-0.3-3,0.2-6.2,1.1-9.1c0.7-2.4,1.6-6,3.7-7.6c0.5-0.3,1.3-0.6,1.6-1c0.5-0.5,0.3-1.2,0.4-1.9
	c0.3-2.1,1.8-2.8,3.3-4.1c0.7-0.6,1-1.4,1.6-2.1c0.6-0.8,1.5-1.2,2-2.1c0.4-0.7,0.2-1.7,0.6-2.4c0.5-1,1.2-0.4,2.1-0.7
	c0.8-0.3,2.3-3,3-1.5c0.2,0.4-0.4,1.6,0.4,1.5c0.6-0.1,0.6-1.3,1.3-1.4c0.2,0.5-0.1,1.1,0.1,1.6c0.3,0.7,0.7,0.5,0.7,1.2
	c0.1,0.6-1.2,2.3-0.1,2.3c0.3,0,0.4-0.4,0.7-0.5c0.4-0.1,0.6,0,1.1,0.1c0.2,0,0.7,0.3,0.9,0.2c0.6-0.1,0.4-0.5,0.7-0.9
	c1.5-1.4,0.5,0.9,1.7,1.1c0.4,0.1,2.5-3,2.5-3.6c0-0.6-0.7-2.1-1.1-2.6c-0.4-0.6-1.2-0.9-1.4-1.6c-0.3-0.8,0.2-1.6-0.3-2.4
	c-0.3-0.4-0.8-0.6-1.2-1.1c-0.4-0.6-0.5-1.3-0.5-2c0-0.8,0.1-2.7,0.9-3.2c0.6-0.3,1.4,0.2,2,0.3c0.9,0.1,1.7-0.4,2.6-0.3
	c0.9,0.1,1.1,0.5,1.5,1.2c0.2,0.4,0.5,1.5,1.2,1.2c1.1-0.4-0.3-2.3,0.9-2.8c0.6-0.3,0.9,0.2,1.3,0.5c1,0.6,0.6,0.5,1.6,0
	c1.4-0.7,3.5-0.7,4.9,0c0.6,0.3,1.9,1.6,2,0.4c0.1-0.8-1.2-0.8-0.7-1.9c0.2-0.4,1.8-1,2.3-0.5c0.4,0.4-0.1,1.5,0.5,2.1
	c0.4,0.4,1.1,1,1.7,0.8c0.6-0.2,0.9-1.5,1.6-1.5c0.5,0,0.2,0.5,0.5,0.8c0.7,0.7,3.4,1.1,4.2,0.4c0.5-0.4,0.9-3,1.9-1.5
	c0.3-0.4,0.4-1,0.8-1.3c0.2,0.8,0.6,1.4,0.9,2.2c0.5,1.3,0.1,0.6-0.6,1.2c-0.4,0.4-0.5,1.2,0,1.4c0.9,0.4,0.9-1.2,1.8-0.6
	c0.4,0.3-0.3,0.5,0.5,0.8c0.7,0.3,1.2-0.3,1.4-0.8c0.5-1,0-2.2,0.7-3.1c0.8-1,2.2-0.5,3,0.3c0.5,0.5,0.8,2.8,1.7,2.3
	c0.8-0.4-0.1-2,0.4-2.6c0.3-0.3,1.1-0.4,1.5-0.6c0.3-0.2,0.5-0.5,0.8-0.8c0.2-0.2,0.2-0.5,0.5-0.7c0.3-0.2,0.6,0.2,0.8,0
	c0.5-0.3,0.8-1.2,1.5-1c1,0.3-0.2,2.2-0.4,2.8c-0.3,0.9-0.2,2.4,1.2,1.6c0.9-0.5,0.8-2.1,1.5-2.7c1-0.7,0.7,0.5,1.1,0.8
	c0.4,0.3,0.5,0.1,0.9,0.1c0.5,0,0.4-0.4,0.9,0c0.6,0.5-0.3,1.4,1.1,1c-0.1,1.7,0.6,0.6,1.2,0.8c1.1,0.2,1,2.2,2.4,0.7
	c0.4-0.4,0.2-0.9,1-1c0.9-0.1,0.9,0.6,0.9,1.3c0.1,0.9,0.1,1.9-0.4,2.7c-0.9,1.1-2.4,1.2-0.5,2.5c0.7,0.4,0.8,0.1,1.3,1
	c0.2,0.4,0.4,1.5,0.9,1.4c0.9-0.1,1.1-2.1,1.4-2.9c1-2.8,2.6-5.2,3.7-7.9c0.3-0.6,0.4-1.4,1-1.8c0.4-0.3,0.9-0.3,1.3-0.6
	c1.3-1,0.7-2.6,1.4-3.8c0.7-1.1,1.3-1.2,1.4-2.7c0-1.3-0.2-2.7,0.1-3.9c0.4-1.5,1-2.9,1.3-4.5c0.3-1.9,0.6-3.9,0.8-5.8
	c0.1-1.2,0.9-2,1.2-3.3c0.3-1.3,0.7-2.6,1.2-3.9c0.6-1.3,1.2-2.6,1.5-4.1c0.2-0.8,0.2-1.5,1-1.8c0.6-0.3,0.9,0.2,1.3-0.5
	c0.4-0.7,0.2-2.3,0.1-3.1c0-1-0.2-2.1-0.1-3.1c0.2-1.3,1.1-2.3,1.6-3.5c0.4-0.9,0.8-2.3,2-2.4c1.5-0.1,1.4,1.7,3,1
	c1.1-0.5,1.8-1.3,1.9-2.4c0-1-0.1-2.1-0.3-3c-0.1-0.3-0.3-0.7-0.3-1c0-0.8,0.4-1.2,0.2-2c-0.2-0.8-1.5-2-0.7-2.9
	c0.3-0.4,0.8-0.1,1.2-0.3c0.3-0.1,0.3-0.7,0.6-0.9c0.1-0.1,1.4-0.3,1.5-0.2c0.9,0.3,1.3,1.7,2.3,0.6c0.4-0.4,0.6-1.6,0.4-2.2
	c-0.4-0.8-0.5-0.6-1.2-0.1c-0.9,0.6-1.5,1.3-2-0.1c-0.4-1,0-2.4,0.3-3.5c0.3-1.2,0.9-2.3,1.1-3.5c0.3-1.1,0.1-2.2-0.1-3.4
	c-0.2-1.5,0-2.3,0.9-3.6c0.4-0.6,1-1.5,0.7-2.2c-0.2-0.5-0.9-0.7-1.1-1.1c-0.6-1.1-0.4-2.1-0.3-3.3c0-0.6-0.4-5.1,1.5-2.9
	c-0.1-0.9-2.4-2.9-0.8-3.1c0.8-0.1,1.3,0.9,1.9,1.1c0.8,0.2,0.6-0.4,0.9-1.2c0.1-0.4,0.2-1.3,0.8-1.1c0.8,0.2,0.3,1.2,0.7,1.7
	c0.2,0.2,1.7,0.3,2,0.2c0.5-0.3,0.2-0.7-0.1-1.2c-0.3-0.4-0.9-0.7-1.1-1.2c-0.4-0.9,0.1-0.9,0.4-1.6c0.4-0.8,0.3-0.4,0-1.2
	c-0.3-0.6-0.5-1.7-0.9-2.2c-0.6-0.8-0.5-0.1-1.2-0.2c-0.7-0.1-0.6-1-0.9-1.6c-0.6-1.3-1.7-2.2-2.1-3.6c-0.2-0.7-0.2-1.5-0.3-2.3
	c-0.1-1.1,0.1-1.5,0.3-2.4c0.2-0.6-0.1-1.3,0.4-1.8c0.6-0.6,1.2-0.1,1-1.1c-0.1-0.6-0.9-1.2-1.1-1.8c-0.2-0.8-0.2-1.6,0-2.4
	c0.3-1.3,1.9-2.5,3.1-2.8c0.4-0.1,1.3,0.1,1.5-0.4c0.1-0.6-1.2-0.8-1-1.5c0.2-0.6,1.1,0.2,1.5-0.5c0.2-0.4-0.5-1.1-0.7-1.3
	c-0.7-0.9-1.4-1.9-0.7-3c1.1-1.9,3.7,1.2,4.6,0c0.4-0.5-0.5-1.4-0.4-1.9c0.2-0.9,1-0.6,1.7-0.9c1.4-0.7,0.2-0.8-0.5-1.3
	c-0.5-0.4-0.6-0.7-0.7-1.5c-0.1-0.6-0.4-0.9,0.3-1.3c0.6-0.3,1.4,0.5,1.6-0.6c0.1-0.6-1.1-1.9-0.4-2.3c0.5-0.3,0.8,0.6,1.3,0.8
	c1.6-1.7-1.7-3.8-2.1-5.3c-0.1-0.5,0.1-1-0.1-1.5c-0.1-0.4-0.5-0.6-0.7-1c-0.1-0.3,0.2-0.8,0-1.1c-0.4-0.6-2.5-1.2-2.6,0
	c-0.6-2.1-1.2-0.7-2.7-1c-0.9-0.2-0.9-0.6-0.3-0.9c0.4-0.2,1.5,0.2,0.9-0.7c-0.5-0.8-1.5-0.3-0.9-1.5c0.2-0.4,0.8-0.3,0.8-0.9
	c0-0.3-0.8-2.1-0.9-2.3c0.6,0.9,1,0.9,1.6,0c0,0.6-0.3,3,0.2,3.4c0.8,0.6,0.8-1.1,1-1.3c0.4-0.5,0.6-0.1,1.2-0.4
	c1.2-0.5,2-2.3,1.1-3.3c-0.6-0.6-1.9-0.8-1.8-1.8c0.7-0.1,1.4,0.4,2-0.2c0.3-0.4,0.2-1.1,0-1.5c-0.1-0.2-0.5-0.2-0.6-0.4
	c-0.2-0.3-0.3-0.6-0.4-0.9c-0.4-0.7-1.5-0.9-1.5-1.9c1.1,0.6,2.1,1.9,3.4,2.1c0.7,0.1,1.2-0.3,1.9-0.3c0.4,0,1.2,0.4,1.4,0
	c0.4-0.5-0.4-0.4-0.5-0.9c-0.1-0.6,0.1-0.9,0.8-0.6c0-0.6-0.5-1.5-0.9-2c-0.7-0.8-1.1-0.5-2.1-0.7c0-0.6,0.5-0.8,0.3-1.4
	c-0.1-0.3-0.7-0.5-1-0.7c-0.8-0.6-1-1.5-1.7-2.1c-0.3-0.4-0.8-0.5-1.2-0.9c-0.5-0.6-0.7-1.4-0.9-2.1c-0.3-0.8-0.6-1.3-1.2-1.8
	c-2.6-2.3-6.7-3.8-6.4-8c0.5,0.9,1.4,1.8,2.2,2.5c1,1,2.3,1.5,3.1,2.7c0.9,1.3,2.2,2.3,3.2,3.6c0.5,0.6,1,1.2,1.3,1.9
	c0.4,1.1,0.2,1.7,1.3,2.3c0.9,0.5,1.4,0.9,2.1,1.8c0.3,0.3,0.6,1.1,1.2,0.8c0.8-0.4-1.5-3.2-1.9-3.7c-2.2-3.1-4.6-6.3-7.2-9
	c-0.7-0.7-1.5-1.2-2.2-1.9c-0.2-0.2-1-0.8-1-1.1c0-0.6,0.4-0.2,0.8-0.2c1.6,0.1,0.4,0,0.5-1.2c0.1-1.1,1.5,0.2,2.1,0.6
	c0.3,0.2,2,1.7,2.4,1.4c0.7-0.4-0.2-2.8,0.1-3.5c0.3-0.8,0.9-0.5,0.4-1.2c-0.7-0.9-2.3-1.5-3.2-2.3c-0.8-0.8-2.1-3-0.7-3.8
	c1-0.6,1.1,1.1,1.9,1.7c0.2,0.1,0.7,0.1,0.8,0.2c0.5,0.4,0.4,0.9,0.6,1.3c0.3,0.6,0.8,1.1,1.1,1.6c0.4,0.5,0.8,1,1.2,1.5
	c0.4,0.4,1.4,0.9,1.5,1.4c-0.4-0.2-1.6-0.8-2-0.5c-0.3,0.2,0.3,1.3,0.3,1.7c0,0.5-0.3,1.3,0.1,1.7c0.4,0.4,0.6-0.1,1-0.1
	c0.9,0,0.7,0.9,1.3,1c1,0.2,0.9-2.3,1-2.5c0.1-0.9,0.2-1,0.7-0.5c0.7,0.6,0.8,2.5,1.3,3.4c0.7,1.1,2.3,1.2,2.6-0.4
	c0.1-0.8-3.5-3.8-2.3-4.4c0.8-0.4,1.8,2.5,2.7,1.7c0.6-0.5-0.4-1.4-0.7-1.7c-0.7-0.8-1.1-1.1-1.1-2.2c0-0.5,0.1-1.9-0.5-2.3
	c-1-0.7-0.4,0.7-0.8,1.1c-1,1.2-1-2.7-2.1-2.6c-0.1,0-0.5,0.8-1,0.8c-0.4,0-1.3-0.2-1.6-0.5c-0.9-1.1,1.2-0.1,1.6-0.4
	c0.9-0.7-0.7-1.5-1-2c-0.9-1.3,0.7-2.5,0.8-3.9c0.6,1.6,0.2,4.5,2.4,5c-0.1-0.9-1.6-2.2,0.5-2.2c0.6,0,1.5,1,1.9,0.8
	c0.8-0.3,0.1-2.3-0.1-2.8c-0.7-1.8-1.5-1.2-3.1-1.5c0.1-0.6,1.4-0.3,1.7-0.6c0.4-0.5-0.1-0.6,0-1c0.1-0.4,0-0.3,0.2-0.6
	c0.2-0.2,0.7-0.2,0.9-0.5c0.4-0.6,0-2-0.6-2.4c-0.7-0.5-1.2,0.1-1.8-0.6c-0.5-0.5-1.8-2.8-1.5-3.6c0.3-0.6,1,0.1,1.2-0.3
	c0.3-0.4-0.9-1.5-1.1-1.7c-0.4-0.4-3.3-3.5-2-3.9c0.8-0.3,2.4,2.1,2.8,2.6c1,1.3,2,2.7,3,4.1c1.1,1.4,1.7,1.2,2.9-0.2
	c0.4-0.4,0.8-1,0.7-1.7c-0.1-0.5-0.5-0.4-0.7-0.8c-0.3-0.6-0.5-1.5,0.2-1.5c0.3,0,0.8,0.6,1.2,0.5c0.5-0.2,0.4-1.5,0.3-1.9
	c-0.1-0.6-0.5-1-0.7-1.6c-0.4-1,0-1.3,0-2.4c-0.6-0.1-1.1,0.4-1.1-0.4c0-0.6,0.8-0.6,0.4-1.2c-0.6-1-3.1-1.3-4-2
	c-0.6-0.5-0.7-0.5-0.4-0.9c-0.1,0.1,0.7,0,0.8,0c0.1-0.1,0-0.5,0.1-0.6c0.4-0.2,0.7,0,1.1-0.1c0.5-0.2,0.8-1.2,1.1-1.7
	c0.6-0.8,2.4-2,0.9-2.6c-0.7-0.2-1.8,0-2.3,0.5c-0.9,0.7-0.4,1.4-0.8,2.2c-0.7,1.3-1.6,0.2-1.6-0.8c0-1.2,0.5-1.5-0.5-2.3
	c-0.7-0.6-1.8-0.9-2.4-1.6c-0.7-0.9,0.2-0.4,1-0.3c0.8,0.1,1.8,0.1,2.5,0.4c0,0,0.4,0.6,0.6,0.6c0.4,0,0.2-0.5,0.5-0.6
	c0.7-0.3,0.3,0,1,0.2c0.9,0.2,1.2-0.4,1.2-1.4c0-0.4-0.1-1.2-0.4-1.4c-0.5-0.5-0.1-0.2-0.6-0.1c-0.4,0.1-2,1.7-2.6,0.8
	c-0.3-0.4,0.5-2,0.6-2.4c0.2-1.1,0-2.2-1.1-2.6c-0.9-0.4-2,0-2.9-0.3c-1-0.3-1.3-1.1-2.1-1.7c-0.4-0.3-0.6-0.6-1.1-0.6
	c-0.2,0-0.7,0.5-0.9,0.4c-0.2-0.1-0.4-1.2-0.6-1.4c-0.7-0.8-2.4-1.2-3.4-1.6c-0.6-0.2-2.9-0.8-3.3-1.4c-0.1-0.2,0.7-0.5,0.8-0.5"/>
<path id="path1881_1_" class="st1" d="M61.3,414.3c0.7,0.9,1.4,2.1,2.7,1.9c1-0.2,2.3-0.9,3.2-1.3c0.6-0.3,1.4-0.9,2.2-0.9
	c0.7,0,1,0.3,1.7,0.5c1.9,0.6,3.5-0.2,5.3,0.9c1.5,0.9,2.7,2.1,4.5,2.4c2.2,0.4,4.2,0.6,6.3,1.4c0.6,0.2,2.1,0.5,2.5,1.1
	c0.6,0.7,0.1,1,0.2,1.8c0,0.7,0.4,1.6,0.9,2.1c0.9,0.8,1.5-0.1,2.5,0c1.5,0.1,2.5,1,3.5-0.4c0.7-0.9,0.7-1.8,2-1.7
	c0.6,0.1,1.4,0.8,1.9,0.6c0.3-0.1,0.6-0.7,0.8-1c0.5-0.4,1-0.7,1.4-1.2c0.5-0.7,0.7-2.1,1.6-2.5c0.7-0.3,1.3,0.2,1.9-0.3
	c1.4-1.1,0.8-7,3.9-4.9c0.6,0.4,1.1,1,0.9,1.7c-0.4,1.2-1.2,0.2-1.8,0.7c-0.6,0.5,0.1,0.9,0.4,1.3c0.5,0.7,0.8,0.9,0.5,1.8
	c-0.5,1.4-0.7,2.2,1.1,1.7c2-0.6,2.3,0.1,3.1,1.7c0.8,1.5,1.6,1.2,2-0.5c0.3-1.3-0.3-2.3-1.2-3.2c-0.3-0.3-1.5-0.9-1.5-1.3
	c-0.1-1.7,2.6,0.2,3.1-0.1c0.9-0.5-0.8-4-0.8-4.9c-0.1-1.9-0.3-4.5-2.3-5.3c-2.3-1-4.9-1.6-5.9-4.2c-0.1-0.4-0.2-1.2-0.6-1.4
	c-0.6-0.3-0.5,0.1-0.9,0.5c-0.8,0.8-1.2,0.7-2.3,0.7c-1,0-3.5,1.8-3.9,0.1c-0.4-1.6,2.5-1.7,3.5-2.2c1.1-0.6,1.7-1.7,1.3-3
	c-0.2-0.7-0.7-1.5-1-2.2c-0.6-1.2-1.4-0.5-2.2-1.2c-0.4-0.4-0.4-0.8-0.1-1.2c0.6-1,1.7,0.2,2.3-0.4c0.7-0.9-1-0.5-1.2-1.1
	c-0.5-1.2,2.6-2.4,3.2-3.1c1.1-1.3,1.2-2.4,2.6-0.8c0.6,0.7,0.4,1,1.2,0.5c0.6-0.4,1.5-1.4,1.8-2c0.6-1,0.5-2.2,1.2-3.2
	c0.8-1.3,1.8-2.2,0.2-3.5c-0.7-0.6-1.5-1-2.2-1.6c-0.4-0.4-0.6-0.7-1.3-0.5c-0.4-1.2,1.8-1,1.1-2.4c-0.2-0.4-0.8-0.2-1-0.6
	c-0.1-0.2,0.4-0.9,0.4-1c0.2-0.8,0.1-1.7-0.1-2.5c-0.1-0.6-0.1-1.3-0.5-1.8c-0.2-0.3-0.6-0.1-0.8-0.5c-0.3-0.8,0.6-1.6,0.7-2.3
	c0-1-1.2-1.7-1-3c0.3-2,3-1.3,3.7-3.3c0.5-1.6-0.5-3.4-2.1-3.9c-1.5-0.4-2.8,0.6-4.3,0.7c-1.2,0.1-2.9-0.5-1.1-1.5
	c0.7-0.4,2.2-0.4,2.6-1.3c0.2-0.4-0.5-1.3,0.3-1.5c0.6-0.1,1.4,1.1,2.2,1.1c1,0,1.5-1.1,2.5-1.3c0.8-0.2,1.6,0.2,2.2-0.6
	c0.5-0.7-0.1-1.8,0.3-2.5c0.5-0.8,0.5-0.3,1.3-0.4c1.5-0.2,1.4-1.7,2.2-2.8c0.7-1,4.1-2.2,3.5-3.5c-0.8-1.7-4,0.3-5.2,0
	c-1.9-0.6-0.5-2.7-1.8-3.7c-0.8-0.6-1.4-0.8-2.1-1.7c-0.7-0.9-1.2-1.8-2.3-2c-1-0.2-3.3,0.6-3.8-0.8c-0.3-1,0.9-0.5,1.5-0.5
	c1.2,0,2.3-0.5,3.5-0.4c2.2,0.2,2.8,2.5,4.7,3.1c0.9,0.3,1.7,0.5,2.6,0.8c0.6,0.2,1,0.4,1.6,0.2c1-0.2,1.6-1.1,2.5-1.5
	c1.1-0.6,2.4-0.9,3.5-1.3c0.6-0.2,1.1-0.4,1.7-0.5c0.2,0,0.5-0.2,0.7-0.2c0,0,1,0.3,0.5,0.3c2,0,0-1.2,0.2-2.3
	c0.2-0.7,3.6-1.9,2.7-2.6c-0.7-0.6-2,0.7-2.3-0.8c-0.1-0.6,0.3-1.4,0.5-1.9c0.3-0.9,1.9-3.4,1.1-4.1c-0.2-0.2-0.9,0.1-1.2,0
	c-0.1,0-0.3-0.3-0.4-0.3c-0.5-0.1-1-0.3-1.5-0.4c-1.5-0.3-3.1-0.4-4.5-1c-0.7-0.3-2.1-1-1.2-1.8c0.5-0.5,1.9-0.2,2.6-0.1
	c1.2,0.1,1.8,0.2,2.5-0.8c0.6-0.8,0.5-1.5,1.7-1.6c0.2,0,0.4,0.1,0.6,0.1c0.7,0,1.1-0.3,1.7-0.4c1.2-0.2,3.4,0.1,4,1.2
	c0.5,0.9,0.2,1.9,0.9,2.8c0.3,0.4,1.4,1.6,1.9,1.5c0.6-0.1,0.8-2.2,0.8-2.7c0-0.9-0.9-1.7-0.7-2.6c0.2-0.6,0.5-0.6,1-0.9
	c0.5-0.3,0.7-0.4,1.1-0.9c0.8-1,1.3-1.8,1.2-3.2c0-1,0.3-2,0.3-3c0-1.1-0.7-2.1-0.4-3.3c0.2-0.8,1.7-2.5,1.6-3.3
	c-0.3-1.6-1.7,0.5-2.4,0.6c0.3-1.3,1.4-2.1,1.5-3.4c0.1-1.2-0.5-2.6-0.9-3.7c-0.6-1.5-1-2.1-0.6-3.7c0.2-0.6,0.4-1.3,0.4-1.9
	c0-0.7-0.4-1.4-0.3-2.2c0.1-2.2,2.7-4.1,3.8-5.8c0.7-1.1,0.6-2.5,1.4-3.6c0.4-0.5,0.9-0.9,1.3-1.5c0.3-0.5,0.5-1.5,1-1.9
	c1.3-1,6.5,1.5,5,2.9c-0.5,0.5-1,0.1-1.5,0.8c-0.8,1.1-0.2,2.4-0.4,3.5c0,0.3-0.5,1.5-0.9,1.4c-0.5-0.1-0.2-0.9-0.4-1.2
	c-0.6-0.9-1,0.1-1.5,0.6c-0.6,0.4-1.2,0.3-1.9,0.7c-1.6,0.8,0.3,2.1,0.9,3c0.5,0.9,0.5,3,1.9,2.2c0.5-0.3,0.8-1,1.1-1.5
	c0.1-0.2,0.4-0.6,0.6-0.7c0.7-0.4,0.4-0.1,1,0.2c1.2,0.5,2.8,0.6,2.6,2.2c-0.2,1.6-0.7,0.3-1.5,0.9c-0.6,0.4-0.3,1.1,0.1,1.6
	l-0.2-0.4c0.5,1.2,1.9,5.2,3.6,2.4c1-1.6-0.7-3.5-1.2-4.9c-0.3-0.9-0.3-1.5,0.3-2.3c0.3-0.4,0.8-0.8,1-1.3c0.4-0.7,0.4-1.5,0.8-2.1
	c1-1.4,3.7-1.7,4.8-0.1c0.3,0.5,0.5,1.2,0.3,1.8c-0.3,0.8-1,0.5-1.4,0.8c-0.7,0.6,0.2,1.4,0.7,2c0.6,0.8,1,2.7,2,2.9
	c2.3,0.3,1.5-4.9,1.6-6.1c0.2-3,2.5-4.5,4-6.9c0.7-1.1,1.2-2.4,2-3.5c0.7-1,1.7-1.7,2.5-2.6c1.6-2,0.5-4.7,1-7
	c0.2-1.2,0.7-1.9,1.4-2.9c0.7-0.8,1.2-1.5,0.5-2.5c-1.2-1.8-3.7-2.2-4.5-4.4c-0.3-0.9-0.3-2-1-2.7c-0.7-0.7-2-1.4-3-1.6
	c-1.2-0.2-2,0.7-3.2,1c-1.4,0.3-2.9,0-4.3,0.3c-1.2,0.3-2.4,0.8-3.6,1.2c-2.4,0.8-4.8,0.5-6.7-1c-0.9-0.7-2-1.1-2.7-2
	c-0.8-0.9-1.2-2.1-1.7-3.1c-0.2-0.5-0.5-1.8-0.9-2.1c-0.9-0.6-1.4,0.8-2,1.4c-0.8,0.8-2.2,1.2-2.8,2.2c-0.4,0.7-0.3,1.6-0.3,2.4
	c-0.1,1.8-0.2,4.2,0.5,5.9c-0.8,0.1-1.6,0.3-2.5,0.4c0-0.9,0.8-1.7,1.1-2.5c0.3-1-0.1-1.9-0.1-2.9c0-1.1,0-2.6,0.5-3.5
	c0.7-1.4,1.9-3.1,3-4.3c0.6-0.7,1.3-1.2,2.1-1.6c1.3-0.6,1.8-1.4,1.4-2.9c-0.3-1.2-1.8-1.7-2.6-2.7c-0.6-0.8-1.2-2.5-2.3-2.6
	c-0.9-0.1-1.2,0.7-1.8,1.1c-1.4,0.9-2,0-2.6-1.3c-0.1-0.3-0.6-1.1-0.3-1.4c0.5-0.5,1.7,0.9,2.4,0.9c0.9,0,1.4-0.9,2.3-0.9
	c0.9,0,1.3,0.7,1.9,1.1c1.2,0.8,2,0.3,2.2-1.2c0.2-1.4-0.8-2-1.4-3.2c-1.6-3.4-2.2-7.5-2.2-11.2c0-2.2,0.1-4.4,0.5-6.6
	c0.3-1.5,1.1-3.3,1-4.8c-0.1-1.6-1-0.6-2.3-0.6c-2.5-0.1-3.8-1.5-5-3.4c-1.1-1.7-3.3-2.4-4.7-4c-0.7-0.8-1.4-1.9-2.4-2.5
	c-1.3-0.7-1.7-0.1-2.4,0.8c-0.2,0.3-0.5,0.8-0.9,1c-0.7,0.3-0.7-0.1-1.5-0.1c-0.6,0-1.7,0.6-2.3,0.9c-0.6,0.3-1.1,1.4-1.8,1.4
	c-0.3,0-1-0.7-1.3-0.8c-0.7-0.2-1.4,0.1-2.1,0.2c-1,0.1-2.4-0.4-3.3,0.1c-0.8,0.4-1.1,1.7-1.4,2.5c-0.3,0.9-0.6,1.8-1.3,2.5
	c-0.3,0.3-0.8,0.5-1.1,0.8c-0.5,0.5-0.5,1.3-1.1,1.7c-0.7,0.6-1.3,0.4-1.6,1.5c-0.1,0.5,0.3,2-0.4,2.1c-0.2,0-0.9-1.6-1-1.9
	c-0.6-1.6,0.1-1,1-1.7c0.9-0.7,1-2.2,0.2-2.8c-1-0.7-3.1-1.1-4.3-1.3c-3.7-0.7-7.7-0.8-10.1,2.3c-0.6,0.8-1.5,1.2-2.1,2
	c-0.7,0.8-0.8,1.9-1.5,2.7c-1.1,1.4-2.8,2.7-2.3,4.8c0.2,1.1,1.3,1.6,1.7,2.5c0.8,1.8-1,3-1.4,4.5c-0.3,1.2,0.3,2.8,0.8,4
	c0.6,1.5,2.5,0.9,2.8,2.4c0.3,1.4-0.7,3.3-1.4,4.5c-0.7,1.3-2.2,2.3-2.4,3.8c-0.1,0.6,0.1,1.6,0.9,1.3c0.6-0.2,0.8-1.4,1.2-1.9
	c0.6-1,2.7-2.3,3.8-1.5c1.2,0.7,1.3,2.7,1.4,3.9c0.1,1.8-0.5,3-0.8,4.7c-0.2,1.3,0,2.5-0.2,3.8c-0.2,1.3-0.4,2.1,1.3,1.8
	c0.8-0.2,1.4-0.9,2.1-1.1c1.2-0.3,1,0.2,1.1,1.3c0,0.7,0.4,1.4-0.3,1.9c-0.7,0.4-1.9-0.5-2.6-0.2c-0.7,0.3-0.8,1.5-1.5,1.2
	c-0.5-0.2-1.6-2.6-1.8-3.1c-0.3-0.8-0.5-1.7-0.3-2.6c0.2-1,0.7-1.1,1.3-1.9c1.5-1.9-1.2-3.1-2.8-2.7c-0.9,0.2-1.7,1.7-2.7,0.6
	c-0.5-0.5-0.2-1.2-0.5-1.7c-0.6-1.1-1,0.3-1.1,1.2c-0.1,0.5-0.1,0.8,0.1,1.2c0.1,0.3,0.8,0.7,0.6,1.1c-0.3,0.5-1.3-0.2-1.8,0.1
	c-1.3,0.8-0.4,3.1-0.8,4.2c-0.5,1.5-1.5,0-1.9-0.9c-0.5-1.5-0.6-3.5-0.2-5c0.4-1.5,1.9-2.2,2.6-3.5c0.9-1.6,1.7-3.5,2.1-5.2
	c0.5-1.9-0.8-3.1-1.4-4.9c-0.6-1.8-1.1-5.4-3.5-5.2c-0.7,0.1-0.8,0.2-1.3,0.6c-0.4,0.3-0.5,0.6-1,0.6c-0.7-0.1-1-0.9-1.8-0.9
	c-1.8-0.1-3.2,2-3.9,3.3c-0.4,0.7-0.7,1.5-1.1,2.3c-0.3,0.6-0.9,1.2-1.2,1.8c-1.5,3.1,4.9,0.7,3,3.5c-0.9,1.3-2.2,0.7-3.5,0.8
	c-2.1,0.1-2.8,1.9-3.5,3.6c-0.6,1.4-0.9,3.1-2.7,3.2c-0.5,0-1.2-0.3-1.7,0c-1.1,0.7-0.3,1.8,0.2,2.4c0.6,0.7,0.7,1.4,1.2,2.1
	c0.5,0.7,1.5,0.9,1.9,1.6c0.4,0.8-0.1,1.3-0.4,2c-0.5,1.2-0.3,1.7,0.1,2.9c0.8,2.4-0.8,3.1-3,3.2c-1.4,0.1-3.6-0.1-4.3-1.6
	c-0.4-1,0.4-1.9,0.1-2.8c-0.2-0.5-0.7-0.6-0.9-1.1c-0.2-0.4-0.2-0.9-0.2-1.4c-0.1-0.6,0-2-0.7-2.3c-1.1-0.5-0.8,1.2-1.1,1.7
	c-1.1,2.3-3.4-0.8-4.8-1.2c-0.7-0.2-1.7-0.8-2.3-0.8c-0.7,0-1.3,0.4-2.1,0.2c-1.4-0.2-1.7-0.7-2.5,0.5c-0.3,0.5-0.2,1.4-1,0.7
	c-1.7-1.5,1.9-2.8-1-3.5c-0.5-0.1-1.7-0.1-2-0.6c-0.4-0.6,0.2-1.2-0.3-1.9c-0.4-0.5-1.1-0.3-1.4-1.1c-0.2-0.6,0.1-1.4,0.2-2
	c0.3-1.5,1.3-3,1.5-4.4c0.1-0.6-0.1-1.1-1.1-0.8c-1.1,0.3-1.4,2-1.6,3c-0.6,2.5-1.5,4.9-2.3,7.4c-0.9,2.7-1,5.1-0.7,7.9
	c0.2,2.7-0.3,5.4,0.1,8.1c0.2,1.4,0.2,2.6,0.1,4c-0.1,0.6-0.6,2.6,0.2,2.8c0.5-1.2-0.3-6.3,1-6.5c0.1,0,1.5,0.5,1.5,0.5
	c0.2,0.3,0.4,0.5,0.6,0.8c0.2,0.1,0.5,0.1,0.7,0.1c1.1,0.4,2.3,0.6,2.2,2.2c0,0.6,0.1,0.6-0.5,0.5c-0.5-0.1-0.9-0.7-1.2-0.9
	c-0.8-0.6-1.8-1.3-2.1,0.1c-0.3,1.9,2.3,3.8,3.4,5c0.9,1.1,1.4,1.9,2.7,2.3c0.3,0.1,1.1-0.1,1.3,0.3c0.2,0.4-0.7,1.5-0.9,1.8
	c-0.2,0.3-0.4,0.6-0.5,0.9c-0.3,0.1-0.6,0.2-0.8,0.4c-0.2,0.2-0.2,0.6-0.4,0.9c-0.3,0.4-0.5,1-1,0.2c-0.6-0.8,0.7-2.3-0.2-3.2
	c-0.8-0.9-2.2,0.2-3.1-0.5c0,0-0.5-0.9-0.4-0.9c-0.7-0.3-0.5,0.5-1,0.4c-1.8-0.2-0.1-3-1.3-3.3c-0.2,1.1-0.4,2.3-0.2,3.4
	c0.2,1.3,0.1,2.3,0.1,3.7c-0.1,1.6,0.6,2.9,0.6,4.6c-0.1,2.8-0.1,5.8-0.7,8.5c-0.3,1.6-0.9,2.9-1,4.5c-0.1,1.8-0.1,3.5-0.1,5.3
	c0,0.6,0.4,9.3,2.2,7.8c0.4-0.4,0-1.1-0.1-1.5c-0.4-1.1-0.5-2-0.4-3.2c0.1-1.1,0.4-2.2,0.4-3.4c0-0.5,0-1.1-0.2-1.6
	c-0.2-0.7-0.9-1.3-0.8-2c0.2-2.1,2.9,1,3.7,1.3c1.9,0.8,4.1,2.6,4.9,4.6c0.8,1.9,0.5,3.9,1.6,5.8c1.2,2,2.7,3.5,3.1,5.9
	c0.1,0.6,0.6,2.1,0.4,2.7c-0.1,0.3-0.6,0.7-0.9,1c-1,1.2-2.1,2.4-3.2,3.5c-1.1,1.2-2.3,1.8-3.8,2.6c-0.6,0.4-2,2-2.7,1.8
	c-1-0.3-0.4-2.6-0.2-3.2c0.4-1.4,0.6-1.7,0.1-3.1c-0.4-1.2-0.8-2.4-0.9-3.7c-0.2-1.7-0.1-4.1-1-5.6c-0.3,3.9,0.5,7.4,0.9,11.2
	c0.3,3.2,0.6,6.4,0.8,9.7c0.1,3.6-0.9,6.6-1.6,10.1c-0.4,2.1-0.8,4.3-1.5,6.4c-0.5,1.3-2.3,3.8-1.6,5.2c0.6,1.2,2.6,1.3,3.8,1.6
	c1.6,0.5,2.6,1.5,3.7,2.7c0.4,0.5,4.6,6,4.7,3.3c0-1-1.4-1.7-1.7-2.6c-0.3-0.9-0.1-1.2-1.1-1.5c-0.5-0.2-1.3,0-1.4-0.5
	c-0.1-0.7,0.9-0.6,1.1-1c0.3-0.6-0.3-0.8-0.7-1.2c-1.1-1.1-1.3-2.2,0.1-3.2c0.8-0.6,2.7-1.4,3.6-0.7c0.6,0.5,0.2,0.6-0.2,1.1
	c-0.7,0.8-0.9,0.4-0.7,1.3c0.2,0.9,1.3,2.1,1.8,2.8c0.8,1.2,1.7,2.3,2.5,3.5c0.6,0.8,1.1,1.5,1.6,2.4c0.6,1.1,0.4,1.7,1.7,1.6
	c1.1-0.1,2,0.3,3.1,0.5c1.6,0.2,3.4,0.2,4.7,1.4c1.3,1.3,1.3,3.4,1.5,5.1c0.1,1.9,0.8,3.5,1.1,5.3c0.3,1.9-0.8,3.6-0.6,5.6
	c0.1,1,0.5,2,0.5,3.1c0.1,1.2-0.1,2.4,0,3.5c0.1,1.5,0.6,2.7,1.1,4.1c0.3,0.9,1,2.7,0.5,3.7c-0.7,1.2-2.7,0.6-3.8,0.3
	c-1-0.3-3.1-0.8-3.2-2.1c-0.1-1.4,2-1.6,2-2.8c0-0.8-0.9-1.1-1.6-1.2c-0.4,0-0.8,0.2-1.1,0.2c-0.7,0-0.8-0.2-1.3-0.4
	c-2.5-1-2,2.6-2.1,4c-0.1,1.5-0.8,2.5-0.6,4c0.1,1.3,0.1,2.8,0.5,4.1c0.2,0.5,0.6,1.6,1.3,1.6c1,0.1,1.1-1.4,1.6-1.8
	c0.8-0.8,1.8,0,1.9-1.7c0-1-1.2-3.6-0.5-4.4c0.7-0.8,2.4,0.1,3.1,0.3c1.2,0.4,2.4,0.2,3.5,0.5c-1,4.1-3,8.6-2,12.8
	c0.4,1.8,1.6,3.7,1.7,5.6C61.7,411.8,61.2,412.9,61.3,414.3z"/>
</svg>
