<?xml version="1.0" encoding="utf-8"?>
<!-- Generator: Adobe Illustrator 23.0.3, SVG Export Plug-In . SVG Version: 6.00 Build 0)  -->
<svg version="1.1" id="Layer_1" xmlns="http://www.w3.org/2000/svg" xmlns:xlink="http://www.w3.org/1999/xlink" x="0px" y="0px"
	 viewBox="0 0 24 34" style="enable-background:new 0 0 24 34;" xml:space="preserve">
<style type="text/css">
	.st0{fill:none;stroke:#FFFFFF;stroke-width:2;}
</style>
<g id="Group_70" transform="translate(-33.395 -92.396) rotate(20)">
	<path id="Path_20" class="st0" d="M93.2,97.5c-0.5,1-1.4,1.7-2.4,2.1c-1,0.5-2.2,0.8-3.4,0.9c-0.3,0-0.6,0-0.9-0.1
		c-0.3,0-0.6-0.1-0.8-0.1c-0.3-0.1-0.6-0.1-0.8-0.2c-0.4-0.1-0.6-0.2-0.8-0.3c-0.2-0.1-0.4-0.2-0.8-0.3c-0.4-0.2-0.7-0.2-0.8-0.3
		c-3.1-1.2-5.9-3.1-8.2-5.6c-2.4-2.3-4.3-5.1-5.6-8.2c0-0.1-0.1-0.4-0.3-0.8s-0.3-0.7-0.3-0.8c-0.1-0.2-0.1-0.4-0.3-0.8
		c-0.1-0.3-0.2-0.6-0.2-0.8c0-0.2-0.1-0.5-0.1-0.8c0-0.3-0.1-0.6-0.1-0.9c0-1.2,0.3-2.3,0.9-3.4c0.4-1,1.1-1.9,2.1-2.4
		c0.8-0.4,1.7-0.6,2.6-0.6c0.1,0,0.3,0,0.4,0.1c0.2,0.1,0.3,0.3,0.4,0.5c0.2,0.3,0.4,0.7,0.6,1c0.2,0.4,0.5,0.8,0.7,1.2
		s0.4,0.8,0.6,1.2c0.2,0.4,0.3,0.6,0.4,0.7c0.1,0.1,0.2,0.2,0.3,0.5c0.1,0.2,0.3,0.4,0.4,0.6c0.1,0.2,0.1,0.4,0.1,0.5
		c-0.1,0.4-0.2,0.7-0.5,0.9c-0.4,0.4-0.7,0.7-1.2,1c-0.4,0.3-0.8,0.6-1.2,1c-0.3,0.2-0.5,0.5-0.5,0.9c0,0.1,0,0.3,0.1,0.4
		c0,0.1,0.1,0.3,0.2,0.4c0.1,0.1,0.1,0.2,0.2,0.4c0.1,0.2,0.2,0.3,0.2,0.4c1.7,3.2,4.4,5.9,7.6,7.6c0.1,0,0.2,0.1,0.4,0.2
		c0.2,0.1,0.3,0.2,0.4,0.2c0.1,0.1,0.3,0.1,0.4,0.2c0.1,0.1,0.3,0.1,0.4,0.1c0.3,0,0.7-0.3,1.1-0.8c0.5-0.6,1-1.1,1.5-1.7
		c0.5-0.6,0.9-0.8,1.2-0.8c0.2,0,0.4,0,0.5,0.1c0.2,0.1,0.4,0.2,0.6,0.4c0.2,0.2,0.4,0.3,0.5,0.3l1.4,0.7c0.9,0.5,1.7,0.9,2.3,1.3
		c0.4,0.2,0.7,0.4,1,0.8c0,0.1,0.1,0.3,0.1,0.4C93.8,95.8,93.6,96.7,93.2,97.5z"/>
</g>
</svg>
