<?xml version="1.0" encoding="utf-8"?>
<!-- Generator: Adobe Illustrator 23.0.3, SVG Export Plug-In . SVG Version: 6.00 Build 0)  -->
<svg version="1.1" id="Layer_1" xmlns="http://www.w3.org/2000/svg" xmlns:xlink="http://www.w3.org/1999/xlink" x="0px" y="0px"
	 viewBox="0 0 79.7 50" style="enable-background:new 0 0 79.7 50;" xml:space="preserve">
<style type="text/css">
	.st0{enable-background:new    ;}
	.st1{fill:#B177FF;}
</style>
<g class="st0">
	<path class="st1" d="M2.4,33.5L4,17.9h14.2v3.4h-11l-0.9,8c0.6-0.4,1.3-0.8,2-1.1c0.7-0.3,1.6-0.5,2.5-0.5c2.6,0,4.7,0.8,6.2,2.6
		s2.3,4.1,2.3,7s-0.8,5.1-2.3,6.9c-1.5,1.7-3.8,2.6-6.7,2.6c-2.4,0-4.4-0.7-6-2S2,41.5,2.1,39v-0.1h3.5c0,1.5,0.4,2.7,1.3,3.6
		c0.9,0.8,2,1.3,3.5,1.3c1.6,0,2.9-0.6,3.8-1.7c0.9-1.1,1.3-2.7,1.3-4.7c0-1.8-0.5-3.3-1.4-4.5s-2.2-1.8-3.8-1.8
		c-1.5,0-2.6,0.2-3.3,0.7S5.8,33,5.5,33.9L2.4,33.5z"/>
	<path class="st1" d="M41.9,35.5c0,3.6-0.8,6.4-2.4,8.3c-1.6,1.9-3.8,2.9-6.6,2.9s-5-1-6.6-2.9s-2.4-4.7-2.4-8.3v-6.7
		c0-3.6,0.8-6.4,2.4-8.3s3.8-2.9,6.6-2.9s5,1,6.6,2.9s2.4,4.7,2.4,8.3V35.5z M38,27.9c0-2.5-0.4-4.3-1.3-5.6
		c-0.9-1.2-2.2-1.9-3.9-1.9s-3,0.6-3.9,1.9c-0.9,1.2-1.3,3.1-1.3,5.6v8.3c0,2.5,0.4,4.3,1.3,5.6s2.2,1.9,3.9,1.9
		c1.7,0,3-0.6,3.9-1.9c0.9-1.2,1.3-3.1,1.3-5.6V27.9z"/>
	<path class="st1" d="M46.1,23.4c0-1.7,0.5-3,1.6-4.2c1.1-1.1,2.5-1.7,4.3-1.7s3.2,0.6,4.3,1.7c1.1,1.1,1.6,2.5,1.6,4.2v1.5
		c0,1.7-0.5,3-1.6,4.2c-1.1,1.1-2.5,1.7-4.2,1.7c-1.8,0-3.2-0.6-4.3-1.7s-1.6-2.5-1.6-4.2L46.1,23.4L46.1,23.4z M49,24.9
		c0,1,0.3,1.8,0.8,2.5s1.3,1,2.3,1s1.7-0.3,2.2-1s0.8-1.5,0.8-2.5v-1.5c0-1-0.3-1.8-0.8-2.5s-1.3-1-2.2-1c-1,0-1.7,0.3-2.2,1
		s-0.8,1.5-0.8,2.5L49,24.9L49,24.9z M53,44.2l-2.1-1.3l13.9-22.2l2.1,1.3L53,44.2z M59.9,39.4c0-1.7,0.5-3,1.6-4.2
		c1.1-1.1,2.5-1.7,4.3-1.7s3.2,0.6,4.3,1.7s1.6,2.5,1.6,4.2v1.5c0,1.7-0.5,3.1-1.6,4.2c-1.1,1.1-2.5,1.7-4.2,1.7
		c-1.8,0-3.2-0.6-4.3-1.7S60,42.6,60,40.9v-1.5H59.9z M62.7,40.9c0,1,0.3,1.8,0.8,2.5s1.3,1,2.3,1s1.7-0.3,2.2-1s0.8-1.5,0.8-2.5
		v-1.5c0-1-0.3-1.8-0.8-2.5s-1.3-1-2.2-1c-1,0-1.7,0.3-2.2,1c-0.5,0.7-0.8,1.5-0.8,2.5v1.5H62.7z"/>
</g>
</svg>
