<?xml version="1.0" encoding="utf-8"?>
<!-- Generator: Adobe Illustrator 23.0.3, SVG Export Plug-In . SVG Version: 6.00 Build 0)  -->
<svg version="1.1" id="svg" xmlns="http://www.w3.org/2000/svg" xmlns:xlink="http://www.w3.org/1999/xlink" x="0px" y="0px"
	 viewBox="0 0 400 208.1" style="enable-background:new 0 0 400 208.1;" xml:space="preserve">
<style type="text/css">
	.st0{fill-rule:evenodd;clip-rule:evenodd;fill:#808080;}
	.st1{fill-rule:evenodd;clip-rule:evenodd;fill:#FFFFFF;}
</style>
<g id="svgg">
	<path id="path0" class="st0" d="M1.8,11.8v11.8h47.3h47.3V11.8V0H49.2H1.8V11.8"/>
	<path id="path3" class="st1" d="M47,55.6v2.8h-3.3h-3.3v2.1v2.1h3.3H47V64v1.5L45.9,66c-7.6,3.7-3.9,15.5,4.4,14
		c7.2-1.2,8.6-11.2,2-14.1l-0.9-0.4V64v-1.5h3.2h3.2v-2.1v-2.1h-3.2h-3.2v-2.8v-2.8h-2.2H47V55.6 M28.1,78.8
		c-4.4,0.9-8.5,3.8-10.3,7.2c-0.3,0.6-0.4,0.7-0.6,0.6c-0.6-0.3-3.6-0.6-5.2-0.5C4.2,86.6,0.3,92.6,2.4,101
		c0.9,3.6,3.4,8.5,7.6,14.6c0.8,1.2,2.2,4.9,2.9,8L13,124h17h17v-19.9V84.2l-1.5-1C39.5,79.3,33.3,77.7,28.1,78.8 M63.4,78.7
		c-3,0.5-7.8,2.6-11,4.8l-1.2,0.8l0,19.9l0,19.9h17h17l0.7-2.1c0.4-1.2,0.9-2.8,1.1-3.6c0.4-1.2,0.7-1.9,2.2-4
		c2.6-3.9,4.9-8.1,6-10.8c4.3-11.5-1.9-19.3-13.7-17c-0.6,0.1-0.6,0.1-1.1-0.8C77.3,80.4,70.2,77.5,63.4,78.7 M34.5,85.7
		c1.9,0.3,3,0.7,3.9,1.2l0.7,0.5v14.7v14.7H35h-4.1l-0.4-0.7c-0.2-0.4-0.6-1.3-0.9-2c-0.3-0.7-0.6-1.5-0.7-1.8
		c-0.8-2-2.6-7.8-3.1-10.7c-2-10-0.4-14.9,5.3-15.9C32.8,85.5,32.8,85.5,34.5,85.7 M67.8,85.9c5.5,1.2,6.8,6.6,4.3,17.6
		c-0.6,2.8-2.4,8.3-3.4,10.6c-0.1,0.3-0.4,1-0.7,1.6l-0.5,1.1h-4.2H59v-14.7V87.5l0.7-0.4C61.8,85.7,65,85.3,67.8,85.9 M15.5,92.2
		l0.6,0.2l0.2,2c0.4,4.2,2.1,10,4.3,15c0.2,0.6,0.6,1.3,0.8,1.8c0.2,0.4,0.9,1.9,1.6,3.2l1.2,2.5l-3.2,0l-3.2,0l-1-1.9
		c-5.8-10.5-7.9-19.3-5.2-21.9C12.4,92.2,14.2,91.8,15.5,92.2 M85.9,92.5c3,1.4,2.6,7.7-1,15.6c-0.2,0.5-0.4,0.9-0.4,1
		c0,0.2-2.7,5.5-3.3,6.6l-0.7,1.2h-3.2c-1.7,0-3.1-0.1-3.1-0.1c0.1-0.1,2.6-5.3,2.8-5.7c0.1-0.1,0.4-0.9,0.7-1.7
		c2.5-5.9,4-11.3,4.2-15.1l0.1-1.8l0.5-0.2C83.3,91.9,85,92,85.9,92.5 M211.9,109.2c-2.9,0.5-4,3.8-1.9,5.9c2,2.1,5.6,1.1,6.2-1.6
		C216.7,110.8,214.6,108.7,211.9,109.2 M281.3,109.2c-4.2,0.7-3.7,7,0.6,7c2.2,0,3.7-1.4,3.7-3.5
		C285.5,110.3,283.7,108.8,281.3,109.2 M125.5,112c-0.4,1-1,2.4-1.3,3.2s-1,2.5-1.5,3.8c-0.5,1.3-1.5,3.8-2.2,5.6
		c-1.9,4.8-3.9,9.9-4.4,11.3c-0.3,0.7-0.5,1.3-0.5,1.4c0,0.1,1.4,0.1,3.6,0.1l3.6,0l1-3l1-3h4.9h4.9l0.1,0.4c0.1,0.2,0.5,1.6,1,3.1
		l0.9,2.7h3.8h3.8l-0.1-0.4c-0.2-0.5-2.1-5.5-3-7.6c-0.4-1-0.8-2-0.9-2.4c-0.1-0.4-0.3-0.7-0.3-0.8c-0.1-0.1-0.2-0.4-0.3-0.6
		s-1.1-2.9-2.3-6s-2.5-6.4-2.9-7.5l-0.7-1.9H130h-3.8L125.5,112 M163.8,123.8v13.6h3.1h3.1v-0.9v-0.9l0.3,0.4c1.3,1.6,4.5,2.4,7,1.8
		c8.3-2.2,8.7-16.5,0.4-19c-2.3-0.7-5.5-0.2-6.9,1.2l-0.6,0.5v-5.1v-5.1h-3.3h-3.3V123.8 M233,115.2l0,5l-0.7-0.6
		c-2.7-2.1-7.4-1.5-9.9,1.3c-3.6,4-3.5,11.2,0.2,14.8c2.9,2.8,7.6,3,10.3,0.5l0.6-0.6v0.9v0.9h3.2h3.2v-13.6v-13.6h-3.3H233
		L233,115.2 M289.8,110.3c-0.1,0.1-0.1,6.2-0.1,13.6v13.5h3.3h3.3v-13.6v-13.6h-3.2C291.3,110.2,289.8,110.2,289.8,110.3
		 M264.7,116.5v2.3h-1.6h-1.6v2.7v2.7h1.6h1.6v6.6v6.6h3.3h3.3v-6.6v-6.6h1.9h1.9v-2.7v-2.7h-1.9h-1.9v-2.3v-2.3h-3.3h-3.3V116.5
		 M387.6,116.5l0,2.3h-1.6h-1.6v2.7v2.7h1.6h1.6l0,6.6l0,6.6h3.3h3.3v-6.6v-6.6h1.9h1.9v-2.7v-2.7h-1.9h-1.9v-2.3v-2.3l-3.3,0h-3.3
		L387.6,116.5 M131.2,120.9c0.7,2.2,1.4,4.1,1.4,4.3c0.1,0.3-0.1,0.3-2.8,0.3c-1.6,0-2.9-0.1-2.9-0.1c0-0.1,1.4-4.4,2.4-7.1
		c0.3-0.8,0.5-1.4,0.6-1.4C129.8,116.9,130.4,118.7,131.2,120.9 M193.2,118.7c-4.3,1.4-6.5,4.6-6.5,9.4c0,5.1,2.7,8.4,7.6,9.4
		c3.2,0.7,9.6,0,10.7-1.1c0.1-0.1-0.3-4.7-0.5-4.8c0,0-0.7,0.1-1.4,0.4c-4.5,1.4-9,0.6-9.9-1.7l-0.2-0.5h6c5.3,0,6,0,6.1-0.3
		c0.2-0.5,0.1-3.8-0.1-4.8C204.1,119.9,198.4,117,193.2,118.7 M248.4,118.6c-3.6,1.1-5.2,3.4-4.6,6.8c0.4,2.5,1.9,3.8,6,5
		c2.6,0.8,3,1.1,2.8,1.9c-0.3,1.1-4.7,0.8-7.3-0.5c-1.3-0.7-1.3-0.7-1.3-0.2c0,0.2-0.1,1.2-0.3,2.3c-0.2,1-0.3,1.9-0.3,2
		c0,0.4,2.7,1.4,4.4,1.6c7.1,1.1,11.7-1.4,11.4-6.2c-0.2-3-1.9-4.6-6-5.7c-2.5-0.7-3.3-1.2-2.9-2c0.4-1,4.5-0.7,6.8,0.5
		c0.3,0.1,0.5,0.2,0.6,0.2c0.1-0.1,0.7-4,0.7-4.6c0-0.2-1.5-0.8-2.4-1c-0.4-0.1-1-0.2-1.2-0.3C253.8,118.3,249.4,118.3,248.4,118.6
		 M304.9,118.7c-3.1,1-4.4,2.7-4.4,5.6c0,3,1.7,4.9,5.3,5.9c3,0.9,3.6,1.1,3.6,1.8c0,1.3-4.3,1.2-7.2-0.2c-1.5-0.7-1.4-0.8-1.7,1.7
		c-0.1,1.1-0.3,2.1-0.4,2.3c-0.3,0.8,4,2,7.3,2c5.6,0,8.6-2,8.5-6c-0.1-3.1-1.9-4.9-6.4-6.2c-2.5-0.7-3.2-1.3-2.3-2.1
		c0.7-0.7,4.2-0.3,6.5,0.7c0.4,0.2,0.7,0.3,0.8,0.3c0,0,0.4-3,0.5-4.1c0.1-0.6,0-0.7-0.5-1C312.2,118.4,307.2,118,304.9,118.7
		 M350.6,118.7c-1,0.4-1.4,0.7-2.2,1.5l-0.5,0.5v-1v-1h-3.3h-3.3v9.2v9.3h3.2h3.2l0.1-5.5c0.1-7,0.3-7.5,2.6-7.5
		c2.3,0,2.4,0.4,2.5,7.5l0.1,5.5h3.2h3.2V131c0-8.2-0.3-9.5-2.2-11.3C355.9,118.3,352.8,117.9,350.6,118.7 M369.7,118.8
		c-4.7,1.5-7.3,6.6-6.1,11.9c0.7,3.5,3.8,6.2,7.8,7c3.5,0.6,10.7-0.4,10.4-1.5c0-0.2-0.1-0.8-0.2-1.4c-0.1-0.6-0.1-1.3-0.2-1.4
		c0-0.1-0.1-0.6-0.2-1s-0.1-0.7-0.2-0.7c0,0-0.6,0.2-1.3,0.4c-4.4,1.5-9.1,0.6-9.8-1.9l-0.1-0.4h6h6l0.1-0.5
		C383.3,122.1,376.8,116.5,369.7,118.8 M156.7,118.8c-1,0.3-1.7,0.9-2.2,1.7c-0.2,0.3-0.4,0.5-0.4,0.4c0-0.1-0.1-0.6-0.1-1.1l-0.1-1
		h-3.2h-3.2v9.2v9.3h3.3h3.3l0-4.1c0-7.6,1-9.3,5.1-8.4c1.1,0.3,1,0.4,1.2-2c0.1-1.1,0.2-2.5,0.3-3l0.1-0.9l-0.7-0.2
		C158.9,118.4,157.7,118.5,156.7,118.8 M209.3,131.6v12.8h3.3h3.3v-12.8v-12.7h-3.3h-3.3V131.6 M278.7,128.1v9.3h3.3h3.3v-9.3v-9.2
		h-3.3h-3.3V128.1 M317.8,120c0.3,0.6,0.8,1.8,1.1,2.5c1.1,2.4,1.8,4,2.2,5c0.2,0.5,0.4,0.9,0.4,1c0,0,0.2,0.5,0.4,1
		c0.2,0.5,0.6,1.4,0.9,2.1c0.3,0.7,0.7,1.6,0.9,2.1c1.3,2.8,1.2,2.7,1,3.1c-0.5,0.9-3.6,7.3-3.6,7.5c0,0.1,1.1,0.2,3.3,0.2h3.3
		l0.6-1.4c0.3-0.8,0.8-1.8,1-2.4c0.2-0.5,1.2-2.8,2.2-5.1c1.9-4.4,2.8-6.4,3.4-7.8c0.2-0.5,0.4-0.9,0.4-1s0.2-0.5,0.4-1
		c1.3-2.9,2.9-6.7,2.9-6.8c0,0-1.6-0.1-3.5,0l-3.5,0l-1.7,5c-0.9,2.8-1.7,5-1.8,4.9c-0.1-0.1-0.9-2.3-1.9-5l-1.8-4.9l-3.6,0l-3.6,0
		L317.8,120 M197.8,123.3c0.6,0.4,1.3,1.3,1.4,2l0.1,0.5h-3.2H193l0.1-0.5c0.3-1,0.9-1.8,1.8-2.2C195.6,122.9,197.2,123,197.8,123.3
		 M374.5,123.4c0.4,0.2,0.8,0.7,1,1.1c0.7,1.3,0.8,1.3-2.7,1.3c-2,0-3.1-0.1-3.1-0.2C369.7,123.6,372.6,122.2,374.5,123.4
		 M174.7,124.3c3.1,0.9,3.5,6,0.5,7.3c-1.9,0.9-4.1,0.1-4.8-1.7C169,126.6,171.5,123.4,174.7,124.3 M230.9,124.4
		c3,0.8,3.3,6.2,0.4,7.4c-2.6,1.1-5.1-0.7-5.1-3.6C226.2,125.3,228.3,123.6,230.9,124.4 M13.5,132.6v4.8h35.6h35.6v-4.8v-4.7H49.1
		H13.5V132.6 M1.8,196.2V208h47.3h47.3v-11.8v-11.8H49.2H1.8V196.2 M0,0 M0,0"/>
	<path id="path4" class="st1" d="M73.2,94.4c0,0.6,0,0.9,0.1,0.5c0-0.3,0-0.9,0-1.2C73.3,93.5,73.2,93.8,73.2,94.4 M25,96.2
		c0,0.3,0,0.5,0.1,0.3c0-0.2,0-0.4,0-0.6S25,95.8,25,96.2 M278.2,112.6c0,0.4,0,0.5,0.1,0.3c0-0.2,0-0.5,0-0.7
		C278.2,112,278.2,112.2,278.2,112.6 M264.6,116.5c0,1.3,0,1.9,0.1,1.2c0-0.7,0-1.8,0-2.4C264.6,114.6,264.6,115.2,264.6,116.5
		 M387.6,116.6c0,1.3,0,1.8,0.1,1.1c0-0.7,0-1.7,0-2.3C387.6,114.8,387.6,115.3,387.6,116.6 M264.6,130.8c0,3.7,0,5.1,0,3.3
		c0-1.9,0-4.9,0-6.7S264.6,127.1,264.6,130.8 M387.6,130.7c0,3.6,0,5.1,0,3.3c0-1.8,0-4.8,0-6.6S387.6,127,387.6,130.7 M197,138
		c0.5,0,1.4,0,1.8,0c0.5,0,0-0.1-1-0.1C196.9,137.9,196.5,137.9,197,138 M249.4,137.9c0.2,0,0.4,0,0.6,0c0.2,0,0-0.1-0.3-0.1
		C249.3,137.9,249.2,137.9,249.4,137.9 M250.5,137.9c0.2,0,0.4,0,0.6,0c0.2,0,0-0.1-0.3-0.1C250.5,137.9,250.4,137.9,250.5,137.9
		 M251.7,137.9c0.2,0,0.4,0,0.6,0c0.2,0,0-0.1-0.3-0.1S251.5,137.9,251.7,137.9 M307.4,138c0.3,0,0.7,0,0.9,0c0.3,0,0-0.1-0.5-0.1
		S307.1,137.9,307.4,138 M374.1,138c0.2,0,0.5,0,0.7,0c0.2,0,0-0.1-0.4-0.1C374,137.9,373.9,137.9,374.1,138 M375.5,138
		c0.2,0,0.5,0,0.7,0c0.2,0,0-0.1-0.4-0.1C375.4,137.9,375.3,137.9,375.5,138"/>
</g>
</svg>
