<?xml version="1.0" encoding="utf-8"?>
<!-- Generator: Adobe Illustrator 23.0.3, SVG Export Plug-In . SVG Version: 6.00 Build 0)  -->
<svg version="1.1" id="Layer_1" xmlns="http://www.w3.org/2000/svg" xmlns:xlink="http://www.w3.org/1999/xlink" x="0px" y="0px"
	 viewBox="0 0 150 101" style="enable-background:new 0 0 150 101;" xml:space="preserve">
<style type="text/css">
	.st0{fill:#FFFFFF;}
	.st1{fill:#666666;}
	.st2{fill:#2C2C2C;}
	.st3{fill:#303030;}
	.st4{fill:#333333;}
	.st5{fill:#363636;}
	.st6{fill:#3A3A3A;}
	.st7{fill:#3D3D3D;}
	.st8{fill:#414141;}
	.st9{fill:#454545;}
	.st10{fill:#484848;}
	.st11{fill:#4C4C4C;}
	.st12{fill:#505050;}
	.st13{fill:#545454;}
	.st14{fill:#585858;}
	.st15{fill:#5A5A5A;}
	.st16{fill:#5C5C5C;}
	.st17{fill:#5F5F5F;}
	.st18{fill:#626262;}
	.st19{fill:#646464;}
	.st20{fill:url(#SVGID_1_);}
</style>
<g>
	<g>
		<g>
			<path class="st0" d="M74.9,25.6v4.8C41.8,30.4,15,43.8,15,60.2C15,77,41.8,90.5,74.9,90.5c33.2,0,60.1-13.8,60.1-31
				C135,40.8,108.1,25.6,74.9,25.6z M121.7,36.1c2.2,0,3.9-1.8,3.9-3.9s-1.8-3.9-3.9-3.9s-3.9,1.8-3.9,3.9
				C117.8,34.3,119.6,36.1,121.7,36.1z"/>
		</g>
	</g>
	<path class="st1" d="M92,29c-0.2,0.6-0.6,1.2-1,1.8c8.4,1.8,17.4,5,23.8,9.7c0.2,0.2,0,0.6-0.2,0.4c-10.9-5.6-25-8.5-39.7-8.5
		c-31,0-56,12.4-56,27.8c0,15.7,25.1,28.3,56,28.3c31,0,56.2-13,56.2-29C131.1,45.2,114.7,33.1,92,29z M121.7,35.4
		c1.8,0,3.2-1.4,3.2-3.2c0-1.8-1.4-3.2-3.2-3.2s-3.2,1.4-3.2,3.2C118.5,33.9,120,35.4,121.7,35.4z M121.7,29.6
		c1.4,0,2.5,1.1,2.5,2.6c0,1.4-1.1,2.6-2.5,2.6c-1.4,0-2.5-1.1-2.5-2.6C119.2,30.8,120.4,29.6,121.7,29.6z M120.5,33.8
		c0.1,0,0.2,0,0.3,0c0.2,0,0.2,0,0.3,0c0.1,0,0.1-0.1,0.1-0.2v-1.1h0.2c0.2,0,0.3,0,0.4,0.1c0.1,0.1,0.2,0.2,0.2,0.4l0.2,0.6
		c0,0.1,0,0.1,0.1,0.1l0.1,0.1c0,0,0.1,0,0.2,0c0.1,0,0.2,0,0.2,0c0.1,0,0.2,0,0.2,0c0.1,0,0.1,0,0.2,0h0.1v-0.1c0,0,0-0.1-0.1-0.2
		l-0.2-0.6c-0.1-0.2-0.2-0.4-0.3-0.5c-0.1-0.1-0.2-0.2-0.4-0.2c0.2-0.1,0.4-0.2,0.6-0.3s0.2-0.3,0.2-0.6c0-0.2,0-0.3-0.1-0.4
		c-0.1-0.2-0.2-0.2-0.2-0.3c-0.1-0.1-0.2-0.2-0.4-0.2s-0.3-0.1-0.6-0.1h-1c-0.2,0-0.2,0-0.2,0.1c-0.1,0.1-0.1,0.2-0.1,0.3v3
		C120.4,33.7,120.4,33.8,120.5,33.8z M121.2,31h0.4c0.1,0,0.2,0,0.3,0c0.1,0,0.2,0.1,0.2,0.1c0.1,0,0.1,0.1,0.1,0.2
		c0,0.1,0,0.1,0,0.2c0,0.2-0.1,0.2-0.2,0.3c-0.1,0.1-0.2,0.2-0.5,0.2h-0.3V31L121.2,31z"/>
	<path class="st2" d="M105.1,80.5c0.3-0.1,0.5,0.2,0.2,0.4c-7.9,3.2-19,5-30.3,5C47.4,85.9,25,74.4,25,60.2s22.3-25.8,49.9-25.8
		c31,0,50,13.4,49.9,25.1c-0.1,10.3-13.8,20.2-41.6,20.2c-11.6,0-26.2-2.2-38-6.9c-0.6-0.2-0.8,0.6-0.3,0.8
		C57.9,80.4,81.2,85.2,105.1,80.5z"/>
	<g>
		<ellipse class="st2" cx="74.9" cy="56.3" rx="45.2" ry="21.1"/>
		<path class="st3" d="M74.9,74.6c-25,0-44.2-8.6-44-19.6c0.2-10.6,19.6-19.7,44-19.7s43.8,9.2,44,19.7
			C119.2,66.1,100,74.6,74.9,74.6z"/>
		<path class="st4" d="M74.9,71.9c-25.1,0-43.4-7.8-42.9-18c0.5-9.4,19-18.2,42.9-18.2s42.4,8.9,42.9,18.2
			C118.3,64.2,100,71.9,74.9,71.9z"/>
		<path class="st5" d="M74.9,69.1c-25.2,0-42.5-6.9-41.8-16.5c0.6-8.2,18.3-16.8,41.8-16.8c23.4,0,41.1,8.6,41.8,16.8
			C117.4,62.2,100.1,69.1,74.9,69.1z"/>
		<path class="st6" d="M74.9,66.4c-25.3,0-41.7-6-40.6-14.9c0.8-7,17.7-15.3,40.6-15.3s39.8,8.2,40.6,15.3
			C116.6,60.4,100.2,66.4,74.9,66.4z"/>
		<path class="st7" d="M74.9,63.6c-25.4,0-40.8-5.1-39.4-13.4c1-5.9,17-13.8,39.4-13.8s38.5,7.9,39.4,13.8
			C115.7,58.5,100.3,63.6,74.9,63.6z"/>
		<path class="st8" d="M74.9,60.9c25.4,0,40.1-4.2,38.3-11.8c-1.1-4.7-16.4-12.4-38.3-12.4s-37.2,7.6-38.3,12.4
			C34.8,56.6,49.5,60.9,74.9,60.9z"/>
		<path class="st8" d="M74.9,60.9c25.4,0,40.1-4.2,38.3-11.8c-1.1-4.7-16.4-12.4-38.3-12.4s-37.2,7.6-38.3,12.4
			C34.8,56.6,49.5,60.9,74.9,60.9z"/>
		<path class="st9" d="M74.9,59.4c24.9,0,38.2-3.8,36.7-10.8c-1-4.6-15.8-11.5-36.7-11.5s-35.8,7-36.7,11.5
			C36.8,55.6,50,59.4,74.9,59.4z"/>
		<path class="st10" d="M74.9,57.9c24.4,0,36.3-3.3,35.1-9.8c-0.7-4.3-15.3-10.6-35.1-10.6s-34.4,6.3-35.1,10.6
			C38.6,54.7,50.5,57.9,74.9,57.9z"/>
		<path class="st11" d="M74.9,56.5c23.8,0,34.4-2.7,33.5-8.9c-0.6-4.1-14.7-9.8-33.5-9.8s-33,5.7-33.5,9.8
			C40.5,53.8,51.1,56.5,74.9,56.5z"/>
		<path class="st12" d="M74.9,55c23.3,0,32.5-2.2,31.9-7.9c-0.4-3.8-14.2-8.9-31.9-8.9c-17.8,0-31.6,5-31.9,8.9
			C42.4,52.8,51.6,55,74.9,55z"/>
		<path class="st13" d="M74.9,53.6c22.7,0,30.6-1.7,30.3-7c-0.2-3.6-13.6-8-30.3-8s-30.2,4.4-30.3,8C44.3,51.8,52.2,53.6,74.9,53.6z
			"/>
		<path class="st14" d="M74.9,52.1c22.2,0,28.7-1.2,28.7-6.1c0-3.4-13-7.2-28.7-7.2c-15.8,0-28.7,3.8-28.7,7.2
			C46.1,50.9,52.7,52.1,74.9,52.1z"/>
		<path class="st14" d="M74.9,52.1c22.2,0,28.7-1.2,28.7-6.1c0-3.4-13-7.2-28.7-7.2c-15.8,0-28.7,3.8-28.7,7.2
			C46.1,50.9,52.7,52.1,74.9,52.1z"/>
		<path class="st15" d="M74.9,50.7c-19.9,0-26.6-1-26.6-5c0-2.9,12-6.1,26.6-6.1s26.6,3.2,26.6,6.1C101.5,49.8,94.8,50.7,74.9,50.7z
			"/>
		<path class="st16" d="M74.9,49.3c-17.7,0-24.4-0.6-24.4-3.9c0-2.4,11-5,24.4-5c13.4,0,24.4,2.6,24.4,5
			C99.2,48.6,92.6,49.3,74.9,49.3z"/>
		<path class="st17" d="M75,47.8c-15.4,0-22.2-0.4-22.2-2.9c0-1.8,10-4,22.2-4s22.2,2.2,22.2,4C97.1,47.4,90.4,47.8,75,47.8z"/>
		<path class="st18" d="M75,46.4c-13.1,0-20.1-0.1-20.1-1.8c0-1.4,9-3,20-3c11,0,20,1.6,20,3C94.9,46.3,88.1,46.4,75,46.4z"/>
		<path class="st19" d="M75,45c-10.9,0-17.8,0.2-17.8-0.8c0-0.9,8-1.9,17.8-1.9s17.8,1,17.8,1.9C92.7,45.2,85.9,45,75,45z"/>
		<path class="st1" d="M90.5,43.8c0,0.2-6.9-0.2-15.5-0.2s-15.7,0.5-15.7,0.2c0-0.3,7-0.9,15.6-0.9C83.6,43,90.5,43.5,90.5,43.8z"/>
	</g>
	<path class="st0" d="M62,70.2c-2.1-3.7-4.2-13.3-6.4-25.6c-0.2-0.9-0.3-1.2-1.1-1.2c-1,0-3.8,0.3-4.9,0.7c-0.8,2-1.9,3.9-5.6,9.5
		c-9.4,14.2-9.8,18-1.6,16.7c-0.2-1.3-0.1-3.2,1.4-6.1c0,0,2-1.1,9.6-1.2C54.9,70.8,56,70.9,62,70.2z M45.9,59.6
		c1.8-3.4,4.3-7.1,5.6-9.9c0.2,2.5,1.3,9.4,1.3,9.4C49.8,59,47.4,59.3,45.9,59.6z M78.3,50.7c-2.4,0-5.4,2.3-7.3,6.2
		c0.2-1.8,0.4-3.8,0.2-5c-0.1-0.4-0.3-0.7-1.4-0.6c-1.3,0.1-3,0.6-4,1.1c0,0,0.9,2.3-1,14c-0.6,3.5,1.8,4.6,5.9,3.9
		C69,68,71.9,53.9,78.5,56.8C81.2,52.7,80.4,50.7,78.3,50.7z M87.9,58.3c1.8-9.3,2.2-14.3,2.2-15.9c0-0.5-0.2-1.1-1.7-1.1
		c-1.9,0-3.2,0.5-4.3,1c0.2,0.6,0.6,4.5-2.8,20.6c-1.4,6.9-0.2,8.4,5.6,7.4C86.5,68.6,86.5,65.4,87.9,58.3z M111.2,54.4
		c0.3-1.8-0.2-2.5-1.7-2.9C99.2,48.6,91.6,55.1,91.6,64c0,3.4,1.7,6.6,5.4,6.6c3,0,5.6-2,7.4-4.3c0,0-0.1,1.5,0.1,2.5
		c0.3,1.6,1.9,2.4,5.6,1.2C109.4,67.7,109.7,62.2,111.2,54.4z M105.9,54.9c-0.6,5.7-2.8,11.3-6.3,11.3c-1.4,0-2.5-1.1-2.5-3
		C97.1,58.3,100.9,53.3,105.9,54.9z"/>
	<path class="st0" d="M53.7,26.3c-2.9,2-2.7,7.7,0.6,11.7c3.3,4,8.5,4.6,11.8,2.9c-0.6,3.8,1.4,7.7,9,5.2c7.8-2.5,8.2-7.7,6.6-11.5
		c4.3,0.3,9-1.5,10.4-6c1-3.3,0.4-7.4-3-9.4c0.2-4.7-5.7-8.8-11.4-8.7c-3,0.1-4.8,1.9-5,4.4c-3.8-4.2-9-4.3-14,0
		c-4.8,4.2-5.7,9.9-3.2,12.3C55.2,27,54,26.5,53.7,26.3z"/>
	
		<radialGradient id="SVGID_1_" cx="1128.7352" cy="-1392.358" r="65.7677" gradientTransform="matrix(0.4319 -5.450000e-02 -5.450000e-02 -0.4319 -498.8589 -504.867)" gradientUnits="userSpaceOnUse">
		<stop  offset="0" style="stop-color:#D7D7D7"/>
		<stop  offset="9.760001e-02" style="stop-color:#D4D4D4"/>
		<stop  offset="0.2157" style="stop-color:#CCCCCC"/>
		<stop  offset="0.3" style="stop-color:#C4C4C4"/>
		<stop  offset="1" style="stop-color:#ACACAC"/>
	</radialGradient>
	<path class="st20" d="M74.5,31.4c3.8-0.7,11.5,9.5,0.2,13.2C61.2,48.9,71.2,32,74.5,31.4z M89.1,21.2c-0.8,1-2.5,2.5-3.7,2.8
		c5.9-7-2.5-11.9-7.7-11.8c-1.5,0.1-2.8,0.6-3.1,2.2c-0.8,3.8,2.6,8.3,1.4,14.1c-0.8,3.9,12.2,7.8,14.6-1C91.2,26,91,22.7,89.1,21.2
		z M57.2,38.4c8.1,5.8,14.1-5,13.1-6.2c-2.2-2.6-0.6-6.6,3.8-6c2.3,0.3-0.7-12.9-7.9-12.9c-6.7,0-16.6,12.2-4.6,16.1
		c-2.4,0.1-5.6-0.2-7.4-1C52.5,30.1,53.5,35.7,57.2,38.4z"/>
</g>
</svg>
