<?xml version="1.0" encoding="utf-8"?>
<!-- Generator: Adobe Illustrator 23.0.3, SVG Export Plug-In . SVG Version: 6.00 Build 0)  -->
<svg version="1.1" xmlns="http://www.w3.org/2000/svg" xmlns:xlink="http://www.w3.org/1999/xlink" x="0px" y="0px"
	 viewBox="0 0 457.1 184.6" style="enable-background:new 0 0 457.1 184.6;" xml:space="preserve">
<style type="text/css">
	.st0{fill:#FFFFFF;}
</style>
<g id="Layer_1">
	<path class="st0" d="M336.9,55.6c-19.1,0-34.6,8-40.2,22.2c-5.6-14.3-21.1-22.2-40.2-22.2c-17,0-31.1,6.3-38,17.7
		c-6.9-11.4-21-17.7-38-17.7c-24.1,0-42.5,12.7-42.5,34.8c0,5.6,1.2,10.5,3.3,14.8c-0.3,0.1-0.6,0.2-0.8,0.4
		c-1.1,0.4-2.3,0.8-3.6,1.2c-3.3,0.9-7.1,1.4-10.9,1.4c-10.9,0-20.8-6.9-20.8-17.5c0-11.5,8.4-18.4,19.4-18.4
		c4.2,0,7.4,0.2,10.7,1.4c0,0,3.8-8.2,10.1-13c-1.2-0.6-2.5-1.1-3.9-1.7l0,0c-5.7-2.5-12.4-3.6-19.9-3.6
		c-24.1,0-42.5,12.7-42.5,34.8c0,21.9,18.4,34.7,42.5,34.7c6.4,0,13.5-0.9,19.6-2.6c2.3-0.5,7.6-2.4,11.6-4.6
		c7.3,4.7,17,7.3,27.7,7.3c17,0,31.1-6.3,38-17.7c6.9,11.4,21,17.7,38,17.7c16.9,0,31-6.3,37.9-17.6v35.3h26v-20
		c5,1.5,10.6,2.3,16.5,2.3c24.1,0,42.5-12.7,42.5-34.7C379.4,68.4,361,55.6,336.9,55.6z M180.6,109.1c-11.6,0-16.4-8.8-16.4-18.6
		c0-9.9,4.8-18.7,16.4-18.7c11.6,0,16.4,8.8,16.4,18.7C197,100.3,192.2,109.1,180.6,109.1z M256.5,109.1c-11.6,0-16.4-8.8-16.4-18.6
		c0-9.9,4.8-18.7,16.4-18.7c11.6,0,16.4,8.8,16.4,18.7C272.9,100.3,268.1,109.1,256.5,109.1z M336.9,109.1
		c-11.6,0-16.4-8.8-16.4-18.6c0-9.9,4.8-18.7,16.4-18.7c11.6,0,16.4,8.8,16.4,18.7C353.3,100.3,348.5,109.1,336.9,109.1z"/>
	<path class="st0" d="M336.9,55.6c-19.1,0-34.6,8-40.2,22.2c-5.6-14.3-21.1-22.2-40.2-22.2c-17,0-31.1,6.3-38,17.7
		c-6.9-11.4-21-17.7-38-17.7c-24.1,0-42.5,12.7-42.5,34.8c0,5.6,1.2,10.5,3.3,14.8c-0.3,0.1-0.6,0.2-0.8,0.4
		c-1.1,0.4-2.3,0.8-3.6,1.2c-3.3,0.9-7.1,1.4-10.9,1.4c-10.9,0-20.8-6.9-20.8-17.5c0-11.5,8.4-18.4,19.4-18.4
		c4.2,0,7.4,0.2,10.7,1.4c0,0,3.8-8.2,10.1-13c-1.2-0.6-2.5-1.1-3.9-1.7l0,0c-5.7-2.5-12.4-3.6-19.9-3.6
		c-24.1,0-42.5,12.7-42.5,34.8c0,21.9,18.4,34.7,42.5,34.7c6.4,0,13.5-0.9,19.6-2.6c2.3-0.5,7.6-2.4,11.6-4.6
		c7.3,4.7,17,7.3,27.7,7.3c17,0,31.1-6.3,38-17.7c6.9,11.4,21,17.7,38,17.7c16.9,0,31-6.3,37.9-17.6v35.3h26v-20
		c5,1.5,10.6,2.3,16.5,2.3c24.1,0,42.5-12.7,42.5-34.7C379.4,68.4,361,55.6,336.9,55.6z M180.6,109.1c-11.6,0-16.4-8.8-16.4-18.6
		c0-9.9,4.8-18.7,16.4-18.7c11.6,0,16.4,8.8,16.4,18.7C197,100.3,192.2,109.1,180.6,109.1z M256.5,109.1c-11.6,0-16.4-8.8-16.4-18.6
		c0-9.9,4.8-18.7,16.4-18.7c11.6,0,16.4,8.8,16.4,18.7C272.9,100.3,268.1,109.1,256.5,109.1z M336.9,109.1
		c-11.6,0-16.4-8.8-16.4-18.6c0-9.9,4.8-18.7,16.4-18.7c11.6,0,16.4,8.8,16.4,18.7C353.3,100.3,348.5,109.1,336.9,109.1z"/>
	<path class="st0" d="M336.9,55.6c-19.1,0-34.6,8-40.2,22.2c-5.6-14.3-21.1-22.2-40.2-22.2c-17,0-31.1,6.3-38,17.7
		c-6.9-11.4-21-17.7-38-17.7c-24.1,0-42.5,12.7-42.5,34.8c0,5.6,1.2,10.5,3.3,14.8c-0.3,0.1-0.6,0.2-0.8,0.4
		c-1.1,0.4-2.3,0.8-3.6,1.2c-3.3,0.9-7.1,1.4-10.9,1.4c-10.9,0-20.8-6.9-20.8-17.5c0-11.5,8.4-18.4,19.4-18.4
		c4.2,0,7.4,0.2,10.7,1.4c0,0,3.8-8.2,10.1-13c-1.2-0.6-2.5-1.1-3.9-1.7l0,0c-5.7-2.5-12.4-3.6-19.9-3.6
		c-24.1,0-42.5,12.7-42.5,34.8c0,21.9,18.4,34.7,42.5,34.7c6.4,0,13.5-0.9,19.6-2.6c2.3-0.5,7.6-2.4,11.6-4.6
		c7.3,4.7,17,7.3,27.7,7.3c17,0,31.1-6.3,38-17.7c6.9,11.4,21,17.7,38,17.7c16.9,0,31-6.3,37.9-17.6v35.3h26v-20
		c5,1.5,10.6,2.3,16.5,2.3c24.1,0,42.5-12.7,42.5-34.7C379.4,68.4,361,55.6,336.9,55.6z M180.6,109.1c-11.6,0-16.4-8.8-16.4-18.6
		c0-9.9,4.8-18.7,16.4-18.7c11.6,0,16.4,8.8,16.4,18.7C197,100.3,192.2,109.1,180.6,109.1z M256.5,109.1c-11.6,0-16.4-8.8-16.4-18.6
		c0-9.9,4.8-18.7,16.4-18.7c11.6,0,16.4,8.8,16.4,18.7C272.9,100.3,268.1,109.1,256.5,109.1z M336.9,109.1
		c-11.6,0-16.4-8.8-16.4-18.6c0-9.9,4.8-18.7,16.4-18.7c11.6,0,16.4,8.8,16.4,18.7C353.3,100.3,348.5,109.1,336.9,109.1z"/>
</g>
<g id="Layer_2">
</g>
</svg>
