<?xml version="1.0" encoding="utf-8"?>
<!-- Generator: Adobe Illustrator 23.0.3, SVG Export Plug-In . SVG Version: 6.00 Build 0)  -->
<svg version="1.1" id="Layer_1" xmlns="http://www.w3.org/2000/svg" xmlns:xlink="http://www.w3.org/1999/xlink" x="0px" y="0px"
	 viewBox="0 0 180 27" style="enable-background:new 0 0 180 27;" xml:space="preserve">
<style type="text/css">
	.st0{fill:#FFFFFF;}
	.st1{fill-rule:evenodd;clip-rule:evenodd;fill:#FFFFFF;}
</style>
<title>Logo</title>
<g>
	<g>
		<path class="st0" d="M46.6,19.1c0.4,0.3,1.1,0.4,2.3,0.4c1.2,0,1.9-0.1,2.4-0.3c0.9-0.3,0.9-1,0.9-1.7v-1.1h-3.2
			c-1.5,0-1.9,0-2.3,0.2c-0.4,0.2-0.6,0.6-0.6,1.4C46.2,18.7,46.3,19,46.6,19.1z"/>
		<path class="st0" d="M104.4,14.1c-0.3-0.8-1.1-1.1-2.8-1.1c-1.2,0-2.1,0.2-2.5,0.5c-0.4,0.3-0.7,0.8-0.8,1.9h6.2
			C104.6,14.7,104.5,14.4,104.4,14.1z"/>
		<path class="st0" d="M39,15.3L39,15.3v-2c0-2-0.9-3.9-4.8-3.9h-4.9v9.9h5.1C37.6,19.2,39,17.9,39,15.3z"/>
		<path class="st0" d="M0.1,26.9h112.7V0H0.1V26.9z M96.9,13.4c0.6-1.2,2.2-1.8,4.7-1.8c1.9,0,3.4,0.4,4.1,1.1
			c0.6,0.6,0.9,1.5,0.9,2.9c0,0.3,0,0.5,0,0.9h-8.1v0.2c0,1.1,0.2,1.7,0.5,2.1c0.4,0.4,1.3,0.6,2.8,0.6c1.6,0,2.2-0.1,2.5-0.4
			c0.3-0.3,0.3-0.9,0.3-1.2h1.9c0,0.4,0,0.9,0,1c0,0.5-0.3,1.2-1.4,1.5c-1.2,0.3-2.2,0.4-3.5,0.4c-1.6,0-2.8-0.2-3.5-0.6
			c-1.1-0.6-1.7-1.8-1.7-3.8C96.3,15.2,96.5,14.2,96.9,13.4z M85.1,7.9H87v7.3h0.7l3.9-3.4h2.3l-4.5,3.9l5.6,5h-2.6l-4.7-4.2H87v4.2
			h-1.9V7.9z M71.6,17.8h1.9c0.1,0.5,0.1,0.6,0.1,0.7c0.1,0.4,0,0.7,0.5,0.8c0.5,0.2,1.3,0.2,2.3,0.2c1.2,0,2.1-0.1,2.7-0.4
			c0.4-0.2,0.6-0.5,0.6-1.1c0-0.7-0.2-1-0.9-1.1c-0.2,0-0.5,0-0.7-0.1c-0.1,0-0.6,0-1.2,0c-0.3,0-0.7,0-1.1,0c-1.9-0.1-4-0.2-4-2.4
			c0-2,1.3-2.7,4.7-2.7c0.9,0,2,0.1,2.6,0.1c0.8,0.1,1.3,0.2,1.7,0.5c0.4,0.3,0.6,0.7,0.6,1.4c0,0.2,0,0.4,0,0.7h-1.9l-0.1-0.4
			c-0.1-0.5-0.1-0.6-0.3-0.7c-0.3-0.2-1.1-0.3-2.3-0.3c-1.2,0-1.8,0.1-2.4,0.3c-0.5,0.2-0.7,0.5-0.7,1.1c0,0.4,0.2,0.8,0.4,0.9
			c0.5,0.3,3.2,0.3,4.1,0.3c1,0,1.6,0.1,2.2,0.3c1,0.3,1.4,1,1.4,2.3c0,1.1-0.4,1.7-1.1,2.1c-0.9,0.4-2.3,0.6-4.3,0.6
			c-1.3,0-2.4-0.1-3.3-0.3c-0.9-0.2-1.4-0.6-1.4-1.4C71.5,18.7,71.5,18.3,71.6,17.8z M58.2,11.7h1.7l0.1,0.6
			c0.4-0.2,0.7-0.4,1.1-0.5c0.6-0.2,1.5-0.3,2.5-0.3c1.2,0,2.2,0.2,2.9,0.5c0.7,0.3,1.1,0.9,1.3,1.6c0.1,0.5,0.1,0.9,0.1,1.9v5.1
			h-1.9v-4.9c0-1.7-0.1-2.1-0.5-2.4c-0.4-0.3-1.2-0.5-2.3-0.5c-1,0-2.1,0.1-3.1,0.4v7.3h-1.9V11.7z M44.6,16.3c0.8-1,2.1-1,3.3-1
			h4.4v-0.9c0-0.4,0-0.8-0.4-1.1C51.5,13,50.5,13,49,13c-1.3,0-1.7,0.1-2,0.3c-0.2,0.2-0.3,0.8-0.3,1h-1.9c0-0.4-0.1-0.7-0.1-0.9
			c0-0.3,0.1-0.6,0.4-0.9c0.9-0.7,3.2-0.8,4.1-0.8c1.1,0,3.5,0,4.4,0.8c0.4,0.3,0.6,0.7,0.7,1.2c0.1,0.5,0.1,1.2,0.1,2.1v5h-1.7
			L52.5,20c-0.7,0.6-1.8,0.9-3.6,0.9c-3.4,0-4.7-0.7-4.7-2.8C44.1,17.3,44.3,16.7,44.6,16.3z M27.2,7.9h6.6c2.9,0,7.2,0.2,7.2,5.6
			v1.7c0,2.4-0.9,5.5-6.6,5.5h-7.2V7.9z"/>
		<path class="st0" d="M115.5,0v26.9l0,0h64.4V0H115.5z M179.2,26.2L179.2,26.2h-63V0.7h63h0V26.2z"/>
	</g>
	<path class="st1" d="M132.1,11.1c0,1.9-1.1,2.3-3.3,2.3h-4.9V9.3h5.1C131,9.3,132.1,9.5,132.1,11.1L132.1,11.1z M134.6,17.1
		c0-1.6-0.9-2.8-3.1-3.1v0c1.7-0.4,2.6-1.3,2.6-2.7c0-2.3-1.1-3.4-4.3-3.4h-8.1v12.8h8.4C133.1,20.7,134.6,19.4,134.6,17.1
		L134.6,17.1z M132.5,17.2c0,1.8-1.3,2-3.3,2h-5.3v-4.4h5.6C131.9,14.8,132.5,15.6,132.5,17.2z M145.2,17.5c0,0.8-0.1,1.4-0.9,1.7
		c-0.5,0.2-1.2,0.3-2.4,0.3c-1.2,0-1.9-0.1-2.4-0.4c-0.3-0.2-0.4-0.5-0.4-1.1c0-0.8,0.2-1.2,0.6-1.4c0.4-0.2,0.8-0.2,2.3-0.2h3.2
		L145.2,17.5L145.2,17.5z M147.2,20.7v-5c0-0.9,0-1.6-0.1-2.1c-0.1-0.5-0.3-0.8-0.7-1.2c-0.9-0.7-3.2-0.8-4.4-0.8
		c-0.9,0-3.2,0.1-4.1,0.8c-0.3,0.3-0.4,0.5-0.4,0.9c0,0.2,0,0.5,0.1,0.9h1.9c0-0.2,0.1-0.8,0.3-1c0.3-0.3,0.7-0.3,2-0.3
		c1.5,0,2.5,0.1,3,0.3c0.4,0.2,0.4,0.7,0.4,1.1v0.9h-4.4c-1.2,0-2.5,0-3.3,1c-0.3,0.4-0.5,1-0.5,1.7c0,2.1,1.3,2.8,4.7,2.8
		c1.8,0,2.9-0.3,3.6-0.9l0.2,0.7L147.2,20.7L147.2,20.7z M158.5,20.7v-4.9c0-1.7-0.1-2.1-0.5-2.4c-0.4-0.3-1.2-0.5-2.4-0.5
		c-1.1,0-2.1,0.1-3.1,0.4v7.3h-1.9v-9h1.7l0.1,0.6c0.4-0.2,0.7-0.4,1.1-0.5c0.6-0.2,1.5-0.3,2.5-0.3c1.2,0,2.2,0.2,2.9,0.5
		c0.7,0.3,1.1,0.9,1.3,1.6c0.1,0.5,0.1,0.9,0.1,1.9v5.1L158.5,20.7 M171.1,20.7l-4.7-4.2h-0.7v4.2h-1.9V7.9h1.9v7.3h0.7l3.9-3.4h2.3
		l-4.5,3.9l5.6,5H171.1"/>
</g>
</svg>
