<?xml version="1.0" encoding="utf-8"?>
<!-- Generator: Adobe Illustrator 23.0.3, SVG Export Plug-In . SVG Version: 6.00 Build 0)  -->
<svg version="1.1" id="Lag_1" xmlns="http://www.w3.org/2000/svg" xmlns:xlink="http://www.w3.org/1999/xlink" x="0px" y="0px"
	 viewBox="0 0 595.3 841.9" style="enable-background:new 0 0 595.3 841.9;" xml:space="preserve">
<style type="text/css">
	.st0{fill:#FFFFFF;}
</style>
<g>
	<path class="st0" d="M93.7,327.5h62.1c24.1,0,38.9-5.5,47.8-17c13.2-15.8,13.6-41.2,13.6-80.3v-53.3c0-39-0.4-64.5-13.6-80.3
		c-8.9-11.6-23.6-17-47.8-17H93.7c-1.9,0-3,0.6-3.8,1.4c-0.8,0.8-1.4,2-1.4,3.8v237.5c0,1.9,0.6,3,1.4,3.8
		C90.7,326.9,91.9,327.5,93.7,327.5z M127.9,108.5h21.9c9.7,0,15.4,1.6,19.9,6.9c6.9,8.3,7.5,25,7.5,58.7v58.7
		c0,33.7-0.6,50.4-7.5,58.7c-4.5,5.4-10.3,6.9-19.9,6.9h-21.9V108.5z"/>
	<path class="st0" d="M441.4,330.6c24.4,0,40.1-6.5,49.8-17.8c11.4-13.2,14.2-29,14.2-52.7V84.8c0-1.9-0.6-3-1.4-3.8
		c-0.8-0.8-1.9-1.4-3.8-1.4h-29.1c-1.9,0-3,0.6-3.8,1.4c-0.8,0.8-1.4,2-1.4,3.8v175.4c0,18.3-1.4,29.2-7.3,35.7
		c-4,4.4-9.7,6.6-17.7,6.6c-7.2,0-12.8-2-16.9-6.6c-5.6-6.2-7.3-16.7-7.3-35.7V84.8c0-1.9-0.6-3-1.4-3.8c-0.8-0.8-2-1.4-3.8-1.4h-29
		c-1.9,0-3,0.6-3.8,1.4c-0.8,0.8-1.4,2-1.4,3.8v175.4c0,25.5,3.5,41.5,13.6,52.7C401.3,324.5,417.2,330.6,441.4,330.6z"/>
	<path class="st0" d="M238.4,110.9h37.3v211.4c0,1.9,0.5,3,1.4,3.8c0.8,0.8,2,1.4,3.8,1.4h31.8c1.9,0,3-0.6,3.8-1.4
		c0.8-0.8,1.4-2,1.4-3.8V110.9h37.3c1.9,0,3-0.6,3.8-1.4c0.8-0.8,1.4-2,1.4-3.8V84.8c0-1.9-0.6-3-1.4-3.8c-0.8-0.8-2-1.4-3.8-1.4
		H238.4c-1.9,0-3,0.6-3.8,1.4c-0.8,0.8-1.4,2-1.4,3.8v20.9c0,1.9,0.6,3,1.4,3.8C235.4,110.3,236.5,110.9,238.4,110.9z"/>
	<path class="st0" d="M432.1,503.9l99.6-52.3l-99.6-52.3c-129,50.2-139.9,50.2-268.9,0l-99.6,52.3l99.6,52.3
		C292.2,453.7,303.1,453.7,432.1,503.9z"/>
	<path class="st0" d="M163.2,528.5l-99.6,52.3l99.6,52.3c129-50.2,139.9-50.2,268.9,0l99.6-52.3l-99.6-52.3
		C303.1,578.7,292.2,578.7,163.2,528.5z"/>
	<path class="st0" d="M163.2,657.8L63.6,710l99.6,52.3c129-50.2,139.9-50.2,268.9,0l99.6-52.3l-99.6-52.3
		C303.1,707.9,292.2,707.9,163.2,657.8z"/>
</g>
</svg>
