<?xml version="1.0" encoding="utf-8"?>
<!-- Generator: Adobe Illustrator 23.0.3, SVG Export Plug-In . SVG Version: 6.00 Build 0)  -->
<svg version="1.1" id="Layer_1" xmlns="http://www.w3.org/2000/svg" xmlns:xlink="http://www.w3.org/1999/xlink" x="0px" y="0px"
	 viewBox="0 0 841.9 292.3" style="enable-background:new 0 0 841.9 292.3;" xml:space="preserve">
<style type="text/css">
	.st0{fill:#FFFFFF;}
</style>
<g>
	<path class="st0" d="M627,217.6c-1.9,3.5-7.3,10-16.7,10h-38.8c-9.4,0-14.9-6.5-16.6-9.9l-52.5-106.5c-5.1-10-16-13.2-25-13.2
		h-95.4c-8.8,0-13.9,5.6-13.9,13.9c0,8.8,5.7,13.9,14,13.9h65.6c27.9,0,51,16.9,51,50.9c0,34.3-23.3,50.9-51,50.9h-84.3
		c-7.6,0-14-4.4-14-14v-18.4c0-3.1,2.1-4.6,4.7-4.6h75c7.8,0,14-4.7,14-13.9c0-9.1-6.1-13.9-14-13.9h-70.5
		c-11.8,0-22.5-3.2-30.2-8.2c-3.9,45.1-36.3,73-83.6,73c0,0-102.8,0-105.5,0c-2.6,0-4.7-1.5-4.7-4.6v-92.7c0-3.1,2-4.6,4.6-4.6h37.3
		c9.8,0,14.3,6.3,14.3,13.8v46.4l0,0c0,3.1,2,4.6,4.6,4.6c9.9,0,32.2,0,32.2,0c25.4,0,46.4-15.3,46.4-46.3c0-31-21-46.3-46.4-46.3
		h-88.3c-2.5-0.1-4.5-1.6-4.5-4.6V74.8c0-10.4,7.4-14,14.1-14h96.4c27.1,0,51.7,10,66.2,28.6c7.9-18.8,25.4-28.6,47.5-28.6h138.1
		c16.9,0,36.2,5.9,46.1,25.4l44.7,93.6c0.4,1,1.4,1.4,2.5,1.4s2-0.4,2.5-1.3c0,0,55.3-116.1,55.6-116.8c0.3-0.6,1.4-2.2,4.2-2.2
		c3,0,42.5,0,42.5,0c2.6,0,4.7,1.5,4.7,4.6c0,0.9-0.2,1.6-0.4,2.2L627,217.6z"/>
</g>
</svg>
